%FSLAX34Y34*%
%MOMM*%
%LNSILK_TOP*%
G71*
G01*
%ADD10C, 6.00*%
%ADD11C, 2.40*%
%ADD12C, 1.20*%
%ADD13C, 0.80*%
%ADD14C, 0.55*%
%ADD15C, 0.53*%
%ADD16C, 3.00*%
%ADD17C, 1.60*%
%ADD18C, 1.40*%
%ADD19C, 0.40*%
%ADD20C, 0.15*%
%LPD*%
G36*
X0Y1000000D02*
X680000Y1000000D01*
X680000Y670000D01*
X0Y670000D01*
X0Y1000000D01*
G37*
%LPC*%
X48816Y953294D02*
G54D10*
D03*
X628253Y723900D02*
G54D10*
D03*
X48816Y723900D02*
G54D10*
D03*
X628253Y953294D02*
G54D10*
D03*
X580231Y965994D02*
G54D11*
D03*
X580230Y940590D02*
G54D11*
D03*
X554831Y965994D02*
G54D11*
D03*
X554831Y940594D02*
G54D11*
D03*
X529431Y965994D02*
G54D11*
D03*
X529431Y940594D02*
G54D11*
D03*
X504030Y965990D02*
G54D11*
D03*
X504031Y940594D02*
G54D11*
D03*
X478631Y965994D02*
G54D11*
D03*
X478631Y940594D02*
G54D11*
D03*
X453230Y965990D02*
G54D11*
D03*
X453231Y940594D02*
G54D11*
D03*
X427831Y965994D02*
G54D11*
D03*
X427831Y940594D02*
G54D11*
D03*
X402431Y965994D02*
G54D11*
D03*
X402430Y940590D02*
G54D11*
D03*
X377031Y965994D02*
G54D11*
D03*
X377031Y940594D02*
G54D11*
D03*
X351631Y965994D02*
G54D11*
D03*
X351631Y940594D02*
G54D11*
D03*
X326230Y965990D02*
G54D11*
D03*
X326231Y940594D02*
G54D11*
D03*
X300831Y965994D02*
G54D11*
D03*
X300831Y940594D02*
G54D11*
D03*
X275431Y965994D02*
G54D11*
D03*
X275431Y940594D02*
G54D11*
D03*
X250030Y965990D02*
G54D11*
D03*
X250031Y940594D02*
G54D11*
D03*
X224631Y965994D02*
G54D11*
D03*
X224631Y940594D02*
G54D11*
D03*
X199231Y965994D02*
G54D11*
D03*
X199230Y940590D02*
G54D11*
D03*
X173831Y965994D02*
G54D11*
D03*
X173831Y940594D02*
G54D11*
D03*
X148430Y965990D02*
G54D11*
D03*
X123031Y965994D02*
G54D11*
D03*
X97631Y965994D02*
G54D11*
D03*
X148431Y940594D02*
G54D11*
D03*
X123031Y940594D02*
G54D11*
D03*
X97631Y940594D02*
G54D11*
D03*
X35926Y886972D02*
G54D11*
D03*
X35529Y886972D02*
G54D11*
D03*
X35132Y886972D02*
G54D11*
D03*
X34735Y886972D02*
G54D11*
D03*
X34338Y886972D02*
G54D11*
D03*
X33941Y886972D02*
G54D11*
D03*
X33544Y886972D02*
G54D11*
D03*
X33147Y886972D02*
G54D11*
D03*
X32750Y886972D02*
G54D11*
D03*
X32354Y886972D02*
G54D11*
D03*
X31957Y886972D02*
G54D11*
D03*
X31560Y886972D02*
G54D11*
D03*
X31163Y886972D02*
G54D11*
D03*
X30766Y886972D02*
G54D11*
D03*
X30369Y886972D02*
G54D11*
D03*
X29972Y886972D02*
G54D11*
D03*
X29972Y886972D02*
G54D11*
D03*
X29576Y886972D02*
G54D11*
D03*
X29179Y886972D02*
G54D11*
D03*
X28782Y886972D02*
G54D11*
D03*
X28385Y886972D02*
G54D11*
D03*
X27988Y886972D02*
G54D11*
D03*
X27591Y886972D02*
G54D11*
D03*
X27194Y886972D02*
G54D11*
D03*
X26797Y886972D02*
G54D11*
D03*
X26400Y886972D02*
G54D11*
D03*
X26004Y886972D02*
G54D11*
D03*
X25607Y886972D02*
G54D11*
D03*
X25210Y886972D02*
G54D11*
D03*
X68866Y790134D02*
G54D11*
D03*
X68469Y790134D02*
G54D11*
D03*
X68072Y790134D02*
G54D11*
D03*
X67676Y790134D02*
G54D11*
D03*
X67279Y790134D02*
G54D11*
D03*
X66882Y790134D02*
G54D11*
D03*
X66485Y790134D02*
G54D11*
D03*
X66088Y790134D02*
G54D11*
D03*
X65691Y790134D02*
G54D11*
D03*
X65294Y790134D02*
G54D11*
D03*
X64897Y790134D02*
G54D11*
D03*
X64500Y790134D02*
G54D11*
D03*
X64104Y790134D02*
G54D11*
D03*
X63707Y790134D02*
G54D11*
D03*
X63310Y790134D02*
G54D11*
D03*
X62913Y790134D02*
G54D11*
D03*
X62913Y790134D02*
G54D11*
D03*
X62516Y790134D02*
G54D11*
D03*
X62119Y790134D02*
G54D11*
D03*
X61722Y790134D02*
G54D11*
D03*
X61326Y790134D02*
G54D11*
D03*
X60929Y790134D02*
G54D11*
D03*
X60532Y790134D02*
G54D11*
D03*
X60135Y790134D02*
G54D11*
D03*
X59738Y790134D02*
G54D11*
D03*
X59341Y790134D02*
G54D11*
D03*
X58944Y790134D02*
G54D11*
D03*
X58547Y790134D02*
G54D11*
D03*
X58150Y790134D02*
G54D11*
D03*
X68866Y886972D02*
G54D11*
D03*
X68469Y886972D02*
G54D11*
D03*
X68072Y886972D02*
G54D11*
D03*
X67676Y886972D02*
G54D11*
D03*
X67279Y886972D02*
G54D11*
D03*
X66882Y886972D02*
G54D11*
D03*
X66485Y886972D02*
G54D11*
D03*
X66088Y886972D02*
G54D11*
D03*
X65691Y886972D02*
G54D11*
D03*
X65294Y886972D02*
G54D11*
D03*
X64897Y886972D02*
G54D11*
D03*
X64500Y886972D02*
G54D11*
D03*
X64104Y886972D02*
G54D11*
D03*
X63707Y886972D02*
G54D11*
D03*
X63310Y886972D02*
G54D11*
D03*
X62913Y886972D02*
G54D11*
D03*
X62913Y886972D02*
G54D11*
D03*
X62516Y886972D02*
G54D11*
D03*
X62119Y886972D02*
G54D11*
D03*
X61722Y886972D02*
G54D11*
D03*
X61326Y886972D02*
G54D11*
D03*
X60929Y886972D02*
G54D11*
D03*
X60532Y886972D02*
G54D11*
D03*
X60135Y886972D02*
G54D11*
D03*
X59738Y886972D02*
G54D11*
D03*
X59341Y886972D02*
G54D11*
D03*
X58944Y886972D02*
G54D11*
D03*
X58547Y886972D02*
G54D11*
D03*
X58150Y886972D02*
G54D11*
D03*
X35926Y790134D02*
G54D11*
D03*
X35529Y790134D02*
G54D11*
D03*
X35132Y790134D02*
G54D11*
D03*
X34735Y790134D02*
G54D11*
D03*
X34338Y790134D02*
G54D11*
D03*
X33941Y790134D02*
G54D11*
D03*
X33544Y790134D02*
G54D11*
D03*
X33147Y790134D02*
G54D11*
D03*
X32750Y790134D02*
G54D11*
D03*
X32354Y790134D02*
G54D11*
D03*
X31957Y790134D02*
G54D11*
D03*
X31560Y790134D02*
G54D11*
D03*
X31163Y790134D02*
G54D11*
D03*
X30766Y790134D02*
G54D11*
D03*
X30369Y790134D02*
G54D11*
D03*
X29972Y790134D02*
G54D11*
D03*
X29972Y790134D02*
G54D11*
D03*
X29576Y790134D02*
G54D11*
D03*
X29179Y790134D02*
G54D11*
D03*
X28782Y790134D02*
G54D11*
D03*
X28385Y790134D02*
G54D11*
D03*
X27988Y790134D02*
G54D11*
D03*
X27591Y790134D02*
G54D11*
D03*
X27194Y790134D02*
G54D11*
D03*
X26797Y790134D02*
G54D11*
D03*
X26400Y790134D02*
G54D11*
D03*
X26004Y790134D02*
G54D11*
D03*
X25607Y790134D02*
G54D11*
D03*
X25210Y790134D02*
G54D11*
D03*
X84733Y845145D02*
G54D12*
D03*
X84733Y838597D02*
G54D12*
D03*
X271859Y884833D02*
G54D13*
D03*
X219869Y852884D02*
G54D13*
D03*
X84733Y851694D02*
G54D12*
D03*
X84733Y832247D02*
G54D12*
D03*
X84733Y825698D02*
G54D12*
D03*
G54D14*
X219869Y852884D02*
X219869Y863203D01*
X226219Y869553D01*
X267494Y869553D01*
X272256Y874316D01*
X272256Y884436D01*
X271859Y884833D01*
X139700Y831850D02*
G54D13*
D03*
X158750Y831850D02*
G54D13*
D03*
G54D14*
X148431Y940594D02*
X148431Y778669D01*
X158750Y768350D01*
X228600Y768350D01*
X228600Y793750D02*
G54D11*
D03*
X228600Y768350D02*
G54D11*
D03*
X228600Y742950D02*
G54D11*
D03*
X228600Y717550D02*
G54D11*
D03*
G54D14*
X123031Y940594D02*
X123031Y842169D01*
X133350Y831850D01*
X139700Y831850D01*
G54D14*
X158750Y831850D02*
X212725Y831850D01*
X228600Y815975D01*
X228600Y793750D01*
X130200Y812775D02*
G54D13*
D03*
G54D14*
X84733Y845145D02*
X110530Y845145D01*
X130175Y825500D01*
X130175Y812800D01*
X130200Y812775D01*
%LPD*%
G54D15*
G36*
X582897Y940590D02*
X582897Y928090D01*
X577563Y928090D01*
X577563Y940590D01*
X582897Y940590D01*
G37*
G54D15*
G36*
X501363Y965990D02*
X501363Y978490D01*
X506697Y978490D01*
X506697Y965990D01*
X501363Y965990D01*
G37*
G54D15*
G36*
X450563Y965990D02*
X450563Y978490D01*
X455897Y978490D01*
X455897Y965990D01*
X450563Y965990D01*
G37*
G54D15*
G36*
X405097Y940590D02*
X405097Y928090D01*
X399763Y928090D01*
X399763Y940590D01*
X405097Y940590D01*
G37*
G54D15*
G36*
X323563Y965990D02*
X323563Y978490D01*
X328897Y978490D01*
X328897Y965990D01*
X323563Y965990D01*
G37*
G54D15*
G36*
X247363Y965990D02*
X247363Y978490D01*
X252697Y978490D01*
X252697Y965990D01*
X247363Y965990D01*
G37*
G54D15*
G36*
X201897Y940590D02*
X201897Y928090D01*
X196563Y928090D01*
X196563Y940590D01*
X201897Y940590D01*
G37*
G54D15*
G36*
X145763Y965990D02*
X145763Y978490D01*
X151097Y978490D01*
X151097Y965990D01*
X145763Y965990D01*
G37*
X48816Y953294D02*
G54D16*
D03*
X628253Y723900D02*
G54D16*
D03*
X48816Y723900D02*
G54D16*
D03*
X628253Y953294D02*
G54D16*
D03*
X580231Y965994D02*
G54D17*
D03*
X580230Y940590D02*
G54D17*
D03*
X554831Y965994D02*
G54D17*
D03*
X554831Y940594D02*
G54D17*
D03*
X529431Y965994D02*
G54D17*
D03*
X529431Y940594D02*
G54D17*
D03*
X504030Y965990D02*
G54D17*
D03*
X504031Y940594D02*
G54D17*
D03*
X478631Y965994D02*
G54D17*
D03*
X478631Y940594D02*
G54D17*
D03*
X453230Y965990D02*
G54D17*
D03*
X453231Y940594D02*
G54D17*
D03*
X427831Y965994D02*
G54D17*
D03*
X427831Y940594D02*
G54D17*
D03*
X402431Y965994D02*
G54D17*
D03*
X402430Y940590D02*
G54D17*
D03*
X377031Y965994D02*
G54D17*
D03*
X377031Y940594D02*
G54D17*
D03*
X351631Y965994D02*
G54D17*
D03*
X351631Y940594D02*
G54D17*
D03*
X326230Y965990D02*
G54D17*
D03*
X326231Y940594D02*
G54D17*
D03*
X300831Y965994D02*
G54D17*
D03*
X300831Y940594D02*
G54D17*
D03*
X275431Y965994D02*
G54D17*
D03*
X275431Y940594D02*
G54D17*
D03*
X250030Y965990D02*
G54D17*
D03*
X250031Y940594D02*
G54D17*
D03*
X224631Y965994D02*
G54D17*
D03*
X224631Y940594D02*
G54D17*
D03*
X199231Y965994D02*
G54D17*
D03*
X199230Y940590D02*
G54D17*
D03*
X173831Y965994D02*
G54D17*
D03*
X173831Y940594D02*
G54D17*
D03*
X148430Y965990D02*
G54D17*
D03*
X123031Y965994D02*
G54D17*
D03*
X97631Y965994D02*
G54D17*
D03*
X148431Y940594D02*
G54D17*
D03*
X123031Y940594D02*
G54D17*
D03*
X97631Y940594D02*
G54D17*
D03*
X35926Y886972D02*
G54D18*
D03*
X35529Y886972D02*
G54D18*
D03*
X35132Y886972D02*
G54D18*
D03*
X34735Y886972D02*
G54D18*
D03*
X34338Y886972D02*
G54D18*
D03*
X33941Y886972D02*
G54D18*
D03*
X33544Y886972D02*
G54D18*
D03*
X33147Y886972D02*
G54D18*
D03*
X32750Y886972D02*
G54D18*
D03*
X32354Y886972D02*
G54D18*
D03*
X31957Y886972D02*
G54D18*
D03*
X31560Y886972D02*
G54D18*
D03*
X31163Y886972D02*
G54D18*
D03*
X30766Y886972D02*
G54D18*
D03*
X30369Y886972D02*
G54D18*
D03*
X29972Y886972D02*
G54D18*
D03*
X29972Y886972D02*
G54D18*
D03*
X29576Y886972D02*
G54D18*
D03*
X29179Y886972D02*
G54D18*
D03*
X28782Y886972D02*
G54D18*
D03*
X28385Y886972D02*
G54D18*
D03*
X27988Y886972D02*
G54D18*
D03*
X27591Y886972D02*
G54D18*
D03*
X27194Y886972D02*
G54D18*
D03*
X26797Y886972D02*
G54D18*
D03*
X26400Y886972D02*
G54D18*
D03*
X26004Y886972D02*
G54D18*
D03*
X25607Y886972D02*
G54D18*
D03*
X25210Y886972D02*
G54D18*
D03*
X68866Y790134D02*
G54D18*
D03*
X68469Y790134D02*
G54D18*
D03*
X68072Y790134D02*
G54D18*
D03*
X67676Y790134D02*
G54D18*
D03*
X67279Y790134D02*
G54D18*
D03*
X66882Y790134D02*
G54D18*
D03*
X66485Y790134D02*
G54D18*
D03*
X66088Y790134D02*
G54D18*
D03*
X65691Y790134D02*
G54D18*
D03*
X65294Y790134D02*
G54D18*
D03*
X64897Y790134D02*
G54D18*
D03*
X64500Y790134D02*
G54D18*
D03*
X64104Y790134D02*
G54D18*
D03*
X63707Y790134D02*
G54D18*
D03*
X63310Y790134D02*
G54D18*
D03*
X62913Y790134D02*
G54D18*
D03*
X62913Y790134D02*
G54D18*
D03*
X62516Y790134D02*
G54D18*
D03*
X62119Y790134D02*
G54D18*
D03*
X61722Y790134D02*
G54D18*
D03*
X61326Y790134D02*
G54D18*
D03*
X60929Y790134D02*
G54D18*
D03*
X60532Y790134D02*
G54D18*
D03*
X60135Y790134D02*
G54D18*
D03*
X59738Y790134D02*
G54D18*
D03*
X59341Y790134D02*
G54D18*
D03*
X58944Y790134D02*
G54D18*
D03*
X58547Y790134D02*
G54D18*
D03*
X58150Y790134D02*
G54D18*
D03*
X68866Y886972D02*
G54D18*
D03*
X68469Y886972D02*
G54D18*
D03*
X68072Y886972D02*
G54D18*
D03*
X67676Y886972D02*
G54D18*
D03*
X67279Y886972D02*
G54D18*
D03*
X66882Y886972D02*
G54D18*
D03*
X66485Y886972D02*
G54D18*
D03*
X66088Y886972D02*
G54D18*
D03*
X65691Y886972D02*
G54D18*
D03*
X65294Y886972D02*
G54D18*
D03*
X64897Y886972D02*
G54D18*
D03*
X64500Y886972D02*
G54D18*
D03*
X64104Y886972D02*
G54D18*
D03*
X63707Y886972D02*
G54D18*
D03*
X63310Y886972D02*
G54D18*
D03*
X62913Y886972D02*
G54D18*
D03*
X62913Y886972D02*
G54D18*
D03*
X62516Y886972D02*
G54D18*
D03*
X62119Y886972D02*
G54D18*
D03*
X61722Y886972D02*
G54D18*
D03*
X61326Y886972D02*
G54D18*
D03*
X60929Y886972D02*
G54D18*
D03*
X60532Y886972D02*
G54D18*
D03*
X60135Y886972D02*
G54D18*
D03*
X59738Y886972D02*
G54D18*
D03*
X59341Y886972D02*
G54D18*
D03*
X58944Y886972D02*
G54D18*
D03*
X58547Y886972D02*
G54D18*
D03*
X58150Y886972D02*
G54D18*
D03*
X35926Y790134D02*
G54D18*
D03*
X35529Y790134D02*
G54D18*
D03*
X35132Y790134D02*
G54D18*
D03*
X34735Y790134D02*
G54D18*
D03*
X34338Y790134D02*
G54D18*
D03*
X33941Y790134D02*
G54D18*
D03*
X33544Y790134D02*
G54D18*
D03*
X33147Y790134D02*
G54D18*
D03*
X32750Y790134D02*
G54D18*
D03*
X32354Y790134D02*
G54D18*
D03*
X31957Y790134D02*
G54D18*
D03*
X31560Y790134D02*
G54D18*
D03*
X31163Y790134D02*
G54D18*
D03*
X30766Y790134D02*
G54D18*
D03*
X30369Y790134D02*
G54D18*
D03*
X29972Y790134D02*
G54D18*
D03*
X29972Y790134D02*
G54D18*
D03*
X29576Y790134D02*
G54D18*
D03*
X29179Y790134D02*
G54D18*
D03*
X28782Y790134D02*
G54D18*
D03*
X28385Y790134D02*
G54D18*
D03*
X27988Y790134D02*
G54D18*
D03*
X27591Y790134D02*
G54D18*
D03*
X27194Y790134D02*
G54D18*
D03*
X26797Y790134D02*
G54D18*
D03*
X26400Y790134D02*
G54D18*
D03*
X26004Y790134D02*
G54D18*
D03*
X25607Y790134D02*
G54D18*
D03*
X25210Y790134D02*
G54D18*
D03*
X84733Y845145D02*
G54D19*
D03*
X84733Y838597D02*
G54D19*
D03*
X271859Y884833D02*
G54D19*
D03*
X219869Y852884D02*
G54D19*
D03*
X84733Y851694D02*
G54D19*
D03*
X84733Y832247D02*
G54D19*
D03*
X84733Y825698D02*
G54D19*
D03*
G54D20*
X219869Y852884D02*
X219869Y863203D01*
X226219Y869553D01*
X267494Y869553D01*
X272256Y874316D01*
X272256Y884436D01*
X271859Y884833D01*
X139700Y831850D02*
G54D19*
D03*
X158750Y831850D02*
G54D19*
D03*
G54D20*
X148431Y940594D02*
X148431Y778669D01*
X158750Y768350D01*
X228600Y768350D01*
X228600Y793750D02*
G54D17*
D03*
X228600Y768350D02*
G54D17*
D03*
X228600Y742950D02*
G54D17*
D03*
X228600Y717550D02*
G54D17*
D03*
G54D20*
X123031Y940594D02*
X123031Y842169D01*
X133350Y831850D01*
X139700Y831850D01*
G54D20*
X158750Y831850D02*
X212725Y831850D01*
X228600Y815975D01*
X228600Y793750D01*
X130200Y812775D02*
G54D19*
D03*
G54D20*
X84733Y845145D02*
X110530Y845145D01*
X130175Y825500D01*
X130175Y812800D01*
X130200Y812775D01*
M02*
