%FSLAX34Y34*%
%MOMM*%
%LNCOPPER_BOTTOM*%
G71*
G01*
%ADD10C, 0.10*%
%ADD11C, 0.06*%
%ADD12C, 0.03*%
%ADD13C, 0.00*%
%ADD14C, 0.15*%
%ADD15C, 0.11*%
%ADD16R, 0.50X0.50*%
%LPD*%
G54D10*
X338931Y954881D02*
X338931Y951706D01*
G54D10*
X337344Y953294D02*
X340519Y953294D01*
G54D10*
X13502Y875462D02*
X13502Y801644D01*
X59540Y801644D01*
G54D10*
X59738Y801644D02*
X59738Y875462D01*
X13700Y875462D01*
G54D11*
X45847Y856094D02*
X47514Y851650D01*
X49181Y856094D01*
G54D11*
X53069Y852483D02*
X52736Y851928D01*
X52069Y851650D01*
X51402Y851650D01*
X50736Y851928D01*
X50402Y852483D01*
X50402Y855261D01*
X50736Y855817D01*
X51402Y856094D01*
X52069Y856094D01*
X52736Y855817D01*
X53069Y855261D01*
G54D11*
X56958Y852483D02*
X56625Y851928D01*
X55958Y851650D01*
X55291Y851650D01*
X54625Y851928D01*
X54291Y852483D01*
X54291Y855261D01*
X54625Y855817D01*
X55291Y856094D01*
X55958Y856094D01*
X56625Y855817D01*
X56958Y855261D01*
G54D11*
X50610Y843316D02*
X50610Y847760D01*
X52276Y847760D01*
X52943Y847482D01*
X53276Y846927D01*
X53276Y844149D01*
X52943Y843593D01*
X52276Y843316D01*
X50610Y843316D01*
G54D11*
X54499Y845260D02*
X57166Y845260D01*
G54D11*
X50610Y836569D02*
X50610Y841013D01*
X52276Y841013D01*
X52943Y840735D01*
X53276Y840180D01*
X53276Y837402D01*
X52943Y836846D01*
X52276Y836569D01*
X50610Y836569D01*
G54D11*
X54499Y838513D02*
X57166Y838513D01*
G54D11*
X55832Y839624D02*
X55832Y837402D01*
G54D11*
X50610Y829822D02*
X50610Y834266D01*
G54D11*
X51832Y829822D02*
X51832Y834266D01*
X53498Y834266D01*
X54165Y833988D01*
X54498Y833433D01*
X54498Y830655D01*
X54165Y830100D01*
X53498Y829822D01*
X51832Y829822D01*
G54D11*
X47974Y825297D02*
X49308Y825297D01*
X49308Y823908D01*
X48974Y823353D01*
X48308Y823075D01*
X47641Y823075D01*
X46974Y823353D01*
X46641Y823908D01*
X46641Y826686D01*
X46974Y827242D01*
X47641Y827519D01*
X48308Y827519D01*
X48974Y827242D01*
X49308Y826686D01*
G54D11*
X50530Y823075D02*
X50530Y827519D01*
X53197Y823075D01*
X53197Y827519D01*
G54D11*
X54419Y823075D02*
X54419Y827519D01*
X56086Y827519D01*
X56752Y827242D01*
X57086Y826686D01*
X57086Y823908D01*
X56752Y823353D01*
X56086Y823075D01*
X54419Y823075D01*
G54D11*
X21241Y824266D02*
X16797Y824266D01*
X19574Y825932D01*
X16797Y827599D01*
X21241Y827599D01*
G54D11*
X21241Y828821D02*
X18741Y828821D01*
G54D11*
X17908Y828821D02*
X17908Y828821D01*
G54D11*
X18908Y831709D02*
X18741Y831043D01*
X18908Y830376D01*
X19463Y830043D01*
X20574Y830043D01*
X21130Y830376D01*
X21241Y831043D01*
X21130Y831709D01*
G54D11*
X21241Y832932D02*
X18741Y832932D01*
G54D11*
X19297Y832932D02*
X18741Y833598D01*
X18741Y834265D01*
G54D11*
X20574Y837487D02*
X19463Y837487D01*
X18908Y837153D01*
X18741Y836487D01*
X18908Y835820D01*
X19463Y835487D01*
X20574Y835487D01*
X21130Y835820D01*
X21241Y836487D01*
X21130Y837153D01*
X20574Y837487D01*
G54D11*
X16797Y839998D02*
X20408Y839998D01*
X20963Y840331D01*
X21241Y840998D01*
X21241Y841664D01*
X20963Y842331D01*
X20408Y842664D01*
X16797Y842664D01*
G54D11*
X20408Y843887D02*
X20963Y844220D01*
X21241Y844887D01*
X21241Y845553D01*
X20963Y846220D01*
X20408Y846553D01*
X19852Y846553D01*
X19297Y846220D01*
X19019Y845553D01*
X19019Y844887D01*
X18741Y844220D01*
X18186Y843887D01*
X17630Y843887D01*
X17074Y844220D01*
X16797Y844887D01*
X16797Y845553D01*
X17074Y846220D01*
X17630Y846553D01*
G54D11*
X21241Y847776D02*
X16797Y847776D01*
X16797Y849442D01*
X17074Y850109D01*
X17630Y850442D01*
X18186Y850442D01*
X18741Y850109D01*
X19019Y849442D01*
X19297Y850109D01*
X19852Y850442D01*
X20408Y850442D01*
X20963Y850109D01*
X21241Y849442D01*
X21241Y847776D01*
G54D11*
X19019Y847776D02*
X19019Y849442D01*
G54D10*
X84931Y978694D02*
X592931Y978694D01*
X592931Y927894D01*
X84931Y927894D01*
X84931Y978694D01*
G54D10*
X298813Y843544D02*
X199197Y843544D01*
G54D10*
X298813Y894939D02*
X199197Y894939D01*
G54D10*
X298813Y843544D02*
X298813Y894939D01*
G54D10*
X199197Y843544D02*
X199197Y894939D01*
G54D10*
X298813Y859419D02*
X294844Y859419D01*
G54D10*
X298813Y879064D02*
X294844Y879064D01*
G54D10*
X294844Y859419D02*
X294844Y879064D01*
G54D11*
X292480Y893359D02*
X294147Y891692D01*
X289702Y891692D01*
G54D11*
X283352Y890692D02*
X283352Y893359D01*
X283630Y893359D01*
X284186Y893026D01*
X285852Y891026D01*
X286408Y890692D01*
X286964Y890692D01*
X287519Y891026D01*
X287797Y891692D01*
X287797Y892359D01*
X287519Y893026D01*
X286964Y893359D01*
G54D11*
X280614Y893359D02*
X281169Y893026D01*
X281447Y892359D01*
X281447Y891692D01*
X281169Y891026D01*
X280614Y890692D01*
X280058Y890692D01*
X279502Y891026D01*
X279225Y891692D01*
X278947Y891026D01*
X278391Y890692D01*
X277836Y890692D01*
X277280Y891026D01*
X277002Y891692D01*
X277002Y892359D01*
X277280Y893026D01*
X277836Y893359D01*
G54D11*
X270256Y891359D02*
X274700Y891359D01*
X271922Y893359D01*
X271367Y893359D01*
X271367Y890692D01*
G54D11*
X267953Y890692D02*
X267953Y893359D01*
X266009Y893359D01*
X266009Y893026D01*
X266286Y892359D01*
X266286Y891692D01*
X266009Y891026D01*
X265453Y890692D01*
X264342Y890692D01*
X263786Y891026D01*
X263509Y891692D01*
X263509Y892359D01*
X263786Y893026D01*
X264342Y893359D01*
G54D11*
X260770Y890692D02*
X261325Y891026D01*
X261603Y891692D01*
X261603Y892359D01*
X261325Y893026D01*
X260770Y893359D01*
X259381Y893359D01*
X259103Y893359D01*
X259659Y892359D01*
X259659Y891692D01*
X259381Y891026D01*
X258825Y890692D01*
X257992Y890692D01*
X257436Y891026D01*
X257159Y891692D01*
X257159Y892359D01*
X257436Y893026D01*
X257992Y893359D01*
X259381Y893359D01*
G54D11*
X255253Y893359D02*
X255253Y890692D01*
X254698Y891026D01*
X253864Y891692D01*
X252753Y892359D01*
X251920Y892692D01*
X250809Y892692D01*
G54D11*
X246681Y891692D02*
X246681Y892359D01*
X246959Y893026D01*
X247514Y893359D01*
X248070Y893359D01*
X248625Y893026D01*
X248903Y892359D01*
X248903Y891692D01*
X248625Y891026D01*
X248070Y890692D01*
X247514Y890692D01*
X246959Y891026D01*
X246681Y891692D01*
X246403Y891026D01*
X245848Y890692D01*
X245292Y890692D01*
X244736Y891026D01*
X244459Y891692D01*
X244459Y892359D01*
X244736Y893026D01*
X245292Y893359D01*
X245848Y893359D01*
X246403Y893026D01*
X246681Y892359D01*
G54D11*
X237354Y893359D02*
X236799Y893026D01*
X236521Y892359D01*
X236521Y891692D01*
X236799Y891026D01*
X237354Y890692D01*
X238744Y890692D01*
X239021Y890692D01*
X238466Y891692D01*
X238466Y892359D01*
X238744Y893026D01*
X239299Y893359D01*
X240132Y893359D01*
X240688Y893026D01*
X240966Y892359D01*
X240966Y891692D01*
X240688Y891026D01*
X240132Y890692D01*
X238744Y890692D01*
G54D11*
X232949Y893359D02*
X234616Y891692D01*
X230171Y891692D01*
G54D11*
X233782Y887803D02*
X231004Y887803D01*
X230449Y888137D01*
X230171Y888803D01*
X230171Y889470D01*
X230449Y890137D01*
X231004Y890470D01*
X233782Y890470D01*
X234338Y890137D01*
X234616Y889470D01*
X234616Y888803D01*
X234338Y888137D01*
X233782Y887803D01*
G54D11*
X226599Y893359D02*
X228266Y891692D01*
X223821Y891692D01*
G54D11*
X226599Y890470D02*
X228266Y888803D01*
X223821Y888803D01*
G54D11*
X220249Y893359D02*
X221916Y891692D01*
X217471Y891692D01*
G54D11*
X217471Y887803D02*
X217471Y890470D01*
X217749Y890470D01*
X218304Y890137D01*
X219971Y888137D01*
X220527Y887803D01*
X221082Y887803D01*
X221638Y888137D01*
X221916Y888803D01*
X221916Y889470D01*
X221638Y890137D01*
X221082Y890470D01*
G54D11*
X213899Y893359D02*
X215566Y891692D01*
X211121Y891692D01*
G54D11*
X214732Y890470D02*
X215288Y890137D01*
X215566Y889470D01*
X215566Y888803D01*
X215288Y888137D01*
X214732Y887803D01*
X214177Y887803D01*
X213621Y888137D01*
X213344Y888803D01*
X213066Y888137D01*
X212510Y887803D01*
X211955Y887803D01*
X211399Y888137D01*
X211121Y888803D01*
X211121Y889470D01*
X211399Y890137D01*
X211954Y890470D01*
G54D11*
X205962Y893359D02*
X207628Y891692D01*
X203184Y891692D01*
G54D11*
X203184Y888470D02*
X207628Y888470D01*
X204850Y890470D01*
X204295Y890470D01*
X204295Y887803D01*
G54D11*
X207549Y850496D02*
X209216Y848830D01*
X204771Y848830D01*
G54D11*
X209216Y844941D02*
X209216Y847607D01*
X207271Y847607D01*
X207271Y847274D01*
X207549Y846607D01*
X207549Y845941D01*
X207271Y845274D01*
X206716Y844941D01*
X205604Y844941D01*
X205049Y845274D01*
X204771Y845941D01*
X204771Y846607D01*
X205049Y847274D01*
X205605Y847607D01*
G54D11*
X213899Y850496D02*
X215566Y848830D01*
X211121Y848830D01*
G54D11*
X214732Y844941D02*
X215288Y845274D01*
X215566Y845941D01*
X215566Y846607D01*
X215288Y847274D01*
X214732Y847607D01*
X213344Y847607D01*
X213066Y847607D01*
X213621Y846607D01*
X213621Y845941D01*
X213344Y845274D01*
X212788Y844941D01*
X211955Y844941D01*
X211399Y845274D01*
X211121Y845941D01*
X211121Y846607D01*
X211399Y847274D01*
X211955Y847607D01*
X213344Y847607D01*
G54D11*
X220249Y850496D02*
X221916Y848830D01*
X217471Y848830D01*
G54D11*
X221916Y847607D02*
X221916Y844941D01*
X221360Y845274D01*
X220527Y845941D01*
X219416Y846607D01*
X218582Y846941D01*
X217471Y846941D01*
G54D11*
X226599Y850496D02*
X228266Y848830D01*
X223821Y848830D01*
G54D11*
X226044Y845941D02*
X226044Y846607D01*
X226321Y847274D01*
X226877Y847607D01*
X227432Y847607D01*
X227988Y847274D01*
X228266Y846607D01*
X228266Y845941D01*
X227988Y845274D01*
X227432Y844941D01*
X226877Y844941D01*
X226321Y845274D01*
X226044Y845941D01*
X225766Y845274D01*
X225210Y844941D01*
X224654Y844941D01*
X224099Y845274D01*
X223821Y845941D01*
X223821Y846607D01*
X224099Y847274D01*
X224654Y847607D01*
X225210Y847607D01*
X225766Y847274D01*
X226044Y846607D01*
G54D11*
X232949Y850496D02*
X234616Y848830D01*
X230171Y848830D01*
G54D11*
X231004Y847607D02*
X230449Y847274D01*
X230171Y846607D01*
X230171Y845941D01*
X230449Y845274D01*
X231004Y844941D01*
X232394Y844941D01*
X232671Y844941D01*
X232116Y845941D01*
X232116Y846607D01*
X232394Y847274D01*
X232949Y847607D01*
X233782Y847607D01*
X234338Y847274D01*
X234616Y846607D01*
X234616Y845941D01*
X234338Y845274D01*
X233782Y844941D01*
X232394Y844941D01*
G54D11*
X236918Y848623D02*
X236918Y851290D01*
X237196Y851290D01*
X237752Y850957D01*
X239418Y848957D01*
X239974Y848623D01*
X240529Y848623D01*
X241085Y848957D01*
X241362Y849623D01*
X241362Y850290D01*
X241085Y850957D01*
X240529Y851290D01*
G54D11*
X240529Y844734D02*
X237751Y844734D01*
X237196Y845068D01*
X236918Y845734D01*
X236918Y846401D01*
X237196Y847068D01*
X237752Y847401D01*
X240529Y847401D01*
X241085Y847068D01*
X241362Y846401D01*
X241362Y845734D01*
X241085Y845068D01*
X240529Y844734D01*
G54D11*
X243268Y847830D02*
X243268Y850496D01*
X243546Y850496D01*
X244101Y850163D01*
X245768Y848163D01*
X246324Y847830D01*
X246879Y847830D01*
X247435Y848163D01*
X247712Y848830D01*
X247713Y849496D01*
X247435Y850163D01*
X246879Y850496D01*
G54D11*
X246046Y846607D02*
X247712Y844941D01*
X243268Y844941D01*
G54D11*
X250015Y848623D02*
X250015Y851290D01*
X250293Y851290D01*
X250848Y850957D01*
X252515Y848957D01*
X253071Y848623D01*
X253626Y848623D01*
X254182Y848957D01*
X254459Y849623D01*
X254459Y850290D01*
X254182Y850957D01*
X253626Y851290D01*
G54D11*
X250015Y844734D02*
X250015Y847401D01*
X250293Y847401D01*
X250848Y847068D01*
X252515Y845068D01*
X253071Y844734D01*
X253626Y844734D01*
X254182Y845068D01*
X254459Y845734D01*
X254459Y846401D01*
X254182Y847068D01*
X253626Y847401D01*
G54D11*
X256762Y848623D02*
X256762Y851290D01*
X257040Y851290D01*
X257595Y850957D01*
X259262Y848957D01*
X259817Y848623D01*
X260373Y848623D01*
X260928Y848957D01*
X261206Y849623D01*
X261206Y850290D01*
X260929Y850957D01*
X260373Y851290D01*
G54D11*
X260373Y847401D02*
X260929Y847068D01*
X261206Y846401D01*
X261206Y845734D01*
X260928Y845068D01*
X260373Y844734D01*
X259817Y844734D01*
X259262Y845068D01*
X258984Y845734D01*
X258706Y845068D01*
X258151Y844734D01*
X257595Y844734D01*
X257040Y845068D01*
X256762Y845734D01*
X256762Y846401D01*
X257040Y847068D01*
X257595Y847401D01*
G54D11*
X263112Y848623D02*
X263112Y851290D01*
X263390Y851290D01*
X263945Y850957D01*
X265612Y848957D01*
X266167Y848623D01*
X266723Y848623D01*
X267278Y848957D01*
X267556Y849623D01*
X267556Y850290D01*
X267278Y850957D01*
X266723Y851290D01*
G54D11*
X263112Y845401D02*
X267556Y845401D01*
X264778Y847401D01*
X264223Y847401D01*
X264223Y844734D01*
G54D11*
X269462Y848623D02*
X269462Y851290D01*
X269740Y851290D01*
X270295Y850957D01*
X271962Y848957D01*
X272517Y848623D01*
X273073Y848623D01*
X273628Y848957D01*
X273906Y849623D01*
X273906Y850290D01*
X273629Y850957D01*
X273073Y851290D01*
G54D11*
X273906Y844734D02*
X273906Y847401D01*
X271962Y847401D01*
X271962Y847068D01*
X272240Y846401D01*
X272240Y845734D01*
X271962Y845068D01*
X271406Y844734D01*
X270295Y844734D01*
X269740Y845068D01*
X269462Y845734D01*
X269462Y846401D01*
X269740Y847068D01*
X270295Y847401D01*
G54D11*
X276209Y848623D02*
X276209Y851290D01*
X276486Y851290D01*
X277042Y850957D01*
X278709Y848957D01*
X279264Y848623D01*
X279820Y848623D01*
X280375Y848957D01*
X280653Y849623D01*
X280653Y850290D01*
X280375Y850957D01*
X279820Y851290D01*
G54D11*
X279820Y844734D02*
X280375Y845068D01*
X280653Y845734D01*
X280653Y846401D01*
X280375Y847068D01*
X279820Y847401D01*
X278431Y847401D01*
X278153Y847401D01*
X278709Y846401D01*
X278709Y845734D01*
X278431Y845068D01*
X277875Y844734D01*
X277042Y844734D01*
X276486Y845068D01*
X276209Y845734D01*
X276209Y846401D01*
X276486Y847068D01*
X277042Y847401D01*
X278431Y847401D01*
G54D11*
X282559Y848623D02*
X282559Y851290D01*
X282836Y851290D01*
X283392Y850957D01*
X285059Y848957D01*
X285614Y848623D01*
X286170Y848623D01*
X286725Y848957D01*
X287003Y849623D01*
X287003Y850290D01*
X286725Y850957D01*
X286170Y851290D01*
G54D11*
X287003Y847401D02*
X287003Y844734D01*
X286448Y845068D01*
X285614Y845734D01*
X284503Y846401D01*
X283670Y846734D01*
X282559Y846734D01*
G54D11*
X288909Y848623D02*
X288909Y851290D01*
X289186Y851290D01*
X289742Y850957D01*
X291409Y848957D01*
X291964Y848623D01*
X292520Y848623D01*
X293075Y848957D01*
X293353Y849623D01*
X293353Y850290D01*
X293075Y850957D01*
X292520Y851290D01*
G54D11*
X291131Y845734D02*
X291131Y846401D01*
X291409Y847068D01*
X291964Y847401D01*
X292520Y847401D01*
X293075Y847068D01*
X293353Y846401D01*
X293353Y845734D01*
X293075Y845068D01*
X292520Y844734D01*
X291964Y844734D01*
X291409Y845068D01*
X291131Y845734D01*
X290853Y845068D01*
X290298Y844734D01*
X289742Y844734D01*
X289186Y845068D01*
X288909Y845734D01*
X288909Y846401D01*
X289186Y847068D01*
X289742Y847401D01*
X290298Y847401D01*
X290853Y847068D01*
X291131Y846401D01*
G54D11*
X256762Y869801D02*
X261206Y869801D01*
G54D11*
X261206Y871134D02*
X261206Y868467D01*
G54D11*
X261206Y867245D02*
X256762Y863912D01*
G54D11*
X256762Y867245D02*
X261206Y863912D01*
G54D11*
X261206Y862690D02*
X256762Y862690D01*
X256762Y860357D01*
G54D11*
X256762Y856802D02*
X256762Y859135D01*
X261206Y859135D01*
X261206Y856802D01*
G54D11*
X258984Y859135D02*
X258984Y856802D01*
G54D11*
X256762Y855580D02*
X261206Y855580D01*
X261206Y853913D01*
X260928Y853246D01*
X260373Y852913D01*
X257595Y852913D01*
X257040Y853247D01*
X256762Y853913D01*
X256762Y855580D01*
G54D11*
X252237Y869801D02*
X251682Y868801D01*
X251126Y868467D01*
X250015Y868467D01*
G54D11*
X250015Y871134D02*
X254459Y871134D01*
X254459Y869467D01*
X254182Y868801D01*
X253626Y868467D01*
X253071Y868467D01*
X252515Y868801D01*
X252237Y869467D01*
X252237Y871134D01*
G54D11*
X254459Y867245D02*
X250015Y863912D01*
G54D11*
X250015Y867245D02*
X254459Y863912D01*
G54D11*
X254459Y862690D02*
X250015Y862690D01*
X250015Y860357D01*
G54D11*
X250015Y856802D02*
X250015Y859135D01*
X254459Y859135D01*
X254459Y856802D01*
G54D11*
X252237Y859135D02*
X252237Y856802D01*
G54D11*
X250015Y855580D02*
X254459Y855580D01*
X254459Y853913D01*
X254182Y853246D01*
X253626Y852913D01*
X250848Y852913D01*
X250293Y853247D01*
X250015Y853913D01*
X250015Y855580D01*
G54D11*
X211121Y858434D02*
X215566Y858434D01*
X215566Y856767D01*
X215288Y856100D01*
X214732Y855767D01*
X211954Y855767D01*
X211399Y856101D01*
X211121Y856767D01*
X211121Y858434D01*
G54D11*
X213066Y854545D02*
X213066Y851878D01*
G54D11*
X204771Y858434D02*
X209216Y858434D01*
X209216Y856767D01*
X208938Y856101D01*
X208382Y855767D01*
X205605Y855767D01*
X205049Y856101D01*
X204771Y856767D01*
X204771Y858434D01*
G54D11*
X206716Y854545D02*
X206716Y851878D01*
G54D11*
X207827Y853212D02*
X205605Y853212D01*
G54D11*
X289702Y887263D02*
X294147Y887263D01*
G54D11*
X294147Y888596D02*
X294147Y885930D01*
G54D11*
X294147Y884707D02*
X289702Y881374D01*
G54D11*
X289702Y884707D02*
X294147Y881374D01*
G54D11*
X265731Y887263D02*
X265175Y886263D01*
X264620Y885930D01*
X263509Y885930D01*
G54D11*
X263509Y888596D02*
X267953Y888596D01*
X267953Y886930D01*
X267675Y886263D01*
X267120Y885930D01*
X266564Y885930D01*
X266009Y886263D01*
X265731Y886930D01*
X265731Y888596D01*
G54D11*
X267953Y884707D02*
X263509Y881374D01*
G54D11*
X263509Y884707D02*
X267953Y881374D01*
G54D11*
X253031Y887263D02*
X253031Y885930D01*
X251642Y885930D01*
X251086Y886263D01*
X250809Y886930D01*
X250809Y887596D01*
X251086Y888263D01*
X251642Y888596D01*
X254420Y888596D01*
X254975Y888263D01*
X255253Y887596D01*
X255253Y886930D01*
X254975Y886263D01*
X254420Y885930D01*
G54D11*
X250809Y884707D02*
X255253Y884707D01*
X250809Y882041D01*
X255253Y882041D01*
G54D11*
X250809Y880818D02*
X255253Y880818D01*
X255253Y879152D01*
X254975Y878485D01*
X254420Y878152D01*
X251642Y878152D01*
X251086Y878485D01*
X250809Y879152D01*
X250809Y880818D01*
G54D11*
X278431Y861863D02*
X278431Y860530D01*
X277042Y860530D01*
X276486Y860863D01*
X276209Y861530D01*
X276209Y862196D01*
X276486Y862863D01*
X277042Y863196D01*
X279820Y863196D01*
X280375Y862863D01*
X280653Y862196D01*
X280653Y861530D01*
X280375Y860863D01*
X279820Y860530D01*
G54D11*
X276209Y859307D02*
X280653Y859307D01*
X276209Y856641D01*
X280653Y856641D01*
G54D11*
X276209Y855418D02*
X280653Y855418D01*
X280653Y853752D01*
X280375Y853085D01*
X279820Y852752D01*
X277042Y852752D01*
X276486Y853085D01*
X276209Y853752D01*
X276209Y855418D01*
G54D11*
X271684Y861863D02*
X271684Y860530D01*
X270295Y860530D01*
X269740Y860863D01*
X269462Y861530D01*
X269462Y862196D01*
X269740Y862863D01*
X270295Y863196D01*
X273073Y863196D01*
X273628Y862863D01*
X273906Y862196D01*
X273906Y861530D01*
X273628Y860863D01*
X273073Y860530D01*
G54D11*
X269462Y859307D02*
X273906Y859307D01*
X269462Y856641D01*
X273906Y856641D01*
G54D11*
X269462Y855418D02*
X273906Y855418D01*
X273906Y853752D01*
X273628Y853085D01*
X273073Y852752D01*
X270295Y852752D01*
X269740Y853085D01*
X269462Y853752D01*
X269462Y855418D01*
G54D11*
X245490Y861863D02*
X245490Y860530D01*
X244102Y860530D01*
X243546Y860863D01*
X243268Y861530D01*
X243268Y862196D01*
X243546Y862863D01*
X244101Y863196D01*
X246879Y863196D01*
X247435Y862863D01*
X247712Y862196D01*
X247713Y861530D01*
X247435Y860863D01*
X246879Y860530D01*
G54D11*
X243268Y859307D02*
X247712Y859307D01*
X243268Y856641D01*
X247712Y856641D01*
G54D11*
X243268Y855418D02*
X247712Y855418D01*
X247713Y853752D01*
X247435Y853085D01*
X246879Y852752D01*
X244102Y852752D01*
X243546Y853085D01*
X243268Y853752D01*
X243268Y855418D01*
G54D11*
X226044Y861069D02*
X226044Y859736D01*
X224654Y859736D01*
X224099Y860069D01*
X223821Y860736D01*
X223821Y861403D01*
X224099Y862069D01*
X224654Y862403D01*
X227432Y862403D01*
X227988Y862069D01*
X228266Y861403D01*
X228266Y860736D01*
X227988Y860069D01*
X227432Y859736D01*
G54D11*
X223821Y858514D02*
X228266Y858514D01*
X223821Y855847D01*
X228266Y855847D01*
G54D11*
X223821Y854625D02*
X228266Y854625D01*
X228266Y852958D01*
X227988Y852291D01*
X227432Y851958D01*
X224654Y851958D01*
X224099Y852291D01*
X223821Y852958D01*
X223821Y854625D01*
G54D11*
X274700Y888596D02*
X270256Y886930D01*
X274700Y885263D01*
G54D11*
X270256Y884041D02*
X274700Y884041D01*
G54D11*
X273867Y880153D02*
X271089Y880153D01*
X270533Y880486D01*
X270256Y881153D01*
X270256Y881819D01*
X270533Y882486D01*
X271089Y882819D01*
X273867Y882819D01*
X274422Y882486D01*
X274700Y881819D01*
X274700Y881153D01*
X274422Y880486D01*
X273867Y880153D01*
G54D11*
X221082Y863196D02*
X221638Y862863D01*
X221916Y862196D01*
X221916Y861530D01*
X221638Y860863D01*
X221082Y860530D01*
X220527Y860530D01*
X219971Y860863D01*
X219694Y861530D01*
X219416Y860863D01*
X218860Y860530D01*
X218304Y860530D01*
X217749Y860863D01*
X217471Y861530D01*
X217471Y862196D01*
X217749Y862863D01*
X218304Y863196D01*
G54D11*
X221916Y859307D02*
X217471Y857641D01*
X221916Y855974D01*
G54D11*
X221082Y854752D02*
X221638Y854419D01*
X221916Y853752D01*
X221916Y853086D01*
X221638Y852419D01*
X221082Y852086D01*
X220527Y852086D01*
X219971Y852419D01*
X219694Y853086D01*
X219416Y852419D01*
X218860Y852086D01*
X218304Y852086D01*
X217749Y852419D01*
X217471Y853086D01*
X217471Y853752D01*
X217749Y854419D01*
X218304Y854752D01*
G54D11*
X241379Y863996D02*
X236935Y862330D01*
X241379Y860663D01*
G54D11*
X237768Y856775D02*
X237213Y857108D01*
X236935Y857775D01*
X236935Y858442D01*
X237213Y859108D01*
X237768Y859442D01*
X240546Y859442D01*
X241102Y859108D01*
X241379Y858442D01*
X241379Y857775D01*
X241102Y857108D01*
X240546Y856775D01*
G54D11*
X237768Y852886D02*
X237213Y853219D01*
X236935Y853886D01*
X236935Y854552D01*
X237213Y855219D01*
X237768Y855552D01*
X240546Y855552D01*
X241102Y855219D01*
X241379Y854552D01*
X241379Y853886D01*
X241102Y853219D01*
X240546Y852886D01*
G54D10*
X161528Y879277D02*
X186134Y879277D01*
X186134Y869752D01*
X161528Y869752D01*
X161528Y879277D01*
G54D12*
X163116Y873609D02*
X164116Y870942D01*
X165116Y873609D01*
G54D12*
X173838Y872276D02*
X174638Y872276D01*
X174638Y871442D01*
X174438Y871109D01*
X174038Y870942D01*
X173638Y870942D01*
X173238Y871109D01*
X173038Y871442D01*
X173038Y873109D01*
X173238Y873442D01*
X173638Y873609D01*
X174038Y873609D01*
X174438Y873442D01*
X174638Y873109D01*
G54D12*
X182375Y870942D02*
X180975Y870942D01*
X180975Y873609D01*
X182375Y873609D01*
G54D12*
X180975Y872276D02*
X182375Y872276D01*
G54D12*
X183108Y870942D02*
X183108Y873609D01*
X184708Y870942D01*
X184708Y873609D01*
G54D12*
X165112Y877871D02*
X165112Y876205D01*
X164912Y875871D01*
X164512Y875705D01*
X164112Y875705D01*
X163712Y875871D01*
X163512Y876205D01*
X163512Y877871D01*
X163712Y878205D01*
X164112Y878371D01*
X164512Y878371D01*
X164912Y878205D01*
X165112Y877871D01*
G54D12*
X180975Y875308D02*
X180975Y877974D01*
X182575Y875308D01*
X182575Y877974D01*
G54D12*
X184908Y875808D02*
X184708Y875474D01*
X184308Y875308D01*
X183908Y875308D01*
X183508Y875474D01*
X183308Y875808D01*
X183308Y877474D01*
X183508Y877808D01*
X183908Y877974D01*
X184308Y877974D01*
X184708Y877808D01*
X184908Y877474D01*
G54D13*
X133747Y858838D02*
X106759Y858838D01*
G54D10*
X149423Y858044D02*
X91083Y858044D01*
X91083Y891381D01*
X149423Y891381D01*
X149423Y858044D01*
G54D10*
X404416Y891381D02*
X430609Y891381D01*
X430609Y852884D01*
X404416Y852884D01*
X404416Y891381D01*
G54D10*
X405209Y880269D02*
X409972Y880269D01*
X409972Y864394D01*
X405209Y864394D01*
G54D11*
X410442Y889510D02*
X405997Y887843D01*
X410442Y886176D01*
G54D11*
X417049Y888915D02*
X412604Y888915D01*
X415382Y887248D01*
X412604Y885582D01*
X417049Y885582D01*
G54D11*
X412604Y884360D02*
X417049Y884360D01*
X417049Y882693D01*
X416771Y882027D01*
X416216Y881693D01*
X415660Y881693D01*
X415104Y882027D01*
X414827Y882693D01*
X414827Y884360D01*
G54D11*
X419536Y889794D02*
X418981Y889460D01*
X418703Y888794D01*
X418703Y888127D01*
X418981Y887460D01*
X419536Y887127D01*
X420092Y887127D01*
X420648Y887460D01*
X420925Y888127D01*
X420925Y888794D01*
X421203Y889460D01*
X421759Y889794D01*
X422314Y889794D01*
X422870Y889460D01*
X423148Y888794D01*
X423148Y888127D01*
X422870Y887460D01*
X422314Y887127D01*
G54D11*
X419536Y883238D02*
X418981Y883571D01*
X418703Y884238D01*
X418703Y884905D01*
X418981Y885571D01*
X419536Y885905D01*
X422314Y885905D01*
X422870Y885571D01*
X423148Y884905D01*
X423148Y884238D01*
X422870Y883571D01*
X422314Y883238D01*
G54D11*
X423148Y882016D02*
X418703Y882016D01*
X418703Y879682D01*
G54D11*
X425093Y889794D02*
X424537Y889460D01*
X424259Y888794D01*
X424259Y888127D01*
X424537Y887460D01*
X425093Y887127D01*
X425648Y887127D01*
X426204Y887460D01*
X426482Y888127D01*
X426482Y888794D01*
X426759Y889460D01*
X427315Y889794D01*
X427870Y889794D01*
X428426Y889460D01*
X428704Y888794D01*
X428704Y888127D01*
X428426Y887460D01*
X427870Y887127D01*
G54D11*
X424259Y885905D02*
X428704Y885905D01*
X428704Y884238D01*
X428426Y883571D01*
X427870Y883238D01*
X425093Y883238D01*
X424537Y883571D01*
X424259Y884238D01*
X424259Y885905D01*
G54D11*
X424259Y882016D02*
X428704Y880349D01*
X424259Y878682D01*
G54D11*
X425926Y881349D02*
X425926Y879349D01*
G54D11*
X406003Y862012D02*
X410448Y860346D01*
X406003Y858679D01*
G54D11*
X407670Y861346D02*
X407670Y859346D01*
G54D11*
X409614Y854791D02*
X406836Y854791D01*
X406281Y855124D01*
X406003Y855791D01*
X406003Y856458D01*
X406281Y857124D01*
X406836Y857458D01*
X409614Y857458D01*
X410170Y857124D01*
X410448Y856458D01*
X410448Y855791D01*
X410170Y855124D01*
X409614Y854791D01*
G54D11*
X412353Y861219D02*
X416798Y859552D01*
X412353Y857885D01*
G54D11*
X414020Y860552D02*
X414020Y858552D01*
G54D11*
X415131Y856664D02*
X416798Y854997D01*
X412353Y854997D01*
G54D11*
X418703Y861219D02*
X423148Y861219D01*
X418703Y858552D01*
X423148Y858552D01*
G54D11*
X419536Y854663D02*
X418981Y854996D01*
X418703Y855663D01*
X418703Y856330D01*
X418981Y856996D01*
X419536Y857330D01*
X422314Y857330D01*
X422870Y856996D01*
X423148Y856330D01*
X423148Y855663D01*
X422870Y854996D01*
X422314Y854663D01*
G54D11*
X426482Y863060D02*
X426482Y861727D01*
X425093Y861727D01*
X424537Y862060D01*
X424259Y862727D01*
X424259Y863394D01*
X424537Y864060D01*
X425093Y864394D01*
X427870Y864394D01*
X428426Y864060D01*
X428704Y863394D01*
X428704Y862727D01*
X428426Y862060D01*
X427870Y861727D01*
G54D11*
X424259Y860505D02*
X428704Y860505D01*
X424259Y857838D01*
X428704Y857838D01*
G54D11*
X424259Y856616D02*
X428704Y856616D01*
X428704Y854949D01*
X428426Y854282D01*
X427870Y853949D01*
X425093Y853949D01*
X424537Y854282D01*
X424259Y854949D01*
X424259Y856616D01*
G54D14*
X203175Y752950D02*
X203175Y732950D01*
X165175Y732950D01*
X165175Y752950D01*
X203175Y752950D01*
G54D14*
X203175Y721200D02*
X203175Y701200D01*
X165175Y701200D01*
X165175Y721200D01*
X203175Y721200D01*
G54D14*
X155550Y721200D02*
X155550Y701200D01*
X117550Y701200D01*
X117550Y721200D01*
X155550Y721200D01*
G54D14*
X155550Y752950D02*
X155550Y732950D01*
X117550Y732950D01*
X117550Y752950D01*
X155550Y752950D01*
G54D15*
X94742Y742632D02*
X96742Y741521D01*
X97408Y740410D01*
X97408Y738188D01*
G54D15*
X92075Y738188D02*
X92075Y747076D01*
X95408Y747076D01*
X96742Y746521D01*
X97408Y745410D01*
X97408Y744299D01*
X96742Y743188D01*
X95408Y742632D01*
X92075Y742632D01*
G54D15*
X99852Y747076D02*
X106519Y738188D01*
G54D15*
X99852Y738188D02*
X106519Y747076D01*
G54D15*
X94742Y706438D02*
X94742Y715326D01*
G54D15*
X92075Y715326D02*
X97408Y715326D01*
G54D15*
X99852Y715326D02*
X106519Y706438D01*
G54D15*
X99852Y706438D02*
X106519Y715326D01*
G54D11*
X139700Y924361D02*
X140033Y924917D01*
X140700Y925194D01*
X141367Y925194D01*
X142033Y924917D01*
X142367Y924361D01*
X142367Y923806D01*
X142033Y923250D01*
X141367Y922972D01*
X142033Y922694D01*
X142367Y922139D01*
X142367Y921583D01*
X142033Y921028D01*
X141367Y920750D01*
X140700Y920750D01*
X140033Y921028D01*
X139700Y921583D01*
G54D11*
X143589Y922694D02*
X146256Y922694D01*
G54D11*
X147478Y921583D02*
X147811Y921028D01*
X148478Y920750D01*
X149145Y920750D01*
X149811Y921028D01*
X150145Y921583D01*
X150145Y922139D01*
X149811Y922694D01*
X149145Y922972D01*
X148478Y922972D01*
X147811Y923250D01*
X147478Y923806D01*
X147478Y924361D01*
X147811Y924917D01*
X148478Y925194D01*
X149145Y925194D01*
X149811Y924917D01*
X150145Y924361D01*
G54D11*
X154034Y921583D02*
X153700Y921028D01*
X153034Y920750D01*
X152367Y920750D01*
X151700Y921028D01*
X151367Y921583D01*
X151367Y924361D01*
X151700Y924917D01*
X152367Y925194D01*
X153034Y925194D01*
X153700Y924917D01*
X154034Y924361D01*
G54D11*
X155256Y925194D02*
X155256Y920750D01*
X157589Y920750D01*
G54D11*
X116967Y920750D02*
X114300Y920750D01*
X114300Y921028D01*
X114633Y921583D01*
X116633Y923250D01*
X116967Y923806D01*
X116967Y924361D01*
X116633Y924917D01*
X115967Y925194D01*
X115300Y925194D01*
X114633Y924917D01*
X114300Y924361D01*
G54D11*
X118189Y922694D02*
X120856Y922694D01*
G54D11*
X122078Y921583D02*
X122411Y921028D01*
X123078Y920750D01*
X123745Y920750D01*
X124411Y921028D01*
X124745Y921583D01*
X124745Y922139D01*
X124411Y922694D01*
X123745Y922972D01*
X123078Y922972D01*
X122411Y923250D01*
X122078Y923806D01*
X122078Y924361D01*
X122411Y924917D01*
X123078Y925194D01*
X123745Y925194D01*
X124411Y924917D01*
X124745Y924361D01*
G54D11*
X125967Y920750D02*
X125967Y925194D01*
X127634Y925194D01*
X128300Y924917D01*
X128634Y924361D01*
X128634Y921583D01*
X128300Y921028D01*
X127634Y920750D01*
X125967Y920750D01*
G54D11*
X129856Y920750D02*
X131523Y925194D01*
X133189Y920750D01*
G54D11*
X130523Y922417D02*
X132523Y922417D01*
G54D14*
X307475Y893712D02*
X327475Y893712D01*
X327475Y855712D01*
X307475Y855712D01*
X307475Y893712D01*
G54D14*
X336050Y893712D02*
X356050Y893712D01*
X356050Y855712D01*
X336050Y855712D01*
X336050Y893712D01*
G54D14*
X364625Y893712D02*
X384625Y893712D01*
X384625Y855712D01*
X364625Y855712D01*
X364625Y893712D01*
G54D14*
X444526Y832963D02*
X444526Y852963D01*
X482526Y852963D01*
X482526Y832963D01*
X444526Y832963D01*
G54D15*
X463424Y908994D02*
X463424Y900105D01*
X466757Y905661D01*
X470090Y900105D01*
X470090Y908994D01*
G54D15*
X472535Y900105D02*
X472535Y908994D01*
X475868Y908994D01*
X477201Y908439D01*
X477868Y907328D01*
X477868Y906216D01*
X477202Y905105D01*
X475868Y904550D01*
X472535Y904550D01*
G54D10*
X611981Y918766D02*
X623094Y918766D01*
X625475Y908447D01*
X633016Y905272D01*
X642144Y911225D01*
X650081Y904081D01*
X643731Y896144D01*
X647303Y888206D01*
X658416Y886619D01*
X658416Y875903D01*
X648494Y874712D01*
X644922Y866378D01*
X650081Y858838D01*
X642541Y851297D01*
X633809Y856853D01*
X629444Y854075D01*
X621903Y870744D01*
G54D10*
X613172Y870744D02*
X605631Y854472D01*
X601266Y856456D01*
X592931Y850900D01*
X584597Y858441D01*
X590550Y866378D01*
X586978Y874712D01*
X576659Y875903D01*
X577056Y886619D01*
X587772Y888603D01*
X590550Y894953D01*
X584597Y903288D01*
X592534Y910828D01*
X601662Y905272D01*
X610394Y908447D01*
X611981Y918766D01*
G54D10*
G75*
G01X621634Y871428D02*
G03X613429Y871428I-4103J9666D01*
G01*
G36*
X577056Y886619D02*
X587772Y888603D01*
X590550Y894953D01*
X584597Y903288D01*
X592534Y910828D01*
X601662Y905272D01*
X610394Y908447D01*
X611981Y918766D01*
X623094Y918766D01*
X625475Y908447D01*
X633016Y905272D01*
X642144Y911225D01*
X650081Y904081D01*
X643731Y896144D01*
X647303Y888206D01*
X658416Y886619D01*
X658416Y875903D01*
X648494Y874712D01*
X644922Y866378D01*
X650081Y858838D01*
X642541Y851297D01*
X633809Y856853D01*
X629444Y854075D01*
X621506Y871538D01*
X622697Y871934D01*
X623888Y872728D01*
X626269Y875109D01*
X627856Y878284D01*
X628253Y880269D01*
X628253Y881856D01*
X627856Y884238D01*
X626666Y887016D01*
X624284Y889794D01*
X622300Y890984D01*
X620316Y891778D01*
X617934Y892175D01*
X615553Y891778D01*
X612378Y890984D01*
X609600Y888603D01*
X606822Y884634D01*
X606822Y878284D01*
X608012Y875903D01*
X609600Y873522D01*
X611981Y871538D01*
X613569Y871538D01*
X605631Y854472D01*
X601266Y856456D01*
X592931Y850900D01*
X584597Y858441D01*
X590550Y866378D01*
X577056Y886619D01*
G37*
G54D10*
X577056Y886619D02*
X587772Y888603D01*
X590550Y894953D01*
X584597Y903288D01*
X592534Y910828D01*
X601662Y905272D01*
X610394Y908447D01*
X611981Y918766D01*
X623094Y918766D01*
X625475Y908447D01*
X633016Y905272D01*
X642144Y911225D01*
X650081Y904081D01*
X643731Y896144D01*
X647303Y888206D01*
X658416Y886619D01*
X658416Y875903D01*
X648494Y874712D01*
X644922Y866378D01*
X650081Y858838D01*
X642541Y851297D01*
X633809Y856853D01*
X629444Y854075D01*
X621506Y871538D01*
X622697Y871934D01*
X623888Y872728D01*
X626269Y875109D01*
X627856Y878284D01*
X628253Y880269D01*
X628253Y881856D01*
X627856Y884238D01*
X626666Y887016D01*
X624284Y889794D01*
X622300Y890984D01*
X620316Y891778D01*
X617934Y892175D01*
X615553Y891778D01*
X612378Y890984D01*
X609600Y888603D01*
X606822Y884634D01*
X606822Y878284D01*
X608012Y875903D01*
X609600Y873522D01*
X611981Y871538D01*
X613569Y871538D01*
X605631Y854472D01*
X601266Y856456D01*
X592931Y850900D01*
X584597Y858441D01*
X590550Y866378D01*
X577056Y886619D01*
G36*
X577056Y886619D02*
X576659Y875903D01*
X586978Y874712D01*
X577056Y886619D01*
G37*
G54D10*
X577056Y886619D02*
X576659Y875903D01*
X586978Y874712D01*
X577056Y886619D01*
G54D10*
X513953Y883047D02*
X513953Y870347D01*
X473472Y870347D01*
X473472Y883047D01*
X513953Y883047D01*
G54D10*
X506809Y883047D02*
X506809Y870347D01*
G54D10*
X522684Y887412D02*
X522684Y895747D01*
X465534Y895747D01*
X465534Y887412D01*
G54D10*
X465534Y865981D02*
X465534Y857647D01*
X522684Y857647D01*
G54D10*
X522684Y865981D02*
X522684Y857647D01*
G54D11*
X161925Y983853D02*
X163592Y985519D01*
X163592Y981075D01*
G54D11*
X166814Y981075D02*
X166814Y985519D01*
X164814Y982742D01*
X164814Y982186D01*
X167481Y982186D01*
G54D11*
X168703Y983019D02*
X171370Y983019D01*
G54D11*
X173925Y981075D02*
X173925Y985519D01*
G54D11*
X172592Y985519D02*
X175259Y985519D01*
G54D11*
X176481Y985519D02*
X179814Y981075D01*
G54D11*
X176481Y981075D02*
X179814Y985519D01*
G54D11*
X181036Y981075D02*
X181036Y985519D01*
X182703Y985519D01*
X183369Y985242D01*
X183703Y984686D01*
X183703Y981908D01*
X183369Y981353D01*
X182703Y981075D01*
X181036Y981075D01*
G54D11*
X190500Y983853D02*
X192167Y985519D01*
X192167Y981075D01*
G54D11*
X196056Y985519D02*
X193389Y985519D01*
X193389Y983575D01*
X193722Y983575D01*
X194389Y983853D01*
X195056Y983853D01*
X195722Y983575D01*
X196056Y983019D01*
X196056Y981908D01*
X195722Y981353D01*
X195056Y981075D01*
X194389Y981075D01*
X193722Y981353D01*
X193389Y981908D01*
G54D11*
X197278Y983019D02*
X199945Y983019D01*
G54D11*
X202500Y983297D02*
X203500Y982742D01*
X203834Y982186D01*
X203834Y981075D01*
G54D11*
X201167Y981075D02*
X201167Y985519D01*
X202834Y985519D01*
X203500Y985242D01*
X203834Y984686D01*
X203834Y984131D01*
X203500Y983575D01*
X202834Y983297D01*
X201167Y983297D01*
G54D11*
X205056Y985519D02*
X208389Y981075D01*
G54D11*
X205056Y981075D02*
X208389Y985519D01*
G54D11*
X209611Y981075D02*
X209611Y985519D01*
X211278Y985519D01*
X211944Y985242D01*
X212278Y984686D01*
X212278Y981908D01*
X211944Y981353D01*
X211278Y981075D01*
X209611Y981075D01*
G54D11*
X415925Y983853D02*
X417592Y985519D01*
X417592Y981075D01*
G54D11*
X418814Y983019D02*
X421481Y983019D01*
G54D11*
X422703Y981075D02*
X422703Y985519D01*
G54D11*
X423925Y981075D02*
X423925Y985519D01*
X425592Y985519D01*
X426258Y985242D01*
X426592Y984686D01*
X426592Y981908D01*
X426258Y981353D01*
X425592Y981075D01*
X423925Y981075D01*
G54D11*
X427814Y981075D02*
X431147Y981075D01*
G54D11*
X432369Y981908D02*
X432702Y981353D01*
X433369Y981075D01*
X434036Y981075D01*
X434702Y981353D01*
X435036Y981908D01*
X435036Y982464D01*
X434702Y983019D01*
X434036Y983297D01*
X433369Y983297D01*
X432702Y983575D01*
X432369Y984131D01*
X432369Y984686D01*
X432702Y985242D01*
X433369Y985519D01*
X434036Y985519D01*
X434702Y985242D01*
X435036Y984686D01*
G54D11*
X438925Y981908D02*
X438591Y981353D01*
X437925Y981075D01*
X437258Y981075D01*
X436591Y981353D01*
X436258Y981908D01*
X436258Y984686D01*
X436591Y985242D01*
X437258Y985519D01*
X437925Y985519D01*
X438591Y985242D01*
X438925Y984686D01*
G54D11*
X418592Y924361D02*
X418592Y921583D01*
X418258Y921028D01*
X417592Y920750D01*
X416925Y920750D01*
X416258Y921028D01*
X415925Y921583D01*
X415925Y924361D01*
X416258Y924917D01*
X416925Y925194D01*
X417592Y925194D01*
X418258Y924917D01*
X418592Y924361D01*
G54D11*
X419814Y922694D02*
X422481Y922694D01*
G54D11*
X423703Y920750D02*
X423703Y925194D01*
G54D11*
X424925Y920750D02*
X424925Y925194D01*
X426592Y925194D01*
X427258Y924917D01*
X427592Y924361D01*
X427592Y921583D01*
X427258Y921028D01*
X426592Y920750D01*
X424925Y920750D01*
G54D11*
X428814Y920750D02*
X432147Y920750D01*
G54D11*
X433369Y921583D02*
X433702Y921028D01*
X434369Y920750D01*
X435036Y920750D01*
X435702Y921028D01*
X436036Y921583D01*
X436036Y922139D01*
X435702Y922694D01*
X435036Y922972D01*
X434369Y922972D01*
X433702Y923250D01*
X433369Y923806D01*
X433369Y924361D01*
X433702Y924917D01*
X434369Y925194D01*
X435036Y925194D01*
X435702Y924917D01*
X436036Y924361D01*
G54D11*
X437258Y920750D02*
X437258Y925194D01*
X438925Y925194D01*
X439591Y924917D01*
X439925Y924361D01*
X439925Y921583D01*
X439591Y921028D01*
X438925Y920750D01*
X437258Y920750D01*
G54D11*
X144208Y983297D02*
X145542Y983297D01*
X145542Y981908D01*
X145208Y981353D01*
X144542Y981075D01*
X143875Y981075D01*
X143208Y981353D01*
X142875Y981908D01*
X142875Y984686D01*
X143208Y985242D01*
X143875Y985519D01*
X144542Y985519D01*
X145208Y985242D01*
X145542Y984686D01*
G54D11*
X146764Y981075D02*
X146764Y985519D01*
X149431Y981075D01*
X149431Y985519D01*
G54D11*
X150653Y981075D02*
X150653Y985519D01*
X152320Y985519D01*
X152986Y985242D01*
X153320Y984686D01*
X153320Y981908D01*
X152986Y981353D01*
X152320Y981075D01*
X150653Y981075D01*
G54D11*
X195008Y922972D02*
X196342Y922972D01*
X196342Y921583D01*
X196008Y921028D01*
X195342Y920750D01*
X194675Y920750D01*
X194008Y921028D01*
X193675Y921583D01*
X193675Y924361D01*
X194008Y924917D01*
X194675Y925194D01*
X195342Y925194D01*
X196008Y924917D01*
X196342Y924361D01*
G54D11*
X197564Y920750D02*
X197564Y925194D01*
X200231Y920750D01*
X200231Y925194D01*
G54D11*
X201453Y920750D02*
X201453Y925194D01*
X203120Y925194D01*
X203786Y924917D01*
X204120Y924361D01*
X204120Y921583D01*
X203786Y921028D01*
X203120Y920750D01*
X201453Y920750D01*
G54D11*
X245808Y983297D02*
X247142Y983297D01*
X247142Y981908D01*
X246808Y981353D01*
X246142Y981075D01*
X245475Y981075D01*
X244808Y981353D01*
X244475Y981908D01*
X244475Y984686D01*
X244808Y985242D01*
X245475Y985519D01*
X246142Y985519D01*
X246808Y985242D01*
X247142Y984686D01*
G54D11*
X248364Y981075D02*
X248364Y985519D01*
X251031Y981075D01*
X251031Y985519D01*
G54D11*
X252253Y981075D02*
X252253Y985519D01*
X253920Y985519D01*
X254586Y985242D01*
X254920Y984686D01*
X254920Y981908D01*
X254586Y981353D01*
X253920Y981075D01*
X252253Y981075D01*
G54D11*
X322008Y983297D02*
X323342Y983297D01*
X323342Y981908D01*
X323008Y981353D01*
X322342Y981075D01*
X321675Y981075D01*
X321008Y981353D01*
X320675Y981908D01*
X320675Y984686D01*
X321008Y985242D01*
X321675Y985519D01*
X322342Y985519D01*
X323008Y985242D01*
X323342Y984686D01*
G54D11*
X324564Y981075D02*
X324564Y985519D01*
X327231Y981075D01*
X327231Y985519D01*
G54D11*
X328453Y981075D02*
X328453Y985519D01*
X330120Y985519D01*
X330786Y985242D01*
X331120Y984686D01*
X331120Y981908D01*
X330786Y981353D01*
X330120Y981075D01*
X328453Y981075D01*
G54D11*
X449008Y983297D02*
X450342Y983297D01*
X450342Y981908D01*
X450008Y981353D01*
X449342Y981075D01*
X448675Y981075D01*
X448008Y981353D01*
X447675Y981908D01*
X447675Y984686D01*
X448008Y985242D01*
X448675Y985519D01*
X449342Y985519D01*
X450008Y985242D01*
X450342Y984686D01*
G54D11*
X451564Y981075D02*
X451564Y985519D01*
X454231Y981075D01*
X454231Y985519D01*
G54D11*
X455453Y981075D02*
X455453Y985519D01*
X457120Y985519D01*
X457786Y985242D01*
X458120Y984686D01*
X458120Y981908D01*
X457786Y981353D01*
X457120Y981075D01*
X455453Y981075D01*
G54D11*
X499808Y983297D02*
X501142Y983297D01*
X501142Y981908D01*
X500808Y981353D01*
X500142Y981075D01*
X499475Y981075D01*
X498808Y981353D01*
X498475Y981908D01*
X498475Y984686D01*
X498808Y985242D01*
X499475Y985519D01*
X500142Y985519D01*
X500808Y985242D01*
X501142Y984686D01*
G54D11*
X502364Y981075D02*
X502364Y985519D01*
X505031Y981075D01*
X505031Y985519D01*
G54D11*
X506253Y981075D02*
X506253Y985519D01*
X507920Y985519D01*
X508586Y985242D01*
X508920Y984686D01*
X508920Y981908D01*
X508586Y981353D01*
X507920Y981075D01*
X506253Y981075D01*
G54D11*
X576008Y922972D02*
X577342Y922972D01*
X577342Y921583D01*
X577008Y921028D01*
X576342Y920750D01*
X575675Y920750D01*
X575008Y921028D01*
X574675Y921583D01*
X574675Y924361D01*
X575008Y924917D01*
X575675Y925194D01*
X576342Y925194D01*
X577008Y924917D01*
X577342Y924361D01*
G54D11*
X578564Y920750D02*
X578564Y925194D01*
X581231Y920750D01*
X581231Y925194D01*
G54D11*
X582453Y920750D02*
X582453Y925194D01*
X584120Y925194D01*
X584786Y924917D01*
X585120Y924361D01*
X585120Y921583D01*
X584786Y921028D01*
X584120Y920750D01*
X582453Y920750D01*
G54D11*
X398208Y922972D02*
X399542Y922972D01*
X399542Y921583D01*
X399208Y921028D01*
X398542Y920750D01*
X397875Y920750D01*
X397208Y921028D01*
X396875Y921583D01*
X396875Y924361D01*
X397208Y924917D01*
X397875Y925194D01*
X398542Y925194D01*
X399208Y924917D01*
X399542Y924361D01*
G54D11*
X400764Y920750D02*
X400764Y925194D01*
X403431Y920750D01*
X403431Y925194D01*
G54D11*
X404653Y920750D02*
X404653Y925194D01*
X406320Y925194D01*
X406986Y924917D01*
X407320Y924361D01*
X407320Y921583D01*
X406986Y921028D01*
X406320Y920750D01*
X404653Y920750D01*
G54D11*
X97917Y985519D02*
X95250Y985519D01*
X95250Y983575D01*
X95583Y983575D01*
X96250Y983853D01*
X96917Y983853D01*
X97583Y983575D01*
X97917Y983019D01*
X97917Y981908D01*
X97583Y981353D01*
X96917Y981075D01*
X96250Y981075D01*
X95583Y981353D01*
X95250Y981908D01*
G54D11*
X99139Y985519D02*
X100806Y981075D01*
X102472Y985519D01*
G54D11*
X123317Y985519D02*
X120650Y985519D01*
X120650Y983575D01*
X120983Y983575D01*
X121650Y983853D01*
X122317Y983853D01*
X122983Y983575D01*
X123317Y983019D01*
X123317Y981908D01*
X122983Y981353D01*
X122317Y981075D01*
X121650Y981075D01*
X120983Y981353D01*
X120650Y981908D01*
G54D11*
X124539Y985519D02*
X126206Y981075D01*
X127872Y985519D01*
G54D11*
X92075Y924361D02*
X92408Y924917D01*
X93075Y925194D01*
X93742Y925194D01*
X94408Y924917D01*
X94742Y924361D01*
X94742Y923806D01*
X94408Y923250D01*
X93742Y922972D01*
X94408Y922694D01*
X94742Y922139D01*
X94742Y921583D01*
X94408Y921028D01*
X93742Y920750D01*
X93075Y920750D01*
X92408Y921028D01*
X92075Y921583D01*
G54D11*
X95964Y925194D02*
X97631Y920750D01*
X99297Y925194D01*
G54D11*
X100519Y924361D02*
X100852Y924917D01*
X101519Y925194D01*
X102186Y925194D01*
X102852Y924917D01*
X103186Y924361D01*
X103186Y923806D01*
X102852Y923250D01*
X102186Y922972D01*
X102852Y922694D01*
X103186Y922139D01*
X103186Y921583D01*
X102852Y921028D01*
X102186Y920750D01*
X101519Y920750D01*
X100852Y921028D01*
X100519Y921583D01*
G54D11*
X173450Y920750D02*
X173450Y925194D01*
X171450Y922417D01*
X171450Y921861D01*
X174117Y921861D01*
G54D11*
X215900Y983853D02*
X217567Y985519D01*
X217567Y981075D01*
G54D11*
X220456Y983297D02*
X219789Y983297D01*
X219122Y983575D01*
X218789Y984131D01*
X218789Y984686D01*
X219122Y985242D01*
X219789Y985519D01*
X220456Y985519D01*
X221122Y985242D01*
X221456Y984686D01*
X221456Y984131D01*
X221122Y983575D01*
X220456Y983297D01*
X221122Y983019D01*
X221456Y982464D01*
X221456Y981908D01*
X221122Y981353D01*
X220456Y981075D01*
X219789Y981075D01*
X219122Y981353D01*
X218789Y981908D01*
X218789Y982464D01*
X219122Y983019D01*
X219789Y983297D01*
G54D11*
X222678Y983019D02*
X225345Y983019D01*
G54D11*
X229234Y981908D02*
X228900Y981353D01*
X228234Y981075D01*
X227567Y981075D01*
X226900Y981353D01*
X226567Y981908D01*
X226567Y984686D01*
X226900Y985242D01*
X227567Y985519D01*
X228234Y985519D01*
X228900Y985242D01*
X229234Y984686D01*
G54D11*
X230456Y985519D02*
X230456Y981075D01*
X232789Y981075D01*
G54D11*
X235344Y983297D02*
X236344Y982742D01*
X236678Y982186D01*
X236678Y981075D01*
G54D11*
X234011Y981075D02*
X234011Y985519D01*
X235678Y985519D01*
X236344Y985242D01*
X236678Y984686D01*
X236678Y984131D01*
X236344Y983575D01*
X235678Y983297D01*
X234011Y983297D01*
G54D11*
X272542Y981075D02*
X269875Y981075D01*
X269875Y981353D01*
X270208Y981908D01*
X272208Y983575D01*
X272542Y984131D01*
X272542Y984686D01*
X272208Y985242D01*
X271542Y985519D01*
X270875Y985519D01*
X270208Y985242D01*
X269875Y984686D01*
G54D11*
X273764Y984686D02*
X274097Y985242D01*
X274764Y985519D01*
X275431Y985519D01*
X276097Y985242D01*
X276431Y984686D01*
X276431Y984131D01*
X276097Y983575D01*
X275431Y983297D01*
X276097Y983019D01*
X276431Y982464D01*
X276431Y981908D01*
X276097Y981353D01*
X275431Y981075D01*
X274764Y981075D01*
X274097Y981353D01*
X273764Y981908D01*
G54D11*
X301117Y981075D02*
X298450Y981075D01*
X298450Y981353D01*
X298783Y981908D01*
X300783Y983575D01*
X301117Y984131D01*
X301117Y984686D01*
X300783Y985242D01*
X300117Y985519D01*
X299450Y985519D01*
X298783Y985242D01*
X298450Y984686D01*
G54D11*
X304339Y981075D02*
X304339Y985519D01*
X302339Y982742D01*
X302339Y982186D01*
X305006Y982186D01*
G54D11*
X351917Y981075D02*
X349250Y981075D01*
X349250Y981353D01*
X349583Y981908D01*
X351583Y983575D01*
X351917Y984131D01*
X351917Y984686D01*
X351583Y985242D01*
X350917Y985519D01*
X350250Y985519D01*
X349583Y985242D01*
X349250Y984686D01*
G54D11*
X355806Y985519D02*
X353139Y985519D01*
X353139Y983575D01*
X353472Y983575D01*
X354139Y983853D01*
X354806Y983853D01*
X355472Y983575D01*
X355806Y983019D01*
X355806Y981908D01*
X355472Y981353D01*
X354806Y981075D01*
X354139Y981075D01*
X353472Y981353D01*
X353139Y981908D01*
G54D11*
X369967Y983297D02*
X369300Y983297D01*
X368633Y983575D01*
X368300Y984131D01*
X368300Y984686D01*
X368633Y985242D01*
X369300Y985519D01*
X369967Y985519D01*
X370633Y985242D01*
X370967Y984686D01*
X370967Y984131D01*
X370633Y983575D01*
X369967Y983297D01*
X370633Y983019D01*
X370967Y982464D01*
X370967Y981908D01*
X370633Y981353D01*
X369967Y981075D01*
X369300Y981075D01*
X368633Y981353D01*
X368300Y981908D01*
X368300Y982464D01*
X368633Y983019D01*
X369300Y983297D01*
G54D11*
X372189Y983019D02*
X374856Y983019D01*
G54D11*
X378745Y981908D02*
X378411Y981353D01*
X377745Y981075D01*
X377078Y981075D01*
X376411Y981353D01*
X376078Y981908D01*
X376078Y984686D01*
X376411Y985242D01*
X377078Y985519D01*
X377745Y985519D01*
X378411Y985242D01*
X378745Y984686D01*
G54D11*
X382300Y981075D02*
X379967Y981075D01*
X379967Y985519D01*
X382300Y985519D01*
G54D11*
X379967Y983297D02*
X382300Y983297D01*
G54D11*
X386189Y984686D02*
X386189Y981908D01*
X385855Y981353D01*
X385189Y981075D01*
X384522Y981075D01*
X383855Y981353D01*
X383522Y981908D01*
X383522Y984686D01*
X383855Y985242D01*
X384522Y985519D01*
X385189Y985519D01*
X385855Y985242D01*
X386189Y984686D01*
G54D11*
X393700Y985519D02*
X396367Y985519D01*
X396033Y984964D01*
X395367Y984131D01*
X394700Y983019D01*
X394367Y982186D01*
X394367Y981075D01*
G54D11*
X397589Y983019D02*
X400256Y983019D01*
G54D11*
X404145Y981908D02*
X403811Y981353D01*
X403145Y981075D01*
X402478Y981075D01*
X401811Y981353D01*
X401478Y981908D01*
X401478Y984686D01*
X401811Y985242D01*
X402478Y985519D01*
X403145Y985519D01*
X403811Y985242D01*
X404145Y984686D01*
G54D11*
X407700Y981075D02*
X405367Y981075D01*
X405367Y985519D01*
X407700Y985519D01*
G54D11*
X405367Y983297D02*
X407700Y983297D01*
G54D11*
X408922Y983853D02*
X410589Y985519D01*
X410589Y981075D01*
G54D11*
X476250Y983853D02*
X477917Y985519D01*
X477917Y981075D01*
G54D11*
X481806Y981075D02*
X479139Y981075D01*
X479139Y981353D01*
X479472Y981908D01*
X481472Y983575D01*
X481806Y984131D01*
X481806Y984686D01*
X481472Y985242D01*
X480806Y985519D01*
X480139Y985519D01*
X479472Y985242D01*
X479139Y984686D01*
G54D11*
X527050Y983853D02*
X528717Y985519D01*
X528717Y981075D01*
G54D11*
X532606Y984686D02*
X532272Y985242D01*
X531606Y985519D01*
X530939Y985519D01*
X530272Y985242D01*
X529939Y984686D01*
X529939Y983297D01*
X529939Y983019D01*
X530939Y983575D01*
X531606Y983575D01*
X532272Y983297D01*
X532606Y982742D01*
X532606Y981908D01*
X532272Y981353D01*
X531606Y981075D01*
X530939Y981075D01*
X530272Y981353D01*
X529939Y981908D01*
X529939Y983297D01*
G54D11*
X555117Y981075D02*
X552450Y981075D01*
X552450Y981353D01*
X552783Y981908D01*
X554783Y983575D01*
X555117Y984131D01*
X555117Y984686D01*
X554783Y985242D01*
X554117Y985519D01*
X553450Y985519D01*
X552783Y985242D01*
X552450Y984686D01*
G54D11*
X559006Y984686D02*
X559006Y981908D01*
X558672Y981353D01*
X558006Y981075D01*
X557339Y981075D01*
X556672Y981353D01*
X556339Y981908D01*
X556339Y984686D01*
X556672Y985242D01*
X557339Y985519D01*
X558006Y985519D01*
X558672Y985242D01*
X559006Y984686D01*
G54D11*
X580517Y981075D02*
X577850Y981075D01*
X577850Y981353D01*
X578183Y981908D01*
X580183Y983575D01*
X580517Y984131D01*
X580517Y984686D01*
X580183Y985242D01*
X579517Y985519D01*
X578850Y985519D01*
X578183Y985242D01*
X577850Y984686D01*
G54D11*
X581739Y983853D02*
X583406Y985519D01*
X583406Y981075D01*
G54D11*
X555117Y920750D02*
X552450Y920750D01*
X552450Y921028D01*
X552783Y921583D01*
X554783Y923250D01*
X555117Y923806D01*
X555117Y924361D01*
X554783Y924917D01*
X554117Y925194D01*
X553450Y925194D01*
X552783Y924917D01*
X552450Y924361D01*
G54D11*
X559006Y924361D02*
X558672Y924917D01*
X558006Y925194D01*
X557339Y925194D01*
X556672Y924917D01*
X556339Y924361D01*
X556339Y922972D01*
X556339Y922694D01*
X557339Y923250D01*
X558006Y923250D01*
X558672Y922972D01*
X559006Y922417D01*
X559006Y921583D01*
X558672Y921028D01*
X558006Y920750D01*
X557339Y920750D01*
X556672Y921028D01*
X556339Y921583D01*
X556339Y922972D01*
G54D11*
X527050Y923528D02*
X528717Y925194D01*
X528717Y920750D01*
G54D11*
X529939Y921583D02*
X530272Y921028D01*
X530939Y920750D01*
X531606Y920750D01*
X532272Y921028D01*
X532606Y921583D01*
X532606Y922972D01*
X532606Y923250D01*
X531606Y922694D01*
X530939Y922694D01*
X530272Y922972D01*
X529939Y923528D01*
X529939Y924361D01*
X530272Y924917D01*
X530939Y925194D01*
X531606Y925194D01*
X532272Y924917D01*
X532606Y924361D01*
X532606Y922972D01*
G54D11*
X498475Y923528D02*
X500142Y925194D01*
X500142Y920750D01*
G54D11*
X501364Y924361D02*
X501697Y924917D01*
X502364Y925194D01*
X503031Y925194D01*
X503697Y924917D01*
X504031Y924361D01*
X504031Y923806D01*
X503697Y923250D01*
X503031Y922972D01*
X503697Y922694D01*
X504031Y922139D01*
X504031Y921583D01*
X503697Y921028D01*
X503031Y920750D01*
X502364Y920750D01*
X501697Y921028D01*
X501364Y921583D01*
G54D11*
X478917Y924361D02*
X478583Y924917D01*
X477917Y925194D01*
X477250Y925194D01*
X476583Y924917D01*
X476250Y924361D01*
X476250Y922972D01*
X476250Y922694D01*
X477250Y923250D01*
X477917Y923250D01*
X478583Y922972D01*
X478917Y922417D01*
X478917Y921583D01*
X478583Y921028D01*
X477917Y920750D01*
X477250Y920750D01*
X476583Y921028D01*
X476250Y921583D01*
X476250Y922972D01*
G54D11*
X453517Y925194D02*
X450850Y925194D01*
X450850Y923250D01*
X451183Y923250D01*
X451850Y923528D01*
X452517Y923528D01*
X453183Y923250D01*
X453517Y922694D01*
X453517Y921583D01*
X453183Y921028D01*
X452517Y920750D01*
X451850Y920750D01*
X451183Y921028D01*
X450850Y921583D01*
G54D11*
X222250Y923528D02*
X223917Y925194D01*
X223917Y920750D01*
G54D11*
X225139Y925194D02*
X227806Y925194D01*
X227472Y924639D01*
X226806Y923806D01*
X226139Y922694D01*
X225806Y921861D01*
X225806Y920750D01*
G54D11*
X250317Y920750D02*
X247650Y920750D01*
X247650Y921028D01*
X247983Y921583D01*
X249983Y923250D01*
X250317Y923806D01*
X250317Y924361D01*
X249983Y924917D01*
X249317Y925194D01*
X248650Y925194D01*
X247983Y924917D01*
X247650Y924361D01*
G54D11*
X251539Y925194D02*
X254206Y925194D01*
X253872Y924639D01*
X253206Y923806D01*
X252539Y922694D01*
X252206Y921861D01*
X252206Y920750D01*
G54D11*
X275717Y920750D02*
X273050Y920750D01*
X273050Y921028D01*
X273383Y921583D01*
X275383Y923250D01*
X275717Y923806D01*
X275717Y924361D01*
X275383Y924917D01*
X274717Y925194D01*
X274050Y925194D01*
X273383Y924917D01*
X273050Y924361D01*
G54D11*
X279606Y920750D02*
X276939Y920750D01*
X276939Y921028D01*
X277272Y921583D01*
X279272Y923250D01*
X279606Y923806D01*
X279606Y924361D01*
X279272Y924917D01*
X278606Y925194D01*
X277939Y925194D01*
X277272Y924917D01*
X276939Y924361D01*
G54D11*
X295275Y924361D02*
X295608Y924917D01*
X296275Y925194D01*
X296942Y925194D01*
X297608Y924917D01*
X297942Y924361D01*
X297942Y923806D01*
X297608Y923250D01*
X296942Y922972D01*
X297608Y922694D01*
X297942Y922139D01*
X297942Y921583D01*
X297608Y921028D01*
X296942Y920750D01*
X296275Y920750D01*
X295608Y921028D01*
X295275Y921583D01*
G54D11*
X299164Y925194D02*
X300831Y920750D01*
X302497Y925194D01*
G54D11*
X303719Y924361D02*
X304052Y924917D01*
X304719Y925194D01*
X305386Y925194D01*
X306052Y924917D01*
X306386Y924361D01*
X306386Y923806D01*
X306052Y923250D01*
X305386Y922972D01*
X306052Y922694D01*
X306386Y922139D01*
X306386Y921583D01*
X306052Y921028D01*
X305386Y920750D01*
X304719Y920750D01*
X304052Y921028D01*
X303719Y921583D01*
G54D11*
X314325Y923528D02*
X315992Y925194D01*
X315992Y920750D01*
G54D11*
X319881Y924361D02*
X319881Y921583D01*
X319547Y921028D01*
X318881Y920750D01*
X318214Y920750D01*
X317547Y921028D01*
X317214Y921583D01*
X317214Y924361D01*
X317547Y924917D01*
X318214Y925194D01*
X318881Y925194D01*
X319547Y924917D01*
X319881Y924361D01*
G54D11*
X321103Y922694D02*
X323770Y922694D01*
G54D11*
X324992Y920750D02*
X324992Y925194D01*
X326659Y922417D01*
X328325Y925194D01*
X328325Y920750D01*
G54D11*
X332214Y924361D02*
X332214Y921583D01*
X331880Y921028D01*
X331214Y920750D01*
X330547Y920750D01*
X329880Y921028D01*
X329547Y921583D01*
X329547Y924361D01*
X329880Y924917D01*
X330547Y925194D01*
X331214Y925194D01*
X331880Y924917D01*
X332214Y924361D01*
G54D11*
X333436Y921583D02*
X333769Y921028D01*
X334436Y920750D01*
X335103Y920750D01*
X335769Y921028D01*
X336103Y921583D01*
X336103Y922139D01*
X335769Y922694D01*
X335103Y922972D01*
X334436Y922972D01*
X333769Y923250D01*
X333436Y923806D01*
X333436Y924361D01*
X333769Y924917D01*
X334436Y925194D01*
X335103Y925194D01*
X335769Y924917D01*
X336103Y924361D01*
G54D11*
X337325Y920750D02*
X337325Y925194D01*
G54D11*
X342900Y921583D02*
X343233Y921028D01*
X343900Y920750D01*
X344567Y920750D01*
X345233Y921028D01*
X345567Y921583D01*
X345567Y922972D01*
X345567Y923250D01*
X344567Y922694D01*
X343900Y922694D01*
X343233Y922972D01*
X342900Y923528D01*
X342900Y924361D01*
X343233Y924917D01*
X343900Y925194D01*
X344567Y925194D01*
X345233Y924917D01*
X345567Y924361D01*
X345567Y922972D01*
G54D11*
X346789Y922694D02*
X349456Y922694D01*
G54D11*
X350678Y920750D02*
X350678Y925194D01*
X352345Y922417D01*
X354011Y925194D01*
X354011Y920750D01*
G54D11*
X355233Y920750D02*
X355233Y925194D01*
G54D11*
X356455Y921583D02*
X356788Y921028D01*
X357455Y920750D01*
X358122Y920750D01*
X358788Y921028D01*
X359122Y921583D01*
X359122Y922139D01*
X358788Y922694D01*
X358122Y922972D01*
X357455Y922972D01*
X356788Y923250D01*
X356455Y923806D01*
X356455Y924361D01*
X356788Y924917D01*
X357455Y925194D01*
X358122Y925194D01*
X358788Y924917D01*
X359122Y924361D01*
G54D11*
X363011Y924361D02*
X363011Y921583D01*
X362677Y921028D01*
X362011Y920750D01*
X361344Y920750D01*
X360677Y921028D01*
X360344Y921583D01*
X360344Y924361D01*
X360677Y924917D01*
X361344Y925194D01*
X362011Y925194D01*
X362677Y924917D01*
X363011Y924361D01*
G54D11*
X368300Y923528D02*
X369967Y925194D01*
X369967Y920750D01*
G54D11*
X371189Y923528D02*
X372856Y925194D01*
X372856Y920750D01*
G54D11*
X374078Y922694D02*
X376745Y922694D01*
G54D11*
X377967Y921583D02*
X378300Y921028D01*
X378967Y920750D01*
X379634Y920750D01*
X380300Y921028D01*
X380634Y921583D01*
X380634Y922139D01*
X380300Y922694D01*
X379634Y922972D01*
X378967Y922972D01*
X378300Y923250D01*
X377967Y923806D01*
X377967Y924361D01*
X378300Y924917D01*
X378967Y925194D01*
X379634Y925194D01*
X380300Y924917D01*
X380634Y924361D01*
G54D11*
X384523Y921583D02*
X384189Y921028D01*
X383523Y920750D01*
X382856Y920750D01*
X382189Y921028D01*
X381856Y921583D01*
X381856Y924361D01*
X382189Y924917D01*
X382856Y925194D01*
X383523Y925194D01*
X384189Y924917D01*
X384523Y924361D01*
G54D11*
X385745Y925194D02*
X385745Y920750D01*
X388078Y920750D01*
G54D11*
X389300Y920750D02*
X389300Y925194D01*
G54D11*
X389300Y922139D02*
X391967Y925194D01*
G54D11*
X390300Y922972D02*
X391967Y920750D01*
G54D15*
X520574Y908994D02*
X520574Y900105D01*
X523907Y905661D01*
X527240Y900105D01*
X527240Y908994D01*
G36*
X134739Y755568D02*
X137518Y758346D01*
X134739Y761124D01*
X134739Y755568D01*
G37*
G54D10*
X134739Y755568D02*
X137518Y758346D01*
X134739Y761124D01*
X134739Y755568D01*
G54D10*
X140296Y758346D02*
X132358Y758346D01*
G54D10*
X137518Y755568D02*
X137518Y761124D01*
G36*
X135136Y724214D02*
X137914Y726993D01*
X135136Y729771D01*
X135136Y724214D01*
G37*
G54D10*
X135136Y724214D02*
X137914Y726993D01*
X135136Y729771D01*
X135136Y724214D01*
G54D10*
X140693Y726993D02*
X132755Y726993D01*
G54D10*
X137914Y724214D02*
X137914Y729771D01*
G54D14*
X194175Y784275D02*
X174175Y784275D01*
X174175Y822275D01*
X194175Y822275D01*
X194175Y784275D01*
G54D14*
X140200Y784275D02*
X120200Y784275D01*
X120200Y822275D01*
X140200Y822275D01*
X140200Y784275D01*
G54D14*
X114800Y784275D02*
X94800Y784275D01*
X94800Y822275D01*
X114800Y822275D01*
X114800Y784275D01*
G54D14*
X138225Y897844D02*
X138225Y919844D01*
X188225Y919844D01*
X188225Y897844D01*
X138225Y897844D01*
G54D14*
X346100Y825025D02*
X346100Y845025D01*
X384100Y845025D01*
X384100Y825025D01*
X346100Y825025D01*
G36*
X258762Y803275D02*
X360362Y803275D01*
X360362Y787400D01*
X312738Y787400D01*
X312738Y793750D01*
X350838Y793750D01*
X350838Y800100D01*
X268288Y800100D01*
X268288Y793750D01*
X306388Y793750D01*
X306388Y787400D01*
X261938Y787400D01*
X261938Y768350D01*
X306388Y768350D01*
X306388Y762000D01*
X293688Y762000D01*
X293688Y755650D01*
X280988Y755650D01*
X280988Y749300D01*
X261938Y749300D01*
X261938Y742950D01*
X360362Y742950D01*
X360362Y736600D01*
X274638Y736600D01*
X274638Y730250D01*
X300038Y730250D01*
X300038Y711200D01*
X360362Y711200D01*
X360362Y708025D01*
X258762Y708025D01*
X258762Y803275D01*
G37*
G54D10*
X258762Y803275D02*
X360362Y803275D01*
X360362Y787400D01*
X312738Y787400D01*
X312738Y793750D01*
X350838Y793750D01*
X350838Y800100D01*
X268288Y800100D01*
X268288Y793750D01*
X306388Y793750D01*
X306388Y787400D01*
X261938Y787400D01*
X261938Y768350D01*
X306388Y768350D01*
X306388Y762000D01*
X293688Y762000D01*
X293688Y755650D01*
X280988Y755650D01*
X280988Y749300D01*
X261938Y749300D01*
X261938Y742950D01*
X360362Y742950D01*
X360362Y736600D01*
X274638Y736600D01*
X274638Y730250D01*
X300038Y730250D01*
X300038Y711200D01*
X360362Y711200D01*
X360362Y708025D01*
X258762Y708025D01*
X258762Y803275D01*
G36*
X268288Y781050D02*
X306388Y781050D01*
X306388Y768350D01*
X300038Y768350D01*
X300038Y774700D01*
X274638Y774700D01*
X274638Y768350D01*
X268288Y768350D01*
X268288Y781050D01*
G37*
G54D10*
X268288Y781050D02*
X306388Y781050D01*
X306388Y768350D01*
X300038Y768350D01*
X300038Y774700D01*
X274638Y774700D01*
X274638Y768350D01*
X268288Y768350D01*
X268288Y781050D01*
G36*
X312738Y781050D02*
X350838Y781050D01*
X350838Y749300D01*
X344488Y749300D01*
X344488Y774700D01*
X319088Y774700D01*
X319088Y762000D01*
X312738Y762000D01*
X312738Y781050D01*
G37*
G54D10*
X312738Y781050D02*
X350838Y781050D01*
X350838Y749300D01*
X344488Y749300D01*
X344488Y774700D01*
X319088Y774700D01*
X319088Y762000D01*
X312738Y762000D01*
X312738Y781050D01*
G36*
X357188Y787400D02*
X360362Y787400D01*
X360362Y742950D01*
X357188Y742950D01*
X357188Y749300D01*
X350838Y749300D01*
X350838Y768350D01*
X357188Y768350D01*
X357188Y787400D01*
G37*
G54D10*
X357188Y787400D02*
X360362Y787400D01*
X360362Y742950D01*
X357188Y742950D01*
X357188Y749300D01*
X350838Y749300D01*
X350838Y768350D01*
X357188Y768350D01*
X357188Y787400D01*
G36*
X280988Y749300D02*
X293688Y749300D01*
X293688Y742950D01*
X280988Y742950D01*
X280988Y749300D01*
G37*
G54D10*
X280988Y749300D02*
X293688Y749300D01*
X293688Y742950D01*
X280988Y742950D01*
X280988Y749300D01*
G36*
X293688Y755650D02*
X306388Y755650D01*
X306388Y762000D01*
X312738Y762000D01*
X312738Y755650D01*
X325438Y755650D01*
X325438Y749300D01*
X293688Y749300D01*
X293688Y755650D01*
G37*
G54D10*
X293688Y755650D02*
X306388Y755650D01*
X306388Y762000D01*
X312738Y762000D01*
X312738Y755650D01*
X325438Y755650D01*
X325438Y749300D01*
X293688Y749300D01*
X293688Y755650D01*
G36*
X325438Y749300D02*
X338138Y749300D01*
X338138Y742950D01*
X325438Y742950D01*
X325438Y749300D01*
G37*
G54D10*
X325438Y749300D02*
X338138Y749300D01*
X338138Y742950D01*
X325438Y742950D01*
X325438Y749300D01*
G36*
X319088Y768350D02*
X344488Y768350D01*
X344488Y749300D01*
X338138Y749300D01*
X338138Y755650D01*
X325438Y755650D01*
X325438Y762000D01*
X319088Y762000D01*
X319088Y768350D01*
G37*
G54D10*
X319088Y768350D02*
X344488Y768350D01*
X344488Y749300D01*
X338138Y749300D01*
X338138Y755650D01*
X325438Y755650D01*
X325438Y762000D01*
X319088Y762000D01*
X319088Y768350D01*
G36*
X306388Y730250D02*
X338138Y730250D01*
X338138Y723900D01*
X325438Y723900D01*
X325438Y717550D01*
X344488Y717550D01*
X344488Y736600D01*
X360362Y736600D01*
X360362Y711200D01*
X306388Y711200D01*
X306388Y730250D01*
G37*
G54D10*
X306388Y730250D02*
X338138Y730250D01*
X338138Y723900D01*
X325438Y723900D01*
X325438Y717550D01*
X344488Y717550D01*
X344488Y736600D01*
X360362Y736600D01*
X360362Y711200D01*
X306388Y711200D01*
X306388Y730250D01*
X574675Y746125D02*
G54D16*
D03*
G36*
X360362Y803275D02*
X577850Y803275D01*
X577850Y793750D01*
X360362Y793750D01*
X360362Y803275D01*
G37*
G54D10*
X360362Y803275D02*
X577850Y803275D01*
X577850Y793750D01*
X360362Y793750D01*
X360362Y803275D01*
G36*
X577850Y793750D02*
X577850Y708025D01*
X360362Y708025D01*
X360362Y717550D01*
X571500Y717550D01*
X571500Y793750D01*
X577850Y793750D01*
G37*
G54D10*
X577850Y793750D02*
X577850Y708025D01*
X360362Y708025D01*
X360362Y717550D01*
X571500Y717550D01*
X571500Y793750D01*
X577850Y793750D01*
G36*
X360362Y793750D02*
X374650Y793750D01*
X374650Y762000D01*
X485775Y762000D01*
X485775Y795338D01*
X571500Y795338D01*
X571500Y749300D01*
X374650Y749300D01*
X374650Y717550D01*
X360362Y717550D01*
X360362Y793750D01*
G37*
G54D10*
X360362Y793750D02*
X374650Y793750D01*
X374650Y762000D01*
X485775Y762000D01*
X485775Y795338D01*
X571500Y795338D01*
X571500Y749300D01*
X374650Y749300D01*
X374650Y717550D01*
X360362Y717550D01*
X360362Y793750D01*
G36*
X381000Y742950D02*
X400050Y742950D01*
X400050Y749300D01*
X403225Y749300D01*
X403225Y717550D01*
X400050Y717550D01*
X400050Y723900D01*
X381000Y723900D01*
X381000Y742950D01*
G37*
G54D10*
X381000Y742950D02*
X400050Y742950D01*
X400050Y749300D01*
X403225Y749300D01*
X403225Y717550D01*
X400050Y717550D01*
X400050Y723900D01*
X381000Y723900D01*
X381000Y742950D01*
G36*
X409575Y742950D02*
X422275Y742950D01*
X422275Y723900D01*
X409575Y723900D01*
X409575Y742950D01*
G37*
G54D10*
X409575Y742950D02*
X422275Y742950D01*
X422275Y723900D01*
X409575Y723900D01*
X409575Y742950D01*
G36*
X428625Y749300D02*
X431800Y749300D01*
X431800Y717550D01*
X428625Y717550D01*
X428625Y749300D01*
G37*
G54D10*
X428625Y749300D02*
X431800Y749300D01*
X431800Y717550D01*
X428625Y717550D01*
X428625Y749300D01*
G36*
X438150Y742950D02*
X450850Y742950D01*
X450850Y717550D01*
X438150Y717550D01*
X438150Y742950D01*
G37*
G54D10*
X438150Y742950D02*
X450850Y742950D01*
X450850Y717550D01*
X438150Y717550D01*
X438150Y742950D01*
G36*
X457200Y749300D02*
X460375Y749300D01*
X460375Y717550D01*
X457200Y717550D01*
X457200Y749300D01*
G37*
G54D10*
X457200Y749300D02*
X460375Y749300D01*
X460375Y717550D01*
X457200Y717550D01*
X457200Y749300D01*
G36*
X466725Y742950D02*
X485775Y742950D01*
X485775Y749300D01*
X488950Y749300D01*
X488950Y717550D01*
X485775Y717550D01*
X485775Y736600D01*
X466725Y736600D01*
X466725Y742950D01*
G37*
G54D10*
X466725Y742950D02*
X485775Y742950D01*
X485775Y749300D01*
X488950Y749300D01*
X488950Y717550D01*
X485775Y717550D01*
X485775Y736600D01*
X466725Y736600D01*
X466725Y742950D01*
G36*
X460375Y730250D02*
X479425Y730250D01*
X479425Y723900D01*
X460375Y723900D01*
X460375Y730250D01*
G37*
G54D10*
X460375Y730250D02*
X479425Y730250D01*
X479425Y723900D01*
X460375Y723900D01*
X460375Y730250D01*
G36*
X495300Y742950D02*
X508000Y742950D01*
X508000Y723900D01*
X495300Y723900D01*
X495300Y742950D01*
G37*
G54D10*
X495300Y742950D02*
X508000Y742950D01*
X508000Y723900D01*
X495300Y723900D01*
X495300Y742950D01*
G36*
X514350Y749300D02*
X517525Y749300D01*
X517525Y717550D01*
X514350Y717550D01*
X514350Y749300D01*
G37*
G54D10*
X514350Y749300D02*
X517525Y749300D01*
X517525Y717550D01*
X514350Y717550D01*
X514350Y749300D01*
G36*
X523875Y749300D02*
X546100Y749300D01*
X546100Y717550D01*
X542925Y717550D01*
X542925Y723900D01*
X523875Y723900D01*
X523875Y749300D01*
G37*
G54D10*
X523875Y749300D02*
X546100Y749300D01*
X546100Y717550D01*
X542925Y717550D01*
X542925Y723900D01*
X523875Y723900D01*
X523875Y749300D01*
G36*
X552450Y742950D02*
X571500Y742950D01*
X571500Y736600D01*
X552450Y736600D01*
X552450Y742950D01*
G37*
G54D10*
X552450Y742950D02*
X571500Y742950D01*
X571500Y736600D01*
X552450Y736600D01*
X552450Y742950D01*
G36*
X552450Y730250D02*
X571500Y730250D01*
X571500Y723900D01*
X552450Y723900D01*
X552450Y730250D01*
G37*
G54D10*
X552450Y730250D02*
X571500Y730250D01*
X571500Y723900D01*
X552450Y723900D01*
X552450Y730250D01*
G36*
X374650Y787400D02*
X393700Y787400D01*
X393700Y781050D01*
X381000Y781050D01*
X381000Y774700D01*
X374650Y774700D01*
X374650Y787400D01*
G37*
G54D10*
X374650Y787400D02*
X393700Y787400D01*
X393700Y781050D01*
X381000Y781050D01*
X381000Y774700D01*
X374650Y774700D01*
X374650Y787400D01*
G36*
X400050Y793750D02*
X403225Y793750D01*
X403225Y762000D01*
X400050Y762000D01*
X400050Y768350D01*
X381000Y768350D01*
X381000Y774700D01*
X393700Y774700D01*
X393700Y781050D01*
X400050Y781050D01*
X400050Y793750D01*
G37*
G54D10*
X400050Y793750D02*
X403225Y793750D01*
X403225Y762000D01*
X400050Y762000D01*
X400050Y768350D01*
X381000Y768350D01*
X381000Y774700D01*
X393700Y774700D01*
X393700Y781050D01*
X400050Y781050D01*
X400050Y793750D01*
G36*
X428625Y793750D02*
X428625Y787400D01*
X409575Y787400D01*
X409575Y781050D01*
X428625Y781050D01*
X428625Y774700D01*
X409575Y774700D01*
X409575Y768350D01*
X428625Y768350D01*
X428625Y762000D01*
X431800Y762000D01*
X431800Y793750D01*
X428625Y793750D01*
G37*
G54D10*
X428625Y793750D02*
X428625Y787400D01*
X409575Y787400D01*
X409575Y781050D01*
X428625Y781050D01*
X428625Y774700D01*
X409575Y774700D01*
X409575Y768350D01*
X428625Y768350D01*
X428625Y762000D01*
X431800Y762000D01*
X431800Y793750D01*
X428625Y793750D01*
G36*
X438150Y774700D02*
X450850Y774700D01*
X450850Y762000D01*
X438150Y762000D01*
X438150Y774700D01*
G37*
G54D10*
X438150Y774700D02*
X450850Y774700D01*
X450850Y762000D01*
X438150Y762000D01*
X438150Y774700D01*
G36*
X438150Y787400D02*
X450850Y787400D01*
X450850Y781050D01*
X438150Y781050D01*
X438150Y787400D01*
G37*
G54D10*
X438150Y787400D02*
X450850Y787400D01*
X450850Y781050D01*
X438150Y781050D01*
X438150Y787400D01*
G36*
X457200Y762000D02*
X457200Y774700D01*
X450850Y774700D01*
X450850Y781050D01*
X457200Y781050D01*
X457200Y787400D01*
X450850Y787400D01*
X450850Y793750D01*
X460375Y793750D01*
X460375Y762000D01*
X457200Y762000D01*
G37*
G54D10*
X457200Y762000D02*
X457200Y774700D01*
X450850Y774700D01*
X450850Y781050D01*
X457200Y781050D01*
X457200Y787400D01*
X450850Y787400D01*
X450850Y793750D01*
X460375Y793750D01*
X460375Y762000D01*
X457200Y762000D01*
G36*
X466725Y787400D02*
X479425Y787400D01*
X479425Y768350D01*
X466725Y768350D01*
X466725Y787400D01*
G37*
G54D10*
X466725Y787400D02*
X479425Y787400D01*
X479425Y768350D01*
X466725Y768350D01*
X466725Y787400D01*
M02*
