%FSLAX34Y34*%
%MOMM*%
%LNSOLDERMASK_TOP*%
G71*
G01*
%ADD10C, 2.20*%
%ADD11R, 1.55X0.60*%
%ADD12C, 2.00*%
%ADD13R, 0.62X1.52*%
%ADD14R, 0.85X1.26*%
%ADD15R, 1.70X3.40*%
%ADD16R, 0.62X1.98*%
%ADD17R, 1.50X1.60*%
%ADD18R, 1.60X1.50*%
%ADD19R, 2.20X2.20*%
%ADD20C, 0.40*%
%ADD21R, 0.50X0.50*%
%ADD22R, 1.80X1.80*%
%ADD23C, 2.00*%
%LPD*%
X580231Y965994D02*
G54D10*
D03*
X580230Y940590D02*
G54D10*
D03*
X554831Y965994D02*
G54D10*
D03*
X554831Y940594D02*
G54D10*
D03*
X529431Y965994D02*
G54D10*
D03*
X529431Y940594D02*
G54D10*
D03*
X504030Y965990D02*
G54D10*
D03*
X504031Y940594D02*
G54D10*
D03*
X478631Y965994D02*
G54D10*
D03*
X478631Y940594D02*
G54D10*
D03*
X453230Y965990D02*
G54D10*
D03*
X453231Y940594D02*
G54D10*
D03*
X427831Y965994D02*
G54D10*
D03*
X427831Y940594D02*
G54D10*
D03*
X402431Y965994D02*
G54D10*
D03*
X402430Y940590D02*
G54D10*
D03*
X377031Y965994D02*
G54D10*
D03*
X377031Y940594D02*
G54D10*
D03*
X351631Y965994D02*
G54D10*
D03*
X351631Y940594D02*
G54D10*
D03*
X326230Y965990D02*
G54D10*
D03*
X326231Y940594D02*
G54D10*
D03*
X300831Y965994D02*
G54D10*
D03*
X300831Y940594D02*
G54D10*
D03*
X275431Y965994D02*
G54D10*
D03*
X275431Y940594D02*
G54D10*
D03*
X250030Y965990D02*
G54D10*
D03*
X250031Y940594D02*
G54D10*
D03*
X224631Y965994D02*
G54D10*
D03*
X224631Y940594D02*
G54D10*
D03*
X199231Y965994D02*
G54D10*
D03*
X199230Y940590D02*
G54D10*
D03*
X173831Y965994D02*
G54D10*
D03*
X173831Y940594D02*
G54D10*
D03*
X148430Y965990D02*
G54D10*
D03*
X123031Y965994D02*
G54D10*
D03*
X97631Y965994D02*
G54D10*
D03*
X148431Y940594D02*
G54D10*
D03*
X123031Y940594D02*
G54D10*
D03*
X97631Y940594D02*
G54D10*
D03*
X67279Y851650D02*
G54D11*
D03*
X67279Y845150D02*
G54D11*
D03*
X67279Y838650D02*
G54D11*
D03*
X67279Y832150D02*
G54D11*
D03*
X67279Y825650D02*
G54D11*
D03*
X35926Y886972D02*
G54D12*
D03*
X35529Y886972D02*
G54D12*
D03*
X35132Y886972D02*
G54D12*
D03*
X34735Y886972D02*
G54D12*
D03*
X34338Y886972D02*
G54D12*
D03*
X33941Y886972D02*
G54D12*
D03*
X33544Y886972D02*
G54D12*
D03*
X33147Y886972D02*
G54D12*
D03*
X32750Y886972D02*
G54D12*
D03*
X32354Y886972D02*
G54D12*
D03*
X31957Y886972D02*
G54D12*
D03*
X31560Y886972D02*
G54D12*
D03*
X31163Y886972D02*
G54D12*
D03*
X30766Y886972D02*
G54D12*
D03*
X30369Y886972D02*
G54D12*
D03*
X29972Y886972D02*
G54D12*
D03*
X29972Y886972D02*
G54D12*
D03*
X29576Y886972D02*
G54D12*
D03*
X29179Y886972D02*
G54D12*
D03*
X28782Y886972D02*
G54D12*
D03*
X28385Y886972D02*
G54D12*
D03*
X27988Y886972D02*
G54D12*
D03*
X27591Y886972D02*
G54D12*
D03*
X27194Y886972D02*
G54D12*
D03*
X26797Y886972D02*
G54D12*
D03*
X26400Y886972D02*
G54D12*
D03*
X26004Y886972D02*
G54D12*
D03*
X25607Y886972D02*
G54D12*
D03*
X25210Y886972D02*
G54D12*
D03*
X68866Y790134D02*
G54D12*
D03*
X68469Y790134D02*
G54D12*
D03*
X68072Y790134D02*
G54D12*
D03*
X67676Y790134D02*
G54D12*
D03*
X67279Y790134D02*
G54D12*
D03*
X66882Y790134D02*
G54D12*
D03*
X66485Y790134D02*
G54D12*
D03*
X66088Y790134D02*
G54D12*
D03*
X65691Y790134D02*
G54D12*
D03*
X65294Y790134D02*
G54D12*
D03*
X64897Y790134D02*
G54D12*
D03*
X64500Y790134D02*
G54D12*
D03*
X64104Y790134D02*
G54D12*
D03*
X63707Y790134D02*
G54D12*
D03*
X63310Y790134D02*
G54D12*
D03*
X62913Y790134D02*
G54D12*
D03*
X62913Y790134D02*
G54D12*
D03*
X62516Y790134D02*
G54D12*
D03*
X62119Y790134D02*
G54D12*
D03*
X61722Y790134D02*
G54D12*
D03*
X61326Y790134D02*
G54D12*
D03*
X60929Y790134D02*
G54D12*
D03*
X60532Y790134D02*
G54D12*
D03*
X60135Y790134D02*
G54D12*
D03*
X59738Y790134D02*
G54D12*
D03*
X59341Y790134D02*
G54D12*
D03*
X58944Y790134D02*
G54D12*
D03*
X58547Y790134D02*
G54D12*
D03*
X58150Y790134D02*
G54D12*
D03*
X68866Y886972D02*
G54D12*
D03*
X68469Y886972D02*
G54D12*
D03*
X68072Y886972D02*
G54D12*
D03*
X67676Y886972D02*
G54D12*
D03*
X67279Y886972D02*
G54D12*
D03*
X66882Y886972D02*
G54D12*
D03*
X66485Y886972D02*
G54D12*
D03*
X66088Y886972D02*
G54D12*
D03*
X65691Y886972D02*
G54D12*
D03*
X65294Y886972D02*
G54D12*
D03*
X64897Y886972D02*
G54D12*
D03*
X64500Y886972D02*
G54D12*
D03*
X64104Y886972D02*
G54D12*
D03*
X63707Y886972D02*
G54D12*
D03*
X63310Y886972D02*
G54D12*
D03*
X62913Y886972D02*
G54D12*
D03*
X62913Y886972D02*
G54D12*
D03*
X62516Y886972D02*
G54D12*
D03*
X62119Y886972D02*
G54D12*
D03*
X61722Y886972D02*
G54D12*
D03*
X61326Y886972D02*
G54D12*
D03*
X60929Y886972D02*
G54D12*
D03*
X60532Y886972D02*
G54D12*
D03*
X60135Y886972D02*
G54D12*
D03*
X59738Y886972D02*
G54D12*
D03*
X59341Y886972D02*
G54D12*
D03*
X58944Y886972D02*
G54D12*
D03*
X58547Y886972D02*
G54D12*
D03*
X58150Y886972D02*
G54D12*
D03*
X35926Y790134D02*
G54D12*
D03*
X35529Y790134D02*
G54D12*
D03*
X35132Y790134D02*
G54D12*
D03*
X34735Y790134D02*
G54D12*
D03*
X34338Y790134D02*
G54D12*
D03*
X33941Y790134D02*
G54D12*
D03*
X33544Y790134D02*
G54D12*
D03*
X33147Y790134D02*
G54D12*
D03*
X32750Y790134D02*
G54D12*
D03*
X32354Y790134D02*
G54D12*
D03*
X31957Y790134D02*
G54D12*
D03*
X31560Y790134D02*
G54D12*
D03*
X31163Y790134D02*
G54D12*
D03*
X30766Y790134D02*
G54D12*
D03*
X30369Y790134D02*
G54D12*
D03*
X29972Y790134D02*
G54D12*
D03*
X29972Y790134D02*
G54D12*
D03*
X29576Y790134D02*
G54D12*
D03*
X29179Y790134D02*
G54D12*
D03*
X28782Y790134D02*
G54D12*
D03*
X28385Y790134D02*
G54D12*
D03*
X27988Y790134D02*
G54D12*
D03*
X27591Y790134D02*
G54D12*
D03*
X27194Y790134D02*
G54D12*
D03*
X26797Y790134D02*
G54D12*
D03*
X26400Y790134D02*
G54D12*
D03*
X26004Y790134D02*
G54D12*
D03*
X25607Y790134D02*
G54D12*
D03*
X25210Y790134D02*
G54D12*
D03*
X291272Y834812D02*
G54D13*
D03*
X284772Y834812D02*
G54D13*
D03*
X278272Y834812D02*
G54D13*
D03*
X271772Y834812D02*
G54D13*
D03*
X265272Y834812D02*
G54D13*
D03*
X258772Y834812D02*
G54D13*
D03*
X252272Y834812D02*
G54D13*
D03*
X245772Y834812D02*
G54D13*
D03*
X239272Y834812D02*
G54D13*
D03*
X232772Y834812D02*
G54D13*
D03*
X226272Y834812D02*
G54D13*
D03*
X219772Y834812D02*
G54D13*
D03*
X213272Y834812D02*
G54D13*
D03*
X206772Y834812D02*
G54D13*
D03*
X291272Y903684D02*
G54D13*
D03*
X284772Y903684D02*
G54D13*
D03*
X278272Y903684D02*
G54D13*
D03*
X271772Y903684D02*
G54D13*
D03*
X265272Y903684D02*
G54D13*
D03*
X258772Y903684D02*
G54D13*
D03*
X252272Y903684D02*
G54D13*
D03*
X245772Y903684D02*
G54D13*
D03*
X239272Y903684D02*
G54D13*
D03*
X232772Y903684D02*
G54D13*
D03*
X226272Y903684D02*
G54D13*
D03*
X219772Y903684D02*
G54D13*
D03*
X213272Y903684D02*
G54D13*
D03*
X206772Y903684D02*
G54D13*
D03*
X291272Y902890D02*
G54D13*
D03*
X284772Y902890D02*
G54D13*
D03*
X278272Y902890D02*
G54D13*
D03*
X271772Y902890D02*
G54D13*
D03*
X265272Y902890D02*
G54D13*
D03*
X258772Y902890D02*
G54D13*
D03*
X252272Y902890D02*
G54D13*
D03*
X245772Y902890D02*
G54D13*
D03*
X239272Y902890D02*
G54D13*
D03*
X232772Y902890D02*
G54D13*
D03*
X226272Y902891D02*
G54D13*
D03*
X219772Y902890D02*
G54D13*
D03*
X213272Y902890D02*
G54D13*
D03*
X206772Y902890D02*
G54D13*
D03*
X291272Y835606D02*
G54D13*
D03*
X284772Y835606D02*
G54D13*
D03*
X278272Y835606D02*
G54D13*
D03*
X271772Y835606D02*
G54D13*
D03*
X265272Y835606D02*
G54D13*
D03*
X258772Y835606D02*
G54D13*
D03*
X252272Y835606D02*
G54D13*
D03*
X245772Y835606D02*
G54D13*
D03*
X239272Y835606D02*
G54D13*
D03*
X232772Y835606D02*
G54D13*
D03*
X226272Y835606D02*
G54D13*
D03*
X219772Y835606D02*
G54D13*
D03*
X213272Y835606D02*
G54D13*
D03*
X206772Y835606D02*
G54D13*
D03*
X291272Y836003D02*
G54D13*
D03*
X284772Y836003D02*
G54D13*
D03*
X278272Y836003D02*
G54D13*
D03*
X271772Y836003D02*
G54D13*
D03*
X265272Y836003D02*
G54D13*
D03*
X258772Y836003D02*
G54D13*
D03*
X252272Y836003D02*
G54D13*
D03*
X245772Y836003D02*
G54D13*
D03*
X239272Y836003D02*
G54D13*
D03*
X232772Y836003D02*
G54D13*
D03*
X226272Y836003D02*
G54D13*
D03*
X219772Y836003D02*
G54D13*
D03*
X213272Y836003D02*
G54D13*
D03*
X206772Y836003D02*
G54D13*
D03*
X291272Y902494D02*
G54D13*
D03*
X284772Y902494D02*
G54D13*
D03*
X278272Y902494D02*
G54D13*
D03*
X271772Y902494D02*
G54D13*
D03*
X265272Y902494D02*
G54D13*
D03*
X258772Y902494D02*
G54D13*
D03*
X252272Y902494D02*
G54D13*
D03*
X245772Y902494D02*
G54D13*
D03*
X239272Y902494D02*
G54D13*
D03*
X232772Y902494D02*
G54D13*
D03*
X226272Y902494D02*
G54D13*
D03*
X219772Y902494D02*
G54D13*
D03*
X213272Y902494D02*
G54D13*
D03*
X206772Y902494D02*
G54D13*
D03*
X164306Y885627D02*
G54D14*
D03*
X183356Y885627D02*
G54D14*
D03*
X164306Y863600D02*
G54D14*
D03*
X173831Y863600D02*
G54D14*
D03*
X183356Y863600D02*
G54D14*
D03*
X141288Y874712D02*
G54D15*
D03*
X99219Y874712D02*
G54D15*
D03*
X407988Y901700D02*
G54D16*
D03*
X414487Y901700D02*
G54D16*
D03*
X407591Y842353D02*
G54D16*
D03*
X414091Y842353D02*
G54D16*
D03*
X420591Y842353D02*
G54D16*
D03*
X427091Y842353D02*
G54D16*
D03*
X420988Y901700D02*
G54D16*
D03*
X427488Y901700D02*
G54D16*
D03*
X193675Y742950D02*
G54D17*
D03*
X174675Y742950D02*
G54D17*
D03*
X193675Y711200D02*
G54D17*
D03*
X174675Y711200D02*
G54D17*
D03*
X146050Y711200D02*
G54D17*
D03*
X127050Y711200D02*
G54D17*
D03*
X146050Y742950D02*
G54D17*
D03*
X127050Y742950D02*
G54D17*
D03*
X317475Y884212D02*
G54D18*
D03*
X317475Y865212D02*
G54D18*
D03*
X346050Y884212D02*
G54D18*
D03*
X346050Y865212D02*
G54D18*
D03*
X374625Y884212D02*
G54D18*
D03*
X374625Y865212D02*
G54D18*
D03*
X454026Y842963D02*
G54D17*
D03*
G36*
X465534Y850954D02*
X480516Y850954D01*
X480517Y834972D01*
X465535Y834972D01*
X465534Y850954D01*
G37*
X228600Y793750D02*
G54D10*
D03*
X228600Y768350D02*
G54D10*
D03*
X228600Y742950D02*
G54D10*
D03*
X228600Y717550D02*
G54D10*
D03*
X532209Y876697D02*
G54D19*
D03*
X456009Y876697D02*
G54D19*
D03*
X184175Y793775D02*
G54D18*
D03*
X184175Y812775D02*
G54D18*
D03*
X130200Y793775D02*
G54D18*
D03*
X130200Y812775D02*
G54D18*
D03*
X104800Y793775D02*
G54D18*
D03*
X104800Y812775D02*
G54D18*
D03*
G54D20*
X588641Y828500D02*
X587441Y826500D01*
X585041Y825500D01*
X582641Y825500D01*
X580241Y826500D01*
X579041Y828500D01*
X579041Y838500D01*
X580241Y840500D01*
X582641Y841500D01*
X585041Y841500D01*
X587441Y840500D01*
X588641Y838500D01*
G54D20*
X600241Y827900D02*
X600241Y831900D01*
X599041Y833900D01*
X596641Y834500D01*
X594241Y833900D01*
X593041Y831900D01*
X593041Y827900D01*
X594241Y825900D01*
X596641Y825500D01*
X599041Y825900D01*
X600241Y827900D01*
G54D20*
X604641Y825500D02*
X604641Y834500D01*
G54D20*
X604641Y832500D02*
X605841Y833900D01*
X608241Y834500D01*
X610641Y833900D01*
X611841Y832500D01*
X611841Y825500D01*
G54D20*
X616241Y826500D02*
X618641Y825500D01*
X621041Y825500D01*
X623441Y826500D01*
X623441Y828500D01*
X622241Y829500D01*
X617441Y830500D01*
X616241Y831500D01*
X616241Y833500D01*
X618641Y834500D01*
X621041Y834500D01*
X623441Y833500D01*
G54D20*
X635041Y827900D02*
X635041Y831900D01*
X633841Y833900D01*
X631441Y834500D01*
X629041Y833900D01*
X627841Y831900D01*
X627841Y827900D01*
X629041Y825900D01*
X631441Y825500D01*
X633841Y825900D01*
X635041Y827900D01*
G54D20*
X639441Y825500D02*
X639441Y841500D01*
G54D20*
X651041Y826500D02*
X649121Y825500D01*
X646721Y825500D01*
X644321Y826500D01*
X643841Y828500D01*
X643841Y831900D01*
X645041Y833900D01*
X647441Y834500D01*
X649841Y833900D01*
X651041Y832500D01*
X651041Y830500D01*
X643841Y830500D01*
X488950Y844550D02*
G54D21*
D03*
X498475Y844550D02*
G54D21*
D03*
X503238Y844550D02*
G54D21*
D03*
X503238Y839788D02*
G54D21*
D03*
X498475Y835025D02*
G54D21*
D03*
X488950Y830262D02*
G54D21*
D03*
X488950Y825500D02*
G54D21*
D03*
X498475Y825500D02*
G54D21*
D03*
X503238Y825500D02*
G54D21*
D03*
X511175Y825500D02*
G54D21*
D03*
X511175Y830262D02*
G54D21*
D03*
X511175Y835025D02*
G54D21*
D03*
X511175Y839788D02*
G54D21*
D03*
X511175Y844550D02*
G54D21*
D03*
X515938Y844550D02*
G54D21*
D03*
X520700Y844550D02*
G54D21*
D03*
X515938Y835025D02*
G54D21*
D03*
X520700Y835025D02*
G54D21*
D03*
X515938Y825500D02*
G54D21*
D03*
X520700Y825500D02*
G54D21*
D03*
X533400Y844550D02*
G54D21*
D03*
X533400Y839788D02*
G54D21*
D03*
X533400Y835025D02*
G54D21*
D03*
X533400Y830262D02*
G54D21*
D03*
X533400Y825500D02*
G54D21*
D03*
X538162Y844550D02*
G54D21*
D03*
X538162Y835025D02*
G54D21*
D03*
X547688Y839788D02*
G54D21*
D03*
X547688Y830262D02*
G54D21*
D03*
X547688Y825500D02*
G54D21*
D03*
X555625Y839788D02*
G54D21*
D03*
X555625Y835025D02*
G54D21*
D03*
X555625Y830262D02*
G54D21*
D03*
X560388Y825500D02*
G54D21*
D03*
X565150Y825500D02*
G54D21*
D03*
X569912Y830262D02*
G54D21*
D03*
X569912Y835025D02*
G54D21*
D03*
X569912Y839788D02*
G54D21*
D03*
X560388Y844550D02*
G54D21*
D03*
X565150Y844550D02*
G54D21*
D03*
X149225Y908844D02*
G54D22*
D03*
X177225Y908844D02*
G54D22*
D03*
X555625Y844550D02*
G54D21*
D03*
X569912Y844550D02*
G54D21*
D03*
X569912Y825500D02*
G54D21*
D03*
X555625Y825500D02*
G54D21*
D03*
X493712Y844550D02*
G54D21*
D03*
X493712Y835025D02*
G54D21*
D03*
X493712Y825500D02*
G54D21*
D03*
X525462Y844550D02*
G54D21*
D03*
X525462Y835025D02*
G54D21*
D03*
X525462Y825500D02*
G54D21*
D03*
X542925Y844550D02*
G54D21*
D03*
X542925Y835025D02*
G54D21*
D03*
X355600Y835025D02*
G54D17*
D03*
X374600Y835025D02*
G54D17*
D03*
X25210Y886972D02*
G54D23*
D03*
X26400Y886972D02*
G54D23*
D03*
X27591Y886972D02*
G54D23*
D03*
X28782Y886972D02*
G54D23*
D03*
X29972Y886972D02*
G54D23*
D03*
X31163Y886972D02*
G54D23*
D03*
X32750Y886972D02*
G54D23*
D03*
X33941Y886972D02*
G54D23*
D03*
X35132Y886972D02*
G54D23*
D03*
X35926Y886972D02*
G54D23*
D03*
X58150Y886972D02*
G54D23*
D03*
X59341Y886972D02*
G54D23*
D03*
X60532Y886972D02*
G54D23*
D03*
X61722Y886972D02*
G54D23*
D03*
X62913Y886972D02*
G54D23*
D03*
X64104Y886972D02*
G54D23*
D03*
X65294Y886972D02*
G54D23*
D03*
X66485Y886972D02*
G54D23*
D03*
X67676Y886972D02*
G54D23*
D03*
X68866Y886972D02*
G54D23*
D03*
X25210Y790134D02*
G54D23*
D03*
X26400Y790134D02*
G54D23*
D03*
X27591Y790134D02*
G54D23*
D03*
X28782Y790134D02*
G54D23*
D03*
X29972Y790134D02*
G54D23*
D03*
X31163Y790134D02*
G54D23*
D03*
X32354Y790134D02*
G54D23*
D03*
X33544Y790134D02*
G54D23*
D03*
X34735Y790134D02*
G54D23*
D03*
X35926Y790134D02*
G54D23*
D03*
X58150Y790134D02*
G54D23*
D03*
X59341Y790134D02*
G54D23*
D03*
X60532Y790134D02*
G54D23*
D03*
X61722Y790134D02*
G54D23*
D03*
X63310Y790134D02*
G54D23*
D03*
X64500Y790134D02*
G54D23*
D03*
X65691Y790134D02*
G54D23*
D03*
X66882Y790134D02*
G54D23*
D03*
X68072Y790134D02*
G54D23*
D03*
X68866Y790134D02*
G54D23*
D03*
M02*
