%FSLAX34Y34*%
%MOMM*%
%LNCOPPER_TOP*%
G71*
G01*
%ADD10C, 6.00*%
%ADD11C, 2.40*%
%ADD12R, 2.35X1.40*%
%ADD13C, 0.50*%
%ADD14R, 1.22X2.12*%
%ADD15R, 1.45X1.86*%
%ADD16C, 0.30*%
%ADD17R, 2.30X4.00*%
%ADD18C, 1.20*%
%ADD19C, 0.80*%
%ADD20C, 1.10*%
%ADD21C, 0.95*%
%ADD22C, 1.30*%
%ADD23C, 0.70*%
%ADD24R, 1.22X2.58*%
%ADD25C, 0.55*%
%ADD26R, 2.10X2.20*%
%ADD27R, 2.20X2.10*%
%ADD28C, 0.15*%
%ADD29R, 2.80X2.80*%
%ADD30C, 0.10*%
%ADD31C, 0.60*%
%ADD32R, 0.70X0.70*%
%ADD33C, 0.51*%
%ADD34R, 2.00X2.00*%
%ADD35C, 2.20*%
%ADD36C, 0.53*%
%ADD37C, 3.00*%
%ADD38C, 1.60*%
%ADD39R, 1.35X0.40*%
%ADD40C, 1.40*%
%ADD41R, 0.42X1.32*%
%ADD42R, 0.65X1.06*%
%ADD43R, 1.50X3.20*%
%ADD44C, 0.40*%
%ADD45R, 0.42X1.78*%
%ADD46R, 1.30X1.40*%
%ADD47R, 1.40X1.30*%
%ADD48C, 0.20*%
%ADD49R, 0.30X0.30*%
%ADD50C, 0.11*%
%ADD51R, 1.60X1.60*%
%ADD52C, 1.40*%
%LPD*%
G36*
X0Y1000000D02*
X680000Y1000000D01*
X680000Y670000D01*
X0Y670000D01*
X0Y1000000D01*
G37*
%LPC*%
X48816Y953294D02*
G54D10*
D03*
X628253Y723900D02*
G54D10*
D03*
X48816Y723900D02*
G54D10*
D03*
X628253Y953294D02*
G54D10*
D03*
X580231Y965994D02*
G54D11*
D03*
X580230Y940590D02*
G54D11*
D03*
X554831Y965994D02*
G54D11*
D03*
X554831Y940594D02*
G54D11*
D03*
X529431Y965994D02*
G54D11*
D03*
X529431Y940594D02*
G54D11*
D03*
X504030Y965990D02*
G54D11*
D03*
X504031Y940594D02*
G54D11*
D03*
X478631Y965994D02*
G54D11*
D03*
X478631Y940594D02*
G54D11*
D03*
X453230Y965990D02*
G54D11*
D03*
X453231Y940594D02*
G54D11*
D03*
X427831Y965994D02*
G54D11*
D03*
X427831Y940594D02*
G54D11*
D03*
X402431Y965994D02*
G54D11*
D03*
X402430Y940590D02*
G54D11*
D03*
X377031Y965994D02*
G54D11*
D03*
X377031Y940594D02*
G54D11*
D03*
X351631Y965994D02*
G54D11*
D03*
X351631Y940594D02*
G54D11*
D03*
X326230Y965990D02*
G54D11*
D03*
X326231Y940594D02*
G54D11*
D03*
X300831Y965994D02*
G54D11*
D03*
X300831Y940594D02*
G54D11*
D03*
X275431Y965994D02*
G54D11*
D03*
X275431Y940594D02*
G54D11*
D03*
X250030Y965990D02*
G54D11*
D03*
X250031Y940594D02*
G54D11*
D03*
X224631Y965994D02*
G54D11*
D03*
X224631Y940594D02*
G54D11*
D03*
X199231Y965994D02*
G54D11*
D03*
X199230Y940590D02*
G54D11*
D03*
X173831Y965994D02*
G54D11*
D03*
X173831Y940594D02*
G54D11*
D03*
X148430Y965990D02*
G54D11*
D03*
X123031Y965994D02*
G54D11*
D03*
X97631Y965994D02*
G54D11*
D03*
X148431Y940594D02*
G54D11*
D03*
X123031Y940594D02*
G54D11*
D03*
X97631Y940594D02*
G54D11*
D03*
X67279Y851650D02*
G54D12*
D03*
X67279Y845150D02*
G54D12*
D03*
X67279Y838650D02*
G54D12*
D03*
X67279Y832150D02*
G54D12*
D03*
X67279Y825650D02*
G54D12*
D03*
X35926Y886972D02*
G54D11*
D03*
X35529Y886972D02*
G54D11*
D03*
X35132Y886972D02*
G54D11*
D03*
X34735Y886972D02*
G54D11*
D03*
X34338Y886972D02*
G54D11*
D03*
X33941Y886972D02*
G54D11*
D03*
X33544Y886972D02*
G54D11*
D03*
X33147Y886972D02*
G54D11*
D03*
X32750Y886972D02*
G54D11*
D03*
X32354Y886972D02*
G54D11*
D03*
X31957Y886972D02*
G54D11*
D03*
X31560Y886972D02*
G54D11*
D03*
X31163Y886972D02*
G54D11*
D03*
X30766Y886972D02*
G54D11*
D03*
X30369Y886972D02*
G54D11*
D03*
X29972Y886972D02*
G54D11*
D03*
X29972Y886972D02*
G54D11*
D03*
X29576Y886972D02*
G54D11*
D03*
X29179Y886972D02*
G54D11*
D03*
X28782Y886972D02*
G54D11*
D03*
X28385Y886972D02*
G54D11*
D03*
X27988Y886972D02*
G54D11*
D03*
X27591Y886972D02*
G54D11*
D03*
X27194Y886972D02*
G54D11*
D03*
X26797Y886972D02*
G54D11*
D03*
X26400Y886972D02*
G54D11*
D03*
X26004Y886972D02*
G54D11*
D03*
X25607Y886972D02*
G54D11*
D03*
X25210Y886972D02*
G54D11*
D03*
X68866Y790134D02*
G54D11*
D03*
X68469Y790134D02*
G54D11*
D03*
X68072Y790134D02*
G54D11*
D03*
X67676Y790134D02*
G54D11*
D03*
X67279Y790134D02*
G54D11*
D03*
X66882Y790134D02*
G54D11*
D03*
X66485Y790134D02*
G54D11*
D03*
X66088Y790134D02*
G54D11*
D03*
X65691Y790134D02*
G54D11*
D03*
X65294Y790134D02*
G54D11*
D03*
X64897Y790134D02*
G54D11*
D03*
X64500Y790134D02*
G54D11*
D03*
X64104Y790134D02*
G54D11*
D03*
X63707Y790134D02*
G54D11*
D03*
X63310Y790134D02*
G54D11*
D03*
X62913Y790134D02*
G54D11*
D03*
X62913Y790134D02*
G54D11*
D03*
X62516Y790134D02*
G54D11*
D03*
X62119Y790134D02*
G54D11*
D03*
X61722Y790134D02*
G54D11*
D03*
X61326Y790134D02*
G54D11*
D03*
X60929Y790134D02*
G54D11*
D03*
X60532Y790134D02*
G54D11*
D03*
X60135Y790134D02*
G54D11*
D03*
X59738Y790134D02*
G54D11*
D03*
X59341Y790134D02*
G54D11*
D03*
X58944Y790134D02*
G54D11*
D03*
X58547Y790134D02*
G54D11*
D03*
X58150Y790134D02*
G54D11*
D03*
X68866Y886972D02*
G54D11*
D03*
X68469Y886972D02*
G54D11*
D03*
X68072Y886972D02*
G54D11*
D03*
X67676Y886972D02*
G54D11*
D03*
X67279Y886972D02*
G54D11*
D03*
X66882Y886972D02*
G54D11*
D03*
X66485Y886972D02*
G54D11*
D03*
X66088Y886972D02*
G54D11*
D03*
X65691Y886972D02*
G54D11*
D03*
X65294Y886972D02*
G54D11*
D03*
X64897Y886972D02*
G54D11*
D03*
X64500Y886972D02*
G54D11*
D03*
X64104Y886972D02*
G54D11*
D03*
X63707Y886972D02*
G54D11*
D03*
X63310Y886972D02*
G54D11*
D03*
X62913Y886972D02*
G54D11*
D03*
X62913Y886972D02*
G54D11*
D03*
X62516Y886972D02*
G54D11*
D03*
X62119Y886972D02*
G54D11*
D03*
X61722Y886972D02*
G54D11*
D03*
X61326Y886972D02*
G54D11*
D03*
X60929Y886972D02*
G54D11*
D03*
X60532Y886972D02*
G54D11*
D03*
X60135Y886972D02*
G54D11*
D03*
X59738Y886972D02*
G54D11*
D03*
X59341Y886972D02*
G54D11*
D03*
X58944Y886972D02*
G54D11*
D03*
X58547Y886972D02*
G54D11*
D03*
X58150Y886972D02*
G54D11*
D03*
X35926Y790134D02*
G54D11*
D03*
X35529Y790134D02*
G54D11*
D03*
X35132Y790134D02*
G54D11*
D03*
X34735Y790134D02*
G54D11*
D03*
X34338Y790134D02*
G54D11*
D03*
X33941Y790134D02*
G54D11*
D03*
X33544Y790134D02*
G54D11*
D03*
X33147Y790134D02*
G54D11*
D03*
X32750Y790134D02*
G54D11*
D03*
X32354Y790134D02*
G54D11*
D03*
X31957Y790134D02*
G54D11*
D03*
X31560Y790134D02*
G54D11*
D03*
X31163Y790134D02*
G54D11*
D03*
X30766Y790134D02*
G54D11*
D03*
X30369Y790134D02*
G54D11*
D03*
X29972Y790134D02*
G54D11*
D03*
X29972Y790134D02*
G54D11*
D03*
X29576Y790134D02*
G54D11*
D03*
X29179Y790134D02*
G54D11*
D03*
X28782Y790134D02*
G54D11*
D03*
X28385Y790134D02*
G54D11*
D03*
X27988Y790134D02*
G54D11*
D03*
X27591Y790134D02*
G54D11*
D03*
X27194Y790134D02*
G54D11*
D03*
X26797Y790134D02*
G54D11*
D03*
X26400Y790134D02*
G54D11*
D03*
X26004Y790134D02*
G54D11*
D03*
X25607Y790134D02*
G54D11*
D03*
X25210Y790134D02*
G54D11*
D03*
G54D13*
X30956Y899319D02*
X30956Y875109D01*
G54D13*
X63500Y898922D02*
X63500Y875109D01*
G54D13*
X30559Y778272D02*
X30559Y802084D01*
G54D13*
X63500Y802084D02*
X63500Y778272D01*
X291272Y834812D02*
G54D14*
D03*
X284772Y834812D02*
G54D14*
D03*
X278272Y834812D02*
G54D14*
D03*
X271772Y834812D02*
G54D14*
D03*
X265272Y834812D02*
G54D14*
D03*
X258772Y834812D02*
G54D14*
D03*
X252272Y834812D02*
G54D14*
D03*
X245772Y834812D02*
G54D14*
D03*
X239272Y834812D02*
G54D14*
D03*
X232772Y834812D02*
G54D14*
D03*
X226272Y834812D02*
G54D14*
D03*
X219772Y834812D02*
G54D14*
D03*
X213272Y834812D02*
G54D14*
D03*
X206772Y834812D02*
G54D14*
D03*
X291272Y903684D02*
G54D14*
D03*
X284772Y903684D02*
G54D14*
D03*
X278272Y903684D02*
G54D14*
D03*
X271772Y903684D02*
G54D14*
D03*
X265272Y903684D02*
G54D14*
D03*
X258772Y903684D02*
G54D14*
D03*
X252272Y903684D02*
G54D14*
D03*
X245772Y903684D02*
G54D14*
D03*
X239272Y903684D02*
G54D14*
D03*
X232772Y903684D02*
G54D14*
D03*
X226272Y903684D02*
G54D14*
D03*
X219772Y903684D02*
G54D14*
D03*
X213272Y903684D02*
G54D14*
D03*
X206772Y903684D02*
G54D14*
D03*
X291272Y902890D02*
G54D14*
D03*
X284772Y902890D02*
G54D14*
D03*
X278272Y902890D02*
G54D14*
D03*
X271772Y902890D02*
G54D14*
D03*
X265272Y902890D02*
G54D14*
D03*
X258772Y902890D02*
G54D14*
D03*
X252272Y902890D02*
G54D14*
D03*
X245772Y902890D02*
G54D14*
D03*
X239272Y902890D02*
G54D14*
D03*
X232772Y902890D02*
G54D14*
D03*
X226272Y902891D02*
G54D14*
D03*
X219772Y902890D02*
G54D14*
D03*
X213272Y902890D02*
G54D14*
D03*
X206772Y902890D02*
G54D14*
D03*
X291272Y835606D02*
G54D14*
D03*
X284772Y835606D02*
G54D14*
D03*
X278272Y835606D02*
G54D14*
D03*
X271772Y835606D02*
G54D14*
D03*
X265272Y835606D02*
G54D14*
D03*
X258772Y835606D02*
G54D14*
D03*
X252272Y835606D02*
G54D14*
D03*
X245772Y835606D02*
G54D14*
D03*
X239272Y835606D02*
G54D14*
D03*
X232772Y835606D02*
G54D14*
D03*
X226272Y835606D02*
G54D14*
D03*
X219772Y835606D02*
G54D14*
D03*
X213272Y835606D02*
G54D14*
D03*
X206772Y835606D02*
G54D14*
D03*
X291272Y836003D02*
G54D14*
D03*
X284772Y836003D02*
G54D14*
D03*
X278272Y836003D02*
G54D14*
D03*
X271772Y836003D02*
G54D14*
D03*
X265272Y836003D02*
G54D14*
D03*
X258772Y836003D02*
G54D14*
D03*
X252272Y836003D02*
G54D14*
D03*
X245772Y836003D02*
G54D14*
D03*
X239272Y836003D02*
G54D14*
D03*
X232772Y836003D02*
G54D14*
D03*
X226272Y836003D02*
G54D14*
D03*
X219772Y836003D02*
G54D14*
D03*
X213272Y836003D02*
G54D14*
D03*
X206772Y836003D02*
G54D14*
D03*
X291272Y902494D02*
G54D14*
D03*
X284772Y902494D02*
G54D14*
D03*
X278272Y902494D02*
G54D14*
D03*
X271772Y902494D02*
G54D14*
D03*
X265272Y902494D02*
G54D14*
D03*
X258772Y902494D02*
G54D14*
D03*
X252272Y902494D02*
G54D14*
D03*
X245772Y902494D02*
G54D14*
D03*
X239272Y902494D02*
G54D14*
D03*
X232772Y902494D02*
G54D14*
D03*
X226272Y902494D02*
G54D14*
D03*
X219772Y902494D02*
G54D14*
D03*
X213272Y902494D02*
G54D14*
D03*
X206772Y902494D02*
G54D14*
D03*
X164306Y885627D02*
G54D15*
D03*
X183356Y885627D02*
G54D15*
D03*
X164306Y863600D02*
G54D15*
D03*
X173831Y863600D02*
G54D15*
D03*
X183356Y863600D02*
G54D15*
D03*
G54D16*
X252214Y895945D02*
X252214Y891977D01*
G54D16*
X226219Y842566D02*
X226219Y846534D01*
G54D16*
X271859Y842566D02*
X271859Y846534D01*
G54D16*
X278408Y842566D02*
X278408Y846534D01*
G54D16*
X245864Y842566D02*
X245864Y846534D01*
G54D16*
X60523Y825698D02*
X55562Y825698D01*
X141288Y874712D02*
G54D17*
D03*
X99219Y874712D02*
G54D17*
D03*
X84733Y845145D02*
G54D18*
D03*
X84733Y838597D02*
G54D18*
D03*
X271859Y884833D02*
G54D19*
D03*
X219869Y852884D02*
G54D19*
D03*
X84733Y851694D02*
G54D18*
D03*
X84733Y832247D02*
G54D18*
D03*
X84733Y825698D02*
G54D18*
D03*
G54D20*
X84733Y851694D02*
X73819Y851694D01*
G54D20*
X84733Y845145D02*
X74017Y845145D01*
G54D20*
X84733Y838597D02*
X74017Y838597D01*
G54D20*
X84733Y832247D02*
X74017Y832247D01*
G54D20*
X84733Y825698D02*
X74017Y825698D01*
G54D21*
X271859Y884833D02*
X271859Y895747D01*
G54D21*
X219869Y852884D02*
X219869Y842169D01*
G54D22*
X63500Y802084D02*
X63500Y823912D01*
G54D22*
X99219Y887412D02*
X65088Y853281D01*
G54D22*
X164306Y863600D02*
X149225Y863600D01*
G54D13*
X173831Y868958D02*
X173831Y873125D01*
G54D23*
X164306Y858441D02*
X164306Y854472D01*
X183356Y854472D01*
X183356Y858441D01*
G54D20*
X123031Y965994D02*
X97631Y965994D01*
G54D22*
X97631Y965994D02*
X96044Y965994D01*
X81756Y951706D01*
X81756Y915194D01*
X92075Y904875D01*
X154781Y904875D01*
X165100Y894556D01*
X165100Y886420D01*
X164306Y885627D01*
X407988Y901700D02*
G54D24*
D03*
X414487Y901700D02*
G54D24*
D03*
X407591Y842353D02*
G54D24*
D03*
X414091Y842353D02*
G54D24*
D03*
X420591Y842353D02*
G54D24*
D03*
X427091Y842353D02*
G54D24*
D03*
X420988Y901700D02*
G54D24*
D03*
X427488Y901700D02*
G54D24*
D03*
G54D25*
X165100Y895350D02*
X192088Y895350D01*
X196056Y891381D01*
X196056Y884238D01*
X200025Y880269D01*
X231378Y880269D01*
X239316Y872331D01*
X239316Y841375D01*
G54D25*
X84733Y845145D02*
X189508Y845145D01*
X196056Y851694D01*
X210741Y851694D01*
X213122Y849312D01*
X213122Y840978D01*
G54D25*
X84733Y838597D02*
X207169Y838597D01*
G54D25*
X173831Y965994D02*
X175022Y965994D01*
X186531Y954484D01*
X186531Y923925D01*
X192088Y918369D01*
X263128Y918369D01*
X265509Y915988D01*
X265509Y907653D01*
G54D25*
X199231Y965994D02*
X202009Y965994D01*
X211931Y956072D01*
X211931Y926703D01*
X214312Y924322D01*
X286544Y924322D01*
X291306Y919559D01*
X291306Y908447D01*
X193675Y742950D02*
G54D26*
D03*
X174675Y742950D02*
G54D26*
D03*
X193675Y711200D02*
G54D26*
D03*
X174675Y711200D02*
G54D26*
D03*
X146050Y711200D02*
G54D26*
D03*
X127050Y711200D02*
G54D26*
D03*
X146050Y742950D02*
G54D26*
D03*
X127050Y742950D02*
G54D26*
D03*
G54D25*
X258762Y830659D02*
X258762Y817959D01*
X252412Y811609D01*
X215106Y811609D01*
X209550Y806053D01*
X209550Y714772D01*
X205978Y711200D01*
X193675Y711200D01*
G54D25*
X252412Y829469D02*
X252412Y819150D01*
X250031Y816769D01*
X213519Y816769D01*
X204788Y808038D01*
X204788Y754459D01*
X198834Y748506D01*
G54D25*
X146050Y742950D02*
X174675Y742950D01*
G54D25*
X146050Y711200D02*
X174675Y711200D01*
G54D25*
X127050Y711200D02*
X127050Y742950D01*
G54D25*
X219869Y829072D02*
X219869Y823912D01*
X217091Y821134D01*
X210741Y821134D01*
X199628Y810022D01*
G54D25*
X127050Y742950D02*
X127050Y754509D01*
X132953Y760412D01*
X193278Y760412D01*
X199628Y766762D01*
X199628Y810022D01*
X139700Y831850D02*
G54D19*
D03*
X158750Y831850D02*
G54D19*
D03*
G54D25*
X139700Y831850D02*
X158750Y831850D01*
X317475Y884212D02*
G54D27*
D03*
X317475Y865212D02*
G54D27*
D03*
X346050Y884212D02*
G54D27*
D03*
X346050Y865212D02*
G54D27*
D03*
G54D25*
X346050Y860450D02*
X239738Y860450D01*
X239712Y860425D01*
G54D28*
X317475Y884212D02*
X374625Y884212D01*
X374625Y884212D02*
G54D27*
D03*
X374625Y865212D02*
G54D27*
D03*
X454026Y842963D02*
G54D26*
D03*
G36*
X462525Y853963D02*
X483525Y853963D01*
X483526Y831963D01*
X462526Y831963D01*
X462525Y853963D01*
G37*
G54D25*
X427831Y940594D02*
X427831Y902044D01*
X427488Y901700D01*
G54D25*
X427831Y965994D02*
X425847Y965994D01*
X415131Y955278D01*
X415131Y925116D01*
X421084Y919162D01*
X421084Y908844D01*
G54D25*
X228600Y742950D02*
X361950Y742950D01*
X393700Y774700D01*
X393675Y901278D01*
G54D25*
X374625Y860450D02*
X393675Y860450D01*
X393700Y860425D01*
X228600Y793750D02*
G54D11*
D03*
X228600Y768350D02*
G54D11*
D03*
X228600Y742950D02*
G54D11*
D03*
X228600Y717550D02*
G54D11*
D03*
G54D28*
X228600Y717550D02*
X228600Y702866D01*
X532209Y876697D02*
G54D29*
D03*
X456009Y876697D02*
G54D29*
D03*
G54D13*
X300831Y940594D02*
X300831Y924719D01*
X323850Y901700D01*
X407988Y901700D01*
G54D13*
X414338Y895350D02*
X414338Y884238D01*
X422275Y876300D01*
X455612Y876300D01*
X456009Y876697D01*
G54D13*
X456009Y876697D02*
X467122Y876697D01*
X473472Y870347D01*
X473472Y843409D01*
X473026Y842963D01*
G54D13*
X393675Y860450D02*
X436538Y860450D01*
X454026Y842963D01*
G54D30*
X549275Y876300D02*
X532606Y876300D01*
X532209Y876697D01*
G54D30*
X407591Y834628D02*
X407591Y828675D01*
G54D30*
X413941Y834628D02*
X413941Y828675D01*
G54D30*
X420688Y834628D02*
X420688Y828675D01*
G54D30*
X427038Y835025D02*
X427038Y828675D01*
X184175Y793775D02*
G54D27*
D03*
X184175Y812775D02*
G54D27*
D03*
G54D25*
X184175Y812775D02*
X201588Y812775D01*
X201612Y812800D01*
G54D28*
X184175Y793775D02*
X184175Y781075D01*
X184150Y781050D01*
X130200Y793775D02*
G54D27*
D03*
X130200Y812775D02*
G54D27*
D03*
X104800Y793775D02*
G54D27*
D03*
X104800Y812775D02*
G54D27*
D03*
X130200Y812775D02*
G54D19*
D03*
G54D25*
X104800Y812775D02*
X104800Y838175D01*
X104775Y838200D01*
G54D28*
X130200Y793775D02*
X130200Y781075D01*
X130175Y781050D01*
G54D28*
X104800Y793775D02*
X104800Y781075D01*
X104775Y781050D01*
G54D31*
X588641Y828500D02*
X587441Y826500D01*
X585041Y825500D01*
X582641Y825500D01*
X580241Y826500D01*
X579041Y828500D01*
X579041Y838500D01*
X580241Y840500D01*
X582641Y841500D01*
X585041Y841500D01*
X587441Y840500D01*
X588641Y838500D01*
G54D31*
X600241Y827900D02*
X600241Y831900D01*
X599041Y833900D01*
X596641Y834500D01*
X594241Y833900D01*
X593041Y831900D01*
X593041Y827900D01*
X594241Y825900D01*
X596641Y825500D01*
X599041Y825900D01*
X600241Y827900D01*
G54D31*
X604641Y825500D02*
X604641Y834500D01*
G54D31*
X604641Y832500D02*
X605841Y833900D01*
X608241Y834500D01*
X610641Y833900D01*
X611841Y832500D01*
X611841Y825500D01*
G54D31*
X616241Y826500D02*
X618641Y825500D01*
X621041Y825500D01*
X623441Y826500D01*
X623441Y828500D01*
X622241Y829500D01*
X617441Y830500D01*
X616241Y831500D01*
X616241Y833500D01*
X618641Y834500D01*
X621041Y834500D01*
X623441Y833500D01*
G54D31*
X635041Y827900D02*
X635041Y831900D01*
X633841Y833900D01*
X631441Y834500D01*
X629041Y833900D01*
X627841Y831900D01*
X627841Y827900D01*
X629041Y825900D01*
X631441Y825500D01*
X633841Y825900D01*
X635041Y827900D01*
G54D31*
X639441Y825500D02*
X639441Y841500D01*
G54D31*
X651041Y826500D02*
X649121Y825500D01*
X646721Y825500D01*
X644321Y826500D01*
X643841Y828500D01*
X643841Y831900D01*
X645041Y833900D01*
X647441Y834500D01*
X649841Y833900D01*
X651041Y832500D01*
X651041Y830500D01*
X643841Y830500D01*
X488950Y844550D02*
G54D32*
D03*
X498475Y844550D02*
G54D32*
D03*
X503238Y844550D02*
G54D32*
D03*
X503238Y839788D02*
G54D32*
D03*
X498475Y835025D02*
G54D32*
D03*
X488950Y830262D02*
G54D32*
D03*
X488950Y825500D02*
G54D32*
D03*
X498475Y825500D02*
G54D32*
D03*
X503238Y825500D02*
G54D32*
D03*
X511175Y825500D02*
G54D32*
D03*
X511175Y830262D02*
G54D32*
D03*
X511175Y835025D02*
G54D32*
D03*
X511175Y839788D02*
G54D32*
D03*
X511175Y844550D02*
G54D32*
D03*
X515938Y844550D02*
G54D32*
D03*
X520700Y844550D02*
G54D32*
D03*
X515938Y835025D02*
G54D32*
D03*
X520700Y835025D02*
G54D32*
D03*
X515938Y825500D02*
G54D32*
D03*
X520700Y825500D02*
G54D32*
D03*
X533400Y844550D02*
G54D32*
D03*
X533400Y839788D02*
G54D32*
D03*
X533400Y835025D02*
G54D32*
D03*
X533400Y830262D02*
G54D32*
D03*
X533400Y825500D02*
G54D32*
D03*
X538162Y844550D02*
G54D32*
D03*
X538162Y835025D02*
G54D32*
D03*
X547688Y839788D02*
G54D32*
D03*
X547688Y830262D02*
G54D32*
D03*
X547688Y825500D02*
G54D32*
D03*
X555625Y839788D02*
G54D32*
D03*
X555625Y835025D02*
G54D32*
D03*
X555625Y830262D02*
G54D32*
D03*
X560388Y825500D02*
G54D32*
D03*
X565150Y825500D02*
G54D32*
D03*
X569912Y830262D02*
G54D32*
D03*
X569912Y835025D02*
G54D32*
D03*
X569912Y839788D02*
G54D32*
D03*
X560388Y844550D02*
G54D32*
D03*
X565150Y844550D02*
G54D32*
D03*
G54D33*
X635000Y809625D02*
X635000Y814625D01*
G54D33*
X635000Y813514D02*
X636333Y814625D01*
X637667Y814625D01*
G54D33*
X644111Y810181D02*
X643044Y809625D01*
X641711Y809625D01*
X640378Y810181D01*
X640111Y811292D01*
X640111Y813181D01*
X640778Y814292D01*
X642111Y814625D01*
X643444Y814292D01*
X644111Y813514D01*
X644111Y812403D01*
X640111Y812403D01*
G54D33*
X646555Y814625D02*
X649222Y809625D01*
X651888Y814625D01*
G54D33*
X654332Y815181D02*
X657665Y818514D01*
X657665Y809625D01*
X149225Y908844D02*
G54D34*
D03*
X177225Y908844D02*
G54D34*
D03*
G54D30*
X177225Y908844D02*
X190500Y908844D01*
X555625Y844550D02*
G54D32*
D03*
X569912Y844550D02*
G54D32*
D03*
X569912Y825500D02*
G54D32*
D03*
X555625Y825500D02*
G54D32*
D03*
X493712Y844550D02*
G54D32*
D03*
X493712Y835025D02*
G54D32*
D03*
X493712Y825500D02*
G54D32*
D03*
X525462Y844550D02*
G54D32*
D03*
X525462Y835025D02*
G54D32*
D03*
X525462Y825500D02*
G54D32*
D03*
X542925Y844550D02*
G54D32*
D03*
X542925Y835025D02*
G54D32*
D03*
G54D25*
X374650Y835025D02*
X374650Y863600D01*
G54D28*
X355600Y835025D02*
X342900Y835025D01*
X355600Y835025D02*
G54D26*
D03*
X374600Y835025D02*
G54D26*
D03*
X25210Y886972D02*
G54D35*
D03*
X26400Y886972D02*
G54D35*
D03*
X27591Y886972D02*
G54D35*
D03*
X28782Y886972D02*
G54D35*
D03*
X29972Y886972D02*
G54D35*
D03*
X31163Y886972D02*
G54D35*
D03*
X32750Y886972D02*
G54D35*
D03*
X33941Y886972D02*
G54D35*
D03*
X35132Y886972D02*
G54D35*
D03*
X35926Y886972D02*
G54D35*
D03*
X58150Y886972D02*
G54D35*
D03*
X59341Y886972D02*
G54D35*
D03*
X60532Y886972D02*
G54D35*
D03*
X61722Y886972D02*
G54D35*
D03*
X62913Y886972D02*
G54D35*
D03*
X64104Y886972D02*
G54D35*
D03*
X65294Y886972D02*
G54D35*
D03*
X66485Y886972D02*
G54D35*
D03*
X67676Y886972D02*
G54D35*
D03*
X68866Y886972D02*
G54D35*
D03*
X25210Y790134D02*
G54D35*
D03*
X26400Y790134D02*
G54D35*
D03*
X27591Y790134D02*
G54D35*
D03*
X28782Y790134D02*
G54D35*
D03*
X29972Y790134D02*
G54D35*
D03*
X31163Y790134D02*
G54D35*
D03*
X32354Y790134D02*
G54D35*
D03*
X33544Y790134D02*
G54D35*
D03*
X34735Y790134D02*
G54D35*
D03*
X35926Y790134D02*
G54D35*
D03*
X58150Y790134D02*
G54D35*
D03*
X59341Y790134D02*
G54D35*
D03*
X60532Y790134D02*
G54D35*
D03*
X61722Y790134D02*
G54D35*
D03*
X63310Y790134D02*
G54D35*
D03*
X64500Y790134D02*
G54D35*
D03*
X65691Y790134D02*
G54D35*
D03*
X66882Y790134D02*
G54D35*
D03*
X68072Y790134D02*
G54D35*
D03*
X68866Y790134D02*
G54D35*
D03*
%LPD*%
G54D36*
G36*
X582897Y940590D02*
X582897Y928090D01*
X577563Y928090D01*
X577563Y940590D01*
X582897Y940590D01*
G37*
G54D36*
G36*
X501363Y965990D02*
X501363Y978490D01*
X506697Y978490D01*
X506697Y965990D01*
X501363Y965990D01*
G37*
G54D36*
G36*
X450563Y965990D02*
X450563Y978490D01*
X455897Y978490D01*
X455897Y965990D01*
X450563Y965990D01*
G37*
G54D36*
G36*
X405097Y940590D02*
X405097Y928090D01*
X399763Y928090D01*
X399763Y940590D01*
X405097Y940590D01*
G37*
G54D36*
G36*
X323563Y965990D02*
X323563Y978490D01*
X328897Y978490D01*
X328897Y965990D01*
X323563Y965990D01*
G37*
G54D36*
G36*
X247363Y965990D02*
X247363Y978490D01*
X252697Y978490D01*
X252697Y965990D01*
X247363Y965990D01*
G37*
G54D36*
G36*
X201897Y940590D02*
X201897Y928090D01*
X196563Y928090D01*
X196563Y940590D01*
X201897Y940590D01*
G37*
G54D36*
G36*
X145763Y965990D02*
X145763Y978490D01*
X151097Y978490D01*
X151097Y965990D01*
X145763Y965990D01*
G37*
X48816Y953294D02*
G54D37*
D03*
X628253Y723900D02*
G54D37*
D03*
X48816Y723900D02*
G54D37*
D03*
X628253Y953294D02*
G54D37*
D03*
X580231Y965994D02*
G54D38*
D03*
X580230Y940590D02*
G54D38*
D03*
X554831Y965994D02*
G54D38*
D03*
X554831Y940594D02*
G54D38*
D03*
X529431Y965994D02*
G54D38*
D03*
X529431Y940594D02*
G54D38*
D03*
X504030Y965990D02*
G54D38*
D03*
X504031Y940594D02*
G54D38*
D03*
X478631Y965994D02*
G54D38*
D03*
X478631Y940594D02*
G54D38*
D03*
X453230Y965990D02*
G54D38*
D03*
X453231Y940594D02*
G54D38*
D03*
X427831Y965994D02*
G54D38*
D03*
X427831Y940594D02*
G54D38*
D03*
X402431Y965994D02*
G54D38*
D03*
X402430Y940590D02*
G54D38*
D03*
X377031Y965994D02*
G54D38*
D03*
X377031Y940594D02*
G54D38*
D03*
X351631Y965994D02*
G54D38*
D03*
X351631Y940594D02*
G54D38*
D03*
X326230Y965990D02*
G54D38*
D03*
X326231Y940594D02*
G54D38*
D03*
X300831Y965994D02*
G54D38*
D03*
X300831Y940594D02*
G54D38*
D03*
X275431Y965994D02*
G54D38*
D03*
X275431Y940594D02*
G54D38*
D03*
X250030Y965990D02*
G54D38*
D03*
X250031Y940594D02*
G54D38*
D03*
X224631Y965994D02*
G54D38*
D03*
X224631Y940594D02*
G54D38*
D03*
X199231Y965994D02*
G54D38*
D03*
X199230Y940590D02*
G54D38*
D03*
X173831Y965994D02*
G54D38*
D03*
X173831Y940594D02*
G54D38*
D03*
X148430Y965990D02*
G54D38*
D03*
X123031Y965994D02*
G54D38*
D03*
X97631Y965994D02*
G54D38*
D03*
X148431Y940594D02*
G54D38*
D03*
X123031Y940594D02*
G54D38*
D03*
X97631Y940594D02*
G54D38*
D03*
X67279Y851650D02*
G54D39*
D03*
X67279Y845150D02*
G54D39*
D03*
X67279Y838650D02*
G54D39*
D03*
X67279Y832150D02*
G54D39*
D03*
X67279Y825650D02*
G54D39*
D03*
X35926Y886972D02*
G54D40*
D03*
X35529Y886972D02*
G54D40*
D03*
X35132Y886972D02*
G54D40*
D03*
X34735Y886972D02*
G54D40*
D03*
X34338Y886972D02*
G54D40*
D03*
X33941Y886972D02*
G54D40*
D03*
X33544Y886972D02*
G54D40*
D03*
X33147Y886972D02*
G54D40*
D03*
X32750Y886972D02*
G54D40*
D03*
X32354Y886972D02*
G54D40*
D03*
X31957Y886972D02*
G54D40*
D03*
X31560Y886972D02*
G54D40*
D03*
X31163Y886972D02*
G54D40*
D03*
X30766Y886972D02*
G54D40*
D03*
X30369Y886972D02*
G54D40*
D03*
X29972Y886972D02*
G54D40*
D03*
X29972Y886972D02*
G54D40*
D03*
X29576Y886972D02*
G54D40*
D03*
X29179Y886972D02*
G54D40*
D03*
X28782Y886972D02*
G54D40*
D03*
X28385Y886972D02*
G54D40*
D03*
X27988Y886972D02*
G54D40*
D03*
X27591Y886972D02*
G54D40*
D03*
X27194Y886972D02*
G54D40*
D03*
X26797Y886972D02*
G54D40*
D03*
X26400Y886972D02*
G54D40*
D03*
X26004Y886972D02*
G54D40*
D03*
X25607Y886972D02*
G54D40*
D03*
X25210Y886972D02*
G54D40*
D03*
X68866Y790134D02*
G54D40*
D03*
X68469Y790134D02*
G54D40*
D03*
X68072Y790134D02*
G54D40*
D03*
X67676Y790134D02*
G54D40*
D03*
X67279Y790134D02*
G54D40*
D03*
X66882Y790134D02*
G54D40*
D03*
X66485Y790134D02*
G54D40*
D03*
X66088Y790134D02*
G54D40*
D03*
X65691Y790134D02*
G54D40*
D03*
X65294Y790134D02*
G54D40*
D03*
X64897Y790134D02*
G54D40*
D03*
X64500Y790134D02*
G54D40*
D03*
X64104Y790134D02*
G54D40*
D03*
X63707Y790134D02*
G54D40*
D03*
X63310Y790134D02*
G54D40*
D03*
X62913Y790134D02*
G54D40*
D03*
X62913Y790134D02*
G54D40*
D03*
X62516Y790134D02*
G54D40*
D03*
X62119Y790134D02*
G54D40*
D03*
X61722Y790134D02*
G54D40*
D03*
X61326Y790134D02*
G54D40*
D03*
X60929Y790134D02*
G54D40*
D03*
X60532Y790134D02*
G54D40*
D03*
X60135Y790134D02*
G54D40*
D03*
X59738Y790134D02*
G54D40*
D03*
X59341Y790134D02*
G54D40*
D03*
X58944Y790134D02*
G54D40*
D03*
X58547Y790134D02*
G54D40*
D03*
X58150Y790134D02*
G54D40*
D03*
X68866Y886972D02*
G54D40*
D03*
X68469Y886972D02*
G54D40*
D03*
X68072Y886972D02*
G54D40*
D03*
X67676Y886972D02*
G54D40*
D03*
X67279Y886972D02*
G54D40*
D03*
X66882Y886972D02*
G54D40*
D03*
X66485Y886972D02*
G54D40*
D03*
X66088Y886972D02*
G54D40*
D03*
X65691Y886972D02*
G54D40*
D03*
X65294Y886972D02*
G54D40*
D03*
X64897Y886972D02*
G54D40*
D03*
X64500Y886972D02*
G54D40*
D03*
X64104Y886972D02*
G54D40*
D03*
X63707Y886972D02*
G54D40*
D03*
X63310Y886972D02*
G54D40*
D03*
X62913Y886972D02*
G54D40*
D03*
X62913Y886972D02*
G54D40*
D03*
X62516Y886972D02*
G54D40*
D03*
X62119Y886972D02*
G54D40*
D03*
X61722Y886972D02*
G54D40*
D03*
X61326Y886972D02*
G54D40*
D03*
X60929Y886972D02*
G54D40*
D03*
X60532Y886972D02*
G54D40*
D03*
X60135Y886972D02*
G54D40*
D03*
X59738Y886972D02*
G54D40*
D03*
X59341Y886972D02*
G54D40*
D03*
X58944Y886972D02*
G54D40*
D03*
X58547Y886972D02*
G54D40*
D03*
X58150Y886972D02*
G54D40*
D03*
X35926Y790134D02*
G54D40*
D03*
X35529Y790134D02*
G54D40*
D03*
X35132Y790134D02*
G54D40*
D03*
X34735Y790134D02*
G54D40*
D03*
X34338Y790134D02*
G54D40*
D03*
X33941Y790134D02*
G54D40*
D03*
X33544Y790134D02*
G54D40*
D03*
X33147Y790134D02*
G54D40*
D03*
X32750Y790134D02*
G54D40*
D03*
X32354Y790134D02*
G54D40*
D03*
X31957Y790134D02*
G54D40*
D03*
X31560Y790134D02*
G54D40*
D03*
X31163Y790134D02*
G54D40*
D03*
X30766Y790134D02*
G54D40*
D03*
X30369Y790134D02*
G54D40*
D03*
X29972Y790134D02*
G54D40*
D03*
X29972Y790134D02*
G54D40*
D03*
X29576Y790134D02*
G54D40*
D03*
X29179Y790134D02*
G54D40*
D03*
X28782Y790134D02*
G54D40*
D03*
X28385Y790134D02*
G54D40*
D03*
X27988Y790134D02*
G54D40*
D03*
X27591Y790134D02*
G54D40*
D03*
X27194Y790134D02*
G54D40*
D03*
X26797Y790134D02*
G54D40*
D03*
X26400Y790134D02*
G54D40*
D03*
X26004Y790134D02*
G54D40*
D03*
X25607Y790134D02*
G54D40*
D03*
X25210Y790134D02*
G54D40*
D03*
G54D13*
X30956Y899319D02*
X30956Y875109D01*
G54D13*
X63500Y898922D02*
X63500Y875109D01*
G54D13*
X30559Y778272D02*
X30559Y802084D01*
G54D13*
X63500Y802084D02*
X63500Y778272D01*
X291272Y834812D02*
G54D41*
D03*
X284772Y834812D02*
G54D41*
D03*
X278272Y834812D02*
G54D41*
D03*
X271772Y834812D02*
G54D41*
D03*
X265272Y834812D02*
G54D41*
D03*
X258772Y834812D02*
G54D41*
D03*
X252272Y834812D02*
G54D41*
D03*
X245772Y834812D02*
G54D41*
D03*
X239272Y834812D02*
G54D41*
D03*
X232772Y834812D02*
G54D41*
D03*
X226272Y834812D02*
G54D41*
D03*
X219772Y834812D02*
G54D41*
D03*
X213272Y834812D02*
G54D41*
D03*
X206772Y834812D02*
G54D41*
D03*
X291272Y903684D02*
G54D41*
D03*
X284772Y903684D02*
G54D41*
D03*
X278272Y903684D02*
G54D41*
D03*
X271772Y903684D02*
G54D41*
D03*
X265272Y903684D02*
G54D41*
D03*
X258772Y903684D02*
G54D41*
D03*
X252272Y903684D02*
G54D41*
D03*
X245772Y903684D02*
G54D41*
D03*
X239272Y903684D02*
G54D41*
D03*
X232772Y903684D02*
G54D41*
D03*
X226272Y903684D02*
G54D41*
D03*
X219772Y903684D02*
G54D41*
D03*
X213272Y903684D02*
G54D41*
D03*
X206772Y903684D02*
G54D41*
D03*
X291272Y902890D02*
G54D41*
D03*
X284772Y902890D02*
G54D41*
D03*
X278272Y902890D02*
G54D41*
D03*
X271772Y902890D02*
G54D41*
D03*
X265272Y902890D02*
G54D41*
D03*
X258772Y902890D02*
G54D41*
D03*
X252272Y902890D02*
G54D41*
D03*
X245772Y902890D02*
G54D41*
D03*
X239272Y902890D02*
G54D41*
D03*
X232772Y902890D02*
G54D41*
D03*
X226272Y902891D02*
G54D41*
D03*
X219772Y902890D02*
G54D41*
D03*
X213272Y902890D02*
G54D41*
D03*
X206772Y902890D02*
G54D41*
D03*
X291272Y835606D02*
G54D41*
D03*
X284772Y835606D02*
G54D41*
D03*
X278272Y835606D02*
G54D41*
D03*
X271772Y835606D02*
G54D41*
D03*
X265272Y835606D02*
G54D41*
D03*
X258772Y835606D02*
G54D41*
D03*
X252272Y835606D02*
G54D41*
D03*
X245772Y835606D02*
G54D41*
D03*
X239272Y835606D02*
G54D41*
D03*
X232772Y835606D02*
G54D41*
D03*
X226272Y835606D02*
G54D41*
D03*
X219772Y835606D02*
G54D41*
D03*
X213272Y835606D02*
G54D41*
D03*
X206772Y835606D02*
G54D41*
D03*
X291272Y836003D02*
G54D41*
D03*
X284772Y836003D02*
G54D41*
D03*
X278272Y836003D02*
G54D41*
D03*
X271772Y836003D02*
G54D41*
D03*
X265272Y836003D02*
G54D41*
D03*
X258772Y836003D02*
G54D41*
D03*
X252272Y836003D02*
G54D41*
D03*
X245772Y836003D02*
G54D41*
D03*
X239272Y836003D02*
G54D41*
D03*
X232772Y836003D02*
G54D41*
D03*
X226272Y836003D02*
G54D41*
D03*
X219772Y836003D02*
G54D41*
D03*
X213272Y836003D02*
G54D41*
D03*
X206772Y836003D02*
G54D41*
D03*
X291272Y902494D02*
G54D41*
D03*
X284772Y902494D02*
G54D41*
D03*
X278272Y902494D02*
G54D41*
D03*
X271772Y902494D02*
G54D41*
D03*
X265272Y902494D02*
G54D41*
D03*
X258772Y902494D02*
G54D41*
D03*
X252272Y902494D02*
G54D41*
D03*
X245772Y902494D02*
G54D41*
D03*
X239272Y902494D02*
G54D41*
D03*
X232772Y902494D02*
G54D41*
D03*
X226272Y902494D02*
G54D41*
D03*
X219772Y902494D02*
G54D41*
D03*
X213272Y902494D02*
G54D41*
D03*
X206772Y902494D02*
G54D41*
D03*
X164306Y885627D02*
G54D42*
D03*
X183356Y885627D02*
G54D42*
D03*
X164306Y863600D02*
G54D42*
D03*
X173831Y863600D02*
G54D42*
D03*
X183356Y863600D02*
G54D42*
D03*
G54D16*
X252214Y895945D02*
X252214Y891977D01*
G54D16*
X226219Y842566D02*
X226219Y846534D01*
G54D16*
X271859Y842566D02*
X271859Y846534D01*
G54D16*
X278408Y842566D02*
X278408Y846534D01*
G54D16*
X245864Y842566D02*
X245864Y846534D01*
G54D16*
X60523Y825698D02*
X55562Y825698D01*
X141288Y874712D02*
G54D43*
D03*
X99219Y874712D02*
G54D43*
D03*
X84733Y845145D02*
G54D44*
D03*
X84733Y838597D02*
G54D44*
D03*
X271859Y884833D02*
G54D44*
D03*
X219869Y852884D02*
G54D44*
D03*
X84733Y851694D02*
G54D44*
D03*
X84733Y832247D02*
G54D44*
D03*
X84733Y825698D02*
G54D44*
D03*
G54D16*
X84733Y851694D02*
X73819Y851694D01*
G54D16*
X84733Y845145D02*
X74017Y845145D01*
G54D16*
X84733Y838597D02*
X74017Y838597D01*
G54D16*
X84733Y832247D02*
X74017Y832247D01*
G54D16*
X84733Y825698D02*
X74017Y825698D01*
G54D28*
X271859Y884833D02*
X271859Y895747D01*
G54D28*
X219869Y852884D02*
X219869Y842169D01*
G54D13*
X63500Y802084D02*
X63500Y823912D01*
G54D13*
X99219Y887412D02*
X65088Y853281D01*
G54D13*
X164306Y863600D02*
X149225Y863600D01*
G54D13*
X173831Y868958D02*
X173831Y873125D01*
G54D16*
X164306Y858441D02*
X164306Y854472D01*
X183356Y854472D01*
X183356Y858441D01*
G54D16*
X123031Y965994D02*
X97631Y965994D01*
G54D13*
X97631Y965994D02*
X96044Y965994D01*
X81756Y951706D01*
X81756Y915194D01*
X92075Y904875D01*
X154781Y904875D01*
X165100Y894556D01*
X165100Y886420D01*
X164306Y885627D01*
X407988Y901700D02*
G54D45*
D03*
X414487Y901700D02*
G54D45*
D03*
X407591Y842353D02*
G54D45*
D03*
X414091Y842353D02*
G54D45*
D03*
X420591Y842353D02*
G54D45*
D03*
X427091Y842353D02*
G54D45*
D03*
X420988Y901700D02*
G54D45*
D03*
X427488Y901700D02*
G54D45*
D03*
G54D28*
X165100Y895350D02*
X192088Y895350D01*
X196056Y891381D01*
X196056Y884238D01*
X200025Y880269D01*
X231378Y880269D01*
X239316Y872331D01*
X239316Y841375D01*
G54D28*
X84733Y845145D02*
X189508Y845145D01*
X196056Y851694D01*
X210741Y851694D01*
X213122Y849312D01*
X213122Y840978D01*
G54D28*
X84733Y838597D02*
X207169Y838597D01*
G54D28*
X173831Y965994D02*
X175022Y965994D01*
X186531Y954484D01*
X186531Y923925D01*
X192088Y918369D01*
X263128Y918369D01*
X265509Y915988D01*
X265509Y907653D01*
G54D28*
X199231Y965994D02*
X202009Y965994D01*
X211931Y956072D01*
X211931Y926703D01*
X214312Y924322D01*
X286544Y924322D01*
X291306Y919559D01*
X291306Y908447D01*
X193675Y742950D02*
G54D46*
D03*
X174675Y742950D02*
G54D46*
D03*
X193675Y711200D02*
G54D46*
D03*
X174675Y711200D02*
G54D46*
D03*
X146050Y711200D02*
G54D46*
D03*
X127050Y711200D02*
G54D46*
D03*
X146050Y742950D02*
G54D46*
D03*
X127050Y742950D02*
G54D46*
D03*
G54D28*
X258762Y830659D02*
X258762Y817959D01*
X252412Y811609D01*
X215106Y811609D01*
X209550Y806053D01*
X209550Y714772D01*
X205978Y711200D01*
X193675Y711200D01*
G54D28*
X252412Y829469D02*
X252412Y819150D01*
X250031Y816769D01*
X213519Y816769D01*
X204788Y808038D01*
X204788Y754459D01*
X198834Y748506D01*
G54D28*
X146050Y742950D02*
X174675Y742950D01*
G54D28*
X146050Y711200D02*
X174675Y711200D01*
G54D28*
X127050Y711200D02*
X127050Y742950D01*
G54D28*
X219869Y829072D02*
X219869Y823912D01*
X217091Y821134D01*
X210741Y821134D01*
X199628Y810022D01*
G54D28*
X127050Y742950D02*
X127050Y754509D01*
X132953Y760412D01*
X193278Y760412D01*
X199628Y766762D01*
X199628Y810022D01*
X139700Y831850D02*
G54D44*
D03*
X158750Y831850D02*
G54D44*
D03*
G54D28*
X139700Y831850D02*
X158750Y831850D01*
X317475Y884212D02*
G54D47*
D03*
X317475Y865212D02*
G54D47*
D03*
X346050Y884212D02*
G54D47*
D03*
X346050Y865212D02*
G54D47*
D03*
G54D28*
X346050Y860450D02*
X239738Y860450D01*
X239712Y860425D01*
G54D28*
X317475Y884212D02*
X374625Y884212D01*
X374625Y884212D02*
G54D47*
D03*
X374625Y865212D02*
G54D47*
D03*
X454026Y842963D02*
G54D46*
D03*
G36*
X466525Y849963D02*
X479525Y849963D01*
X479526Y835963D01*
X466526Y835963D01*
X466525Y849963D01*
G37*
G54D28*
X427831Y940594D02*
X427831Y902044D01*
X427488Y901700D01*
G54D28*
X427831Y965994D02*
X425847Y965994D01*
X415131Y955278D01*
X415131Y925116D01*
X421084Y919162D01*
X421084Y908844D01*
G54D28*
X228600Y742950D02*
X361950Y742950D01*
X393700Y774700D01*
X393675Y901278D01*
G54D28*
X374625Y860450D02*
X393675Y860450D01*
X393700Y860425D01*
X228600Y793750D02*
G54D38*
D03*
X228600Y768350D02*
G54D38*
D03*
X228600Y742950D02*
G54D38*
D03*
X228600Y717550D02*
G54D38*
D03*
G54D28*
X228600Y717550D02*
X228600Y702866D01*
X532209Y876697D02*
G54D34*
D03*
X456009Y876697D02*
G54D34*
D03*
G54D30*
X300831Y940594D02*
X300831Y924719D01*
X323850Y901700D01*
X407988Y901700D01*
G54D30*
X414338Y895350D02*
X414338Y884238D01*
X422275Y876300D01*
X455612Y876300D01*
X456009Y876697D01*
G54D30*
X456009Y876697D02*
X467122Y876697D01*
X473472Y870347D01*
X473472Y843409D01*
X473026Y842963D01*
G54D30*
X393675Y860450D02*
X436538Y860450D01*
X454026Y842963D01*
G54D30*
X549275Y876300D02*
X532606Y876300D01*
X532209Y876697D01*
G54D30*
X407591Y834628D02*
X407591Y828675D01*
G54D30*
X413941Y834628D02*
X413941Y828675D01*
G54D30*
X420688Y834628D02*
X420688Y828675D01*
G54D30*
X427038Y835025D02*
X427038Y828675D01*
X184175Y793775D02*
G54D47*
D03*
X184175Y812775D02*
G54D47*
D03*
G54D28*
X184175Y812775D02*
X201588Y812775D01*
X201612Y812800D01*
G54D28*
X184175Y793775D02*
X184175Y781075D01*
X184150Y781050D01*
X130200Y793775D02*
G54D47*
D03*
X130200Y812775D02*
G54D47*
D03*
X104800Y793775D02*
G54D47*
D03*
X104800Y812775D02*
G54D47*
D03*
X130200Y812775D02*
G54D44*
D03*
G54D28*
X104800Y812775D02*
X104800Y838175D01*
X104775Y838200D01*
G54D28*
X130200Y793775D02*
X130200Y781075D01*
X130175Y781050D01*
G54D28*
X104800Y793775D02*
X104800Y781075D01*
X104775Y781050D01*
G54D48*
X588641Y828500D02*
X587441Y826500D01*
X585041Y825500D01*
X582641Y825500D01*
X580241Y826500D01*
X579041Y828500D01*
X579041Y838500D01*
X580241Y840500D01*
X582641Y841500D01*
X585041Y841500D01*
X587441Y840500D01*
X588641Y838500D01*
G54D48*
X600241Y827900D02*
X600241Y831900D01*
X599041Y833900D01*
X596641Y834500D01*
X594241Y833900D01*
X593041Y831900D01*
X593041Y827900D01*
X594241Y825900D01*
X596641Y825500D01*
X599041Y825900D01*
X600241Y827900D01*
G54D48*
X604641Y825500D02*
X604641Y834500D01*
G54D48*
X604641Y832500D02*
X605841Y833900D01*
X608241Y834500D01*
X610641Y833900D01*
X611841Y832500D01*
X611841Y825500D01*
G54D48*
X616241Y826500D02*
X618641Y825500D01*
X621041Y825500D01*
X623441Y826500D01*
X623441Y828500D01*
X622241Y829500D01*
X617441Y830500D01*
X616241Y831500D01*
X616241Y833500D01*
X618641Y834500D01*
X621041Y834500D01*
X623441Y833500D01*
G54D48*
X635041Y827900D02*
X635041Y831900D01*
X633841Y833900D01*
X631441Y834500D01*
X629041Y833900D01*
X627841Y831900D01*
X627841Y827900D01*
X629041Y825900D01*
X631441Y825500D01*
X633841Y825900D01*
X635041Y827900D01*
G54D48*
X639441Y825500D02*
X639441Y841500D01*
G54D48*
X651041Y826500D02*
X649121Y825500D01*
X646721Y825500D01*
X644321Y826500D01*
X643841Y828500D01*
X643841Y831900D01*
X645041Y833900D01*
X647441Y834500D01*
X649841Y833900D01*
X651041Y832500D01*
X651041Y830500D01*
X643841Y830500D01*
X488950Y844550D02*
G54D49*
D03*
X498475Y844550D02*
G54D49*
D03*
X503238Y844550D02*
G54D49*
D03*
X503238Y839788D02*
G54D49*
D03*
X498475Y835025D02*
G54D49*
D03*
X488950Y830262D02*
G54D49*
D03*
X488950Y825500D02*
G54D49*
D03*
X498475Y825500D02*
G54D49*
D03*
X503238Y825500D02*
G54D49*
D03*
X511175Y825500D02*
G54D49*
D03*
X511175Y830262D02*
G54D49*
D03*
X511175Y835025D02*
G54D49*
D03*
X511175Y839788D02*
G54D49*
D03*
X511175Y844550D02*
G54D49*
D03*
X515938Y844550D02*
G54D49*
D03*
X520700Y844550D02*
G54D49*
D03*
X515938Y835025D02*
G54D49*
D03*
X520700Y835025D02*
G54D49*
D03*
X515938Y825500D02*
G54D49*
D03*
X520700Y825500D02*
G54D49*
D03*
X533400Y844550D02*
G54D49*
D03*
X533400Y839788D02*
G54D49*
D03*
X533400Y835025D02*
G54D49*
D03*
X533400Y830262D02*
G54D49*
D03*
X533400Y825500D02*
G54D49*
D03*
X538162Y844550D02*
G54D49*
D03*
X538162Y835025D02*
G54D49*
D03*
X547688Y839788D02*
G54D49*
D03*
X547688Y830262D02*
G54D49*
D03*
X547688Y825500D02*
G54D49*
D03*
X555625Y839788D02*
G54D49*
D03*
X555625Y835025D02*
G54D49*
D03*
X555625Y830262D02*
G54D49*
D03*
X560388Y825500D02*
G54D49*
D03*
X565150Y825500D02*
G54D49*
D03*
X569912Y830262D02*
G54D49*
D03*
X569912Y835025D02*
G54D49*
D03*
X569912Y839788D02*
G54D49*
D03*
X560388Y844550D02*
G54D49*
D03*
X565150Y844550D02*
G54D49*
D03*
G54D50*
X635000Y809625D02*
X635000Y814625D01*
G54D50*
X635000Y813514D02*
X636333Y814625D01*
X637667Y814625D01*
G54D50*
X644111Y810181D02*
X643044Y809625D01*
X641711Y809625D01*
X640378Y810181D01*
X640111Y811292D01*
X640111Y813181D01*
X640778Y814292D01*
X642111Y814625D01*
X643444Y814292D01*
X644111Y813514D01*
X644111Y812403D01*
X640111Y812403D01*
G54D50*
X646555Y814625D02*
X649222Y809625D01*
X651888Y814625D01*
G54D50*
X654332Y815181D02*
X657665Y818514D01*
X657665Y809625D01*
X149225Y908844D02*
G54D51*
D03*
X177225Y908844D02*
G54D51*
D03*
G54D30*
X177225Y908844D02*
X190500Y908844D01*
X555625Y844550D02*
G54D49*
D03*
X569912Y844550D02*
G54D49*
D03*
X569912Y825500D02*
G54D49*
D03*
X555625Y825500D02*
G54D49*
D03*
X493712Y844550D02*
G54D49*
D03*
X493712Y835025D02*
G54D49*
D03*
X493712Y825500D02*
G54D49*
D03*
X525462Y844550D02*
G54D49*
D03*
X525462Y835025D02*
G54D49*
D03*
X525462Y825500D02*
G54D49*
D03*
X542925Y844550D02*
G54D49*
D03*
X542925Y835025D02*
G54D49*
D03*
G54D28*
X374650Y835025D02*
X374650Y863600D01*
G54D28*
X355600Y835025D02*
X342900Y835025D01*
X355600Y835025D02*
G54D46*
D03*
X374600Y835025D02*
G54D46*
D03*
X25210Y886972D02*
G54D52*
D03*
X26400Y886972D02*
G54D52*
D03*
X27591Y886972D02*
G54D52*
D03*
X28782Y886972D02*
G54D52*
D03*
X29972Y886972D02*
G54D52*
D03*
X31163Y886972D02*
G54D52*
D03*
X32750Y886972D02*
G54D52*
D03*
X33941Y886972D02*
G54D52*
D03*
X35132Y886972D02*
G54D52*
D03*
X35926Y886972D02*
G54D52*
D03*
X58150Y886972D02*
G54D52*
D03*
X59341Y886972D02*
G54D52*
D03*
X60532Y886972D02*
G54D52*
D03*
X61722Y886972D02*
G54D52*
D03*
X62913Y886972D02*
G54D52*
D03*
X64104Y886972D02*
G54D52*
D03*
X65294Y886972D02*
G54D52*
D03*
X66485Y886972D02*
G54D52*
D03*
X67676Y886972D02*
G54D52*
D03*
X68866Y886972D02*
G54D52*
D03*
X25210Y790134D02*
G54D52*
D03*
X26400Y790134D02*
G54D52*
D03*
X27591Y790134D02*
G54D52*
D03*
X28782Y790134D02*
G54D52*
D03*
X29972Y790134D02*
G54D52*
D03*
X31163Y790134D02*
G54D52*
D03*
X32354Y790134D02*
G54D52*
D03*
X33544Y790134D02*
G54D52*
D03*
X34735Y790134D02*
G54D52*
D03*
X35926Y790134D02*
G54D52*
D03*
X58150Y790134D02*
G54D52*
D03*
X59341Y790134D02*
G54D52*
D03*
X60532Y790134D02*
G54D52*
D03*
X61722Y790134D02*
G54D52*
D03*
X63310Y790134D02*
G54D52*
D03*
X64500Y790134D02*
G54D52*
D03*
X65691Y790134D02*
G54D52*
D03*
X66882Y790134D02*
G54D52*
D03*
X68072Y790134D02*
G54D52*
D03*
X68866Y790134D02*
G54D52*
D03*
M02*
