%FSLAX34Y34*%
%MOMM*%
%LNSILK_BOTTOM_*%
G71*
G01*
%ADD10C, 0.10*%
%ADD11C, 0.00*%
%ADD12C, 0.11*%
%ADD13R, 0.50X0.50*%
%LPD*%
G54D10*
X84931Y978694D02*
X592931Y978694D01*
X592931Y927894D01*
X84931Y927894D01*
X84931Y978694D01*
G54D10*
X337741Y953294D02*
X340122Y953294D01*
G54D10*
X338931Y954484D02*
X338931Y952103D01*
G54D11*
X71049Y788944D02*
X63508Y788944D01*
G54D10*
X161131Y978694D02*
X161131Y953294D01*
X211931Y953294D01*
X211931Y978694D01*
G54D10*
X161131Y927894D02*
X161131Y953294D01*
X110331Y953294D01*
X110331Y927894D01*
G54D12*
X649288Y774700D02*
X649288Y783589D01*
G54D12*
X649288Y778256D02*
X648621Y779367D01*
X647288Y779700D01*
X645954Y779367D01*
X645288Y778256D01*
X645288Y774700D01*
G54D12*
X641510Y783589D02*
X641510Y775256D01*
X640844Y774700D01*
X640177Y774922D01*
G54D12*
X642844Y779700D02*
X640177Y779700D01*
G54D12*
X636399Y783589D02*
X636399Y775256D01*
X635732Y774700D01*
X635066Y774922D01*
G54D12*
X637732Y779700D02*
X635066Y779700D01*
G54D12*
X632622Y779700D02*
X632622Y772478D01*
G54D12*
X632622Y776367D02*
X631955Y774922D01*
X630622Y774700D01*
X629288Y774922D01*
X628622Y776033D01*
X628622Y778256D01*
X629288Y779367D01*
X630622Y779700D01*
X631955Y779367D01*
X632622Y778033D01*
G54D12*
X626178Y775256D02*
X624844Y774700D01*
X623511Y774700D01*
X622178Y775256D01*
X622178Y776367D01*
X622844Y776922D01*
X625511Y777478D01*
X626178Y778033D01*
X626178Y779144D01*
X624844Y779700D01*
X623511Y779700D01*
X622178Y779144D01*
G54D12*
X619734Y774700D02*
X619734Y774700D01*
G54D12*
X619734Y779700D02*
X619734Y779700D01*
G54D12*
X617290Y774700D02*
X611956Y783589D01*
G54D12*
X609512Y774700D02*
X604179Y783589D01*
G54D12*
X601736Y773033D02*
X600402Y772478D01*
X599469Y772478D01*
X598136Y773033D01*
X597736Y774144D01*
X597736Y779700D01*
G54D12*
X597736Y778256D02*
X598402Y779367D01*
X599736Y779700D01*
X601069Y779367D01*
X601736Y778256D01*
X601736Y776033D01*
X601069Y774922D01*
X599736Y774700D01*
X598402Y774922D01*
X597736Y776033D01*
G54D12*
X595292Y774700D02*
X595292Y779700D01*
G54D12*
X595292Y781367D02*
X595292Y781367D01*
G54D12*
X591514Y783589D02*
X591514Y775256D01*
X590848Y774700D01*
X590181Y774922D01*
G54D12*
X592848Y779700D02*
X590181Y779700D01*
G54D12*
X587736Y774700D02*
X587736Y783589D01*
G54D12*
X587736Y778256D02*
X587070Y779367D01*
X585736Y779700D01*
X584403Y779367D01*
X583736Y778256D01*
X583736Y774700D01*
G54D12*
X577292Y779700D02*
X577292Y774700D01*
G54D12*
X577292Y775811D02*
X577959Y774922D01*
X579292Y774700D01*
X580626Y774922D01*
X581292Y775811D01*
X581292Y779700D01*
G54D12*
X574848Y774700D02*
X574848Y783589D01*
G54D12*
X574848Y778256D02*
X574182Y779367D01*
X572848Y779700D01*
X571515Y779367D01*
X570848Y778256D01*
X570848Y776033D01*
X571515Y774922D01*
X572848Y774700D01*
X574182Y774922D01*
X574848Y776033D01*
G54D12*
X568404Y774700D02*
X568404Y774700D01*
G54D12*
X562627Y779367D02*
X563960Y779700D01*
X565294Y779367D01*
X565960Y778256D01*
X565960Y776033D01*
X565294Y774922D01*
X563960Y774700D01*
X562627Y774922D01*
G54D12*
X556184Y776033D02*
X556184Y778256D01*
X556850Y779367D01*
X558184Y779700D01*
X559517Y779367D01*
X560184Y778256D01*
X560184Y776033D01*
X559517Y774922D01*
X558184Y774700D01*
X556850Y774922D01*
X556184Y776033D01*
G54D12*
X553740Y774700D02*
X553740Y779700D01*
G54D12*
X553740Y778811D02*
X552406Y779700D01*
X551073Y779367D01*
X550406Y778589D01*
X550406Y774700D01*
G54D12*
X550406Y778811D02*
X549073Y779700D01*
X547740Y779367D01*
X547073Y778589D01*
X547073Y774700D01*
G54D12*
X544628Y774700D02*
X539295Y783589D01*
G54D12*
X531518Y776367D02*
X532185Y775256D01*
X533518Y774700D01*
X534852Y774700D01*
X536185Y775256D01*
X536852Y776367D01*
X536852Y781922D01*
X536185Y783033D01*
X534852Y783589D01*
X533518Y783589D01*
X532185Y783033D01*
X531518Y781922D01*
G54D12*
X529074Y774700D02*
X529074Y783589D01*
G54D12*
X529074Y778256D02*
X528408Y779367D01*
X527074Y779700D01*
X525741Y779367D01*
X525074Y778256D01*
X525074Y774700D01*
G54D12*
X522630Y774700D02*
X522630Y779700D01*
G54D12*
X522630Y781367D02*
X522630Y781367D01*
G54D12*
X520186Y779700D02*
X520186Y772478D01*
G54D12*
X520186Y776367D02*
X519520Y774922D01*
X518186Y774700D01*
X516853Y774922D01*
X516186Y776033D01*
X516186Y778256D01*
X516853Y779367D01*
X518186Y779700D01*
X519520Y779367D01*
X520186Y778033D01*
G54D12*
X511076Y774700D02*
X511076Y783589D01*
G54D12*
X513742Y783589D02*
X508409Y783589D01*
G54D12*
X501966Y775256D02*
X503032Y774700D01*
X504366Y774700D01*
X505699Y775256D01*
X505966Y776367D01*
X505966Y778256D01*
X505299Y779367D01*
X503966Y779700D01*
X502632Y779367D01*
X501966Y778589D01*
X501966Y777478D01*
X505966Y777478D01*
G54D12*
X496188Y779367D02*
X497522Y779700D01*
X498855Y779367D01*
X499522Y778256D01*
X499522Y776033D01*
X498855Y774922D01*
X497522Y774700D01*
X496188Y774922D01*
G54D12*
X493744Y774700D02*
X493744Y783589D01*
G54D12*
X493744Y778256D02*
X493078Y779367D01*
X491744Y779700D01*
X490411Y779367D01*
X489744Y778256D01*
X489744Y774700D01*
G54D12*
X487300Y774700D02*
X487300Y779700D01*
G54D12*
X487300Y778589D02*
X486634Y779367D01*
X485300Y779700D01*
X483967Y779367D01*
X483300Y778589D01*
X483300Y774700D01*
G54D12*
X476856Y776033D02*
X476856Y778256D01*
X477523Y779367D01*
X478856Y779700D01*
X480190Y779367D01*
X480856Y778256D01*
X480856Y776033D01*
X480190Y774922D01*
X478856Y774700D01*
X477523Y774922D01*
X476856Y776033D01*
G54D12*
X474412Y774700D02*
X469079Y783589D01*
G54D12*
X464058Y779144D02*
X462058Y778033D01*
X461392Y776922D01*
X461392Y774700D01*
G54D12*
X466725Y774700D02*
X466725Y783589D01*
X463392Y783589D01*
X462058Y783033D01*
X461392Y781922D01*
X461392Y780811D01*
X462058Y779700D01*
X463392Y779144D01*
X466725Y779144D01*
G54D12*
X458948Y779144D02*
X457615Y779700D01*
X456015Y779700D01*
X454948Y778589D01*
X454948Y774700D01*
G54D12*
X454948Y776367D02*
X455615Y777478D01*
X456948Y777700D01*
X458281Y777478D01*
X458948Y776367D01*
X458681Y775256D01*
X457615Y774700D01*
X456948Y774700D01*
X456681Y774700D01*
X455615Y775256D01*
X454948Y776367D01*
G54D12*
X452504Y775256D02*
X451171Y774700D01*
X449837Y774700D01*
X448504Y775256D01*
X448504Y776367D01*
X449171Y776922D01*
X451837Y777478D01*
X452504Y778033D01*
X452504Y779144D01*
X451171Y779700D01*
X449837Y779700D01*
X448504Y779144D01*
G54D12*
X446060Y779700D02*
X446060Y772478D01*
G54D12*
X446060Y776367D02*
X445393Y774922D01*
X444060Y774700D01*
X442727Y774922D01*
X442060Y776033D01*
X442060Y778256D01*
X442727Y779367D01*
X444060Y779700D01*
X445393Y779367D01*
X446060Y778033D01*
G54D12*
X439616Y774700D02*
X439616Y783589D01*
G54D12*
X439616Y778256D02*
X438949Y779367D01*
X437616Y779700D01*
X436283Y779367D01*
X435616Y778256D01*
X435616Y776033D01*
X436283Y774922D01*
X437616Y774700D01*
X438949Y774922D01*
X439616Y776033D01*
G54D12*
X429172Y775256D02*
X430239Y774700D01*
X431572Y774700D01*
X432905Y775256D01*
X433172Y776367D01*
X433172Y778256D01*
X432505Y779367D01*
X431172Y779700D01*
X429839Y779367D01*
X429172Y778589D01*
X429172Y777478D01*
X433172Y777478D01*
G54D12*
X426728Y774700D02*
X426728Y779700D01*
G54D12*
X426728Y778589D02*
X425395Y779700D01*
X424061Y779700D01*
G54D12*
X421617Y774700D02*
X421617Y779700D01*
G54D12*
X421617Y778589D02*
X420284Y779700D01*
X418950Y779700D01*
G54D12*
X416506Y779700D02*
X413839Y774700D01*
X411173Y779700D01*
G54D12*
X413839Y774700D02*
X414506Y773033D01*
X415173Y772478D01*
X415839Y772478D01*
G54D12*
X408729Y778589D02*
X403396Y778589D01*
G54D12*
X400952Y779700D02*
X400952Y772478D01*
G54D12*
X400952Y776367D02*
X400285Y774922D01*
X398952Y774700D01*
X397619Y774922D01*
X396952Y776033D01*
X396952Y778256D01*
X397619Y779367D01*
X398952Y779700D01*
X400285Y779367D01*
X400952Y778033D01*
G54D12*
X394508Y774700D02*
X394508Y779700D01*
G54D12*
X394508Y781367D02*
X394508Y781367D01*
G54D12*
X392064Y778589D02*
X386731Y778589D01*
G54D12*
X384287Y779700D02*
X380287Y779700D01*
X384287Y774700D01*
X380287Y774700D01*
G54D12*
X373843Y775256D02*
X374910Y774700D01*
X376243Y774700D01*
X377576Y775256D01*
X377843Y776367D01*
X377843Y778256D01*
X377176Y779367D01*
X375843Y779700D01*
X374510Y779367D01*
X373843Y778589D01*
X373843Y777478D01*
X377843Y777478D01*
G54D12*
X371399Y774700D02*
X371399Y779700D01*
G54D12*
X371399Y778589D02*
X370066Y779700D01*
X368732Y779700D01*
G54D12*
X362288Y776033D02*
X362288Y778256D01*
X362955Y779367D01*
X364288Y779700D01*
X365621Y779367D01*
X366288Y778256D01*
X366288Y776033D01*
X365621Y774922D01*
X364288Y774700D01*
X362955Y774922D01*
X362288Y776033D01*
G54D12*
X359844Y778589D02*
X354511Y778589D01*
G54D12*
X348734Y779367D02*
X350067Y779700D01*
X351400Y779367D01*
X352067Y778256D01*
X352067Y776033D01*
X351400Y774922D01*
X350067Y774700D01*
X348734Y774922D01*
G54D12*
X342290Y776033D02*
X342290Y778256D01*
X342957Y779367D01*
X344290Y779700D01*
X345623Y779367D01*
X346290Y778256D01*
X346290Y776033D01*
X345623Y774922D01*
X344290Y774700D01*
X342957Y774922D01*
X342290Y776033D01*
G54D12*
X339846Y774700D02*
X339846Y779700D01*
G54D12*
X339846Y778589D02*
X339179Y779367D01*
X337846Y779700D01*
X336513Y779367D01*
X335846Y778589D01*
X335846Y774700D01*
G54D12*
X333402Y775256D02*
X332069Y774700D01*
X330735Y774700D01*
X329402Y775256D01*
X329402Y776367D01*
X330069Y776922D01*
X332735Y777478D01*
X333402Y778033D01*
X333402Y779144D01*
X332069Y779700D01*
X330735Y779700D01*
X329402Y779144D01*
G54D12*
X322958Y776033D02*
X322958Y778256D01*
X323625Y779367D01*
X324958Y779700D01*
X326291Y779367D01*
X326958Y778256D01*
X326958Y776033D01*
X326291Y774922D01*
X324958Y774700D01*
X323625Y774922D01*
X322958Y776033D01*
G54D12*
X320514Y774700D02*
X320514Y783589D01*
G54D12*
X314070Y775256D02*
X315137Y774700D01*
X316470Y774700D01*
X317803Y775256D01*
X318070Y776367D01*
X318070Y778256D01*
X317403Y779367D01*
X316070Y779700D01*
X314737Y779367D01*
X314070Y778589D01*
X314070Y777478D01*
X318070Y777478D01*
G54D12*
X311626Y778589D02*
X306293Y778589D01*
G54D12*
X303849Y774700D02*
X303849Y783589D01*
G54D12*
X303849Y778256D02*
X303182Y779367D01*
X301849Y779700D01*
X300516Y779367D01*
X299849Y778256D01*
X299849Y774700D01*
G54D12*
X297405Y779144D02*
X296072Y779700D01*
X294472Y779700D01*
X293405Y778589D01*
X293405Y774700D01*
G54D12*
X293405Y776367D02*
X294072Y777478D01*
X295405Y777700D01*
X296738Y777478D01*
X297405Y776367D01*
X297138Y775256D01*
X296072Y774700D01*
X295405Y774700D01*
X295138Y774700D01*
X294072Y775256D01*
X293405Y776367D01*
G54D12*
X289628Y783589D02*
X289628Y775256D01*
X288961Y774700D01*
X288294Y774922D01*
G54D12*
X290961Y779700D02*
X288294Y779700D01*
G36*
X649288Y882650D02*
X547688Y882650D01*
X547688Y866775D01*
X595312Y866775D01*
X595312Y873125D01*
X557212Y873125D01*
X557212Y879475D01*
X639762Y879475D01*
X639762Y873125D01*
X601662Y873125D01*
X601662Y866775D01*
X646112Y866775D01*
X646112Y847725D01*
X601662Y847725D01*
X601662Y841375D01*
X614362Y841375D01*
X614362Y835025D01*
X627062Y835025D01*
X627062Y828675D01*
X646112Y828675D01*
X646112Y822325D01*
X547688Y822325D01*
X547688Y815975D01*
X633412Y815975D01*
X633412Y809625D01*
X608012Y809625D01*
X608012Y790575D01*
X547688Y790575D01*
X547688Y787400D01*
X649288Y787400D01*
X649288Y882650D01*
G37*
G54D10*
X649288Y882650D02*
X547688Y882650D01*
X547688Y866775D01*
X595312Y866775D01*
X595312Y873125D01*
X557212Y873125D01*
X557212Y879475D01*
X639762Y879475D01*
X639762Y873125D01*
X601662Y873125D01*
X601662Y866775D01*
X646112Y866775D01*
X646112Y847725D01*
X601662Y847725D01*
X601662Y841375D01*
X614362Y841375D01*
X614362Y835025D01*
X627062Y835025D01*
X627062Y828675D01*
X646112Y828675D01*
X646112Y822325D01*
X547688Y822325D01*
X547688Y815975D01*
X633412Y815975D01*
X633412Y809625D01*
X608012Y809625D01*
X608012Y790575D01*
X547688Y790575D01*
X547688Y787400D01*
X649288Y787400D01*
X649288Y882650D01*
G36*
X639762Y860425D02*
X601662Y860425D01*
X601662Y847725D01*
X608012Y847725D01*
X608012Y854075D01*
X633412Y854075D01*
X633412Y847725D01*
X639762Y847725D01*
X639762Y860425D01*
G37*
G54D10*
X639762Y860425D02*
X601662Y860425D01*
X601662Y847725D01*
X608012Y847725D01*
X608012Y854075D01*
X633412Y854075D01*
X633412Y847725D01*
X639762Y847725D01*
X639762Y860425D01*
G36*
X595312Y860425D02*
X557212Y860425D01*
X557212Y828675D01*
X563562Y828675D01*
X563562Y854075D01*
X588962Y854075D01*
X588962Y841375D01*
X595312Y841375D01*
X595312Y860425D01*
G37*
G54D10*
X595312Y860425D02*
X557212Y860425D01*
X557212Y828675D01*
X563562Y828675D01*
X563562Y854075D01*
X588962Y854075D01*
X588962Y841375D01*
X595312Y841375D01*
X595312Y860425D01*
G36*
X550862Y866775D02*
X547688Y866775D01*
X547688Y822325D01*
X550862Y822325D01*
X550862Y828675D01*
X557212Y828675D01*
X557212Y847725D01*
X550862Y847725D01*
X550862Y866775D01*
G37*
G54D10*
X550862Y866775D02*
X547688Y866775D01*
X547688Y822325D01*
X550862Y822325D01*
X550862Y828675D01*
X557212Y828675D01*
X557212Y847725D01*
X550862Y847725D01*
X550862Y866775D01*
G36*
X627062Y828675D02*
X614362Y828675D01*
X614362Y822325D01*
X627062Y822325D01*
X627062Y828675D01*
G37*
G54D10*
X627062Y828675D02*
X614362Y828675D01*
X614362Y822325D01*
X627062Y822325D01*
X627062Y828675D01*
G36*
X614362Y835025D02*
X601662Y835025D01*
X601662Y841375D01*
X595312Y841375D01*
X595312Y835025D01*
X582612Y835025D01*
X582612Y828675D01*
X614362Y828675D01*
X614362Y835025D01*
G37*
G54D10*
X614362Y835025D02*
X601662Y835025D01*
X601662Y841375D01*
X595312Y841375D01*
X595312Y835025D01*
X582612Y835025D01*
X582612Y828675D01*
X614362Y828675D01*
X614362Y835025D01*
G36*
X582612Y828675D02*
X569912Y828675D01*
X569912Y822325D01*
X582612Y822325D01*
X582612Y828675D01*
G37*
G54D10*
X582612Y828675D02*
X569912Y828675D01*
X569912Y822325D01*
X582612Y822325D01*
X582612Y828675D01*
G36*
X588962Y847725D02*
X563562Y847725D01*
X563562Y828675D01*
X569912Y828675D01*
X569912Y835025D01*
X582612Y835025D01*
X582612Y841375D01*
X588962Y841375D01*
X588962Y847725D01*
G37*
G54D10*
X588962Y847725D02*
X563562Y847725D01*
X563562Y828675D01*
X569912Y828675D01*
X569912Y835025D01*
X582612Y835025D01*
X582612Y841375D01*
X588962Y841375D01*
X588962Y847725D01*
G36*
X601662Y809625D02*
X569912Y809625D01*
X569912Y803275D01*
X582612Y803275D01*
X582612Y796925D01*
X563562Y796925D01*
X563562Y815975D01*
X547688Y815975D01*
X547688Y790575D01*
X601662Y790575D01*
X601662Y809625D01*
G37*
G54D10*
X601662Y809625D02*
X569912Y809625D01*
X569912Y803275D01*
X582612Y803275D01*
X582612Y796925D01*
X563562Y796925D01*
X563562Y815975D01*
X547688Y815975D01*
X547688Y790575D01*
X601662Y790575D01*
X601662Y809625D01*
X530225Y869950D02*
G54D13*
D03*
X523875Y869950D02*
G54D13*
D03*
X517525Y869950D02*
G54D13*
D03*
X511175Y869950D02*
G54D13*
D03*
X511175Y863600D02*
G54D13*
D03*
X517525Y857250D02*
G54D13*
D03*
X523875Y857250D02*
G54D13*
D03*
X530225Y850900D02*
G54D13*
D03*
X530225Y844550D02*
G54D13*
D03*
X523875Y844550D02*
G54D13*
D03*
X517525Y844550D02*
G54D13*
D03*
X511175Y844550D02*
G54D13*
D03*
X501650Y869950D02*
G54D13*
D03*
X501650Y863600D02*
G54D13*
D03*
X501650Y857250D02*
G54D13*
D03*
X495300Y869950D02*
G54D13*
D03*
X488950Y869950D02*
G54D13*
D03*
X482600Y869950D02*
G54D13*
D03*
X495300Y857250D02*
G54D13*
D03*
X488950Y857250D02*
G54D13*
D03*
X482600Y857250D02*
G54D13*
D03*
X501650Y850900D02*
G54D13*
D03*
X501650Y844550D02*
G54D13*
D03*
X495300Y844550D02*
G54D13*
D03*
X488950Y844550D02*
G54D13*
D03*
X482600Y844550D02*
G54D13*
D03*
X473075Y844550D02*
G54D13*
D03*
X473075Y850900D02*
G54D13*
D03*
X473075Y857250D02*
G54D13*
D03*
X473075Y863600D02*
G54D13*
D03*
X473075Y869950D02*
G54D13*
D03*
X466725Y869950D02*
G54D13*
D03*
X460375Y869950D02*
G54D13*
D03*
X454025Y863600D02*
G54D13*
D03*
X460375Y857250D02*
G54D13*
D03*
X466725Y857250D02*
G54D13*
D03*
X454025Y850900D02*
G54D13*
D03*
X454025Y844550D02*
G54D13*
D03*
X444500Y863600D02*
G54D13*
D03*
X444500Y857250D02*
G54D13*
D03*
X444500Y850900D02*
G54D13*
D03*
X438150Y844550D02*
G54D13*
D03*
X431800Y844550D02*
G54D13*
D03*
X425450Y850900D02*
G54D13*
D03*
X425450Y857250D02*
G54D13*
D03*
X425450Y863600D02*
G54D13*
D03*
X431800Y869950D02*
G54D13*
D03*
X438150Y869950D02*
G54D13*
D03*
X444500Y869950D02*
G54D13*
D03*
X444500Y844550D02*
G54D13*
D03*
X425450Y869950D02*
G54D13*
D03*
X425450Y844550D02*
G54D13*
D03*
X530225Y819150D02*
G54D13*
D03*
X530225Y812800D02*
G54D13*
D03*
X530225Y806450D02*
G54D13*
D03*
X523875Y800100D02*
G54D13*
D03*
X517525Y800100D02*
G54D13*
D03*
X511175Y800100D02*
G54D13*
D03*
X523875Y825500D02*
G54D13*
D03*
X517525Y825500D02*
G54D13*
D03*
X511175Y825500D02*
G54D13*
D03*
X501650Y819150D02*
G54D13*
D03*
X501650Y812800D02*
G54D13*
D03*
X501650Y825500D02*
G54D13*
D03*
X495300Y825500D02*
G54D13*
D03*
X488950Y825500D02*
G54D13*
D03*
X482600Y825500D02*
G54D13*
D03*
X482600Y819150D02*
G54D13*
D03*
X482600Y812800D02*
G54D13*
D03*
X482600Y806450D02*
G54D13*
D03*
X482600Y800100D02*
G54D13*
D03*
X501650Y800100D02*
G54D13*
D03*
X501650Y806450D02*
G54D13*
D03*
X495300Y800100D02*
G54D13*
D03*
X488950Y800100D02*
G54D13*
D03*
X530225Y825500D02*
G54D13*
D03*
X530225Y800100D02*
G54D13*
D03*
X473075Y800100D02*
G54D13*
D03*
X473075Y806450D02*
G54D13*
D03*
X473075Y812800D02*
G54D13*
D03*
X473075Y819150D02*
G54D13*
D03*
X473075Y825500D02*
G54D13*
D03*
X466725Y825500D02*
G54D13*
D03*
X460375Y825500D02*
G54D13*
D03*
X454025Y819150D02*
G54D13*
D03*
X454025Y812800D02*
G54D13*
D03*
X454025Y806450D02*
G54D13*
D03*
X454025Y800100D02*
G54D13*
D03*
X444500Y819150D02*
G54D13*
D03*
X444500Y825500D02*
G54D13*
D03*
X438150Y825500D02*
G54D13*
D03*
X431800Y825500D02*
G54D13*
D03*
X425450Y825500D02*
G54D13*
D03*
X444500Y800100D02*
G54D13*
D03*
X438150Y800100D02*
G54D13*
D03*
X431800Y800100D02*
G54D13*
D03*
X425450Y800100D02*
G54D13*
D03*
X425450Y806450D02*
G54D13*
D03*
X444500Y812800D02*
G54D13*
D03*
X438150Y812800D02*
G54D13*
D03*
X431800Y812800D02*
G54D13*
D03*
X425450Y812800D02*
G54D13*
D03*
X415925Y812800D02*
G54D13*
D03*
X415925Y806450D02*
G54D13*
D03*
X415925Y800100D02*
G54D13*
D03*
X415925Y819150D02*
G54D13*
D03*
X415925Y825500D02*
G54D13*
D03*
X409575Y825500D02*
G54D13*
D03*
X403225Y825500D02*
G54D13*
D03*
X396875Y825500D02*
G54D13*
D03*
X396875Y819150D02*
G54D13*
D03*
X396875Y812800D02*
G54D13*
D03*
X396875Y806450D02*
G54D13*
D03*
X396875Y800100D02*
G54D13*
D03*
X409575Y800100D02*
G54D13*
D03*
X403225Y800100D02*
G54D13*
D03*
X454025Y825500D02*
G54D13*
D03*
X387350Y825500D02*
G54D13*
D03*
X387350Y819150D02*
G54D13*
D03*
X387350Y812800D02*
G54D13*
D03*
X387350Y806450D02*
G54D13*
D03*
X387350Y800100D02*
G54D13*
D03*
X381000Y800100D02*
G54D13*
D03*
X374650Y800100D02*
G54D13*
D03*
X368300Y800100D02*
G54D13*
D03*
X358775Y800100D02*
G54D13*
D03*
X358775Y806450D02*
G54D13*
D03*
X358775Y812800D02*
G54D13*
D03*
X358775Y819150D02*
G54D13*
D03*
X358775Y825500D02*
G54D13*
D03*
X352425Y800100D02*
G54D13*
D03*
X346075Y800100D02*
G54D13*
D03*
X339725Y800100D02*
G54D13*
D03*
X352425Y812800D02*
G54D13*
D03*
X346075Y812800D02*
G54D13*
D03*
X339725Y812800D02*
G54D13*
D03*
X352425Y825500D02*
G54D13*
D03*
X346075Y825500D02*
G54D13*
D03*
X339725Y825500D02*
G54D13*
D03*
G54D10*
X382588Y901700D02*
X371475Y901700D01*
X369094Y891381D01*
X361553Y888206D01*
X352425Y894159D01*
X344488Y887016D01*
X350838Y879078D01*
X347266Y871141D01*
X336153Y869553D01*
X336153Y858838D01*
X346075Y857647D01*
X349647Y849312D01*
X344488Y841772D01*
X352028Y834231D01*
X360759Y839788D01*
X365125Y837009D01*
X372666Y853678D01*
G54D10*
X381397Y853678D02*
X388938Y837406D01*
X393303Y839391D01*
X401638Y833834D01*
X409972Y841375D01*
X404019Y849312D01*
X407591Y857647D01*
X417909Y858838D01*
X417512Y869553D01*
X406797Y871538D01*
X404019Y877888D01*
X409972Y886222D01*
X402034Y893762D01*
X392906Y888206D01*
X384175Y891381D01*
X382588Y901700D01*
G54D10*
G75*
G01X381140Y854363D02*
G03X372935Y854363I-4102J9665D01*
G01*
G36*
X417512Y869553D02*
X406797Y871538D01*
X404019Y877888D01*
X409972Y886222D01*
X402034Y893762D01*
X392906Y888206D01*
X384175Y891381D01*
X382588Y901700D01*
X371475Y901700D01*
X369094Y891381D01*
X361553Y888206D01*
X352425Y894159D01*
X344488Y887016D01*
X350838Y879078D01*
X347266Y871141D01*
X336153Y869553D01*
X336153Y858838D01*
X346075Y857647D01*
X349647Y849312D01*
X344488Y841772D01*
X352028Y834231D01*
X360759Y839788D01*
X365125Y837009D01*
X373062Y854472D01*
X371872Y854869D01*
X370681Y855662D01*
X368300Y858044D01*
X366712Y861219D01*
X366316Y863203D01*
X366316Y864791D01*
X366712Y867172D01*
X367903Y869950D01*
X370284Y872728D01*
X372269Y873919D01*
X374253Y874712D01*
X376634Y875109D01*
X379016Y874712D01*
X382191Y873919D01*
X384969Y871538D01*
X387747Y867569D01*
X387747Y861219D01*
X386556Y858838D01*
X384969Y856456D01*
X382588Y854472D01*
X381000Y854472D01*
X388938Y837406D01*
X393303Y839391D01*
X401638Y833834D01*
X409972Y841375D01*
X404019Y849312D01*
X417512Y869553D01*
G37*
G54D10*
X417512Y869553D02*
X406797Y871538D01*
X404019Y877888D01*
X409972Y886222D01*
X402034Y893762D01*
X392906Y888206D01*
X384175Y891381D01*
X382588Y901700D01*
X371475Y901700D01*
X369094Y891381D01*
X361553Y888206D01*
X352425Y894159D01*
X344488Y887016D01*
X350838Y879078D01*
X347266Y871141D01*
X336153Y869553D01*
X336153Y858838D01*
X346075Y857647D01*
X349647Y849312D01*
X344488Y841772D01*
X352028Y834231D01*
X360759Y839788D01*
X365125Y837009D01*
X373062Y854472D01*
X371872Y854869D01*
X370681Y855662D01*
X368300Y858044D01*
X366712Y861219D01*
X366316Y863203D01*
X366316Y864791D01*
X366712Y867172D01*
X367903Y869950D01*
X370284Y872728D01*
X372269Y873919D01*
X374253Y874712D01*
X376634Y875109D01*
X379016Y874712D01*
X382191Y873919D01*
X384969Y871538D01*
X387747Y867569D01*
X387747Y861219D01*
X386556Y858838D01*
X384969Y856456D01*
X382588Y854472D01*
X381000Y854472D01*
X388938Y837406D01*
X393303Y839391D01*
X401638Y833834D01*
X409972Y841375D01*
X404019Y849312D01*
X417512Y869553D01*
G36*
X417512Y869553D02*
X417909Y858838D01*
X407591Y857647D01*
X417512Y869553D01*
G37*
G54D10*
X417512Y869553D02*
X417909Y858838D01*
X407591Y857647D01*
X417512Y869553D01*
M02*
