; Drill file
; Format: 2.4 (00.0000)
M48
INCH
T01C0.0079
T02C0.0315
T03C0.0315
T04C0.1083
%
G05
G90
T01
X003340Y032510
X003340Y032770
X003340Y033020
X003340Y033270
X003340Y033530
X005500Y032750
X006250Y032750
X005130Y032000
X008660Y033580
X010700Y034840
T02
X009000Y028250
X009000Y029250
X009000Y030250
X009000Y031250
X008840Y037030
X009840Y037030
X009840Y038030
X008840Y038030
X007840Y038030
X006840Y038030
X006840Y037030
X007840Y037030
X005840Y037030
X005840Y038030
X004840Y038030
X003840Y038030
X003840Y037030
X004840Y037030
X010840Y037030
X011840Y037030
X012840Y037030
X012840Y038030
X011840Y038030
X010840Y038030
X013840Y038030
X014840Y038030
X015840Y038030
X016840Y038030
X017840Y038030
X017840Y037030
X018840Y037030
X019840Y037030
X019840Y038030
X018840Y038030
X020840Y038030
X021840Y038030
X022840Y038030
X022840Y037030
X021840Y037030
X020840Y037030
X016840Y037030
X015840Y037030
X014840Y037030
X013840Y037030
T03
X000990Y031110
X001040Y031110
X001090Y031110
X001130Y031110
X001180Y031110
X001230Y031110
X001270Y031110
X001320Y031110
X001370Y031110
X001410Y031110
X002290Y031110
X002340Y031110
X002380Y031110
X002430Y031110
X002490Y031110
X002540Y031110
X002590Y031110
X002630Y031110
X002680Y031110
X002710Y031110
X002710Y034920
X002660Y034920
X002620Y034920
X002570Y034920
X002520Y034920
X002480Y034920
X002430Y034920
X002380Y034920
X002340Y034920
X002290Y034920
X001410Y034920
X001380Y034920
X001340Y034920
X001290Y034920
X001230Y034920
X001180Y034920
X001130Y034920
X001090Y034920
X001040Y034920
X000990Y034920
T04
X001920Y028500
X001920Y037530
X024730Y037530
X024730Y028500
M30
