; Drill file
; Format: 2.4 (00.0000)
M48
INCH
T01C0.0079
T02C0.0315
T03C0.1083
%
G05
G90
T01
X003430Y008430
X003430Y008690
X003430Y008940
X003430Y009200
X003430Y009450
X005590Y008670
X006340Y008670
X005220Y007920
X008750Y009500
X010800Y010760
X005220Y019730
X005590Y020480
X006340Y020480
X008750Y021310
X010800Y022570
X003430Y021270
X003430Y021010
X003430Y020750
X003430Y020500
X003430Y020240
X005220Y031550
X005590Y032300
X006340Y032300
X008750Y033120
X010800Y034380
X003430Y033080
X003430Y032820
X003430Y032560
X003430Y032310
X003430Y032050
T02
X001090Y007030
X002380Y007030
X002380Y010840
X001090Y010840
X003940Y012950
X003940Y013950
X004940Y013950
X005940Y013950
X005940Y012950
X006940Y012950
X007940Y012950
X008940Y012950
X009940Y012950
X009940Y013950
X008940Y013950
X007940Y013950
X006940Y013950
X004940Y012950
X009090Y015980
X009090Y016980
X009090Y017980
X009090Y018980
X010940Y013950
X011940Y013950
X012940Y013950
X012940Y012950
X013940Y012950
X014940Y012950
X015940Y012950
X016940Y012950
X017940Y012950
X017940Y013950
X016940Y013950
X015940Y013950
X014940Y013950
X013940Y013950
X011940Y012950
X010940Y012950
X009090Y007170
X009090Y006170
X009090Y005170
X009090Y004170
X018940Y012950
X019940Y012950
X019940Y013950
X018940Y013950
X020940Y013950
X021940Y013950
X022940Y013950
X022940Y012950
X021940Y012950
X020940Y012950
X020940Y024770
X021940Y024770
X022940Y024770
X022940Y025770
X021940Y025770
X020940Y025770
X019940Y025770
X019940Y024770
X018940Y024770
X018940Y025770
X017940Y025770
X017940Y024770
X016940Y024770
X016940Y025770
X015940Y025770
X014940Y025770
X014940Y024770
X015940Y024770
X013940Y024770
X013940Y025770
X012940Y025770
X012940Y024770
X011940Y024770
X011940Y025770
X010940Y025770
X010940Y024770
X009940Y024770
X009940Y025770
X008940Y025770
X008940Y024770
X007940Y024770
X006940Y024770
X006940Y025770
X007940Y025770
X005940Y025770
X005940Y024770
X004940Y024770
X004940Y025770
X003940Y025770
X003940Y024770
X002380Y022650
X001090Y022650
X001090Y018840
X002380Y018840
X009090Y027800
X009090Y028800
X009090Y029800
X009090Y030800
X008940Y036580
X009940Y036580
X009940Y037580
X008940Y037580
X007940Y037580
X006940Y037580
X006940Y036580
X007940Y036580
X005940Y036580
X005940Y037580
X004940Y037580
X003940Y037580
X003940Y036580
X004940Y036580
X002380Y034470
X001090Y034470
X001090Y030650
X002380Y030650
X010940Y036580
X011940Y036580
X012940Y036580
X012940Y037580
X011940Y037580
X010940Y037580
X013940Y037580
X014940Y037580
X015940Y037580
X016940Y037580
X017940Y037580
X017940Y036580
X018940Y036580
X019940Y036580
X019940Y037580
X018940Y037580
X020940Y037580
X021940Y037580
X022940Y037580
X022940Y036580
X021940Y036580
X020940Y036580
X016940Y036580
X015940Y036580
X014940Y036580
X013940Y036580
T03
X002020Y004420
X002020Y013450
X002020Y016230
X002020Y025270
X002020Y028050
X002020Y037080
X024830Y037080
X024830Y028050
X024830Y025270
X024830Y016230
X024830Y013450
X024830Y004420
M30
