%FSLAX34Y34*%
%MOMM*%
%LNSOLDERMASK_BOTTOM*%
G71*
G01*
%ADD10C, 2.20*%
%ADD11C, 2.00*%
%LPD*%
X582612Y954484D02*
G54D10*
D03*
X582611Y929081D02*
G54D10*
D03*
X557212Y954484D02*
G54D10*
D03*
X557212Y929084D02*
G54D10*
D03*
X531812Y954484D02*
G54D10*
D03*
X531812Y929084D02*
G54D10*
D03*
X506411Y954481D02*
G54D10*
D03*
X506412Y929084D02*
G54D10*
D03*
X481012Y954484D02*
G54D10*
D03*
X481012Y929084D02*
G54D10*
D03*
X455611Y954481D02*
G54D10*
D03*
X455612Y929084D02*
G54D10*
D03*
X430212Y954484D02*
G54D10*
D03*
X430212Y929084D02*
G54D10*
D03*
X404812Y954484D02*
G54D10*
D03*
X404811Y929081D02*
G54D10*
D03*
X379412Y954484D02*
G54D10*
D03*
X379412Y929084D02*
G54D10*
D03*
X354012Y954484D02*
G54D10*
D03*
X354012Y929084D02*
G54D10*
D03*
X328611Y954481D02*
G54D10*
D03*
X328612Y929084D02*
G54D10*
D03*
X303212Y954484D02*
G54D10*
D03*
X303212Y929084D02*
G54D10*
D03*
X277812Y954484D02*
G54D10*
D03*
X277812Y929084D02*
G54D10*
D03*
X252411Y954481D02*
G54D10*
D03*
X252412Y929084D02*
G54D10*
D03*
X227012Y954484D02*
G54D10*
D03*
X227012Y929084D02*
G54D10*
D03*
X201612Y954484D02*
G54D10*
D03*
X201611Y929081D02*
G54D10*
D03*
X176212Y954484D02*
G54D10*
D03*
X176212Y929084D02*
G54D10*
D03*
X150811Y954481D02*
G54D10*
D03*
X125412Y954484D02*
G54D10*
D03*
X100012Y954484D02*
G54D10*
D03*
X150812Y929084D02*
G54D10*
D03*
X125412Y929084D02*
G54D10*
D03*
X100012Y929084D02*
G54D10*
D03*
X38307Y875462D02*
G54D11*
D03*
X37910Y875462D02*
G54D11*
D03*
X37513Y875462D02*
G54D11*
D03*
X37116Y875462D02*
G54D11*
D03*
X36719Y875462D02*
G54D11*
D03*
X36322Y875462D02*
G54D11*
D03*
X35926Y875462D02*
G54D11*
D03*
X35529Y875462D02*
G54D11*
D03*
X35132Y875462D02*
G54D11*
D03*
X34735Y875462D02*
G54D11*
D03*
X34338Y875462D02*
G54D11*
D03*
X33941Y875462D02*
G54D11*
D03*
X33544Y875462D02*
G54D11*
D03*
X33147Y875462D02*
G54D11*
D03*
X32750Y875462D02*
G54D11*
D03*
X32354Y875462D02*
G54D11*
D03*
X32354Y875462D02*
G54D11*
D03*
X31957Y875462D02*
G54D11*
D03*
X31560Y875462D02*
G54D11*
D03*
X31163Y875462D02*
G54D11*
D03*
X30766Y875462D02*
G54D11*
D03*
X30369Y875462D02*
G54D11*
D03*
X29972Y875462D02*
G54D11*
D03*
X29576Y875462D02*
G54D11*
D03*
X29179Y875462D02*
G54D11*
D03*
X28782Y875462D02*
G54D11*
D03*
X28385Y875462D02*
G54D11*
D03*
X27988Y875462D02*
G54D11*
D03*
X27591Y875462D02*
G54D11*
D03*
X71247Y778625D02*
G54D11*
D03*
X70850Y778625D02*
G54D11*
D03*
X70454Y778625D02*
G54D11*
D03*
X70057Y778625D02*
G54D11*
D03*
X69660Y778625D02*
G54D11*
D03*
X69263Y778625D02*
G54D11*
D03*
X68866Y778625D02*
G54D11*
D03*
X68469Y778625D02*
G54D11*
D03*
X68072Y778625D02*
G54D11*
D03*
X67676Y778625D02*
G54D11*
D03*
X67279Y778625D02*
G54D11*
D03*
X66882Y778625D02*
G54D11*
D03*
X66485Y778625D02*
G54D11*
D03*
X66088Y778625D02*
G54D11*
D03*
X65691Y778625D02*
G54D11*
D03*
X65294Y778625D02*
G54D11*
D03*
X65294Y778625D02*
G54D11*
D03*
X64897Y778625D02*
G54D11*
D03*
X64500Y778625D02*
G54D11*
D03*
X64104Y778625D02*
G54D11*
D03*
X63707Y778625D02*
G54D11*
D03*
X63310Y778625D02*
G54D11*
D03*
X62913Y778625D02*
G54D11*
D03*
X62516Y778625D02*
G54D11*
D03*
X62119Y778625D02*
G54D11*
D03*
X61722Y778625D02*
G54D11*
D03*
X61326Y778625D02*
G54D11*
D03*
X60929Y778625D02*
G54D11*
D03*
X60532Y778625D02*
G54D11*
D03*
X71247Y875462D02*
G54D11*
D03*
X70850Y875462D02*
G54D11*
D03*
X70454Y875462D02*
G54D11*
D03*
X70057Y875462D02*
G54D11*
D03*
X69660Y875462D02*
G54D11*
D03*
X69263Y875462D02*
G54D11*
D03*
X68866Y875462D02*
G54D11*
D03*
X68469Y875462D02*
G54D11*
D03*
X68072Y875462D02*
G54D11*
D03*
X67676Y875462D02*
G54D11*
D03*
X67279Y875462D02*
G54D11*
D03*
X66882Y875462D02*
G54D11*
D03*
X66485Y875462D02*
G54D11*
D03*
X66088Y875462D02*
G54D11*
D03*
X65691Y875462D02*
G54D11*
D03*
X65294Y875462D02*
G54D11*
D03*
X65294Y875462D02*
G54D11*
D03*
X64897Y875462D02*
G54D11*
D03*
X64500Y875462D02*
G54D11*
D03*
X64104Y875462D02*
G54D11*
D03*
X63707Y875462D02*
G54D11*
D03*
X63310Y875462D02*
G54D11*
D03*
X62913Y875462D02*
G54D11*
D03*
X62516Y875462D02*
G54D11*
D03*
X62119Y875462D02*
G54D11*
D03*
X61722Y875462D02*
G54D11*
D03*
X61326Y875462D02*
G54D11*
D03*
X60929Y875462D02*
G54D11*
D03*
X60532Y875462D02*
G54D11*
D03*
X38307Y778625D02*
G54D11*
D03*
X37910Y778625D02*
G54D11*
D03*
X37513Y778625D02*
G54D11*
D03*
X37116Y778625D02*
G54D11*
D03*
X36719Y778625D02*
G54D11*
D03*
X36322Y778625D02*
G54D11*
D03*
X35926Y778625D02*
G54D11*
D03*
X35529Y778625D02*
G54D11*
D03*
X35132Y778625D02*
G54D11*
D03*
X34735Y778625D02*
G54D11*
D03*
X34338Y778625D02*
G54D11*
D03*
X33941Y778625D02*
G54D11*
D03*
X33544Y778625D02*
G54D11*
D03*
X33147Y778625D02*
G54D11*
D03*
X32750Y778625D02*
G54D11*
D03*
X32354Y778625D02*
G54D11*
D03*
X32354Y778625D02*
G54D11*
D03*
X31957Y778625D02*
G54D11*
D03*
X31560Y778625D02*
G54D11*
D03*
X31163Y778625D02*
G54D11*
D03*
X30766Y778625D02*
G54D11*
D03*
X30369Y778625D02*
G54D11*
D03*
X29972Y778625D02*
G54D11*
D03*
X29576Y778625D02*
G54D11*
D03*
X29179Y778625D02*
G54D11*
D03*
X28782Y778625D02*
G54D11*
D03*
X28385Y778625D02*
G54D11*
D03*
X27988Y778625D02*
G54D11*
D03*
X27591Y778625D02*
G54D11*
D03*
X230981Y782241D02*
G54D10*
D03*
X230981Y756841D02*
G54D10*
D03*
X230981Y731441D02*
G54D10*
D03*
X230981Y706041D02*
G54D10*
D03*
X582612Y654447D02*
G54D10*
D03*
X582611Y629043D02*
G54D10*
D03*
X557212Y654447D02*
G54D10*
D03*
X557212Y629047D02*
G54D10*
D03*
X531812Y654447D02*
G54D10*
D03*
X531812Y629047D02*
G54D10*
D03*
X506411Y654443D02*
G54D10*
D03*
X506412Y629047D02*
G54D10*
D03*
X481012Y654447D02*
G54D10*
D03*
X481012Y629047D02*
G54D10*
D03*
X455611Y654443D02*
G54D10*
D03*
X455612Y629047D02*
G54D10*
D03*
X430212Y654447D02*
G54D10*
D03*
X430212Y629047D02*
G54D10*
D03*
X404812Y654447D02*
G54D10*
D03*
X404811Y629043D02*
G54D10*
D03*
X379412Y654447D02*
G54D10*
D03*
X379412Y629047D02*
G54D10*
D03*
X354012Y654447D02*
G54D10*
D03*
X354012Y629047D02*
G54D10*
D03*
X328611Y654443D02*
G54D10*
D03*
X328612Y629047D02*
G54D10*
D03*
X303212Y654447D02*
G54D10*
D03*
X303212Y629047D02*
G54D10*
D03*
X277812Y654447D02*
G54D10*
D03*
X277812Y629047D02*
G54D10*
D03*
X252411Y654443D02*
G54D10*
D03*
X252412Y629047D02*
G54D10*
D03*
X227012Y654447D02*
G54D10*
D03*
X227012Y629047D02*
G54D10*
D03*
X201612Y654447D02*
G54D10*
D03*
X201611Y629043D02*
G54D10*
D03*
X176212Y654447D02*
G54D10*
D03*
X176212Y629047D02*
G54D10*
D03*
X150811Y654443D02*
G54D10*
D03*
X125412Y654447D02*
G54D10*
D03*
X100012Y654447D02*
G54D10*
D03*
X150812Y629047D02*
G54D10*
D03*
X125412Y629047D02*
G54D10*
D03*
X100012Y629047D02*
G54D10*
D03*
X38307Y575425D02*
G54D11*
D03*
X37910Y575425D02*
G54D11*
D03*
X37513Y575425D02*
G54D11*
D03*
X37116Y575425D02*
G54D11*
D03*
X36719Y575425D02*
G54D11*
D03*
X36322Y575425D02*
G54D11*
D03*
X35926Y575425D02*
G54D11*
D03*
X35529Y575425D02*
G54D11*
D03*
X35132Y575425D02*
G54D11*
D03*
X34735Y575425D02*
G54D11*
D03*
X34338Y575425D02*
G54D11*
D03*
X33941Y575425D02*
G54D11*
D03*
X33544Y575425D02*
G54D11*
D03*
X33147Y575425D02*
G54D11*
D03*
X32750Y575425D02*
G54D11*
D03*
X32354Y575425D02*
G54D11*
D03*
X32354Y575425D02*
G54D11*
D03*
X31957Y575425D02*
G54D11*
D03*
X31560Y575425D02*
G54D11*
D03*
X31163Y575425D02*
G54D11*
D03*
X30766Y575425D02*
G54D11*
D03*
X30369Y575425D02*
G54D11*
D03*
X29972Y575425D02*
G54D11*
D03*
X29576Y575425D02*
G54D11*
D03*
X29179Y575425D02*
G54D11*
D03*
X28782Y575425D02*
G54D11*
D03*
X28385Y575425D02*
G54D11*
D03*
X27988Y575425D02*
G54D11*
D03*
X27591Y575425D02*
G54D11*
D03*
X71247Y478588D02*
G54D11*
D03*
X70850Y478588D02*
G54D11*
D03*
X70454Y478588D02*
G54D11*
D03*
X70057Y478588D02*
G54D11*
D03*
X69660Y478588D02*
G54D11*
D03*
X69263Y478588D02*
G54D11*
D03*
X68866Y478588D02*
G54D11*
D03*
X68469Y478588D02*
G54D11*
D03*
X68072Y478588D02*
G54D11*
D03*
X67676Y478588D02*
G54D11*
D03*
X67279Y478588D02*
G54D11*
D03*
X66882Y478588D02*
G54D11*
D03*
X66485Y478588D02*
G54D11*
D03*
X66088Y478588D02*
G54D11*
D03*
X65691Y478588D02*
G54D11*
D03*
X65294Y478588D02*
G54D11*
D03*
X65294Y478588D02*
G54D11*
D03*
X64897Y478588D02*
G54D11*
D03*
X64500Y478588D02*
G54D11*
D03*
X64104Y478588D02*
G54D11*
D03*
X63707Y478588D02*
G54D11*
D03*
X63310Y478588D02*
G54D11*
D03*
X62913Y478588D02*
G54D11*
D03*
X62516Y478588D02*
G54D11*
D03*
X62119Y478588D02*
G54D11*
D03*
X61722Y478588D02*
G54D11*
D03*
X61326Y478588D02*
G54D11*
D03*
X60929Y478588D02*
G54D11*
D03*
X60532Y478588D02*
G54D11*
D03*
X71247Y575425D02*
G54D11*
D03*
X70850Y575425D02*
G54D11*
D03*
X70454Y575425D02*
G54D11*
D03*
X70057Y575425D02*
G54D11*
D03*
X69660Y575425D02*
G54D11*
D03*
X69263Y575425D02*
G54D11*
D03*
X68866Y575425D02*
G54D11*
D03*
X68469Y575425D02*
G54D11*
D03*
X68072Y575425D02*
G54D11*
D03*
X67676Y575425D02*
G54D11*
D03*
X67279Y575425D02*
G54D11*
D03*
X66882Y575425D02*
G54D11*
D03*
X66485Y575425D02*
G54D11*
D03*
X66088Y575425D02*
G54D11*
D03*
X65691Y575425D02*
G54D11*
D03*
X65294Y575425D02*
G54D11*
D03*
X65294Y575425D02*
G54D11*
D03*
X64897Y575425D02*
G54D11*
D03*
X64500Y575425D02*
G54D11*
D03*
X64104Y575425D02*
G54D11*
D03*
X63707Y575425D02*
G54D11*
D03*
X63310Y575425D02*
G54D11*
D03*
X62913Y575425D02*
G54D11*
D03*
X62516Y575425D02*
G54D11*
D03*
X62119Y575425D02*
G54D11*
D03*
X61722Y575425D02*
G54D11*
D03*
X61326Y575425D02*
G54D11*
D03*
X60929Y575425D02*
G54D11*
D03*
X60532Y575425D02*
G54D11*
D03*
X38307Y478588D02*
G54D11*
D03*
X37910Y478588D02*
G54D11*
D03*
X37513Y478588D02*
G54D11*
D03*
X37116Y478588D02*
G54D11*
D03*
X36719Y478588D02*
G54D11*
D03*
X36322Y478588D02*
G54D11*
D03*
X35926Y478588D02*
G54D11*
D03*
X35529Y478588D02*
G54D11*
D03*
X35132Y478588D02*
G54D11*
D03*
X34735Y478588D02*
G54D11*
D03*
X34338Y478588D02*
G54D11*
D03*
X33941Y478588D02*
G54D11*
D03*
X33544Y478588D02*
G54D11*
D03*
X33147Y478588D02*
G54D11*
D03*
X32750Y478588D02*
G54D11*
D03*
X32354Y478588D02*
G54D11*
D03*
X32354Y478588D02*
G54D11*
D03*
X31957Y478588D02*
G54D11*
D03*
X31560Y478588D02*
G54D11*
D03*
X31163Y478588D02*
G54D11*
D03*
X30766Y478588D02*
G54D11*
D03*
X30369Y478588D02*
G54D11*
D03*
X29972Y478588D02*
G54D11*
D03*
X29576Y478588D02*
G54D11*
D03*
X29179Y478588D02*
G54D11*
D03*
X28782Y478588D02*
G54D11*
D03*
X28385Y478588D02*
G54D11*
D03*
X27988Y478588D02*
G54D11*
D03*
X27591Y478588D02*
G54D11*
D03*
X230981Y482203D02*
G54D10*
D03*
X230981Y456803D02*
G54D10*
D03*
X230981Y431403D02*
G54D10*
D03*
X230981Y406003D02*
G54D10*
D03*
X582612Y354409D02*
G54D10*
D03*
X582611Y329006D02*
G54D10*
D03*
X557212Y354409D02*
G54D10*
D03*
X557212Y329009D02*
G54D10*
D03*
X531812Y354409D02*
G54D10*
D03*
X531812Y329009D02*
G54D10*
D03*
X506411Y354406D02*
G54D10*
D03*
X506412Y329009D02*
G54D10*
D03*
X481012Y354409D02*
G54D10*
D03*
X481012Y329009D02*
G54D10*
D03*
X455611Y354406D02*
G54D10*
D03*
X455612Y329009D02*
G54D10*
D03*
X430212Y354409D02*
G54D10*
D03*
X430212Y329009D02*
G54D10*
D03*
X404812Y354409D02*
G54D10*
D03*
X404811Y329006D02*
G54D10*
D03*
X379412Y354409D02*
G54D10*
D03*
X379412Y329009D02*
G54D10*
D03*
X354012Y354409D02*
G54D10*
D03*
X354012Y329009D02*
G54D10*
D03*
X328611Y354406D02*
G54D10*
D03*
X328612Y329009D02*
G54D10*
D03*
X303212Y354409D02*
G54D10*
D03*
X303212Y329009D02*
G54D10*
D03*
X277812Y354409D02*
G54D10*
D03*
X277812Y329009D02*
G54D10*
D03*
X252411Y354406D02*
G54D10*
D03*
X252412Y329009D02*
G54D10*
D03*
X227012Y354409D02*
G54D10*
D03*
X227012Y329009D02*
G54D10*
D03*
X201612Y354409D02*
G54D10*
D03*
X201611Y329006D02*
G54D10*
D03*
X176212Y354409D02*
G54D10*
D03*
X176212Y329009D02*
G54D10*
D03*
X150811Y354406D02*
G54D10*
D03*
X125412Y354409D02*
G54D10*
D03*
X100012Y354409D02*
G54D10*
D03*
X150812Y329009D02*
G54D10*
D03*
X125412Y329009D02*
G54D10*
D03*
X100012Y329009D02*
G54D10*
D03*
X38307Y275388D02*
G54D11*
D03*
X37910Y275388D02*
G54D11*
D03*
X37513Y275388D02*
G54D11*
D03*
X37116Y275388D02*
G54D11*
D03*
X36719Y275388D02*
G54D11*
D03*
X36322Y275388D02*
G54D11*
D03*
X35926Y275388D02*
G54D11*
D03*
X35529Y275388D02*
G54D11*
D03*
X35132Y275388D02*
G54D11*
D03*
X34735Y275388D02*
G54D11*
D03*
X34338Y275388D02*
G54D11*
D03*
X33941Y275388D02*
G54D11*
D03*
X33544Y275388D02*
G54D11*
D03*
X33147Y275388D02*
G54D11*
D03*
X32750Y275388D02*
G54D11*
D03*
X32354Y275388D02*
G54D11*
D03*
X32354Y275388D02*
G54D11*
D03*
X31957Y275388D02*
G54D11*
D03*
X31560Y275388D02*
G54D11*
D03*
X31163Y275388D02*
G54D11*
D03*
X30766Y275388D02*
G54D11*
D03*
X30369Y275388D02*
G54D11*
D03*
X29972Y275388D02*
G54D11*
D03*
X29576Y275388D02*
G54D11*
D03*
X29179Y275388D02*
G54D11*
D03*
X28782Y275388D02*
G54D11*
D03*
X28385Y275388D02*
G54D11*
D03*
X27988Y275388D02*
G54D11*
D03*
X27591Y275388D02*
G54D11*
D03*
X71247Y178550D02*
G54D11*
D03*
X70850Y178550D02*
G54D11*
D03*
X70454Y178550D02*
G54D11*
D03*
X70057Y178550D02*
G54D11*
D03*
X69660Y178550D02*
G54D11*
D03*
X69263Y178550D02*
G54D11*
D03*
X68866Y178550D02*
G54D11*
D03*
X68469Y178550D02*
G54D11*
D03*
X68072Y178550D02*
G54D11*
D03*
X67676Y178550D02*
G54D11*
D03*
X67279Y178550D02*
G54D11*
D03*
X66882Y178550D02*
G54D11*
D03*
X66485Y178550D02*
G54D11*
D03*
X66088Y178550D02*
G54D11*
D03*
X65691Y178550D02*
G54D11*
D03*
X65294Y178550D02*
G54D11*
D03*
X65294Y178550D02*
G54D11*
D03*
X64897Y178550D02*
G54D11*
D03*
X64500Y178550D02*
G54D11*
D03*
X64104Y178550D02*
G54D11*
D03*
X63707Y178550D02*
G54D11*
D03*
X63310Y178550D02*
G54D11*
D03*
X62913Y178550D02*
G54D11*
D03*
X62516Y178550D02*
G54D11*
D03*
X62119Y178550D02*
G54D11*
D03*
X61722Y178550D02*
G54D11*
D03*
X61326Y178550D02*
G54D11*
D03*
X60929Y178550D02*
G54D11*
D03*
X60532Y178550D02*
G54D11*
D03*
X71247Y275388D02*
G54D11*
D03*
X70850Y275388D02*
G54D11*
D03*
X70454Y275388D02*
G54D11*
D03*
X70057Y275388D02*
G54D11*
D03*
X69660Y275388D02*
G54D11*
D03*
X69263Y275388D02*
G54D11*
D03*
X68866Y275388D02*
G54D11*
D03*
X68469Y275388D02*
G54D11*
D03*
X68072Y275388D02*
G54D11*
D03*
X67676Y275388D02*
G54D11*
D03*
X67279Y275388D02*
G54D11*
D03*
X66882Y275388D02*
G54D11*
D03*
X66485Y275388D02*
G54D11*
D03*
X66088Y275388D02*
G54D11*
D03*
X65691Y275388D02*
G54D11*
D03*
X65294Y275388D02*
G54D11*
D03*
X65294Y275388D02*
G54D11*
D03*
X64897Y275388D02*
G54D11*
D03*
X64500Y275388D02*
G54D11*
D03*
X64104Y275388D02*
G54D11*
D03*
X63707Y275388D02*
G54D11*
D03*
X63310Y275388D02*
G54D11*
D03*
X62913Y275388D02*
G54D11*
D03*
X62516Y275388D02*
G54D11*
D03*
X62119Y275388D02*
G54D11*
D03*
X61722Y275388D02*
G54D11*
D03*
X61326Y275388D02*
G54D11*
D03*
X60929Y275388D02*
G54D11*
D03*
X60532Y275388D02*
G54D11*
D03*
X38307Y178550D02*
G54D11*
D03*
X37910Y178550D02*
G54D11*
D03*
X37513Y178550D02*
G54D11*
D03*
X37116Y178550D02*
G54D11*
D03*
X36719Y178550D02*
G54D11*
D03*
X36322Y178550D02*
G54D11*
D03*
X35926Y178550D02*
G54D11*
D03*
X35529Y178550D02*
G54D11*
D03*
X35132Y178550D02*
G54D11*
D03*
X34735Y178550D02*
G54D11*
D03*
X34338Y178550D02*
G54D11*
D03*
X33941Y178550D02*
G54D11*
D03*
X33544Y178550D02*
G54D11*
D03*
X33147Y178550D02*
G54D11*
D03*
X32750Y178550D02*
G54D11*
D03*
X32354Y178550D02*
G54D11*
D03*
X32354Y178550D02*
G54D11*
D03*
X31957Y178550D02*
G54D11*
D03*
X31560Y178550D02*
G54D11*
D03*
X31163Y178550D02*
G54D11*
D03*
X30766Y178550D02*
G54D11*
D03*
X30369Y178550D02*
G54D11*
D03*
X29972Y178550D02*
G54D11*
D03*
X29576Y178550D02*
G54D11*
D03*
X29179Y178550D02*
G54D11*
D03*
X28782Y178550D02*
G54D11*
D03*
X28385Y178550D02*
G54D11*
D03*
X27988Y178550D02*
G54D11*
D03*
X27591Y178550D02*
G54D11*
D03*
X230981Y182166D02*
G54D10*
D03*
X230981Y156766D02*
G54D10*
D03*
X230981Y131366D02*
G54D10*
D03*
X230981Y105966D02*
G54D10*
D03*
M02*
