%FSLAX34Y34*%
%MOMM*%
%LNSOLDERMASK_TOP*%
G71*
G01*
%ADD10C, 2.20*%
%ADD11R, 0.62X1.52*%
%ADD12R, 0.85X1.26*%
%ADD13R, 1.70X3.40*%
%ADD14R, 0.62X1.98*%
%ADD15R, 1.50X1.60*%
%ADD16R, 1.60X1.50*%
%ADD17C, 0.40*%
%ADD18R, 0.50X0.50*%
%ADD19C, 0.31*%
%ADD20R, 1.80X1.80*%
%ADD21R, 1.60X1.60*%
%ADD22C, 1.65*%
%ADD23R, 1.60X0.60*%
%LPD*%
X580231Y966788D02*
G54D10*
D03*
X580230Y941384D02*
G54D10*
D03*
X554831Y966788D02*
G54D10*
D03*
X554831Y941388D02*
G54D10*
D03*
X529431Y966788D02*
G54D10*
D03*
X529431Y941388D02*
G54D10*
D03*
X504030Y966784D02*
G54D10*
D03*
X504031Y941388D02*
G54D10*
D03*
X478631Y966788D02*
G54D10*
D03*
X478631Y941388D02*
G54D10*
D03*
X453230Y966784D02*
G54D10*
D03*
X453231Y941388D02*
G54D10*
D03*
X427831Y966788D02*
G54D10*
D03*
X427831Y941388D02*
G54D10*
D03*
X402431Y966788D02*
G54D10*
D03*
X402430Y941384D02*
G54D10*
D03*
X377031Y966788D02*
G54D10*
D03*
X377031Y941388D02*
G54D10*
D03*
X351631Y966788D02*
G54D10*
D03*
X351631Y941388D02*
G54D10*
D03*
X326230Y966784D02*
G54D10*
D03*
X326231Y941388D02*
G54D10*
D03*
X300831Y966788D02*
G54D10*
D03*
X300831Y941388D02*
G54D10*
D03*
X275431Y966788D02*
G54D10*
D03*
X275431Y941388D02*
G54D10*
D03*
X250030Y966784D02*
G54D10*
D03*
X250031Y941388D02*
G54D10*
D03*
X224631Y966788D02*
G54D10*
D03*
X224631Y941388D02*
G54D10*
D03*
X199231Y966788D02*
G54D10*
D03*
X199230Y941384D02*
G54D10*
D03*
X173831Y966788D02*
G54D10*
D03*
X173831Y941388D02*
G54D10*
D03*
X148430Y966784D02*
G54D10*
D03*
X123031Y966788D02*
G54D10*
D03*
X97631Y966788D02*
G54D10*
D03*
X148431Y941388D02*
G54D10*
D03*
X123031Y941388D02*
G54D10*
D03*
X97631Y941388D02*
G54D10*
D03*
X291272Y835606D02*
G54D11*
D03*
X284772Y835606D02*
G54D11*
D03*
X278272Y835606D02*
G54D11*
D03*
X271772Y835606D02*
G54D11*
D03*
X265272Y835606D02*
G54D11*
D03*
X258772Y835606D02*
G54D11*
D03*
X252272Y835606D02*
G54D11*
D03*
X245772Y835606D02*
G54D11*
D03*
X239272Y835606D02*
G54D11*
D03*
X232772Y835606D02*
G54D11*
D03*
X226272Y835606D02*
G54D11*
D03*
X219772Y835606D02*
G54D11*
D03*
X213272Y835606D02*
G54D11*
D03*
X206772Y835606D02*
G54D11*
D03*
X291272Y904478D02*
G54D11*
D03*
X284772Y904478D02*
G54D11*
D03*
X278272Y904478D02*
G54D11*
D03*
X271772Y904478D02*
G54D11*
D03*
X265272Y904478D02*
G54D11*
D03*
X258772Y904478D02*
G54D11*
D03*
X252272Y904478D02*
G54D11*
D03*
X245772Y904478D02*
G54D11*
D03*
X239272Y904478D02*
G54D11*
D03*
X232772Y904478D02*
G54D11*
D03*
X226272Y904478D02*
G54D11*
D03*
X219772Y904478D02*
G54D11*
D03*
X213272Y904478D02*
G54D11*
D03*
X206772Y904478D02*
G54D11*
D03*
X291272Y903684D02*
G54D11*
D03*
X284772Y903684D02*
G54D11*
D03*
X278272Y903684D02*
G54D11*
D03*
X271772Y903684D02*
G54D11*
D03*
X265272Y903684D02*
G54D11*
D03*
X258772Y903684D02*
G54D11*
D03*
X252272Y903684D02*
G54D11*
D03*
X245772Y903684D02*
G54D11*
D03*
X239272Y903684D02*
G54D11*
D03*
X232772Y903684D02*
G54D11*
D03*
X226272Y903684D02*
G54D11*
D03*
X219772Y903684D02*
G54D11*
D03*
X213272Y903684D02*
G54D11*
D03*
X206772Y903684D02*
G54D11*
D03*
X291272Y836400D02*
G54D11*
D03*
X284772Y836400D02*
G54D11*
D03*
X278272Y836400D02*
G54D11*
D03*
X271772Y836400D02*
G54D11*
D03*
X265272Y836400D02*
G54D11*
D03*
X258772Y836400D02*
G54D11*
D03*
X252272Y836400D02*
G54D11*
D03*
X245772Y836400D02*
G54D11*
D03*
X239272Y836400D02*
G54D11*
D03*
X232772Y836400D02*
G54D11*
D03*
X226272Y836400D02*
G54D11*
D03*
X219772Y836400D02*
G54D11*
D03*
X213272Y836400D02*
G54D11*
D03*
X206772Y836400D02*
G54D11*
D03*
X291272Y836797D02*
G54D11*
D03*
X284772Y836797D02*
G54D11*
D03*
X278272Y836797D02*
G54D11*
D03*
X271772Y836797D02*
G54D11*
D03*
X265272Y836797D02*
G54D11*
D03*
X258772Y836797D02*
G54D11*
D03*
X252272Y836797D02*
G54D11*
D03*
X245772Y836797D02*
G54D11*
D03*
X239272Y836797D02*
G54D11*
D03*
X232772Y836797D02*
G54D11*
D03*
X226272Y836797D02*
G54D11*
D03*
X219772Y836797D02*
G54D11*
D03*
X213272Y836797D02*
G54D11*
D03*
X206772Y836797D02*
G54D11*
D03*
X291272Y903287D02*
G54D11*
D03*
X284772Y903288D02*
G54D11*
D03*
X278272Y903288D02*
G54D11*
D03*
X271772Y903288D02*
G54D11*
D03*
X265272Y903288D02*
G54D11*
D03*
X258772Y903288D02*
G54D11*
D03*
X252272Y903288D02*
G54D11*
D03*
X245772Y903287D02*
G54D11*
D03*
X239272Y903288D02*
G54D11*
D03*
X232772Y903288D02*
G54D11*
D03*
X226272Y903288D02*
G54D11*
D03*
X219772Y903288D02*
G54D11*
D03*
X213272Y903288D02*
G54D11*
D03*
X206772Y903288D02*
G54D11*
D03*
X164306Y886420D02*
G54D12*
D03*
X183356Y886420D02*
G54D12*
D03*
X164306Y864394D02*
G54D12*
D03*
X173831Y864394D02*
G54D12*
D03*
X183356Y864394D02*
G54D12*
D03*
X141288Y875506D02*
G54D13*
D03*
X99219Y875506D02*
G54D13*
D03*
X407988Y902494D02*
G54D14*
D03*
X414487Y902494D02*
G54D14*
D03*
X407591Y843147D02*
G54D14*
D03*
X414091Y843147D02*
G54D14*
D03*
X420591Y843147D02*
G54D14*
D03*
X427091Y843147D02*
G54D14*
D03*
X420988Y902494D02*
G54D14*
D03*
X427488Y902494D02*
G54D14*
D03*
X193675Y743744D02*
G54D15*
D03*
X174675Y743744D02*
G54D15*
D03*
X193675Y711994D02*
G54D15*
D03*
X174675Y711994D02*
G54D15*
D03*
X146050Y711994D02*
G54D15*
D03*
X127050Y711994D02*
G54D15*
D03*
X146050Y743744D02*
G54D15*
D03*
X127050Y743744D02*
G54D15*
D03*
X317475Y885006D02*
G54D16*
D03*
X317475Y866006D02*
G54D16*
D03*
X346050Y885006D02*
G54D16*
D03*
X346050Y866006D02*
G54D16*
D03*
X374625Y885006D02*
G54D16*
D03*
X374625Y866006D02*
G54D16*
D03*
X449238Y882229D02*
G54D16*
D03*
X449238Y863229D02*
G54D16*
D03*
X228600Y794544D02*
G54D10*
D03*
X228600Y769144D02*
G54D10*
D03*
X228600Y743744D02*
G54D10*
D03*
X228600Y718344D02*
G54D10*
D03*
X184175Y794569D02*
G54D16*
D03*
X184175Y813569D02*
G54D16*
D03*
X130200Y794569D02*
G54D16*
D03*
X130200Y813569D02*
G54D16*
D03*
X104800Y794569D02*
G54D16*
D03*
X104800Y813569D02*
G54D16*
D03*
G54D17*
X588641Y829294D02*
X587441Y827294D01*
X585041Y826294D01*
X582641Y826294D01*
X580241Y827294D01*
X579041Y829294D01*
X579041Y839294D01*
X580241Y841294D01*
X582641Y842294D01*
X585041Y842294D01*
X587441Y841294D01*
X588641Y839294D01*
G54D17*
X600241Y828694D02*
X600241Y832694D01*
X599041Y834694D01*
X596641Y835294D01*
X594241Y834694D01*
X593041Y832694D01*
X593041Y828694D01*
X594241Y826694D01*
X596641Y826294D01*
X599041Y826694D01*
X600241Y828694D01*
G54D17*
X604641Y826294D02*
X604641Y835294D01*
G54D17*
X604641Y833294D02*
X605841Y834694D01*
X608241Y835294D01*
X610641Y834694D01*
X611841Y833294D01*
X611841Y826294D01*
G54D17*
X616241Y827294D02*
X618641Y826294D01*
X621041Y826294D01*
X623441Y827294D01*
X623441Y829294D01*
X622241Y830294D01*
X617441Y831294D01*
X616241Y832294D01*
X616241Y834294D01*
X618641Y835294D01*
X621041Y835294D01*
X623441Y834294D01*
G54D17*
X635041Y828694D02*
X635041Y832694D01*
X633841Y834694D01*
X631441Y835294D01*
X629041Y834694D01*
X627841Y832694D01*
X627841Y828694D01*
X629041Y826694D01*
X631441Y826294D01*
X633841Y826694D01*
X635041Y828694D01*
G54D17*
X639441Y826294D02*
X639441Y842294D01*
G54D17*
X651041Y827294D02*
X649121Y826294D01*
X646721Y826294D01*
X644321Y827294D01*
X643841Y829294D01*
X643841Y832694D01*
X645041Y834694D01*
X647441Y835294D01*
X649841Y834694D01*
X651041Y833294D01*
X651041Y831294D01*
X643841Y831294D01*
X488950Y845344D02*
G54D18*
D03*
X498475Y845344D02*
G54D18*
D03*
X503238Y845344D02*
G54D18*
D03*
X503238Y840581D02*
G54D18*
D03*
X498475Y835819D02*
G54D18*
D03*
X488950Y831056D02*
G54D18*
D03*
X488950Y826294D02*
G54D18*
D03*
X498475Y826294D02*
G54D18*
D03*
X503238Y826294D02*
G54D18*
D03*
X511175Y826294D02*
G54D18*
D03*
X511175Y831056D02*
G54D18*
D03*
X511175Y835819D02*
G54D18*
D03*
X511175Y840581D02*
G54D18*
D03*
X511175Y845344D02*
G54D18*
D03*
X515938Y845344D02*
G54D18*
D03*
X520700Y845344D02*
G54D18*
D03*
X515938Y835819D02*
G54D18*
D03*
X520700Y835819D02*
G54D18*
D03*
X515938Y826294D02*
G54D18*
D03*
X520700Y826294D02*
G54D18*
D03*
X533400Y845344D02*
G54D18*
D03*
X533400Y840581D02*
G54D18*
D03*
X533400Y835819D02*
G54D18*
D03*
X533400Y831056D02*
G54D18*
D03*
X533400Y826294D02*
G54D18*
D03*
X538162Y845344D02*
G54D18*
D03*
X538162Y835819D02*
G54D18*
D03*
X547688Y840581D02*
G54D18*
D03*
X547688Y831056D02*
G54D18*
D03*
X547688Y826294D02*
G54D18*
D03*
X555625Y840581D02*
G54D18*
D03*
X555625Y835819D02*
G54D18*
D03*
X555625Y831056D02*
G54D18*
D03*
X560388Y826294D02*
G54D18*
D03*
X565150Y826294D02*
G54D18*
D03*
X569912Y831056D02*
G54D18*
D03*
X569912Y835819D02*
G54D18*
D03*
X569912Y840581D02*
G54D18*
D03*
X560388Y845344D02*
G54D18*
D03*
X565150Y845344D02*
G54D18*
D03*
G54D19*
X623491Y808038D02*
X623491Y813038D01*
G54D19*
X623491Y811926D02*
X624824Y813038D01*
X626157Y813038D01*
G54D19*
X632602Y808593D02*
X631535Y808038D01*
X630202Y808038D01*
X628868Y808593D01*
X628602Y809704D01*
X628602Y811593D01*
X629268Y812704D01*
X630602Y813038D01*
X631935Y812704D01*
X632602Y811926D01*
X632602Y810815D01*
X628602Y810815D01*
G54D19*
X635046Y813038D02*
X637712Y808038D01*
X640379Y813038D01*
G54D19*
X648156Y808038D02*
X642823Y808038D01*
X642823Y808593D01*
X643489Y809704D01*
X647489Y813038D01*
X648156Y814149D01*
X648156Y815260D01*
X647489Y816371D01*
X646156Y816926D01*
X644823Y816926D01*
X643489Y816371D01*
X642823Y815260D01*
G54D19*
X650600Y808038D02*
X650600Y808038D01*
G54D19*
X653044Y813593D02*
X656377Y816926D01*
X656377Y808038D01*
X149225Y909638D02*
G54D20*
D03*
X177225Y909638D02*
G54D20*
D03*
X555625Y845344D02*
G54D18*
D03*
X569912Y845344D02*
G54D18*
D03*
X569912Y826294D02*
G54D18*
D03*
X555625Y826294D02*
G54D18*
D03*
X493712Y845344D02*
G54D18*
D03*
X493712Y835819D02*
G54D18*
D03*
X493712Y826294D02*
G54D18*
D03*
X525462Y845344D02*
G54D18*
D03*
X525462Y835819D02*
G54D18*
D03*
X525462Y826294D02*
G54D18*
D03*
X542925Y845344D02*
G54D18*
D03*
X542925Y835819D02*
G54D18*
D03*
X355600Y835819D02*
G54D15*
D03*
X374600Y835819D02*
G54D15*
D03*
X479401Y882229D02*
G54D16*
D03*
X479401Y863229D02*
G54D16*
D03*
X479425Y880666D02*
G54D21*
D03*
X479425Y863997D02*
G54D21*
D03*
X29369Y875109D02*
G54D22*
D03*
X37306Y875109D02*
G54D22*
D03*
X37306Y803672D02*
G54D22*
D03*
X29369Y803672D02*
G54D22*
D03*
X71834Y875109D02*
G54D22*
D03*
X63897Y875109D02*
G54D22*
D03*
X71834Y803672D02*
G54D22*
D03*
X63897Y803672D02*
G54D22*
D03*
X67866Y875109D02*
G54D22*
D03*
X67866Y803672D02*
G54D22*
D03*
X33338Y803672D02*
G54D22*
D03*
X33338Y875109D02*
G54D22*
D03*
X63112Y839390D02*
G54D23*
D03*
X63112Y832890D02*
G54D23*
D03*
X63112Y826390D02*
G54D23*
D03*
X63112Y845890D02*
G54D23*
D03*
X63112Y852390D02*
G54D23*
D03*
X71636Y875109D02*
G54D22*
D03*
X71438Y875109D02*
G54D22*
D03*
X71239Y875109D02*
G54D22*
D03*
X71041Y875109D02*
G54D22*
D03*
X70842Y875109D02*
G54D22*
D03*
X70644Y875109D02*
G54D22*
D03*
X70445Y875109D02*
G54D22*
D03*
X70247Y875109D02*
G54D22*
D03*
X70048Y875109D02*
G54D22*
D03*
X69850Y875109D02*
G54D22*
D03*
X69652Y875109D02*
G54D22*
D03*
X69453Y875109D02*
G54D22*
D03*
X69255Y875109D02*
G54D22*
D03*
X69056Y875109D02*
G54D22*
D03*
X68858Y875109D02*
G54D22*
D03*
X68659Y875109D02*
G54D22*
D03*
X68461Y875109D02*
G54D22*
D03*
X68262Y875109D02*
G54D22*
D03*
X68064Y875109D02*
G54D22*
D03*
X67667Y875109D02*
G54D22*
D03*
X67469Y875109D02*
G54D22*
D03*
X67270Y875109D02*
G54D22*
D03*
X67072Y875109D02*
G54D22*
D03*
X66873Y875109D02*
G54D22*
D03*
X66675Y875109D02*
G54D22*
D03*
X66477Y875109D02*
G54D22*
D03*
X66278Y875109D02*
G54D22*
D03*
X66080Y875109D02*
G54D22*
D03*
X65881Y875109D02*
G54D22*
D03*
X65683Y875109D02*
G54D22*
D03*
X65484Y875109D02*
G54D22*
D03*
X64095Y875109D02*
G54D22*
D03*
X64294Y875109D02*
G54D22*
D03*
X64492Y875109D02*
G54D22*
D03*
X64691Y875109D02*
G54D22*
D03*
X64889Y875109D02*
G54D22*
D03*
X65088Y875109D02*
G54D22*
D03*
X71636Y803672D02*
G54D22*
D03*
X71438Y803672D02*
G54D22*
D03*
X71239Y803672D02*
G54D22*
D03*
X71041Y803672D02*
G54D22*
D03*
X70842Y803672D02*
G54D22*
D03*
X70644Y803672D02*
G54D22*
D03*
X70445Y803672D02*
G54D22*
D03*
X70247Y803672D02*
G54D22*
D03*
X70048Y803672D02*
G54D22*
D03*
X69850Y803672D02*
G54D22*
D03*
X69652Y803672D02*
G54D22*
D03*
X69453Y803672D02*
G54D22*
D03*
X69255Y803672D02*
G54D22*
D03*
X69056Y803672D02*
G54D22*
D03*
X68858Y803672D02*
G54D22*
D03*
X68659Y803672D02*
G54D22*
D03*
X68461Y803672D02*
G54D22*
D03*
X68262Y803672D02*
G54D22*
D03*
X64095Y803672D02*
G54D22*
D03*
X64294Y803672D02*
G54D22*
D03*
X64492Y803672D02*
G54D22*
D03*
X64691Y803672D02*
G54D22*
D03*
X64889Y803672D02*
G54D22*
D03*
X65088Y803672D02*
G54D22*
D03*
X65286Y803672D02*
G54D22*
D03*
X65484Y803672D02*
G54D22*
D03*
X65683Y803672D02*
G54D22*
D03*
X65881Y803672D02*
G54D22*
D03*
X66080Y803672D02*
G54D22*
D03*
X66278Y803672D02*
G54D22*
D03*
X66477Y803672D02*
G54D22*
D03*
X66675Y803672D02*
G54D22*
D03*
X66873Y803672D02*
G54D22*
D03*
X66873Y803672D02*
G54D22*
D03*
X67072Y803672D02*
G54D22*
D03*
X67270Y803672D02*
G54D22*
D03*
X67469Y803672D02*
G54D22*
D03*
X37306Y875109D02*
G54D22*
D03*
X29369Y875109D02*
G54D22*
D03*
X33338Y875109D02*
G54D22*
D03*
X37108Y875109D02*
G54D22*
D03*
X36909Y875109D02*
G54D22*
D03*
X36711Y875109D02*
G54D22*
D03*
X36512Y875109D02*
G54D22*
D03*
X36314Y875109D02*
G54D22*
D03*
X36116Y875109D02*
G54D22*
D03*
X35917Y875109D02*
G54D22*
D03*
X35719Y875109D02*
G54D22*
D03*
X35520Y875109D02*
G54D22*
D03*
X35322Y875109D02*
G54D22*
D03*
X35123Y875109D02*
G54D22*
D03*
X34925Y875109D02*
G54D22*
D03*
X34727Y875109D02*
G54D22*
D03*
X34528Y875109D02*
G54D22*
D03*
X34330Y875109D02*
G54D22*
D03*
X34131Y875109D02*
G54D22*
D03*
X33933Y875109D02*
G54D22*
D03*
X33734Y875109D02*
G54D22*
D03*
X33536Y875109D02*
G54D22*
D03*
X33139Y875109D02*
G54D22*
D03*
X32941Y875109D02*
G54D22*
D03*
X32742Y875109D02*
G54D22*
D03*
X32544Y875109D02*
G54D22*
D03*
X32345Y875109D02*
G54D22*
D03*
X32147Y875109D02*
G54D22*
D03*
X31948Y875109D02*
G54D22*
D03*
X31750Y875109D02*
G54D22*
D03*
X31552Y875109D02*
G54D22*
D03*
X31353Y875109D02*
G54D22*
D03*
X31155Y875109D02*
G54D22*
D03*
X30956Y875109D02*
G54D22*
D03*
X29567Y875109D02*
G54D22*
D03*
X29766Y875109D02*
G54D22*
D03*
X29964Y875109D02*
G54D22*
D03*
X30162Y875109D02*
G54D22*
D03*
X30361Y875109D02*
G54D22*
D03*
X30559Y875109D02*
G54D22*
D03*
X37306Y803672D02*
G54D22*
D03*
X29369Y803672D02*
G54D22*
D03*
X33338Y803672D02*
G54D22*
D03*
X37108Y803672D02*
G54D22*
D03*
X36909Y803672D02*
G54D22*
D03*
X36711Y803672D02*
G54D22*
D03*
X36512Y803672D02*
G54D22*
D03*
X36314Y803672D02*
G54D22*
D03*
X36116Y803672D02*
G54D22*
D03*
X35917Y803672D02*
G54D22*
D03*
X35719Y803672D02*
G54D22*
D03*
X35520Y803672D02*
G54D22*
D03*
X35322Y803672D02*
G54D22*
D03*
X35123Y803672D02*
G54D22*
D03*
X34925Y803672D02*
G54D22*
D03*
X34727Y803672D02*
G54D22*
D03*
X34528Y803672D02*
G54D22*
D03*
X34330Y803672D02*
G54D22*
D03*
X34131Y803672D02*
G54D22*
D03*
X33933Y803672D02*
G54D22*
D03*
X33734Y803672D02*
G54D22*
D03*
X29567Y803672D02*
G54D22*
D03*
X29766Y803672D02*
G54D22*
D03*
X29964Y803672D02*
G54D22*
D03*
X30162Y803672D02*
G54D22*
D03*
X30361Y803672D02*
G54D22*
D03*
X30559Y803672D02*
G54D22*
D03*
X30758Y803672D02*
G54D22*
D03*
X30956Y803672D02*
G54D22*
D03*
X31155Y803672D02*
G54D22*
D03*
X31353Y803672D02*
G54D22*
D03*
X31552Y803672D02*
G54D22*
D03*
X31750Y803672D02*
G54D22*
D03*
X31948Y803672D02*
G54D22*
D03*
X32147Y803672D02*
G54D22*
D03*
X32345Y803672D02*
G54D22*
D03*
X32345Y803672D02*
G54D22*
D03*
X32544Y803672D02*
G54D22*
D03*
X32742Y803672D02*
G54D22*
D03*
X32941Y803672D02*
G54D22*
D03*
X30162Y875109D02*
G54D22*
D03*
X30956Y875109D02*
G54D22*
D03*
X31750Y875109D02*
G54D22*
D03*
X32544Y875109D02*
G54D22*
D03*
X33338Y875109D02*
G54D22*
D03*
X34131Y875109D02*
G54D22*
D03*
X34925Y875109D02*
G54D22*
D03*
X35719Y875109D02*
G54D22*
D03*
X36512Y875109D02*
G54D22*
D03*
X64691Y875109D02*
G54D22*
D03*
X65484Y875109D02*
G54D22*
D03*
X66278Y875109D02*
G54D22*
D03*
X67072Y875109D02*
G54D22*
D03*
X67866Y875109D02*
G54D22*
D03*
X68659Y875109D02*
G54D22*
D03*
X69453Y875109D02*
G54D22*
D03*
X70247Y875109D02*
G54D22*
D03*
X71041Y875109D02*
G54D22*
D03*
X71834Y875109D02*
G54D22*
D03*
X37306Y875109D02*
G54D22*
D03*
X29369Y803672D02*
G54D22*
D03*
X30162Y803672D02*
G54D22*
D03*
X30956Y803672D02*
G54D22*
D03*
X31750Y803672D02*
G54D22*
D03*
X32544Y803672D02*
G54D22*
D03*
X33338Y803672D02*
G54D22*
D03*
X34131Y803672D02*
G54D22*
D03*
X34925Y803672D02*
G54D22*
D03*
X35719Y803672D02*
G54D22*
D03*
X36512Y803672D02*
G54D22*
D03*
X37306Y803672D02*
G54D22*
D03*
X63897Y803672D02*
G54D22*
D03*
X64691Y803672D02*
G54D22*
D03*
X65484Y803672D02*
G54D22*
D03*
X66278Y803672D02*
G54D22*
D03*
X67072Y803672D02*
G54D22*
D03*
X67866Y803672D02*
G54D22*
D03*
X68659Y803672D02*
G54D22*
D03*
X69453Y803672D02*
G54D22*
D03*
X70247Y803672D02*
G54D22*
D03*
X71041Y803672D02*
G54D22*
D03*
X71834Y803672D02*
G54D22*
D03*
X29369Y875109D02*
G54D22*
D03*
X37306Y875109D02*
G54D22*
D03*
X63897Y875109D02*
G54D22*
D03*
M02*
