%FSLAX34Y34*%
%MOMM*%
%LNSMDMASK_TOP*%
G71*
G01*
%ADD10R, 0.62X1.52*%
%ADD11R, 0.85X1.26*%
%ADD12R, 1.70X3.40*%
%ADD13R, 0.62X1.98*%
%ADD14R, 1.50X1.60*%
%ADD15R, 1.60X1.50*%
%ADD16R, 0.50X0.50*%
%ADD17R, 1.80X1.80*%
%ADD18R, 1.60X1.60*%
%ADD19R, 1.60X0.60*%
%LPD*%
X291272Y835606D02*
G54D10*
D03*
X284772Y835606D02*
G54D10*
D03*
X278272Y835606D02*
G54D10*
D03*
X271772Y835606D02*
G54D10*
D03*
X265272Y835606D02*
G54D10*
D03*
X258772Y835606D02*
G54D10*
D03*
X252272Y835606D02*
G54D10*
D03*
X245772Y835606D02*
G54D10*
D03*
X239272Y835606D02*
G54D10*
D03*
X232772Y835606D02*
G54D10*
D03*
X226272Y835606D02*
G54D10*
D03*
X219772Y835606D02*
G54D10*
D03*
X213272Y835606D02*
G54D10*
D03*
X206772Y835606D02*
G54D10*
D03*
X291272Y904478D02*
G54D10*
D03*
X284772Y904478D02*
G54D10*
D03*
X278272Y904478D02*
G54D10*
D03*
X271772Y904478D02*
G54D10*
D03*
X265272Y904478D02*
G54D10*
D03*
X258772Y904478D02*
G54D10*
D03*
X252272Y904478D02*
G54D10*
D03*
X245772Y904478D02*
G54D10*
D03*
X239272Y904478D02*
G54D10*
D03*
X232772Y904478D02*
G54D10*
D03*
X226272Y904478D02*
G54D10*
D03*
X219772Y904478D02*
G54D10*
D03*
X213272Y904478D02*
G54D10*
D03*
X206772Y904478D02*
G54D10*
D03*
X291272Y903684D02*
G54D10*
D03*
X284772Y903684D02*
G54D10*
D03*
X278272Y903684D02*
G54D10*
D03*
X271772Y903684D02*
G54D10*
D03*
X265272Y903684D02*
G54D10*
D03*
X258772Y903684D02*
G54D10*
D03*
X252272Y903684D02*
G54D10*
D03*
X245772Y903684D02*
G54D10*
D03*
X239272Y903684D02*
G54D10*
D03*
X232772Y903684D02*
G54D10*
D03*
X226272Y903684D02*
G54D10*
D03*
X219772Y903684D02*
G54D10*
D03*
X213272Y903684D02*
G54D10*
D03*
X206772Y903684D02*
G54D10*
D03*
X291272Y836400D02*
G54D10*
D03*
X284772Y836400D02*
G54D10*
D03*
X278272Y836400D02*
G54D10*
D03*
X271772Y836400D02*
G54D10*
D03*
X265272Y836400D02*
G54D10*
D03*
X258772Y836400D02*
G54D10*
D03*
X252272Y836400D02*
G54D10*
D03*
X245772Y836400D02*
G54D10*
D03*
X239272Y836400D02*
G54D10*
D03*
X232772Y836400D02*
G54D10*
D03*
X226272Y836400D02*
G54D10*
D03*
X219772Y836400D02*
G54D10*
D03*
X213272Y836400D02*
G54D10*
D03*
X206772Y836400D02*
G54D10*
D03*
X291272Y836797D02*
G54D10*
D03*
X284772Y836797D02*
G54D10*
D03*
X278272Y836797D02*
G54D10*
D03*
X271772Y836797D02*
G54D10*
D03*
X265272Y836797D02*
G54D10*
D03*
X258772Y836797D02*
G54D10*
D03*
X252272Y836797D02*
G54D10*
D03*
X245772Y836797D02*
G54D10*
D03*
X239272Y836797D02*
G54D10*
D03*
X232772Y836797D02*
G54D10*
D03*
X226272Y836797D02*
G54D10*
D03*
X219772Y836797D02*
G54D10*
D03*
X213272Y836797D02*
G54D10*
D03*
X206772Y836797D02*
G54D10*
D03*
X291272Y903287D02*
G54D10*
D03*
X284772Y903288D02*
G54D10*
D03*
X278272Y903288D02*
G54D10*
D03*
X271772Y903288D02*
G54D10*
D03*
X265272Y903288D02*
G54D10*
D03*
X258772Y903288D02*
G54D10*
D03*
X252272Y903288D02*
G54D10*
D03*
X245772Y903287D02*
G54D10*
D03*
X239272Y903288D02*
G54D10*
D03*
X232772Y903288D02*
G54D10*
D03*
X226272Y903288D02*
G54D10*
D03*
X219772Y903288D02*
G54D10*
D03*
X213272Y903288D02*
G54D10*
D03*
X206772Y903288D02*
G54D10*
D03*
X164306Y886420D02*
G54D11*
D03*
X183356Y886420D02*
G54D11*
D03*
X164306Y864394D02*
G54D11*
D03*
X173831Y864394D02*
G54D11*
D03*
X183356Y864394D02*
G54D11*
D03*
X141288Y875506D02*
G54D12*
D03*
X99219Y875506D02*
G54D12*
D03*
X407988Y902494D02*
G54D13*
D03*
X414487Y902494D02*
G54D13*
D03*
X407591Y843147D02*
G54D13*
D03*
X414091Y843147D02*
G54D13*
D03*
X420591Y843147D02*
G54D13*
D03*
X427091Y843147D02*
G54D13*
D03*
X420988Y902494D02*
G54D13*
D03*
X427488Y902494D02*
G54D13*
D03*
X193675Y743744D02*
G54D14*
D03*
X174675Y743744D02*
G54D14*
D03*
X193675Y711994D02*
G54D14*
D03*
X174675Y711994D02*
G54D14*
D03*
X146050Y711994D02*
G54D14*
D03*
X127050Y711994D02*
G54D14*
D03*
X146050Y743744D02*
G54D14*
D03*
X127050Y743744D02*
G54D14*
D03*
X317475Y885006D02*
G54D15*
D03*
X317475Y866006D02*
G54D15*
D03*
X346050Y885006D02*
G54D15*
D03*
X346050Y866006D02*
G54D15*
D03*
X374625Y885006D02*
G54D15*
D03*
X374625Y866006D02*
G54D15*
D03*
X449238Y882229D02*
G54D15*
D03*
X449238Y863229D02*
G54D15*
D03*
X184175Y794569D02*
G54D15*
D03*
X184175Y813569D02*
G54D15*
D03*
X130200Y794569D02*
G54D15*
D03*
X130200Y813569D02*
G54D15*
D03*
X104800Y794569D02*
G54D15*
D03*
X104800Y813569D02*
G54D15*
D03*
X488950Y845344D02*
G54D16*
D03*
X498475Y845344D02*
G54D16*
D03*
X503238Y845344D02*
G54D16*
D03*
X503238Y840581D02*
G54D16*
D03*
X498475Y835819D02*
G54D16*
D03*
X488950Y831056D02*
G54D16*
D03*
X488950Y826294D02*
G54D16*
D03*
X498475Y826294D02*
G54D16*
D03*
X503238Y826294D02*
G54D16*
D03*
X511175Y826294D02*
G54D16*
D03*
X511175Y831056D02*
G54D16*
D03*
X511175Y835819D02*
G54D16*
D03*
X511175Y840581D02*
G54D16*
D03*
X511175Y845344D02*
G54D16*
D03*
X515938Y845344D02*
G54D16*
D03*
X520700Y845344D02*
G54D16*
D03*
X515938Y835819D02*
G54D16*
D03*
X520700Y835819D02*
G54D16*
D03*
X515938Y826294D02*
G54D16*
D03*
X520700Y826294D02*
G54D16*
D03*
X533400Y845344D02*
G54D16*
D03*
X533400Y840581D02*
G54D16*
D03*
X533400Y835819D02*
G54D16*
D03*
X533400Y831056D02*
G54D16*
D03*
X533400Y826294D02*
G54D16*
D03*
X538162Y845344D02*
G54D16*
D03*
X538162Y835819D02*
G54D16*
D03*
X547688Y840581D02*
G54D16*
D03*
X547688Y831056D02*
G54D16*
D03*
X547688Y826294D02*
G54D16*
D03*
X555625Y840581D02*
G54D16*
D03*
X555625Y835819D02*
G54D16*
D03*
X555625Y831056D02*
G54D16*
D03*
X560388Y826294D02*
G54D16*
D03*
X565150Y826294D02*
G54D16*
D03*
X569912Y831056D02*
G54D16*
D03*
X569912Y835819D02*
G54D16*
D03*
X569912Y840581D02*
G54D16*
D03*
X560388Y845344D02*
G54D16*
D03*
X565150Y845344D02*
G54D16*
D03*
X149225Y909638D02*
G54D17*
D03*
X177225Y909638D02*
G54D17*
D03*
X555625Y845344D02*
G54D16*
D03*
X569912Y845344D02*
G54D16*
D03*
X569912Y826294D02*
G54D16*
D03*
X555625Y826294D02*
G54D16*
D03*
X493712Y845344D02*
G54D16*
D03*
X493712Y835819D02*
G54D16*
D03*
X493712Y826294D02*
G54D16*
D03*
X525462Y845344D02*
G54D16*
D03*
X525462Y835819D02*
G54D16*
D03*
X525462Y826294D02*
G54D16*
D03*
X542925Y845344D02*
G54D16*
D03*
X542925Y835819D02*
G54D16*
D03*
X355600Y835819D02*
G54D14*
D03*
X374600Y835819D02*
G54D14*
D03*
X479401Y882229D02*
G54D15*
D03*
X479401Y863229D02*
G54D15*
D03*
X479425Y880666D02*
G54D18*
D03*
X479425Y863997D02*
G54D18*
D03*
X63112Y839390D02*
G54D19*
D03*
X63112Y832890D02*
G54D19*
D03*
X63112Y826390D02*
G54D19*
D03*
X63112Y845890D02*
G54D19*
D03*
X63112Y852390D02*
G54D19*
D03*
M02*
