; Drill file
; Format: 2.4 (00.0000)
M48
INCH
T01C0.0118
T02C0.0177
T03C0.0264
T04C0.0315
T05C0.1083
%
G05
G90
T01
X003340Y032540
X003340Y032800
X003340Y033050
X003340Y033300
X003340Y033560
X005500Y032780
X006250Y032780
X005130Y032030
X008660Y033610
X010700Y034870
T02
X001160Y031640
X001190Y031640
X001220Y031640
X001250Y031640
X001280Y031640
X001310Y031640
X001340Y031640
X001380Y031640
X001410Y031640
X001440Y031640
X001470Y031640
X002520Y031640
X002550Y031640
X002580Y031640
X002610Y031640
X002640Y031640
X002670Y031640
X002700Y031640
X002730Y031640
X002770Y031640
X002800Y031640
X002830Y031640
X002830Y034450
X002800Y034450
X002770Y034450
X002730Y034450
X002700Y034450
X002670Y034450
X002640Y034450
X002610Y034450
X002580Y034450
X002550Y034450
X002520Y034450
X001470Y034450
X001440Y034450
X001410Y034450
X001380Y034450
X001340Y034450
X001310Y034450
X001280Y034450
X001250Y034450
X001220Y034450
X001190Y034450
X001160Y034450
T03
X002150Y032260
X002150Y033840
T04
X009000Y028280
X009000Y029280
X009000Y030280
X009000Y031280
X008840Y037060
X009840Y037060
X009840Y038060
X008840Y038060
X007840Y038060
X006840Y038060
X006840Y037060
X007840Y037060
X005840Y037060
X005840Y038060
X004840Y038060
X003840Y038060
X003840Y037060
X004840Y037060
X010840Y037060
X011840Y037060
X012840Y037060
X012840Y038060
X011840Y038060
X010840Y038060
X013840Y038060
X014840Y038060
X015840Y038060
X016840Y038060
X017840Y038060
X017840Y037060
X018840Y037060
X019840Y037060
X019840Y038060
X018840Y038060
X020840Y038060
X021840Y038060
X022840Y038060
X022840Y037060
X021840Y037060
X020840Y037060
X016840Y037060
X015840Y037060
X014840Y037060
X013840Y037060
T05
X001920Y028530
X001920Y037560
X024730Y037560
X024730Y028530
M30
