; Drill file
; Format: 2.4 (00.0000)
M48
INCH
T01C0.0118
T02C0.0177
T03C0.0264
T04C0.0315
T05C0.1083
%
G05
G90
T01
X003340Y008910
X003340Y009170
X003340Y009420
X003340Y009680
X003340Y009940
X005500Y009160
X006250Y009160
X005130Y008410
X008660Y009980
X010700Y011240
X005130Y020220
X005500Y020970
X006250Y020970
X008660Y021800
X010700Y023050
X003340Y021750
X003340Y021490
X003340Y021230
X003340Y020980
X003340Y020730
X005130Y032030
X005500Y032780
X006250Y032780
X008660Y033610
X010700Y034870
X003340Y033560
X003340Y033300
X003340Y033050
X003340Y032800
X003340Y032540
T02
X000830Y008020
X000860Y008020
X000890Y008020
X000920Y008020
X000950Y008020
X000980Y008020
X001020Y008020
X001050Y008020
X001080Y008020
X001110Y008020
X001140Y008020
X002190Y008020
X002220Y008020
X002250Y008020
X002280Y008020
X002310Y008020
X002340Y008020
X002370Y008020
X002410Y008020
X002440Y008020
X002470Y008020
X002500Y008020
X002500Y010830
X002470Y010830
X002440Y010830
X002410Y010830
X002370Y010830
X002340Y010830
X002310Y010830
X002280Y010830
X002250Y010830
X002220Y010830
X002190Y010830
X001140Y010830
X001110Y010830
X001080Y010830
X001050Y010830
X001020Y010830
X000980Y010830
X000950Y010830
X000920Y010830
X000890Y010830
X000860Y010830
X000830Y010830
X000830Y019830
X000860Y019830
X000890Y019830
X000920Y019830
X000950Y019830
X000980Y019830
X001020Y019830
X001050Y019830
X001080Y019830
X001110Y019830
X001140Y019830
X002190Y019830
X002220Y019830
X002250Y019830
X002280Y019830
X002310Y019830
X002340Y019830
X002370Y019830
X002410Y019830
X002440Y019830
X002470Y019830
X002500Y019830
X002500Y022640
X002470Y022640
X002440Y022640
X002410Y022640
X002370Y022640
X002340Y022640
X002310Y022640
X002280Y022640
X002250Y022640
X002220Y022640
X002190Y022640
X001140Y022640
X001110Y022640
X001080Y022640
X001050Y022640
X001020Y022640
X000980Y022640
X000950Y022640
X000920Y022640
X000890Y022640
X000860Y022640
X000830Y022640
X000830Y031640
X000860Y031640
X000890Y031640
X000920Y031640
X000950Y031640
X000980Y031640
X001020Y031640
X001050Y031640
X001080Y031640
X001110Y031640
X001140Y031640
X002190Y031640
X002220Y031640
X002250Y031640
X002280Y031640
X002310Y031640
X002340Y031640
X002370Y031640
X002410Y031640
X002440Y031640
X002470Y031640
X002500Y031640
X002500Y034450
X002470Y034450
X002440Y034450
X002410Y034450
X002370Y034450
X002340Y034450
X002310Y034450
X002280Y034450
X002250Y034450
X002220Y034450
X002190Y034450
X001140Y034450
X001110Y034450
X001080Y034450
X001050Y034450
X001020Y034450
X000980Y034450
X000950Y034450
X000920Y034450
X000890Y034450
X000860Y034450
X000830Y034450
T03
X001820Y008630
X001820Y010210
X001820Y020450
X001820Y022020
X001820Y032260
X001820Y033840
T04
X009000Y004660
X009000Y005660
X009000Y006660
X009000Y007660
X008840Y013440
X009840Y013440
X009840Y014440
X008840Y014440
X007840Y014440
X006840Y014440
X006840Y013440
X007840Y013440
X005840Y013440
X005840Y014440
X004840Y014440
X003840Y014440
X003840Y013440
X004840Y013440
X009000Y016470
X009000Y017470
X009000Y018470
X009000Y019470
X010840Y014440
X011840Y014440
X012840Y014440
X012840Y013440
X013840Y013440
X014840Y013440
X015840Y013440
X016840Y013440
X017840Y013440
X017840Y014440
X016840Y014440
X015840Y014440
X014840Y014440
X013840Y014440
X011840Y013440
X010840Y013440
X018840Y013440
X019840Y013440
X019840Y014440
X018840Y014440
X020840Y014440
X021840Y014440
X022840Y014440
X022840Y013440
X021840Y013440
X020840Y013440
X020840Y025250
X021840Y025250
X022840Y025250
X022840Y026250
X021840Y026250
X020840Y026250
X019840Y026250
X019840Y025250
X018840Y025250
X018840Y026250
X017840Y026250
X017840Y025250
X016840Y025250
X016840Y026250
X015840Y026250
X014840Y026250
X014840Y025250
X015840Y025250
X013840Y025250
X013840Y026250
X012840Y026250
X012840Y025250
X011840Y025250
X011840Y026250
X010840Y026250
X010840Y025250
X009840Y025250
X009840Y026250
X008840Y026250
X008840Y025250
X007840Y025250
X006840Y025250
X006840Y026250
X007840Y026250
X005840Y026250
X005840Y025250
X004840Y025250
X004840Y026250
X003840Y026250
X003840Y025250
X009000Y028280
X009000Y029280
X009000Y030280
X009000Y031280
X008840Y037060
X009840Y037060
X009840Y038060
X008840Y038060
X007840Y038060
X006840Y038060
X006840Y037060
X007840Y037060
X005840Y037060
X005840Y038060
X004840Y038060
X003840Y038060
X003840Y037060
X004840Y037060
X010840Y037060
X011840Y037060
X012840Y037060
X012840Y038060
X011840Y038060
X010840Y038060
X013840Y038060
X014840Y038060
X015840Y038060
X016840Y038060
X017840Y038060
X017840Y037060
X018840Y037060
X019840Y037060
X019840Y038060
X018840Y038060
X020840Y038060
X021840Y038060
X022840Y038060
X022840Y037060
X021840Y037060
X020840Y037060
X016840Y037060
X015840Y037060
X014840Y037060
X013840Y037060
T05
X001920Y004910
X001920Y013940
X001920Y016720
X001920Y025750
X001920Y028530
X001920Y037560
X024730Y037560
X024730Y028530
X024730Y025750
X024730Y016720
X024730Y013940
X024730Y004910
M30
