%FSLAX34Y34*%
%MOMM*%
%LNSMDMASK_TOP*%
G71*
G01*
%ADD10C, 0.00*%
%ADD11R, 0.62X1.52*%
%ADD12R, 0.85X1.26*%
%ADD13R, 1.70X3.40*%
%ADD14R, 0.62X1.98*%
%ADD15R, 1.50X1.60*%
%ADD16R, 1.60X1.50*%
%ADD17R, 0.50X0.50*%
%ADD18R, 1.80X1.80*%
%ADD19R, 1.60X1.60*%
%ADD20R, 1.60X0.60*%
%LPD*%
G54D10*
X0Y1000000D02*
X680000Y1000000D01*
X680000Y70000D01*
X0Y70000D01*
X0Y1000000D01*
X291272Y835606D02*
G54D11*
D03*
X284772Y835606D02*
G54D11*
D03*
X278272Y835606D02*
G54D11*
D03*
X271772Y835606D02*
G54D11*
D03*
X265272Y835606D02*
G54D11*
D03*
X258772Y835606D02*
G54D11*
D03*
X252272Y835606D02*
G54D11*
D03*
X245772Y835606D02*
G54D11*
D03*
X239272Y835606D02*
G54D11*
D03*
X232772Y835606D02*
G54D11*
D03*
X226272Y835606D02*
G54D11*
D03*
X219772Y835606D02*
G54D11*
D03*
X213272Y835606D02*
G54D11*
D03*
X206772Y835606D02*
G54D11*
D03*
X291272Y904478D02*
G54D11*
D03*
X284772Y904478D02*
G54D11*
D03*
X278272Y904478D02*
G54D11*
D03*
X271772Y904478D02*
G54D11*
D03*
X265272Y904478D02*
G54D11*
D03*
X258772Y904478D02*
G54D11*
D03*
X252272Y904478D02*
G54D11*
D03*
X245772Y904478D02*
G54D11*
D03*
X239272Y904478D02*
G54D11*
D03*
X232772Y904478D02*
G54D11*
D03*
X226272Y904478D02*
G54D11*
D03*
X219772Y904478D02*
G54D11*
D03*
X213272Y904478D02*
G54D11*
D03*
X206772Y904478D02*
G54D11*
D03*
X291272Y903684D02*
G54D11*
D03*
X284772Y903684D02*
G54D11*
D03*
X278272Y903684D02*
G54D11*
D03*
X271772Y903684D02*
G54D11*
D03*
X265272Y903684D02*
G54D11*
D03*
X258772Y903684D02*
G54D11*
D03*
X252272Y903684D02*
G54D11*
D03*
X245772Y903684D02*
G54D11*
D03*
X239272Y903684D02*
G54D11*
D03*
X232772Y903684D02*
G54D11*
D03*
X226272Y903684D02*
G54D11*
D03*
X219772Y903684D02*
G54D11*
D03*
X213272Y903684D02*
G54D11*
D03*
X206772Y903684D02*
G54D11*
D03*
X291272Y836400D02*
G54D11*
D03*
X284772Y836400D02*
G54D11*
D03*
X278272Y836400D02*
G54D11*
D03*
X271772Y836400D02*
G54D11*
D03*
X265272Y836400D02*
G54D11*
D03*
X258772Y836400D02*
G54D11*
D03*
X252272Y836400D02*
G54D11*
D03*
X245772Y836400D02*
G54D11*
D03*
X239272Y836400D02*
G54D11*
D03*
X232772Y836400D02*
G54D11*
D03*
X226272Y836400D02*
G54D11*
D03*
X219772Y836400D02*
G54D11*
D03*
X213272Y836400D02*
G54D11*
D03*
X206772Y836400D02*
G54D11*
D03*
X291272Y836797D02*
G54D11*
D03*
X284772Y836797D02*
G54D11*
D03*
X278272Y836797D02*
G54D11*
D03*
X271772Y836797D02*
G54D11*
D03*
X265272Y836797D02*
G54D11*
D03*
X258772Y836797D02*
G54D11*
D03*
X252272Y836797D02*
G54D11*
D03*
X245772Y836797D02*
G54D11*
D03*
X239272Y836797D02*
G54D11*
D03*
X232772Y836797D02*
G54D11*
D03*
X226272Y836797D02*
G54D11*
D03*
X219772Y836797D02*
G54D11*
D03*
X213272Y836797D02*
G54D11*
D03*
X206772Y836797D02*
G54D11*
D03*
X291272Y903287D02*
G54D11*
D03*
X284772Y903288D02*
G54D11*
D03*
X278272Y903288D02*
G54D11*
D03*
X271772Y903288D02*
G54D11*
D03*
X265272Y903288D02*
G54D11*
D03*
X258772Y903288D02*
G54D11*
D03*
X252272Y903288D02*
G54D11*
D03*
X245772Y903287D02*
G54D11*
D03*
X239272Y903288D02*
G54D11*
D03*
X232772Y903288D02*
G54D11*
D03*
X226272Y903288D02*
G54D11*
D03*
X219772Y903288D02*
G54D11*
D03*
X213272Y903288D02*
G54D11*
D03*
X206772Y903288D02*
G54D11*
D03*
X164306Y886420D02*
G54D12*
D03*
X183356Y886420D02*
G54D12*
D03*
X164306Y864394D02*
G54D12*
D03*
X173831Y864394D02*
G54D12*
D03*
X183356Y864394D02*
G54D12*
D03*
X141288Y875506D02*
G54D13*
D03*
X99219Y875506D02*
G54D13*
D03*
X407988Y902494D02*
G54D14*
D03*
X414487Y902494D02*
G54D14*
D03*
X407591Y843147D02*
G54D14*
D03*
X414091Y843147D02*
G54D14*
D03*
X420591Y843147D02*
G54D14*
D03*
X427091Y843147D02*
G54D14*
D03*
X420988Y902494D02*
G54D14*
D03*
X427488Y902494D02*
G54D14*
D03*
X193675Y743744D02*
G54D15*
D03*
X174675Y743744D02*
G54D15*
D03*
X193675Y711994D02*
G54D15*
D03*
X174675Y711994D02*
G54D15*
D03*
X146050Y711994D02*
G54D15*
D03*
X127050Y711994D02*
G54D15*
D03*
X146050Y743744D02*
G54D15*
D03*
X127050Y743744D02*
G54D15*
D03*
X317475Y885006D02*
G54D16*
D03*
X317475Y866006D02*
G54D16*
D03*
X346050Y885006D02*
G54D16*
D03*
X346050Y866006D02*
G54D16*
D03*
X374625Y885006D02*
G54D16*
D03*
X374625Y866006D02*
G54D16*
D03*
X449238Y882229D02*
G54D16*
D03*
X449238Y863229D02*
G54D16*
D03*
X184175Y794569D02*
G54D16*
D03*
X184175Y813569D02*
G54D16*
D03*
X130200Y794569D02*
G54D16*
D03*
X130200Y813569D02*
G54D16*
D03*
X104800Y794569D02*
G54D16*
D03*
X104800Y813569D02*
G54D16*
D03*
X488950Y845344D02*
G54D17*
D03*
X498475Y845344D02*
G54D17*
D03*
X503238Y845344D02*
G54D17*
D03*
X503238Y840581D02*
G54D17*
D03*
X498475Y835819D02*
G54D17*
D03*
X488950Y831056D02*
G54D17*
D03*
X488950Y826294D02*
G54D17*
D03*
X498475Y826294D02*
G54D17*
D03*
X503238Y826294D02*
G54D17*
D03*
X511175Y826294D02*
G54D17*
D03*
X511175Y831056D02*
G54D17*
D03*
X511175Y835819D02*
G54D17*
D03*
X511175Y840581D02*
G54D17*
D03*
X511175Y845344D02*
G54D17*
D03*
X515938Y845344D02*
G54D17*
D03*
X520700Y845344D02*
G54D17*
D03*
X515938Y835819D02*
G54D17*
D03*
X520700Y835819D02*
G54D17*
D03*
X515938Y826294D02*
G54D17*
D03*
X520700Y826294D02*
G54D17*
D03*
X533400Y845344D02*
G54D17*
D03*
X533400Y840581D02*
G54D17*
D03*
X533400Y835819D02*
G54D17*
D03*
X533400Y831056D02*
G54D17*
D03*
X533400Y826294D02*
G54D17*
D03*
X538162Y845344D02*
G54D17*
D03*
X538162Y835819D02*
G54D17*
D03*
X547688Y840581D02*
G54D17*
D03*
X547688Y831056D02*
G54D17*
D03*
X547688Y826294D02*
G54D17*
D03*
X555625Y840581D02*
G54D17*
D03*
X555625Y835819D02*
G54D17*
D03*
X555625Y831056D02*
G54D17*
D03*
X560388Y826294D02*
G54D17*
D03*
X565150Y826294D02*
G54D17*
D03*
X569912Y831056D02*
G54D17*
D03*
X569912Y835819D02*
G54D17*
D03*
X569912Y840581D02*
G54D17*
D03*
X560388Y845344D02*
G54D17*
D03*
X565150Y845344D02*
G54D17*
D03*
X149225Y909638D02*
G54D18*
D03*
X177225Y909638D02*
G54D18*
D03*
X555625Y845344D02*
G54D17*
D03*
X569912Y845344D02*
G54D17*
D03*
X569912Y826294D02*
G54D17*
D03*
X555625Y826294D02*
G54D17*
D03*
X493712Y845344D02*
G54D17*
D03*
X493712Y835819D02*
G54D17*
D03*
X493712Y826294D02*
G54D17*
D03*
X525462Y845344D02*
G54D17*
D03*
X525462Y835819D02*
G54D17*
D03*
X525462Y826294D02*
G54D17*
D03*
X542925Y845344D02*
G54D17*
D03*
X542925Y835819D02*
G54D17*
D03*
X355600Y835819D02*
G54D15*
D03*
X374600Y835819D02*
G54D15*
D03*
X479401Y882229D02*
G54D16*
D03*
X479401Y863229D02*
G54D16*
D03*
X479425Y880666D02*
G54D19*
D03*
X479425Y863997D02*
G54D19*
D03*
X54777Y839390D02*
G54D20*
D03*
X54777Y832890D02*
G54D20*
D03*
X54777Y826390D02*
G54D20*
D03*
X54777Y845890D02*
G54D20*
D03*
X54777Y852390D02*
G54D20*
D03*
X291272Y535569D02*
G54D11*
D03*
X284772Y535569D02*
G54D11*
D03*
X278272Y535569D02*
G54D11*
D03*
X271772Y535569D02*
G54D11*
D03*
X265272Y535569D02*
G54D11*
D03*
X258772Y535569D02*
G54D11*
D03*
X252272Y535569D02*
G54D11*
D03*
X245772Y535569D02*
G54D11*
D03*
X239272Y535569D02*
G54D11*
D03*
X232772Y535569D02*
G54D11*
D03*
X226272Y535569D02*
G54D11*
D03*
X219772Y535569D02*
G54D11*
D03*
X213272Y535569D02*
G54D11*
D03*
X206772Y535569D02*
G54D11*
D03*
X291272Y604441D02*
G54D11*
D03*
X284772Y604441D02*
G54D11*
D03*
X278272Y604440D02*
G54D11*
D03*
X271772Y604440D02*
G54D11*
D03*
X265272Y604440D02*
G54D11*
D03*
X258772Y604440D02*
G54D11*
D03*
X252272Y604440D02*
G54D11*
D03*
X245772Y604440D02*
G54D11*
D03*
X239272Y604440D02*
G54D11*
D03*
X232772Y604440D02*
G54D11*
D03*
X226272Y604440D02*
G54D11*
D03*
X219772Y604440D02*
G54D11*
D03*
X213272Y604440D02*
G54D11*
D03*
X206772Y604440D02*
G54D11*
D03*
X291272Y603647D02*
G54D11*
D03*
X284772Y603647D02*
G54D11*
D03*
X278272Y603647D02*
G54D11*
D03*
X271772Y603647D02*
G54D11*
D03*
X265272Y603647D02*
G54D11*
D03*
X258772Y603647D02*
G54D11*
D03*
X252272Y603647D02*
G54D11*
D03*
X245772Y603647D02*
G54D11*
D03*
X239272Y603647D02*
G54D11*
D03*
X232772Y603647D02*
G54D11*
D03*
X226272Y603647D02*
G54D11*
D03*
X219772Y603647D02*
G54D11*
D03*
X213272Y603647D02*
G54D11*
D03*
X206772Y603647D02*
G54D11*
D03*
X291272Y536362D02*
G54D11*
D03*
X284772Y536362D02*
G54D11*
D03*
X278272Y536362D02*
G54D11*
D03*
X271772Y536362D02*
G54D11*
D03*
X265272Y536362D02*
G54D11*
D03*
X258772Y536363D02*
G54D11*
D03*
X252272Y536363D02*
G54D11*
D03*
X245772Y536362D02*
G54D11*
D03*
X239272Y536362D02*
G54D11*
D03*
X232772Y536362D02*
G54D11*
D03*
X226272Y536362D02*
G54D11*
D03*
X219772Y536362D02*
G54D11*
D03*
X213272Y536362D02*
G54D11*
D03*
X206772Y536362D02*
G54D11*
D03*
X291272Y536759D02*
G54D11*
D03*
X284772Y536759D02*
G54D11*
D03*
X278272Y536759D02*
G54D11*
D03*
X271772Y536759D02*
G54D11*
D03*
X265272Y536759D02*
G54D11*
D03*
X258772Y536759D02*
G54D11*
D03*
X252272Y536759D02*
G54D11*
D03*
X245772Y536759D02*
G54D11*
D03*
X239272Y536759D02*
G54D11*
D03*
X232772Y536759D02*
G54D11*
D03*
X226272Y536759D02*
G54D11*
D03*
X219772Y536759D02*
G54D11*
D03*
X213272Y536759D02*
G54D11*
D03*
X206772Y536759D02*
G54D11*
D03*
X291272Y603250D02*
G54D11*
D03*
X284772Y603250D02*
G54D11*
D03*
X278272Y603250D02*
G54D11*
D03*
X271772Y603250D02*
G54D11*
D03*
X265272Y603250D02*
G54D11*
D03*
X258772Y603250D02*
G54D11*
D03*
X252272Y603250D02*
G54D11*
D03*
X245772Y603250D02*
G54D11*
D03*
X239272Y603250D02*
G54D11*
D03*
X232772Y603250D02*
G54D11*
D03*
X226272Y603250D02*
G54D11*
D03*
X219772Y603250D02*
G54D11*
D03*
X213272Y603250D02*
G54D11*
D03*
X206772Y603250D02*
G54D11*
D03*
X164306Y586383D02*
G54D12*
D03*
X183356Y586383D02*
G54D12*
D03*
X164306Y564356D02*
G54D12*
D03*
X173831Y564356D02*
G54D12*
D03*
X183356Y564356D02*
G54D12*
D03*
X141288Y575469D02*
G54D13*
D03*
X99219Y575469D02*
G54D13*
D03*
X407988Y602456D02*
G54D14*
D03*
X414487Y602456D02*
G54D14*
D03*
X407591Y543109D02*
G54D14*
D03*
X414091Y543109D02*
G54D14*
D03*
X420591Y543109D02*
G54D14*
D03*
X427091Y543109D02*
G54D14*
D03*
X420988Y602456D02*
G54D14*
D03*
X427488Y602456D02*
G54D14*
D03*
X193675Y443706D02*
G54D15*
D03*
X174675Y443706D02*
G54D15*
D03*
X193675Y411956D02*
G54D15*
D03*
X174675Y411956D02*
G54D15*
D03*
X146050Y411956D02*
G54D15*
D03*
X127050Y411956D02*
G54D15*
D03*
X146050Y443706D02*
G54D15*
D03*
X127050Y443706D02*
G54D15*
D03*
X317475Y584969D02*
G54D16*
D03*
X317475Y565969D02*
G54D16*
D03*
X346050Y584969D02*
G54D16*
D03*
X346050Y565969D02*
G54D16*
D03*
X374625Y584969D02*
G54D16*
D03*
X374625Y565969D02*
G54D16*
D03*
X449238Y582192D02*
G54D16*
D03*
X449238Y563192D02*
G54D16*
D03*
X184175Y494531D02*
G54D16*
D03*
X184175Y513531D02*
G54D16*
D03*
X130200Y494531D02*
G54D16*
D03*
X130200Y513531D02*
G54D16*
D03*
X104800Y494531D02*
G54D16*
D03*
X104800Y513531D02*
G54D16*
D03*
X488950Y545306D02*
G54D17*
D03*
X498475Y545306D02*
G54D17*
D03*
X503238Y545306D02*
G54D17*
D03*
X503238Y540544D02*
G54D17*
D03*
X498475Y535781D02*
G54D17*
D03*
X488950Y531019D02*
G54D17*
D03*
X488950Y526256D02*
G54D17*
D03*
X498475Y526256D02*
G54D17*
D03*
X503238Y526256D02*
G54D17*
D03*
X511175Y526256D02*
G54D17*
D03*
X511175Y531019D02*
G54D17*
D03*
X511175Y535781D02*
G54D17*
D03*
X511175Y540544D02*
G54D17*
D03*
X511175Y545306D02*
G54D17*
D03*
X515938Y545306D02*
G54D17*
D03*
X520700Y545306D02*
G54D17*
D03*
X515938Y535781D02*
G54D17*
D03*
X520700Y535781D02*
G54D17*
D03*
X515938Y526256D02*
G54D17*
D03*
X520700Y526256D02*
G54D17*
D03*
X533400Y545306D02*
G54D17*
D03*
X533400Y540544D02*
G54D17*
D03*
X533400Y535781D02*
G54D17*
D03*
X533400Y531019D02*
G54D17*
D03*
X533400Y526256D02*
G54D17*
D03*
X538162Y545306D02*
G54D17*
D03*
X538162Y535781D02*
G54D17*
D03*
X547688Y540544D02*
G54D17*
D03*
X547688Y531019D02*
G54D17*
D03*
X547688Y526256D02*
G54D17*
D03*
X555625Y540544D02*
G54D17*
D03*
X555625Y535781D02*
G54D17*
D03*
X555625Y531019D02*
G54D17*
D03*
X560388Y526256D02*
G54D17*
D03*
X565150Y526256D02*
G54D17*
D03*
X569912Y531019D02*
G54D17*
D03*
X569912Y535781D02*
G54D17*
D03*
X569912Y540544D02*
G54D17*
D03*
X560388Y545306D02*
G54D17*
D03*
X565150Y545306D02*
G54D17*
D03*
X149225Y609600D02*
G54D18*
D03*
X177225Y609600D02*
G54D18*
D03*
X555625Y545306D02*
G54D17*
D03*
X569912Y545306D02*
G54D17*
D03*
X569912Y526256D02*
G54D17*
D03*
X555625Y526256D02*
G54D17*
D03*
X493712Y545306D02*
G54D17*
D03*
X493712Y535781D02*
G54D17*
D03*
X493712Y526256D02*
G54D17*
D03*
X525462Y545306D02*
G54D17*
D03*
X525462Y535781D02*
G54D17*
D03*
X525462Y526256D02*
G54D17*
D03*
X542925Y545306D02*
G54D17*
D03*
X542925Y535781D02*
G54D17*
D03*
X355600Y535781D02*
G54D15*
D03*
X374600Y535781D02*
G54D15*
D03*
X479401Y582192D02*
G54D16*
D03*
X479401Y563192D02*
G54D16*
D03*
X479425Y580628D02*
G54D19*
D03*
X479425Y563959D02*
G54D19*
D03*
X54777Y539353D02*
G54D20*
D03*
X54777Y532853D02*
G54D20*
D03*
X54777Y526353D02*
G54D20*
D03*
X54777Y545853D02*
G54D20*
D03*
X54777Y552353D02*
G54D20*
D03*
X291272Y235531D02*
G54D11*
D03*
X284772Y235531D02*
G54D11*
D03*
X278272Y235531D02*
G54D11*
D03*
X271772Y235531D02*
G54D11*
D03*
X265272Y235531D02*
G54D11*
D03*
X258772Y235531D02*
G54D11*
D03*
X252272Y235531D02*
G54D11*
D03*
X245772Y235531D02*
G54D11*
D03*
X239272Y235531D02*
G54D11*
D03*
X232772Y235531D02*
G54D11*
D03*
X226272Y235531D02*
G54D11*
D03*
X219772Y235531D02*
G54D11*
D03*
X213272Y235531D02*
G54D11*
D03*
X206772Y235531D02*
G54D11*
D03*
X291272Y304403D02*
G54D11*
D03*
X284772Y304403D02*
G54D11*
D03*
X278272Y304403D02*
G54D11*
D03*
X271772Y304403D02*
G54D11*
D03*
X265272Y304403D02*
G54D11*
D03*
X258772Y304403D02*
G54D11*
D03*
X252272Y304403D02*
G54D11*
D03*
X245772Y304403D02*
G54D11*
D03*
X239272Y304403D02*
G54D11*
D03*
X232772Y304403D02*
G54D11*
D03*
X226272Y304403D02*
G54D11*
D03*
X219772Y304403D02*
G54D11*
D03*
X213272Y304403D02*
G54D11*
D03*
X206772Y304403D02*
G54D11*
D03*
X291272Y303609D02*
G54D11*
D03*
X284772Y303609D02*
G54D11*
D03*
X278272Y303609D02*
G54D11*
D03*
X271772Y303609D02*
G54D11*
D03*
X265272Y303609D02*
G54D11*
D03*
X258772Y303609D02*
G54D11*
D03*
X252272Y303609D02*
G54D11*
D03*
X245772Y303609D02*
G54D11*
D03*
X239272Y303609D02*
G54D11*
D03*
X232772Y303609D02*
G54D11*
D03*
X226272Y303609D02*
G54D11*
D03*
X219772Y303609D02*
G54D11*
D03*
X213272Y303609D02*
G54D11*
D03*
X206772Y303609D02*
G54D11*
D03*
X291272Y236325D02*
G54D11*
D03*
X284772Y236325D02*
G54D11*
D03*
X278272Y236325D02*
G54D11*
D03*
X271772Y236325D02*
G54D11*
D03*
X265272Y236325D02*
G54D11*
D03*
X258772Y236325D02*
G54D11*
D03*
X252272Y236325D02*
G54D11*
D03*
X245772Y236325D02*
G54D11*
D03*
X239272Y236325D02*
G54D11*
D03*
X232772Y236325D02*
G54D11*
D03*
X226272Y236325D02*
G54D11*
D03*
X219772Y236325D02*
G54D11*
D03*
X213272Y236325D02*
G54D11*
D03*
X206772Y236325D02*
G54D11*
D03*
X291272Y236722D02*
G54D11*
D03*
X284772Y236722D02*
G54D11*
D03*
X278272Y236722D02*
G54D11*
D03*
X271772Y236722D02*
G54D11*
D03*
X265272Y236722D02*
G54D11*
D03*
X258772Y236722D02*
G54D11*
D03*
X252272Y236722D02*
G54D11*
D03*
X245772Y236722D02*
G54D11*
D03*
X239272Y236722D02*
G54D11*
D03*
X232772Y236722D02*
G54D11*
D03*
X226272Y236722D02*
G54D11*
D03*
X219772Y236722D02*
G54D11*
D03*
X213272Y236722D02*
G54D11*
D03*
X206772Y236722D02*
G54D11*
D03*
X291272Y303212D02*
G54D11*
D03*
X284772Y303212D02*
G54D11*
D03*
X278272Y303212D02*
G54D11*
D03*
X271772Y303212D02*
G54D11*
D03*
X265272Y303212D02*
G54D11*
D03*
X258772Y303213D02*
G54D11*
D03*
X252272Y303212D02*
G54D11*
D03*
X245772Y303212D02*
G54D11*
D03*
X239272Y303212D02*
G54D11*
D03*
X232772Y303212D02*
G54D11*
D03*
X226272Y303212D02*
G54D11*
D03*
X219772Y303212D02*
G54D11*
D03*
X213272Y303212D02*
G54D11*
D03*
X206772Y303212D02*
G54D11*
D03*
X164306Y286345D02*
G54D12*
D03*
X183356Y286345D02*
G54D12*
D03*
X164306Y264319D02*
G54D12*
D03*
X173831Y264319D02*
G54D12*
D03*
X183356Y264319D02*
G54D12*
D03*
X141288Y275431D02*
G54D13*
D03*
X99219Y275431D02*
G54D13*
D03*
X407988Y302419D02*
G54D14*
D03*
X414487Y302419D02*
G54D14*
D03*
X407591Y243072D02*
G54D14*
D03*
X414091Y243072D02*
G54D14*
D03*
X420591Y243072D02*
G54D14*
D03*
X427091Y243072D02*
G54D14*
D03*
X420988Y302419D02*
G54D14*
D03*
X427488Y302419D02*
G54D14*
D03*
X193675Y143669D02*
G54D15*
D03*
X174675Y143669D02*
G54D15*
D03*
X193675Y111919D02*
G54D15*
D03*
X174675Y111919D02*
G54D15*
D03*
X146050Y111919D02*
G54D15*
D03*
X127050Y111919D02*
G54D15*
D03*
X146050Y143669D02*
G54D15*
D03*
X127050Y143669D02*
G54D15*
D03*
X317475Y284931D02*
G54D16*
D03*
X317475Y265931D02*
G54D16*
D03*
X346050Y284931D02*
G54D16*
D03*
X346050Y265931D02*
G54D16*
D03*
X374625Y284931D02*
G54D16*
D03*
X374625Y265931D02*
G54D16*
D03*
X449238Y282154D02*
G54D16*
D03*
X449238Y263154D02*
G54D16*
D03*
X184175Y194494D02*
G54D16*
D03*
X184175Y213494D02*
G54D16*
D03*
X130200Y194494D02*
G54D16*
D03*
X130200Y213494D02*
G54D16*
D03*
X104800Y194494D02*
G54D16*
D03*
X104800Y213494D02*
G54D16*
D03*
X488950Y245269D02*
G54D17*
D03*
X498475Y245269D02*
G54D17*
D03*
X503238Y245269D02*
G54D17*
D03*
X503238Y240506D02*
G54D17*
D03*
X498475Y235744D02*
G54D17*
D03*
X488950Y230981D02*
G54D17*
D03*
X488950Y226219D02*
G54D17*
D03*
X498475Y226219D02*
G54D17*
D03*
X503238Y226219D02*
G54D17*
D03*
X511175Y226219D02*
G54D17*
D03*
X511175Y230981D02*
G54D17*
D03*
X511175Y235744D02*
G54D17*
D03*
X511175Y240506D02*
G54D17*
D03*
X511175Y245269D02*
G54D17*
D03*
X515938Y245269D02*
G54D17*
D03*
X520700Y245269D02*
G54D17*
D03*
X515938Y235744D02*
G54D17*
D03*
X520700Y235744D02*
G54D17*
D03*
X515938Y226219D02*
G54D17*
D03*
X520700Y226219D02*
G54D17*
D03*
X533400Y245269D02*
G54D17*
D03*
X533400Y240506D02*
G54D17*
D03*
X533400Y235744D02*
G54D17*
D03*
X533400Y230981D02*
G54D17*
D03*
X533400Y226219D02*
G54D17*
D03*
X538162Y245269D02*
G54D17*
D03*
X538162Y235744D02*
G54D17*
D03*
X547688Y240506D02*
G54D17*
D03*
X547688Y230981D02*
G54D17*
D03*
X547688Y226219D02*
G54D17*
D03*
X555625Y240506D02*
G54D17*
D03*
X555625Y235744D02*
G54D17*
D03*
X555625Y230981D02*
G54D17*
D03*
X560388Y226219D02*
G54D17*
D03*
X565150Y226219D02*
G54D17*
D03*
X569912Y230981D02*
G54D17*
D03*
X569912Y235744D02*
G54D17*
D03*
X569912Y240506D02*
G54D17*
D03*
X560388Y245269D02*
G54D17*
D03*
X565150Y245269D02*
G54D17*
D03*
X149225Y309562D02*
G54D18*
D03*
X177225Y309562D02*
G54D18*
D03*
X555625Y245269D02*
G54D17*
D03*
X569912Y245269D02*
G54D17*
D03*
X569912Y226219D02*
G54D17*
D03*
X555625Y226219D02*
G54D17*
D03*
X493712Y245269D02*
G54D17*
D03*
X493712Y235744D02*
G54D17*
D03*
X493712Y226219D02*
G54D17*
D03*
X525462Y245269D02*
G54D17*
D03*
X525462Y235744D02*
G54D17*
D03*
X525462Y226219D02*
G54D17*
D03*
X542925Y245269D02*
G54D17*
D03*
X542925Y235744D02*
G54D17*
D03*
X355600Y235744D02*
G54D15*
D03*
X374600Y235744D02*
G54D15*
D03*
X479401Y282154D02*
G54D16*
D03*
X479401Y263154D02*
G54D16*
D03*
X479425Y280591D02*
G54D19*
D03*
X479425Y263922D02*
G54D19*
D03*
X54777Y239315D02*
G54D20*
D03*
X54777Y232815D02*
G54D20*
D03*
X54777Y226315D02*
G54D20*
D03*
X54777Y245815D02*
G54D20*
D03*
X54777Y252315D02*
G54D20*
D03*
M02*
