%FSLAX34Y34*%
%MOMM*%
%LNSOLDERMASK_TOP*%
G71*
G01*
%ADD10C, 0.00*%
%ADD11C, 2.20*%
%ADD12R, 0.62X1.52*%
%ADD13R, 0.85X1.26*%
%ADD14R, 1.70X3.40*%
%ADD15R, 0.62X1.98*%
%ADD16R, 1.50X1.60*%
%ADD17R, 1.60X1.50*%
%ADD18C, 0.40*%
%ADD19R, 0.50X0.50*%
%ADD20R, 1.80X1.80*%
%ADD21R, 1.60X1.60*%
%ADD22C, 1.65*%
%ADD23R, 1.60X0.60*%
%LPD*%
G54D10*
X0Y1000000D02*
X680000Y1000000D01*
X680000Y70000D01*
X0Y70000D01*
X0Y1000000D01*
X580231Y966788D02*
G54D11*
D03*
X580230Y941384D02*
G54D11*
D03*
X554831Y966788D02*
G54D11*
D03*
X554831Y941388D02*
G54D11*
D03*
X529431Y966788D02*
G54D11*
D03*
X529431Y941388D02*
G54D11*
D03*
X504030Y966784D02*
G54D11*
D03*
X504031Y941388D02*
G54D11*
D03*
X478631Y966788D02*
G54D11*
D03*
X478631Y941388D02*
G54D11*
D03*
X453230Y966784D02*
G54D11*
D03*
X453231Y941388D02*
G54D11*
D03*
X427831Y966788D02*
G54D11*
D03*
X427831Y941388D02*
G54D11*
D03*
X402431Y966788D02*
G54D11*
D03*
X402430Y941384D02*
G54D11*
D03*
X377031Y966788D02*
G54D11*
D03*
X377031Y941388D02*
G54D11*
D03*
X351631Y966788D02*
G54D11*
D03*
X351631Y941388D02*
G54D11*
D03*
X326230Y966784D02*
G54D11*
D03*
X326231Y941388D02*
G54D11*
D03*
X300831Y966788D02*
G54D11*
D03*
X300831Y941388D02*
G54D11*
D03*
X275431Y966788D02*
G54D11*
D03*
X275431Y941388D02*
G54D11*
D03*
X250030Y966784D02*
G54D11*
D03*
X250031Y941388D02*
G54D11*
D03*
X224631Y966788D02*
G54D11*
D03*
X224631Y941388D02*
G54D11*
D03*
X199231Y966788D02*
G54D11*
D03*
X199230Y941384D02*
G54D11*
D03*
X173831Y966788D02*
G54D11*
D03*
X173831Y941388D02*
G54D11*
D03*
X148430Y966784D02*
G54D11*
D03*
X123031Y966788D02*
G54D11*
D03*
X97631Y966788D02*
G54D11*
D03*
X148431Y941388D02*
G54D11*
D03*
X123031Y941388D02*
G54D11*
D03*
X97631Y941388D02*
G54D11*
D03*
X291272Y835606D02*
G54D12*
D03*
X284772Y835606D02*
G54D12*
D03*
X278272Y835606D02*
G54D12*
D03*
X271772Y835606D02*
G54D12*
D03*
X265272Y835606D02*
G54D12*
D03*
X258772Y835606D02*
G54D12*
D03*
X252272Y835606D02*
G54D12*
D03*
X245772Y835606D02*
G54D12*
D03*
X239272Y835606D02*
G54D12*
D03*
X232772Y835606D02*
G54D12*
D03*
X226272Y835606D02*
G54D12*
D03*
X219772Y835606D02*
G54D12*
D03*
X213272Y835606D02*
G54D12*
D03*
X206772Y835606D02*
G54D12*
D03*
X291272Y904478D02*
G54D12*
D03*
X284772Y904478D02*
G54D12*
D03*
X278272Y904478D02*
G54D12*
D03*
X271772Y904478D02*
G54D12*
D03*
X265272Y904478D02*
G54D12*
D03*
X258772Y904478D02*
G54D12*
D03*
X252272Y904478D02*
G54D12*
D03*
X245772Y904478D02*
G54D12*
D03*
X239272Y904478D02*
G54D12*
D03*
X232772Y904478D02*
G54D12*
D03*
X226272Y904478D02*
G54D12*
D03*
X219772Y904478D02*
G54D12*
D03*
X213272Y904478D02*
G54D12*
D03*
X206772Y904478D02*
G54D12*
D03*
X291272Y903684D02*
G54D12*
D03*
X284772Y903684D02*
G54D12*
D03*
X278272Y903684D02*
G54D12*
D03*
X271772Y903684D02*
G54D12*
D03*
X265272Y903684D02*
G54D12*
D03*
X258772Y903684D02*
G54D12*
D03*
X252272Y903684D02*
G54D12*
D03*
X245772Y903684D02*
G54D12*
D03*
X239272Y903684D02*
G54D12*
D03*
X232772Y903684D02*
G54D12*
D03*
X226272Y903684D02*
G54D12*
D03*
X219772Y903684D02*
G54D12*
D03*
X213272Y903684D02*
G54D12*
D03*
X206772Y903684D02*
G54D12*
D03*
X291272Y836400D02*
G54D12*
D03*
X284772Y836400D02*
G54D12*
D03*
X278272Y836400D02*
G54D12*
D03*
X271772Y836400D02*
G54D12*
D03*
X265272Y836400D02*
G54D12*
D03*
X258772Y836400D02*
G54D12*
D03*
X252272Y836400D02*
G54D12*
D03*
X245772Y836400D02*
G54D12*
D03*
X239272Y836400D02*
G54D12*
D03*
X232772Y836400D02*
G54D12*
D03*
X226272Y836400D02*
G54D12*
D03*
X219772Y836400D02*
G54D12*
D03*
X213272Y836400D02*
G54D12*
D03*
X206772Y836400D02*
G54D12*
D03*
X291272Y836797D02*
G54D12*
D03*
X284772Y836797D02*
G54D12*
D03*
X278272Y836797D02*
G54D12*
D03*
X271772Y836797D02*
G54D12*
D03*
X265272Y836797D02*
G54D12*
D03*
X258772Y836797D02*
G54D12*
D03*
X252272Y836797D02*
G54D12*
D03*
X245772Y836797D02*
G54D12*
D03*
X239272Y836797D02*
G54D12*
D03*
X232772Y836797D02*
G54D12*
D03*
X226272Y836797D02*
G54D12*
D03*
X219772Y836797D02*
G54D12*
D03*
X213272Y836797D02*
G54D12*
D03*
X206772Y836797D02*
G54D12*
D03*
X291272Y903287D02*
G54D12*
D03*
X284772Y903288D02*
G54D12*
D03*
X278272Y903288D02*
G54D12*
D03*
X271772Y903288D02*
G54D12*
D03*
X265272Y903288D02*
G54D12*
D03*
X258772Y903288D02*
G54D12*
D03*
X252272Y903288D02*
G54D12*
D03*
X245772Y903287D02*
G54D12*
D03*
X239272Y903288D02*
G54D12*
D03*
X232772Y903288D02*
G54D12*
D03*
X226272Y903288D02*
G54D12*
D03*
X219772Y903288D02*
G54D12*
D03*
X213272Y903288D02*
G54D12*
D03*
X206772Y903288D02*
G54D12*
D03*
X164306Y886420D02*
G54D13*
D03*
X183356Y886420D02*
G54D13*
D03*
X164306Y864394D02*
G54D13*
D03*
X173831Y864394D02*
G54D13*
D03*
X183356Y864394D02*
G54D13*
D03*
X141288Y875506D02*
G54D14*
D03*
X99219Y875506D02*
G54D14*
D03*
X407988Y902494D02*
G54D15*
D03*
X414487Y902494D02*
G54D15*
D03*
X407591Y843147D02*
G54D15*
D03*
X414091Y843147D02*
G54D15*
D03*
X420591Y843147D02*
G54D15*
D03*
X427091Y843147D02*
G54D15*
D03*
X420988Y902494D02*
G54D15*
D03*
X427488Y902494D02*
G54D15*
D03*
X193675Y743744D02*
G54D16*
D03*
X174675Y743744D02*
G54D16*
D03*
X193675Y711994D02*
G54D16*
D03*
X174675Y711994D02*
G54D16*
D03*
X146050Y711994D02*
G54D16*
D03*
X127050Y711994D02*
G54D16*
D03*
X146050Y743744D02*
G54D16*
D03*
X127050Y743744D02*
G54D16*
D03*
X317475Y885006D02*
G54D17*
D03*
X317475Y866006D02*
G54D17*
D03*
X346050Y885006D02*
G54D17*
D03*
X346050Y866006D02*
G54D17*
D03*
X374625Y885006D02*
G54D17*
D03*
X374625Y866006D02*
G54D17*
D03*
X449238Y882229D02*
G54D17*
D03*
X449238Y863229D02*
G54D17*
D03*
X228600Y794544D02*
G54D11*
D03*
X228600Y769144D02*
G54D11*
D03*
X228600Y743744D02*
G54D11*
D03*
X228600Y718344D02*
G54D11*
D03*
X184175Y794569D02*
G54D17*
D03*
X184175Y813569D02*
G54D17*
D03*
X130200Y794569D02*
G54D17*
D03*
X130200Y813569D02*
G54D17*
D03*
X104800Y794569D02*
G54D17*
D03*
X104800Y813569D02*
G54D17*
D03*
G54D18*
X588641Y829294D02*
X587441Y827294D01*
X585041Y826294D01*
X582641Y826294D01*
X580241Y827294D01*
X579041Y829294D01*
X579041Y839294D01*
X580241Y841294D01*
X582641Y842294D01*
X585041Y842294D01*
X587441Y841294D01*
X588641Y839294D01*
G54D18*
X600241Y828694D02*
X600241Y832694D01*
X599041Y834694D01*
X596641Y835294D01*
X594241Y834694D01*
X593041Y832694D01*
X593041Y828694D01*
X594241Y826694D01*
X596641Y826294D01*
X599041Y826694D01*
X600241Y828694D01*
G54D18*
X604641Y826294D02*
X604641Y835294D01*
G54D18*
X604641Y833294D02*
X605841Y834694D01*
X608241Y835294D01*
X610641Y834694D01*
X611841Y833294D01*
X611841Y826294D01*
G54D18*
X616241Y827294D02*
X618641Y826294D01*
X621041Y826294D01*
X623441Y827294D01*
X623441Y829294D01*
X622241Y830294D01*
X617441Y831294D01*
X616241Y832294D01*
X616241Y834294D01*
X618641Y835294D01*
X621041Y835294D01*
X623441Y834294D01*
G54D18*
X635041Y828694D02*
X635041Y832694D01*
X633841Y834694D01*
X631441Y835294D01*
X629041Y834694D01*
X627841Y832694D01*
X627841Y828694D01*
X629041Y826694D01*
X631441Y826294D01*
X633841Y826694D01*
X635041Y828694D01*
G54D18*
X639441Y826294D02*
X639441Y842294D01*
G54D18*
X651041Y827294D02*
X649121Y826294D01*
X646721Y826294D01*
X644321Y827294D01*
X643841Y829294D01*
X643841Y832694D01*
X645041Y834694D01*
X647441Y835294D01*
X649841Y834694D01*
X651041Y833294D01*
X651041Y831294D01*
X643841Y831294D01*
X488950Y845344D02*
G54D19*
D03*
X498475Y845344D02*
G54D19*
D03*
X503238Y845344D02*
G54D19*
D03*
X503238Y840581D02*
G54D19*
D03*
X498475Y835819D02*
G54D19*
D03*
X488950Y831056D02*
G54D19*
D03*
X488950Y826294D02*
G54D19*
D03*
X498475Y826294D02*
G54D19*
D03*
X503238Y826294D02*
G54D19*
D03*
X511175Y826294D02*
G54D19*
D03*
X511175Y831056D02*
G54D19*
D03*
X511175Y835819D02*
G54D19*
D03*
X511175Y840581D02*
G54D19*
D03*
X511175Y845344D02*
G54D19*
D03*
X515938Y845344D02*
G54D19*
D03*
X520700Y845344D02*
G54D19*
D03*
X515938Y835819D02*
G54D19*
D03*
X520700Y835819D02*
G54D19*
D03*
X515938Y826294D02*
G54D19*
D03*
X520700Y826294D02*
G54D19*
D03*
X533400Y845344D02*
G54D19*
D03*
X533400Y840581D02*
G54D19*
D03*
X533400Y835819D02*
G54D19*
D03*
X533400Y831056D02*
G54D19*
D03*
X533400Y826294D02*
G54D19*
D03*
X538162Y845344D02*
G54D19*
D03*
X538162Y835819D02*
G54D19*
D03*
X547688Y840581D02*
G54D19*
D03*
X547688Y831056D02*
G54D19*
D03*
X547688Y826294D02*
G54D19*
D03*
X555625Y840581D02*
G54D19*
D03*
X555625Y835819D02*
G54D19*
D03*
X555625Y831056D02*
G54D19*
D03*
X560388Y826294D02*
G54D19*
D03*
X565150Y826294D02*
G54D19*
D03*
X569912Y831056D02*
G54D19*
D03*
X569912Y835819D02*
G54D19*
D03*
X569912Y840581D02*
G54D19*
D03*
X560388Y845344D02*
G54D19*
D03*
X565150Y845344D02*
G54D19*
D03*
X149225Y909638D02*
G54D20*
D03*
X177225Y909638D02*
G54D20*
D03*
X555625Y845344D02*
G54D19*
D03*
X569912Y845344D02*
G54D19*
D03*
X569912Y826294D02*
G54D19*
D03*
X555625Y826294D02*
G54D19*
D03*
X493712Y845344D02*
G54D19*
D03*
X493712Y835819D02*
G54D19*
D03*
X493712Y826294D02*
G54D19*
D03*
X525462Y845344D02*
G54D19*
D03*
X525462Y835819D02*
G54D19*
D03*
X525462Y826294D02*
G54D19*
D03*
X542925Y845344D02*
G54D19*
D03*
X542925Y835819D02*
G54D19*
D03*
X355600Y835819D02*
G54D16*
D03*
X374600Y835819D02*
G54D16*
D03*
X479401Y882229D02*
G54D17*
D03*
X479401Y863229D02*
G54D17*
D03*
X479425Y880666D02*
G54D21*
D03*
X479425Y863997D02*
G54D21*
D03*
X21034Y875109D02*
G54D22*
D03*
X28972Y875109D02*
G54D22*
D03*
X28972Y803672D02*
G54D22*
D03*
X21034Y803672D02*
G54D22*
D03*
X63500Y875109D02*
G54D22*
D03*
X55562Y875109D02*
G54D22*
D03*
X63500Y803672D02*
G54D22*
D03*
X55562Y803672D02*
G54D22*
D03*
X59531Y875109D02*
G54D22*
D03*
X59531Y803672D02*
G54D22*
D03*
X25003Y803672D02*
G54D22*
D03*
X25003Y875109D02*
G54D22*
D03*
X54777Y839390D02*
G54D23*
D03*
X54777Y832890D02*
G54D23*
D03*
X54777Y826390D02*
G54D23*
D03*
X54777Y845890D02*
G54D23*
D03*
X54777Y852390D02*
G54D23*
D03*
X63302Y875109D02*
G54D22*
D03*
X63103Y875109D02*
G54D22*
D03*
X62905Y875109D02*
G54D22*
D03*
X62706Y875109D02*
G54D22*
D03*
X62508Y875109D02*
G54D22*
D03*
X62309Y875109D02*
G54D22*
D03*
X62111Y875109D02*
G54D22*
D03*
X61912Y875109D02*
G54D22*
D03*
X61714Y875109D02*
G54D22*
D03*
X61516Y875109D02*
G54D22*
D03*
X61317Y875109D02*
G54D22*
D03*
X61119Y875109D02*
G54D22*
D03*
X60920Y875109D02*
G54D22*
D03*
X60722Y875109D02*
G54D22*
D03*
X60523Y875109D02*
G54D22*
D03*
X60325Y875109D02*
G54D22*
D03*
X60127Y875109D02*
G54D22*
D03*
X59928Y875109D02*
G54D22*
D03*
X59730Y875109D02*
G54D22*
D03*
X59333Y875109D02*
G54D22*
D03*
X59134Y875109D02*
G54D22*
D03*
X58936Y875109D02*
G54D22*
D03*
X58738Y875109D02*
G54D22*
D03*
X58539Y875109D02*
G54D22*
D03*
X58341Y875109D02*
G54D22*
D03*
X58142Y875109D02*
G54D22*
D03*
X57944Y875109D02*
G54D22*
D03*
X57745Y875109D02*
G54D22*
D03*
X57547Y875109D02*
G54D22*
D03*
X57348Y875109D02*
G54D22*
D03*
X57150Y875109D02*
G54D22*
D03*
X55761Y875109D02*
G54D22*
D03*
X55959Y875109D02*
G54D22*
D03*
X56158Y875109D02*
G54D22*
D03*
X56356Y875109D02*
G54D22*
D03*
X56555Y875109D02*
G54D22*
D03*
X56753Y875109D02*
G54D22*
D03*
X63302Y803672D02*
G54D22*
D03*
X63103Y803672D02*
G54D22*
D03*
X62905Y803672D02*
G54D22*
D03*
X62706Y803672D02*
G54D22*
D03*
X62508Y803672D02*
G54D22*
D03*
X62309Y803672D02*
G54D22*
D03*
X62111Y803672D02*
G54D22*
D03*
X61912Y803672D02*
G54D22*
D03*
X61714Y803672D02*
G54D22*
D03*
X61516Y803672D02*
G54D22*
D03*
X61317Y803672D02*
G54D22*
D03*
X61119Y803672D02*
G54D22*
D03*
X60920Y803672D02*
G54D22*
D03*
X60722Y803672D02*
G54D22*
D03*
X60523Y803672D02*
G54D22*
D03*
X60325Y803672D02*
G54D22*
D03*
X60127Y803672D02*
G54D22*
D03*
X59928Y803672D02*
G54D22*
D03*
X55761Y803672D02*
G54D22*
D03*
X55959Y803672D02*
G54D22*
D03*
X56158Y803672D02*
G54D22*
D03*
X56356Y803672D02*
G54D22*
D03*
X56555Y803672D02*
G54D22*
D03*
X56753Y803672D02*
G54D22*
D03*
X56952Y803672D02*
G54D22*
D03*
X57150Y803672D02*
G54D22*
D03*
X57348Y803672D02*
G54D22*
D03*
X57547Y803672D02*
G54D22*
D03*
X57745Y803672D02*
G54D22*
D03*
X57944Y803672D02*
G54D22*
D03*
X58142Y803672D02*
G54D22*
D03*
X58341Y803672D02*
G54D22*
D03*
X58539Y803672D02*
G54D22*
D03*
X58539Y803672D02*
G54D22*
D03*
X58738Y803672D02*
G54D22*
D03*
X58936Y803672D02*
G54D22*
D03*
X59134Y803672D02*
G54D22*
D03*
X28972Y875109D02*
G54D22*
D03*
X21034Y875109D02*
G54D22*
D03*
X25003Y875109D02*
G54D22*
D03*
X28773Y875109D02*
G54D22*
D03*
X28575Y875109D02*
G54D22*
D03*
X28377Y875109D02*
G54D22*
D03*
X28178Y875109D02*
G54D22*
D03*
X27980Y875109D02*
G54D22*
D03*
X27781Y875109D02*
G54D22*
D03*
X27583Y875109D02*
G54D22*
D03*
X27384Y875109D02*
G54D22*
D03*
X27186Y875109D02*
G54D22*
D03*
X26988Y875109D02*
G54D22*
D03*
X26789Y875109D02*
G54D22*
D03*
X26591Y875109D02*
G54D22*
D03*
X26392Y875109D02*
G54D22*
D03*
X26194Y875109D02*
G54D22*
D03*
X25995Y875109D02*
G54D22*
D03*
X25797Y875109D02*
G54D22*
D03*
X25598Y875109D02*
G54D22*
D03*
X25400Y875109D02*
G54D22*
D03*
X25202Y875109D02*
G54D22*
D03*
X24805Y875109D02*
G54D22*
D03*
X24606Y875109D02*
G54D22*
D03*
X24408Y875109D02*
G54D22*
D03*
X24209Y875109D02*
G54D22*
D03*
X24011Y875109D02*
G54D22*
D03*
X23812Y875109D02*
G54D22*
D03*
X23614Y875109D02*
G54D22*
D03*
X23416Y875109D02*
G54D22*
D03*
X23217Y875109D02*
G54D22*
D03*
X23019Y875109D02*
G54D22*
D03*
X22820Y875109D02*
G54D22*
D03*
X22622Y875109D02*
G54D22*
D03*
X21233Y875109D02*
G54D22*
D03*
X21431Y875109D02*
G54D22*
D03*
X21630Y875109D02*
G54D22*
D03*
X21828Y875109D02*
G54D22*
D03*
X22027Y875109D02*
G54D22*
D03*
X22225Y875109D02*
G54D22*
D03*
X28972Y803672D02*
G54D22*
D03*
X21034Y803672D02*
G54D22*
D03*
X25003Y803672D02*
G54D22*
D03*
X28773Y803672D02*
G54D22*
D03*
X28575Y803672D02*
G54D22*
D03*
X28377Y803672D02*
G54D22*
D03*
X28178Y803672D02*
G54D22*
D03*
X27980Y803672D02*
G54D22*
D03*
X27781Y803672D02*
G54D22*
D03*
X27583Y803672D02*
G54D22*
D03*
X27384Y803672D02*
G54D22*
D03*
X27186Y803672D02*
G54D22*
D03*
X26988Y803672D02*
G54D22*
D03*
X26789Y803672D02*
G54D22*
D03*
X26591Y803672D02*
G54D22*
D03*
X26392Y803672D02*
G54D22*
D03*
X26194Y803672D02*
G54D22*
D03*
X25995Y803672D02*
G54D22*
D03*
X25797Y803672D02*
G54D22*
D03*
X25598Y803672D02*
G54D22*
D03*
X25400Y803672D02*
G54D22*
D03*
X21233Y803672D02*
G54D22*
D03*
X21431Y803672D02*
G54D22*
D03*
X21630Y803672D02*
G54D22*
D03*
X21828Y803672D02*
G54D22*
D03*
X22027Y803672D02*
G54D22*
D03*
X22225Y803672D02*
G54D22*
D03*
X22423Y803672D02*
G54D22*
D03*
X22622Y803672D02*
G54D22*
D03*
X22820Y803672D02*
G54D22*
D03*
X23019Y803672D02*
G54D22*
D03*
X23217Y803672D02*
G54D22*
D03*
X23416Y803672D02*
G54D22*
D03*
X23614Y803672D02*
G54D22*
D03*
X23812Y803672D02*
G54D22*
D03*
X24011Y803672D02*
G54D22*
D03*
X24011Y803672D02*
G54D22*
D03*
X24209Y803672D02*
G54D22*
D03*
X24408Y803672D02*
G54D22*
D03*
X24606Y803672D02*
G54D22*
D03*
X21828Y875109D02*
G54D22*
D03*
X22622Y875109D02*
G54D22*
D03*
X23416Y875109D02*
G54D22*
D03*
X24209Y875109D02*
G54D22*
D03*
X25003Y875109D02*
G54D22*
D03*
X25797Y875109D02*
G54D22*
D03*
X26591Y875109D02*
G54D22*
D03*
X27384Y875109D02*
G54D22*
D03*
X28178Y875109D02*
G54D22*
D03*
X56356Y875109D02*
G54D22*
D03*
X57150Y875109D02*
G54D22*
D03*
X57944Y875109D02*
G54D22*
D03*
X58738Y875109D02*
G54D22*
D03*
X59531Y875109D02*
G54D22*
D03*
X60325Y875109D02*
G54D22*
D03*
X61119Y875109D02*
G54D22*
D03*
X61912Y875109D02*
G54D22*
D03*
X62706Y875109D02*
G54D22*
D03*
X63500Y875109D02*
G54D22*
D03*
X28972Y875109D02*
G54D22*
D03*
X21034Y803672D02*
G54D22*
D03*
X21828Y803672D02*
G54D22*
D03*
X22622Y803672D02*
G54D22*
D03*
X23416Y803672D02*
G54D22*
D03*
X24209Y803672D02*
G54D22*
D03*
X25003Y803672D02*
G54D22*
D03*
X25797Y803672D02*
G54D22*
D03*
X26591Y803672D02*
G54D22*
D03*
X27384Y803672D02*
G54D22*
D03*
X28178Y803672D02*
G54D22*
D03*
X28972Y803672D02*
G54D22*
D03*
X55562Y803672D02*
G54D22*
D03*
X56356Y803672D02*
G54D22*
D03*
X57150Y803672D02*
G54D22*
D03*
X57944Y803672D02*
G54D22*
D03*
X58738Y803672D02*
G54D22*
D03*
X59531Y803672D02*
G54D22*
D03*
X60325Y803672D02*
G54D22*
D03*
X61119Y803672D02*
G54D22*
D03*
X61912Y803672D02*
G54D22*
D03*
X62706Y803672D02*
G54D22*
D03*
X63500Y803672D02*
G54D22*
D03*
X21034Y875109D02*
G54D22*
D03*
X28972Y875109D02*
G54D22*
D03*
X55562Y875109D02*
G54D22*
D03*
X580231Y666750D02*
G54D11*
D03*
X580230Y641346D02*
G54D11*
D03*
X554831Y666750D02*
G54D11*
D03*
X554831Y641350D02*
G54D11*
D03*
X529431Y666750D02*
G54D11*
D03*
X529431Y641350D02*
G54D11*
D03*
X504030Y666746D02*
G54D11*
D03*
X504031Y641350D02*
G54D11*
D03*
X478631Y666750D02*
G54D11*
D03*
X478631Y641350D02*
G54D11*
D03*
X453230Y666746D02*
G54D11*
D03*
X453231Y641350D02*
G54D11*
D03*
X427831Y666750D02*
G54D11*
D03*
X427831Y641350D02*
G54D11*
D03*
X402431Y666750D02*
G54D11*
D03*
X402430Y641346D02*
G54D11*
D03*
X377031Y666750D02*
G54D11*
D03*
X377031Y641350D02*
G54D11*
D03*
X351631Y666750D02*
G54D11*
D03*
X351631Y641350D02*
G54D11*
D03*
X326230Y666746D02*
G54D11*
D03*
X326231Y641350D02*
G54D11*
D03*
X300831Y666750D02*
G54D11*
D03*
X300831Y641350D02*
G54D11*
D03*
X275431Y666750D02*
G54D11*
D03*
X275431Y641350D02*
G54D11*
D03*
X250030Y666746D02*
G54D11*
D03*
X250031Y641350D02*
G54D11*
D03*
X224631Y666750D02*
G54D11*
D03*
X224631Y641350D02*
G54D11*
D03*
X199231Y666750D02*
G54D11*
D03*
X199230Y641346D02*
G54D11*
D03*
X173831Y666750D02*
G54D11*
D03*
X173831Y641350D02*
G54D11*
D03*
X148430Y666746D02*
G54D11*
D03*
X123031Y666750D02*
G54D11*
D03*
X97631Y666750D02*
G54D11*
D03*
X148431Y641350D02*
G54D11*
D03*
X123031Y641350D02*
G54D11*
D03*
X97631Y641350D02*
G54D11*
D03*
X291272Y535569D02*
G54D12*
D03*
X284772Y535569D02*
G54D12*
D03*
X278272Y535569D02*
G54D12*
D03*
X271772Y535569D02*
G54D12*
D03*
X265272Y535569D02*
G54D12*
D03*
X258772Y535569D02*
G54D12*
D03*
X252272Y535569D02*
G54D12*
D03*
X245772Y535569D02*
G54D12*
D03*
X239272Y535569D02*
G54D12*
D03*
X232772Y535569D02*
G54D12*
D03*
X226272Y535569D02*
G54D12*
D03*
X219772Y535569D02*
G54D12*
D03*
X213272Y535569D02*
G54D12*
D03*
X206772Y535569D02*
G54D12*
D03*
X291272Y604441D02*
G54D12*
D03*
X284772Y604441D02*
G54D12*
D03*
X278272Y604440D02*
G54D12*
D03*
X271772Y604440D02*
G54D12*
D03*
X265272Y604440D02*
G54D12*
D03*
X258772Y604440D02*
G54D12*
D03*
X252272Y604440D02*
G54D12*
D03*
X245772Y604440D02*
G54D12*
D03*
X239272Y604440D02*
G54D12*
D03*
X232772Y604440D02*
G54D12*
D03*
X226272Y604440D02*
G54D12*
D03*
X219772Y604440D02*
G54D12*
D03*
X213272Y604440D02*
G54D12*
D03*
X206772Y604440D02*
G54D12*
D03*
X291272Y603647D02*
G54D12*
D03*
X284772Y603647D02*
G54D12*
D03*
X278272Y603647D02*
G54D12*
D03*
X271772Y603647D02*
G54D12*
D03*
X265272Y603647D02*
G54D12*
D03*
X258772Y603647D02*
G54D12*
D03*
X252272Y603647D02*
G54D12*
D03*
X245772Y603647D02*
G54D12*
D03*
X239272Y603647D02*
G54D12*
D03*
X232772Y603647D02*
G54D12*
D03*
X226272Y603647D02*
G54D12*
D03*
X219772Y603647D02*
G54D12*
D03*
X213272Y603647D02*
G54D12*
D03*
X206772Y603647D02*
G54D12*
D03*
X291272Y536362D02*
G54D12*
D03*
X284772Y536362D02*
G54D12*
D03*
X278272Y536362D02*
G54D12*
D03*
X271772Y536362D02*
G54D12*
D03*
X265272Y536362D02*
G54D12*
D03*
X258772Y536363D02*
G54D12*
D03*
X252272Y536363D02*
G54D12*
D03*
X245772Y536362D02*
G54D12*
D03*
X239272Y536362D02*
G54D12*
D03*
X232772Y536362D02*
G54D12*
D03*
X226272Y536362D02*
G54D12*
D03*
X219772Y536362D02*
G54D12*
D03*
X213272Y536362D02*
G54D12*
D03*
X206772Y536362D02*
G54D12*
D03*
X291272Y536759D02*
G54D12*
D03*
X284772Y536759D02*
G54D12*
D03*
X278272Y536759D02*
G54D12*
D03*
X271772Y536759D02*
G54D12*
D03*
X265272Y536759D02*
G54D12*
D03*
X258772Y536759D02*
G54D12*
D03*
X252272Y536759D02*
G54D12*
D03*
X245772Y536759D02*
G54D12*
D03*
X239272Y536759D02*
G54D12*
D03*
X232772Y536759D02*
G54D12*
D03*
X226272Y536759D02*
G54D12*
D03*
X219772Y536759D02*
G54D12*
D03*
X213272Y536759D02*
G54D12*
D03*
X206772Y536759D02*
G54D12*
D03*
X291272Y603250D02*
G54D12*
D03*
X284772Y603250D02*
G54D12*
D03*
X278272Y603250D02*
G54D12*
D03*
X271772Y603250D02*
G54D12*
D03*
X265272Y603250D02*
G54D12*
D03*
X258772Y603250D02*
G54D12*
D03*
X252272Y603250D02*
G54D12*
D03*
X245772Y603250D02*
G54D12*
D03*
X239272Y603250D02*
G54D12*
D03*
X232772Y603250D02*
G54D12*
D03*
X226272Y603250D02*
G54D12*
D03*
X219772Y603250D02*
G54D12*
D03*
X213272Y603250D02*
G54D12*
D03*
X206772Y603250D02*
G54D12*
D03*
X164306Y586383D02*
G54D13*
D03*
X183356Y586383D02*
G54D13*
D03*
X164306Y564356D02*
G54D13*
D03*
X173831Y564356D02*
G54D13*
D03*
X183356Y564356D02*
G54D13*
D03*
X141288Y575469D02*
G54D14*
D03*
X99219Y575469D02*
G54D14*
D03*
X407988Y602456D02*
G54D15*
D03*
X414487Y602456D02*
G54D15*
D03*
X407591Y543109D02*
G54D15*
D03*
X414091Y543109D02*
G54D15*
D03*
X420591Y543109D02*
G54D15*
D03*
X427091Y543109D02*
G54D15*
D03*
X420988Y602456D02*
G54D15*
D03*
X427488Y602456D02*
G54D15*
D03*
X193675Y443706D02*
G54D16*
D03*
X174675Y443706D02*
G54D16*
D03*
X193675Y411956D02*
G54D16*
D03*
X174675Y411956D02*
G54D16*
D03*
X146050Y411956D02*
G54D16*
D03*
X127050Y411956D02*
G54D16*
D03*
X146050Y443706D02*
G54D16*
D03*
X127050Y443706D02*
G54D16*
D03*
X317475Y584969D02*
G54D17*
D03*
X317475Y565969D02*
G54D17*
D03*
X346050Y584969D02*
G54D17*
D03*
X346050Y565969D02*
G54D17*
D03*
X374625Y584969D02*
G54D17*
D03*
X374625Y565969D02*
G54D17*
D03*
X449238Y582192D02*
G54D17*
D03*
X449238Y563192D02*
G54D17*
D03*
X228600Y494506D02*
G54D11*
D03*
X228600Y469106D02*
G54D11*
D03*
X228600Y443706D02*
G54D11*
D03*
X228600Y418306D02*
G54D11*
D03*
X184175Y494531D02*
G54D17*
D03*
X184175Y513531D02*
G54D17*
D03*
X130200Y494531D02*
G54D17*
D03*
X130200Y513531D02*
G54D17*
D03*
X104800Y494531D02*
G54D17*
D03*
X104800Y513531D02*
G54D17*
D03*
G54D18*
X588641Y529256D02*
X587441Y527256D01*
X585041Y526256D01*
X582641Y526256D01*
X580241Y527256D01*
X579041Y529256D01*
X579041Y539256D01*
X580241Y541256D01*
X582641Y542256D01*
X585041Y542256D01*
X587441Y541256D01*
X588641Y539256D01*
G54D18*
X600241Y528656D02*
X600241Y532656D01*
X599041Y534656D01*
X596641Y535256D01*
X594241Y534656D01*
X593041Y532656D01*
X593041Y528656D01*
X594241Y526656D01*
X596641Y526256D01*
X599041Y526656D01*
X600241Y528656D01*
G54D18*
X604641Y526256D02*
X604641Y535256D01*
G54D18*
X604641Y533256D02*
X605841Y534656D01*
X608241Y535256D01*
X610641Y534656D01*
X611841Y533256D01*
X611841Y526256D01*
G54D18*
X616241Y527256D02*
X618641Y526256D01*
X621041Y526256D01*
X623441Y527256D01*
X623441Y529256D01*
X622241Y530256D01*
X617441Y531256D01*
X616241Y532256D01*
X616241Y534256D01*
X618641Y535256D01*
X621041Y535256D01*
X623441Y534256D01*
G54D18*
X635041Y528656D02*
X635041Y532656D01*
X633841Y534656D01*
X631441Y535256D01*
X629041Y534656D01*
X627841Y532656D01*
X627841Y528656D01*
X629041Y526656D01*
X631441Y526256D01*
X633841Y526656D01*
X635041Y528656D01*
G54D18*
X639441Y526256D02*
X639441Y542256D01*
G54D18*
X651041Y527256D02*
X649121Y526256D01*
X646721Y526256D01*
X644321Y527256D01*
X643841Y529256D01*
X643841Y532656D01*
X645041Y534656D01*
X647441Y535256D01*
X649841Y534656D01*
X651041Y533256D01*
X651041Y531256D01*
X643841Y531256D01*
X488950Y545306D02*
G54D19*
D03*
X498475Y545306D02*
G54D19*
D03*
X503238Y545306D02*
G54D19*
D03*
X503238Y540544D02*
G54D19*
D03*
X498475Y535781D02*
G54D19*
D03*
X488950Y531019D02*
G54D19*
D03*
X488950Y526256D02*
G54D19*
D03*
X498475Y526256D02*
G54D19*
D03*
X503238Y526256D02*
G54D19*
D03*
X511175Y526256D02*
G54D19*
D03*
X511175Y531019D02*
G54D19*
D03*
X511175Y535781D02*
G54D19*
D03*
X511175Y540544D02*
G54D19*
D03*
X511175Y545306D02*
G54D19*
D03*
X515938Y545306D02*
G54D19*
D03*
X520700Y545306D02*
G54D19*
D03*
X515938Y535781D02*
G54D19*
D03*
X520700Y535781D02*
G54D19*
D03*
X515938Y526256D02*
G54D19*
D03*
X520700Y526256D02*
G54D19*
D03*
X533400Y545306D02*
G54D19*
D03*
X533400Y540544D02*
G54D19*
D03*
X533400Y535781D02*
G54D19*
D03*
X533400Y531019D02*
G54D19*
D03*
X533400Y526256D02*
G54D19*
D03*
X538162Y545306D02*
G54D19*
D03*
X538162Y535781D02*
G54D19*
D03*
X547688Y540544D02*
G54D19*
D03*
X547688Y531019D02*
G54D19*
D03*
X547688Y526256D02*
G54D19*
D03*
X555625Y540544D02*
G54D19*
D03*
X555625Y535781D02*
G54D19*
D03*
X555625Y531019D02*
G54D19*
D03*
X560388Y526256D02*
G54D19*
D03*
X565150Y526256D02*
G54D19*
D03*
X569912Y531019D02*
G54D19*
D03*
X569912Y535781D02*
G54D19*
D03*
X569912Y540544D02*
G54D19*
D03*
X560388Y545306D02*
G54D19*
D03*
X565150Y545306D02*
G54D19*
D03*
X149225Y609600D02*
G54D20*
D03*
X177225Y609600D02*
G54D20*
D03*
X555625Y545306D02*
G54D19*
D03*
X569912Y545306D02*
G54D19*
D03*
X569912Y526256D02*
G54D19*
D03*
X555625Y526256D02*
G54D19*
D03*
X493712Y545306D02*
G54D19*
D03*
X493712Y535781D02*
G54D19*
D03*
X493712Y526256D02*
G54D19*
D03*
X525462Y545306D02*
G54D19*
D03*
X525462Y535781D02*
G54D19*
D03*
X525462Y526256D02*
G54D19*
D03*
X542925Y545306D02*
G54D19*
D03*
X542925Y535781D02*
G54D19*
D03*
X355600Y535781D02*
G54D16*
D03*
X374600Y535781D02*
G54D16*
D03*
X479401Y582192D02*
G54D17*
D03*
X479401Y563192D02*
G54D17*
D03*
X479425Y580628D02*
G54D21*
D03*
X479425Y563959D02*
G54D21*
D03*
X21034Y575072D02*
G54D22*
D03*
X28972Y575072D02*
G54D22*
D03*
X28972Y503634D02*
G54D22*
D03*
X21034Y503634D02*
G54D22*
D03*
X63500Y575072D02*
G54D22*
D03*
X55562Y575072D02*
G54D22*
D03*
X63500Y503634D02*
G54D22*
D03*
X55562Y503634D02*
G54D22*
D03*
X59531Y575072D02*
G54D22*
D03*
X59531Y503634D02*
G54D22*
D03*
X25003Y503634D02*
G54D22*
D03*
X25003Y575072D02*
G54D22*
D03*
X54777Y539353D02*
G54D23*
D03*
X54777Y532853D02*
G54D23*
D03*
X54777Y526353D02*
G54D23*
D03*
X54777Y545853D02*
G54D23*
D03*
X54777Y552353D02*
G54D23*
D03*
X63302Y575072D02*
G54D22*
D03*
X63103Y575072D02*
G54D22*
D03*
X62905Y575072D02*
G54D22*
D03*
X62706Y575072D02*
G54D22*
D03*
X62508Y575072D02*
G54D22*
D03*
X62309Y575072D02*
G54D22*
D03*
X62111Y575072D02*
G54D22*
D03*
X61912Y575072D02*
G54D22*
D03*
X61714Y575072D02*
G54D22*
D03*
X61516Y575072D02*
G54D22*
D03*
X61317Y575072D02*
G54D22*
D03*
X61119Y575072D02*
G54D22*
D03*
X60920Y575072D02*
G54D22*
D03*
X60722Y575072D02*
G54D22*
D03*
X60523Y575072D02*
G54D22*
D03*
X60325Y575072D02*
G54D22*
D03*
X60127Y575072D02*
G54D22*
D03*
X59928Y575072D02*
G54D22*
D03*
X59730Y575072D02*
G54D22*
D03*
X59333Y575072D02*
G54D22*
D03*
X59134Y575072D02*
G54D22*
D03*
X58936Y575072D02*
G54D22*
D03*
X58738Y575072D02*
G54D22*
D03*
X58539Y575072D02*
G54D22*
D03*
X58341Y575072D02*
G54D22*
D03*
X58142Y575072D02*
G54D22*
D03*
X57944Y575072D02*
G54D22*
D03*
X57745Y575072D02*
G54D22*
D03*
X57547Y575072D02*
G54D22*
D03*
X57348Y575072D02*
G54D22*
D03*
X57150Y575072D02*
G54D22*
D03*
X55761Y575072D02*
G54D22*
D03*
X55959Y575072D02*
G54D22*
D03*
X56158Y575072D02*
G54D22*
D03*
X56356Y575072D02*
G54D22*
D03*
X56555Y575072D02*
G54D22*
D03*
X56753Y575072D02*
G54D22*
D03*
X63302Y503634D02*
G54D22*
D03*
X63103Y503634D02*
G54D22*
D03*
X62905Y503634D02*
G54D22*
D03*
X62706Y503634D02*
G54D22*
D03*
X62508Y503634D02*
G54D22*
D03*
X62309Y503634D02*
G54D22*
D03*
X62111Y503634D02*
G54D22*
D03*
X61912Y503634D02*
G54D22*
D03*
X61714Y503634D02*
G54D22*
D03*
X61516Y503634D02*
G54D22*
D03*
X61317Y503634D02*
G54D22*
D03*
X61119Y503634D02*
G54D22*
D03*
X60920Y503634D02*
G54D22*
D03*
X60722Y503634D02*
G54D22*
D03*
X60523Y503634D02*
G54D22*
D03*
X60325Y503634D02*
G54D22*
D03*
X60127Y503634D02*
G54D22*
D03*
X59928Y503634D02*
G54D22*
D03*
X55761Y503634D02*
G54D22*
D03*
X55959Y503634D02*
G54D22*
D03*
X56158Y503634D02*
G54D22*
D03*
X56356Y503634D02*
G54D22*
D03*
X56555Y503634D02*
G54D22*
D03*
X56753Y503634D02*
G54D22*
D03*
X56952Y503634D02*
G54D22*
D03*
X57150Y503634D02*
G54D22*
D03*
X57348Y503634D02*
G54D22*
D03*
X57547Y503634D02*
G54D22*
D03*
X57745Y503634D02*
G54D22*
D03*
X57944Y503634D02*
G54D22*
D03*
X58142Y503634D02*
G54D22*
D03*
X58341Y503634D02*
G54D22*
D03*
X58539Y503634D02*
G54D22*
D03*
X58539Y503634D02*
G54D22*
D03*
X58738Y503634D02*
G54D22*
D03*
X58936Y503634D02*
G54D22*
D03*
X59134Y503634D02*
G54D22*
D03*
X28972Y575072D02*
G54D22*
D03*
X21034Y575072D02*
G54D22*
D03*
X25003Y575072D02*
G54D22*
D03*
X28773Y575072D02*
G54D22*
D03*
X28575Y575072D02*
G54D22*
D03*
X28377Y575072D02*
G54D22*
D03*
X28178Y575072D02*
G54D22*
D03*
X27980Y575072D02*
G54D22*
D03*
X27781Y575072D02*
G54D22*
D03*
X27583Y575072D02*
G54D22*
D03*
X27384Y575072D02*
G54D22*
D03*
X27186Y575072D02*
G54D22*
D03*
X26988Y575072D02*
G54D22*
D03*
X26789Y575072D02*
G54D22*
D03*
X26591Y575072D02*
G54D22*
D03*
X26392Y575072D02*
G54D22*
D03*
X26194Y575072D02*
G54D22*
D03*
X25995Y575072D02*
G54D22*
D03*
X25797Y575072D02*
G54D22*
D03*
X25598Y575072D02*
G54D22*
D03*
X25400Y575072D02*
G54D22*
D03*
X25202Y575072D02*
G54D22*
D03*
X24805Y575072D02*
G54D22*
D03*
X24606Y575072D02*
G54D22*
D03*
X24408Y575072D02*
G54D22*
D03*
X24209Y575072D02*
G54D22*
D03*
X24011Y575072D02*
G54D22*
D03*
X23812Y575072D02*
G54D22*
D03*
X23614Y575072D02*
G54D22*
D03*
X23416Y575072D02*
G54D22*
D03*
X23217Y575072D02*
G54D22*
D03*
X23019Y575072D02*
G54D22*
D03*
X22820Y575072D02*
G54D22*
D03*
X22622Y575072D02*
G54D22*
D03*
X21233Y575072D02*
G54D22*
D03*
X21431Y575072D02*
G54D22*
D03*
X21630Y575072D02*
G54D22*
D03*
X21828Y575072D02*
G54D22*
D03*
X22027Y575072D02*
G54D22*
D03*
X22225Y575072D02*
G54D22*
D03*
X28972Y503634D02*
G54D22*
D03*
X21034Y503634D02*
G54D22*
D03*
X25003Y503634D02*
G54D22*
D03*
X28773Y503634D02*
G54D22*
D03*
X28575Y503634D02*
G54D22*
D03*
X28377Y503634D02*
G54D22*
D03*
X28178Y503634D02*
G54D22*
D03*
X27980Y503634D02*
G54D22*
D03*
X27781Y503634D02*
G54D22*
D03*
X27583Y503634D02*
G54D22*
D03*
X27384Y503634D02*
G54D22*
D03*
X27186Y503634D02*
G54D22*
D03*
X26988Y503634D02*
G54D22*
D03*
X26789Y503634D02*
G54D22*
D03*
X26591Y503634D02*
G54D22*
D03*
X26392Y503634D02*
G54D22*
D03*
X26194Y503634D02*
G54D22*
D03*
X25995Y503634D02*
G54D22*
D03*
X25797Y503634D02*
G54D22*
D03*
X25598Y503634D02*
G54D22*
D03*
X25400Y503634D02*
G54D22*
D03*
X21233Y503634D02*
G54D22*
D03*
X21431Y503634D02*
G54D22*
D03*
X21630Y503634D02*
G54D22*
D03*
X21828Y503634D02*
G54D22*
D03*
X22027Y503634D02*
G54D22*
D03*
X22225Y503634D02*
G54D22*
D03*
X22423Y503634D02*
G54D22*
D03*
X22622Y503634D02*
G54D22*
D03*
X22820Y503634D02*
G54D22*
D03*
X23019Y503634D02*
G54D22*
D03*
X23217Y503634D02*
G54D22*
D03*
X23416Y503634D02*
G54D22*
D03*
X23614Y503634D02*
G54D22*
D03*
X23812Y503634D02*
G54D22*
D03*
X24011Y503634D02*
G54D22*
D03*
X24011Y503634D02*
G54D22*
D03*
X24209Y503634D02*
G54D22*
D03*
X24408Y503634D02*
G54D22*
D03*
X24606Y503634D02*
G54D22*
D03*
X21828Y575072D02*
G54D22*
D03*
X22622Y575072D02*
G54D22*
D03*
X23416Y575072D02*
G54D22*
D03*
X24209Y575072D02*
G54D22*
D03*
X25003Y575072D02*
G54D22*
D03*
X25797Y575072D02*
G54D22*
D03*
X26591Y575072D02*
G54D22*
D03*
X27384Y575072D02*
G54D22*
D03*
X28178Y575072D02*
G54D22*
D03*
X56356Y575072D02*
G54D22*
D03*
X57150Y575072D02*
G54D22*
D03*
X57944Y575072D02*
G54D22*
D03*
X58738Y575072D02*
G54D22*
D03*
X59531Y575072D02*
G54D22*
D03*
X60325Y575072D02*
G54D22*
D03*
X61119Y575072D02*
G54D22*
D03*
X61912Y575072D02*
G54D22*
D03*
X62706Y575072D02*
G54D22*
D03*
X63500Y575072D02*
G54D22*
D03*
X28972Y575072D02*
G54D22*
D03*
X21034Y503634D02*
G54D22*
D03*
X21828Y503634D02*
G54D22*
D03*
X22622Y503634D02*
G54D22*
D03*
X23416Y503634D02*
G54D22*
D03*
X24209Y503634D02*
G54D22*
D03*
X25003Y503634D02*
G54D22*
D03*
X25797Y503634D02*
G54D22*
D03*
X26591Y503634D02*
G54D22*
D03*
X27384Y503634D02*
G54D22*
D03*
X28178Y503634D02*
G54D22*
D03*
X28972Y503634D02*
G54D22*
D03*
X55562Y503634D02*
G54D22*
D03*
X56356Y503634D02*
G54D22*
D03*
X57150Y503634D02*
G54D22*
D03*
X57944Y503634D02*
G54D22*
D03*
X58738Y503634D02*
G54D22*
D03*
X59531Y503634D02*
G54D22*
D03*
X60325Y503634D02*
G54D22*
D03*
X61119Y503634D02*
G54D22*
D03*
X61912Y503634D02*
G54D22*
D03*
X62706Y503634D02*
G54D22*
D03*
X63500Y503634D02*
G54D22*
D03*
X21034Y575072D02*
G54D22*
D03*
X28972Y575072D02*
G54D22*
D03*
X55562Y575072D02*
G54D22*
D03*
X580231Y366712D02*
G54D11*
D03*
X580230Y341309D02*
G54D11*
D03*
X554831Y366712D02*
G54D11*
D03*
X554831Y341312D02*
G54D11*
D03*
X529431Y366712D02*
G54D11*
D03*
X529431Y341312D02*
G54D11*
D03*
X504030Y366709D02*
G54D11*
D03*
X504031Y341312D02*
G54D11*
D03*
X478631Y366712D02*
G54D11*
D03*
X478631Y341312D02*
G54D11*
D03*
X453230Y366709D02*
G54D11*
D03*
X453231Y341312D02*
G54D11*
D03*
X427831Y366712D02*
G54D11*
D03*
X427831Y341312D02*
G54D11*
D03*
X402431Y366712D02*
G54D11*
D03*
X402430Y341309D02*
G54D11*
D03*
X377031Y366712D02*
G54D11*
D03*
X377031Y341312D02*
G54D11*
D03*
X351631Y366712D02*
G54D11*
D03*
X351631Y341312D02*
G54D11*
D03*
X326230Y366709D02*
G54D11*
D03*
X326231Y341312D02*
G54D11*
D03*
X300831Y366712D02*
G54D11*
D03*
X300831Y341312D02*
G54D11*
D03*
X275431Y366712D02*
G54D11*
D03*
X275431Y341312D02*
G54D11*
D03*
X250030Y366709D02*
G54D11*
D03*
X250031Y341312D02*
G54D11*
D03*
X224631Y366712D02*
G54D11*
D03*
X224631Y341312D02*
G54D11*
D03*
X199231Y366712D02*
G54D11*
D03*
X199230Y341309D02*
G54D11*
D03*
X173831Y366712D02*
G54D11*
D03*
X173831Y341312D02*
G54D11*
D03*
X148430Y366709D02*
G54D11*
D03*
X123031Y366712D02*
G54D11*
D03*
X97631Y366712D02*
G54D11*
D03*
X148431Y341312D02*
G54D11*
D03*
X123031Y341312D02*
G54D11*
D03*
X97631Y341312D02*
G54D11*
D03*
X291272Y235531D02*
G54D12*
D03*
X284772Y235531D02*
G54D12*
D03*
X278272Y235531D02*
G54D12*
D03*
X271772Y235531D02*
G54D12*
D03*
X265272Y235531D02*
G54D12*
D03*
X258772Y235531D02*
G54D12*
D03*
X252272Y235531D02*
G54D12*
D03*
X245772Y235531D02*
G54D12*
D03*
X239272Y235531D02*
G54D12*
D03*
X232772Y235531D02*
G54D12*
D03*
X226272Y235531D02*
G54D12*
D03*
X219772Y235531D02*
G54D12*
D03*
X213272Y235531D02*
G54D12*
D03*
X206772Y235531D02*
G54D12*
D03*
X291272Y304403D02*
G54D12*
D03*
X284772Y304403D02*
G54D12*
D03*
X278272Y304403D02*
G54D12*
D03*
X271772Y304403D02*
G54D12*
D03*
X265272Y304403D02*
G54D12*
D03*
X258772Y304403D02*
G54D12*
D03*
X252272Y304403D02*
G54D12*
D03*
X245772Y304403D02*
G54D12*
D03*
X239272Y304403D02*
G54D12*
D03*
X232772Y304403D02*
G54D12*
D03*
X226272Y304403D02*
G54D12*
D03*
X219772Y304403D02*
G54D12*
D03*
X213272Y304403D02*
G54D12*
D03*
X206772Y304403D02*
G54D12*
D03*
X291272Y303609D02*
G54D12*
D03*
X284772Y303609D02*
G54D12*
D03*
X278272Y303609D02*
G54D12*
D03*
X271772Y303609D02*
G54D12*
D03*
X265272Y303609D02*
G54D12*
D03*
X258772Y303609D02*
G54D12*
D03*
X252272Y303609D02*
G54D12*
D03*
X245772Y303609D02*
G54D12*
D03*
X239272Y303609D02*
G54D12*
D03*
X232772Y303609D02*
G54D12*
D03*
X226272Y303609D02*
G54D12*
D03*
X219772Y303609D02*
G54D12*
D03*
X213272Y303609D02*
G54D12*
D03*
X206772Y303609D02*
G54D12*
D03*
X291272Y236325D02*
G54D12*
D03*
X284772Y236325D02*
G54D12*
D03*
X278272Y236325D02*
G54D12*
D03*
X271772Y236325D02*
G54D12*
D03*
X265272Y236325D02*
G54D12*
D03*
X258772Y236325D02*
G54D12*
D03*
X252272Y236325D02*
G54D12*
D03*
X245772Y236325D02*
G54D12*
D03*
X239272Y236325D02*
G54D12*
D03*
X232772Y236325D02*
G54D12*
D03*
X226272Y236325D02*
G54D12*
D03*
X219772Y236325D02*
G54D12*
D03*
X213272Y236325D02*
G54D12*
D03*
X206772Y236325D02*
G54D12*
D03*
X291272Y236722D02*
G54D12*
D03*
X284772Y236722D02*
G54D12*
D03*
X278272Y236722D02*
G54D12*
D03*
X271772Y236722D02*
G54D12*
D03*
X265272Y236722D02*
G54D12*
D03*
X258772Y236722D02*
G54D12*
D03*
X252272Y236722D02*
G54D12*
D03*
X245772Y236722D02*
G54D12*
D03*
X239272Y236722D02*
G54D12*
D03*
X232772Y236722D02*
G54D12*
D03*
X226272Y236722D02*
G54D12*
D03*
X219772Y236722D02*
G54D12*
D03*
X213272Y236722D02*
G54D12*
D03*
X206772Y236722D02*
G54D12*
D03*
X291272Y303212D02*
G54D12*
D03*
X284772Y303212D02*
G54D12*
D03*
X278272Y303212D02*
G54D12*
D03*
X271772Y303212D02*
G54D12*
D03*
X265272Y303212D02*
G54D12*
D03*
X258772Y303213D02*
G54D12*
D03*
X252272Y303212D02*
G54D12*
D03*
X245772Y303212D02*
G54D12*
D03*
X239272Y303212D02*
G54D12*
D03*
X232772Y303212D02*
G54D12*
D03*
X226272Y303212D02*
G54D12*
D03*
X219772Y303212D02*
G54D12*
D03*
X213272Y303212D02*
G54D12*
D03*
X206772Y303212D02*
G54D12*
D03*
X164306Y286345D02*
G54D13*
D03*
X183356Y286345D02*
G54D13*
D03*
X164306Y264319D02*
G54D13*
D03*
X173831Y264319D02*
G54D13*
D03*
X183356Y264319D02*
G54D13*
D03*
X141288Y275431D02*
G54D14*
D03*
X99219Y275431D02*
G54D14*
D03*
X407988Y302419D02*
G54D15*
D03*
X414487Y302419D02*
G54D15*
D03*
X407591Y243072D02*
G54D15*
D03*
X414091Y243072D02*
G54D15*
D03*
X420591Y243072D02*
G54D15*
D03*
X427091Y243072D02*
G54D15*
D03*
X420988Y302419D02*
G54D15*
D03*
X427488Y302419D02*
G54D15*
D03*
X193675Y143669D02*
G54D16*
D03*
X174675Y143669D02*
G54D16*
D03*
X193675Y111919D02*
G54D16*
D03*
X174675Y111919D02*
G54D16*
D03*
X146050Y111919D02*
G54D16*
D03*
X127050Y111919D02*
G54D16*
D03*
X146050Y143669D02*
G54D16*
D03*
X127050Y143669D02*
G54D16*
D03*
X317475Y284931D02*
G54D17*
D03*
X317475Y265931D02*
G54D17*
D03*
X346050Y284931D02*
G54D17*
D03*
X346050Y265931D02*
G54D17*
D03*
X374625Y284931D02*
G54D17*
D03*
X374625Y265931D02*
G54D17*
D03*
X449238Y282154D02*
G54D17*
D03*
X449238Y263154D02*
G54D17*
D03*
X228600Y194469D02*
G54D11*
D03*
X228600Y169069D02*
G54D11*
D03*
X228600Y143669D02*
G54D11*
D03*
X228600Y118269D02*
G54D11*
D03*
X184175Y194494D02*
G54D17*
D03*
X184175Y213494D02*
G54D17*
D03*
X130200Y194494D02*
G54D17*
D03*
X130200Y213494D02*
G54D17*
D03*
X104800Y194494D02*
G54D17*
D03*
X104800Y213494D02*
G54D17*
D03*
G54D18*
X588641Y229219D02*
X587441Y227219D01*
X585041Y226219D01*
X582641Y226219D01*
X580241Y227219D01*
X579041Y229219D01*
X579041Y239219D01*
X580241Y241219D01*
X582641Y242219D01*
X585041Y242219D01*
X587441Y241219D01*
X588641Y239219D01*
G54D18*
X600241Y228619D02*
X600241Y232619D01*
X599041Y234619D01*
X596641Y235219D01*
X594241Y234619D01*
X593041Y232619D01*
X593041Y228619D01*
X594241Y226619D01*
X596641Y226219D01*
X599041Y226619D01*
X600241Y228619D01*
G54D18*
X604641Y226219D02*
X604641Y235219D01*
G54D18*
X604641Y233219D02*
X605841Y234619D01*
X608241Y235219D01*
X610641Y234619D01*
X611841Y233219D01*
X611841Y226219D01*
G54D18*
X616241Y227219D02*
X618641Y226219D01*
X621041Y226219D01*
X623441Y227219D01*
X623441Y229219D01*
X622241Y230219D01*
X617441Y231219D01*
X616241Y232219D01*
X616241Y234219D01*
X618641Y235219D01*
X621041Y235219D01*
X623441Y234219D01*
G54D18*
X635041Y228619D02*
X635041Y232619D01*
X633841Y234619D01*
X631441Y235219D01*
X629041Y234619D01*
X627841Y232619D01*
X627841Y228619D01*
X629041Y226619D01*
X631441Y226219D01*
X633841Y226619D01*
X635041Y228619D01*
G54D18*
X639441Y226219D02*
X639441Y242219D01*
G54D18*
X651041Y227219D02*
X649121Y226219D01*
X646721Y226219D01*
X644321Y227219D01*
X643841Y229219D01*
X643841Y232619D01*
X645041Y234619D01*
X647441Y235219D01*
X649841Y234619D01*
X651041Y233219D01*
X651041Y231219D01*
X643841Y231219D01*
X488950Y245269D02*
G54D19*
D03*
X498475Y245269D02*
G54D19*
D03*
X503238Y245269D02*
G54D19*
D03*
X503238Y240506D02*
G54D19*
D03*
X498475Y235744D02*
G54D19*
D03*
X488950Y230981D02*
G54D19*
D03*
X488950Y226219D02*
G54D19*
D03*
X498475Y226219D02*
G54D19*
D03*
X503238Y226219D02*
G54D19*
D03*
X511175Y226219D02*
G54D19*
D03*
X511175Y230981D02*
G54D19*
D03*
X511175Y235744D02*
G54D19*
D03*
X511175Y240506D02*
G54D19*
D03*
X511175Y245269D02*
G54D19*
D03*
X515938Y245269D02*
G54D19*
D03*
X520700Y245269D02*
G54D19*
D03*
X515938Y235744D02*
G54D19*
D03*
X520700Y235744D02*
G54D19*
D03*
X515938Y226219D02*
G54D19*
D03*
X520700Y226219D02*
G54D19*
D03*
X533400Y245269D02*
G54D19*
D03*
X533400Y240506D02*
G54D19*
D03*
X533400Y235744D02*
G54D19*
D03*
X533400Y230981D02*
G54D19*
D03*
X533400Y226219D02*
G54D19*
D03*
X538162Y245269D02*
G54D19*
D03*
X538162Y235744D02*
G54D19*
D03*
X547688Y240506D02*
G54D19*
D03*
X547688Y230981D02*
G54D19*
D03*
X547688Y226219D02*
G54D19*
D03*
X555625Y240506D02*
G54D19*
D03*
X555625Y235744D02*
G54D19*
D03*
X555625Y230981D02*
G54D19*
D03*
X560388Y226219D02*
G54D19*
D03*
X565150Y226219D02*
G54D19*
D03*
X569912Y230981D02*
G54D19*
D03*
X569912Y235744D02*
G54D19*
D03*
X569912Y240506D02*
G54D19*
D03*
X560388Y245269D02*
G54D19*
D03*
X565150Y245269D02*
G54D19*
D03*
X149225Y309562D02*
G54D20*
D03*
X177225Y309562D02*
G54D20*
D03*
X555625Y245269D02*
G54D19*
D03*
X569912Y245269D02*
G54D19*
D03*
X569912Y226219D02*
G54D19*
D03*
X555625Y226219D02*
G54D19*
D03*
X493712Y245269D02*
G54D19*
D03*
X493712Y235744D02*
G54D19*
D03*
X493712Y226219D02*
G54D19*
D03*
X525462Y245269D02*
G54D19*
D03*
X525462Y235744D02*
G54D19*
D03*
X525462Y226219D02*
G54D19*
D03*
X542925Y245269D02*
G54D19*
D03*
X542925Y235744D02*
G54D19*
D03*
X355600Y235744D02*
G54D16*
D03*
X374600Y235744D02*
G54D16*
D03*
X479401Y282154D02*
G54D17*
D03*
X479401Y263154D02*
G54D17*
D03*
X479425Y280591D02*
G54D21*
D03*
X479425Y263922D02*
G54D21*
D03*
X21034Y275034D02*
G54D22*
D03*
X28972Y275034D02*
G54D22*
D03*
X28972Y203597D02*
G54D22*
D03*
X21034Y203597D02*
G54D22*
D03*
X63500Y275034D02*
G54D22*
D03*
X55562Y275034D02*
G54D22*
D03*
X63500Y203597D02*
G54D22*
D03*
X55562Y203597D02*
G54D22*
D03*
X59531Y275034D02*
G54D22*
D03*
X59531Y203597D02*
G54D22*
D03*
X25003Y203597D02*
G54D22*
D03*
X25003Y275034D02*
G54D22*
D03*
X54777Y239315D02*
G54D23*
D03*
X54777Y232815D02*
G54D23*
D03*
X54777Y226315D02*
G54D23*
D03*
X54777Y245815D02*
G54D23*
D03*
X54777Y252315D02*
G54D23*
D03*
X63302Y275034D02*
G54D22*
D03*
X63103Y275034D02*
G54D22*
D03*
X62905Y275034D02*
G54D22*
D03*
X62706Y275034D02*
G54D22*
D03*
X62508Y275034D02*
G54D22*
D03*
X62309Y275034D02*
G54D22*
D03*
X62111Y275034D02*
G54D22*
D03*
X61912Y275034D02*
G54D22*
D03*
X61714Y275034D02*
G54D22*
D03*
X61516Y275034D02*
G54D22*
D03*
X61317Y275034D02*
G54D22*
D03*
X61119Y275034D02*
G54D22*
D03*
X60920Y275034D02*
G54D22*
D03*
X60722Y275034D02*
G54D22*
D03*
X60523Y275034D02*
G54D22*
D03*
X60325Y275034D02*
G54D22*
D03*
X60127Y275034D02*
G54D22*
D03*
X59928Y275034D02*
G54D22*
D03*
X59730Y275034D02*
G54D22*
D03*
X59333Y275034D02*
G54D22*
D03*
X59134Y275034D02*
G54D22*
D03*
X58936Y275034D02*
G54D22*
D03*
X58738Y275034D02*
G54D22*
D03*
X58539Y275034D02*
G54D22*
D03*
X58341Y275034D02*
G54D22*
D03*
X58142Y275034D02*
G54D22*
D03*
X57944Y275034D02*
G54D22*
D03*
X57745Y275034D02*
G54D22*
D03*
X57547Y275034D02*
G54D22*
D03*
X57348Y275034D02*
G54D22*
D03*
X57150Y275034D02*
G54D22*
D03*
X55761Y275034D02*
G54D22*
D03*
X55959Y275034D02*
G54D22*
D03*
X56158Y275034D02*
G54D22*
D03*
X56356Y275034D02*
G54D22*
D03*
X56555Y275034D02*
G54D22*
D03*
X56753Y275034D02*
G54D22*
D03*
X63302Y203597D02*
G54D22*
D03*
X63103Y203597D02*
G54D22*
D03*
X62905Y203597D02*
G54D22*
D03*
X62706Y203597D02*
G54D22*
D03*
X62508Y203597D02*
G54D22*
D03*
X62309Y203597D02*
G54D22*
D03*
X62111Y203597D02*
G54D22*
D03*
X61912Y203597D02*
G54D22*
D03*
X61714Y203597D02*
G54D22*
D03*
X61516Y203597D02*
G54D22*
D03*
X61317Y203597D02*
G54D22*
D03*
X61119Y203597D02*
G54D22*
D03*
X60920Y203597D02*
G54D22*
D03*
X60722Y203597D02*
G54D22*
D03*
X60523Y203597D02*
G54D22*
D03*
X60325Y203597D02*
G54D22*
D03*
X60127Y203597D02*
G54D22*
D03*
X59928Y203597D02*
G54D22*
D03*
X55761Y203597D02*
G54D22*
D03*
X55959Y203597D02*
G54D22*
D03*
X56158Y203597D02*
G54D22*
D03*
X56356Y203597D02*
G54D22*
D03*
X56555Y203597D02*
G54D22*
D03*
X56753Y203597D02*
G54D22*
D03*
X56952Y203597D02*
G54D22*
D03*
X57150Y203597D02*
G54D22*
D03*
X57348Y203597D02*
G54D22*
D03*
X57547Y203597D02*
G54D22*
D03*
X57745Y203597D02*
G54D22*
D03*
X57944Y203597D02*
G54D22*
D03*
X58142Y203597D02*
G54D22*
D03*
X58341Y203597D02*
G54D22*
D03*
X58539Y203597D02*
G54D22*
D03*
X58539Y203597D02*
G54D22*
D03*
X58738Y203597D02*
G54D22*
D03*
X58936Y203597D02*
G54D22*
D03*
X59134Y203597D02*
G54D22*
D03*
X28972Y275034D02*
G54D22*
D03*
X21034Y275034D02*
G54D22*
D03*
X25003Y275034D02*
G54D22*
D03*
X28773Y275034D02*
G54D22*
D03*
X28575Y275034D02*
G54D22*
D03*
X28377Y275034D02*
G54D22*
D03*
X28178Y275034D02*
G54D22*
D03*
X27980Y275034D02*
G54D22*
D03*
X27781Y275034D02*
G54D22*
D03*
X27583Y275034D02*
G54D22*
D03*
X27384Y275034D02*
G54D22*
D03*
X27186Y275034D02*
G54D22*
D03*
X26988Y275034D02*
G54D22*
D03*
X26789Y275034D02*
G54D22*
D03*
X26591Y275034D02*
G54D22*
D03*
X26392Y275034D02*
G54D22*
D03*
X26194Y275034D02*
G54D22*
D03*
X25995Y275034D02*
G54D22*
D03*
X25797Y275034D02*
G54D22*
D03*
X25598Y275034D02*
G54D22*
D03*
X25400Y275034D02*
G54D22*
D03*
X25202Y275034D02*
G54D22*
D03*
X24805Y275034D02*
G54D22*
D03*
X24606Y275034D02*
G54D22*
D03*
X24408Y275034D02*
G54D22*
D03*
X24209Y275034D02*
G54D22*
D03*
X24011Y275034D02*
G54D22*
D03*
X23812Y275034D02*
G54D22*
D03*
X23614Y275034D02*
G54D22*
D03*
X23416Y275034D02*
G54D22*
D03*
X23217Y275034D02*
G54D22*
D03*
X23019Y275034D02*
G54D22*
D03*
X22820Y275034D02*
G54D22*
D03*
X22622Y275034D02*
G54D22*
D03*
X21233Y275034D02*
G54D22*
D03*
X21431Y275034D02*
G54D22*
D03*
X21630Y275034D02*
G54D22*
D03*
X21828Y275034D02*
G54D22*
D03*
X22027Y275034D02*
G54D22*
D03*
X22225Y275034D02*
G54D22*
D03*
X28972Y203597D02*
G54D22*
D03*
X21034Y203597D02*
G54D22*
D03*
X25003Y203597D02*
G54D22*
D03*
X28773Y203597D02*
G54D22*
D03*
X28575Y203597D02*
G54D22*
D03*
X28377Y203597D02*
G54D22*
D03*
X28178Y203597D02*
G54D22*
D03*
X27980Y203597D02*
G54D22*
D03*
X27781Y203597D02*
G54D22*
D03*
X27583Y203597D02*
G54D22*
D03*
X27384Y203597D02*
G54D22*
D03*
X27186Y203597D02*
G54D22*
D03*
X26988Y203597D02*
G54D22*
D03*
X26789Y203597D02*
G54D22*
D03*
X26591Y203597D02*
G54D22*
D03*
X26392Y203597D02*
G54D22*
D03*
X26194Y203597D02*
G54D22*
D03*
X25995Y203597D02*
G54D22*
D03*
X25797Y203597D02*
G54D22*
D03*
X25598Y203597D02*
G54D22*
D03*
X25400Y203597D02*
G54D22*
D03*
X21233Y203597D02*
G54D22*
D03*
X21431Y203597D02*
G54D22*
D03*
X21630Y203597D02*
G54D22*
D03*
X21828Y203597D02*
G54D22*
D03*
X22027Y203597D02*
G54D22*
D03*
X22225Y203597D02*
G54D22*
D03*
X22423Y203597D02*
G54D22*
D03*
X22622Y203597D02*
G54D22*
D03*
X22820Y203597D02*
G54D22*
D03*
X23019Y203597D02*
G54D22*
D03*
X23217Y203597D02*
G54D22*
D03*
X23416Y203597D02*
G54D22*
D03*
X23614Y203597D02*
G54D22*
D03*
X23812Y203597D02*
G54D22*
D03*
X24011Y203597D02*
G54D22*
D03*
X24011Y203597D02*
G54D22*
D03*
X24209Y203597D02*
G54D22*
D03*
X24408Y203597D02*
G54D22*
D03*
X24606Y203597D02*
G54D22*
D03*
X21828Y275034D02*
G54D22*
D03*
X22622Y275034D02*
G54D22*
D03*
X23416Y275034D02*
G54D22*
D03*
X24209Y275034D02*
G54D22*
D03*
X25003Y275034D02*
G54D22*
D03*
X25797Y275034D02*
G54D22*
D03*
X26591Y275034D02*
G54D22*
D03*
X27384Y275034D02*
G54D22*
D03*
X28178Y275034D02*
G54D22*
D03*
X56356Y275034D02*
G54D22*
D03*
X57150Y275034D02*
G54D22*
D03*
X57944Y275034D02*
G54D22*
D03*
X58738Y275034D02*
G54D22*
D03*
X59531Y275034D02*
G54D22*
D03*
X60325Y275034D02*
G54D22*
D03*
X61119Y275034D02*
G54D22*
D03*
X61912Y275034D02*
G54D22*
D03*
X62706Y275034D02*
G54D22*
D03*
X63500Y275034D02*
G54D22*
D03*
X28972Y275034D02*
G54D22*
D03*
X21034Y203597D02*
G54D22*
D03*
X21828Y203597D02*
G54D22*
D03*
X22622Y203597D02*
G54D22*
D03*
X23416Y203597D02*
G54D22*
D03*
X24209Y203597D02*
G54D22*
D03*
X25003Y203597D02*
G54D22*
D03*
X25797Y203597D02*
G54D22*
D03*
X26591Y203597D02*
G54D22*
D03*
X27384Y203597D02*
G54D22*
D03*
X28178Y203597D02*
G54D22*
D03*
X28972Y203597D02*
G54D22*
D03*
X55562Y203597D02*
G54D22*
D03*
X56356Y203597D02*
G54D22*
D03*
X57150Y203597D02*
G54D22*
D03*
X57944Y203597D02*
G54D22*
D03*
X58738Y203597D02*
G54D22*
D03*
X59531Y203597D02*
G54D22*
D03*
X60325Y203597D02*
G54D22*
D03*
X61119Y203597D02*
G54D22*
D03*
X61912Y203597D02*
G54D22*
D03*
X62706Y203597D02*
G54D22*
D03*
X63500Y203597D02*
G54D22*
D03*
X21034Y275034D02*
G54D22*
D03*
X28972Y275034D02*
G54D22*
D03*
X55562Y275034D02*
G54D22*
D03*
M02*
