%FSLAX34Y34*%
%MOMM*%
%LNSILK_TOP*%
G71*
G01*
%ADD10C, 0.00*%
%ADD11C, 6.00*%
%ADD12C, 2.40*%
%ADD13C, 1.30*%
%ADD14C, 0.90*%
%ADD15C, 0.55*%
%ADD16C, 1.85*%
%ADD17C, 1.46*%
%ADD18C, 0.50*%
%ADD19C, 0.53*%
%ADD20C, 3.00*%
%ADD21C, 1.60*%
%ADD22C, 0.50*%
%ADD23C, 0.15*%
%ADD24C, 1.05*%
%LPD*%
G54D10*
X0Y1000000D02*
X680000Y1000000D01*
X680000Y70000D01*
X0Y70000D01*
X0Y1000000D01*
G36*
X0Y1000000D02*
X680000Y1000000D01*
X680000Y70000D01*
X0Y70000D01*
X0Y1000000D01*
G37*
%LPC*%
X48816Y954088D02*
G54D11*
D03*
X628253Y724694D02*
G54D11*
D03*
X48816Y724694D02*
G54D11*
D03*
X628253Y954088D02*
G54D11*
D03*
X580231Y966788D02*
G54D12*
D03*
X580230Y941384D02*
G54D12*
D03*
X554831Y966788D02*
G54D12*
D03*
X554831Y941388D02*
G54D12*
D03*
X529431Y966788D02*
G54D12*
D03*
X529431Y941388D02*
G54D12*
D03*
X504030Y966784D02*
G54D12*
D03*
X504031Y941388D02*
G54D12*
D03*
X478631Y966788D02*
G54D12*
D03*
X478631Y941388D02*
G54D12*
D03*
X453230Y966784D02*
G54D12*
D03*
X453231Y941388D02*
G54D12*
D03*
X427831Y966788D02*
G54D12*
D03*
X427831Y941388D02*
G54D12*
D03*
X402431Y966788D02*
G54D12*
D03*
X402430Y941384D02*
G54D12*
D03*
X377031Y966788D02*
G54D12*
D03*
X377031Y941388D02*
G54D12*
D03*
X351631Y966788D02*
G54D12*
D03*
X351631Y941388D02*
G54D12*
D03*
X326230Y966784D02*
G54D12*
D03*
X326231Y941388D02*
G54D12*
D03*
X300831Y966788D02*
G54D12*
D03*
X300831Y941388D02*
G54D12*
D03*
X275431Y966788D02*
G54D12*
D03*
X275431Y941388D02*
G54D12*
D03*
X250030Y966784D02*
G54D12*
D03*
X250031Y941388D02*
G54D12*
D03*
X224631Y966788D02*
G54D12*
D03*
X224631Y941388D02*
G54D12*
D03*
X199231Y966788D02*
G54D12*
D03*
X199230Y941384D02*
G54D12*
D03*
X173831Y966788D02*
G54D12*
D03*
X173831Y941388D02*
G54D12*
D03*
X148430Y966784D02*
G54D12*
D03*
X123031Y966788D02*
G54D12*
D03*
X97631Y966788D02*
G54D12*
D03*
X148431Y941388D02*
G54D12*
D03*
X123031Y941388D02*
G54D12*
D03*
X97631Y941388D02*
G54D12*
D03*
X84733Y845939D02*
G54D13*
D03*
X84733Y839391D02*
G54D13*
D03*
X271859Y885627D02*
G54D14*
D03*
X219869Y853678D02*
G54D14*
D03*
X84733Y852488D02*
G54D13*
D03*
X84733Y833041D02*
G54D13*
D03*
X84733Y826492D02*
G54D13*
D03*
G54D15*
X219869Y853678D02*
X219869Y863997D01*
X226219Y870347D01*
X267494Y870347D01*
X272256Y875109D01*
X272256Y885230D01*
X271859Y885627D01*
X139700Y832644D02*
G54D14*
D03*
X158750Y832644D02*
G54D14*
D03*
G54D15*
X148431Y941388D02*
X148431Y779462D01*
X158750Y769144D01*
X228600Y769144D01*
X228600Y794544D02*
G54D12*
D03*
X228600Y769144D02*
G54D12*
D03*
X228600Y743744D02*
G54D12*
D03*
X228600Y718344D02*
G54D12*
D03*
G54D15*
X123031Y941388D02*
X123031Y842962D01*
X133350Y832644D01*
X139700Y832644D01*
G54D15*
X158750Y832644D02*
X212725Y832644D01*
X228600Y816769D01*
X228600Y794544D01*
X130200Y813569D02*
G54D14*
D03*
G54D15*
X84733Y845939D02*
X110530Y845939D01*
X130175Y826294D01*
X130175Y813594D01*
X130200Y813569D01*
X21034Y875109D02*
G54D16*
D03*
X28972Y875109D02*
G54D16*
D03*
X28972Y803672D02*
G54D16*
D03*
X21034Y803672D02*
G54D16*
D03*
X63500Y875109D02*
G54D16*
D03*
X55562Y875109D02*
G54D16*
D03*
X63500Y803672D02*
G54D16*
D03*
X55562Y803672D02*
G54D16*
D03*
X59531Y875109D02*
G54D16*
D03*
X59531Y803672D02*
G54D16*
D03*
X25003Y803672D02*
G54D16*
D03*
X25003Y875109D02*
G54D16*
D03*
X46236Y859433D02*
G54D17*
D03*
X46236Y819348D02*
G54D17*
D03*
X63302Y875109D02*
G54D16*
D03*
X63103Y875109D02*
G54D16*
D03*
X62905Y875109D02*
G54D16*
D03*
X62706Y875109D02*
G54D16*
D03*
X62508Y875109D02*
G54D16*
D03*
X62309Y875109D02*
G54D16*
D03*
X62111Y875109D02*
G54D16*
D03*
X61912Y875109D02*
G54D16*
D03*
X61714Y875109D02*
G54D16*
D03*
X61516Y875109D02*
G54D16*
D03*
X61317Y875109D02*
G54D16*
D03*
X61119Y875109D02*
G54D16*
D03*
X60920Y875109D02*
G54D16*
D03*
X60722Y875109D02*
G54D16*
D03*
X60523Y875109D02*
G54D16*
D03*
X60325Y875109D02*
G54D16*
D03*
X60127Y875109D02*
G54D16*
D03*
X59928Y875109D02*
G54D16*
D03*
X59730Y875109D02*
G54D16*
D03*
X59333Y875109D02*
G54D16*
D03*
X59134Y875109D02*
G54D16*
D03*
X58936Y875109D02*
G54D16*
D03*
X58738Y875109D02*
G54D16*
D03*
X58539Y875109D02*
G54D16*
D03*
X58341Y875109D02*
G54D16*
D03*
X58142Y875109D02*
G54D16*
D03*
X57944Y875109D02*
G54D16*
D03*
X57745Y875109D02*
G54D16*
D03*
X57547Y875109D02*
G54D16*
D03*
X57348Y875109D02*
G54D16*
D03*
X57150Y875109D02*
G54D16*
D03*
X55761Y875109D02*
G54D16*
D03*
X55959Y875109D02*
G54D16*
D03*
X56158Y875109D02*
G54D16*
D03*
X56356Y875109D02*
G54D16*
D03*
X56555Y875109D02*
G54D16*
D03*
X56753Y875109D02*
G54D16*
D03*
X63302Y803672D02*
G54D16*
D03*
X63103Y803672D02*
G54D16*
D03*
X62905Y803672D02*
G54D16*
D03*
X62706Y803672D02*
G54D16*
D03*
X62508Y803672D02*
G54D16*
D03*
X62309Y803672D02*
G54D16*
D03*
X62111Y803672D02*
G54D16*
D03*
X61912Y803672D02*
G54D16*
D03*
X61714Y803672D02*
G54D16*
D03*
X61516Y803672D02*
G54D16*
D03*
X61317Y803672D02*
G54D16*
D03*
X61119Y803672D02*
G54D16*
D03*
X60920Y803672D02*
G54D16*
D03*
X60722Y803672D02*
G54D16*
D03*
X60523Y803672D02*
G54D16*
D03*
X60325Y803672D02*
G54D16*
D03*
X60127Y803672D02*
G54D16*
D03*
X59928Y803672D02*
G54D16*
D03*
X55761Y803672D02*
G54D16*
D03*
X55959Y803672D02*
G54D16*
D03*
X56158Y803672D02*
G54D16*
D03*
X56356Y803672D02*
G54D16*
D03*
X56555Y803672D02*
G54D16*
D03*
X56753Y803672D02*
G54D16*
D03*
X56952Y803672D02*
G54D16*
D03*
X57150Y803672D02*
G54D16*
D03*
X57348Y803672D02*
G54D16*
D03*
X57547Y803672D02*
G54D16*
D03*
X57745Y803672D02*
G54D16*
D03*
X57944Y803672D02*
G54D16*
D03*
X58142Y803672D02*
G54D16*
D03*
X58341Y803672D02*
G54D16*
D03*
X58539Y803672D02*
G54D16*
D03*
X58539Y803672D02*
G54D16*
D03*
X58738Y803672D02*
G54D16*
D03*
X58936Y803672D02*
G54D16*
D03*
X59134Y803672D02*
G54D16*
D03*
X28972Y875109D02*
G54D16*
D03*
X21034Y875109D02*
G54D16*
D03*
X25003Y875109D02*
G54D16*
D03*
X28773Y875109D02*
G54D16*
D03*
X28575Y875109D02*
G54D16*
D03*
X28377Y875109D02*
G54D16*
D03*
X28178Y875109D02*
G54D16*
D03*
X27980Y875109D02*
G54D16*
D03*
X27781Y875109D02*
G54D16*
D03*
X27583Y875109D02*
G54D16*
D03*
X27384Y875109D02*
G54D16*
D03*
X27186Y875109D02*
G54D16*
D03*
X26988Y875109D02*
G54D16*
D03*
X26789Y875109D02*
G54D16*
D03*
X26591Y875109D02*
G54D16*
D03*
X26392Y875109D02*
G54D16*
D03*
X26194Y875109D02*
G54D16*
D03*
X25995Y875109D02*
G54D16*
D03*
X25797Y875109D02*
G54D16*
D03*
X25598Y875109D02*
G54D16*
D03*
X25400Y875109D02*
G54D16*
D03*
X25202Y875109D02*
G54D16*
D03*
X24805Y875109D02*
G54D16*
D03*
X24606Y875109D02*
G54D16*
D03*
X24408Y875109D02*
G54D16*
D03*
X24209Y875109D02*
G54D16*
D03*
X24011Y875109D02*
G54D16*
D03*
X23812Y875109D02*
G54D16*
D03*
X23614Y875109D02*
G54D16*
D03*
X23416Y875109D02*
G54D16*
D03*
X23217Y875109D02*
G54D16*
D03*
X23019Y875109D02*
G54D16*
D03*
X22820Y875109D02*
G54D16*
D03*
X22622Y875109D02*
G54D16*
D03*
X21233Y875109D02*
G54D16*
D03*
X21431Y875109D02*
G54D16*
D03*
X21630Y875109D02*
G54D16*
D03*
X21828Y875109D02*
G54D16*
D03*
X22027Y875109D02*
G54D16*
D03*
X22225Y875109D02*
G54D16*
D03*
X28972Y803672D02*
G54D16*
D03*
X21034Y803672D02*
G54D16*
D03*
X25003Y803672D02*
G54D16*
D03*
X28773Y803672D02*
G54D16*
D03*
X28575Y803672D02*
G54D16*
D03*
X28377Y803672D02*
G54D16*
D03*
X28178Y803672D02*
G54D16*
D03*
X27980Y803672D02*
G54D16*
D03*
X27781Y803672D02*
G54D16*
D03*
X27583Y803672D02*
G54D16*
D03*
X27384Y803672D02*
G54D16*
D03*
X27186Y803672D02*
G54D16*
D03*
X26988Y803672D02*
G54D16*
D03*
X26789Y803672D02*
G54D16*
D03*
X26591Y803672D02*
G54D16*
D03*
X26392Y803672D02*
G54D16*
D03*
X26194Y803672D02*
G54D16*
D03*
X25995Y803672D02*
G54D16*
D03*
X25797Y803672D02*
G54D16*
D03*
X25598Y803672D02*
G54D16*
D03*
X25400Y803672D02*
G54D16*
D03*
X21233Y803672D02*
G54D16*
D03*
X21431Y803672D02*
G54D16*
D03*
X21630Y803672D02*
G54D16*
D03*
X21828Y803672D02*
G54D16*
D03*
X22027Y803672D02*
G54D16*
D03*
X22225Y803672D02*
G54D16*
D03*
X22423Y803672D02*
G54D16*
D03*
X22622Y803672D02*
G54D16*
D03*
X22820Y803672D02*
G54D16*
D03*
X23019Y803672D02*
G54D16*
D03*
X23217Y803672D02*
G54D16*
D03*
X23416Y803672D02*
G54D16*
D03*
X23614Y803672D02*
G54D16*
D03*
X23812Y803672D02*
G54D16*
D03*
X24011Y803672D02*
G54D16*
D03*
X24011Y803672D02*
G54D16*
D03*
X24209Y803672D02*
G54D16*
D03*
X24408Y803672D02*
G54D16*
D03*
X24606Y803672D02*
G54D16*
D03*
G54D18*
X25400Y885031D02*
X25400Y865981D01*
G54D18*
X60325Y885031D02*
X60325Y864394D01*
G54D18*
X25400Y794544D02*
X25400Y813594D01*
G54D18*
X60325Y794544D02*
X60325Y813594D01*
X21828Y875109D02*
G54D16*
D03*
X22622Y875109D02*
G54D16*
D03*
X23416Y875109D02*
G54D16*
D03*
X24209Y875109D02*
G54D16*
D03*
X25003Y875109D02*
G54D16*
D03*
X25797Y875109D02*
G54D16*
D03*
X26591Y875109D02*
G54D16*
D03*
X27384Y875109D02*
G54D16*
D03*
X28178Y875109D02*
G54D16*
D03*
X56356Y875109D02*
G54D16*
D03*
X57150Y875109D02*
G54D16*
D03*
X57944Y875109D02*
G54D16*
D03*
X58738Y875109D02*
G54D16*
D03*
X59531Y875109D02*
G54D16*
D03*
X60325Y875109D02*
G54D16*
D03*
X61119Y875109D02*
G54D16*
D03*
X61912Y875109D02*
G54D16*
D03*
X62706Y875109D02*
G54D16*
D03*
X63500Y875109D02*
G54D16*
D03*
X28972Y875109D02*
G54D16*
D03*
X21034Y803672D02*
G54D16*
D03*
X21828Y803672D02*
G54D16*
D03*
X22622Y803672D02*
G54D16*
D03*
X23416Y803672D02*
G54D16*
D03*
X24209Y803672D02*
G54D16*
D03*
X25003Y803672D02*
G54D16*
D03*
X25797Y803672D02*
G54D16*
D03*
X26591Y803672D02*
G54D16*
D03*
X27384Y803672D02*
G54D16*
D03*
X28178Y803672D02*
G54D16*
D03*
X28972Y803672D02*
G54D16*
D03*
X55562Y803672D02*
G54D16*
D03*
X56356Y803672D02*
G54D16*
D03*
X57150Y803672D02*
G54D16*
D03*
X57944Y803672D02*
G54D16*
D03*
X58738Y803672D02*
G54D16*
D03*
X59531Y803672D02*
G54D16*
D03*
X60325Y803672D02*
G54D16*
D03*
X61119Y803672D02*
G54D16*
D03*
X61912Y803672D02*
G54D16*
D03*
X62706Y803672D02*
G54D16*
D03*
X63500Y803672D02*
G54D16*
D03*
X21034Y875109D02*
G54D16*
D03*
X28972Y875109D02*
G54D16*
D03*
X55562Y875109D02*
G54D16*
D03*
X48816Y654050D02*
G54D11*
D03*
X628253Y424656D02*
G54D11*
D03*
X48816Y424656D02*
G54D11*
D03*
X628253Y654050D02*
G54D11*
D03*
X580231Y666750D02*
G54D12*
D03*
X580230Y641346D02*
G54D12*
D03*
X554831Y666750D02*
G54D12*
D03*
X554831Y641350D02*
G54D12*
D03*
X529431Y666750D02*
G54D12*
D03*
X529431Y641350D02*
G54D12*
D03*
X504030Y666746D02*
G54D12*
D03*
X504031Y641350D02*
G54D12*
D03*
X478631Y666750D02*
G54D12*
D03*
X478631Y641350D02*
G54D12*
D03*
X453230Y666746D02*
G54D12*
D03*
X453231Y641350D02*
G54D12*
D03*
X427831Y666750D02*
G54D12*
D03*
X427831Y641350D02*
G54D12*
D03*
X402431Y666750D02*
G54D12*
D03*
X402430Y641346D02*
G54D12*
D03*
X377031Y666750D02*
G54D12*
D03*
X377031Y641350D02*
G54D12*
D03*
X351631Y666750D02*
G54D12*
D03*
X351631Y641350D02*
G54D12*
D03*
X326230Y666746D02*
G54D12*
D03*
X326231Y641350D02*
G54D12*
D03*
X300831Y666750D02*
G54D12*
D03*
X300831Y641350D02*
G54D12*
D03*
X275431Y666750D02*
G54D12*
D03*
X275431Y641350D02*
G54D12*
D03*
X250030Y666746D02*
G54D12*
D03*
X250031Y641350D02*
G54D12*
D03*
X224631Y666750D02*
G54D12*
D03*
X224631Y641350D02*
G54D12*
D03*
X199231Y666750D02*
G54D12*
D03*
X199230Y641346D02*
G54D12*
D03*
X173831Y666750D02*
G54D12*
D03*
X173831Y641350D02*
G54D12*
D03*
X148430Y666746D02*
G54D12*
D03*
X123031Y666750D02*
G54D12*
D03*
X97631Y666750D02*
G54D12*
D03*
X148431Y641350D02*
G54D12*
D03*
X123031Y641350D02*
G54D12*
D03*
X97631Y641350D02*
G54D12*
D03*
X84733Y545902D02*
G54D13*
D03*
X84733Y539353D02*
G54D13*
D03*
X271859Y585589D02*
G54D14*
D03*
X219869Y553641D02*
G54D14*
D03*
X84733Y552450D02*
G54D13*
D03*
X84733Y533003D02*
G54D13*
D03*
X84733Y526455D02*
G54D13*
D03*
G54D15*
X219869Y553641D02*
X219869Y563959D01*
X226219Y570309D01*
X267494Y570309D01*
X272256Y575072D01*
X272256Y585192D01*
X271859Y585589D01*
X139700Y532606D02*
G54D14*
D03*
X158750Y532606D02*
G54D14*
D03*
G54D15*
X148431Y641350D02*
X148431Y479425D01*
X158750Y469106D01*
X228600Y469106D01*
X228600Y494506D02*
G54D12*
D03*
X228600Y469106D02*
G54D12*
D03*
X228600Y443706D02*
G54D12*
D03*
X228600Y418306D02*
G54D12*
D03*
G54D15*
X123031Y641350D02*
X123031Y542925D01*
X133350Y532606D01*
X139700Y532606D01*
G54D15*
X158750Y532606D02*
X212725Y532606D01*
X228600Y516731D01*
X228600Y494506D01*
X130200Y513531D02*
G54D14*
D03*
G54D15*
X84733Y545902D02*
X110530Y545902D01*
X130175Y526256D01*
X130175Y513556D01*
X130200Y513531D01*
X21034Y575072D02*
G54D16*
D03*
X28972Y575072D02*
G54D16*
D03*
X28972Y503634D02*
G54D16*
D03*
X21034Y503634D02*
G54D16*
D03*
X63500Y575072D02*
G54D16*
D03*
X55562Y575072D02*
G54D16*
D03*
X63500Y503634D02*
G54D16*
D03*
X55562Y503634D02*
G54D16*
D03*
X59531Y575072D02*
G54D16*
D03*
X59531Y503634D02*
G54D16*
D03*
X25003Y503634D02*
G54D16*
D03*
X25003Y575072D02*
G54D16*
D03*
X46236Y559395D02*
G54D17*
D03*
X46236Y519311D02*
G54D17*
D03*
X63302Y575072D02*
G54D16*
D03*
X63103Y575072D02*
G54D16*
D03*
X62905Y575072D02*
G54D16*
D03*
X62706Y575072D02*
G54D16*
D03*
X62508Y575072D02*
G54D16*
D03*
X62309Y575072D02*
G54D16*
D03*
X62111Y575072D02*
G54D16*
D03*
X61912Y575072D02*
G54D16*
D03*
X61714Y575072D02*
G54D16*
D03*
X61516Y575072D02*
G54D16*
D03*
X61317Y575072D02*
G54D16*
D03*
X61119Y575072D02*
G54D16*
D03*
X60920Y575072D02*
G54D16*
D03*
X60722Y575072D02*
G54D16*
D03*
X60523Y575072D02*
G54D16*
D03*
X60325Y575072D02*
G54D16*
D03*
X60127Y575072D02*
G54D16*
D03*
X59928Y575072D02*
G54D16*
D03*
X59730Y575072D02*
G54D16*
D03*
X59333Y575072D02*
G54D16*
D03*
X59134Y575072D02*
G54D16*
D03*
X58936Y575072D02*
G54D16*
D03*
X58738Y575072D02*
G54D16*
D03*
X58539Y575072D02*
G54D16*
D03*
X58341Y575072D02*
G54D16*
D03*
X58142Y575072D02*
G54D16*
D03*
X57944Y575072D02*
G54D16*
D03*
X57745Y575072D02*
G54D16*
D03*
X57547Y575072D02*
G54D16*
D03*
X57348Y575072D02*
G54D16*
D03*
X57150Y575072D02*
G54D16*
D03*
X55761Y575072D02*
G54D16*
D03*
X55959Y575072D02*
G54D16*
D03*
X56158Y575072D02*
G54D16*
D03*
X56356Y575072D02*
G54D16*
D03*
X56555Y575072D02*
G54D16*
D03*
X56753Y575072D02*
G54D16*
D03*
X63302Y503634D02*
G54D16*
D03*
X63103Y503634D02*
G54D16*
D03*
X62905Y503634D02*
G54D16*
D03*
X62706Y503634D02*
G54D16*
D03*
X62508Y503634D02*
G54D16*
D03*
X62309Y503634D02*
G54D16*
D03*
X62111Y503634D02*
G54D16*
D03*
X61912Y503634D02*
G54D16*
D03*
X61714Y503634D02*
G54D16*
D03*
X61516Y503634D02*
G54D16*
D03*
X61317Y503634D02*
G54D16*
D03*
X61119Y503634D02*
G54D16*
D03*
X60920Y503634D02*
G54D16*
D03*
X60722Y503634D02*
G54D16*
D03*
X60523Y503634D02*
G54D16*
D03*
X60325Y503634D02*
G54D16*
D03*
X60127Y503634D02*
G54D16*
D03*
X59928Y503634D02*
G54D16*
D03*
X55761Y503634D02*
G54D16*
D03*
X55959Y503634D02*
G54D16*
D03*
X56158Y503634D02*
G54D16*
D03*
X56356Y503634D02*
G54D16*
D03*
X56555Y503634D02*
G54D16*
D03*
X56753Y503634D02*
G54D16*
D03*
X56952Y503634D02*
G54D16*
D03*
X57150Y503634D02*
G54D16*
D03*
X57348Y503634D02*
G54D16*
D03*
X57547Y503634D02*
G54D16*
D03*
X57745Y503634D02*
G54D16*
D03*
X57944Y503634D02*
G54D16*
D03*
X58142Y503634D02*
G54D16*
D03*
X58341Y503634D02*
G54D16*
D03*
X58539Y503634D02*
G54D16*
D03*
X58539Y503634D02*
G54D16*
D03*
X58738Y503634D02*
G54D16*
D03*
X58936Y503634D02*
G54D16*
D03*
X59134Y503634D02*
G54D16*
D03*
X28972Y575072D02*
G54D16*
D03*
X21034Y575072D02*
G54D16*
D03*
X25003Y575072D02*
G54D16*
D03*
X28773Y575072D02*
G54D16*
D03*
X28575Y575072D02*
G54D16*
D03*
X28377Y575072D02*
G54D16*
D03*
X28178Y575072D02*
G54D16*
D03*
X27980Y575072D02*
G54D16*
D03*
X27781Y575072D02*
G54D16*
D03*
X27583Y575072D02*
G54D16*
D03*
X27384Y575072D02*
G54D16*
D03*
X27186Y575072D02*
G54D16*
D03*
X26988Y575072D02*
G54D16*
D03*
X26789Y575072D02*
G54D16*
D03*
X26591Y575072D02*
G54D16*
D03*
X26392Y575072D02*
G54D16*
D03*
X26194Y575072D02*
G54D16*
D03*
X25995Y575072D02*
G54D16*
D03*
X25797Y575072D02*
G54D16*
D03*
X25598Y575072D02*
G54D16*
D03*
X25400Y575072D02*
G54D16*
D03*
X25202Y575072D02*
G54D16*
D03*
X24805Y575072D02*
G54D16*
D03*
X24606Y575072D02*
G54D16*
D03*
X24408Y575072D02*
G54D16*
D03*
X24209Y575072D02*
G54D16*
D03*
X24011Y575072D02*
G54D16*
D03*
X23812Y575072D02*
G54D16*
D03*
X23614Y575072D02*
G54D16*
D03*
X23416Y575072D02*
G54D16*
D03*
X23217Y575072D02*
G54D16*
D03*
X23019Y575072D02*
G54D16*
D03*
X22820Y575072D02*
G54D16*
D03*
X22622Y575072D02*
G54D16*
D03*
X21233Y575072D02*
G54D16*
D03*
X21431Y575072D02*
G54D16*
D03*
X21630Y575072D02*
G54D16*
D03*
X21828Y575072D02*
G54D16*
D03*
X22027Y575072D02*
G54D16*
D03*
X22225Y575072D02*
G54D16*
D03*
X28972Y503634D02*
G54D16*
D03*
X21034Y503634D02*
G54D16*
D03*
X25003Y503634D02*
G54D16*
D03*
X28773Y503634D02*
G54D16*
D03*
X28575Y503634D02*
G54D16*
D03*
X28377Y503634D02*
G54D16*
D03*
X28178Y503634D02*
G54D16*
D03*
X27980Y503634D02*
G54D16*
D03*
X27781Y503634D02*
G54D16*
D03*
X27583Y503634D02*
G54D16*
D03*
X27384Y503634D02*
G54D16*
D03*
X27186Y503634D02*
G54D16*
D03*
X26988Y503634D02*
G54D16*
D03*
X26789Y503634D02*
G54D16*
D03*
X26591Y503634D02*
G54D16*
D03*
X26392Y503634D02*
G54D16*
D03*
X26194Y503634D02*
G54D16*
D03*
X25995Y503634D02*
G54D16*
D03*
X25797Y503634D02*
G54D16*
D03*
X25598Y503634D02*
G54D16*
D03*
X25400Y503634D02*
G54D16*
D03*
X21233Y503634D02*
G54D16*
D03*
X21431Y503634D02*
G54D16*
D03*
X21630Y503634D02*
G54D16*
D03*
X21828Y503634D02*
G54D16*
D03*
X22027Y503634D02*
G54D16*
D03*
X22225Y503634D02*
G54D16*
D03*
X22423Y503634D02*
G54D16*
D03*
X22622Y503634D02*
G54D16*
D03*
X22820Y503634D02*
G54D16*
D03*
X23019Y503634D02*
G54D16*
D03*
X23217Y503634D02*
G54D16*
D03*
X23416Y503634D02*
G54D16*
D03*
X23614Y503634D02*
G54D16*
D03*
X23812Y503634D02*
G54D16*
D03*
X24011Y503634D02*
G54D16*
D03*
X24011Y503634D02*
G54D16*
D03*
X24209Y503634D02*
G54D16*
D03*
X24408Y503634D02*
G54D16*
D03*
X24606Y503634D02*
G54D16*
D03*
G54D18*
X25400Y584994D02*
X25400Y565944D01*
G54D18*
X60325Y584994D02*
X60325Y564356D01*
G54D18*
X25400Y494506D02*
X25400Y513556D01*
G54D18*
X60325Y494506D02*
X60325Y513556D01*
X21828Y575072D02*
G54D16*
D03*
X22622Y575072D02*
G54D16*
D03*
X23416Y575072D02*
G54D16*
D03*
X24209Y575072D02*
G54D16*
D03*
X25003Y575072D02*
G54D16*
D03*
X25797Y575072D02*
G54D16*
D03*
X26591Y575072D02*
G54D16*
D03*
X27384Y575072D02*
G54D16*
D03*
X28178Y575072D02*
G54D16*
D03*
X56356Y575072D02*
G54D16*
D03*
X57150Y575072D02*
G54D16*
D03*
X57944Y575072D02*
G54D16*
D03*
X58738Y575072D02*
G54D16*
D03*
X59531Y575072D02*
G54D16*
D03*
X60325Y575072D02*
G54D16*
D03*
X61119Y575072D02*
G54D16*
D03*
X61912Y575072D02*
G54D16*
D03*
X62706Y575072D02*
G54D16*
D03*
X63500Y575072D02*
G54D16*
D03*
X28972Y575072D02*
G54D16*
D03*
X21034Y503634D02*
G54D16*
D03*
X21828Y503634D02*
G54D16*
D03*
X22622Y503634D02*
G54D16*
D03*
X23416Y503634D02*
G54D16*
D03*
X24209Y503634D02*
G54D16*
D03*
X25003Y503634D02*
G54D16*
D03*
X25797Y503634D02*
G54D16*
D03*
X26591Y503634D02*
G54D16*
D03*
X27384Y503634D02*
G54D16*
D03*
X28178Y503634D02*
G54D16*
D03*
X28972Y503634D02*
G54D16*
D03*
X55562Y503634D02*
G54D16*
D03*
X56356Y503634D02*
G54D16*
D03*
X57150Y503634D02*
G54D16*
D03*
X57944Y503634D02*
G54D16*
D03*
X58738Y503634D02*
G54D16*
D03*
X59531Y503634D02*
G54D16*
D03*
X60325Y503634D02*
G54D16*
D03*
X61119Y503634D02*
G54D16*
D03*
X61912Y503634D02*
G54D16*
D03*
X62706Y503634D02*
G54D16*
D03*
X63500Y503634D02*
G54D16*
D03*
X21034Y575072D02*
G54D16*
D03*
X28972Y575072D02*
G54D16*
D03*
X55562Y575072D02*
G54D16*
D03*
X48816Y354012D02*
G54D11*
D03*
X628253Y124619D02*
G54D11*
D03*
X48816Y124619D02*
G54D11*
D03*
X628253Y354012D02*
G54D11*
D03*
X580231Y366712D02*
G54D12*
D03*
X580230Y341309D02*
G54D12*
D03*
X554831Y366712D02*
G54D12*
D03*
X554831Y341312D02*
G54D12*
D03*
X529431Y366712D02*
G54D12*
D03*
X529431Y341312D02*
G54D12*
D03*
X504030Y366709D02*
G54D12*
D03*
X504031Y341312D02*
G54D12*
D03*
X478631Y366712D02*
G54D12*
D03*
X478631Y341312D02*
G54D12*
D03*
X453230Y366709D02*
G54D12*
D03*
X453231Y341312D02*
G54D12*
D03*
X427831Y366712D02*
G54D12*
D03*
X427831Y341312D02*
G54D12*
D03*
X402431Y366712D02*
G54D12*
D03*
X402430Y341309D02*
G54D12*
D03*
X377031Y366712D02*
G54D12*
D03*
X377031Y341312D02*
G54D12*
D03*
X351631Y366712D02*
G54D12*
D03*
X351631Y341312D02*
G54D12*
D03*
X326230Y366709D02*
G54D12*
D03*
X326231Y341312D02*
G54D12*
D03*
X300831Y366712D02*
G54D12*
D03*
X300831Y341312D02*
G54D12*
D03*
X275431Y366712D02*
G54D12*
D03*
X275431Y341312D02*
G54D12*
D03*
X250030Y366709D02*
G54D12*
D03*
X250031Y341312D02*
G54D12*
D03*
X224631Y366712D02*
G54D12*
D03*
X224631Y341312D02*
G54D12*
D03*
X199231Y366712D02*
G54D12*
D03*
X199230Y341309D02*
G54D12*
D03*
X173831Y366712D02*
G54D12*
D03*
X173831Y341312D02*
G54D12*
D03*
X148430Y366709D02*
G54D12*
D03*
X123031Y366712D02*
G54D12*
D03*
X97631Y366712D02*
G54D12*
D03*
X148431Y341312D02*
G54D12*
D03*
X123031Y341312D02*
G54D12*
D03*
X97631Y341312D02*
G54D12*
D03*
X84733Y245864D02*
G54D13*
D03*
X84733Y239316D02*
G54D13*
D03*
X271859Y285552D02*
G54D14*
D03*
X219869Y253603D02*
G54D14*
D03*
X84733Y252412D02*
G54D13*
D03*
X84733Y232966D02*
G54D13*
D03*
X84733Y226417D02*
G54D13*
D03*
G54D15*
X219869Y253603D02*
X219869Y263922D01*
X226219Y270272D01*
X267494Y270272D01*
X272256Y275034D01*
X272256Y285155D01*
X271859Y285552D01*
X139700Y232569D02*
G54D14*
D03*
X158750Y232569D02*
G54D14*
D03*
G54D15*
X148431Y341312D02*
X148431Y179388D01*
X158750Y169069D01*
X228600Y169069D01*
X228600Y194469D02*
G54D12*
D03*
X228600Y169069D02*
G54D12*
D03*
X228600Y143669D02*
G54D12*
D03*
X228600Y118269D02*
G54D12*
D03*
G54D15*
X123031Y341312D02*
X123031Y242888D01*
X133350Y232569D01*
X139700Y232569D01*
G54D15*
X158750Y232569D02*
X212725Y232569D01*
X228600Y216694D01*
X228600Y194469D01*
X130200Y213494D02*
G54D14*
D03*
G54D15*
X84733Y245864D02*
X110530Y245864D01*
X130175Y226219D01*
X130175Y213519D01*
X130200Y213494D01*
X21034Y275034D02*
G54D16*
D03*
X28972Y275034D02*
G54D16*
D03*
X28972Y203597D02*
G54D16*
D03*
X21034Y203597D02*
G54D16*
D03*
X63500Y275034D02*
G54D16*
D03*
X55562Y275034D02*
G54D16*
D03*
X63500Y203597D02*
G54D16*
D03*
X55562Y203597D02*
G54D16*
D03*
X59531Y275034D02*
G54D16*
D03*
X59531Y203597D02*
G54D16*
D03*
X25003Y203597D02*
G54D16*
D03*
X25003Y275034D02*
G54D16*
D03*
X46236Y259358D02*
G54D17*
D03*
X46236Y219273D02*
G54D17*
D03*
X63302Y275034D02*
G54D16*
D03*
X63103Y275034D02*
G54D16*
D03*
X62905Y275034D02*
G54D16*
D03*
X62706Y275034D02*
G54D16*
D03*
X62508Y275034D02*
G54D16*
D03*
X62309Y275034D02*
G54D16*
D03*
X62111Y275034D02*
G54D16*
D03*
X61912Y275034D02*
G54D16*
D03*
X61714Y275034D02*
G54D16*
D03*
X61516Y275034D02*
G54D16*
D03*
X61317Y275034D02*
G54D16*
D03*
X61119Y275034D02*
G54D16*
D03*
X60920Y275034D02*
G54D16*
D03*
X60722Y275034D02*
G54D16*
D03*
X60523Y275034D02*
G54D16*
D03*
X60325Y275034D02*
G54D16*
D03*
X60127Y275034D02*
G54D16*
D03*
X59928Y275034D02*
G54D16*
D03*
X59730Y275034D02*
G54D16*
D03*
X59333Y275034D02*
G54D16*
D03*
X59134Y275034D02*
G54D16*
D03*
X58936Y275034D02*
G54D16*
D03*
X58738Y275034D02*
G54D16*
D03*
X58539Y275034D02*
G54D16*
D03*
X58341Y275034D02*
G54D16*
D03*
X58142Y275034D02*
G54D16*
D03*
X57944Y275034D02*
G54D16*
D03*
X57745Y275034D02*
G54D16*
D03*
X57547Y275034D02*
G54D16*
D03*
X57348Y275034D02*
G54D16*
D03*
X57150Y275034D02*
G54D16*
D03*
X55761Y275034D02*
G54D16*
D03*
X55959Y275034D02*
G54D16*
D03*
X56158Y275034D02*
G54D16*
D03*
X56356Y275034D02*
G54D16*
D03*
X56555Y275034D02*
G54D16*
D03*
X56753Y275034D02*
G54D16*
D03*
X63302Y203597D02*
G54D16*
D03*
X63103Y203597D02*
G54D16*
D03*
X62905Y203597D02*
G54D16*
D03*
X62706Y203597D02*
G54D16*
D03*
X62508Y203597D02*
G54D16*
D03*
X62309Y203597D02*
G54D16*
D03*
X62111Y203597D02*
G54D16*
D03*
X61912Y203597D02*
G54D16*
D03*
X61714Y203597D02*
G54D16*
D03*
X61516Y203597D02*
G54D16*
D03*
X61317Y203597D02*
G54D16*
D03*
X61119Y203597D02*
G54D16*
D03*
X60920Y203597D02*
G54D16*
D03*
X60722Y203597D02*
G54D16*
D03*
X60523Y203597D02*
G54D16*
D03*
X60325Y203597D02*
G54D16*
D03*
X60127Y203597D02*
G54D16*
D03*
X59928Y203597D02*
G54D16*
D03*
X55761Y203597D02*
G54D16*
D03*
X55959Y203597D02*
G54D16*
D03*
X56158Y203597D02*
G54D16*
D03*
X56356Y203597D02*
G54D16*
D03*
X56555Y203597D02*
G54D16*
D03*
X56753Y203597D02*
G54D16*
D03*
X56952Y203597D02*
G54D16*
D03*
X57150Y203597D02*
G54D16*
D03*
X57348Y203597D02*
G54D16*
D03*
X57547Y203597D02*
G54D16*
D03*
X57745Y203597D02*
G54D16*
D03*
X57944Y203597D02*
G54D16*
D03*
X58142Y203597D02*
G54D16*
D03*
X58341Y203597D02*
G54D16*
D03*
X58539Y203597D02*
G54D16*
D03*
X58539Y203597D02*
G54D16*
D03*
X58738Y203597D02*
G54D16*
D03*
X58936Y203597D02*
G54D16*
D03*
X59134Y203597D02*
G54D16*
D03*
X28972Y275034D02*
G54D16*
D03*
X21034Y275034D02*
G54D16*
D03*
X25003Y275034D02*
G54D16*
D03*
X28773Y275034D02*
G54D16*
D03*
X28575Y275034D02*
G54D16*
D03*
X28377Y275034D02*
G54D16*
D03*
X28178Y275034D02*
G54D16*
D03*
X27980Y275034D02*
G54D16*
D03*
X27781Y275034D02*
G54D16*
D03*
X27583Y275034D02*
G54D16*
D03*
X27384Y275034D02*
G54D16*
D03*
X27186Y275034D02*
G54D16*
D03*
X26988Y275034D02*
G54D16*
D03*
X26789Y275034D02*
G54D16*
D03*
X26591Y275034D02*
G54D16*
D03*
X26392Y275034D02*
G54D16*
D03*
X26194Y275034D02*
G54D16*
D03*
X25995Y275034D02*
G54D16*
D03*
X25797Y275034D02*
G54D16*
D03*
X25598Y275034D02*
G54D16*
D03*
X25400Y275034D02*
G54D16*
D03*
X25202Y275034D02*
G54D16*
D03*
X24805Y275034D02*
G54D16*
D03*
X24606Y275034D02*
G54D16*
D03*
X24408Y275034D02*
G54D16*
D03*
X24209Y275034D02*
G54D16*
D03*
X24011Y275034D02*
G54D16*
D03*
X23812Y275034D02*
G54D16*
D03*
X23614Y275034D02*
G54D16*
D03*
X23416Y275034D02*
G54D16*
D03*
X23217Y275034D02*
G54D16*
D03*
X23019Y275034D02*
G54D16*
D03*
X22820Y275034D02*
G54D16*
D03*
X22622Y275034D02*
G54D16*
D03*
X21233Y275034D02*
G54D16*
D03*
X21431Y275034D02*
G54D16*
D03*
X21630Y275034D02*
G54D16*
D03*
X21828Y275034D02*
G54D16*
D03*
X22027Y275034D02*
G54D16*
D03*
X22225Y275034D02*
G54D16*
D03*
X28972Y203597D02*
G54D16*
D03*
X21034Y203597D02*
G54D16*
D03*
X25003Y203597D02*
G54D16*
D03*
X28773Y203597D02*
G54D16*
D03*
X28575Y203597D02*
G54D16*
D03*
X28377Y203597D02*
G54D16*
D03*
X28178Y203597D02*
G54D16*
D03*
X27980Y203597D02*
G54D16*
D03*
X27781Y203597D02*
G54D16*
D03*
X27583Y203597D02*
G54D16*
D03*
X27384Y203597D02*
G54D16*
D03*
X27186Y203597D02*
G54D16*
D03*
X26988Y203597D02*
G54D16*
D03*
X26789Y203597D02*
G54D16*
D03*
X26591Y203597D02*
G54D16*
D03*
X26392Y203597D02*
G54D16*
D03*
X26194Y203597D02*
G54D16*
D03*
X25995Y203597D02*
G54D16*
D03*
X25797Y203597D02*
G54D16*
D03*
X25598Y203597D02*
G54D16*
D03*
X25400Y203597D02*
G54D16*
D03*
X21233Y203597D02*
G54D16*
D03*
X21431Y203597D02*
G54D16*
D03*
X21630Y203597D02*
G54D16*
D03*
X21828Y203597D02*
G54D16*
D03*
X22027Y203597D02*
G54D16*
D03*
X22225Y203597D02*
G54D16*
D03*
X22423Y203597D02*
G54D16*
D03*
X22622Y203597D02*
G54D16*
D03*
X22820Y203597D02*
G54D16*
D03*
X23019Y203597D02*
G54D16*
D03*
X23217Y203597D02*
G54D16*
D03*
X23416Y203597D02*
G54D16*
D03*
X23614Y203597D02*
G54D16*
D03*
X23812Y203597D02*
G54D16*
D03*
X24011Y203597D02*
G54D16*
D03*
X24011Y203597D02*
G54D16*
D03*
X24209Y203597D02*
G54D16*
D03*
X24408Y203597D02*
G54D16*
D03*
X24606Y203597D02*
G54D16*
D03*
G54D18*
X25400Y284956D02*
X25400Y265906D01*
G54D18*
X60325Y284956D02*
X60325Y264319D01*
G54D18*
X25400Y194469D02*
X25400Y213519D01*
G54D18*
X60325Y194469D02*
X60325Y213519D01*
X21828Y275034D02*
G54D16*
D03*
X22622Y275034D02*
G54D16*
D03*
X23416Y275034D02*
G54D16*
D03*
X24209Y275034D02*
G54D16*
D03*
X25003Y275034D02*
G54D16*
D03*
X25797Y275034D02*
G54D16*
D03*
X26591Y275034D02*
G54D16*
D03*
X27384Y275034D02*
G54D16*
D03*
X28178Y275034D02*
G54D16*
D03*
X56356Y275034D02*
G54D16*
D03*
X57150Y275034D02*
G54D16*
D03*
X57944Y275034D02*
G54D16*
D03*
X58738Y275034D02*
G54D16*
D03*
X59531Y275034D02*
G54D16*
D03*
X60325Y275034D02*
G54D16*
D03*
X61119Y275034D02*
G54D16*
D03*
X61912Y275034D02*
G54D16*
D03*
X62706Y275034D02*
G54D16*
D03*
X63500Y275034D02*
G54D16*
D03*
X28972Y275034D02*
G54D16*
D03*
X21034Y203597D02*
G54D16*
D03*
X21828Y203597D02*
G54D16*
D03*
X22622Y203597D02*
G54D16*
D03*
X23416Y203597D02*
G54D16*
D03*
X24209Y203597D02*
G54D16*
D03*
X25003Y203597D02*
G54D16*
D03*
X25797Y203597D02*
G54D16*
D03*
X26591Y203597D02*
G54D16*
D03*
X27384Y203597D02*
G54D16*
D03*
X28178Y203597D02*
G54D16*
D03*
X28972Y203597D02*
G54D16*
D03*
X55562Y203597D02*
G54D16*
D03*
X56356Y203597D02*
G54D16*
D03*
X57150Y203597D02*
G54D16*
D03*
X57944Y203597D02*
G54D16*
D03*
X58738Y203597D02*
G54D16*
D03*
X59531Y203597D02*
G54D16*
D03*
X60325Y203597D02*
G54D16*
D03*
X61119Y203597D02*
G54D16*
D03*
X61912Y203597D02*
G54D16*
D03*
X62706Y203597D02*
G54D16*
D03*
X63500Y203597D02*
G54D16*
D03*
X21034Y275034D02*
G54D16*
D03*
X28972Y275034D02*
G54D16*
D03*
X55562Y275034D02*
G54D16*
D03*
%LPD*%
G54D19*
G36*
X582897Y941384D02*
X582897Y928884D01*
X577563Y928884D01*
X577563Y941384D01*
X582897Y941384D01*
G37*
G54D19*
G36*
X501363Y966784D02*
X501363Y979284D01*
X506697Y979284D01*
X506697Y966784D01*
X501363Y966784D01*
G37*
G54D19*
G36*
X450563Y966784D02*
X450563Y979284D01*
X455897Y979284D01*
X455897Y966784D01*
X450563Y966784D01*
G37*
G54D19*
G36*
X405097Y941384D02*
X405097Y928884D01*
X399763Y928884D01*
X399763Y941384D01*
X405097Y941384D01*
G37*
G54D19*
G36*
X323563Y966784D02*
X323563Y979284D01*
X328897Y979284D01*
X328897Y966784D01*
X323563Y966784D01*
G37*
G54D19*
G36*
X247363Y966784D02*
X247363Y979284D01*
X252697Y979284D01*
X252697Y966784D01*
X247363Y966784D01*
G37*
G54D19*
G36*
X201897Y941384D02*
X201897Y928884D01*
X196563Y928884D01*
X196563Y941384D01*
X201897Y941384D01*
G37*
G54D19*
G36*
X145763Y966784D02*
X145763Y979284D01*
X151097Y979284D01*
X151097Y966784D01*
X145763Y966784D01*
G37*
G54D19*
G36*
X582897Y641346D02*
X582897Y628846D01*
X577563Y628846D01*
X577563Y641346D01*
X582897Y641346D01*
G37*
G54D19*
G36*
X501363Y666746D02*
X501363Y679246D01*
X506697Y679246D01*
X506697Y666746D01*
X501363Y666746D01*
G37*
G54D19*
G36*
X450563Y666746D02*
X450563Y679246D01*
X455897Y679246D01*
X455897Y666746D01*
X450563Y666746D01*
G37*
G54D19*
G36*
X405097Y641346D02*
X405097Y628846D01*
X399763Y628846D01*
X399763Y641346D01*
X405097Y641346D01*
G37*
G54D19*
G36*
X323563Y666746D02*
X323563Y679246D01*
X328897Y679246D01*
X328897Y666746D01*
X323563Y666746D01*
G37*
G54D19*
G36*
X247363Y666746D02*
X247363Y679246D01*
X252697Y679246D01*
X252697Y666746D01*
X247363Y666746D01*
G37*
G54D19*
G36*
X201897Y641346D02*
X201897Y628846D01*
X196563Y628846D01*
X196563Y641346D01*
X201897Y641346D01*
G37*
G54D19*
G36*
X145763Y666746D02*
X145763Y679246D01*
X151097Y679246D01*
X151097Y666746D01*
X145763Y666746D01*
G37*
G54D19*
G36*
X582897Y341309D02*
X582897Y328809D01*
X577563Y328809D01*
X577563Y341309D01*
X582897Y341309D01*
G37*
G54D19*
G36*
X501363Y366709D02*
X501363Y379209D01*
X506697Y379209D01*
X506697Y366709D01*
X501363Y366709D01*
G37*
G54D19*
G36*
X450563Y366709D02*
X450563Y379209D01*
X455897Y379209D01*
X455897Y366709D01*
X450563Y366709D01*
G37*
G54D19*
G36*
X405097Y341309D02*
X405097Y328809D01*
X399763Y328809D01*
X399763Y341309D01*
X405097Y341309D01*
G37*
G54D19*
G36*
X323563Y366709D02*
X323563Y379209D01*
X328897Y379209D01*
X328897Y366709D01*
X323563Y366709D01*
G37*
G54D19*
G36*
X247363Y366709D02*
X247363Y379209D01*
X252697Y379209D01*
X252697Y366709D01*
X247363Y366709D01*
G37*
G54D19*
G36*
X201897Y341309D02*
X201897Y328809D01*
X196563Y328809D01*
X196563Y341309D01*
X201897Y341309D01*
G37*
G54D19*
G36*
X145763Y366709D02*
X145763Y379209D01*
X151097Y379209D01*
X151097Y366709D01*
X145763Y366709D01*
G37*
X48816Y954088D02*
G54D20*
D03*
X628253Y724694D02*
G54D20*
D03*
X48816Y724694D02*
G54D20*
D03*
X628253Y954088D02*
G54D20*
D03*
X580231Y966788D02*
G54D21*
D03*
X580230Y941384D02*
G54D21*
D03*
X554831Y966788D02*
G54D21*
D03*
X554831Y941388D02*
G54D21*
D03*
X529431Y966788D02*
G54D21*
D03*
X529431Y941388D02*
G54D21*
D03*
X504030Y966784D02*
G54D21*
D03*
X504031Y941388D02*
G54D21*
D03*
X478631Y966788D02*
G54D21*
D03*
X478631Y941388D02*
G54D21*
D03*
X453230Y966784D02*
G54D21*
D03*
X453231Y941388D02*
G54D21*
D03*
X427831Y966788D02*
G54D21*
D03*
X427831Y941388D02*
G54D21*
D03*
X402431Y966788D02*
G54D21*
D03*
X402430Y941384D02*
G54D21*
D03*
X377031Y966788D02*
G54D21*
D03*
X377031Y941388D02*
G54D21*
D03*
X351631Y966788D02*
G54D21*
D03*
X351631Y941388D02*
G54D21*
D03*
X326230Y966784D02*
G54D21*
D03*
X326231Y941388D02*
G54D21*
D03*
X300831Y966788D02*
G54D21*
D03*
X300831Y941388D02*
G54D21*
D03*
X275431Y966788D02*
G54D21*
D03*
X275431Y941388D02*
G54D21*
D03*
X250030Y966784D02*
G54D21*
D03*
X250031Y941388D02*
G54D21*
D03*
X224631Y966788D02*
G54D21*
D03*
X224631Y941388D02*
G54D21*
D03*
X199231Y966788D02*
G54D21*
D03*
X199230Y941384D02*
G54D21*
D03*
X173831Y966788D02*
G54D21*
D03*
X173831Y941388D02*
G54D21*
D03*
X148430Y966784D02*
G54D21*
D03*
X123031Y966788D02*
G54D21*
D03*
X97631Y966788D02*
G54D21*
D03*
X148431Y941388D02*
G54D21*
D03*
X123031Y941388D02*
G54D21*
D03*
X97631Y941388D02*
G54D21*
D03*
X84733Y845939D02*
G54D22*
D03*
X84733Y839391D02*
G54D22*
D03*
X271859Y885627D02*
G54D22*
D03*
X219869Y853678D02*
G54D22*
D03*
X84733Y852488D02*
G54D22*
D03*
X84733Y833041D02*
G54D22*
D03*
X84733Y826492D02*
G54D22*
D03*
G54D23*
X219869Y853678D02*
X219869Y863997D01*
X226219Y870347D01*
X267494Y870347D01*
X272256Y875109D01*
X272256Y885230D01*
X271859Y885627D01*
X139700Y832644D02*
G54D22*
D03*
X158750Y832644D02*
G54D22*
D03*
G54D23*
X148431Y941388D02*
X148431Y779462D01*
X158750Y769144D01*
X228600Y769144D01*
X228600Y794544D02*
G54D21*
D03*
X228600Y769144D02*
G54D21*
D03*
X228600Y743744D02*
G54D21*
D03*
X228600Y718344D02*
G54D21*
D03*
G54D23*
X123031Y941388D02*
X123031Y842962D01*
X133350Y832644D01*
X139700Y832644D01*
G54D23*
X158750Y832644D02*
X212725Y832644D01*
X228600Y816769D01*
X228600Y794544D01*
X130200Y813569D02*
G54D22*
D03*
G54D23*
X84733Y845939D02*
X110530Y845939D01*
X130175Y826294D01*
X130175Y813594D01*
X130200Y813569D01*
X21034Y875109D02*
G54D24*
D03*
X28972Y875109D02*
G54D24*
D03*
X28972Y803672D02*
G54D24*
D03*
X21034Y803672D02*
G54D24*
D03*
X63500Y875109D02*
G54D24*
D03*
X55562Y875109D02*
G54D24*
D03*
X63500Y803672D02*
G54D24*
D03*
X55562Y803672D02*
G54D24*
D03*
X59531Y875109D02*
G54D24*
D03*
X59531Y803672D02*
G54D24*
D03*
X25003Y803672D02*
G54D24*
D03*
X25003Y875109D02*
G54D24*
D03*
X63302Y875109D02*
G54D24*
D03*
X63103Y875109D02*
G54D24*
D03*
X62905Y875109D02*
G54D24*
D03*
X62706Y875109D02*
G54D24*
D03*
X62508Y875109D02*
G54D24*
D03*
X62309Y875109D02*
G54D24*
D03*
X62111Y875109D02*
G54D24*
D03*
X61912Y875109D02*
G54D24*
D03*
X61714Y875109D02*
G54D24*
D03*
X61516Y875109D02*
G54D24*
D03*
X61317Y875109D02*
G54D24*
D03*
X61119Y875109D02*
G54D24*
D03*
X60920Y875109D02*
G54D24*
D03*
X60722Y875109D02*
G54D24*
D03*
X60523Y875109D02*
G54D24*
D03*
X60325Y875109D02*
G54D24*
D03*
X60127Y875109D02*
G54D24*
D03*
X59928Y875109D02*
G54D24*
D03*
X59730Y875109D02*
G54D24*
D03*
X59333Y875109D02*
G54D24*
D03*
X59134Y875109D02*
G54D24*
D03*
X58936Y875109D02*
G54D24*
D03*
X58738Y875109D02*
G54D24*
D03*
X58539Y875109D02*
G54D24*
D03*
X58341Y875109D02*
G54D24*
D03*
X58142Y875109D02*
G54D24*
D03*
X57944Y875109D02*
G54D24*
D03*
X57745Y875109D02*
G54D24*
D03*
X57547Y875109D02*
G54D24*
D03*
X57348Y875109D02*
G54D24*
D03*
X57150Y875109D02*
G54D24*
D03*
X55761Y875109D02*
G54D24*
D03*
X55959Y875109D02*
G54D24*
D03*
X56158Y875109D02*
G54D24*
D03*
X56356Y875109D02*
G54D24*
D03*
X56555Y875109D02*
G54D24*
D03*
X56753Y875109D02*
G54D24*
D03*
X63302Y803672D02*
G54D24*
D03*
X63103Y803672D02*
G54D24*
D03*
X62905Y803672D02*
G54D24*
D03*
X62706Y803672D02*
G54D24*
D03*
X62508Y803672D02*
G54D24*
D03*
X62309Y803672D02*
G54D24*
D03*
X62111Y803672D02*
G54D24*
D03*
X61912Y803672D02*
G54D24*
D03*
X61714Y803672D02*
G54D24*
D03*
X61516Y803672D02*
G54D24*
D03*
X61317Y803672D02*
G54D24*
D03*
X61119Y803672D02*
G54D24*
D03*
X60920Y803672D02*
G54D24*
D03*
X60722Y803672D02*
G54D24*
D03*
X60523Y803672D02*
G54D24*
D03*
X60325Y803672D02*
G54D24*
D03*
X60127Y803672D02*
G54D24*
D03*
X59928Y803672D02*
G54D24*
D03*
X55761Y803672D02*
G54D24*
D03*
X55959Y803672D02*
G54D24*
D03*
X56158Y803672D02*
G54D24*
D03*
X56356Y803672D02*
G54D24*
D03*
X56555Y803672D02*
G54D24*
D03*
X56753Y803672D02*
G54D24*
D03*
X56952Y803672D02*
G54D24*
D03*
X57150Y803672D02*
G54D24*
D03*
X57348Y803672D02*
G54D24*
D03*
X57547Y803672D02*
G54D24*
D03*
X57745Y803672D02*
G54D24*
D03*
X57944Y803672D02*
G54D24*
D03*
X58142Y803672D02*
G54D24*
D03*
X58341Y803672D02*
G54D24*
D03*
X58539Y803672D02*
G54D24*
D03*
X58539Y803672D02*
G54D24*
D03*
X58738Y803672D02*
G54D24*
D03*
X58936Y803672D02*
G54D24*
D03*
X59134Y803672D02*
G54D24*
D03*
X28972Y875109D02*
G54D24*
D03*
X21034Y875109D02*
G54D24*
D03*
X25003Y875109D02*
G54D24*
D03*
X28773Y875109D02*
G54D24*
D03*
X28575Y875109D02*
G54D24*
D03*
X28377Y875109D02*
G54D24*
D03*
X28178Y875109D02*
G54D24*
D03*
X27980Y875109D02*
G54D24*
D03*
X27781Y875109D02*
G54D24*
D03*
X27583Y875109D02*
G54D24*
D03*
X27384Y875109D02*
G54D24*
D03*
X27186Y875109D02*
G54D24*
D03*
X26988Y875109D02*
G54D24*
D03*
X26789Y875109D02*
G54D24*
D03*
X26591Y875109D02*
G54D24*
D03*
X26392Y875109D02*
G54D24*
D03*
X26194Y875109D02*
G54D24*
D03*
X25995Y875109D02*
G54D24*
D03*
X25797Y875109D02*
G54D24*
D03*
X25598Y875109D02*
G54D24*
D03*
X25400Y875109D02*
G54D24*
D03*
X25202Y875109D02*
G54D24*
D03*
X24805Y875109D02*
G54D24*
D03*
X24606Y875109D02*
G54D24*
D03*
X24408Y875109D02*
G54D24*
D03*
X24209Y875109D02*
G54D24*
D03*
X24011Y875109D02*
G54D24*
D03*
X23812Y875109D02*
G54D24*
D03*
X23614Y875109D02*
G54D24*
D03*
X23416Y875109D02*
G54D24*
D03*
X23217Y875109D02*
G54D24*
D03*
X23019Y875109D02*
G54D24*
D03*
X22820Y875109D02*
G54D24*
D03*
X22622Y875109D02*
G54D24*
D03*
X21233Y875109D02*
G54D24*
D03*
X21431Y875109D02*
G54D24*
D03*
X21630Y875109D02*
G54D24*
D03*
X21828Y875109D02*
G54D24*
D03*
X22027Y875109D02*
G54D24*
D03*
X22225Y875109D02*
G54D24*
D03*
X28972Y803672D02*
G54D24*
D03*
X21034Y803672D02*
G54D24*
D03*
X25003Y803672D02*
G54D24*
D03*
X28773Y803672D02*
G54D24*
D03*
X28575Y803672D02*
G54D24*
D03*
X28377Y803672D02*
G54D24*
D03*
X28178Y803672D02*
G54D24*
D03*
X27980Y803672D02*
G54D24*
D03*
X27781Y803672D02*
G54D24*
D03*
X27583Y803672D02*
G54D24*
D03*
X27384Y803672D02*
G54D24*
D03*
X27186Y803672D02*
G54D24*
D03*
X26988Y803672D02*
G54D24*
D03*
X26789Y803672D02*
G54D24*
D03*
X26591Y803672D02*
G54D24*
D03*
X26392Y803672D02*
G54D24*
D03*
X26194Y803672D02*
G54D24*
D03*
X25995Y803672D02*
G54D24*
D03*
X25797Y803672D02*
G54D24*
D03*
X25598Y803672D02*
G54D24*
D03*
X25400Y803672D02*
G54D24*
D03*
X21233Y803672D02*
G54D24*
D03*
X21431Y803672D02*
G54D24*
D03*
X21630Y803672D02*
G54D24*
D03*
X21828Y803672D02*
G54D24*
D03*
X22027Y803672D02*
G54D24*
D03*
X22225Y803672D02*
G54D24*
D03*
X22423Y803672D02*
G54D24*
D03*
X22622Y803672D02*
G54D24*
D03*
X22820Y803672D02*
G54D24*
D03*
X23019Y803672D02*
G54D24*
D03*
X23217Y803672D02*
G54D24*
D03*
X23416Y803672D02*
G54D24*
D03*
X23614Y803672D02*
G54D24*
D03*
X23812Y803672D02*
G54D24*
D03*
X24011Y803672D02*
G54D24*
D03*
X24011Y803672D02*
G54D24*
D03*
X24209Y803672D02*
G54D24*
D03*
X24408Y803672D02*
G54D24*
D03*
X24606Y803672D02*
G54D24*
D03*
G54D18*
X25400Y885031D02*
X25400Y865981D01*
G54D18*
X60325Y885031D02*
X60325Y864394D01*
G54D18*
X25400Y794544D02*
X25400Y813594D01*
G54D18*
X60325Y794544D02*
X60325Y813594D01*
X21828Y875109D02*
G54D24*
D03*
X22622Y875109D02*
G54D24*
D03*
X23416Y875109D02*
G54D24*
D03*
X24209Y875109D02*
G54D24*
D03*
X25003Y875109D02*
G54D24*
D03*
X25797Y875109D02*
G54D24*
D03*
X26591Y875109D02*
G54D24*
D03*
X27384Y875109D02*
G54D24*
D03*
X28178Y875109D02*
G54D24*
D03*
X56356Y875109D02*
G54D24*
D03*
X57150Y875109D02*
G54D24*
D03*
X57944Y875109D02*
G54D24*
D03*
X58738Y875109D02*
G54D24*
D03*
X59531Y875109D02*
G54D24*
D03*
X60325Y875109D02*
G54D24*
D03*
X61119Y875109D02*
G54D24*
D03*
X61912Y875109D02*
G54D24*
D03*
X62706Y875109D02*
G54D24*
D03*
X63500Y875109D02*
G54D24*
D03*
X28972Y875109D02*
G54D24*
D03*
X21034Y803672D02*
G54D24*
D03*
X21828Y803672D02*
G54D24*
D03*
X22622Y803672D02*
G54D24*
D03*
X23416Y803672D02*
G54D24*
D03*
X24209Y803672D02*
G54D24*
D03*
X25003Y803672D02*
G54D24*
D03*
X25797Y803672D02*
G54D24*
D03*
X26591Y803672D02*
G54D24*
D03*
X27384Y803672D02*
G54D24*
D03*
X28178Y803672D02*
G54D24*
D03*
X28972Y803672D02*
G54D24*
D03*
X55562Y803672D02*
G54D24*
D03*
X56356Y803672D02*
G54D24*
D03*
X57150Y803672D02*
G54D24*
D03*
X57944Y803672D02*
G54D24*
D03*
X58738Y803672D02*
G54D24*
D03*
X59531Y803672D02*
G54D24*
D03*
X60325Y803672D02*
G54D24*
D03*
X61119Y803672D02*
G54D24*
D03*
X61912Y803672D02*
G54D24*
D03*
X62706Y803672D02*
G54D24*
D03*
X63500Y803672D02*
G54D24*
D03*
X21034Y875109D02*
G54D24*
D03*
X28972Y875109D02*
G54D24*
D03*
X55562Y875109D02*
G54D24*
D03*
X48816Y654050D02*
G54D20*
D03*
X628253Y424656D02*
G54D20*
D03*
X48816Y424656D02*
G54D20*
D03*
X628253Y654050D02*
G54D20*
D03*
X580231Y666750D02*
G54D21*
D03*
X580230Y641346D02*
G54D21*
D03*
X554831Y666750D02*
G54D21*
D03*
X554831Y641350D02*
G54D21*
D03*
X529431Y666750D02*
G54D21*
D03*
X529431Y641350D02*
G54D21*
D03*
X504030Y666746D02*
G54D21*
D03*
X504031Y641350D02*
G54D21*
D03*
X478631Y666750D02*
G54D21*
D03*
X478631Y641350D02*
G54D21*
D03*
X453230Y666746D02*
G54D21*
D03*
X453231Y641350D02*
G54D21*
D03*
X427831Y666750D02*
G54D21*
D03*
X427831Y641350D02*
G54D21*
D03*
X402431Y666750D02*
G54D21*
D03*
X402430Y641346D02*
G54D21*
D03*
X377031Y666750D02*
G54D21*
D03*
X377031Y641350D02*
G54D21*
D03*
X351631Y666750D02*
G54D21*
D03*
X351631Y641350D02*
G54D21*
D03*
X326230Y666746D02*
G54D21*
D03*
X326231Y641350D02*
G54D21*
D03*
X300831Y666750D02*
G54D21*
D03*
X300831Y641350D02*
G54D21*
D03*
X275431Y666750D02*
G54D21*
D03*
X275431Y641350D02*
G54D21*
D03*
X250030Y666746D02*
G54D21*
D03*
X250031Y641350D02*
G54D21*
D03*
X224631Y666750D02*
G54D21*
D03*
X224631Y641350D02*
G54D21*
D03*
X199231Y666750D02*
G54D21*
D03*
X199230Y641346D02*
G54D21*
D03*
X173831Y666750D02*
G54D21*
D03*
X173831Y641350D02*
G54D21*
D03*
X148430Y666746D02*
G54D21*
D03*
X123031Y666750D02*
G54D21*
D03*
X97631Y666750D02*
G54D21*
D03*
X148431Y641350D02*
G54D21*
D03*
X123031Y641350D02*
G54D21*
D03*
X97631Y641350D02*
G54D21*
D03*
X84733Y545902D02*
G54D22*
D03*
X84733Y539353D02*
G54D22*
D03*
X271859Y585589D02*
G54D22*
D03*
X219869Y553641D02*
G54D22*
D03*
X84733Y552450D02*
G54D22*
D03*
X84733Y533003D02*
G54D22*
D03*
X84733Y526455D02*
G54D22*
D03*
G54D23*
X219869Y553641D02*
X219869Y563959D01*
X226219Y570309D01*
X267494Y570309D01*
X272256Y575072D01*
X272256Y585192D01*
X271859Y585589D01*
X139700Y532606D02*
G54D22*
D03*
X158750Y532606D02*
G54D22*
D03*
G54D23*
X148431Y641350D02*
X148431Y479425D01*
X158750Y469106D01*
X228600Y469106D01*
X228600Y494506D02*
G54D21*
D03*
X228600Y469106D02*
G54D21*
D03*
X228600Y443706D02*
G54D21*
D03*
X228600Y418306D02*
G54D21*
D03*
G54D23*
X123031Y641350D02*
X123031Y542925D01*
X133350Y532606D01*
X139700Y532606D01*
G54D23*
X158750Y532606D02*
X212725Y532606D01*
X228600Y516731D01*
X228600Y494506D01*
X130200Y513531D02*
G54D22*
D03*
G54D23*
X84733Y545902D02*
X110530Y545902D01*
X130175Y526256D01*
X130175Y513556D01*
X130200Y513531D01*
X21034Y575072D02*
G54D24*
D03*
X28972Y575072D02*
G54D24*
D03*
X28972Y503634D02*
G54D24*
D03*
X21034Y503634D02*
G54D24*
D03*
X63500Y575072D02*
G54D24*
D03*
X55562Y575072D02*
G54D24*
D03*
X63500Y503634D02*
G54D24*
D03*
X55562Y503634D02*
G54D24*
D03*
X59531Y575072D02*
G54D24*
D03*
X59531Y503634D02*
G54D24*
D03*
X25003Y503634D02*
G54D24*
D03*
X25003Y575072D02*
G54D24*
D03*
X63302Y575072D02*
G54D24*
D03*
X63103Y575072D02*
G54D24*
D03*
X62905Y575072D02*
G54D24*
D03*
X62706Y575072D02*
G54D24*
D03*
X62508Y575072D02*
G54D24*
D03*
X62309Y575072D02*
G54D24*
D03*
X62111Y575072D02*
G54D24*
D03*
X61912Y575072D02*
G54D24*
D03*
X61714Y575072D02*
G54D24*
D03*
X61516Y575072D02*
G54D24*
D03*
X61317Y575072D02*
G54D24*
D03*
X61119Y575072D02*
G54D24*
D03*
X60920Y575072D02*
G54D24*
D03*
X60722Y575072D02*
G54D24*
D03*
X60523Y575072D02*
G54D24*
D03*
X60325Y575072D02*
G54D24*
D03*
X60127Y575072D02*
G54D24*
D03*
X59928Y575072D02*
G54D24*
D03*
X59730Y575072D02*
G54D24*
D03*
X59333Y575072D02*
G54D24*
D03*
X59134Y575072D02*
G54D24*
D03*
X58936Y575072D02*
G54D24*
D03*
X58738Y575072D02*
G54D24*
D03*
X58539Y575072D02*
G54D24*
D03*
X58341Y575072D02*
G54D24*
D03*
X58142Y575072D02*
G54D24*
D03*
X57944Y575072D02*
G54D24*
D03*
X57745Y575072D02*
G54D24*
D03*
X57547Y575072D02*
G54D24*
D03*
X57348Y575072D02*
G54D24*
D03*
X57150Y575072D02*
G54D24*
D03*
X55761Y575072D02*
G54D24*
D03*
X55959Y575072D02*
G54D24*
D03*
X56158Y575072D02*
G54D24*
D03*
X56356Y575072D02*
G54D24*
D03*
X56555Y575072D02*
G54D24*
D03*
X56753Y575072D02*
G54D24*
D03*
X63302Y503634D02*
G54D24*
D03*
X63103Y503634D02*
G54D24*
D03*
X62905Y503634D02*
G54D24*
D03*
X62706Y503634D02*
G54D24*
D03*
X62508Y503634D02*
G54D24*
D03*
X62309Y503634D02*
G54D24*
D03*
X62111Y503634D02*
G54D24*
D03*
X61912Y503634D02*
G54D24*
D03*
X61714Y503634D02*
G54D24*
D03*
X61516Y503634D02*
G54D24*
D03*
X61317Y503634D02*
G54D24*
D03*
X61119Y503634D02*
G54D24*
D03*
X60920Y503634D02*
G54D24*
D03*
X60722Y503634D02*
G54D24*
D03*
X60523Y503634D02*
G54D24*
D03*
X60325Y503634D02*
G54D24*
D03*
X60127Y503634D02*
G54D24*
D03*
X59928Y503634D02*
G54D24*
D03*
X55761Y503634D02*
G54D24*
D03*
X55959Y503634D02*
G54D24*
D03*
X56158Y503634D02*
G54D24*
D03*
X56356Y503634D02*
G54D24*
D03*
X56555Y503634D02*
G54D24*
D03*
X56753Y503634D02*
G54D24*
D03*
X56952Y503634D02*
G54D24*
D03*
X57150Y503634D02*
G54D24*
D03*
X57348Y503634D02*
G54D24*
D03*
X57547Y503634D02*
G54D24*
D03*
X57745Y503634D02*
G54D24*
D03*
X57944Y503634D02*
G54D24*
D03*
X58142Y503634D02*
G54D24*
D03*
X58341Y503634D02*
G54D24*
D03*
X58539Y503634D02*
G54D24*
D03*
X58539Y503634D02*
G54D24*
D03*
X58738Y503634D02*
G54D24*
D03*
X58936Y503634D02*
G54D24*
D03*
X59134Y503634D02*
G54D24*
D03*
X28972Y575072D02*
G54D24*
D03*
X21034Y575072D02*
G54D24*
D03*
X25003Y575072D02*
G54D24*
D03*
X28773Y575072D02*
G54D24*
D03*
X28575Y575072D02*
G54D24*
D03*
X28377Y575072D02*
G54D24*
D03*
X28178Y575072D02*
G54D24*
D03*
X27980Y575072D02*
G54D24*
D03*
X27781Y575072D02*
G54D24*
D03*
X27583Y575072D02*
G54D24*
D03*
X27384Y575072D02*
G54D24*
D03*
X27186Y575072D02*
G54D24*
D03*
X26988Y575072D02*
G54D24*
D03*
X26789Y575072D02*
G54D24*
D03*
X26591Y575072D02*
G54D24*
D03*
X26392Y575072D02*
G54D24*
D03*
X26194Y575072D02*
G54D24*
D03*
X25995Y575072D02*
G54D24*
D03*
X25797Y575072D02*
G54D24*
D03*
X25598Y575072D02*
G54D24*
D03*
X25400Y575072D02*
G54D24*
D03*
X25202Y575072D02*
G54D24*
D03*
X24805Y575072D02*
G54D24*
D03*
X24606Y575072D02*
G54D24*
D03*
X24408Y575072D02*
G54D24*
D03*
X24209Y575072D02*
G54D24*
D03*
X24011Y575072D02*
G54D24*
D03*
X23812Y575072D02*
G54D24*
D03*
X23614Y575072D02*
G54D24*
D03*
X23416Y575072D02*
G54D24*
D03*
X23217Y575072D02*
G54D24*
D03*
X23019Y575072D02*
G54D24*
D03*
X22820Y575072D02*
G54D24*
D03*
X22622Y575072D02*
G54D24*
D03*
X21233Y575072D02*
G54D24*
D03*
X21431Y575072D02*
G54D24*
D03*
X21630Y575072D02*
G54D24*
D03*
X21828Y575072D02*
G54D24*
D03*
X22027Y575072D02*
G54D24*
D03*
X22225Y575072D02*
G54D24*
D03*
X28972Y503634D02*
G54D24*
D03*
X21034Y503634D02*
G54D24*
D03*
X25003Y503634D02*
G54D24*
D03*
X28773Y503634D02*
G54D24*
D03*
X28575Y503634D02*
G54D24*
D03*
X28377Y503634D02*
G54D24*
D03*
X28178Y503634D02*
G54D24*
D03*
X27980Y503634D02*
G54D24*
D03*
X27781Y503634D02*
G54D24*
D03*
X27583Y503634D02*
G54D24*
D03*
X27384Y503634D02*
G54D24*
D03*
X27186Y503634D02*
G54D24*
D03*
X26988Y503634D02*
G54D24*
D03*
X26789Y503634D02*
G54D24*
D03*
X26591Y503634D02*
G54D24*
D03*
X26392Y503634D02*
G54D24*
D03*
X26194Y503634D02*
G54D24*
D03*
X25995Y503634D02*
G54D24*
D03*
X25797Y503634D02*
G54D24*
D03*
X25598Y503634D02*
G54D24*
D03*
X25400Y503634D02*
G54D24*
D03*
X21233Y503634D02*
G54D24*
D03*
X21431Y503634D02*
G54D24*
D03*
X21630Y503634D02*
G54D24*
D03*
X21828Y503634D02*
G54D24*
D03*
X22027Y503634D02*
G54D24*
D03*
X22225Y503634D02*
G54D24*
D03*
X22423Y503634D02*
G54D24*
D03*
X22622Y503634D02*
G54D24*
D03*
X22820Y503634D02*
G54D24*
D03*
X23019Y503634D02*
G54D24*
D03*
X23217Y503634D02*
G54D24*
D03*
X23416Y503634D02*
G54D24*
D03*
X23614Y503634D02*
G54D24*
D03*
X23812Y503634D02*
G54D24*
D03*
X24011Y503634D02*
G54D24*
D03*
X24011Y503634D02*
G54D24*
D03*
X24209Y503634D02*
G54D24*
D03*
X24408Y503634D02*
G54D24*
D03*
X24606Y503634D02*
G54D24*
D03*
G54D18*
X25400Y584994D02*
X25400Y565944D01*
G54D18*
X60325Y584994D02*
X60325Y564356D01*
G54D18*
X25400Y494506D02*
X25400Y513556D01*
G54D18*
X60325Y494506D02*
X60325Y513556D01*
X21828Y575072D02*
G54D24*
D03*
X22622Y575072D02*
G54D24*
D03*
X23416Y575072D02*
G54D24*
D03*
X24209Y575072D02*
G54D24*
D03*
X25003Y575072D02*
G54D24*
D03*
X25797Y575072D02*
G54D24*
D03*
X26591Y575072D02*
G54D24*
D03*
X27384Y575072D02*
G54D24*
D03*
X28178Y575072D02*
G54D24*
D03*
X56356Y575072D02*
G54D24*
D03*
X57150Y575072D02*
G54D24*
D03*
X57944Y575072D02*
G54D24*
D03*
X58738Y575072D02*
G54D24*
D03*
X59531Y575072D02*
G54D24*
D03*
X60325Y575072D02*
G54D24*
D03*
X61119Y575072D02*
G54D24*
D03*
X61912Y575072D02*
G54D24*
D03*
X62706Y575072D02*
G54D24*
D03*
X63500Y575072D02*
G54D24*
D03*
X28972Y575072D02*
G54D24*
D03*
X21034Y503634D02*
G54D24*
D03*
X21828Y503634D02*
G54D24*
D03*
X22622Y503634D02*
G54D24*
D03*
X23416Y503634D02*
G54D24*
D03*
X24209Y503634D02*
G54D24*
D03*
X25003Y503634D02*
G54D24*
D03*
X25797Y503634D02*
G54D24*
D03*
X26591Y503634D02*
G54D24*
D03*
X27384Y503634D02*
G54D24*
D03*
X28178Y503634D02*
G54D24*
D03*
X28972Y503634D02*
G54D24*
D03*
X55562Y503634D02*
G54D24*
D03*
X56356Y503634D02*
G54D24*
D03*
X57150Y503634D02*
G54D24*
D03*
X57944Y503634D02*
G54D24*
D03*
X58738Y503634D02*
G54D24*
D03*
X59531Y503634D02*
G54D24*
D03*
X60325Y503634D02*
G54D24*
D03*
X61119Y503634D02*
G54D24*
D03*
X61912Y503634D02*
G54D24*
D03*
X62706Y503634D02*
G54D24*
D03*
X63500Y503634D02*
G54D24*
D03*
X21034Y575072D02*
G54D24*
D03*
X28972Y575072D02*
G54D24*
D03*
X55562Y575072D02*
G54D24*
D03*
X48816Y354012D02*
G54D20*
D03*
X628253Y124619D02*
G54D20*
D03*
X48816Y124619D02*
G54D20*
D03*
X628253Y354012D02*
G54D20*
D03*
X580231Y366712D02*
G54D21*
D03*
X580230Y341309D02*
G54D21*
D03*
X554831Y366712D02*
G54D21*
D03*
X554831Y341312D02*
G54D21*
D03*
X529431Y366712D02*
G54D21*
D03*
X529431Y341312D02*
G54D21*
D03*
X504030Y366709D02*
G54D21*
D03*
X504031Y341312D02*
G54D21*
D03*
X478631Y366712D02*
G54D21*
D03*
X478631Y341312D02*
G54D21*
D03*
X453230Y366709D02*
G54D21*
D03*
X453231Y341312D02*
G54D21*
D03*
X427831Y366712D02*
G54D21*
D03*
X427831Y341312D02*
G54D21*
D03*
X402431Y366712D02*
G54D21*
D03*
X402430Y341309D02*
G54D21*
D03*
X377031Y366712D02*
G54D21*
D03*
X377031Y341312D02*
G54D21*
D03*
X351631Y366712D02*
G54D21*
D03*
X351631Y341312D02*
G54D21*
D03*
X326230Y366709D02*
G54D21*
D03*
X326231Y341312D02*
G54D21*
D03*
X300831Y366712D02*
G54D21*
D03*
X300831Y341312D02*
G54D21*
D03*
X275431Y366712D02*
G54D21*
D03*
X275431Y341312D02*
G54D21*
D03*
X250030Y366709D02*
G54D21*
D03*
X250031Y341312D02*
G54D21*
D03*
X224631Y366712D02*
G54D21*
D03*
X224631Y341312D02*
G54D21*
D03*
X199231Y366712D02*
G54D21*
D03*
X199230Y341309D02*
G54D21*
D03*
X173831Y366712D02*
G54D21*
D03*
X173831Y341312D02*
G54D21*
D03*
X148430Y366709D02*
G54D21*
D03*
X123031Y366712D02*
G54D21*
D03*
X97631Y366712D02*
G54D21*
D03*
X148431Y341312D02*
G54D21*
D03*
X123031Y341312D02*
G54D21*
D03*
X97631Y341312D02*
G54D21*
D03*
X84733Y245864D02*
G54D22*
D03*
X84733Y239316D02*
G54D22*
D03*
X271859Y285552D02*
G54D22*
D03*
X219869Y253603D02*
G54D22*
D03*
X84733Y252412D02*
G54D22*
D03*
X84733Y232966D02*
G54D22*
D03*
X84733Y226417D02*
G54D22*
D03*
G54D23*
X219869Y253603D02*
X219869Y263922D01*
X226219Y270272D01*
X267494Y270272D01*
X272256Y275034D01*
X272256Y285155D01*
X271859Y285552D01*
X139700Y232569D02*
G54D22*
D03*
X158750Y232569D02*
G54D22*
D03*
G54D23*
X148431Y341312D02*
X148431Y179388D01*
X158750Y169069D01*
X228600Y169069D01*
X228600Y194469D02*
G54D21*
D03*
X228600Y169069D02*
G54D21*
D03*
X228600Y143669D02*
G54D21*
D03*
X228600Y118269D02*
G54D21*
D03*
G54D23*
X123031Y341312D02*
X123031Y242888D01*
X133350Y232569D01*
X139700Y232569D01*
G54D23*
X158750Y232569D02*
X212725Y232569D01*
X228600Y216694D01*
X228600Y194469D01*
X130200Y213494D02*
G54D22*
D03*
G54D23*
X84733Y245864D02*
X110530Y245864D01*
X130175Y226219D01*
X130175Y213519D01*
X130200Y213494D01*
X21034Y275034D02*
G54D24*
D03*
X28972Y275034D02*
G54D24*
D03*
X28972Y203597D02*
G54D24*
D03*
X21034Y203597D02*
G54D24*
D03*
X63500Y275034D02*
G54D24*
D03*
X55562Y275034D02*
G54D24*
D03*
X63500Y203597D02*
G54D24*
D03*
X55562Y203597D02*
G54D24*
D03*
X59531Y275034D02*
G54D24*
D03*
X59531Y203597D02*
G54D24*
D03*
X25003Y203597D02*
G54D24*
D03*
X25003Y275034D02*
G54D24*
D03*
X63302Y275034D02*
G54D24*
D03*
X63103Y275034D02*
G54D24*
D03*
X62905Y275034D02*
G54D24*
D03*
X62706Y275034D02*
G54D24*
D03*
X62508Y275034D02*
G54D24*
D03*
X62309Y275034D02*
G54D24*
D03*
X62111Y275034D02*
G54D24*
D03*
X61912Y275034D02*
G54D24*
D03*
X61714Y275034D02*
G54D24*
D03*
X61516Y275034D02*
G54D24*
D03*
X61317Y275034D02*
G54D24*
D03*
X61119Y275034D02*
G54D24*
D03*
X60920Y275034D02*
G54D24*
D03*
X60722Y275034D02*
G54D24*
D03*
X60523Y275034D02*
G54D24*
D03*
X60325Y275034D02*
G54D24*
D03*
X60127Y275034D02*
G54D24*
D03*
X59928Y275034D02*
G54D24*
D03*
X59730Y275034D02*
G54D24*
D03*
X59333Y275034D02*
G54D24*
D03*
X59134Y275034D02*
G54D24*
D03*
X58936Y275034D02*
G54D24*
D03*
X58738Y275034D02*
G54D24*
D03*
X58539Y275034D02*
G54D24*
D03*
X58341Y275034D02*
G54D24*
D03*
X58142Y275034D02*
G54D24*
D03*
X57944Y275034D02*
G54D24*
D03*
X57745Y275034D02*
G54D24*
D03*
X57547Y275034D02*
G54D24*
D03*
X57348Y275034D02*
G54D24*
D03*
X57150Y275034D02*
G54D24*
D03*
X55761Y275034D02*
G54D24*
D03*
X55959Y275034D02*
G54D24*
D03*
X56158Y275034D02*
G54D24*
D03*
X56356Y275034D02*
G54D24*
D03*
X56555Y275034D02*
G54D24*
D03*
X56753Y275034D02*
G54D24*
D03*
X63302Y203597D02*
G54D24*
D03*
X63103Y203597D02*
G54D24*
D03*
X62905Y203597D02*
G54D24*
D03*
X62706Y203597D02*
G54D24*
D03*
X62508Y203597D02*
G54D24*
D03*
X62309Y203597D02*
G54D24*
D03*
X62111Y203597D02*
G54D24*
D03*
X61912Y203597D02*
G54D24*
D03*
X61714Y203597D02*
G54D24*
D03*
X61516Y203597D02*
G54D24*
D03*
X61317Y203597D02*
G54D24*
D03*
X61119Y203597D02*
G54D24*
D03*
X60920Y203597D02*
G54D24*
D03*
X60722Y203597D02*
G54D24*
D03*
X60523Y203597D02*
G54D24*
D03*
X60325Y203597D02*
G54D24*
D03*
X60127Y203597D02*
G54D24*
D03*
X59928Y203597D02*
G54D24*
D03*
X55761Y203597D02*
G54D24*
D03*
X55959Y203597D02*
G54D24*
D03*
X56158Y203597D02*
G54D24*
D03*
X56356Y203597D02*
G54D24*
D03*
X56555Y203597D02*
G54D24*
D03*
X56753Y203597D02*
G54D24*
D03*
X56952Y203597D02*
G54D24*
D03*
X57150Y203597D02*
G54D24*
D03*
X57348Y203597D02*
G54D24*
D03*
X57547Y203597D02*
G54D24*
D03*
X57745Y203597D02*
G54D24*
D03*
X57944Y203597D02*
G54D24*
D03*
X58142Y203597D02*
G54D24*
D03*
X58341Y203597D02*
G54D24*
D03*
X58539Y203597D02*
G54D24*
D03*
X58539Y203597D02*
G54D24*
D03*
X58738Y203597D02*
G54D24*
D03*
X58936Y203597D02*
G54D24*
D03*
X59134Y203597D02*
G54D24*
D03*
X28972Y275034D02*
G54D24*
D03*
X21034Y275034D02*
G54D24*
D03*
X25003Y275034D02*
G54D24*
D03*
X28773Y275034D02*
G54D24*
D03*
X28575Y275034D02*
G54D24*
D03*
X28377Y275034D02*
G54D24*
D03*
X28178Y275034D02*
G54D24*
D03*
X27980Y275034D02*
G54D24*
D03*
X27781Y275034D02*
G54D24*
D03*
X27583Y275034D02*
G54D24*
D03*
X27384Y275034D02*
G54D24*
D03*
X27186Y275034D02*
G54D24*
D03*
X26988Y275034D02*
G54D24*
D03*
X26789Y275034D02*
G54D24*
D03*
X26591Y275034D02*
G54D24*
D03*
X26392Y275034D02*
G54D24*
D03*
X26194Y275034D02*
G54D24*
D03*
X25995Y275034D02*
G54D24*
D03*
X25797Y275034D02*
G54D24*
D03*
X25598Y275034D02*
G54D24*
D03*
X25400Y275034D02*
G54D24*
D03*
X25202Y275034D02*
G54D24*
D03*
X24805Y275034D02*
G54D24*
D03*
X24606Y275034D02*
G54D24*
D03*
X24408Y275034D02*
G54D24*
D03*
X24209Y275034D02*
G54D24*
D03*
X24011Y275034D02*
G54D24*
D03*
X23812Y275034D02*
G54D24*
D03*
X23614Y275034D02*
G54D24*
D03*
X23416Y275034D02*
G54D24*
D03*
X23217Y275034D02*
G54D24*
D03*
X23019Y275034D02*
G54D24*
D03*
X22820Y275034D02*
G54D24*
D03*
X22622Y275034D02*
G54D24*
D03*
X21233Y275034D02*
G54D24*
D03*
X21431Y275034D02*
G54D24*
D03*
X21630Y275034D02*
G54D24*
D03*
X21828Y275034D02*
G54D24*
D03*
X22027Y275034D02*
G54D24*
D03*
X22225Y275034D02*
G54D24*
D03*
X28972Y203597D02*
G54D24*
D03*
X21034Y203597D02*
G54D24*
D03*
X25003Y203597D02*
G54D24*
D03*
X28773Y203597D02*
G54D24*
D03*
X28575Y203597D02*
G54D24*
D03*
X28377Y203597D02*
G54D24*
D03*
X28178Y203597D02*
G54D24*
D03*
X27980Y203597D02*
G54D24*
D03*
X27781Y203597D02*
G54D24*
D03*
X27583Y203597D02*
G54D24*
D03*
X27384Y203597D02*
G54D24*
D03*
X27186Y203597D02*
G54D24*
D03*
X26988Y203597D02*
G54D24*
D03*
X26789Y203597D02*
G54D24*
D03*
X26591Y203597D02*
G54D24*
D03*
X26392Y203597D02*
G54D24*
D03*
X26194Y203597D02*
G54D24*
D03*
X25995Y203597D02*
G54D24*
D03*
X25797Y203597D02*
G54D24*
D03*
X25598Y203597D02*
G54D24*
D03*
X25400Y203597D02*
G54D24*
D03*
X21233Y203597D02*
G54D24*
D03*
X21431Y203597D02*
G54D24*
D03*
X21630Y203597D02*
G54D24*
D03*
X21828Y203597D02*
G54D24*
D03*
X22027Y203597D02*
G54D24*
D03*
X22225Y203597D02*
G54D24*
D03*
X22423Y203597D02*
G54D24*
D03*
X22622Y203597D02*
G54D24*
D03*
X22820Y203597D02*
G54D24*
D03*
X23019Y203597D02*
G54D24*
D03*
X23217Y203597D02*
G54D24*
D03*
X23416Y203597D02*
G54D24*
D03*
X23614Y203597D02*
G54D24*
D03*
X23812Y203597D02*
G54D24*
D03*
X24011Y203597D02*
G54D24*
D03*
X24011Y203597D02*
G54D24*
D03*
X24209Y203597D02*
G54D24*
D03*
X24408Y203597D02*
G54D24*
D03*
X24606Y203597D02*
G54D24*
D03*
G54D18*
X25400Y284956D02*
X25400Y265906D01*
G54D18*
X60325Y284956D02*
X60325Y264319D01*
G54D18*
X25400Y194469D02*
X25400Y213519D01*
G54D18*
X60325Y194469D02*
X60325Y213519D01*
X21828Y275034D02*
G54D24*
D03*
X22622Y275034D02*
G54D24*
D03*
X23416Y275034D02*
G54D24*
D03*
X24209Y275034D02*
G54D24*
D03*
X25003Y275034D02*
G54D24*
D03*
X25797Y275034D02*
G54D24*
D03*
X26591Y275034D02*
G54D24*
D03*
X27384Y275034D02*
G54D24*
D03*
X28178Y275034D02*
G54D24*
D03*
X56356Y275034D02*
G54D24*
D03*
X57150Y275034D02*
G54D24*
D03*
X57944Y275034D02*
G54D24*
D03*
X58738Y275034D02*
G54D24*
D03*
X59531Y275034D02*
G54D24*
D03*
X60325Y275034D02*
G54D24*
D03*
X61119Y275034D02*
G54D24*
D03*
X61912Y275034D02*
G54D24*
D03*
X62706Y275034D02*
G54D24*
D03*
X63500Y275034D02*
G54D24*
D03*
X28972Y275034D02*
G54D24*
D03*
X21034Y203597D02*
G54D24*
D03*
X21828Y203597D02*
G54D24*
D03*
X22622Y203597D02*
G54D24*
D03*
X23416Y203597D02*
G54D24*
D03*
X24209Y203597D02*
G54D24*
D03*
X25003Y203597D02*
G54D24*
D03*
X25797Y203597D02*
G54D24*
D03*
X26591Y203597D02*
G54D24*
D03*
X27384Y203597D02*
G54D24*
D03*
X28178Y203597D02*
G54D24*
D03*
X28972Y203597D02*
G54D24*
D03*
X55562Y203597D02*
G54D24*
D03*
X56356Y203597D02*
G54D24*
D03*
X57150Y203597D02*
G54D24*
D03*
X57944Y203597D02*
G54D24*
D03*
X58738Y203597D02*
G54D24*
D03*
X59531Y203597D02*
G54D24*
D03*
X60325Y203597D02*
G54D24*
D03*
X61119Y203597D02*
G54D24*
D03*
X61912Y203597D02*
G54D24*
D03*
X62706Y203597D02*
G54D24*
D03*
X63500Y203597D02*
G54D24*
D03*
X21034Y275034D02*
G54D24*
D03*
X28972Y275034D02*
G54D24*
D03*
X55562Y275034D02*
G54D24*
D03*
M02*
