%FSLAX34Y34*%
%MOMM*%
%LNCOPPER_TOP*%
G71*
G01*
%ADD10C, 0.00*%
%ADD11C, 6.00*%
%ADD12C, 2.40*%
%ADD13R, 1.22X2.12*%
%ADD14R, 1.45X1.86*%
%ADD15C, 0.30*%
%ADD16R, 2.30X4.00*%
%ADD17C, 1.30*%
%ADD18C, 0.90*%
%ADD19C, 1.10*%
%ADD20C, 0.95*%
%ADD21C, 1.30*%
%ADD22C, 0.50*%
%ADD23C, 0.70*%
%ADD24R, 1.22X2.58*%
%ADD25C, 0.55*%
%ADD26R, 2.10X2.20*%
%ADD27R, 2.20X2.10*%
%ADD28C, 0.15*%
%ADD29C, 0.10*%
%ADD30C, 0.60*%
%ADD31R, 0.70X0.70*%
%ADD32C, 0.51*%
%ADD33R, 2.00X2.00*%
%ADD34R, 1.80X1.80*%
%ADD35C, 1.85*%
%ADD36R, 2.20X1.20*%
%ADD37C, 1.46*%
%ADD38C, 1.47*%
%ADD39C, 0.53*%
%ADD40C, 3.00*%
%ADD41C, 1.60*%
%ADD42R, 0.42X1.32*%
%ADD43R, 0.65X1.06*%
%ADD44R, 1.50X3.20*%
%ADD45C, 0.50*%
%ADD46R, 0.42X1.78*%
%ADD47R, 1.30X1.40*%
%ADD48R, 1.40X1.30*%
%ADD49C, 0.20*%
%ADD50R, 0.30X0.30*%
%ADD51C, 0.11*%
%ADD52R, 1.60X1.60*%
%ADD53R, 1.40X1.40*%
%ADD54C, 1.05*%
%ADD55R, 1.40X0.40*%
%LPD*%
G54D10*
X0Y1000000D02*
X680000Y1000000D01*
X680000Y70000D01*
X0Y70000D01*
X0Y1000000D01*
G36*
X0Y1000000D02*
X680000Y1000000D01*
X680000Y70000D01*
X0Y70000D01*
X0Y1000000D01*
G37*
%LPC*%
X48816Y954088D02*
G54D11*
D03*
X628253Y724694D02*
G54D11*
D03*
X48816Y724694D02*
G54D11*
D03*
X628253Y954088D02*
G54D11*
D03*
X580231Y966788D02*
G54D12*
D03*
X580230Y941384D02*
G54D12*
D03*
X554831Y966788D02*
G54D12*
D03*
X554831Y941388D02*
G54D12*
D03*
X529431Y966788D02*
G54D12*
D03*
X529431Y941388D02*
G54D12*
D03*
X504030Y966784D02*
G54D12*
D03*
X504031Y941388D02*
G54D12*
D03*
X478631Y966788D02*
G54D12*
D03*
X478631Y941388D02*
G54D12*
D03*
X453230Y966784D02*
G54D12*
D03*
X453231Y941388D02*
G54D12*
D03*
X427831Y966788D02*
G54D12*
D03*
X427831Y941388D02*
G54D12*
D03*
X402431Y966788D02*
G54D12*
D03*
X402430Y941384D02*
G54D12*
D03*
X377031Y966788D02*
G54D12*
D03*
X377031Y941388D02*
G54D12*
D03*
X351631Y966788D02*
G54D12*
D03*
X351631Y941388D02*
G54D12*
D03*
X326230Y966784D02*
G54D12*
D03*
X326231Y941388D02*
G54D12*
D03*
X300831Y966788D02*
G54D12*
D03*
X300831Y941388D02*
G54D12*
D03*
X275431Y966788D02*
G54D12*
D03*
X275431Y941388D02*
G54D12*
D03*
X250030Y966784D02*
G54D12*
D03*
X250031Y941388D02*
G54D12*
D03*
X224631Y966788D02*
G54D12*
D03*
X224631Y941388D02*
G54D12*
D03*
X199231Y966788D02*
G54D12*
D03*
X199230Y941384D02*
G54D12*
D03*
X173831Y966788D02*
G54D12*
D03*
X173831Y941388D02*
G54D12*
D03*
X148430Y966784D02*
G54D12*
D03*
X123031Y966788D02*
G54D12*
D03*
X97631Y966788D02*
G54D12*
D03*
X148431Y941388D02*
G54D12*
D03*
X123031Y941388D02*
G54D12*
D03*
X97631Y941388D02*
G54D12*
D03*
X291272Y835606D02*
G54D13*
D03*
X284772Y835606D02*
G54D13*
D03*
X278272Y835606D02*
G54D13*
D03*
X271772Y835606D02*
G54D13*
D03*
X265272Y835606D02*
G54D13*
D03*
X258772Y835606D02*
G54D13*
D03*
X252272Y835606D02*
G54D13*
D03*
X245772Y835606D02*
G54D13*
D03*
X239272Y835606D02*
G54D13*
D03*
X232772Y835606D02*
G54D13*
D03*
X226272Y835606D02*
G54D13*
D03*
X219772Y835606D02*
G54D13*
D03*
X213272Y835606D02*
G54D13*
D03*
X206772Y835606D02*
G54D13*
D03*
X291272Y904478D02*
G54D13*
D03*
X284772Y904478D02*
G54D13*
D03*
X278272Y904478D02*
G54D13*
D03*
X271772Y904478D02*
G54D13*
D03*
X265272Y904478D02*
G54D13*
D03*
X258772Y904478D02*
G54D13*
D03*
X252272Y904478D02*
G54D13*
D03*
X245772Y904478D02*
G54D13*
D03*
X239272Y904478D02*
G54D13*
D03*
X232772Y904478D02*
G54D13*
D03*
X226272Y904478D02*
G54D13*
D03*
X219772Y904478D02*
G54D13*
D03*
X213272Y904478D02*
G54D13*
D03*
X206772Y904478D02*
G54D13*
D03*
X291272Y903684D02*
G54D13*
D03*
X284772Y903684D02*
G54D13*
D03*
X278272Y903684D02*
G54D13*
D03*
X271772Y903684D02*
G54D13*
D03*
X265272Y903684D02*
G54D13*
D03*
X258772Y903684D02*
G54D13*
D03*
X252272Y903684D02*
G54D13*
D03*
X245772Y903684D02*
G54D13*
D03*
X239272Y903684D02*
G54D13*
D03*
X232772Y903684D02*
G54D13*
D03*
X226272Y903684D02*
G54D13*
D03*
X219772Y903684D02*
G54D13*
D03*
X213272Y903684D02*
G54D13*
D03*
X206772Y903684D02*
G54D13*
D03*
X291272Y836400D02*
G54D13*
D03*
X284772Y836400D02*
G54D13*
D03*
X278272Y836400D02*
G54D13*
D03*
X271772Y836400D02*
G54D13*
D03*
X265272Y836400D02*
G54D13*
D03*
X258772Y836400D02*
G54D13*
D03*
X252272Y836400D02*
G54D13*
D03*
X245772Y836400D02*
G54D13*
D03*
X239272Y836400D02*
G54D13*
D03*
X232772Y836400D02*
G54D13*
D03*
X226272Y836400D02*
G54D13*
D03*
X219772Y836400D02*
G54D13*
D03*
X213272Y836400D02*
G54D13*
D03*
X206772Y836400D02*
G54D13*
D03*
X291272Y836797D02*
G54D13*
D03*
X284772Y836797D02*
G54D13*
D03*
X278272Y836797D02*
G54D13*
D03*
X271772Y836797D02*
G54D13*
D03*
X265272Y836797D02*
G54D13*
D03*
X258772Y836797D02*
G54D13*
D03*
X252272Y836797D02*
G54D13*
D03*
X245772Y836797D02*
G54D13*
D03*
X239272Y836797D02*
G54D13*
D03*
X232772Y836797D02*
G54D13*
D03*
X226272Y836797D02*
G54D13*
D03*
X219772Y836797D02*
G54D13*
D03*
X213272Y836797D02*
G54D13*
D03*
X206772Y836797D02*
G54D13*
D03*
X291272Y903287D02*
G54D13*
D03*
X284772Y903288D02*
G54D13*
D03*
X278272Y903288D02*
G54D13*
D03*
X271772Y903288D02*
G54D13*
D03*
X265272Y903288D02*
G54D13*
D03*
X258772Y903288D02*
G54D13*
D03*
X252272Y903288D02*
G54D13*
D03*
X245772Y903287D02*
G54D13*
D03*
X239272Y903288D02*
G54D13*
D03*
X232772Y903288D02*
G54D13*
D03*
X226272Y903288D02*
G54D13*
D03*
X219772Y903288D02*
G54D13*
D03*
X213272Y903288D02*
G54D13*
D03*
X206772Y903288D02*
G54D13*
D03*
X164306Y886420D02*
G54D14*
D03*
X183356Y886420D02*
G54D14*
D03*
X164306Y864394D02*
G54D14*
D03*
X173831Y864394D02*
G54D14*
D03*
X183356Y864394D02*
G54D14*
D03*
G54D15*
X252214Y896739D02*
X252214Y892770D01*
G54D15*
X226219Y843359D02*
X226219Y847328D01*
G54D15*
X271859Y843359D02*
X271859Y847328D01*
G54D15*
X278408Y843359D02*
X278408Y847328D01*
G54D15*
X245864Y843359D02*
X245864Y847328D01*
G54D15*
X60523Y826492D02*
X55562Y826492D01*
X141288Y875506D02*
G54D16*
D03*
X99219Y875506D02*
G54D16*
D03*
X84733Y845939D02*
G54D17*
D03*
X84733Y839391D02*
G54D17*
D03*
X271859Y885627D02*
G54D18*
D03*
X219869Y853678D02*
G54D18*
D03*
X84733Y852488D02*
G54D17*
D03*
X84733Y833041D02*
G54D17*
D03*
X84733Y826492D02*
G54D17*
D03*
G54D19*
X84733Y852488D02*
X61912Y852488D01*
G54D19*
X84733Y845939D02*
X61714Y845939D01*
G54D19*
X84733Y839391D02*
X61714Y839391D01*
G54D19*
X84733Y833041D02*
X61714Y833041D01*
G54D19*
X84733Y826492D02*
X61714Y826492D01*
G54D20*
X271859Y885627D02*
X271859Y896541D01*
G54D20*
X219869Y853678D02*
X219869Y842962D01*
G54D21*
X99219Y888206D02*
X64691Y853678D01*
G54D21*
X164306Y864394D02*
X149225Y864394D01*
G54D22*
X173831Y869752D02*
X173831Y873919D01*
G54D23*
X164306Y859234D02*
X164306Y855266D01*
X183356Y855266D01*
X183356Y859234D01*
G54D19*
X123031Y966788D02*
X97631Y966788D01*
G54D21*
X97631Y966788D02*
X96044Y966788D01*
X81756Y952500D01*
X81756Y915988D01*
X92075Y905669D01*
X154781Y905669D01*
X165100Y895350D01*
X165100Y887214D01*
X164306Y886420D01*
X407988Y902494D02*
G54D24*
D03*
X414487Y902494D02*
G54D24*
D03*
X407591Y843147D02*
G54D24*
D03*
X414091Y843147D02*
G54D24*
D03*
X420591Y843147D02*
G54D24*
D03*
X427091Y843147D02*
G54D24*
D03*
X420988Y902494D02*
G54D24*
D03*
X427488Y902494D02*
G54D24*
D03*
G54D25*
X165100Y896144D02*
X192088Y896144D01*
X196056Y892175D01*
X196056Y885031D01*
X200025Y881062D01*
X231378Y881062D01*
X239316Y873125D01*
X239316Y842169D01*
G54D25*
X84733Y845939D02*
X189508Y845939D01*
X196056Y852488D01*
X210741Y852488D01*
X213122Y850106D01*
X213122Y841772D01*
G54D25*
X84733Y839391D02*
X207169Y839391D01*
G54D25*
X173831Y966788D02*
X175022Y966788D01*
X186531Y955278D01*
X186531Y924719D01*
X192088Y919162D01*
X263128Y919162D01*
X265509Y916781D01*
X265509Y908447D01*
G54D25*
X199231Y966788D02*
X202009Y966788D01*
X211931Y956866D01*
X211931Y927497D01*
X214312Y925116D01*
X286544Y925116D01*
X291306Y920353D01*
X291306Y909241D01*
X193675Y743744D02*
G54D26*
D03*
X174675Y743744D02*
G54D26*
D03*
X193675Y711994D02*
G54D26*
D03*
X174675Y711994D02*
G54D26*
D03*
X146050Y711994D02*
G54D26*
D03*
X127050Y711994D02*
G54D26*
D03*
X146050Y743744D02*
G54D26*
D03*
X127050Y743744D02*
G54D26*
D03*
G54D25*
X258762Y831453D02*
X258762Y818753D01*
X252412Y812403D01*
X215106Y812403D01*
X209550Y806847D01*
X209550Y715566D01*
X205978Y711994D01*
X193675Y711994D01*
G54D25*
X252412Y830262D02*
X252412Y819944D01*
X250031Y817562D01*
X213519Y817562D01*
X204788Y808831D01*
X204788Y755253D01*
X198834Y749300D01*
G54D25*
X146050Y743744D02*
X174675Y743744D01*
G54D25*
X146050Y711994D02*
X174675Y711994D01*
G54D25*
X127050Y711994D02*
X127050Y743744D01*
G54D25*
X219869Y829866D02*
X219869Y824706D01*
X217091Y821928D01*
X210741Y821928D01*
X199628Y810816D01*
G54D25*
X127050Y743744D02*
X127050Y755303D01*
X132953Y761206D01*
X193278Y761206D01*
X199628Y767556D01*
X199628Y810816D01*
X139700Y832644D02*
G54D18*
D03*
X158750Y832644D02*
G54D18*
D03*
G54D25*
X139700Y832644D02*
X158750Y832644D01*
X317475Y885006D02*
G54D27*
D03*
X317475Y866006D02*
G54D27*
D03*
X346050Y885006D02*
G54D27*
D03*
X346050Y866006D02*
G54D27*
D03*
G54D25*
X346050Y861244D02*
X239738Y861244D01*
X239712Y861219D01*
G54D28*
X317475Y885006D02*
X374625Y885006D01*
X374625Y885006D02*
G54D27*
D03*
X374625Y866006D02*
G54D27*
D03*
X449238Y882229D02*
G54D27*
D03*
X449238Y863229D02*
G54D27*
D03*
G54D25*
X427831Y941388D02*
X427831Y902838D01*
X427488Y902494D01*
G54D25*
X427831Y966788D02*
X425847Y966788D01*
X415131Y956072D01*
X415131Y925909D01*
X421084Y919956D01*
X421084Y909638D01*
G54D25*
X228600Y743744D02*
X361950Y743744D01*
X393700Y775494D01*
X393675Y902072D01*
G54D25*
X374625Y861244D02*
X393675Y861244D01*
X393700Y861219D01*
X228600Y794544D02*
G54D12*
D03*
X228600Y769144D02*
G54D12*
D03*
X228600Y743744D02*
G54D12*
D03*
X228600Y718344D02*
G54D12*
D03*
G54D28*
X228600Y718344D02*
X228600Y703659D01*
G54D22*
X300831Y941388D02*
X300831Y925512D01*
X323850Y902494D01*
X407988Y902494D01*
G54D29*
X407591Y835422D02*
X407591Y829469D01*
G54D29*
X413941Y835422D02*
X413941Y829469D01*
G54D29*
X420688Y835422D02*
X420688Y829469D01*
G54D29*
X427038Y835819D02*
X427038Y829469D01*
X184175Y794569D02*
G54D27*
D03*
X184175Y813569D02*
G54D27*
D03*
G54D25*
X184175Y813569D02*
X201588Y813569D01*
X201612Y813594D01*
G54D28*
X184175Y794569D02*
X184175Y781869D01*
X184150Y781844D01*
X130200Y794569D02*
G54D27*
D03*
X130200Y813569D02*
G54D27*
D03*
X104800Y794569D02*
G54D27*
D03*
X104800Y813569D02*
G54D27*
D03*
X130200Y813569D02*
G54D18*
D03*
G54D25*
X104800Y813569D02*
X104800Y838969D01*
X104775Y838994D01*
G54D28*
X130200Y794569D02*
X130200Y781869D01*
X130175Y781844D01*
G54D28*
X104800Y794569D02*
X104800Y781869D01*
X104775Y781844D01*
G54D30*
X588641Y829294D02*
X587441Y827294D01*
X585041Y826294D01*
X582641Y826294D01*
X580241Y827294D01*
X579041Y829294D01*
X579041Y839294D01*
X580241Y841294D01*
X582641Y842294D01*
X585041Y842294D01*
X587441Y841294D01*
X588641Y839294D01*
G54D30*
X600241Y828694D02*
X600241Y832694D01*
X599041Y834694D01*
X596641Y835294D01*
X594241Y834694D01*
X593041Y832694D01*
X593041Y828694D01*
X594241Y826694D01*
X596641Y826294D01*
X599041Y826694D01*
X600241Y828694D01*
G54D30*
X604641Y826294D02*
X604641Y835294D01*
G54D30*
X604641Y833294D02*
X605841Y834694D01*
X608241Y835294D01*
X610641Y834694D01*
X611841Y833294D01*
X611841Y826294D01*
G54D30*
X616241Y827294D02*
X618641Y826294D01*
X621041Y826294D01*
X623441Y827294D01*
X623441Y829294D01*
X622241Y830294D01*
X617441Y831294D01*
X616241Y832294D01*
X616241Y834294D01*
X618641Y835294D01*
X621041Y835294D01*
X623441Y834294D01*
G54D30*
X635041Y828694D02*
X635041Y832694D01*
X633841Y834694D01*
X631441Y835294D01*
X629041Y834694D01*
X627841Y832694D01*
X627841Y828694D01*
X629041Y826694D01*
X631441Y826294D01*
X633841Y826694D01*
X635041Y828694D01*
G54D30*
X639441Y826294D02*
X639441Y842294D01*
G54D30*
X651041Y827294D02*
X649121Y826294D01*
X646721Y826294D01*
X644321Y827294D01*
X643841Y829294D01*
X643841Y832694D01*
X645041Y834694D01*
X647441Y835294D01*
X649841Y834694D01*
X651041Y833294D01*
X651041Y831294D01*
X643841Y831294D01*
X488950Y845344D02*
G54D31*
D03*
X498475Y845344D02*
G54D31*
D03*
X503238Y845344D02*
G54D31*
D03*
X503238Y840581D02*
G54D31*
D03*
X498475Y835819D02*
G54D31*
D03*
X488950Y831056D02*
G54D31*
D03*
X488950Y826294D02*
G54D31*
D03*
X498475Y826294D02*
G54D31*
D03*
X503238Y826294D02*
G54D31*
D03*
X511175Y826294D02*
G54D31*
D03*
X511175Y831056D02*
G54D31*
D03*
X511175Y835819D02*
G54D31*
D03*
X511175Y840581D02*
G54D31*
D03*
X511175Y845344D02*
G54D31*
D03*
X515938Y845344D02*
G54D31*
D03*
X520700Y845344D02*
G54D31*
D03*
X515938Y835819D02*
G54D31*
D03*
X520700Y835819D02*
G54D31*
D03*
X515938Y826294D02*
G54D31*
D03*
X520700Y826294D02*
G54D31*
D03*
X533400Y845344D02*
G54D31*
D03*
X533400Y840581D02*
G54D31*
D03*
X533400Y835819D02*
G54D31*
D03*
X533400Y831056D02*
G54D31*
D03*
X533400Y826294D02*
G54D31*
D03*
X538162Y845344D02*
G54D31*
D03*
X538162Y835819D02*
G54D31*
D03*
X547688Y840581D02*
G54D31*
D03*
X547688Y831056D02*
G54D31*
D03*
X547688Y826294D02*
G54D31*
D03*
X555625Y840581D02*
G54D31*
D03*
X555625Y835819D02*
G54D31*
D03*
X555625Y831056D02*
G54D31*
D03*
X560388Y826294D02*
G54D31*
D03*
X565150Y826294D02*
G54D31*
D03*
X569912Y831056D02*
G54D31*
D03*
X569912Y835819D02*
G54D31*
D03*
X569912Y840581D02*
G54D31*
D03*
X560388Y845344D02*
G54D31*
D03*
X565150Y845344D02*
G54D31*
D03*
G54D32*
X627062Y808038D02*
X627062Y813038D01*
G54D32*
X627062Y811926D02*
X628396Y813038D01*
X629729Y813038D01*
G54D32*
X636174Y808593D02*
X635107Y808038D01*
X633774Y808038D01*
X632440Y808593D01*
X632174Y809704D01*
X632174Y811593D01*
X632840Y812704D01*
X634174Y813038D01*
X635507Y812704D01*
X636174Y811926D01*
X636174Y810815D01*
X632174Y810815D01*
G54D32*
X638618Y813038D02*
X641284Y808038D01*
X643951Y813038D01*
G54D32*
X651728Y808038D02*
X646394Y808038D01*
X646394Y808593D01*
X647061Y809704D01*
X651061Y813038D01*
X651728Y814149D01*
X651728Y815260D01*
X651061Y816371D01*
X649728Y816926D01*
X648394Y816926D01*
X647061Y816371D01*
X646394Y815260D01*
X149225Y909638D02*
G54D33*
D03*
X177225Y909638D02*
G54D33*
D03*
G54D29*
X177225Y909638D02*
X190500Y909638D01*
X555625Y845344D02*
G54D31*
D03*
X569912Y845344D02*
G54D31*
D03*
X569912Y826294D02*
G54D31*
D03*
X555625Y826294D02*
G54D31*
D03*
X493712Y845344D02*
G54D31*
D03*
X493712Y835819D02*
G54D31*
D03*
X493712Y826294D02*
G54D31*
D03*
X525462Y845344D02*
G54D31*
D03*
X525462Y835819D02*
G54D31*
D03*
X525462Y826294D02*
G54D31*
D03*
X542925Y845344D02*
G54D31*
D03*
X542925Y835819D02*
G54D31*
D03*
G54D25*
X374650Y835819D02*
X374650Y864394D01*
G54D28*
X355600Y835819D02*
X342900Y835819D01*
X355600Y835819D02*
G54D26*
D03*
X374600Y835819D02*
G54D26*
D03*
G54D22*
X449238Y863229D02*
X394123Y863229D01*
X393700Y862806D01*
G54D22*
X479401Y882229D02*
X420315Y882229D01*
X414338Y888206D01*
X414338Y896144D01*
X479401Y882229D02*
G54D27*
D03*
X479401Y863229D02*
G54D27*
D03*
G54D29*
X479401Y863229D02*
X479401Y848543D01*
X479425Y848519D01*
X479425Y880666D02*
G54D34*
D03*
X479425Y863997D02*
G54D34*
D03*
X21034Y875109D02*
G54D35*
D03*
X28972Y875109D02*
G54D35*
D03*
X28972Y803672D02*
G54D35*
D03*
X21034Y803672D02*
G54D35*
D03*
X63500Y875109D02*
G54D35*
D03*
X55562Y875109D02*
G54D35*
D03*
X63500Y803672D02*
G54D35*
D03*
X55562Y803672D02*
G54D35*
D03*
X59531Y875109D02*
G54D35*
D03*
X59531Y803672D02*
G54D35*
D03*
X25003Y803672D02*
G54D35*
D03*
X25003Y875109D02*
G54D35*
D03*
X54777Y839390D02*
G54D36*
D03*
X54777Y832890D02*
G54D36*
D03*
X54777Y826390D02*
G54D36*
D03*
X54777Y845890D02*
G54D36*
D03*
X54777Y852390D02*
G54D36*
D03*
X46236Y859433D02*
G54D37*
D03*
X46236Y819348D02*
G54D37*
D03*
X63302Y875109D02*
G54D35*
D03*
X63103Y875109D02*
G54D35*
D03*
X62905Y875109D02*
G54D35*
D03*
X62706Y875109D02*
G54D35*
D03*
X62508Y875109D02*
G54D35*
D03*
X62309Y875109D02*
G54D35*
D03*
X62111Y875109D02*
G54D35*
D03*
X61912Y875109D02*
G54D35*
D03*
X61714Y875109D02*
G54D35*
D03*
X61516Y875109D02*
G54D35*
D03*
X61317Y875109D02*
G54D35*
D03*
X61119Y875109D02*
G54D35*
D03*
X60920Y875109D02*
G54D35*
D03*
X60722Y875109D02*
G54D35*
D03*
X60523Y875109D02*
G54D35*
D03*
X60325Y875109D02*
G54D35*
D03*
X60127Y875109D02*
G54D35*
D03*
X59928Y875109D02*
G54D35*
D03*
X59730Y875109D02*
G54D35*
D03*
X59333Y875109D02*
G54D35*
D03*
X59134Y875109D02*
G54D35*
D03*
X58936Y875109D02*
G54D35*
D03*
X58738Y875109D02*
G54D35*
D03*
X58539Y875109D02*
G54D35*
D03*
X58341Y875109D02*
G54D35*
D03*
X58142Y875109D02*
G54D35*
D03*
X57944Y875109D02*
G54D35*
D03*
X57745Y875109D02*
G54D35*
D03*
X57547Y875109D02*
G54D35*
D03*
X57348Y875109D02*
G54D35*
D03*
X57150Y875109D02*
G54D35*
D03*
X55761Y875109D02*
G54D35*
D03*
X55959Y875109D02*
G54D35*
D03*
X56158Y875109D02*
G54D35*
D03*
X56356Y875109D02*
G54D35*
D03*
X56555Y875109D02*
G54D35*
D03*
X56753Y875109D02*
G54D35*
D03*
X63302Y803672D02*
G54D35*
D03*
X63103Y803672D02*
G54D35*
D03*
X62905Y803672D02*
G54D35*
D03*
X62706Y803672D02*
G54D35*
D03*
X62508Y803672D02*
G54D35*
D03*
X62309Y803672D02*
G54D35*
D03*
X62111Y803672D02*
G54D35*
D03*
X61912Y803672D02*
G54D35*
D03*
X61714Y803672D02*
G54D35*
D03*
X61516Y803672D02*
G54D35*
D03*
X61317Y803672D02*
G54D35*
D03*
X61119Y803672D02*
G54D35*
D03*
X60920Y803672D02*
G54D35*
D03*
X60722Y803672D02*
G54D35*
D03*
X60523Y803672D02*
G54D35*
D03*
X60325Y803672D02*
G54D35*
D03*
X60127Y803672D02*
G54D35*
D03*
X59928Y803672D02*
G54D35*
D03*
X55761Y803672D02*
G54D35*
D03*
X55959Y803672D02*
G54D35*
D03*
X56158Y803672D02*
G54D35*
D03*
X56356Y803672D02*
G54D35*
D03*
X56555Y803672D02*
G54D35*
D03*
X56753Y803672D02*
G54D35*
D03*
X56952Y803672D02*
G54D35*
D03*
X57150Y803672D02*
G54D35*
D03*
X57348Y803672D02*
G54D35*
D03*
X57547Y803672D02*
G54D35*
D03*
X57745Y803672D02*
G54D35*
D03*
X57944Y803672D02*
G54D35*
D03*
X58142Y803672D02*
G54D35*
D03*
X58341Y803672D02*
G54D35*
D03*
X58539Y803672D02*
G54D35*
D03*
X58539Y803672D02*
G54D35*
D03*
X58738Y803672D02*
G54D35*
D03*
X58936Y803672D02*
G54D35*
D03*
X59134Y803672D02*
G54D35*
D03*
X28972Y875109D02*
G54D35*
D03*
X21034Y875109D02*
G54D35*
D03*
X25003Y875109D02*
G54D35*
D03*
X28773Y875109D02*
G54D35*
D03*
X28575Y875109D02*
G54D35*
D03*
X28377Y875109D02*
G54D35*
D03*
X28178Y875109D02*
G54D35*
D03*
X27980Y875109D02*
G54D35*
D03*
X27781Y875109D02*
G54D35*
D03*
X27583Y875109D02*
G54D35*
D03*
X27384Y875109D02*
G54D35*
D03*
X27186Y875109D02*
G54D35*
D03*
X26988Y875109D02*
G54D35*
D03*
X26789Y875109D02*
G54D35*
D03*
X26591Y875109D02*
G54D35*
D03*
X26392Y875109D02*
G54D35*
D03*
X26194Y875109D02*
G54D35*
D03*
X25995Y875109D02*
G54D35*
D03*
X25797Y875109D02*
G54D35*
D03*
X25598Y875109D02*
G54D35*
D03*
X25400Y875109D02*
G54D35*
D03*
X25202Y875109D02*
G54D35*
D03*
X24805Y875109D02*
G54D35*
D03*
X24606Y875109D02*
G54D35*
D03*
X24408Y875109D02*
G54D35*
D03*
X24209Y875109D02*
G54D35*
D03*
X24011Y875109D02*
G54D35*
D03*
X23812Y875109D02*
G54D35*
D03*
X23614Y875109D02*
G54D35*
D03*
X23416Y875109D02*
G54D35*
D03*
X23217Y875109D02*
G54D35*
D03*
X23019Y875109D02*
G54D35*
D03*
X22820Y875109D02*
G54D35*
D03*
X22622Y875109D02*
G54D35*
D03*
X21233Y875109D02*
G54D35*
D03*
X21431Y875109D02*
G54D35*
D03*
X21630Y875109D02*
G54D35*
D03*
X21828Y875109D02*
G54D35*
D03*
X22027Y875109D02*
G54D35*
D03*
X22225Y875109D02*
G54D35*
D03*
X28972Y803672D02*
G54D35*
D03*
X21034Y803672D02*
G54D35*
D03*
X25003Y803672D02*
G54D35*
D03*
X28773Y803672D02*
G54D35*
D03*
X28575Y803672D02*
G54D35*
D03*
X28377Y803672D02*
G54D35*
D03*
X28178Y803672D02*
G54D35*
D03*
X27980Y803672D02*
G54D35*
D03*
X27781Y803672D02*
G54D35*
D03*
X27583Y803672D02*
G54D35*
D03*
X27384Y803672D02*
G54D35*
D03*
X27186Y803672D02*
G54D35*
D03*
X26988Y803672D02*
G54D35*
D03*
X26789Y803672D02*
G54D35*
D03*
X26591Y803672D02*
G54D35*
D03*
X26392Y803672D02*
G54D35*
D03*
X26194Y803672D02*
G54D35*
D03*
X25995Y803672D02*
G54D35*
D03*
X25797Y803672D02*
G54D35*
D03*
X25598Y803672D02*
G54D35*
D03*
X25400Y803672D02*
G54D35*
D03*
X21233Y803672D02*
G54D35*
D03*
X21431Y803672D02*
G54D35*
D03*
X21630Y803672D02*
G54D35*
D03*
X21828Y803672D02*
G54D35*
D03*
X22027Y803672D02*
G54D35*
D03*
X22225Y803672D02*
G54D35*
D03*
X22423Y803672D02*
G54D35*
D03*
X22622Y803672D02*
G54D35*
D03*
X22820Y803672D02*
G54D35*
D03*
X23019Y803672D02*
G54D35*
D03*
X23217Y803672D02*
G54D35*
D03*
X23416Y803672D02*
G54D35*
D03*
X23614Y803672D02*
G54D35*
D03*
X23812Y803672D02*
G54D35*
D03*
X24011Y803672D02*
G54D35*
D03*
X24011Y803672D02*
G54D35*
D03*
X24209Y803672D02*
G54D35*
D03*
X24408Y803672D02*
G54D35*
D03*
X24606Y803672D02*
G54D35*
D03*
G54D22*
X25400Y885031D02*
X25400Y865981D01*
G54D22*
X25400Y794544D02*
X25400Y813594D01*
G54D22*
X60325Y794544D02*
X60325Y813594D01*
G54D22*
X60325Y885031D02*
X60325Y864394D01*
X21828Y875109D02*
G54D35*
D03*
X22622Y875109D02*
G54D35*
D03*
X23416Y875109D02*
G54D35*
D03*
X24209Y875109D02*
G54D35*
D03*
X25003Y875109D02*
G54D35*
D03*
X25797Y875109D02*
G54D35*
D03*
X26591Y875109D02*
G54D35*
D03*
X27384Y875109D02*
G54D35*
D03*
X28178Y875109D02*
G54D35*
D03*
X56356Y875109D02*
G54D35*
D03*
X57150Y875109D02*
G54D35*
D03*
X57944Y875109D02*
G54D35*
D03*
X58738Y875109D02*
G54D35*
D03*
X59531Y875109D02*
G54D35*
D03*
X60325Y875109D02*
G54D35*
D03*
X61119Y875109D02*
G54D35*
D03*
X61912Y875109D02*
G54D35*
D03*
X62706Y875109D02*
G54D35*
D03*
X63500Y875109D02*
G54D35*
D03*
X28972Y875109D02*
G54D35*
D03*
X21034Y803672D02*
G54D35*
D03*
X21828Y803672D02*
G54D35*
D03*
X22622Y803672D02*
G54D35*
D03*
X23416Y803672D02*
G54D35*
D03*
X24209Y803672D02*
G54D35*
D03*
X25003Y803672D02*
G54D35*
D03*
X25797Y803672D02*
G54D35*
D03*
X26591Y803672D02*
G54D35*
D03*
X27384Y803672D02*
G54D35*
D03*
X28178Y803672D02*
G54D35*
D03*
X28972Y803672D02*
G54D35*
D03*
X55562Y803672D02*
G54D35*
D03*
X56356Y803672D02*
G54D35*
D03*
X57150Y803672D02*
G54D35*
D03*
X57944Y803672D02*
G54D35*
D03*
X58738Y803672D02*
G54D35*
D03*
X59531Y803672D02*
G54D35*
D03*
X60325Y803672D02*
G54D35*
D03*
X61119Y803672D02*
G54D35*
D03*
X61912Y803672D02*
G54D35*
D03*
X62706Y803672D02*
G54D35*
D03*
X63500Y803672D02*
G54D35*
D03*
X21034Y875109D02*
G54D35*
D03*
X28972Y875109D02*
G54D35*
D03*
X55562Y875109D02*
G54D35*
D03*
X46236Y859433D02*
G54D38*
D03*
X46236Y819348D02*
G54D38*
D03*
X48816Y654050D02*
G54D11*
D03*
X628253Y424656D02*
G54D11*
D03*
X48816Y424656D02*
G54D11*
D03*
X628253Y654050D02*
G54D11*
D03*
X580231Y666750D02*
G54D12*
D03*
X580230Y641346D02*
G54D12*
D03*
X554831Y666750D02*
G54D12*
D03*
X554831Y641350D02*
G54D12*
D03*
X529431Y666750D02*
G54D12*
D03*
X529431Y641350D02*
G54D12*
D03*
X504030Y666746D02*
G54D12*
D03*
X504031Y641350D02*
G54D12*
D03*
X478631Y666750D02*
G54D12*
D03*
X478631Y641350D02*
G54D12*
D03*
X453230Y666746D02*
G54D12*
D03*
X453231Y641350D02*
G54D12*
D03*
X427831Y666750D02*
G54D12*
D03*
X427831Y641350D02*
G54D12*
D03*
X402431Y666750D02*
G54D12*
D03*
X402430Y641346D02*
G54D12*
D03*
X377031Y666750D02*
G54D12*
D03*
X377031Y641350D02*
G54D12*
D03*
X351631Y666750D02*
G54D12*
D03*
X351631Y641350D02*
G54D12*
D03*
X326230Y666746D02*
G54D12*
D03*
X326231Y641350D02*
G54D12*
D03*
X300831Y666750D02*
G54D12*
D03*
X300831Y641350D02*
G54D12*
D03*
X275431Y666750D02*
G54D12*
D03*
X275431Y641350D02*
G54D12*
D03*
X250030Y666746D02*
G54D12*
D03*
X250031Y641350D02*
G54D12*
D03*
X224631Y666750D02*
G54D12*
D03*
X224631Y641350D02*
G54D12*
D03*
X199231Y666750D02*
G54D12*
D03*
X199230Y641346D02*
G54D12*
D03*
X173831Y666750D02*
G54D12*
D03*
X173831Y641350D02*
G54D12*
D03*
X148430Y666746D02*
G54D12*
D03*
X123031Y666750D02*
G54D12*
D03*
X97631Y666750D02*
G54D12*
D03*
X148431Y641350D02*
G54D12*
D03*
X123031Y641350D02*
G54D12*
D03*
X97631Y641350D02*
G54D12*
D03*
X291272Y535569D02*
G54D13*
D03*
X284772Y535569D02*
G54D13*
D03*
X278272Y535569D02*
G54D13*
D03*
X271772Y535569D02*
G54D13*
D03*
X265272Y535569D02*
G54D13*
D03*
X258772Y535569D02*
G54D13*
D03*
X252272Y535569D02*
G54D13*
D03*
X245772Y535569D02*
G54D13*
D03*
X239272Y535569D02*
G54D13*
D03*
X232772Y535569D02*
G54D13*
D03*
X226272Y535569D02*
G54D13*
D03*
X219772Y535569D02*
G54D13*
D03*
X213272Y535569D02*
G54D13*
D03*
X206772Y535569D02*
G54D13*
D03*
X291272Y604441D02*
G54D13*
D03*
X284772Y604441D02*
G54D13*
D03*
X278272Y604440D02*
G54D13*
D03*
X271772Y604440D02*
G54D13*
D03*
X265272Y604440D02*
G54D13*
D03*
X258772Y604440D02*
G54D13*
D03*
X252272Y604440D02*
G54D13*
D03*
X245772Y604440D02*
G54D13*
D03*
X239272Y604440D02*
G54D13*
D03*
X232772Y604440D02*
G54D13*
D03*
X226272Y604440D02*
G54D13*
D03*
X219772Y604440D02*
G54D13*
D03*
X213272Y604440D02*
G54D13*
D03*
X206772Y604440D02*
G54D13*
D03*
X291272Y603647D02*
G54D13*
D03*
X284772Y603647D02*
G54D13*
D03*
X278272Y603647D02*
G54D13*
D03*
X271772Y603647D02*
G54D13*
D03*
X265272Y603647D02*
G54D13*
D03*
X258772Y603647D02*
G54D13*
D03*
X252272Y603647D02*
G54D13*
D03*
X245772Y603647D02*
G54D13*
D03*
X239272Y603647D02*
G54D13*
D03*
X232772Y603647D02*
G54D13*
D03*
X226272Y603647D02*
G54D13*
D03*
X219772Y603647D02*
G54D13*
D03*
X213272Y603647D02*
G54D13*
D03*
X206772Y603647D02*
G54D13*
D03*
X291272Y536362D02*
G54D13*
D03*
X284772Y536362D02*
G54D13*
D03*
X278272Y536362D02*
G54D13*
D03*
X271772Y536362D02*
G54D13*
D03*
X265272Y536362D02*
G54D13*
D03*
X258772Y536363D02*
G54D13*
D03*
X252272Y536363D02*
G54D13*
D03*
X245772Y536362D02*
G54D13*
D03*
X239272Y536362D02*
G54D13*
D03*
X232772Y536362D02*
G54D13*
D03*
X226272Y536362D02*
G54D13*
D03*
X219772Y536362D02*
G54D13*
D03*
X213272Y536362D02*
G54D13*
D03*
X206772Y536362D02*
G54D13*
D03*
X291272Y536759D02*
G54D13*
D03*
X284772Y536759D02*
G54D13*
D03*
X278272Y536759D02*
G54D13*
D03*
X271772Y536759D02*
G54D13*
D03*
X265272Y536759D02*
G54D13*
D03*
X258772Y536759D02*
G54D13*
D03*
X252272Y536759D02*
G54D13*
D03*
X245772Y536759D02*
G54D13*
D03*
X239272Y536759D02*
G54D13*
D03*
X232772Y536759D02*
G54D13*
D03*
X226272Y536759D02*
G54D13*
D03*
X219772Y536759D02*
G54D13*
D03*
X213272Y536759D02*
G54D13*
D03*
X206772Y536759D02*
G54D13*
D03*
X291272Y603250D02*
G54D13*
D03*
X284772Y603250D02*
G54D13*
D03*
X278272Y603250D02*
G54D13*
D03*
X271772Y603250D02*
G54D13*
D03*
X265272Y603250D02*
G54D13*
D03*
X258772Y603250D02*
G54D13*
D03*
X252272Y603250D02*
G54D13*
D03*
X245772Y603250D02*
G54D13*
D03*
X239272Y603250D02*
G54D13*
D03*
X232772Y603250D02*
G54D13*
D03*
X226272Y603250D02*
G54D13*
D03*
X219772Y603250D02*
G54D13*
D03*
X213272Y603250D02*
G54D13*
D03*
X206772Y603250D02*
G54D13*
D03*
X164306Y586383D02*
G54D14*
D03*
X183356Y586383D02*
G54D14*
D03*
X164306Y564356D02*
G54D14*
D03*
X173831Y564356D02*
G54D14*
D03*
X183356Y564356D02*
G54D14*
D03*
G54D15*
X252214Y596702D02*
X252214Y592733D01*
G54D15*
X226219Y543322D02*
X226219Y547291D01*
G54D15*
X271859Y543322D02*
X271859Y547291D01*
G54D15*
X278408Y543322D02*
X278408Y547291D01*
G54D15*
X245864Y543322D02*
X245864Y547291D01*
G54D15*
X60523Y526455D02*
X55562Y526455D01*
X141288Y575469D02*
G54D16*
D03*
X99219Y575469D02*
G54D16*
D03*
X84733Y545902D02*
G54D17*
D03*
X84733Y539353D02*
G54D17*
D03*
X271859Y585589D02*
G54D18*
D03*
X219869Y553641D02*
G54D18*
D03*
X84733Y552450D02*
G54D17*
D03*
X84733Y533003D02*
G54D17*
D03*
X84733Y526455D02*
G54D17*
D03*
G54D19*
X84733Y552450D02*
X61912Y552450D01*
G54D19*
X84733Y545902D02*
X61714Y545902D01*
G54D19*
X84733Y539353D02*
X61714Y539353D01*
G54D19*
X84733Y533003D02*
X61714Y533003D01*
G54D19*
X84733Y526455D02*
X61714Y526455D01*
G54D20*
X271859Y585589D02*
X271859Y596503D01*
G54D20*
X219869Y553641D02*
X219869Y542925D01*
G54D21*
X99219Y588169D02*
X64691Y553641D01*
G54D21*
X164306Y564356D02*
X149225Y564356D01*
G54D22*
X173831Y569714D02*
X173831Y573881D01*
G54D23*
X164306Y559197D02*
X164306Y555228D01*
X183356Y555228D01*
X183356Y559197D01*
G54D19*
X123031Y666750D02*
X97631Y666750D01*
G54D21*
X97631Y666750D02*
X96044Y666750D01*
X81756Y652462D01*
X81756Y615950D01*
X92075Y605631D01*
X154781Y605631D01*
X165100Y595312D01*
X165100Y587177D01*
X164306Y586383D01*
X407988Y602456D02*
G54D24*
D03*
X414487Y602456D02*
G54D24*
D03*
X407591Y543109D02*
G54D24*
D03*
X414091Y543109D02*
G54D24*
D03*
X420591Y543109D02*
G54D24*
D03*
X427091Y543109D02*
G54D24*
D03*
X420988Y602456D02*
G54D24*
D03*
X427488Y602456D02*
G54D24*
D03*
G54D25*
X165100Y596106D02*
X192088Y596106D01*
X196056Y592138D01*
X196056Y584994D01*
X200025Y581025D01*
X231378Y581025D01*
X239316Y573088D01*
X239316Y542131D01*
G54D25*
X84733Y545902D02*
X189508Y545902D01*
X196056Y552450D01*
X210741Y552450D01*
X213122Y550069D01*
X213122Y541734D01*
G54D25*
X84733Y539353D02*
X207169Y539353D01*
G54D25*
X173831Y666750D02*
X175022Y666750D01*
X186531Y655241D01*
X186531Y624681D01*
X192088Y619125D01*
X263128Y619125D01*
X265509Y616744D01*
X265509Y608409D01*
G54D25*
X199231Y666750D02*
X202009Y666750D01*
X211931Y656828D01*
X211931Y627459D01*
X214312Y625078D01*
X286544Y625078D01*
X291306Y620316D01*
X291306Y609203D01*
X193675Y443706D02*
G54D26*
D03*
X174675Y443706D02*
G54D26*
D03*
X193675Y411956D02*
G54D26*
D03*
X174675Y411956D02*
G54D26*
D03*
X146050Y411956D02*
G54D26*
D03*
X127050Y411956D02*
G54D26*
D03*
X146050Y443706D02*
G54D26*
D03*
X127050Y443706D02*
G54D26*
D03*
G54D25*
X258762Y531416D02*
X258762Y518716D01*
X252412Y512366D01*
X215106Y512366D01*
X209550Y506809D01*
X209550Y415528D01*
X205978Y411956D01*
X193675Y411956D01*
G54D25*
X252412Y530225D02*
X252412Y519906D01*
X250031Y517525D01*
X213519Y517525D01*
X204788Y508794D01*
X204788Y455216D01*
X198834Y449262D01*
G54D25*
X146050Y443706D02*
X174675Y443706D01*
G54D25*
X146050Y411956D02*
X174675Y411956D01*
G54D25*
X127050Y411956D02*
X127050Y443706D01*
G54D25*
X219869Y529828D02*
X219869Y524669D01*
X217091Y521891D01*
X210741Y521891D01*
X199628Y510778D01*
G54D25*
X127050Y443706D02*
X127050Y455266D01*
X132953Y461169D01*
X193278Y461169D01*
X199628Y467519D01*
X199628Y510778D01*
X139700Y532606D02*
G54D18*
D03*
X158750Y532606D02*
G54D18*
D03*
G54D25*
X139700Y532606D02*
X158750Y532606D01*
X317475Y584969D02*
G54D27*
D03*
X317475Y565969D02*
G54D27*
D03*
X346050Y584969D02*
G54D27*
D03*
X346050Y565969D02*
G54D27*
D03*
G54D25*
X346050Y561206D02*
X239738Y561206D01*
X239712Y561181D01*
G54D28*
X317475Y584969D02*
X374625Y584969D01*
X374625Y584969D02*
G54D27*
D03*
X374625Y565969D02*
G54D27*
D03*
X449238Y582192D02*
G54D27*
D03*
X449238Y563192D02*
G54D27*
D03*
G54D25*
X427831Y641350D02*
X427831Y602800D01*
X427488Y602456D01*
G54D25*
X427831Y666750D02*
X425847Y666750D01*
X415131Y656034D01*
X415131Y625872D01*
X421084Y619919D01*
X421084Y609600D01*
G54D25*
X228600Y443706D02*
X361950Y443706D01*
X393700Y475456D01*
X393675Y602034D01*
G54D25*
X374625Y561206D02*
X393675Y561206D01*
X393700Y561181D01*
X228600Y494506D02*
G54D12*
D03*
X228600Y469106D02*
G54D12*
D03*
X228600Y443706D02*
G54D12*
D03*
X228600Y418306D02*
G54D12*
D03*
G54D28*
X228600Y418306D02*
X228600Y403622D01*
G54D22*
X300831Y641350D02*
X300831Y625475D01*
X323850Y602456D01*
X407988Y602456D01*
G54D29*
X407591Y535384D02*
X407591Y529431D01*
G54D29*
X413941Y535384D02*
X413941Y529431D01*
G54D29*
X420688Y535384D02*
X420688Y529431D01*
G54D29*
X427038Y535781D02*
X427038Y529431D01*
X184175Y494531D02*
G54D27*
D03*
X184175Y513531D02*
G54D27*
D03*
G54D25*
X184175Y513531D02*
X201588Y513531D01*
X201612Y513556D01*
G54D28*
X184175Y494531D02*
X184175Y481831D01*
X184150Y481806D01*
X130200Y494531D02*
G54D27*
D03*
X130200Y513531D02*
G54D27*
D03*
X104800Y494531D02*
G54D27*
D03*
X104800Y513531D02*
G54D27*
D03*
X130200Y513531D02*
G54D18*
D03*
G54D25*
X104800Y513531D02*
X104800Y538931D01*
X104775Y538956D01*
G54D28*
X130200Y494531D02*
X130200Y481831D01*
X130175Y481806D01*
G54D28*
X104800Y494531D02*
X104800Y481831D01*
X104775Y481806D01*
G54D30*
X588641Y529256D02*
X587441Y527256D01*
X585041Y526256D01*
X582641Y526256D01*
X580241Y527256D01*
X579041Y529256D01*
X579041Y539256D01*
X580241Y541256D01*
X582641Y542256D01*
X585041Y542256D01*
X587441Y541256D01*
X588641Y539256D01*
G54D30*
X600241Y528656D02*
X600241Y532656D01*
X599041Y534656D01*
X596641Y535256D01*
X594241Y534656D01*
X593041Y532656D01*
X593041Y528656D01*
X594241Y526656D01*
X596641Y526256D01*
X599041Y526656D01*
X600241Y528656D01*
G54D30*
X604641Y526256D02*
X604641Y535256D01*
G54D30*
X604641Y533256D02*
X605841Y534656D01*
X608241Y535256D01*
X610641Y534656D01*
X611841Y533256D01*
X611841Y526256D01*
G54D30*
X616241Y527256D02*
X618641Y526256D01*
X621041Y526256D01*
X623441Y527256D01*
X623441Y529256D01*
X622241Y530256D01*
X617441Y531256D01*
X616241Y532256D01*
X616241Y534256D01*
X618641Y535256D01*
X621041Y535256D01*
X623441Y534256D01*
G54D30*
X635041Y528656D02*
X635041Y532656D01*
X633841Y534656D01*
X631441Y535256D01*
X629041Y534656D01*
X627841Y532656D01*
X627841Y528656D01*
X629041Y526656D01*
X631441Y526256D01*
X633841Y526656D01*
X635041Y528656D01*
G54D30*
X639441Y526256D02*
X639441Y542256D01*
G54D30*
X651041Y527256D02*
X649121Y526256D01*
X646721Y526256D01*
X644321Y527256D01*
X643841Y529256D01*
X643841Y532656D01*
X645041Y534656D01*
X647441Y535256D01*
X649841Y534656D01*
X651041Y533256D01*
X651041Y531256D01*
X643841Y531256D01*
X488950Y545306D02*
G54D31*
D03*
X498475Y545306D02*
G54D31*
D03*
X503238Y545306D02*
G54D31*
D03*
X503238Y540544D02*
G54D31*
D03*
X498475Y535781D02*
G54D31*
D03*
X488950Y531019D02*
G54D31*
D03*
X488950Y526256D02*
G54D31*
D03*
X498475Y526256D02*
G54D31*
D03*
X503238Y526256D02*
G54D31*
D03*
X511175Y526256D02*
G54D31*
D03*
X511175Y531019D02*
G54D31*
D03*
X511175Y535781D02*
G54D31*
D03*
X511175Y540544D02*
G54D31*
D03*
X511175Y545306D02*
G54D31*
D03*
X515938Y545306D02*
G54D31*
D03*
X520700Y545306D02*
G54D31*
D03*
X515938Y535781D02*
G54D31*
D03*
X520700Y535781D02*
G54D31*
D03*
X515938Y526256D02*
G54D31*
D03*
X520700Y526256D02*
G54D31*
D03*
X533400Y545306D02*
G54D31*
D03*
X533400Y540544D02*
G54D31*
D03*
X533400Y535781D02*
G54D31*
D03*
X533400Y531019D02*
G54D31*
D03*
X533400Y526256D02*
G54D31*
D03*
X538162Y545306D02*
G54D31*
D03*
X538162Y535781D02*
G54D31*
D03*
X547688Y540544D02*
G54D31*
D03*
X547688Y531019D02*
G54D31*
D03*
X547688Y526256D02*
G54D31*
D03*
X555625Y540544D02*
G54D31*
D03*
X555625Y535781D02*
G54D31*
D03*
X555625Y531019D02*
G54D31*
D03*
X560388Y526256D02*
G54D31*
D03*
X565150Y526256D02*
G54D31*
D03*
X569912Y531019D02*
G54D31*
D03*
X569912Y535781D02*
G54D31*
D03*
X569912Y540544D02*
G54D31*
D03*
X560388Y545306D02*
G54D31*
D03*
X565150Y545306D02*
G54D31*
D03*
G54D32*
X627062Y508000D02*
X627062Y513000D01*
G54D32*
X627062Y511889D02*
X628396Y513000D01*
X629729Y513000D01*
G54D32*
X636174Y508556D02*
X635107Y508000D01*
X633774Y508000D01*
X632440Y508556D01*
X632174Y509667D01*
X632174Y511556D01*
X632840Y512667D01*
X634174Y513000D01*
X635507Y512667D01*
X636174Y511889D01*
X636174Y510778D01*
X632174Y510778D01*
G54D32*
X638618Y513000D02*
X641284Y508000D01*
X643951Y513000D01*
G54D32*
X651728Y508000D02*
X646394Y508000D01*
X646394Y508556D01*
X647061Y509667D01*
X651061Y513000D01*
X651728Y514111D01*
X651728Y515222D01*
X651061Y516333D01*
X649728Y516889D01*
X648394Y516889D01*
X647061Y516333D01*
X646394Y515222D01*
X149225Y609600D02*
G54D33*
D03*
X177225Y609600D02*
G54D33*
D03*
G54D29*
X177225Y609600D02*
X190500Y609600D01*
X555625Y545306D02*
G54D31*
D03*
X569912Y545306D02*
G54D31*
D03*
X569912Y526256D02*
G54D31*
D03*
X555625Y526256D02*
G54D31*
D03*
X493712Y545306D02*
G54D31*
D03*
X493712Y535781D02*
G54D31*
D03*
X493712Y526256D02*
G54D31*
D03*
X525462Y545306D02*
G54D31*
D03*
X525462Y535781D02*
G54D31*
D03*
X525462Y526256D02*
G54D31*
D03*
X542925Y545306D02*
G54D31*
D03*
X542925Y535781D02*
G54D31*
D03*
G54D25*
X374650Y535781D02*
X374650Y564356D01*
G54D28*
X355600Y535781D02*
X342900Y535781D01*
X355600Y535781D02*
G54D26*
D03*
X374600Y535781D02*
G54D26*
D03*
G54D22*
X449238Y563192D02*
X394123Y563192D01*
X393700Y562769D01*
G54D22*
X479401Y582192D02*
X420315Y582192D01*
X414338Y588169D01*
X414338Y596106D01*
X479401Y582192D02*
G54D27*
D03*
X479401Y563192D02*
G54D27*
D03*
G54D29*
X479401Y563192D02*
X479401Y548505D01*
X479425Y548481D01*
X479425Y580628D02*
G54D34*
D03*
X479425Y563959D02*
G54D34*
D03*
X21034Y575072D02*
G54D35*
D03*
X28972Y575072D02*
G54D35*
D03*
X28972Y503634D02*
G54D35*
D03*
X21034Y503634D02*
G54D35*
D03*
X63500Y575072D02*
G54D35*
D03*
X55562Y575072D02*
G54D35*
D03*
X63500Y503634D02*
G54D35*
D03*
X55562Y503634D02*
G54D35*
D03*
X59531Y575072D02*
G54D35*
D03*
X59531Y503634D02*
G54D35*
D03*
X25003Y503634D02*
G54D35*
D03*
X25003Y575072D02*
G54D35*
D03*
X54777Y539353D02*
G54D36*
D03*
X54777Y532853D02*
G54D36*
D03*
X54777Y526353D02*
G54D36*
D03*
X54777Y545853D02*
G54D36*
D03*
X54777Y552353D02*
G54D36*
D03*
X46236Y559395D02*
G54D37*
D03*
X46236Y519311D02*
G54D37*
D03*
X63302Y575072D02*
G54D35*
D03*
X63103Y575072D02*
G54D35*
D03*
X62905Y575072D02*
G54D35*
D03*
X62706Y575072D02*
G54D35*
D03*
X62508Y575072D02*
G54D35*
D03*
X62309Y575072D02*
G54D35*
D03*
X62111Y575072D02*
G54D35*
D03*
X61912Y575072D02*
G54D35*
D03*
X61714Y575072D02*
G54D35*
D03*
X61516Y575072D02*
G54D35*
D03*
X61317Y575072D02*
G54D35*
D03*
X61119Y575072D02*
G54D35*
D03*
X60920Y575072D02*
G54D35*
D03*
X60722Y575072D02*
G54D35*
D03*
X60523Y575072D02*
G54D35*
D03*
X60325Y575072D02*
G54D35*
D03*
X60127Y575072D02*
G54D35*
D03*
X59928Y575072D02*
G54D35*
D03*
X59730Y575072D02*
G54D35*
D03*
X59333Y575072D02*
G54D35*
D03*
X59134Y575072D02*
G54D35*
D03*
X58936Y575072D02*
G54D35*
D03*
X58738Y575072D02*
G54D35*
D03*
X58539Y575072D02*
G54D35*
D03*
X58341Y575072D02*
G54D35*
D03*
X58142Y575072D02*
G54D35*
D03*
X57944Y575072D02*
G54D35*
D03*
X57745Y575072D02*
G54D35*
D03*
X57547Y575072D02*
G54D35*
D03*
X57348Y575072D02*
G54D35*
D03*
X57150Y575072D02*
G54D35*
D03*
X55761Y575072D02*
G54D35*
D03*
X55959Y575072D02*
G54D35*
D03*
X56158Y575072D02*
G54D35*
D03*
X56356Y575072D02*
G54D35*
D03*
X56555Y575072D02*
G54D35*
D03*
X56753Y575072D02*
G54D35*
D03*
X63302Y503634D02*
G54D35*
D03*
X63103Y503634D02*
G54D35*
D03*
X62905Y503634D02*
G54D35*
D03*
X62706Y503634D02*
G54D35*
D03*
X62508Y503634D02*
G54D35*
D03*
X62309Y503634D02*
G54D35*
D03*
X62111Y503634D02*
G54D35*
D03*
X61912Y503634D02*
G54D35*
D03*
X61714Y503634D02*
G54D35*
D03*
X61516Y503634D02*
G54D35*
D03*
X61317Y503634D02*
G54D35*
D03*
X61119Y503634D02*
G54D35*
D03*
X60920Y503634D02*
G54D35*
D03*
X60722Y503634D02*
G54D35*
D03*
X60523Y503634D02*
G54D35*
D03*
X60325Y503634D02*
G54D35*
D03*
X60127Y503634D02*
G54D35*
D03*
X59928Y503634D02*
G54D35*
D03*
X55761Y503634D02*
G54D35*
D03*
X55959Y503634D02*
G54D35*
D03*
X56158Y503634D02*
G54D35*
D03*
X56356Y503634D02*
G54D35*
D03*
X56555Y503634D02*
G54D35*
D03*
X56753Y503634D02*
G54D35*
D03*
X56952Y503634D02*
G54D35*
D03*
X57150Y503634D02*
G54D35*
D03*
X57348Y503634D02*
G54D35*
D03*
X57547Y503634D02*
G54D35*
D03*
X57745Y503634D02*
G54D35*
D03*
X57944Y503634D02*
G54D35*
D03*
X58142Y503634D02*
G54D35*
D03*
X58341Y503634D02*
G54D35*
D03*
X58539Y503634D02*
G54D35*
D03*
X58539Y503634D02*
G54D35*
D03*
X58738Y503634D02*
G54D35*
D03*
X58936Y503634D02*
G54D35*
D03*
X59134Y503634D02*
G54D35*
D03*
X28972Y575072D02*
G54D35*
D03*
X21034Y575072D02*
G54D35*
D03*
X25003Y575072D02*
G54D35*
D03*
X28773Y575072D02*
G54D35*
D03*
X28575Y575072D02*
G54D35*
D03*
X28377Y575072D02*
G54D35*
D03*
X28178Y575072D02*
G54D35*
D03*
X27980Y575072D02*
G54D35*
D03*
X27781Y575072D02*
G54D35*
D03*
X27583Y575072D02*
G54D35*
D03*
X27384Y575072D02*
G54D35*
D03*
X27186Y575072D02*
G54D35*
D03*
X26988Y575072D02*
G54D35*
D03*
X26789Y575072D02*
G54D35*
D03*
X26591Y575072D02*
G54D35*
D03*
X26392Y575072D02*
G54D35*
D03*
X26194Y575072D02*
G54D35*
D03*
X25995Y575072D02*
G54D35*
D03*
X25797Y575072D02*
G54D35*
D03*
X25598Y575072D02*
G54D35*
D03*
X25400Y575072D02*
G54D35*
D03*
X25202Y575072D02*
G54D35*
D03*
X24805Y575072D02*
G54D35*
D03*
X24606Y575072D02*
G54D35*
D03*
X24408Y575072D02*
G54D35*
D03*
X24209Y575072D02*
G54D35*
D03*
X24011Y575072D02*
G54D35*
D03*
X23812Y575072D02*
G54D35*
D03*
X23614Y575072D02*
G54D35*
D03*
X23416Y575072D02*
G54D35*
D03*
X23217Y575072D02*
G54D35*
D03*
X23019Y575072D02*
G54D35*
D03*
X22820Y575072D02*
G54D35*
D03*
X22622Y575072D02*
G54D35*
D03*
X21233Y575072D02*
G54D35*
D03*
X21431Y575072D02*
G54D35*
D03*
X21630Y575072D02*
G54D35*
D03*
X21828Y575072D02*
G54D35*
D03*
X22027Y575072D02*
G54D35*
D03*
X22225Y575072D02*
G54D35*
D03*
X28972Y503634D02*
G54D35*
D03*
X21034Y503634D02*
G54D35*
D03*
X25003Y503634D02*
G54D35*
D03*
X28773Y503634D02*
G54D35*
D03*
X28575Y503634D02*
G54D35*
D03*
X28377Y503634D02*
G54D35*
D03*
X28178Y503634D02*
G54D35*
D03*
X27980Y503634D02*
G54D35*
D03*
X27781Y503634D02*
G54D35*
D03*
X27583Y503634D02*
G54D35*
D03*
X27384Y503634D02*
G54D35*
D03*
X27186Y503634D02*
G54D35*
D03*
X26988Y503634D02*
G54D35*
D03*
X26789Y503634D02*
G54D35*
D03*
X26591Y503634D02*
G54D35*
D03*
X26392Y503634D02*
G54D35*
D03*
X26194Y503634D02*
G54D35*
D03*
X25995Y503634D02*
G54D35*
D03*
X25797Y503634D02*
G54D35*
D03*
X25598Y503634D02*
G54D35*
D03*
X25400Y503634D02*
G54D35*
D03*
X21233Y503634D02*
G54D35*
D03*
X21431Y503634D02*
G54D35*
D03*
X21630Y503634D02*
G54D35*
D03*
X21828Y503634D02*
G54D35*
D03*
X22027Y503634D02*
G54D35*
D03*
X22225Y503634D02*
G54D35*
D03*
X22423Y503634D02*
G54D35*
D03*
X22622Y503634D02*
G54D35*
D03*
X22820Y503634D02*
G54D35*
D03*
X23019Y503634D02*
G54D35*
D03*
X23217Y503634D02*
G54D35*
D03*
X23416Y503634D02*
G54D35*
D03*
X23614Y503634D02*
G54D35*
D03*
X23812Y503634D02*
G54D35*
D03*
X24011Y503634D02*
G54D35*
D03*
X24011Y503634D02*
G54D35*
D03*
X24209Y503634D02*
G54D35*
D03*
X24408Y503634D02*
G54D35*
D03*
X24606Y503634D02*
G54D35*
D03*
G54D22*
X25400Y584994D02*
X25400Y565944D01*
G54D22*
X25400Y494506D02*
X25400Y513556D01*
G54D22*
X60325Y494506D02*
X60325Y513556D01*
G54D22*
X60325Y584994D02*
X60325Y564356D01*
X21828Y575072D02*
G54D35*
D03*
X22622Y575072D02*
G54D35*
D03*
X23416Y575072D02*
G54D35*
D03*
X24209Y575072D02*
G54D35*
D03*
X25003Y575072D02*
G54D35*
D03*
X25797Y575072D02*
G54D35*
D03*
X26591Y575072D02*
G54D35*
D03*
X27384Y575072D02*
G54D35*
D03*
X28178Y575072D02*
G54D35*
D03*
X56356Y575072D02*
G54D35*
D03*
X57150Y575072D02*
G54D35*
D03*
X57944Y575072D02*
G54D35*
D03*
X58738Y575072D02*
G54D35*
D03*
X59531Y575072D02*
G54D35*
D03*
X60325Y575072D02*
G54D35*
D03*
X61119Y575072D02*
G54D35*
D03*
X61912Y575072D02*
G54D35*
D03*
X62706Y575072D02*
G54D35*
D03*
X63500Y575072D02*
G54D35*
D03*
X28972Y575072D02*
G54D35*
D03*
X21034Y503634D02*
G54D35*
D03*
X21828Y503634D02*
G54D35*
D03*
X22622Y503634D02*
G54D35*
D03*
X23416Y503634D02*
G54D35*
D03*
X24209Y503634D02*
G54D35*
D03*
X25003Y503634D02*
G54D35*
D03*
X25797Y503634D02*
G54D35*
D03*
X26591Y503634D02*
G54D35*
D03*
X27384Y503634D02*
G54D35*
D03*
X28178Y503634D02*
G54D35*
D03*
X28972Y503634D02*
G54D35*
D03*
X55562Y503634D02*
G54D35*
D03*
X56356Y503634D02*
G54D35*
D03*
X57150Y503634D02*
G54D35*
D03*
X57944Y503634D02*
G54D35*
D03*
X58738Y503634D02*
G54D35*
D03*
X59531Y503634D02*
G54D35*
D03*
X60325Y503634D02*
G54D35*
D03*
X61119Y503634D02*
G54D35*
D03*
X61912Y503634D02*
G54D35*
D03*
X62706Y503634D02*
G54D35*
D03*
X63500Y503634D02*
G54D35*
D03*
X21034Y575072D02*
G54D35*
D03*
X28972Y575072D02*
G54D35*
D03*
X55562Y575072D02*
G54D35*
D03*
X46236Y559395D02*
G54D38*
D03*
X46236Y519311D02*
G54D38*
D03*
X48816Y354012D02*
G54D11*
D03*
X628253Y124619D02*
G54D11*
D03*
X48816Y124619D02*
G54D11*
D03*
X628253Y354012D02*
G54D11*
D03*
X580231Y366712D02*
G54D12*
D03*
X580230Y341309D02*
G54D12*
D03*
X554831Y366712D02*
G54D12*
D03*
X554831Y341312D02*
G54D12*
D03*
X529431Y366712D02*
G54D12*
D03*
X529431Y341312D02*
G54D12*
D03*
X504030Y366709D02*
G54D12*
D03*
X504031Y341312D02*
G54D12*
D03*
X478631Y366712D02*
G54D12*
D03*
X478631Y341312D02*
G54D12*
D03*
X453230Y366709D02*
G54D12*
D03*
X453231Y341312D02*
G54D12*
D03*
X427831Y366712D02*
G54D12*
D03*
X427831Y341312D02*
G54D12*
D03*
X402431Y366712D02*
G54D12*
D03*
X402430Y341309D02*
G54D12*
D03*
X377031Y366712D02*
G54D12*
D03*
X377031Y341312D02*
G54D12*
D03*
X351631Y366712D02*
G54D12*
D03*
X351631Y341312D02*
G54D12*
D03*
X326230Y366709D02*
G54D12*
D03*
X326231Y341312D02*
G54D12*
D03*
X300831Y366712D02*
G54D12*
D03*
X300831Y341312D02*
G54D12*
D03*
X275431Y366712D02*
G54D12*
D03*
X275431Y341312D02*
G54D12*
D03*
X250030Y366709D02*
G54D12*
D03*
X250031Y341312D02*
G54D12*
D03*
X224631Y366712D02*
G54D12*
D03*
X224631Y341312D02*
G54D12*
D03*
X199231Y366712D02*
G54D12*
D03*
X199230Y341309D02*
G54D12*
D03*
X173831Y366712D02*
G54D12*
D03*
X173831Y341312D02*
G54D12*
D03*
X148430Y366709D02*
G54D12*
D03*
X123031Y366712D02*
G54D12*
D03*
X97631Y366712D02*
G54D12*
D03*
X148431Y341312D02*
G54D12*
D03*
X123031Y341312D02*
G54D12*
D03*
X97631Y341312D02*
G54D12*
D03*
X291272Y235531D02*
G54D13*
D03*
X284772Y235531D02*
G54D13*
D03*
X278272Y235531D02*
G54D13*
D03*
X271772Y235531D02*
G54D13*
D03*
X265272Y235531D02*
G54D13*
D03*
X258772Y235531D02*
G54D13*
D03*
X252272Y235531D02*
G54D13*
D03*
X245772Y235531D02*
G54D13*
D03*
X239272Y235531D02*
G54D13*
D03*
X232772Y235531D02*
G54D13*
D03*
X226272Y235531D02*
G54D13*
D03*
X219772Y235531D02*
G54D13*
D03*
X213272Y235531D02*
G54D13*
D03*
X206772Y235531D02*
G54D13*
D03*
X291272Y304403D02*
G54D13*
D03*
X284772Y304403D02*
G54D13*
D03*
X278272Y304403D02*
G54D13*
D03*
X271772Y304403D02*
G54D13*
D03*
X265272Y304403D02*
G54D13*
D03*
X258772Y304403D02*
G54D13*
D03*
X252272Y304403D02*
G54D13*
D03*
X245772Y304403D02*
G54D13*
D03*
X239272Y304403D02*
G54D13*
D03*
X232772Y304403D02*
G54D13*
D03*
X226272Y304403D02*
G54D13*
D03*
X219772Y304403D02*
G54D13*
D03*
X213272Y304403D02*
G54D13*
D03*
X206772Y304403D02*
G54D13*
D03*
X291272Y303609D02*
G54D13*
D03*
X284772Y303609D02*
G54D13*
D03*
X278272Y303609D02*
G54D13*
D03*
X271772Y303609D02*
G54D13*
D03*
X265272Y303609D02*
G54D13*
D03*
X258772Y303609D02*
G54D13*
D03*
X252272Y303609D02*
G54D13*
D03*
X245772Y303609D02*
G54D13*
D03*
X239272Y303609D02*
G54D13*
D03*
X232772Y303609D02*
G54D13*
D03*
X226272Y303609D02*
G54D13*
D03*
X219772Y303609D02*
G54D13*
D03*
X213272Y303609D02*
G54D13*
D03*
X206772Y303609D02*
G54D13*
D03*
X291272Y236325D02*
G54D13*
D03*
X284772Y236325D02*
G54D13*
D03*
X278272Y236325D02*
G54D13*
D03*
X271772Y236325D02*
G54D13*
D03*
X265272Y236325D02*
G54D13*
D03*
X258772Y236325D02*
G54D13*
D03*
X252272Y236325D02*
G54D13*
D03*
X245772Y236325D02*
G54D13*
D03*
X239272Y236325D02*
G54D13*
D03*
X232772Y236325D02*
G54D13*
D03*
X226272Y236325D02*
G54D13*
D03*
X219772Y236325D02*
G54D13*
D03*
X213272Y236325D02*
G54D13*
D03*
X206772Y236325D02*
G54D13*
D03*
X291272Y236722D02*
G54D13*
D03*
X284772Y236722D02*
G54D13*
D03*
X278272Y236722D02*
G54D13*
D03*
X271772Y236722D02*
G54D13*
D03*
X265272Y236722D02*
G54D13*
D03*
X258772Y236722D02*
G54D13*
D03*
X252272Y236722D02*
G54D13*
D03*
X245772Y236722D02*
G54D13*
D03*
X239272Y236722D02*
G54D13*
D03*
X232772Y236722D02*
G54D13*
D03*
X226272Y236722D02*
G54D13*
D03*
X219772Y236722D02*
G54D13*
D03*
X213272Y236722D02*
G54D13*
D03*
X206772Y236722D02*
G54D13*
D03*
X291272Y303212D02*
G54D13*
D03*
X284772Y303212D02*
G54D13*
D03*
X278272Y303212D02*
G54D13*
D03*
X271772Y303212D02*
G54D13*
D03*
X265272Y303212D02*
G54D13*
D03*
X258772Y303213D02*
G54D13*
D03*
X252272Y303212D02*
G54D13*
D03*
X245772Y303212D02*
G54D13*
D03*
X239272Y303212D02*
G54D13*
D03*
X232772Y303212D02*
G54D13*
D03*
X226272Y303212D02*
G54D13*
D03*
X219772Y303212D02*
G54D13*
D03*
X213272Y303212D02*
G54D13*
D03*
X206772Y303212D02*
G54D13*
D03*
X164306Y286345D02*
G54D14*
D03*
X183356Y286345D02*
G54D14*
D03*
X164306Y264319D02*
G54D14*
D03*
X173831Y264319D02*
G54D14*
D03*
X183356Y264319D02*
G54D14*
D03*
G54D15*
X252214Y296664D02*
X252214Y292695D01*
G54D15*
X226219Y243284D02*
X226219Y247253D01*
G54D15*
X271859Y243284D02*
X271859Y247253D01*
G54D15*
X278408Y243284D02*
X278408Y247253D01*
G54D15*
X245864Y243284D02*
X245864Y247253D01*
G54D15*
X60523Y226417D02*
X55562Y226417D01*
X141288Y275431D02*
G54D16*
D03*
X99219Y275431D02*
G54D16*
D03*
X84733Y245864D02*
G54D17*
D03*
X84733Y239316D02*
G54D17*
D03*
X271859Y285552D02*
G54D18*
D03*
X219869Y253603D02*
G54D18*
D03*
X84733Y252412D02*
G54D17*
D03*
X84733Y232966D02*
G54D17*
D03*
X84733Y226417D02*
G54D17*
D03*
G54D19*
X84733Y252412D02*
X61912Y252412D01*
G54D19*
X84733Y245864D02*
X61714Y245864D01*
G54D19*
X84733Y239316D02*
X61714Y239316D01*
G54D19*
X84733Y232966D02*
X61714Y232966D01*
G54D19*
X84733Y226417D02*
X61714Y226417D01*
G54D20*
X271859Y285552D02*
X271859Y296466D01*
G54D20*
X219869Y253603D02*
X219869Y242888D01*
G54D21*
X99219Y288131D02*
X64691Y253603D01*
G54D21*
X164306Y264319D02*
X149225Y264319D01*
G54D22*
X173831Y269677D02*
X173831Y273844D01*
G54D23*
X164306Y259159D02*
X164306Y255191D01*
X183356Y255191D01*
X183356Y259159D01*
G54D19*
X123031Y366712D02*
X97631Y366712D01*
G54D21*
X97631Y366712D02*
X96044Y366712D01*
X81756Y352425D01*
X81756Y315912D01*
X92075Y305594D01*
X154781Y305594D01*
X165100Y295275D01*
X165100Y287139D01*
X164306Y286345D01*
X407988Y302419D02*
G54D24*
D03*
X414487Y302419D02*
G54D24*
D03*
X407591Y243072D02*
G54D24*
D03*
X414091Y243072D02*
G54D24*
D03*
X420591Y243072D02*
G54D24*
D03*
X427091Y243072D02*
G54D24*
D03*
X420988Y302419D02*
G54D24*
D03*
X427488Y302419D02*
G54D24*
D03*
G54D25*
X165100Y296069D02*
X192088Y296069D01*
X196056Y292100D01*
X196056Y284956D01*
X200025Y280988D01*
X231378Y280988D01*
X239316Y273050D01*
X239316Y242094D01*
G54D25*
X84733Y245864D02*
X189508Y245864D01*
X196056Y252412D01*
X210741Y252412D01*
X213122Y250031D01*
X213122Y241697D01*
G54D25*
X84733Y239316D02*
X207169Y239316D01*
G54D25*
X173831Y366712D02*
X175022Y366712D01*
X186531Y355203D01*
X186531Y324644D01*
X192088Y319088D01*
X263128Y319088D01*
X265509Y316706D01*
X265509Y308372D01*
G54D25*
X199231Y366712D02*
X202009Y366712D01*
X211931Y356791D01*
X211931Y327422D01*
X214312Y325041D01*
X286544Y325041D01*
X291306Y320278D01*
X291306Y309166D01*
X193675Y143669D02*
G54D26*
D03*
X174675Y143669D02*
G54D26*
D03*
X193675Y111919D02*
G54D26*
D03*
X174675Y111919D02*
G54D26*
D03*
X146050Y111919D02*
G54D26*
D03*
X127050Y111919D02*
G54D26*
D03*
X146050Y143669D02*
G54D26*
D03*
X127050Y143669D02*
G54D26*
D03*
G54D25*
X258762Y231378D02*
X258762Y218678D01*
X252412Y212328D01*
X215106Y212328D01*
X209550Y206772D01*
X209550Y115491D01*
X205978Y111919D01*
X193675Y111919D01*
G54D25*
X252412Y230188D02*
X252412Y219869D01*
X250031Y217488D01*
X213519Y217488D01*
X204788Y208756D01*
X204788Y155178D01*
X198834Y149225D01*
G54D25*
X146050Y143669D02*
X174675Y143669D01*
G54D25*
X146050Y111919D02*
X174675Y111919D01*
G54D25*
X127050Y111919D02*
X127050Y143669D01*
G54D25*
X219869Y229791D02*
X219869Y224631D01*
X217091Y221853D01*
X210741Y221853D01*
X199628Y210741D01*
G54D25*
X127050Y143669D02*
X127050Y155228D01*
X132953Y161131D01*
X193278Y161131D01*
X199628Y167481D01*
X199628Y210741D01*
X139700Y232569D02*
G54D18*
D03*
X158750Y232569D02*
G54D18*
D03*
G54D25*
X139700Y232569D02*
X158750Y232569D01*
X317475Y284931D02*
G54D27*
D03*
X317475Y265931D02*
G54D27*
D03*
X346050Y284931D02*
G54D27*
D03*
X346050Y265931D02*
G54D27*
D03*
G54D25*
X346050Y261169D02*
X239738Y261169D01*
X239712Y261144D01*
G54D28*
X317475Y284931D02*
X374625Y284931D01*
X374625Y284931D02*
G54D27*
D03*
X374625Y265931D02*
G54D27*
D03*
X449238Y282154D02*
G54D27*
D03*
X449238Y263154D02*
G54D27*
D03*
G54D25*
X427831Y341312D02*
X427831Y302762D01*
X427488Y302419D01*
G54D25*
X427831Y366712D02*
X425847Y366712D01*
X415131Y355997D01*
X415131Y325834D01*
X421084Y319881D01*
X421084Y309562D01*
G54D25*
X228600Y143669D02*
X361950Y143669D01*
X393700Y175419D01*
X393675Y301997D01*
G54D25*
X374625Y261169D02*
X393675Y261169D01*
X393700Y261144D01*
X228600Y194469D02*
G54D12*
D03*
X228600Y169069D02*
G54D12*
D03*
X228600Y143669D02*
G54D12*
D03*
X228600Y118269D02*
G54D12*
D03*
G54D28*
X228600Y118269D02*
X228600Y103584D01*
G54D22*
X300831Y341312D02*
X300831Y325438D01*
X323850Y302419D01*
X407988Y302419D01*
G54D29*
X407591Y235347D02*
X407591Y229394D01*
G54D29*
X413941Y235347D02*
X413941Y229394D01*
G54D29*
X420688Y235347D02*
X420688Y229394D01*
G54D29*
X427038Y235744D02*
X427038Y229394D01*
X184175Y194494D02*
G54D27*
D03*
X184175Y213494D02*
G54D27*
D03*
G54D25*
X184175Y213494D02*
X201588Y213494D01*
X201612Y213519D01*
G54D28*
X184175Y194494D02*
X184175Y181794D01*
X184150Y181769D01*
X130200Y194494D02*
G54D27*
D03*
X130200Y213494D02*
G54D27*
D03*
X104800Y194494D02*
G54D27*
D03*
X104800Y213494D02*
G54D27*
D03*
X130200Y213494D02*
G54D18*
D03*
G54D25*
X104800Y213494D02*
X104800Y238894D01*
X104775Y238919D01*
G54D28*
X130200Y194494D02*
X130200Y181794D01*
X130175Y181769D01*
G54D28*
X104800Y194494D02*
X104800Y181794D01*
X104775Y181769D01*
G54D30*
X588641Y229219D02*
X587441Y227219D01*
X585041Y226219D01*
X582641Y226219D01*
X580241Y227219D01*
X579041Y229219D01*
X579041Y239219D01*
X580241Y241219D01*
X582641Y242219D01*
X585041Y242219D01*
X587441Y241219D01*
X588641Y239219D01*
G54D30*
X600241Y228619D02*
X600241Y232619D01*
X599041Y234619D01*
X596641Y235219D01*
X594241Y234619D01*
X593041Y232619D01*
X593041Y228619D01*
X594241Y226619D01*
X596641Y226219D01*
X599041Y226619D01*
X600241Y228619D01*
G54D30*
X604641Y226219D02*
X604641Y235219D01*
G54D30*
X604641Y233219D02*
X605841Y234619D01*
X608241Y235219D01*
X610641Y234619D01*
X611841Y233219D01*
X611841Y226219D01*
G54D30*
X616241Y227219D02*
X618641Y226219D01*
X621041Y226219D01*
X623441Y227219D01*
X623441Y229219D01*
X622241Y230219D01*
X617441Y231219D01*
X616241Y232219D01*
X616241Y234219D01*
X618641Y235219D01*
X621041Y235219D01*
X623441Y234219D01*
G54D30*
X635041Y228619D02*
X635041Y232619D01*
X633841Y234619D01*
X631441Y235219D01*
X629041Y234619D01*
X627841Y232619D01*
X627841Y228619D01*
X629041Y226619D01*
X631441Y226219D01*
X633841Y226619D01*
X635041Y228619D01*
G54D30*
X639441Y226219D02*
X639441Y242219D01*
G54D30*
X651041Y227219D02*
X649121Y226219D01*
X646721Y226219D01*
X644321Y227219D01*
X643841Y229219D01*
X643841Y232619D01*
X645041Y234619D01*
X647441Y235219D01*
X649841Y234619D01*
X651041Y233219D01*
X651041Y231219D01*
X643841Y231219D01*
X488950Y245269D02*
G54D31*
D03*
X498475Y245269D02*
G54D31*
D03*
X503238Y245269D02*
G54D31*
D03*
X503238Y240506D02*
G54D31*
D03*
X498475Y235744D02*
G54D31*
D03*
X488950Y230981D02*
G54D31*
D03*
X488950Y226219D02*
G54D31*
D03*
X498475Y226219D02*
G54D31*
D03*
X503238Y226219D02*
G54D31*
D03*
X511175Y226219D02*
G54D31*
D03*
X511175Y230981D02*
G54D31*
D03*
X511175Y235744D02*
G54D31*
D03*
X511175Y240506D02*
G54D31*
D03*
X511175Y245269D02*
G54D31*
D03*
X515938Y245269D02*
G54D31*
D03*
X520700Y245269D02*
G54D31*
D03*
X515938Y235744D02*
G54D31*
D03*
X520700Y235744D02*
G54D31*
D03*
X515938Y226219D02*
G54D31*
D03*
X520700Y226219D02*
G54D31*
D03*
X533400Y245269D02*
G54D31*
D03*
X533400Y240506D02*
G54D31*
D03*
X533400Y235744D02*
G54D31*
D03*
X533400Y230981D02*
G54D31*
D03*
X533400Y226219D02*
G54D31*
D03*
X538162Y245269D02*
G54D31*
D03*
X538162Y235744D02*
G54D31*
D03*
X547688Y240506D02*
G54D31*
D03*
X547688Y230981D02*
G54D31*
D03*
X547688Y226219D02*
G54D31*
D03*
X555625Y240506D02*
G54D31*
D03*
X555625Y235744D02*
G54D31*
D03*
X555625Y230981D02*
G54D31*
D03*
X560388Y226219D02*
G54D31*
D03*
X565150Y226219D02*
G54D31*
D03*
X569912Y230981D02*
G54D31*
D03*
X569912Y235744D02*
G54D31*
D03*
X569912Y240506D02*
G54D31*
D03*
X560388Y245269D02*
G54D31*
D03*
X565150Y245269D02*
G54D31*
D03*
G54D32*
X627062Y207962D02*
X627062Y212962D01*
G54D32*
X627062Y211851D02*
X628396Y212962D01*
X629729Y212962D01*
G54D32*
X636174Y208518D02*
X635107Y207962D01*
X633774Y207962D01*
X632440Y208518D01*
X632174Y209629D01*
X632174Y211518D01*
X632840Y212629D01*
X634174Y212962D01*
X635507Y212629D01*
X636174Y211851D01*
X636174Y210740D01*
X632174Y210740D01*
G54D32*
X638618Y212962D02*
X641284Y207962D01*
X643951Y212962D01*
G54D32*
X651728Y207962D02*
X646394Y207962D01*
X646394Y208518D01*
X647061Y209629D01*
X651061Y212962D01*
X651728Y214074D01*
X651728Y215185D01*
X651061Y216296D01*
X649728Y216851D01*
X648394Y216851D01*
X647061Y216296D01*
X646394Y215185D01*
X149225Y309562D02*
G54D33*
D03*
X177225Y309562D02*
G54D33*
D03*
G54D29*
X177225Y309562D02*
X190500Y309562D01*
X555625Y245269D02*
G54D31*
D03*
X569912Y245269D02*
G54D31*
D03*
X569912Y226219D02*
G54D31*
D03*
X555625Y226219D02*
G54D31*
D03*
X493712Y245269D02*
G54D31*
D03*
X493712Y235744D02*
G54D31*
D03*
X493712Y226219D02*
G54D31*
D03*
X525462Y245269D02*
G54D31*
D03*
X525462Y235744D02*
G54D31*
D03*
X525462Y226219D02*
G54D31*
D03*
X542925Y245269D02*
G54D31*
D03*
X542925Y235744D02*
G54D31*
D03*
G54D25*
X374650Y235744D02*
X374650Y264319D01*
G54D28*
X355600Y235744D02*
X342900Y235744D01*
X355600Y235744D02*
G54D26*
D03*
X374600Y235744D02*
G54D26*
D03*
G54D22*
X449238Y263154D02*
X394123Y263154D01*
X393700Y262731D01*
G54D22*
X479401Y282154D02*
X420315Y282154D01*
X414338Y288131D01*
X414338Y296069D01*
X479401Y282154D02*
G54D27*
D03*
X479401Y263154D02*
G54D27*
D03*
G54D29*
X479401Y263154D02*
X479401Y248468D01*
X479425Y248444D01*
X479425Y280591D02*
G54D34*
D03*
X479425Y263922D02*
G54D34*
D03*
X21034Y275034D02*
G54D35*
D03*
X28972Y275034D02*
G54D35*
D03*
X28972Y203597D02*
G54D35*
D03*
X21034Y203597D02*
G54D35*
D03*
X63500Y275034D02*
G54D35*
D03*
X55562Y275034D02*
G54D35*
D03*
X63500Y203597D02*
G54D35*
D03*
X55562Y203597D02*
G54D35*
D03*
X59531Y275034D02*
G54D35*
D03*
X59531Y203597D02*
G54D35*
D03*
X25003Y203597D02*
G54D35*
D03*
X25003Y275034D02*
G54D35*
D03*
X54777Y239315D02*
G54D36*
D03*
X54777Y232815D02*
G54D36*
D03*
X54777Y226315D02*
G54D36*
D03*
X54777Y245815D02*
G54D36*
D03*
X54777Y252315D02*
G54D36*
D03*
X46236Y259358D02*
G54D37*
D03*
X46236Y219273D02*
G54D37*
D03*
X63302Y275034D02*
G54D35*
D03*
X63103Y275034D02*
G54D35*
D03*
X62905Y275034D02*
G54D35*
D03*
X62706Y275034D02*
G54D35*
D03*
X62508Y275034D02*
G54D35*
D03*
X62309Y275034D02*
G54D35*
D03*
X62111Y275034D02*
G54D35*
D03*
X61912Y275034D02*
G54D35*
D03*
X61714Y275034D02*
G54D35*
D03*
X61516Y275034D02*
G54D35*
D03*
X61317Y275034D02*
G54D35*
D03*
X61119Y275034D02*
G54D35*
D03*
X60920Y275034D02*
G54D35*
D03*
X60722Y275034D02*
G54D35*
D03*
X60523Y275034D02*
G54D35*
D03*
X60325Y275034D02*
G54D35*
D03*
X60127Y275034D02*
G54D35*
D03*
X59928Y275034D02*
G54D35*
D03*
X59730Y275034D02*
G54D35*
D03*
X59333Y275034D02*
G54D35*
D03*
X59134Y275034D02*
G54D35*
D03*
X58936Y275034D02*
G54D35*
D03*
X58738Y275034D02*
G54D35*
D03*
X58539Y275034D02*
G54D35*
D03*
X58341Y275034D02*
G54D35*
D03*
X58142Y275034D02*
G54D35*
D03*
X57944Y275034D02*
G54D35*
D03*
X57745Y275034D02*
G54D35*
D03*
X57547Y275034D02*
G54D35*
D03*
X57348Y275034D02*
G54D35*
D03*
X57150Y275034D02*
G54D35*
D03*
X55761Y275034D02*
G54D35*
D03*
X55959Y275034D02*
G54D35*
D03*
X56158Y275034D02*
G54D35*
D03*
X56356Y275034D02*
G54D35*
D03*
X56555Y275034D02*
G54D35*
D03*
X56753Y275034D02*
G54D35*
D03*
X63302Y203597D02*
G54D35*
D03*
X63103Y203597D02*
G54D35*
D03*
X62905Y203597D02*
G54D35*
D03*
X62706Y203597D02*
G54D35*
D03*
X62508Y203597D02*
G54D35*
D03*
X62309Y203597D02*
G54D35*
D03*
X62111Y203597D02*
G54D35*
D03*
X61912Y203597D02*
G54D35*
D03*
X61714Y203597D02*
G54D35*
D03*
X61516Y203597D02*
G54D35*
D03*
X61317Y203597D02*
G54D35*
D03*
X61119Y203597D02*
G54D35*
D03*
X60920Y203597D02*
G54D35*
D03*
X60722Y203597D02*
G54D35*
D03*
X60523Y203597D02*
G54D35*
D03*
X60325Y203597D02*
G54D35*
D03*
X60127Y203597D02*
G54D35*
D03*
X59928Y203597D02*
G54D35*
D03*
X55761Y203597D02*
G54D35*
D03*
X55959Y203597D02*
G54D35*
D03*
X56158Y203597D02*
G54D35*
D03*
X56356Y203597D02*
G54D35*
D03*
X56555Y203597D02*
G54D35*
D03*
X56753Y203597D02*
G54D35*
D03*
X56952Y203597D02*
G54D35*
D03*
X57150Y203597D02*
G54D35*
D03*
X57348Y203597D02*
G54D35*
D03*
X57547Y203597D02*
G54D35*
D03*
X57745Y203597D02*
G54D35*
D03*
X57944Y203597D02*
G54D35*
D03*
X58142Y203597D02*
G54D35*
D03*
X58341Y203597D02*
G54D35*
D03*
X58539Y203597D02*
G54D35*
D03*
X58539Y203597D02*
G54D35*
D03*
X58738Y203597D02*
G54D35*
D03*
X58936Y203597D02*
G54D35*
D03*
X59134Y203597D02*
G54D35*
D03*
X28972Y275034D02*
G54D35*
D03*
X21034Y275034D02*
G54D35*
D03*
X25003Y275034D02*
G54D35*
D03*
X28773Y275034D02*
G54D35*
D03*
X28575Y275034D02*
G54D35*
D03*
X28377Y275034D02*
G54D35*
D03*
X28178Y275034D02*
G54D35*
D03*
X27980Y275034D02*
G54D35*
D03*
X27781Y275034D02*
G54D35*
D03*
X27583Y275034D02*
G54D35*
D03*
X27384Y275034D02*
G54D35*
D03*
X27186Y275034D02*
G54D35*
D03*
X26988Y275034D02*
G54D35*
D03*
X26789Y275034D02*
G54D35*
D03*
X26591Y275034D02*
G54D35*
D03*
X26392Y275034D02*
G54D35*
D03*
X26194Y275034D02*
G54D35*
D03*
X25995Y275034D02*
G54D35*
D03*
X25797Y275034D02*
G54D35*
D03*
X25598Y275034D02*
G54D35*
D03*
X25400Y275034D02*
G54D35*
D03*
X25202Y275034D02*
G54D35*
D03*
X24805Y275034D02*
G54D35*
D03*
X24606Y275034D02*
G54D35*
D03*
X24408Y275034D02*
G54D35*
D03*
X24209Y275034D02*
G54D35*
D03*
X24011Y275034D02*
G54D35*
D03*
X23812Y275034D02*
G54D35*
D03*
X23614Y275034D02*
G54D35*
D03*
X23416Y275034D02*
G54D35*
D03*
X23217Y275034D02*
G54D35*
D03*
X23019Y275034D02*
G54D35*
D03*
X22820Y275034D02*
G54D35*
D03*
X22622Y275034D02*
G54D35*
D03*
X21233Y275034D02*
G54D35*
D03*
X21431Y275034D02*
G54D35*
D03*
X21630Y275034D02*
G54D35*
D03*
X21828Y275034D02*
G54D35*
D03*
X22027Y275034D02*
G54D35*
D03*
X22225Y275034D02*
G54D35*
D03*
X28972Y203597D02*
G54D35*
D03*
X21034Y203597D02*
G54D35*
D03*
X25003Y203597D02*
G54D35*
D03*
X28773Y203597D02*
G54D35*
D03*
X28575Y203597D02*
G54D35*
D03*
X28377Y203597D02*
G54D35*
D03*
X28178Y203597D02*
G54D35*
D03*
X27980Y203597D02*
G54D35*
D03*
X27781Y203597D02*
G54D35*
D03*
X27583Y203597D02*
G54D35*
D03*
X27384Y203597D02*
G54D35*
D03*
X27186Y203597D02*
G54D35*
D03*
X26988Y203597D02*
G54D35*
D03*
X26789Y203597D02*
G54D35*
D03*
X26591Y203597D02*
G54D35*
D03*
X26392Y203597D02*
G54D35*
D03*
X26194Y203597D02*
G54D35*
D03*
X25995Y203597D02*
G54D35*
D03*
X25797Y203597D02*
G54D35*
D03*
X25598Y203597D02*
G54D35*
D03*
X25400Y203597D02*
G54D35*
D03*
X21233Y203597D02*
G54D35*
D03*
X21431Y203597D02*
G54D35*
D03*
X21630Y203597D02*
G54D35*
D03*
X21828Y203597D02*
G54D35*
D03*
X22027Y203597D02*
G54D35*
D03*
X22225Y203597D02*
G54D35*
D03*
X22423Y203597D02*
G54D35*
D03*
X22622Y203597D02*
G54D35*
D03*
X22820Y203597D02*
G54D35*
D03*
X23019Y203597D02*
G54D35*
D03*
X23217Y203597D02*
G54D35*
D03*
X23416Y203597D02*
G54D35*
D03*
X23614Y203597D02*
G54D35*
D03*
X23812Y203597D02*
G54D35*
D03*
X24011Y203597D02*
G54D35*
D03*
X24011Y203597D02*
G54D35*
D03*
X24209Y203597D02*
G54D35*
D03*
X24408Y203597D02*
G54D35*
D03*
X24606Y203597D02*
G54D35*
D03*
G54D22*
X25400Y284956D02*
X25400Y265906D01*
G54D22*
X25400Y194469D02*
X25400Y213519D01*
G54D22*
X60325Y194469D02*
X60325Y213519D01*
G54D22*
X60325Y284956D02*
X60325Y264319D01*
X21828Y275034D02*
G54D35*
D03*
X22622Y275034D02*
G54D35*
D03*
X23416Y275034D02*
G54D35*
D03*
X24209Y275034D02*
G54D35*
D03*
X25003Y275034D02*
G54D35*
D03*
X25797Y275034D02*
G54D35*
D03*
X26591Y275034D02*
G54D35*
D03*
X27384Y275034D02*
G54D35*
D03*
X28178Y275034D02*
G54D35*
D03*
X56356Y275034D02*
G54D35*
D03*
X57150Y275034D02*
G54D35*
D03*
X57944Y275034D02*
G54D35*
D03*
X58738Y275034D02*
G54D35*
D03*
X59531Y275034D02*
G54D35*
D03*
X60325Y275034D02*
G54D35*
D03*
X61119Y275034D02*
G54D35*
D03*
X61912Y275034D02*
G54D35*
D03*
X62706Y275034D02*
G54D35*
D03*
X63500Y275034D02*
G54D35*
D03*
X28972Y275034D02*
G54D35*
D03*
X21034Y203597D02*
G54D35*
D03*
X21828Y203597D02*
G54D35*
D03*
X22622Y203597D02*
G54D35*
D03*
X23416Y203597D02*
G54D35*
D03*
X24209Y203597D02*
G54D35*
D03*
X25003Y203597D02*
G54D35*
D03*
X25797Y203597D02*
G54D35*
D03*
X26591Y203597D02*
G54D35*
D03*
X27384Y203597D02*
G54D35*
D03*
X28178Y203597D02*
G54D35*
D03*
X28972Y203597D02*
G54D35*
D03*
X55562Y203597D02*
G54D35*
D03*
X56356Y203597D02*
G54D35*
D03*
X57150Y203597D02*
G54D35*
D03*
X57944Y203597D02*
G54D35*
D03*
X58738Y203597D02*
G54D35*
D03*
X59531Y203597D02*
G54D35*
D03*
X60325Y203597D02*
G54D35*
D03*
X61119Y203597D02*
G54D35*
D03*
X61912Y203597D02*
G54D35*
D03*
X62706Y203597D02*
G54D35*
D03*
X63500Y203597D02*
G54D35*
D03*
X21034Y275034D02*
G54D35*
D03*
X28972Y275034D02*
G54D35*
D03*
X55562Y275034D02*
G54D35*
D03*
X46236Y259358D02*
G54D38*
D03*
X46236Y219273D02*
G54D38*
D03*
%LPD*%
G54D39*
G36*
X582897Y941384D02*
X582897Y928884D01*
X577563Y928884D01*
X577563Y941384D01*
X582897Y941384D01*
G37*
G54D39*
G36*
X501363Y966784D02*
X501363Y979284D01*
X506697Y979284D01*
X506697Y966784D01*
X501363Y966784D01*
G37*
G54D39*
G36*
X450563Y966784D02*
X450563Y979284D01*
X455897Y979284D01*
X455897Y966784D01*
X450563Y966784D01*
G37*
G54D39*
G36*
X405097Y941384D02*
X405097Y928884D01*
X399763Y928884D01*
X399763Y941384D01*
X405097Y941384D01*
G37*
G54D39*
G36*
X323563Y966784D02*
X323563Y979284D01*
X328897Y979284D01*
X328897Y966784D01*
X323563Y966784D01*
G37*
G54D39*
G36*
X247363Y966784D02*
X247363Y979284D01*
X252697Y979284D01*
X252697Y966784D01*
X247363Y966784D01*
G37*
G54D39*
G36*
X201897Y941384D02*
X201897Y928884D01*
X196563Y928884D01*
X196563Y941384D01*
X201897Y941384D01*
G37*
G54D39*
G36*
X145763Y966784D02*
X145763Y979284D01*
X151097Y979284D01*
X151097Y966784D01*
X145763Y966784D01*
G37*
G54D39*
G36*
X582897Y641346D02*
X582897Y628846D01*
X577563Y628846D01*
X577563Y641346D01*
X582897Y641346D01*
G37*
G54D39*
G36*
X501363Y666746D02*
X501363Y679246D01*
X506697Y679246D01*
X506697Y666746D01*
X501363Y666746D01*
G37*
G54D39*
G36*
X450563Y666746D02*
X450563Y679246D01*
X455897Y679246D01*
X455897Y666746D01*
X450563Y666746D01*
G37*
G54D39*
G36*
X405097Y641346D02*
X405097Y628846D01*
X399763Y628846D01*
X399763Y641346D01*
X405097Y641346D01*
G37*
G54D39*
G36*
X323563Y666746D02*
X323563Y679246D01*
X328897Y679246D01*
X328897Y666746D01*
X323563Y666746D01*
G37*
G54D39*
G36*
X247363Y666746D02*
X247363Y679246D01*
X252697Y679246D01*
X252697Y666746D01*
X247363Y666746D01*
G37*
G54D39*
G36*
X201897Y641346D02*
X201897Y628846D01*
X196563Y628846D01*
X196563Y641346D01*
X201897Y641346D01*
G37*
G54D39*
G36*
X145763Y666746D02*
X145763Y679246D01*
X151097Y679246D01*
X151097Y666746D01*
X145763Y666746D01*
G37*
G54D39*
G36*
X582897Y341309D02*
X582897Y328809D01*
X577563Y328809D01*
X577563Y341309D01*
X582897Y341309D01*
G37*
G54D39*
G36*
X501363Y366709D02*
X501363Y379209D01*
X506697Y379209D01*
X506697Y366709D01*
X501363Y366709D01*
G37*
G54D39*
G36*
X450563Y366709D02*
X450563Y379209D01*
X455897Y379209D01*
X455897Y366709D01*
X450563Y366709D01*
G37*
G54D39*
G36*
X405097Y341309D02*
X405097Y328809D01*
X399763Y328809D01*
X399763Y341309D01*
X405097Y341309D01*
G37*
G54D39*
G36*
X323563Y366709D02*
X323563Y379209D01*
X328897Y379209D01*
X328897Y366709D01*
X323563Y366709D01*
G37*
G54D39*
G36*
X247363Y366709D02*
X247363Y379209D01*
X252697Y379209D01*
X252697Y366709D01*
X247363Y366709D01*
G37*
G54D39*
G36*
X201897Y341309D02*
X201897Y328809D01*
X196563Y328809D01*
X196563Y341309D01*
X201897Y341309D01*
G37*
G54D39*
G36*
X145763Y366709D02*
X145763Y379209D01*
X151097Y379209D01*
X151097Y366709D01*
X145763Y366709D01*
G37*
X48816Y954088D02*
G54D40*
D03*
X628253Y724694D02*
G54D40*
D03*
X48816Y724694D02*
G54D40*
D03*
X628253Y954088D02*
G54D40*
D03*
X580231Y966788D02*
G54D41*
D03*
X580230Y941384D02*
G54D41*
D03*
X554831Y966788D02*
G54D41*
D03*
X554831Y941388D02*
G54D41*
D03*
X529431Y966788D02*
G54D41*
D03*
X529431Y941388D02*
G54D41*
D03*
X504030Y966784D02*
G54D41*
D03*
X504031Y941388D02*
G54D41*
D03*
X478631Y966788D02*
G54D41*
D03*
X478631Y941388D02*
G54D41*
D03*
X453230Y966784D02*
G54D41*
D03*
X453231Y941388D02*
G54D41*
D03*
X427831Y966788D02*
G54D41*
D03*
X427831Y941388D02*
G54D41*
D03*
X402431Y966788D02*
G54D41*
D03*
X402430Y941384D02*
G54D41*
D03*
X377031Y966788D02*
G54D41*
D03*
X377031Y941388D02*
G54D41*
D03*
X351631Y966788D02*
G54D41*
D03*
X351631Y941388D02*
G54D41*
D03*
X326230Y966784D02*
G54D41*
D03*
X326231Y941388D02*
G54D41*
D03*
X300831Y966788D02*
G54D41*
D03*
X300831Y941388D02*
G54D41*
D03*
X275431Y966788D02*
G54D41*
D03*
X275431Y941388D02*
G54D41*
D03*
X250030Y966784D02*
G54D41*
D03*
X250031Y941388D02*
G54D41*
D03*
X224631Y966788D02*
G54D41*
D03*
X224631Y941388D02*
G54D41*
D03*
X199231Y966788D02*
G54D41*
D03*
X199230Y941384D02*
G54D41*
D03*
X173831Y966788D02*
G54D41*
D03*
X173831Y941388D02*
G54D41*
D03*
X148430Y966784D02*
G54D41*
D03*
X123031Y966788D02*
G54D41*
D03*
X97631Y966788D02*
G54D41*
D03*
X148431Y941388D02*
G54D41*
D03*
X123031Y941388D02*
G54D41*
D03*
X97631Y941388D02*
G54D41*
D03*
X291272Y835606D02*
G54D42*
D03*
X284772Y835606D02*
G54D42*
D03*
X278272Y835606D02*
G54D42*
D03*
X271772Y835606D02*
G54D42*
D03*
X265272Y835606D02*
G54D42*
D03*
X258772Y835606D02*
G54D42*
D03*
X252272Y835606D02*
G54D42*
D03*
X245772Y835606D02*
G54D42*
D03*
X239272Y835606D02*
G54D42*
D03*
X232772Y835606D02*
G54D42*
D03*
X226272Y835606D02*
G54D42*
D03*
X219772Y835606D02*
G54D42*
D03*
X213272Y835606D02*
G54D42*
D03*
X206772Y835606D02*
G54D42*
D03*
X291272Y904478D02*
G54D42*
D03*
X284772Y904478D02*
G54D42*
D03*
X278272Y904478D02*
G54D42*
D03*
X271772Y904478D02*
G54D42*
D03*
X265272Y904478D02*
G54D42*
D03*
X258772Y904478D02*
G54D42*
D03*
X252272Y904478D02*
G54D42*
D03*
X245772Y904478D02*
G54D42*
D03*
X239272Y904478D02*
G54D42*
D03*
X232772Y904478D02*
G54D42*
D03*
X226272Y904478D02*
G54D42*
D03*
X219772Y904478D02*
G54D42*
D03*
X213272Y904478D02*
G54D42*
D03*
X206772Y904478D02*
G54D42*
D03*
X291272Y903684D02*
G54D42*
D03*
X284772Y903684D02*
G54D42*
D03*
X278272Y903684D02*
G54D42*
D03*
X271772Y903684D02*
G54D42*
D03*
X265272Y903684D02*
G54D42*
D03*
X258772Y903684D02*
G54D42*
D03*
X252272Y903684D02*
G54D42*
D03*
X245772Y903684D02*
G54D42*
D03*
X239272Y903684D02*
G54D42*
D03*
X232772Y903684D02*
G54D42*
D03*
X226272Y903684D02*
G54D42*
D03*
X219772Y903684D02*
G54D42*
D03*
X213272Y903684D02*
G54D42*
D03*
X206772Y903684D02*
G54D42*
D03*
X291272Y836400D02*
G54D42*
D03*
X284772Y836400D02*
G54D42*
D03*
X278272Y836400D02*
G54D42*
D03*
X271772Y836400D02*
G54D42*
D03*
X265272Y836400D02*
G54D42*
D03*
X258772Y836400D02*
G54D42*
D03*
X252272Y836400D02*
G54D42*
D03*
X245772Y836400D02*
G54D42*
D03*
X239272Y836400D02*
G54D42*
D03*
X232772Y836400D02*
G54D42*
D03*
X226272Y836400D02*
G54D42*
D03*
X219772Y836400D02*
G54D42*
D03*
X213272Y836400D02*
G54D42*
D03*
X206772Y836400D02*
G54D42*
D03*
X291272Y836797D02*
G54D42*
D03*
X284772Y836797D02*
G54D42*
D03*
X278272Y836797D02*
G54D42*
D03*
X271772Y836797D02*
G54D42*
D03*
X265272Y836797D02*
G54D42*
D03*
X258772Y836797D02*
G54D42*
D03*
X252272Y836797D02*
G54D42*
D03*
X245772Y836797D02*
G54D42*
D03*
X239272Y836797D02*
G54D42*
D03*
X232772Y836797D02*
G54D42*
D03*
X226272Y836797D02*
G54D42*
D03*
X219772Y836797D02*
G54D42*
D03*
X213272Y836797D02*
G54D42*
D03*
X206772Y836797D02*
G54D42*
D03*
X291272Y903287D02*
G54D42*
D03*
X284772Y903288D02*
G54D42*
D03*
X278272Y903288D02*
G54D42*
D03*
X271772Y903288D02*
G54D42*
D03*
X265272Y903288D02*
G54D42*
D03*
X258772Y903288D02*
G54D42*
D03*
X252272Y903288D02*
G54D42*
D03*
X245772Y903287D02*
G54D42*
D03*
X239272Y903288D02*
G54D42*
D03*
X232772Y903288D02*
G54D42*
D03*
X226272Y903288D02*
G54D42*
D03*
X219772Y903288D02*
G54D42*
D03*
X213272Y903288D02*
G54D42*
D03*
X206772Y903288D02*
G54D42*
D03*
X164306Y886420D02*
G54D43*
D03*
X183356Y886420D02*
G54D43*
D03*
X164306Y864394D02*
G54D43*
D03*
X173831Y864394D02*
G54D43*
D03*
X183356Y864394D02*
G54D43*
D03*
G54D15*
X252214Y896739D02*
X252214Y892770D01*
G54D15*
X226219Y843359D02*
X226219Y847328D01*
G54D15*
X271859Y843359D02*
X271859Y847328D01*
G54D15*
X278408Y843359D02*
X278408Y847328D01*
G54D15*
X245864Y843359D02*
X245864Y847328D01*
G54D15*
X60523Y826492D02*
X55562Y826492D01*
X141288Y875506D02*
G54D44*
D03*
X99219Y875506D02*
G54D44*
D03*
X84733Y845939D02*
G54D45*
D03*
X84733Y839391D02*
G54D45*
D03*
X271859Y885627D02*
G54D45*
D03*
X219869Y853678D02*
G54D45*
D03*
X84733Y852488D02*
G54D45*
D03*
X84733Y833041D02*
G54D45*
D03*
X84733Y826492D02*
G54D45*
D03*
G54D15*
X84733Y852488D02*
X61912Y852488D01*
G54D15*
X84733Y845939D02*
X61714Y845939D01*
G54D15*
X84733Y839391D02*
X61714Y839391D01*
G54D15*
X84733Y833041D02*
X61714Y833041D01*
G54D15*
X84733Y826492D02*
X61714Y826492D01*
G54D28*
X271859Y885627D02*
X271859Y896541D01*
G54D28*
X219869Y853678D02*
X219869Y842962D01*
G54D22*
X99219Y888206D02*
X64691Y853678D01*
G54D22*
X164306Y864394D02*
X149225Y864394D01*
G54D22*
X173831Y869752D02*
X173831Y873919D01*
G54D15*
X164306Y859234D02*
X164306Y855266D01*
X183356Y855266D01*
X183356Y859234D01*
G54D15*
X123031Y966788D02*
X97631Y966788D01*
G54D22*
X97631Y966788D02*
X96044Y966788D01*
X81756Y952500D01*
X81756Y915988D01*
X92075Y905669D01*
X154781Y905669D01*
X165100Y895350D01*
X165100Y887214D01*
X164306Y886420D01*
X407988Y902494D02*
G54D46*
D03*
X414487Y902494D02*
G54D46*
D03*
X407591Y843147D02*
G54D46*
D03*
X414091Y843147D02*
G54D46*
D03*
X420591Y843147D02*
G54D46*
D03*
X427091Y843147D02*
G54D46*
D03*
X420988Y902494D02*
G54D46*
D03*
X427488Y902494D02*
G54D46*
D03*
G54D28*
X165100Y896144D02*
X192088Y896144D01*
X196056Y892175D01*
X196056Y885031D01*
X200025Y881062D01*
X231378Y881062D01*
X239316Y873125D01*
X239316Y842169D01*
G54D28*
X84733Y845939D02*
X189508Y845939D01*
X196056Y852488D01*
X210741Y852488D01*
X213122Y850106D01*
X213122Y841772D01*
G54D28*
X84733Y839391D02*
X207169Y839391D01*
G54D28*
X173831Y966788D02*
X175022Y966788D01*
X186531Y955278D01*
X186531Y924719D01*
X192088Y919162D01*
X263128Y919162D01*
X265509Y916781D01*
X265509Y908447D01*
G54D28*
X199231Y966788D02*
X202009Y966788D01*
X211931Y956866D01*
X211931Y927497D01*
X214312Y925116D01*
X286544Y925116D01*
X291306Y920353D01*
X291306Y909241D01*
X193675Y743744D02*
G54D47*
D03*
X174675Y743744D02*
G54D47*
D03*
X193675Y711994D02*
G54D47*
D03*
X174675Y711994D02*
G54D47*
D03*
X146050Y711994D02*
G54D47*
D03*
X127050Y711994D02*
G54D47*
D03*
X146050Y743744D02*
G54D47*
D03*
X127050Y743744D02*
G54D47*
D03*
G54D28*
X258762Y831453D02*
X258762Y818753D01*
X252412Y812403D01*
X215106Y812403D01*
X209550Y806847D01*
X209550Y715566D01*
X205978Y711994D01*
X193675Y711994D01*
G54D28*
X252412Y830262D02*
X252412Y819944D01*
X250031Y817562D01*
X213519Y817562D01*
X204788Y808831D01*
X204788Y755253D01*
X198834Y749300D01*
G54D28*
X146050Y743744D02*
X174675Y743744D01*
G54D28*
X146050Y711994D02*
X174675Y711994D01*
G54D28*
X127050Y711994D02*
X127050Y743744D01*
G54D28*
X219869Y829866D02*
X219869Y824706D01*
X217091Y821928D01*
X210741Y821928D01*
X199628Y810816D01*
G54D28*
X127050Y743744D02*
X127050Y755303D01*
X132953Y761206D01*
X193278Y761206D01*
X199628Y767556D01*
X199628Y810816D01*
X139700Y832644D02*
G54D45*
D03*
X158750Y832644D02*
G54D45*
D03*
G54D28*
X139700Y832644D02*
X158750Y832644D01*
X317475Y885006D02*
G54D48*
D03*
X317475Y866006D02*
G54D48*
D03*
X346050Y885006D02*
G54D48*
D03*
X346050Y866006D02*
G54D48*
D03*
G54D28*
X346050Y861244D02*
X239738Y861244D01*
X239712Y861219D01*
G54D28*
X317475Y885006D02*
X374625Y885006D01*
X374625Y885006D02*
G54D48*
D03*
X374625Y866006D02*
G54D48*
D03*
X449238Y882229D02*
G54D48*
D03*
X449238Y863229D02*
G54D48*
D03*
G54D28*
X427831Y941388D02*
X427831Y902838D01*
X427488Y902494D01*
G54D28*
X427831Y966788D02*
X425847Y966788D01*
X415131Y956072D01*
X415131Y925909D01*
X421084Y919956D01*
X421084Y909638D01*
G54D28*
X228600Y743744D02*
X361950Y743744D01*
X393700Y775494D01*
X393675Y902072D01*
G54D28*
X374625Y861244D02*
X393675Y861244D01*
X393700Y861219D01*
X228600Y794544D02*
G54D41*
D03*
X228600Y769144D02*
G54D41*
D03*
X228600Y743744D02*
G54D41*
D03*
X228600Y718344D02*
G54D41*
D03*
G54D28*
X228600Y718344D02*
X228600Y703659D01*
G54D29*
X300831Y941388D02*
X300831Y925512D01*
X323850Y902494D01*
X407988Y902494D01*
G54D29*
X407591Y835422D02*
X407591Y829469D01*
G54D29*
X413941Y835422D02*
X413941Y829469D01*
G54D29*
X420688Y835422D02*
X420688Y829469D01*
G54D29*
X427038Y835819D02*
X427038Y829469D01*
X184175Y794569D02*
G54D48*
D03*
X184175Y813569D02*
G54D48*
D03*
G54D28*
X184175Y813569D02*
X201588Y813569D01*
X201612Y813594D01*
G54D28*
X184175Y794569D02*
X184175Y781869D01*
X184150Y781844D01*
X130200Y794569D02*
G54D48*
D03*
X130200Y813569D02*
G54D48*
D03*
X104800Y794569D02*
G54D48*
D03*
X104800Y813569D02*
G54D48*
D03*
X130200Y813569D02*
G54D45*
D03*
G54D28*
X104800Y813569D02*
X104800Y838969D01*
X104775Y838994D01*
G54D28*
X130200Y794569D02*
X130200Y781869D01*
X130175Y781844D01*
G54D28*
X104800Y794569D02*
X104800Y781869D01*
X104775Y781844D01*
G54D49*
X588641Y829294D02*
X587441Y827294D01*
X585041Y826294D01*
X582641Y826294D01*
X580241Y827294D01*
X579041Y829294D01*
X579041Y839294D01*
X580241Y841294D01*
X582641Y842294D01*
X585041Y842294D01*
X587441Y841294D01*
X588641Y839294D01*
G54D49*
X600241Y828694D02*
X600241Y832694D01*
X599041Y834694D01*
X596641Y835294D01*
X594241Y834694D01*
X593041Y832694D01*
X593041Y828694D01*
X594241Y826694D01*
X596641Y826294D01*
X599041Y826694D01*
X600241Y828694D01*
G54D49*
X604641Y826294D02*
X604641Y835294D01*
G54D49*
X604641Y833294D02*
X605841Y834694D01*
X608241Y835294D01*
X610641Y834694D01*
X611841Y833294D01*
X611841Y826294D01*
G54D49*
X616241Y827294D02*
X618641Y826294D01*
X621041Y826294D01*
X623441Y827294D01*
X623441Y829294D01*
X622241Y830294D01*
X617441Y831294D01*
X616241Y832294D01*
X616241Y834294D01*
X618641Y835294D01*
X621041Y835294D01*
X623441Y834294D01*
G54D49*
X635041Y828694D02*
X635041Y832694D01*
X633841Y834694D01*
X631441Y835294D01*
X629041Y834694D01*
X627841Y832694D01*
X627841Y828694D01*
X629041Y826694D01*
X631441Y826294D01*
X633841Y826694D01*
X635041Y828694D01*
G54D49*
X639441Y826294D02*
X639441Y842294D01*
G54D49*
X651041Y827294D02*
X649121Y826294D01*
X646721Y826294D01*
X644321Y827294D01*
X643841Y829294D01*
X643841Y832694D01*
X645041Y834694D01*
X647441Y835294D01*
X649841Y834694D01*
X651041Y833294D01*
X651041Y831294D01*
X643841Y831294D01*
X488950Y845344D02*
G54D50*
D03*
X498475Y845344D02*
G54D50*
D03*
X503238Y845344D02*
G54D50*
D03*
X503238Y840581D02*
G54D50*
D03*
X498475Y835819D02*
G54D50*
D03*
X488950Y831056D02*
G54D50*
D03*
X488950Y826294D02*
G54D50*
D03*
X498475Y826294D02*
G54D50*
D03*
X503238Y826294D02*
G54D50*
D03*
X511175Y826294D02*
G54D50*
D03*
X511175Y831056D02*
G54D50*
D03*
X511175Y835819D02*
G54D50*
D03*
X511175Y840581D02*
G54D50*
D03*
X511175Y845344D02*
G54D50*
D03*
X515938Y845344D02*
G54D50*
D03*
X520700Y845344D02*
G54D50*
D03*
X515938Y835819D02*
G54D50*
D03*
X520700Y835819D02*
G54D50*
D03*
X515938Y826294D02*
G54D50*
D03*
X520700Y826294D02*
G54D50*
D03*
X533400Y845344D02*
G54D50*
D03*
X533400Y840581D02*
G54D50*
D03*
X533400Y835819D02*
G54D50*
D03*
X533400Y831056D02*
G54D50*
D03*
X533400Y826294D02*
G54D50*
D03*
X538162Y845344D02*
G54D50*
D03*
X538162Y835819D02*
G54D50*
D03*
X547688Y840581D02*
G54D50*
D03*
X547688Y831056D02*
G54D50*
D03*
X547688Y826294D02*
G54D50*
D03*
X555625Y840581D02*
G54D50*
D03*
X555625Y835819D02*
G54D50*
D03*
X555625Y831056D02*
G54D50*
D03*
X560388Y826294D02*
G54D50*
D03*
X565150Y826294D02*
G54D50*
D03*
X569912Y831056D02*
G54D50*
D03*
X569912Y835819D02*
G54D50*
D03*
X569912Y840581D02*
G54D50*
D03*
X560388Y845344D02*
G54D50*
D03*
X565150Y845344D02*
G54D50*
D03*
G54D51*
X627062Y808038D02*
X627062Y813038D01*
G54D51*
X627062Y811926D02*
X628396Y813038D01*
X629729Y813038D01*
G54D51*
X636174Y808593D02*
X635107Y808038D01*
X633774Y808038D01*
X632440Y808593D01*
X632174Y809704D01*
X632174Y811593D01*
X632840Y812704D01*
X634174Y813038D01*
X635507Y812704D01*
X636174Y811926D01*
X636174Y810815D01*
X632174Y810815D01*
G54D51*
X638618Y813038D02*
X641284Y808038D01*
X643951Y813038D01*
G54D51*
X651728Y808038D02*
X646394Y808038D01*
X646394Y808593D01*
X647061Y809704D01*
X651061Y813038D01*
X651728Y814149D01*
X651728Y815260D01*
X651061Y816371D01*
X649728Y816926D01*
X648394Y816926D01*
X647061Y816371D01*
X646394Y815260D01*
X149225Y909638D02*
G54D52*
D03*
X177225Y909638D02*
G54D52*
D03*
G54D29*
X177225Y909638D02*
X190500Y909638D01*
X555625Y845344D02*
G54D50*
D03*
X569912Y845344D02*
G54D50*
D03*
X569912Y826294D02*
G54D50*
D03*
X555625Y826294D02*
G54D50*
D03*
X493712Y845344D02*
G54D50*
D03*
X493712Y835819D02*
G54D50*
D03*
X493712Y826294D02*
G54D50*
D03*
X525462Y845344D02*
G54D50*
D03*
X525462Y835819D02*
G54D50*
D03*
X525462Y826294D02*
G54D50*
D03*
X542925Y845344D02*
G54D50*
D03*
X542925Y835819D02*
G54D50*
D03*
G54D28*
X374650Y835819D02*
X374650Y864394D01*
G54D28*
X355600Y835819D02*
X342900Y835819D01*
X355600Y835819D02*
G54D47*
D03*
X374600Y835819D02*
G54D47*
D03*
G54D29*
X449238Y863229D02*
X394123Y863229D01*
X393700Y862806D01*
G54D29*
X479401Y882229D02*
X420315Y882229D01*
X414338Y888206D01*
X414338Y896144D01*
X479401Y882229D02*
G54D48*
D03*
X479401Y863229D02*
G54D48*
D03*
G54D29*
X479401Y863229D02*
X479401Y848543D01*
X479425Y848519D01*
X479425Y880666D02*
G54D53*
D03*
X479425Y863997D02*
G54D53*
D03*
X21034Y875109D02*
G54D54*
D03*
X28972Y875109D02*
G54D54*
D03*
X28972Y803672D02*
G54D54*
D03*
X21034Y803672D02*
G54D54*
D03*
X63500Y875109D02*
G54D54*
D03*
X55562Y875109D02*
G54D54*
D03*
X63500Y803672D02*
G54D54*
D03*
X55562Y803672D02*
G54D54*
D03*
X59531Y875109D02*
G54D54*
D03*
X59531Y803672D02*
G54D54*
D03*
X25003Y803672D02*
G54D54*
D03*
X25003Y875109D02*
G54D54*
D03*
X54777Y839390D02*
G54D55*
D03*
X54777Y832890D02*
G54D55*
D03*
X54777Y826390D02*
G54D55*
D03*
X54777Y845890D02*
G54D55*
D03*
X54777Y852390D02*
G54D55*
D03*
X63302Y875109D02*
G54D54*
D03*
X63103Y875109D02*
G54D54*
D03*
X62905Y875109D02*
G54D54*
D03*
X62706Y875109D02*
G54D54*
D03*
X62508Y875109D02*
G54D54*
D03*
X62309Y875109D02*
G54D54*
D03*
X62111Y875109D02*
G54D54*
D03*
X61912Y875109D02*
G54D54*
D03*
X61714Y875109D02*
G54D54*
D03*
X61516Y875109D02*
G54D54*
D03*
X61317Y875109D02*
G54D54*
D03*
X61119Y875109D02*
G54D54*
D03*
X60920Y875109D02*
G54D54*
D03*
X60722Y875109D02*
G54D54*
D03*
X60523Y875109D02*
G54D54*
D03*
X60325Y875109D02*
G54D54*
D03*
X60127Y875109D02*
G54D54*
D03*
X59928Y875109D02*
G54D54*
D03*
X59730Y875109D02*
G54D54*
D03*
X59333Y875109D02*
G54D54*
D03*
X59134Y875109D02*
G54D54*
D03*
X58936Y875109D02*
G54D54*
D03*
X58738Y875109D02*
G54D54*
D03*
X58539Y875109D02*
G54D54*
D03*
X58341Y875109D02*
G54D54*
D03*
X58142Y875109D02*
G54D54*
D03*
X57944Y875109D02*
G54D54*
D03*
X57745Y875109D02*
G54D54*
D03*
X57547Y875109D02*
G54D54*
D03*
X57348Y875109D02*
G54D54*
D03*
X57150Y875109D02*
G54D54*
D03*
X55761Y875109D02*
G54D54*
D03*
X55959Y875109D02*
G54D54*
D03*
X56158Y875109D02*
G54D54*
D03*
X56356Y875109D02*
G54D54*
D03*
X56555Y875109D02*
G54D54*
D03*
X56753Y875109D02*
G54D54*
D03*
X63302Y803672D02*
G54D54*
D03*
X63103Y803672D02*
G54D54*
D03*
X62905Y803672D02*
G54D54*
D03*
X62706Y803672D02*
G54D54*
D03*
X62508Y803672D02*
G54D54*
D03*
X62309Y803672D02*
G54D54*
D03*
X62111Y803672D02*
G54D54*
D03*
X61912Y803672D02*
G54D54*
D03*
X61714Y803672D02*
G54D54*
D03*
X61516Y803672D02*
G54D54*
D03*
X61317Y803672D02*
G54D54*
D03*
X61119Y803672D02*
G54D54*
D03*
X60920Y803672D02*
G54D54*
D03*
X60722Y803672D02*
G54D54*
D03*
X60523Y803672D02*
G54D54*
D03*
X60325Y803672D02*
G54D54*
D03*
X60127Y803672D02*
G54D54*
D03*
X59928Y803672D02*
G54D54*
D03*
X55761Y803672D02*
G54D54*
D03*
X55959Y803672D02*
G54D54*
D03*
X56158Y803672D02*
G54D54*
D03*
X56356Y803672D02*
G54D54*
D03*
X56555Y803672D02*
G54D54*
D03*
X56753Y803672D02*
G54D54*
D03*
X56952Y803672D02*
G54D54*
D03*
X57150Y803672D02*
G54D54*
D03*
X57348Y803672D02*
G54D54*
D03*
X57547Y803672D02*
G54D54*
D03*
X57745Y803672D02*
G54D54*
D03*
X57944Y803672D02*
G54D54*
D03*
X58142Y803672D02*
G54D54*
D03*
X58341Y803672D02*
G54D54*
D03*
X58539Y803672D02*
G54D54*
D03*
X58539Y803672D02*
G54D54*
D03*
X58738Y803672D02*
G54D54*
D03*
X58936Y803672D02*
G54D54*
D03*
X59134Y803672D02*
G54D54*
D03*
X28972Y875109D02*
G54D54*
D03*
X21034Y875109D02*
G54D54*
D03*
X25003Y875109D02*
G54D54*
D03*
X28773Y875109D02*
G54D54*
D03*
X28575Y875109D02*
G54D54*
D03*
X28377Y875109D02*
G54D54*
D03*
X28178Y875109D02*
G54D54*
D03*
X27980Y875109D02*
G54D54*
D03*
X27781Y875109D02*
G54D54*
D03*
X27583Y875109D02*
G54D54*
D03*
X27384Y875109D02*
G54D54*
D03*
X27186Y875109D02*
G54D54*
D03*
X26988Y875109D02*
G54D54*
D03*
X26789Y875109D02*
G54D54*
D03*
X26591Y875109D02*
G54D54*
D03*
X26392Y875109D02*
G54D54*
D03*
X26194Y875109D02*
G54D54*
D03*
X25995Y875109D02*
G54D54*
D03*
X25797Y875109D02*
G54D54*
D03*
X25598Y875109D02*
G54D54*
D03*
X25400Y875109D02*
G54D54*
D03*
X25202Y875109D02*
G54D54*
D03*
X24805Y875109D02*
G54D54*
D03*
X24606Y875109D02*
G54D54*
D03*
X24408Y875109D02*
G54D54*
D03*
X24209Y875109D02*
G54D54*
D03*
X24011Y875109D02*
G54D54*
D03*
X23812Y875109D02*
G54D54*
D03*
X23614Y875109D02*
G54D54*
D03*
X23416Y875109D02*
G54D54*
D03*
X23217Y875109D02*
G54D54*
D03*
X23019Y875109D02*
G54D54*
D03*
X22820Y875109D02*
G54D54*
D03*
X22622Y875109D02*
G54D54*
D03*
X21233Y875109D02*
G54D54*
D03*
X21431Y875109D02*
G54D54*
D03*
X21630Y875109D02*
G54D54*
D03*
X21828Y875109D02*
G54D54*
D03*
X22027Y875109D02*
G54D54*
D03*
X22225Y875109D02*
G54D54*
D03*
X28972Y803672D02*
G54D54*
D03*
X21034Y803672D02*
G54D54*
D03*
X25003Y803672D02*
G54D54*
D03*
X28773Y803672D02*
G54D54*
D03*
X28575Y803672D02*
G54D54*
D03*
X28377Y803672D02*
G54D54*
D03*
X28178Y803672D02*
G54D54*
D03*
X27980Y803672D02*
G54D54*
D03*
X27781Y803672D02*
G54D54*
D03*
X27583Y803672D02*
G54D54*
D03*
X27384Y803672D02*
G54D54*
D03*
X27186Y803672D02*
G54D54*
D03*
X26988Y803672D02*
G54D54*
D03*
X26789Y803672D02*
G54D54*
D03*
X26591Y803672D02*
G54D54*
D03*
X26392Y803672D02*
G54D54*
D03*
X26194Y803672D02*
G54D54*
D03*
X25995Y803672D02*
G54D54*
D03*
X25797Y803672D02*
G54D54*
D03*
X25598Y803672D02*
G54D54*
D03*
X25400Y803672D02*
G54D54*
D03*
X21233Y803672D02*
G54D54*
D03*
X21431Y803672D02*
G54D54*
D03*
X21630Y803672D02*
G54D54*
D03*
X21828Y803672D02*
G54D54*
D03*
X22027Y803672D02*
G54D54*
D03*
X22225Y803672D02*
G54D54*
D03*
X22423Y803672D02*
G54D54*
D03*
X22622Y803672D02*
G54D54*
D03*
X22820Y803672D02*
G54D54*
D03*
X23019Y803672D02*
G54D54*
D03*
X23217Y803672D02*
G54D54*
D03*
X23416Y803672D02*
G54D54*
D03*
X23614Y803672D02*
G54D54*
D03*
X23812Y803672D02*
G54D54*
D03*
X24011Y803672D02*
G54D54*
D03*
X24011Y803672D02*
G54D54*
D03*
X24209Y803672D02*
G54D54*
D03*
X24408Y803672D02*
G54D54*
D03*
X24606Y803672D02*
G54D54*
D03*
G54D22*
X25400Y885031D02*
X25400Y865981D01*
G54D22*
X25400Y794544D02*
X25400Y813594D01*
G54D22*
X60325Y794544D02*
X60325Y813594D01*
G54D22*
X60325Y885031D02*
X60325Y864394D01*
X21828Y875109D02*
G54D54*
D03*
X22622Y875109D02*
G54D54*
D03*
X23416Y875109D02*
G54D54*
D03*
X24209Y875109D02*
G54D54*
D03*
X25003Y875109D02*
G54D54*
D03*
X25797Y875109D02*
G54D54*
D03*
X26591Y875109D02*
G54D54*
D03*
X27384Y875109D02*
G54D54*
D03*
X28178Y875109D02*
G54D54*
D03*
X56356Y875109D02*
G54D54*
D03*
X57150Y875109D02*
G54D54*
D03*
X57944Y875109D02*
G54D54*
D03*
X58738Y875109D02*
G54D54*
D03*
X59531Y875109D02*
G54D54*
D03*
X60325Y875109D02*
G54D54*
D03*
X61119Y875109D02*
G54D54*
D03*
X61912Y875109D02*
G54D54*
D03*
X62706Y875109D02*
G54D54*
D03*
X63500Y875109D02*
G54D54*
D03*
X28972Y875109D02*
G54D54*
D03*
X21034Y803672D02*
G54D54*
D03*
X21828Y803672D02*
G54D54*
D03*
X22622Y803672D02*
G54D54*
D03*
X23416Y803672D02*
G54D54*
D03*
X24209Y803672D02*
G54D54*
D03*
X25003Y803672D02*
G54D54*
D03*
X25797Y803672D02*
G54D54*
D03*
X26591Y803672D02*
G54D54*
D03*
X27384Y803672D02*
G54D54*
D03*
X28178Y803672D02*
G54D54*
D03*
X28972Y803672D02*
G54D54*
D03*
X55562Y803672D02*
G54D54*
D03*
X56356Y803672D02*
G54D54*
D03*
X57150Y803672D02*
G54D54*
D03*
X57944Y803672D02*
G54D54*
D03*
X58738Y803672D02*
G54D54*
D03*
X59531Y803672D02*
G54D54*
D03*
X60325Y803672D02*
G54D54*
D03*
X61119Y803672D02*
G54D54*
D03*
X61912Y803672D02*
G54D54*
D03*
X62706Y803672D02*
G54D54*
D03*
X63500Y803672D02*
G54D54*
D03*
X21034Y875109D02*
G54D54*
D03*
X28972Y875109D02*
G54D54*
D03*
X55562Y875109D02*
G54D54*
D03*
X48816Y654050D02*
G54D40*
D03*
X628253Y424656D02*
G54D40*
D03*
X48816Y424656D02*
G54D40*
D03*
X628253Y654050D02*
G54D40*
D03*
X580231Y666750D02*
G54D41*
D03*
X580230Y641346D02*
G54D41*
D03*
X554831Y666750D02*
G54D41*
D03*
X554831Y641350D02*
G54D41*
D03*
X529431Y666750D02*
G54D41*
D03*
X529431Y641350D02*
G54D41*
D03*
X504030Y666746D02*
G54D41*
D03*
X504031Y641350D02*
G54D41*
D03*
X478631Y666750D02*
G54D41*
D03*
X478631Y641350D02*
G54D41*
D03*
X453230Y666746D02*
G54D41*
D03*
X453231Y641350D02*
G54D41*
D03*
X427831Y666750D02*
G54D41*
D03*
X427831Y641350D02*
G54D41*
D03*
X402431Y666750D02*
G54D41*
D03*
X402430Y641346D02*
G54D41*
D03*
X377031Y666750D02*
G54D41*
D03*
X377031Y641350D02*
G54D41*
D03*
X351631Y666750D02*
G54D41*
D03*
X351631Y641350D02*
G54D41*
D03*
X326230Y666746D02*
G54D41*
D03*
X326231Y641350D02*
G54D41*
D03*
X300831Y666750D02*
G54D41*
D03*
X300831Y641350D02*
G54D41*
D03*
X275431Y666750D02*
G54D41*
D03*
X275431Y641350D02*
G54D41*
D03*
X250030Y666746D02*
G54D41*
D03*
X250031Y641350D02*
G54D41*
D03*
X224631Y666750D02*
G54D41*
D03*
X224631Y641350D02*
G54D41*
D03*
X199231Y666750D02*
G54D41*
D03*
X199230Y641346D02*
G54D41*
D03*
X173831Y666750D02*
G54D41*
D03*
X173831Y641350D02*
G54D41*
D03*
X148430Y666746D02*
G54D41*
D03*
X123031Y666750D02*
G54D41*
D03*
X97631Y666750D02*
G54D41*
D03*
X148431Y641350D02*
G54D41*
D03*
X123031Y641350D02*
G54D41*
D03*
X97631Y641350D02*
G54D41*
D03*
X291272Y535569D02*
G54D42*
D03*
X284772Y535569D02*
G54D42*
D03*
X278272Y535569D02*
G54D42*
D03*
X271772Y535569D02*
G54D42*
D03*
X265272Y535569D02*
G54D42*
D03*
X258772Y535569D02*
G54D42*
D03*
X252272Y535569D02*
G54D42*
D03*
X245772Y535569D02*
G54D42*
D03*
X239272Y535569D02*
G54D42*
D03*
X232772Y535569D02*
G54D42*
D03*
X226272Y535569D02*
G54D42*
D03*
X219772Y535569D02*
G54D42*
D03*
X213272Y535569D02*
G54D42*
D03*
X206772Y535569D02*
G54D42*
D03*
X291272Y604441D02*
G54D42*
D03*
X284772Y604441D02*
G54D42*
D03*
X278272Y604440D02*
G54D42*
D03*
X271772Y604440D02*
G54D42*
D03*
X265272Y604440D02*
G54D42*
D03*
X258772Y604440D02*
G54D42*
D03*
X252272Y604440D02*
G54D42*
D03*
X245772Y604440D02*
G54D42*
D03*
X239272Y604440D02*
G54D42*
D03*
X232772Y604440D02*
G54D42*
D03*
X226272Y604440D02*
G54D42*
D03*
X219772Y604440D02*
G54D42*
D03*
X213272Y604440D02*
G54D42*
D03*
X206772Y604440D02*
G54D42*
D03*
X291272Y603647D02*
G54D42*
D03*
X284772Y603647D02*
G54D42*
D03*
X278272Y603647D02*
G54D42*
D03*
X271772Y603647D02*
G54D42*
D03*
X265272Y603647D02*
G54D42*
D03*
X258772Y603647D02*
G54D42*
D03*
X252272Y603647D02*
G54D42*
D03*
X245772Y603647D02*
G54D42*
D03*
X239272Y603647D02*
G54D42*
D03*
X232772Y603647D02*
G54D42*
D03*
X226272Y603647D02*
G54D42*
D03*
X219772Y603647D02*
G54D42*
D03*
X213272Y603647D02*
G54D42*
D03*
X206772Y603647D02*
G54D42*
D03*
X291272Y536362D02*
G54D42*
D03*
X284772Y536362D02*
G54D42*
D03*
X278272Y536362D02*
G54D42*
D03*
X271772Y536362D02*
G54D42*
D03*
X265272Y536362D02*
G54D42*
D03*
X258772Y536363D02*
G54D42*
D03*
X252272Y536363D02*
G54D42*
D03*
X245772Y536362D02*
G54D42*
D03*
X239272Y536362D02*
G54D42*
D03*
X232772Y536362D02*
G54D42*
D03*
X226272Y536362D02*
G54D42*
D03*
X219772Y536362D02*
G54D42*
D03*
X213272Y536362D02*
G54D42*
D03*
X206772Y536362D02*
G54D42*
D03*
X291272Y536759D02*
G54D42*
D03*
X284772Y536759D02*
G54D42*
D03*
X278272Y536759D02*
G54D42*
D03*
X271772Y536759D02*
G54D42*
D03*
X265272Y536759D02*
G54D42*
D03*
X258772Y536759D02*
G54D42*
D03*
X252272Y536759D02*
G54D42*
D03*
X245772Y536759D02*
G54D42*
D03*
X239272Y536759D02*
G54D42*
D03*
X232772Y536759D02*
G54D42*
D03*
X226272Y536759D02*
G54D42*
D03*
X219772Y536759D02*
G54D42*
D03*
X213272Y536759D02*
G54D42*
D03*
X206772Y536759D02*
G54D42*
D03*
X291272Y603250D02*
G54D42*
D03*
X284772Y603250D02*
G54D42*
D03*
X278272Y603250D02*
G54D42*
D03*
X271772Y603250D02*
G54D42*
D03*
X265272Y603250D02*
G54D42*
D03*
X258772Y603250D02*
G54D42*
D03*
X252272Y603250D02*
G54D42*
D03*
X245772Y603250D02*
G54D42*
D03*
X239272Y603250D02*
G54D42*
D03*
X232772Y603250D02*
G54D42*
D03*
X226272Y603250D02*
G54D42*
D03*
X219772Y603250D02*
G54D42*
D03*
X213272Y603250D02*
G54D42*
D03*
X206772Y603250D02*
G54D42*
D03*
X164306Y586383D02*
G54D43*
D03*
X183356Y586383D02*
G54D43*
D03*
X164306Y564356D02*
G54D43*
D03*
X173831Y564356D02*
G54D43*
D03*
X183356Y564356D02*
G54D43*
D03*
G54D15*
X252214Y596702D02*
X252214Y592733D01*
G54D15*
X226219Y543322D02*
X226219Y547291D01*
G54D15*
X271859Y543322D02*
X271859Y547291D01*
G54D15*
X278408Y543322D02*
X278408Y547291D01*
G54D15*
X245864Y543322D02*
X245864Y547291D01*
G54D15*
X60523Y526455D02*
X55562Y526455D01*
X141288Y575469D02*
G54D44*
D03*
X99219Y575469D02*
G54D44*
D03*
X84733Y545902D02*
G54D45*
D03*
X84733Y539353D02*
G54D45*
D03*
X271859Y585589D02*
G54D45*
D03*
X219869Y553641D02*
G54D45*
D03*
X84733Y552450D02*
G54D45*
D03*
X84733Y533003D02*
G54D45*
D03*
X84733Y526455D02*
G54D45*
D03*
G54D15*
X84733Y552450D02*
X61912Y552450D01*
G54D15*
X84733Y545902D02*
X61714Y545902D01*
G54D15*
X84733Y539353D02*
X61714Y539353D01*
G54D15*
X84733Y533003D02*
X61714Y533003D01*
G54D15*
X84733Y526455D02*
X61714Y526455D01*
G54D28*
X271859Y585589D02*
X271859Y596503D01*
G54D28*
X219869Y553641D02*
X219869Y542925D01*
G54D22*
X99219Y588169D02*
X64691Y553641D01*
G54D22*
X164306Y564356D02*
X149225Y564356D01*
G54D22*
X173831Y569714D02*
X173831Y573881D01*
G54D15*
X164306Y559197D02*
X164306Y555228D01*
X183356Y555228D01*
X183356Y559197D01*
G54D15*
X123031Y666750D02*
X97631Y666750D01*
G54D22*
X97631Y666750D02*
X96044Y666750D01*
X81756Y652462D01*
X81756Y615950D01*
X92075Y605631D01*
X154781Y605631D01*
X165100Y595312D01*
X165100Y587177D01*
X164306Y586383D01*
X407988Y602456D02*
G54D46*
D03*
X414487Y602456D02*
G54D46*
D03*
X407591Y543109D02*
G54D46*
D03*
X414091Y543109D02*
G54D46*
D03*
X420591Y543109D02*
G54D46*
D03*
X427091Y543109D02*
G54D46*
D03*
X420988Y602456D02*
G54D46*
D03*
X427488Y602456D02*
G54D46*
D03*
G54D28*
X165100Y596106D02*
X192088Y596106D01*
X196056Y592138D01*
X196056Y584994D01*
X200025Y581025D01*
X231378Y581025D01*
X239316Y573088D01*
X239316Y542131D01*
G54D28*
X84733Y545902D02*
X189508Y545902D01*
X196056Y552450D01*
X210741Y552450D01*
X213122Y550069D01*
X213122Y541734D01*
G54D28*
X84733Y539353D02*
X207169Y539353D01*
G54D28*
X173831Y666750D02*
X175022Y666750D01*
X186531Y655241D01*
X186531Y624681D01*
X192088Y619125D01*
X263128Y619125D01*
X265509Y616744D01*
X265509Y608409D01*
G54D28*
X199231Y666750D02*
X202009Y666750D01*
X211931Y656828D01*
X211931Y627459D01*
X214312Y625078D01*
X286544Y625078D01*
X291306Y620316D01*
X291306Y609203D01*
X193675Y443706D02*
G54D47*
D03*
X174675Y443706D02*
G54D47*
D03*
X193675Y411956D02*
G54D47*
D03*
X174675Y411956D02*
G54D47*
D03*
X146050Y411956D02*
G54D47*
D03*
X127050Y411956D02*
G54D47*
D03*
X146050Y443706D02*
G54D47*
D03*
X127050Y443706D02*
G54D47*
D03*
G54D28*
X258762Y531416D02*
X258762Y518716D01*
X252412Y512366D01*
X215106Y512366D01*
X209550Y506809D01*
X209550Y415528D01*
X205978Y411956D01*
X193675Y411956D01*
G54D28*
X252412Y530225D02*
X252412Y519906D01*
X250031Y517525D01*
X213519Y517525D01*
X204788Y508794D01*
X204788Y455216D01*
X198834Y449262D01*
G54D28*
X146050Y443706D02*
X174675Y443706D01*
G54D28*
X146050Y411956D02*
X174675Y411956D01*
G54D28*
X127050Y411956D02*
X127050Y443706D01*
G54D28*
X219869Y529828D02*
X219869Y524669D01*
X217091Y521891D01*
X210741Y521891D01*
X199628Y510778D01*
G54D28*
X127050Y443706D02*
X127050Y455266D01*
X132953Y461169D01*
X193278Y461169D01*
X199628Y467519D01*
X199628Y510778D01*
X139700Y532606D02*
G54D45*
D03*
X158750Y532606D02*
G54D45*
D03*
G54D28*
X139700Y532606D02*
X158750Y532606D01*
X317475Y584969D02*
G54D48*
D03*
X317475Y565969D02*
G54D48*
D03*
X346050Y584969D02*
G54D48*
D03*
X346050Y565969D02*
G54D48*
D03*
G54D28*
X346050Y561206D02*
X239738Y561206D01*
X239712Y561181D01*
G54D28*
X317475Y584969D02*
X374625Y584969D01*
X374625Y584969D02*
G54D48*
D03*
X374625Y565969D02*
G54D48*
D03*
X449238Y582192D02*
G54D48*
D03*
X449238Y563192D02*
G54D48*
D03*
G54D28*
X427831Y641350D02*
X427831Y602800D01*
X427488Y602456D01*
G54D28*
X427831Y666750D02*
X425847Y666750D01*
X415131Y656034D01*
X415131Y625872D01*
X421084Y619919D01*
X421084Y609600D01*
G54D28*
X228600Y443706D02*
X361950Y443706D01*
X393700Y475456D01*
X393675Y602034D01*
G54D28*
X374625Y561206D02*
X393675Y561206D01*
X393700Y561181D01*
X228600Y494506D02*
G54D41*
D03*
X228600Y469106D02*
G54D41*
D03*
X228600Y443706D02*
G54D41*
D03*
X228600Y418306D02*
G54D41*
D03*
G54D28*
X228600Y418306D02*
X228600Y403622D01*
G54D29*
X300831Y641350D02*
X300831Y625475D01*
X323850Y602456D01*
X407988Y602456D01*
G54D29*
X407591Y535384D02*
X407591Y529431D01*
G54D29*
X413941Y535384D02*
X413941Y529431D01*
G54D29*
X420688Y535384D02*
X420688Y529431D01*
G54D29*
X427038Y535781D02*
X427038Y529431D01*
X184175Y494531D02*
G54D48*
D03*
X184175Y513531D02*
G54D48*
D03*
G54D28*
X184175Y513531D02*
X201588Y513531D01*
X201612Y513556D01*
G54D28*
X184175Y494531D02*
X184175Y481831D01*
X184150Y481806D01*
X130200Y494531D02*
G54D48*
D03*
X130200Y513531D02*
G54D48*
D03*
X104800Y494531D02*
G54D48*
D03*
X104800Y513531D02*
G54D48*
D03*
X130200Y513531D02*
G54D45*
D03*
G54D28*
X104800Y513531D02*
X104800Y538931D01*
X104775Y538956D01*
G54D28*
X130200Y494531D02*
X130200Y481831D01*
X130175Y481806D01*
G54D28*
X104800Y494531D02*
X104800Y481831D01*
X104775Y481806D01*
G54D49*
X588641Y529256D02*
X587441Y527256D01*
X585041Y526256D01*
X582641Y526256D01*
X580241Y527256D01*
X579041Y529256D01*
X579041Y539256D01*
X580241Y541256D01*
X582641Y542256D01*
X585041Y542256D01*
X587441Y541256D01*
X588641Y539256D01*
G54D49*
X600241Y528656D02*
X600241Y532656D01*
X599041Y534656D01*
X596641Y535256D01*
X594241Y534656D01*
X593041Y532656D01*
X593041Y528656D01*
X594241Y526656D01*
X596641Y526256D01*
X599041Y526656D01*
X600241Y528656D01*
G54D49*
X604641Y526256D02*
X604641Y535256D01*
G54D49*
X604641Y533256D02*
X605841Y534656D01*
X608241Y535256D01*
X610641Y534656D01*
X611841Y533256D01*
X611841Y526256D01*
G54D49*
X616241Y527256D02*
X618641Y526256D01*
X621041Y526256D01*
X623441Y527256D01*
X623441Y529256D01*
X622241Y530256D01*
X617441Y531256D01*
X616241Y532256D01*
X616241Y534256D01*
X618641Y535256D01*
X621041Y535256D01*
X623441Y534256D01*
G54D49*
X635041Y528656D02*
X635041Y532656D01*
X633841Y534656D01*
X631441Y535256D01*
X629041Y534656D01*
X627841Y532656D01*
X627841Y528656D01*
X629041Y526656D01*
X631441Y526256D01*
X633841Y526656D01*
X635041Y528656D01*
G54D49*
X639441Y526256D02*
X639441Y542256D01*
G54D49*
X651041Y527256D02*
X649121Y526256D01*
X646721Y526256D01*
X644321Y527256D01*
X643841Y529256D01*
X643841Y532656D01*
X645041Y534656D01*
X647441Y535256D01*
X649841Y534656D01*
X651041Y533256D01*
X651041Y531256D01*
X643841Y531256D01*
X488950Y545306D02*
G54D50*
D03*
X498475Y545306D02*
G54D50*
D03*
X503238Y545306D02*
G54D50*
D03*
X503238Y540544D02*
G54D50*
D03*
X498475Y535781D02*
G54D50*
D03*
X488950Y531019D02*
G54D50*
D03*
X488950Y526256D02*
G54D50*
D03*
X498475Y526256D02*
G54D50*
D03*
X503238Y526256D02*
G54D50*
D03*
X511175Y526256D02*
G54D50*
D03*
X511175Y531019D02*
G54D50*
D03*
X511175Y535781D02*
G54D50*
D03*
X511175Y540544D02*
G54D50*
D03*
X511175Y545306D02*
G54D50*
D03*
X515938Y545306D02*
G54D50*
D03*
X520700Y545306D02*
G54D50*
D03*
X515938Y535781D02*
G54D50*
D03*
X520700Y535781D02*
G54D50*
D03*
X515938Y526256D02*
G54D50*
D03*
X520700Y526256D02*
G54D50*
D03*
X533400Y545306D02*
G54D50*
D03*
X533400Y540544D02*
G54D50*
D03*
X533400Y535781D02*
G54D50*
D03*
X533400Y531019D02*
G54D50*
D03*
X533400Y526256D02*
G54D50*
D03*
X538162Y545306D02*
G54D50*
D03*
X538162Y535781D02*
G54D50*
D03*
X547688Y540544D02*
G54D50*
D03*
X547688Y531019D02*
G54D50*
D03*
X547688Y526256D02*
G54D50*
D03*
X555625Y540544D02*
G54D50*
D03*
X555625Y535781D02*
G54D50*
D03*
X555625Y531019D02*
G54D50*
D03*
X560388Y526256D02*
G54D50*
D03*
X565150Y526256D02*
G54D50*
D03*
X569912Y531019D02*
G54D50*
D03*
X569912Y535781D02*
G54D50*
D03*
X569912Y540544D02*
G54D50*
D03*
X560388Y545306D02*
G54D50*
D03*
X565150Y545306D02*
G54D50*
D03*
G54D51*
X627062Y508000D02*
X627062Y513000D01*
G54D51*
X627062Y511889D02*
X628396Y513000D01*
X629729Y513000D01*
G54D51*
X636174Y508556D02*
X635107Y508000D01*
X633774Y508000D01*
X632440Y508556D01*
X632174Y509667D01*
X632174Y511556D01*
X632840Y512667D01*
X634174Y513000D01*
X635507Y512667D01*
X636174Y511889D01*
X636174Y510778D01*
X632174Y510778D01*
G54D51*
X638618Y513000D02*
X641284Y508000D01*
X643951Y513000D01*
G54D51*
X651728Y508000D02*
X646394Y508000D01*
X646394Y508556D01*
X647061Y509667D01*
X651061Y513000D01*
X651728Y514111D01*
X651728Y515222D01*
X651061Y516333D01*
X649728Y516889D01*
X648394Y516889D01*
X647061Y516333D01*
X646394Y515222D01*
X149225Y609600D02*
G54D52*
D03*
X177225Y609600D02*
G54D52*
D03*
G54D29*
X177225Y609600D02*
X190500Y609600D01*
X555625Y545306D02*
G54D50*
D03*
X569912Y545306D02*
G54D50*
D03*
X569912Y526256D02*
G54D50*
D03*
X555625Y526256D02*
G54D50*
D03*
X493712Y545306D02*
G54D50*
D03*
X493712Y535781D02*
G54D50*
D03*
X493712Y526256D02*
G54D50*
D03*
X525462Y545306D02*
G54D50*
D03*
X525462Y535781D02*
G54D50*
D03*
X525462Y526256D02*
G54D50*
D03*
X542925Y545306D02*
G54D50*
D03*
X542925Y535781D02*
G54D50*
D03*
G54D28*
X374650Y535781D02*
X374650Y564356D01*
G54D28*
X355600Y535781D02*
X342900Y535781D01*
X355600Y535781D02*
G54D47*
D03*
X374600Y535781D02*
G54D47*
D03*
G54D29*
X449238Y563192D02*
X394123Y563192D01*
X393700Y562769D01*
G54D29*
X479401Y582192D02*
X420315Y582192D01*
X414338Y588169D01*
X414338Y596106D01*
X479401Y582192D02*
G54D48*
D03*
X479401Y563192D02*
G54D48*
D03*
G54D29*
X479401Y563192D02*
X479401Y548505D01*
X479425Y548481D01*
X479425Y580628D02*
G54D53*
D03*
X479425Y563959D02*
G54D53*
D03*
X21034Y575072D02*
G54D54*
D03*
X28972Y575072D02*
G54D54*
D03*
X28972Y503634D02*
G54D54*
D03*
X21034Y503634D02*
G54D54*
D03*
X63500Y575072D02*
G54D54*
D03*
X55562Y575072D02*
G54D54*
D03*
X63500Y503634D02*
G54D54*
D03*
X55562Y503634D02*
G54D54*
D03*
X59531Y575072D02*
G54D54*
D03*
X59531Y503634D02*
G54D54*
D03*
X25003Y503634D02*
G54D54*
D03*
X25003Y575072D02*
G54D54*
D03*
X54777Y539353D02*
G54D55*
D03*
X54777Y532853D02*
G54D55*
D03*
X54777Y526353D02*
G54D55*
D03*
X54777Y545853D02*
G54D55*
D03*
X54777Y552353D02*
G54D55*
D03*
X63302Y575072D02*
G54D54*
D03*
X63103Y575072D02*
G54D54*
D03*
X62905Y575072D02*
G54D54*
D03*
X62706Y575072D02*
G54D54*
D03*
X62508Y575072D02*
G54D54*
D03*
X62309Y575072D02*
G54D54*
D03*
X62111Y575072D02*
G54D54*
D03*
X61912Y575072D02*
G54D54*
D03*
X61714Y575072D02*
G54D54*
D03*
X61516Y575072D02*
G54D54*
D03*
X61317Y575072D02*
G54D54*
D03*
X61119Y575072D02*
G54D54*
D03*
X60920Y575072D02*
G54D54*
D03*
X60722Y575072D02*
G54D54*
D03*
X60523Y575072D02*
G54D54*
D03*
X60325Y575072D02*
G54D54*
D03*
X60127Y575072D02*
G54D54*
D03*
X59928Y575072D02*
G54D54*
D03*
X59730Y575072D02*
G54D54*
D03*
X59333Y575072D02*
G54D54*
D03*
X59134Y575072D02*
G54D54*
D03*
X58936Y575072D02*
G54D54*
D03*
X58738Y575072D02*
G54D54*
D03*
X58539Y575072D02*
G54D54*
D03*
X58341Y575072D02*
G54D54*
D03*
X58142Y575072D02*
G54D54*
D03*
X57944Y575072D02*
G54D54*
D03*
X57745Y575072D02*
G54D54*
D03*
X57547Y575072D02*
G54D54*
D03*
X57348Y575072D02*
G54D54*
D03*
X57150Y575072D02*
G54D54*
D03*
X55761Y575072D02*
G54D54*
D03*
X55959Y575072D02*
G54D54*
D03*
X56158Y575072D02*
G54D54*
D03*
X56356Y575072D02*
G54D54*
D03*
X56555Y575072D02*
G54D54*
D03*
X56753Y575072D02*
G54D54*
D03*
X63302Y503634D02*
G54D54*
D03*
X63103Y503634D02*
G54D54*
D03*
X62905Y503634D02*
G54D54*
D03*
X62706Y503634D02*
G54D54*
D03*
X62508Y503634D02*
G54D54*
D03*
X62309Y503634D02*
G54D54*
D03*
X62111Y503634D02*
G54D54*
D03*
X61912Y503634D02*
G54D54*
D03*
X61714Y503634D02*
G54D54*
D03*
X61516Y503634D02*
G54D54*
D03*
X61317Y503634D02*
G54D54*
D03*
X61119Y503634D02*
G54D54*
D03*
X60920Y503634D02*
G54D54*
D03*
X60722Y503634D02*
G54D54*
D03*
X60523Y503634D02*
G54D54*
D03*
X60325Y503634D02*
G54D54*
D03*
X60127Y503634D02*
G54D54*
D03*
X59928Y503634D02*
G54D54*
D03*
X55761Y503634D02*
G54D54*
D03*
X55959Y503634D02*
G54D54*
D03*
X56158Y503634D02*
G54D54*
D03*
X56356Y503634D02*
G54D54*
D03*
X56555Y503634D02*
G54D54*
D03*
X56753Y503634D02*
G54D54*
D03*
X56952Y503634D02*
G54D54*
D03*
X57150Y503634D02*
G54D54*
D03*
X57348Y503634D02*
G54D54*
D03*
X57547Y503634D02*
G54D54*
D03*
X57745Y503634D02*
G54D54*
D03*
X57944Y503634D02*
G54D54*
D03*
X58142Y503634D02*
G54D54*
D03*
X58341Y503634D02*
G54D54*
D03*
X58539Y503634D02*
G54D54*
D03*
X58539Y503634D02*
G54D54*
D03*
X58738Y503634D02*
G54D54*
D03*
X58936Y503634D02*
G54D54*
D03*
X59134Y503634D02*
G54D54*
D03*
X28972Y575072D02*
G54D54*
D03*
X21034Y575072D02*
G54D54*
D03*
X25003Y575072D02*
G54D54*
D03*
X28773Y575072D02*
G54D54*
D03*
X28575Y575072D02*
G54D54*
D03*
X28377Y575072D02*
G54D54*
D03*
X28178Y575072D02*
G54D54*
D03*
X27980Y575072D02*
G54D54*
D03*
X27781Y575072D02*
G54D54*
D03*
X27583Y575072D02*
G54D54*
D03*
X27384Y575072D02*
G54D54*
D03*
X27186Y575072D02*
G54D54*
D03*
X26988Y575072D02*
G54D54*
D03*
X26789Y575072D02*
G54D54*
D03*
X26591Y575072D02*
G54D54*
D03*
X26392Y575072D02*
G54D54*
D03*
X26194Y575072D02*
G54D54*
D03*
X25995Y575072D02*
G54D54*
D03*
X25797Y575072D02*
G54D54*
D03*
X25598Y575072D02*
G54D54*
D03*
X25400Y575072D02*
G54D54*
D03*
X25202Y575072D02*
G54D54*
D03*
X24805Y575072D02*
G54D54*
D03*
X24606Y575072D02*
G54D54*
D03*
X24408Y575072D02*
G54D54*
D03*
X24209Y575072D02*
G54D54*
D03*
X24011Y575072D02*
G54D54*
D03*
X23812Y575072D02*
G54D54*
D03*
X23614Y575072D02*
G54D54*
D03*
X23416Y575072D02*
G54D54*
D03*
X23217Y575072D02*
G54D54*
D03*
X23019Y575072D02*
G54D54*
D03*
X22820Y575072D02*
G54D54*
D03*
X22622Y575072D02*
G54D54*
D03*
X21233Y575072D02*
G54D54*
D03*
X21431Y575072D02*
G54D54*
D03*
X21630Y575072D02*
G54D54*
D03*
X21828Y575072D02*
G54D54*
D03*
X22027Y575072D02*
G54D54*
D03*
X22225Y575072D02*
G54D54*
D03*
X28972Y503634D02*
G54D54*
D03*
X21034Y503634D02*
G54D54*
D03*
X25003Y503634D02*
G54D54*
D03*
X28773Y503634D02*
G54D54*
D03*
X28575Y503634D02*
G54D54*
D03*
X28377Y503634D02*
G54D54*
D03*
X28178Y503634D02*
G54D54*
D03*
X27980Y503634D02*
G54D54*
D03*
X27781Y503634D02*
G54D54*
D03*
X27583Y503634D02*
G54D54*
D03*
X27384Y503634D02*
G54D54*
D03*
X27186Y503634D02*
G54D54*
D03*
X26988Y503634D02*
G54D54*
D03*
X26789Y503634D02*
G54D54*
D03*
X26591Y503634D02*
G54D54*
D03*
X26392Y503634D02*
G54D54*
D03*
X26194Y503634D02*
G54D54*
D03*
X25995Y503634D02*
G54D54*
D03*
X25797Y503634D02*
G54D54*
D03*
X25598Y503634D02*
G54D54*
D03*
X25400Y503634D02*
G54D54*
D03*
X21233Y503634D02*
G54D54*
D03*
X21431Y503634D02*
G54D54*
D03*
X21630Y503634D02*
G54D54*
D03*
X21828Y503634D02*
G54D54*
D03*
X22027Y503634D02*
G54D54*
D03*
X22225Y503634D02*
G54D54*
D03*
X22423Y503634D02*
G54D54*
D03*
X22622Y503634D02*
G54D54*
D03*
X22820Y503634D02*
G54D54*
D03*
X23019Y503634D02*
G54D54*
D03*
X23217Y503634D02*
G54D54*
D03*
X23416Y503634D02*
G54D54*
D03*
X23614Y503634D02*
G54D54*
D03*
X23812Y503634D02*
G54D54*
D03*
X24011Y503634D02*
G54D54*
D03*
X24011Y503634D02*
G54D54*
D03*
X24209Y503634D02*
G54D54*
D03*
X24408Y503634D02*
G54D54*
D03*
X24606Y503634D02*
G54D54*
D03*
G54D22*
X25400Y584994D02*
X25400Y565944D01*
G54D22*
X25400Y494506D02*
X25400Y513556D01*
G54D22*
X60325Y494506D02*
X60325Y513556D01*
G54D22*
X60325Y584994D02*
X60325Y564356D01*
X21828Y575072D02*
G54D54*
D03*
X22622Y575072D02*
G54D54*
D03*
X23416Y575072D02*
G54D54*
D03*
X24209Y575072D02*
G54D54*
D03*
X25003Y575072D02*
G54D54*
D03*
X25797Y575072D02*
G54D54*
D03*
X26591Y575072D02*
G54D54*
D03*
X27384Y575072D02*
G54D54*
D03*
X28178Y575072D02*
G54D54*
D03*
X56356Y575072D02*
G54D54*
D03*
X57150Y575072D02*
G54D54*
D03*
X57944Y575072D02*
G54D54*
D03*
X58738Y575072D02*
G54D54*
D03*
X59531Y575072D02*
G54D54*
D03*
X60325Y575072D02*
G54D54*
D03*
X61119Y575072D02*
G54D54*
D03*
X61912Y575072D02*
G54D54*
D03*
X62706Y575072D02*
G54D54*
D03*
X63500Y575072D02*
G54D54*
D03*
X28972Y575072D02*
G54D54*
D03*
X21034Y503634D02*
G54D54*
D03*
X21828Y503634D02*
G54D54*
D03*
X22622Y503634D02*
G54D54*
D03*
X23416Y503634D02*
G54D54*
D03*
X24209Y503634D02*
G54D54*
D03*
X25003Y503634D02*
G54D54*
D03*
X25797Y503634D02*
G54D54*
D03*
X26591Y503634D02*
G54D54*
D03*
X27384Y503634D02*
G54D54*
D03*
X28178Y503634D02*
G54D54*
D03*
X28972Y503634D02*
G54D54*
D03*
X55562Y503634D02*
G54D54*
D03*
X56356Y503634D02*
G54D54*
D03*
X57150Y503634D02*
G54D54*
D03*
X57944Y503634D02*
G54D54*
D03*
X58738Y503634D02*
G54D54*
D03*
X59531Y503634D02*
G54D54*
D03*
X60325Y503634D02*
G54D54*
D03*
X61119Y503634D02*
G54D54*
D03*
X61912Y503634D02*
G54D54*
D03*
X62706Y503634D02*
G54D54*
D03*
X63500Y503634D02*
G54D54*
D03*
X21034Y575072D02*
G54D54*
D03*
X28972Y575072D02*
G54D54*
D03*
X55562Y575072D02*
G54D54*
D03*
X48816Y354012D02*
G54D40*
D03*
X628253Y124619D02*
G54D40*
D03*
X48816Y124619D02*
G54D40*
D03*
X628253Y354012D02*
G54D40*
D03*
X580231Y366712D02*
G54D41*
D03*
X580230Y341309D02*
G54D41*
D03*
X554831Y366712D02*
G54D41*
D03*
X554831Y341312D02*
G54D41*
D03*
X529431Y366712D02*
G54D41*
D03*
X529431Y341312D02*
G54D41*
D03*
X504030Y366709D02*
G54D41*
D03*
X504031Y341312D02*
G54D41*
D03*
X478631Y366712D02*
G54D41*
D03*
X478631Y341312D02*
G54D41*
D03*
X453230Y366709D02*
G54D41*
D03*
X453231Y341312D02*
G54D41*
D03*
X427831Y366712D02*
G54D41*
D03*
X427831Y341312D02*
G54D41*
D03*
X402431Y366712D02*
G54D41*
D03*
X402430Y341309D02*
G54D41*
D03*
X377031Y366712D02*
G54D41*
D03*
X377031Y341312D02*
G54D41*
D03*
X351631Y366712D02*
G54D41*
D03*
X351631Y341312D02*
G54D41*
D03*
X326230Y366709D02*
G54D41*
D03*
X326231Y341312D02*
G54D41*
D03*
X300831Y366712D02*
G54D41*
D03*
X300831Y341312D02*
G54D41*
D03*
X275431Y366712D02*
G54D41*
D03*
X275431Y341312D02*
G54D41*
D03*
X250030Y366709D02*
G54D41*
D03*
X250031Y341312D02*
G54D41*
D03*
X224631Y366712D02*
G54D41*
D03*
X224631Y341312D02*
G54D41*
D03*
X199231Y366712D02*
G54D41*
D03*
X199230Y341309D02*
G54D41*
D03*
X173831Y366712D02*
G54D41*
D03*
X173831Y341312D02*
G54D41*
D03*
X148430Y366709D02*
G54D41*
D03*
X123031Y366712D02*
G54D41*
D03*
X97631Y366712D02*
G54D41*
D03*
X148431Y341312D02*
G54D41*
D03*
X123031Y341312D02*
G54D41*
D03*
X97631Y341312D02*
G54D41*
D03*
X291272Y235531D02*
G54D42*
D03*
X284772Y235531D02*
G54D42*
D03*
X278272Y235531D02*
G54D42*
D03*
X271772Y235531D02*
G54D42*
D03*
X265272Y235531D02*
G54D42*
D03*
X258772Y235531D02*
G54D42*
D03*
X252272Y235531D02*
G54D42*
D03*
X245772Y235531D02*
G54D42*
D03*
X239272Y235531D02*
G54D42*
D03*
X232772Y235531D02*
G54D42*
D03*
X226272Y235531D02*
G54D42*
D03*
X219772Y235531D02*
G54D42*
D03*
X213272Y235531D02*
G54D42*
D03*
X206772Y235531D02*
G54D42*
D03*
X291272Y304403D02*
G54D42*
D03*
X284772Y304403D02*
G54D42*
D03*
X278272Y304403D02*
G54D42*
D03*
X271772Y304403D02*
G54D42*
D03*
X265272Y304403D02*
G54D42*
D03*
X258772Y304403D02*
G54D42*
D03*
X252272Y304403D02*
G54D42*
D03*
X245772Y304403D02*
G54D42*
D03*
X239272Y304403D02*
G54D42*
D03*
X232772Y304403D02*
G54D42*
D03*
X226272Y304403D02*
G54D42*
D03*
X219772Y304403D02*
G54D42*
D03*
X213272Y304403D02*
G54D42*
D03*
X206772Y304403D02*
G54D42*
D03*
X291272Y303609D02*
G54D42*
D03*
X284772Y303609D02*
G54D42*
D03*
X278272Y303609D02*
G54D42*
D03*
X271772Y303609D02*
G54D42*
D03*
X265272Y303609D02*
G54D42*
D03*
X258772Y303609D02*
G54D42*
D03*
X252272Y303609D02*
G54D42*
D03*
X245772Y303609D02*
G54D42*
D03*
X239272Y303609D02*
G54D42*
D03*
X232772Y303609D02*
G54D42*
D03*
X226272Y303609D02*
G54D42*
D03*
X219772Y303609D02*
G54D42*
D03*
X213272Y303609D02*
G54D42*
D03*
X206772Y303609D02*
G54D42*
D03*
X291272Y236325D02*
G54D42*
D03*
X284772Y236325D02*
G54D42*
D03*
X278272Y236325D02*
G54D42*
D03*
X271772Y236325D02*
G54D42*
D03*
X265272Y236325D02*
G54D42*
D03*
X258772Y236325D02*
G54D42*
D03*
X252272Y236325D02*
G54D42*
D03*
X245772Y236325D02*
G54D42*
D03*
X239272Y236325D02*
G54D42*
D03*
X232772Y236325D02*
G54D42*
D03*
X226272Y236325D02*
G54D42*
D03*
X219772Y236325D02*
G54D42*
D03*
X213272Y236325D02*
G54D42*
D03*
X206772Y236325D02*
G54D42*
D03*
X291272Y236722D02*
G54D42*
D03*
X284772Y236722D02*
G54D42*
D03*
X278272Y236722D02*
G54D42*
D03*
X271772Y236722D02*
G54D42*
D03*
X265272Y236722D02*
G54D42*
D03*
X258772Y236722D02*
G54D42*
D03*
X252272Y236722D02*
G54D42*
D03*
X245772Y236722D02*
G54D42*
D03*
X239272Y236722D02*
G54D42*
D03*
X232772Y236722D02*
G54D42*
D03*
X226272Y236722D02*
G54D42*
D03*
X219772Y236722D02*
G54D42*
D03*
X213272Y236722D02*
G54D42*
D03*
X206772Y236722D02*
G54D42*
D03*
X291272Y303212D02*
G54D42*
D03*
X284772Y303212D02*
G54D42*
D03*
X278272Y303212D02*
G54D42*
D03*
X271772Y303212D02*
G54D42*
D03*
X265272Y303212D02*
G54D42*
D03*
X258772Y303213D02*
G54D42*
D03*
X252272Y303212D02*
G54D42*
D03*
X245772Y303212D02*
G54D42*
D03*
X239272Y303212D02*
G54D42*
D03*
X232772Y303212D02*
G54D42*
D03*
X226272Y303212D02*
G54D42*
D03*
X219772Y303212D02*
G54D42*
D03*
X213272Y303212D02*
G54D42*
D03*
X206772Y303212D02*
G54D42*
D03*
X164306Y286345D02*
G54D43*
D03*
X183356Y286345D02*
G54D43*
D03*
X164306Y264319D02*
G54D43*
D03*
X173831Y264319D02*
G54D43*
D03*
X183356Y264319D02*
G54D43*
D03*
G54D15*
X252214Y296664D02*
X252214Y292695D01*
G54D15*
X226219Y243284D02*
X226219Y247253D01*
G54D15*
X271859Y243284D02*
X271859Y247253D01*
G54D15*
X278408Y243284D02*
X278408Y247253D01*
G54D15*
X245864Y243284D02*
X245864Y247253D01*
G54D15*
X60523Y226417D02*
X55562Y226417D01*
X141288Y275431D02*
G54D44*
D03*
X99219Y275431D02*
G54D44*
D03*
X84733Y245864D02*
G54D45*
D03*
X84733Y239316D02*
G54D45*
D03*
X271859Y285552D02*
G54D45*
D03*
X219869Y253603D02*
G54D45*
D03*
X84733Y252412D02*
G54D45*
D03*
X84733Y232966D02*
G54D45*
D03*
X84733Y226417D02*
G54D45*
D03*
G54D15*
X84733Y252412D02*
X61912Y252412D01*
G54D15*
X84733Y245864D02*
X61714Y245864D01*
G54D15*
X84733Y239316D02*
X61714Y239316D01*
G54D15*
X84733Y232966D02*
X61714Y232966D01*
G54D15*
X84733Y226417D02*
X61714Y226417D01*
G54D28*
X271859Y285552D02*
X271859Y296466D01*
G54D28*
X219869Y253603D02*
X219869Y242888D01*
G54D22*
X99219Y288131D02*
X64691Y253603D01*
G54D22*
X164306Y264319D02*
X149225Y264319D01*
G54D22*
X173831Y269677D02*
X173831Y273844D01*
G54D15*
X164306Y259159D02*
X164306Y255191D01*
X183356Y255191D01*
X183356Y259159D01*
G54D15*
X123031Y366712D02*
X97631Y366712D01*
G54D22*
X97631Y366712D02*
X96044Y366712D01*
X81756Y352425D01*
X81756Y315912D01*
X92075Y305594D01*
X154781Y305594D01*
X165100Y295275D01*
X165100Y287139D01*
X164306Y286345D01*
X407988Y302419D02*
G54D46*
D03*
X414487Y302419D02*
G54D46*
D03*
X407591Y243072D02*
G54D46*
D03*
X414091Y243072D02*
G54D46*
D03*
X420591Y243072D02*
G54D46*
D03*
X427091Y243072D02*
G54D46*
D03*
X420988Y302419D02*
G54D46*
D03*
X427488Y302419D02*
G54D46*
D03*
G54D28*
X165100Y296069D02*
X192088Y296069D01*
X196056Y292100D01*
X196056Y284956D01*
X200025Y280988D01*
X231378Y280988D01*
X239316Y273050D01*
X239316Y242094D01*
G54D28*
X84733Y245864D02*
X189508Y245864D01*
X196056Y252412D01*
X210741Y252412D01*
X213122Y250031D01*
X213122Y241697D01*
G54D28*
X84733Y239316D02*
X207169Y239316D01*
G54D28*
X173831Y366712D02*
X175022Y366712D01*
X186531Y355203D01*
X186531Y324644D01*
X192088Y319088D01*
X263128Y319088D01*
X265509Y316706D01*
X265509Y308372D01*
G54D28*
X199231Y366712D02*
X202009Y366712D01*
X211931Y356791D01*
X211931Y327422D01*
X214312Y325041D01*
X286544Y325041D01*
X291306Y320278D01*
X291306Y309166D01*
X193675Y143669D02*
G54D47*
D03*
X174675Y143669D02*
G54D47*
D03*
X193675Y111919D02*
G54D47*
D03*
X174675Y111919D02*
G54D47*
D03*
X146050Y111919D02*
G54D47*
D03*
X127050Y111919D02*
G54D47*
D03*
X146050Y143669D02*
G54D47*
D03*
X127050Y143669D02*
G54D47*
D03*
G54D28*
X258762Y231378D02*
X258762Y218678D01*
X252412Y212328D01*
X215106Y212328D01*
X209550Y206772D01*
X209550Y115491D01*
X205978Y111919D01*
X193675Y111919D01*
G54D28*
X252412Y230188D02*
X252412Y219869D01*
X250031Y217488D01*
X213519Y217488D01*
X204788Y208756D01*
X204788Y155178D01*
X198834Y149225D01*
G54D28*
X146050Y143669D02*
X174675Y143669D01*
G54D28*
X146050Y111919D02*
X174675Y111919D01*
G54D28*
X127050Y111919D02*
X127050Y143669D01*
G54D28*
X219869Y229791D02*
X219869Y224631D01*
X217091Y221853D01*
X210741Y221853D01*
X199628Y210741D01*
G54D28*
X127050Y143669D02*
X127050Y155228D01*
X132953Y161131D01*
X193278Y161131D01*
X199628Y167481D01*
X199628Y210741D01*
X139700Y232569D02*
G54D45*
D03*
X158750Y232569D02*
G54D45*
D03*
G54D28*
X139700Y232569D02*
X158750Y232569D01*
X317475Y284931D02*
G54D48*
D03*
X317475Y265931D02*
G54D48*
D03*
X346050Y284931D02*
G54D48*
D03*
X346050Y265931D02*
G54D48*
D03*
G54D28*
X346050Y261169D02*
X239738Y261169D01*
X239712Y261144D01*
G54D28*
X317475Y284931D02*
X374625Y284931D01*
X374625Y284931D02*
G54D48*
D03*
X374625Y265931D02*
G54D48*
D03*
X449238Y282154D02*
G54D48*
D03*
X449238Y263154D02*
G54D48*
D03*
G54D28*
X427831Y341312D02*
X427831Y302762D01*
X427488Y302419D01*
G54D28*
X427831Y366712D02*
X425847Y366712D01*
X415131Y355997D01*
X415131Y325834D01*
X421084Y319881D01*
X421084Y309562D01*
G54D28*
X228600Y143669D02*
X361950Y143669D01*
X393700Y175419D01*
X393675Y301997D01*
G54D28*
X374625Y261169D02*
X393675Y261169D01*
X393700Y261144D01*
X228600Y194469D02*
G54D41*
D03*
X228600Y169069D02*
G54D41*
D03*
X228600Y143669D02*
G54D41*
D03*
X228600Y118269D02*
G54D41*
D03*
G54D28*
X228600Y118269D02*
X228600Y103584D01*
G54D29*
X300831Y341312D02*
X300831Y325438D01*
X323850Y302419D01*
X407988Y302419D01*
G54D29*
X407591Y235347D02*
X407591Y229394D01*
G54D29*
X413941Y235347D02*
X413941Y229394D01*
G54D29*
X420688Y235347D02*
X420688Y229394D01*
G54D29*
X427038Y235744D02*
X427038Y229394D01*
X184175Y194494D02*
G54D48*
D03*
X184175Y213494D02*
G54D48*
D03*
G54D28*
X184175Y213494D02*
X201588Y213494D01*
X201612Y213519D01*
G54D28*
X184175Y194494D02*
X184175Y181794D01*
X184150Y181769D01*
X130200Y194494D02*
G54D48*
D03*
X130200Y213494D02*
G54D48*
D03*
X104800Y194494D02*
G54D48*
D03*
X104800Y213494D02*
G54D48*
D03*
X130200Y213494D02*
G54D45*
D03*
G54D28*
X104800Y213494D02*
X104800Y238894D01*
X104775Y238919D01*
G54D28*
X130200Y194494D02*
X130200Y181794D01*
X130175Y181769D01*
G54D28*
X104800Y194494D02*
X104800Y181794D01*
X104775Y181769D01*
G54D49*
X588641Y229219D02*
X587441Y227219D01*
X585041Y226219D01*
X582641Y226219D01*
X580241Y227219D01*
X579041Y229219D01*
X579041Y239219D01*
X580241Y241219D01*
X582641Y242219D01*
X585041Y242219D01*
X587441Y241219D01*
X588641Y239219D01*
G54D49*
X600241Y228619D02*
X600241Y232619D01*
X599041Y234619D01*
X596641Y235219D01*
X594241Y234619D01*
X593041Y232619D01*
X593041Y228619D01*
X594241Y226619D01*
X596641Y226219D01*
X599041Y226619D01*
X600241Y228619D01*
G54D49*
X604641Y226219D02*
X604641Y235219D01*
G54D49*
X604641Y233219D02*
X605841Y234619D01*
X608241Y235219D01*
X610641Y234619D01*
X611841Y233219D01*
X611841Y226219D01*
G54D49*
X616241Y227219D02*
X618641Y226219D01*
X621041Y226219D01*
X623441Y227219D01*
X623441Y229219D01*
X622241Y230219D01*
X617441Y231219D01*
X616241Y232219D01*
X616241Y234219D01*
X618641Y235219D01*
X621041Y235219D01*
X623441Y234219D01*
G54D49*
X635041Y228619D02*
X635041Y232619D01*
X633841Y234619D01*
X631441Y235219D01*
X629041Y234619D01*
X627841Y232619D01*
X627841Y228619D01*
X629041Y226619D01*
X631441Y226219D01*
X633841Y226619D01*
X635041Y228619D01*
G54D49*
X639441Y226219D02*
X639441Y242219D01*
G54D49*
X651041Y227219D02*
X649121Y226219D01*
X646721Y226219D01*
X644321Y227219D01*
X643841Y229219D01*
X643841Y232619D01*
X645041Y234619D01*
X647441Y235219D01*
X649841Y234619D01*
X651041Y233219D01*
X651041Y231219D01*
X643841Y231219D01*
X488950Y245269D02*
G54D50*
D03*
X498475Y245269D02*
G54D50*
D03*
X503238Y245269D02*
G54D50*
D03*
X503238Y240506D02*
G54D50*
D03*
X498475Y235744D02*
G54D50*
D03*
X488950Y230981D02*
G54D50*
D03*
X488950Y226219D02*
G54D50*
D03*
X498475Y226219D02*
G54D50*
D03*
X503238Y226219D02*
G54D50*
D03*
X511175Y226219D02*
G54D50*
D03*
X511175Y230981D02*
G54D50*
D03*
X511175Y235744D02*
G54D50*
D03*
X511175Y240506D02*
G54D50*
D03*
X511175Y245269D02*
G54D50*
D03*
X515938Y245269D02*
G54D50*
D03*
X520700Y245269D02*
G54D50*
D03*
X515938Y235744D02*
G54D50*
D03*
X520700Y235744D02*
G54D50*
D03*
X515938Y226219D02*
G54D50*
D03*
X520700Y226219D02*
G54D50*
D03*
X533400Y245269D02*
G54D50*
D03*
X533400Y240506D02*
G54D50*
D03*
X533400Y235744D02*
G54D50*
D03*
X533400Y230981D02*
G54D50*
D03*
X533400Y226219D02*
G54D50*
D03*
X538162Y245269D02*
G54D50*
D03*
X538162Y235744D02*
G54D50*
D03*
X547688Y240506D02*
G54D50*
D03*
X547688Y230981D02*
G54D50*
D03*
X547688Y226219D02*
G54D50*
D03*
X555625Y240506D02*
G54D50*
D03*
X555625Y235744D02*
G54D50*
D03*
X555625Y230981D02*
G54D50*
D03*
X560388Y226219D02*
G54D50*
D03*
X565150Y226219D02*
G54D50*
D03*
X569912Y230981D02*
G54D50*
D03*
X569912Y235744D02*
G54D50*
D03*
X569912Y240506D02*
G54D50*
D03*
X560388Y245269D02*
G54D50*
D03*
X565150Y245269D02*
G54D50*
D03*
G54D51*
X627062Y207962D02*
X627062Y212962D01*
G54D51*
X627062Y211851D02*
X628396Y212962D01*
X629729Y212962D01*
G54D51*
X636174Y208518D02*
X635107Y207962D01*
X633774Y207962D01*
X632440Y208518D01*
X632174Y209629D01*
X632174Y211518D01*
X632840Y212629D01*
X634174Y212962D01*
X635507Y212629D01*
X636174Y211851D01*
X636174Y210740D01*
X632174Y210740D01*
G54D51*
X638618Y212962D02*
X641284Y207962D01*
X643951Y212962D01*
G54D51*
X651728Y207962D02*
X646394Y207962D01*
X646394Y208518D01*
X647061Y209629D01*
X651061Y212962D01*
X651728Y214074D01*
X651728Y215185D01*
X651061Y216296D01*
X649728Y216851D01*
X648394Y216851D01*
X647061Y216296D01*
X646394Y215185D01*
X149225Y309562D02*
G54D52*
D03*
X177225Y309562D02*
G54D52*
D03*
G54D29*
X177225Y309562D02*
X190500Y309562D01*
X555625Y245269D02*
G54D50*
D03*
X569912Y245269D02*
G54D50*
D03*
X569912Y226219D02*
G54D50*
D03*
X555625Y226219D02*
G54D50*
D03*
X493712Y245269D02*
G54D50*
D03*
X493712Y235744D02*
G54D50*
D03*
X493712Y226219D02*
G54D50*
D03*
X525462Y245269D02*
G54D50*
D03*
X525462Y235744D02*
G54D50*
D03*
X525462Y226219D02*
G54D50*
D03*
X542925Y245269D02*
G54D50*
D03*
X542925Y235744D02*
G54D50*
D03*
G54D28*
X374650Y235744D02*
X374650Y264319D01*
G54D28*
X355600Y235744D02*
X342900Y235744D01*
X355600Y235744D02*
G54D47*
D03*
X374600Y235744D02*
G54D47*
D03*
G54D29*
X449238Y263154D02*
X394123Y263154D01*
X393700Y262731D01*
G54D29*
X479401Y282154D02*
X420315Y282154D01*
X414338Y288131D01*
X414338Y296069D01*
X479401Y282154D02*
G54D48*
D03*
X479401Y263154D02*
G54D48*
D03*
G54D29*
X479401Y263154D02*
X479401Y248468D01*
X479425Y248444D01*
X479425Y280591D02*
G54D53*
D03*
X479425Y263922D02*
G54D53*
D03*
X21034Y275034D02*
G54D54*
D03*
X28972Y275034D02*
G54D54*
D03*
X28972Y203597D02*
G54D54*
D03*
X21034Y203597D02*
G54D54*
D03*
X63500Y275034D02*
G54D54*
D03*
X55562Y275034D02*
G54D54*
D03*
X63500Y203597D02*
G54D54*
D03*
X55562Y203597D02*
G54D54*
D03*
X59531Y275034D02*
G54D54*
D03*
X59531Y203597D02*
G54D54*
D03*
X25003Y203597D02*
G54D54*
D03*
X25003Y275034D02*
G54D54*
D03*
X54777Y239315D02*
G54D55*
D03*
X54777Y232815D02*
G54D55*
D03*
X54777Y226315D02*
G54D55*
D03*
X54777Y245815D02*
G54D55*
D03*
X54777Y252315D02*
G54D55*
D03*
X63302Y275034D02*
G54D54*
D03*
X63103Y275034D02*
G54D54*
D03*
X62905Y275034D02*
G54D54*
D03*
X62706Y275034D02*
G54D54*
D03*
X62508Y275034D02*
G54D54*
D03*
X62309Y275034D02*
G54D54*
D03*
X62111Y275034D02*
G54D54*
D03*
X61912Y275034D02*
G54D54*
D03*
X61714Y275034D02*
G54D54*
D03*
X61516Y275034D02*
G54D54*
D03*
X61317Y275034D02*
G54D54*
D03*
X61119Y275034D02*
G54D54*
D03*
X60920Y275034D02*
G54D54*
D03*
X60722Y275034D02*
G54D54*
D03*
X60523Y275034D02*
G54D54*
D03*
X60325Y275034D02*
G54D54*
D03*
X60127Y275034D02*
G54D54*
D03*
X59928Y275034D02*
G54D54*
D03*
X59730Y275034D02*
G54D54*
D03*
X59333Y275034D02*
G54D54*
D03*
X59134Y275034D02*
G54D54*
D03*
X58936Y275034D02*
G54D54*
D03*
X58738Y275034D02*
G54D54*
D03*
X58539Y275034D02*
G54D54*
D03*
X58341Y275034D02*
G54D54*
D03*
X58142Y275034D02*
G54D54*
D03*
X57944Y275034D02*
G54D54*
D03*
X57745Y275034D02*
G54D54*
D03*
X57547Y275034D02*
G54D54*
D03*
X57348Y275034D02*
G54D54*
D03*
X57150Y275034D02*
G54D54*
D03*
X55761Y275034D02*
G54D54*
D03*
X55959Y275034D02*
G54D54*
D03*
X56158Y275034D02*
G54D54*
D03*
X56356Y275034D02*
G54D54*
D03*
X56555Y275034D02*
G54D54*
D03*
X56753Y275034D02*
G54D54*
D03*
X63302Y203597D02*
G54D54*
D03*
X63103Y203597D02*
G54D54*
D03*
X62905Y203597D02*
G54D54*
D03*
X62706Y203597D02*
G54D54*
D03*
X62508Y203597D02*
G54D54*
D03*
X62309Y203597D02*
G54D54*
D03*
X62111Y203597D02*
G54D54*
D03*
X61912Y203597D02*
G54D54*
D03*
X61714Y203597D02*
G54D54*
D03*
X61516Y203597D02*
G54D54*
D03*
X61317Y203597D02*
G54D54*
D03*
X61119Y203597D02*
G54D54*
D03*
X60920Y203597D02*
G54D54*
D03*
X60722Y203597D02*
G54D54*
D03*
X60523Y203597D02*
G54D54*
D03*
X60325Y203597D02*
G54D54*
D03*
X60127Y203597D02*
G54D54*
D03*
X59928Y203597D02*
G54D54*
D03*
X55761Y203597D02*
G54D54*
D03*
X55959Y203597D02*
G54D54*
D03*
X56158Y203597D02*
G54D54*
D03*
X56356Y203597D02*
G54D54*
D03*
X56555Y203597D02*
G54D54*
D03*
X56753Y203597D02*
G54D54*
D03*
X56952Y203597D02*
G54D54*
D03*
X57150Y203597D02*
G54D54*
D03*
X57348Y203597D02*
G54D54*
D03*
X57547Y203597D02*
G54D54*
D03*
X57745Y203597D02*
G54D54*
D03*
X57944Y203597D02*
G54D54*
D03*
X58142Y203597D02*
G54D54*
D03*
X58341Y203597D02*
G54D54*
D03*
X58539Y203597D02*
G54D54*
D03*
X58539Y203597D02*
G54D54*
D03*
X58738Y203597D02*
G54D54*
D03*
X58936Y203597D02*
G54D54*
D03*
X59134Y203597D02*
G54D54*
D03*
X28972Y275034D02*
G54D54*
D03*
X21034Y275034D02*
G54D54*
D03*
X25003Y275034D02*
G54D54*
D03*
X28773Y275034D02*
G54D54*
D03*
X28575Y275034D02*
G54D54*
D03*
X28377Y275034D02*
G54D54*
D03*
X28178Y275034D02*
G54D54*
D03*
X27980Y275034D02*
G54D54*
D03*
X27781Y275034D02*
G54D54*
D03*
X27583Y275034D02*
G54D54*
D03*
X27384Y275034D02*
G54D54*
D03*
X27186Y275034D02*
G54D54*
D03*
X26988Y275034D02*
G54D54*
D03*
X26789Y275034D02*
G54D54*
D03*
X26591Y275034D02*
G54D54*
D03*
X26392Y275034D02*
G54D54*
D03*
X26194Y275034D02*
G54D54*
D03*
X25995Y275034D02*
G54D54*
D03*
X25797Y275034D02*
G54D54*
D03*
X25598Y275034D02*
G54D54*
D03*
X25400Y275034D02*
G54D54*
D03*
X25202Y275034D02*
G54D54*
D03*
X24805Y275034D02*
G54D54*
D03*
X24606Y275034D02*
G54D54*
D03*
X24408Y275034D02*
G54D54*
D03*
X24209Y275034D02*
G54D54*
D03*
X24011Y275034D02*
G54D54*
D03*
X23812Y275034D02*
G54D54*
D03*
X23614Y275034D02*
G54D54*
D03*
X23416Y275034D02*
G54D54*
D03*
X23217Y275034D02*
G54D54*
D03*
X23019Y275034D02*
G54D54*
D03*
X22820Y275034D02*
G54D54*
D03*
X22622Y275034D02*
G54D54*
D03*
X21233Y275034D02*
G54D54*
D03*
X21431Y275034D02*
G54D54*
D03*
X21630Y275034D02*
G54D54*
D03*
X21828Y275034D02*
G54D54*
D03*
X22027Y275034D02*
G54D54*
D03*
X22225Y275034D02*
G54D54*
D03*
X28972Y203597D02*
G54D54*
D03*
X21034Y203597D02*
G54D54*
D03*
X25003Y203597D02*
G54D54*
D03*
X28773Y203597D02*
G54D54*
D03*
X28575Y203597D02*
G54D54*
D03*
X28377Y203597D02*
G54D54*
D03*
X28178Y203597D02*
G54D54*
D03*
X27980Y203597D02*
G54D54*
D03*
X27781Y203597D02*
G54D54*
D03*
X27583Y203597D02*
G54D54*
D03*
X27384Y203597D02*
G54D54*
D03*
X27186Y203597D02*
G54D54*
D03*
X26988Y203597D02*
G54D54*
D03*
X26789Y203597D02*
G54D54*
D03*
X26591Y203597D02*
G54D54*
D03*
X26392Y203597D02*
G54D54*
D03*
X26194Y203597D02*
G54D54*
D03*
X25995Y203597D02*
G54D54*
D03*
X25797Y203597D02*
G54D54*
D03*
X25598Y203597D02*
G54D54*
D03*
X25400Y203597D02*
G54D54*
D03*
X21233Y203597D02*
G54D54*
D03*
X21431Y203597D02*
G54D54*
D03*
X21630Y203597D02*
G54D54*
D03*
X21828Y203597D02*
G54D54*
D03*
X22027Y203597D02*
G54D54*
D03*
X22225Y203597D02*
G54D54*
D03*
X22423Y203597D02*
G54D54*
D03*
X22622Y203597D02*
G54D54*
D03*
X22820Y203597D02*
G54D54*
D03*
X23019Y203597D02*
G54D54*
D03*
X23217Y203597D02*
G54D54*
D03*
X23416Y203597D02*
G54D54*
D03*
X23614Y203597D02*
G54D54*
D03*
X23812Y203597D02*
G54D54*
D03*
X24011Y203597D02*
G54D54*
D03*
X24011Y203597D02*
G54D54*
D03*
X24209Y203597D02*
G54D54*
D03*
X24408Y203597D02*
G54D54*
D03*
X24606Y203597D02*
G54D54*
D03*
G54D22*
X25400Y284956D02*
X25400Y265906D01*
G54D22*
X25400Y194469D02*
X25400Y213519D01*
G54D22*
X60325Y194469D02*
X60325Y213519D01*
G54D22*
X60325Y284956D02*
X60325Y264319D01*
X21828Y275034D02*
G54D54*
D03*
X22622Y275034D02*
G54D54*
D03*
X23416Y275034D02*
G54D54*
D03*
X24209Y275034D02*
G54D54*
D03*
X25003Y275034D02*
G54D54*
D03*
X25797Y275034D02*
G54D54*
D03*
X26591Y275034D02*
G54D54*
D03*
X27384Y275034D02*
G54D54*
D03*
X28178Y275034D02*
G54D54*
D03*
X56356Y275034D02*
G54D54*
D03*
X57150Y275034D02*
G54D54*
D03*
X57944Y275034D02*
G54D54*
D03*
X58738Y275034D02*
G54D54*
D03*
X59531Y275034D02*
G54D54*
D03*
X60325Y275034D02*
G54D54*
D03*
X61119Y275034D02*
G54D54*
D03*
X61912Y275034D02*
G54D54*
D03*
X62706Y275034D02*
G54D54*
D03*
X63500Y275034D02*
G54D54*
D03*
X28972Y275034D02*
G54D54*
D03*
X21034Y203597D02*
G54D54*
D03*
X21828Y203597D02*
G54D54*
D03*
X22622Y203597D02*
G54D54*
D03*
X23416Y203597D02*
G54D54*
D03*
X24209Y203597D02*
G54D54*
D03*
X25003Y203597D02*
G54D54*
D03*
X25797Y203597D02*
G54D54*
D03*
X26591Y203597D02*
G54D54*
D03*
X27384Y203597D02*
G54D54*
D03*
X28178Y203597D02*
G54D54*
D03*
X28972Y203597D02*
G54D54*
D03*
X55562Y203597D02*
G54D54*
D03*
X56356Y203597D02*
G54D54*
D03*
X57150Y203597D02*
G54D54*
D03*
X57944Y203597D02*
G54D54*
D03*
X58738Y203597D02*
G54D54*
D03*
X59531Y203597D02*
G54D54*
D03*
X60325Y203597D02*
G54D54*
D03*
X61119Y203597D02*
G54D54*
D03*
X61912Y203597D02*
G54D54*
D03*
X62706Y203597D02*
G54D54*
D03*
X63500Y203597D02*
G54D54*
D03*
X21034Y275034D02*
G54D54*
D03*
X28972Y275034D02*
G54D54*
D03*
X55562Y275034D02*
G54D54*
D03*
M02*
