; Drill file
; Format: 2.4 (00.0000)
M48
INCH
T01C0.0118
T02C0.0177
T03C0.0264
T04C0.0315
T05C0.1083
%
G05
G90
T01
X003340Y032540
X003340Y032800
X003340Y033050
X003340Y033300
X003340Y033560
X005500Y032780
X006250Y032780
X005130Y032030
X008660Y033610
X010700Y034870
T02
X000830Y031640
X000860Y031640
X000890Y031640
X000920Y031640
X000950Y031640
X000980Y031640
X001020Y031640
X001050Y031640
X001080Y031640
X001110Y031640
X001140Y031640
X002190Y031640
X002220Y031640
X002250Y031640
X002280Y031640
X002310Y031640
X002340Y031640
X002370Y031640
X002410Y031640
X002440Y031640
X002470Y031640
X002500Y031640
X002500Y034450
X002470Y034450
X002440Y034450
X002410Y034450
X002370Y034450
X002340Y034450
X002310Y034450
X002280Y034450
X002250Y034450
X002220Y034450
X002190Y034450
X001140Y034450
X001110Y034450
X001080Y034450
X001050Y034450
X001020Y034450
X000980Y034450
X000950Y034450
X000920Y034450
X000890Y034450
X000860Y034450
X000830Y034450
T03
X001820Y032260
X001820Y033840
T04
X009000Y028280
X009000Y029280
X009000Y030280
X009000Y031280
X008840Y037060
X009840Y037060
X009840Y038060
X008840Y038060
X007840Y038060
X006840Y038060
X006840Y037060
X007840Y037060
X005840Y037060
X005840Y038060
X004840Y038060
X003840Y038060
X003840Y037060
X004840Y037060
X010840Y037060
X011840Y037060
X012840Y037060
X012840Y038060
X011840Y038060
X010840Y038060
X013840Y038060
X014840Y038060
X015840Y038060
X016840Y038060
X017840Y038060
X017840Y037060
X018840Y037060
X019840Y037060
X019840Y038060
X018840Y038060
X020840Y038060
X021840Y038060
X022840Y038060
X022840Y037060
X021840Y037060
X020840Y037060
X016840Y037060
X015840Y037060
X014840Y037060
X013840Y037060
T05
X001920Y028530
X001920Y037560
X024730Y037560
X024730Y028530
M30
