%FSLAX34Y34*%
%MOMM*%
%LNCOPPER_TOP*%
G71*
G01*
%ADD10C, 0.00*%
%ADD11C, 6.00*%
%ADD12C, 2.40*%
%ADD13R, 1.22X2.12*%
%ADD14R, 1.45X1.86*%
%ADD15C, 0.30*%
%ADD16R, 2.30X4.00*%
%ADD17C, 1.30*%
%ADD18C, 0.90*%
%ADD19C, 1.10*%
%ADD20C, 0.95*%
%ADD21C, 1.30*%
%ADD22C, 0.50*%
%ADD23C, 0.70*%
%ADD24R, 1.22X2.58*%
%ADD25C, 0.55*%
%ADD26R, 2.10X2.20*%
%ADD27R, 2.20X2.10*%
%ADD28C, 0.15*%
%ADD29C, 0.10*%
%ADD30C, 0.60*%
%ADD31R, 0.70X0.70*%
%ADD32C, 0.51*%
%ADD33R, 2.00X2.00*%
%ADD34R, 1.80X1.80*%
%ADD35C, 1.85*%
%ADD36R, 2.20X1.20*%
%ADD37C, 1.46*%
%ADD38C, 1.47*%
%ADD39C, 0.53*%
%ADD40C, 3.00*%
%ADD41C, 1.60*%
%ADD42R, 0.42X1.32*%
%ADD43R, 0.65X1.06*%
%ADD44R, 1.50X3.20*%
%ADD45C, 0.50*%
%ADD46R, 0.42X1.78*%
%ADD47R, 1.30X1.40*%
%ADD48R, 1.40X1.30*%
%ADD49C, 0.20*%
%ADD50R, 0.30X0.30*%
%ADD51C, 0.11*%
%ADD52R, 1.60X1.60*%
%ADD53R, 1.40X1.40*%
%ADD54C, 1.05*%
%ADD55R, 1.40X0.40*%
%LPD*%
G54D10*
X0Y1000000D02*
X680000Y1000000D01*
X680000Y670000D01*
X0Y670000D01*
X0Y1000000D01*
G36*
X0Y1000000D02*
X680000Y1000000D01*
X680000Y670000D01*
X0Y670000D01*
X0Y1000000D01*
G37*
%LPC*%
X48816Y954088D02*
G54D11*
D03*
X628253Y724694D02*
G54D11*
D03*
X48816Y724694D02*
G54D11*
D03*
X628253Y954088D02*
G54D11*
D03*
X580231Y966788D02*
G54D12*
D03*
X580230Y941384D02*
G54D12*
D03*
X554831Y966788D02*
G54D12*
D03*
X554831Y941388D02*
G54D12*
D03*
X529431Y966788D02*
G54D12*
D03*
X529431Y941388D02*
G54D12*
D03*
X504030Y966784D02*
G54D12*
D03*
X504031Y941388D02*
G54D12*
D03*
X478631Y966788D02*
G54D12*
D03*
X478631Y941388D02*
G54D12*
D03*
X453230Y966784D02*
G54D12*
D03*
X453231Y941388D02*
G54D12*
D03*
X427831Y966788D02*
G54D12*
D03*
X427831Y941388D02*
G54D12*
D03*
X402431Y966788D02*
G54D12*
D03*
X402430Y941384D02*
G54D12*
D03*
X377031Y966788D02*
G54D12*
D03*
X377031Y941388D02*
G54D12*
D03*
X351631Y966788D02*
G54D12*
D03*
X351631Y941388D02*
G54D12*
D03*
X326230Y966784D02*
G54D12*
D03*
X326231Y941388D02*
G54D12*
D03*
X300831Y966788D02*
G54D12*
D03*
X300831Y941388D02*
G54D12*
D03*
X275431Y966788D02*
G54D12*
D03*
X275431Y941388D02*
G54D12*
D03*
X250030Y966784D02*
G54D12*
D03*
X250031Y941388D02*
G54D12*
D03*
X224631Y966788D02*
G54D12*
D03*
X224631Y941388D02*
G54D12*
D03*
X199231Y966788D02*
G54D12*
D03*
X199230Y941384D02*
G54D12*
D03*
X173831Y966788D02*
G54D12*
D03*
X173831Y941388D02*
G54D12*
D03*
X148430Y966784D02*
G54D12*
D03*
X123031Y966788D02*
G54D12*
D03*
X97631Y966788D02*
G54D12*
D03*
X148431Y941388D02*
G54D12*
D03*
X123031Y941388D02*
G54D12*
D03*
X97631Y941388D02*
G54D12*
D03*
X291272Y835606D02*
G54D13*
D03*
X284772Y835606D02*
G54D13*
D03*
X278272Y835606D02*
G54D13*
D03*
X271772Y835606D02*
G54D13*
D03*
X265272Y835606D02*
G54D13*
D03*
X258772Y835606D02*
G54D13*
D03*
X252272Y835606D02*
G54D13*
D03*
X245772Y835606D02*
G54D13*
D03*
X239272Y835606D02*
G54D13*
D03*
X232772Y835606D02*
G54D13*
D03*
X226272Y835606D02*
G54D13*
D03*
X219772Y835606D02*
G54D13*
D03*
X213272Y835606D02*
G54D13*
D03*
X206772Y835606D02*
G54D13*
D03*
X291272Y904478D02*
G54D13*
D03*
X284772Y904478D02*
G54D13*
D03*
X278272Y904478D02*
G54D13*
D03*
X271772Y904478D02*
G54D13*
D03*
X265272Y904478D02*
G54D13*
D03*
X258772Y904478D02*
G54D13*
D03*
X252272Y904478D02*
G54D13*
D03*
X245772Y904478D02*
G54D13*
D03*
X239272Y904478D02*
G54D13*
D03*
X232772Y904478D02*
G54D13*
D03*
X226272Y904478D02*
G54D13*
D03*
X219772Y904478D02*
G54D13*
D03*
X213272Y904478D02*
G54D13*
D03*
X206772Y904478D02*
G54D13*
D03*
X291272Y903684D02*
G54D13*
D03*
X284772Y903684D02*
G54D13*
D03*
X278272Y903684D02*
G54D13*
D03*
X271772Y903684D02*
G54D13*
D03*
X265272Y903684D02*
G54D13*
D03*
X258772Y903684D02*
G54D13*
D03*
X252272Y903684D02*
G54D13*
D03*
X245772Y903684D02*
G54D13*
D03*
X239272Y903684D02*
G54D13*
D03*
X232772Y903684D02*
G54D13*
D03*
X226272Y903684D02*
G54D13*
D03*
X219772Y903684D02*
G54D13*
D03*
X213272Y903684D02*
G54D13*
D03*
X206772Y903684D02*
G54D13*
D03*
X291272Y836400D02*
G54D13*
D03*
X284772Y836400D02*
G54D13*
D03*
X278272Y836400D02*
G54D13*
D03*
X271772Y836400D02*
G54D13*
D03*
X265272Y836400D02*
G54D13*
D03*
X258772Y836400D02*
G54D13*
D03*
X252272Y836400D02*
G54D13*
D03*
X245772Y836400D02*
G54D13*
D03*
X239272Y836400D02*
G54D13*
D03*
X232772Y836400D02*
G54D13*
D03*
X226272Y836400D02*
G54D13*
D03*
X219772Y836400D02*
G54D13*
D03*
X213272Y836400D02*
G54D13*
D03*
X206772Y836400D02*
G54D13*
D03*
X291272Y836797D02*
G54D13*
D03*
X284772Y836797D02*
G54D13*
D03*
X278272Y836797D02*
G54D13*
D03*
X271772Y836797D02*
G54D13*
D03*
X265272Y836797D02*
G54D13*
D03*
X258772Y836797D02*
G54D13*
D03*
X252272Y836797D02*
G54D13*
D03*
X245772Y836797D02*
G54D13*
D03*
X239272Y836797D02*
G54D13*
D03*
X232772Y836797D02*
G54D13*
D03*
X226272Y836797D02*
G54D13*
D03*
X219772Y836797D02*
G54D13*
D03*
X213272Y836797D02*
G54D13*
D03*
X206772Y836797D02*
G54D13*
D03*
X291272Y903287D02*
G54D13*
D03*
X284772Y903288D02*
G54D13*
D03*
X278272Y903288D02*
G54D13*
D03*
X271772Y903288D02*
G54D13*
D03*
X265272Y903288D02*
G54D13*
D03*
X258772Y903288D02*
G54D13*
D03*
X252272Y903288D02*
G54D13*
D03*
X245772Y903287D02*
G54D13*
D03*
X239272Y903288D02*
G54D13*
D03*
X232772Y903288D02*
G54D13*
D03*
X226272Y903288D02*
G54D13*
D03*
X219772Y903288D02*
G54D13*
D03*
X213272Y903288D02*
G54D13*
D03*
X206772Y903288D02*
G54D13*
D03*
X164306Y886420D02*
G54D14*
D03*
X183356Y886420D02*
G54D14*
D03*
X164306Y864394D02*
G54D14*
D03*
X173831Y864394D02*
G54D14*
D03*
X183356Y864394D02*
G54D14*
D03*
G54D15*
X252214Y896739D02*
X252214Y892770D01*
G54D15*
X226219Y843359D02*
X226219Y847328D01*
G54D15*
X271859Y843359D02*
X271859Y847328D01*
G54D15*
X278408Y843359D02*
X278408Y847328D01*
G54D15*
X245864Y843359D02*
X245864Y847328D01*
G54D15*
X60523Y826492D02*
X55562Y826492D01*
X141288Y875506D02*
G54D16*
D03*
X99219Y875506D02*
G54D16*
D03*
X84733Y845939D02*
G54D17*
D03*
X84733Y839391D02*
G54D17*
D03*
X271859Y885627D02*
G54D18*
D03*
X219869Y853678D02*
G54D18*
D03*
X84733Y852488D02*
G54D17*
D03*
X84733Y833041D02*
G54D17*
D03*
X84733Y826492D02*
G54D17*
D03*
G54D19*
X84733Y852488D02*
X61912Y852488D01*
G54D19*
X84733Y845939D02*
X61714Y845939D01*
G54D19*
X84733Y839391D02*
X61714Y839391D01*
G54D19*
X84733Y833041D02*
X61714Y833041D01*
G54D19*
X84733Y826492D02*
X61714Y826492D01*
G54D20*
X271859Y885627D02*
X271859Y896541D01*
G54D20*
X219869Y853678D02*
X219869Y842962D01*
G54D21*
X99219Y888206D02*
X64691Y853678D01*
G54D21*
X164306Y864394D02*
X149225Y864394D01*
G54D22*
X173831Y869752D02*
X173831Y873919D01*
G54D23*
X164306Y859234D02*
X164306Y855266D01*
X183356Y855266D01*
X183356Y859234D01*
G54D19*
X123031Y966788D02*
X97631Y966788D01*
G54D21*
X97631Y966788D02*
X96044Y966788D01*
X81756Y952500D01*
X81756Y915988D01*
X92075Y905669D01*
X154781Y905669D01*
X165100Y895350D01*
X165100Y887214D01*
X164306Y886420D01*
X407988Y902494D02*
G54D24*
D03*
X414487Y902494D02*
G54D24*
D03*
X407591Y843147D02*
G54D24*
D03*
X414091Y843147D02*
G54D24*
D03*
X420591Y843147D02*
G54D24*
D03*
X427091Y843147D02*
G54D24*
D03*
X420988Y902494D02*
G54D24*
D03*
X427488Y902494D02*
G54D24*
D03*
G54D25*
X165100Y896144D02*
X192088Y896144D01*
X196056Y892175D01*
X196056Y885031D01*
X200025Y881062D01*
X231378Y881062D01*
X239316Y873125D01*
X239316Y842169D01*
G54D25*
X84733Y845939D02*
X189508Y845939D01*
X196056Y852488D01*
X210741Y852488D01*
X213122Y850106D01*
X213122Y841772D01*
G54D25*
X84733Y839391D02*
X207169Y839391D01*
G54D25*
X173831Y966788D02*
X175022Y966788D01*
X186531Y955278D01*
X186531Y924719D01*
X192088Y919162D01*
X263128Y919162D01*
X265509Y916781D01*
X265509Y908447D01*
G54D25*
X199231Y966788D02*
X202009Y966788D01*
X211931Y956866D01*
X211931Y927497D01*
X214312Y925116D01*
X286544Y925116D01*
X291306Y920353D01*
X291306Y909241D01*
X193675Y743744D02*
G54D26*
D03*
X174675Y743744D02*
G54D26*
D03*
X193675Y711994D02*
G54D26*
D03*
X174675Y711994D02*
G54D26*
D03*
X146050Y711994D02*
G54D26*
D03*
X127050Y711994D02*
G54D26*
D03*
X146050Y743744D02*
G54D26*
D03*
X127050Y743744D02*
G54D26*
D03*
G54D25*
X258762Y831453D02*
X258762Y818753D01*
X252412Y812403D01*
X215106Y812403D01*
X209550Y806847D01*
X209550Y715566D01*
X205978Y711994D01*
X193675Y711994D01*
G54D25*
X252412Y830262D02*
X252412Y819944D01*
X250031Y817562D01*
X213519Y817562D01*
X204788Y808831D01*
X204788Y755253D01*
X198834Y749300D01*
G54D25*
X146050Y743744D02*
X174675Y743744D01*
G54D25*
X146050Y711994D02*
X174675Y711994D01*
G54D25*
X127050Y711994D02*
X127050Y743744D01*
G54D25*
X219869Y829866D02*
X219869Y824706D01*
X217091Y821928D01*
X210741Y821928D01*
X199628Y810816D01*
G54D25*
X127050Y743744D02*
X127050Y755303D01*
X132953Y761206D01*
X193278Y761206D01*
X199628Y767556D01*
X199628Y810816D01*
X139700Y832644D02*
G54D18*
D03*
X158750Y832644D02*
G54D18*
D03*
G54D25*
X139700Y832644D02*
X158750Y832644D01*
X317475Y885006D02*
G54D27*
D03*
X317475Y866006D02*
G54D27*
D03*
X346050Y885006D02*
G54D27*
D03*
X346050Y866006D02*
G54D27*
D03*
G54D25*
X346050Y861244D02*
X239738Y861244D01*
X239712Y861219D01*
G54D28*
X317475Y885006D02*
X374625Y885006D01*
X374625Y885006D02*
G54D27*
D03*
X374625Y866006D02*
G54D27*
D03*
X449238Y882229D02*
G54D27*
D03*
X449238Y863229D02*
G54D27*
D03*
G54D25*
X427831Y941388D02*
X427831Y902838D01*
X427488Y902494D01*
G54D25*
X427831Y966788D02*
X425847Y966788D01*
X415131Y956072D01*
X415131Y925909D01*
X421084Y919956D01*
X421084Y909638D01*
G54D25*
X228600Y743744D02*
X361950Y743744D01*
X393700Y775494D01*
X393675Y902072D01*
G54D25*
X374625Y861244D02*
X393675Y861244D01*
X393700Y861219D01*
X228600Y794544D02*
G54D12*
D03*
X228600Y769144D02*
G54D12*
D03*
X228600Y743744D02*
G54D12*
D03*
X228600Y718344D02*
G54D12*
D03*
G54D28*
X228600Y718344D02*
X228600Y703659D01*
G54D22*
X300831Y941388D02*
X300831Y925512D01*
X323850Y902494D01*
X407988Y902494D01*
G54D29*
X407591Y835422D02*
X407591Y829469D01*
G54D29*
X413941Y835422D02*
X413941Y829469D01*
G54D29*
X420688Y835422D02*
X420688Y829469D01*
G54D29*
X427038Y835819D02*
X427038Y829469D01*
X184175Y794569D02*
G54D27*
D03*
X184175Y813569D02*
G54D27*
D03*
G54D25*
X184175Y813569D02*
X201588Y813569D01*
X201612Y813594D01*
G54D28*
X184175Y794569D02*
X184175Y781869D01*
X184150Y781844D01*
X130200Y794569D02*
G54D27*
D03*
X130200Y813569D02*
G54D27*
D03*
X104800Y794569D02*
G54D27*
D03*
X104800Y813569D02*
G54D27*
D03*
X130200Y813569D02*
G54D18*
D03*
G54D25*
X104800Y813569D02*
X104800Y838969D01*
X104775Y838994D01*
G54D28*
X130200Y794569D02*
X130200Y781869D01*
X130175Y781844D01*
G54D28*
X104800Y794569D02*
X104800Y781869D01*
X104775Y781844D01*
G54D30*
X588641Y829294D02*
X587441Y827294D01*
X585041Y826294D01*
X582641Y826294D01*
X580241Y827294D01*
X579041Y829294D01*
X579041Y839294D01*
X580241Y841294D01*
X582641Y842294D01*
X585041Y842294D01*
X587441Y841294D01*
X588641Y839294D01*
G54D30*
X600241Y828694D02*
X600241Y832694D01*
X599041Y834694D01*
X596641Y835294D01*
X594241Y834694D01*
X593041Y832694D01*
X593041Y828694D01*
X594241Y826694D01*
X596641Y826294D01*
X599041Y826694D01*
X600241Y828694D01*
G54D30*
X604641Y826294D02*
X604641Y835294D01*
G54D30*
X604641Y833294D02*
X605841Y834694D01*
X608241Y835294D01*
X610641Y834694D01*
X611841Y833294D01*
X611841Y826294D01*
G54D30*
X616241Y827294D02*
X618641Y826294D01*
X621041Y826294D01*
X623441Y827294D01*
X623441Y829294D01*
X622241Y830294D01*
X617441Y831294D01*
X616241Y832294D01*
X616241Y834294D01*
X618641Y835294D01*
X621041Y835294D01*
X623441Y834294D01*
G54D30*
X635041Y828694D02*
X635041Y832694D01*
X633841Y834694D01*
X631441Y835294D01*
X629041Y834694D01*
X627841Y832694D01*
X627841Y828694D01*
X629041Y826694D01*
X631441Y826294D01*
X633841Y826694D01*
X635041Y828694D01*
G54D30*
X639441Y826294D02*
X639441Y842294D01*
G54D30*
X651041Y827294D02*
X649121Y826294D01*
X646721Y826294D01*
X644321Y827294D01*
X643841Y829294D01*
X643841Y832694D01*
X645041Y834694D01*
X647441Y835294D01*
X649841Y834694D01*
X651041Y833294D01*
X651041Y831294D01*
X643841Y831294D01*
X488950Y845344D02*
G54D31*
D03*
X498475Y845344D02*
G54D31*
D03*
X503238Y845344D02*
G54D31*
D03*
X503238Y840581D02*
G54D31*
D03*
X498475Y835819D02*
G54D31*
D03*
X488950Y831056D02*
G54D31*
D03*
X488950Y826294D02*
G54D31*
D03*
X498475Y826294D02*
G54D31*
D03*
X503238Y826294D02*
G54D31*
D03*
X511175Y826294D02*
G54D31*
D03*
X511175Y831056D02*
G54D31*
D03*
X511175Y835819D02*
G54D31*
D03*
X511175Y840581D02*
G54D31*
D03*
X511175Y845344D02*
G54D31*
D03*
X515938Y845344D02*
G54D31*
D03*
X520700Y845344D02*
G54D31*
D03*
X515938Y835819D02*
G54D31*
D03*
X520700Y835819D02*
G54D31*
D03*
X515938Y826294D02*
G54D31*
D03*
X520700Y826294D02*
G54D31*
D03*
X533400Y845344D02*
G54D31*
D03*
X533400Y840581D02*
G54D31*
D03*
X533400Y835819D02*
G54D31*
D03*
X533400Y831056D02*
G54D31*
D03*
X533400Y826294D02*
G54D31*
D03*
X538162Y845344D02*
G54D31*
D03*
X538162Y835819D02*
G54D31*
D03*
X547688Y840581D02*
G54D31*
D03*
X547688Y831056D02*
G54D31*
D03*
X547688Y826294D02*
G54D31*
D03*
X555625Y840581D02*
G54D31*
D03*
X555625Y835819D02*
G54D31*
D03*
X555625Y831056D02*
G54D31*
D03*
X560388Y826294D02*
G54D31*
D03*
X565150Y826294D02*
G54D31*
D03*
X569912Y831056D02*
G54D31*
D03*
X569912Y835819D02*
G54D31*
D03*
X569912Y840581D02*
G54D31*
D03*
X560388Y845344D02*
G54D31*
D03*
X565150Y845344D02*
G54D31*
D03*
G54D32*
X627062Y808038D02*
X627062Y813038D01*
G54D32*
X627062Y811926D02*
X628396Y813038D01*
X629729Y813038D01*
G54D32*
X636174Y808593D02*
X635107Y808038D01*
X633774Y808038D01*
X632440Y808593D01*
X632174Y809704D01*
X632174Y811593D01*
X632840Y812704D01*
X634174Y813038D01*
X635507Y812704D01*
X636174Y811926D01*
X636174Y810815D01*
X632174Y810815D01*
G54D32*
X638618Y813038D02*
X641284Y808038D01*
X643951Y813038D01*
G54D32*
X651728Y808038D02*
X646394Y808038D01*
X646394Y808593D01*
X647061Y809704D01*
X651061Y813038D01*
X651728Y814149D01*
X651728Y815260D01*
X651061Y816371D01*
X649728Y816926D01*
X648394Y816926D01*
X647061Y816371D01*
X646394Y815260D01*
X149225Y909638D02*
G54D33*
D03*
X177225Y909638D02*
G54D33*
D03*
G54D29*
X177225Y909638D02*
X190500Y909638D01*
X555625Y845344D02*
G54D31*
D03*
X569912Y845344D02*
G54D31*
D03*
X569912Y826294D02*
G54D31*
D03*
X555625Y826294D02*
G54D31*
D03*
X493712Y845344D02*
G54D31*
D03*
X493712Y835819D02*
G54D31*
D03*
X493712Y826294D02*
G54D31*
D03*
X525462Y845344D02*
G54D31*
D03*
X525462Y835819D02*
G54D31*
D03*
X525462Y826294D02*
G54D31*
D03*
X542925Y845344D02*
G54D31*
D03*
X542925Y835819D02*
G54D31*
D03*
G54D25*
X374650Y835819D02*
X374650Y864394D01*
G54D28*
X355600Y835819D02*
X342900Y835819D01*
X355600Y835819D02*
G54D26*
D03*
X374600Y835819D02*
G54D26*
D03*
G54D22*
X449238Y863229D02*
X394123Y863229D01*
X393700Y862806D01*
G54D22*
X479401Y882229D02*
X420315Y882229D01*
X414338Y888206D01*
X414338Y896144D01*
X479401Y882229D02*
G54D27*
D03*
X479401Y863229D02*
G54D27*
D03*
G54D29*
X479401Y863229D02*
X479401Y848543D01*
X479425Y848519D01*
X479425Y880666D02*
G54D34*
D03*
X479425Y863997D02*
G54D34*
D03*
X21034Y875109D02*
G54D35*
D03*
X28972Y875109D02*
G54D35*
D03*
X28972Y803672D02*
G54D35*
D03*
X21034Y803672D02*
G54D35*
D03*
X63500Y875109D02*
G54D35*
D03*
X55562Y875109D02*
G54D35*
D03*
X63500Y803672D02*
G54D35*
D03*
X55562Y803672D02*
G54D35*
D03*
X59531Y875109D02*
G54D35*
D03*
X59531Y803672D02*
G54D35*
D03*
X25003Y803672D02*
G54D35*
D03*
X25003Y875109D02*
G54D35*
D03*
X54777Y839390D02*
G54D36*
D03*
X54777Y832890D02*
G54D36*
D03*
X54777Y826390D02*
G54D36*
D03*
X54777Y845890D02*
G54D36*
D03*
X54777Y852390D02*
G54D36*
D03*
X46236Y859433D02*
G54D37*
D03*
X46236Y819348D02*
G54D37*
D03*
X63302Y875109D02*
G54D35*
D03*
X63103Y875109D02*
G54D35*
D03*
X62905Y875109D02*
G54D35*
D03*
X62706Y875109D02*
G54D35*
D03*
X62508Y875109D02*
G54D35*
D03*
X62309Y875109D02*
G54D35*
D03*
X62111Y875109D02*
G54D35*
D03*
X61912Y875109D02*
G54D35*
D03*
X61714Y875109D02*
G54D35*
D03*
X61516Y875109D02*
G54D35*
D03*
X61317Y875109D02*
G54D35*
D03*
X61119Y875109D02*
G54D35*
D03*
X60920Y875109D02*
G54D35*
D03*
X60722Y875109D02*
G54D35*
D03*
X60523Y875109D02*
G54D35*
D03*
X60325Y875109D02*
G54D35*
D03*
X60127Y875109D02*
G54D35*
D03*
X59928Y875109D02*
G54D35*
D03*
X59730Y875109D02*
G54D35*
D03*
X59333Y875109D02*
G54D35*
D03*
X59134Y875109D02*
G54D35*
D03*
X58936Y875109D02*
G54D35*
D03*
X58738Y875109D02*
G54D35*
D03*
X58539Y875109D02*
G54D35*
D03*
X58341Y875109D02*
G54D35*
D03*
X58142Y875109D02*
G54D35*
D03*
X57944Y875109D02*
G54D35*
D03*
X57745Y875109D02*
G54D35*
D03*
X57547Y875109D02*
G54D35*
D03*
X57348Y875109D02*
G54D35*
D03*
X57150Y875109D02*
G54D35*
D03*
X55761Y875109D02*
G54D35*
D03*
X55959Y875109D02*
G54D35*
D03*
X56158Y875109D02*
G54D35*
D03*
X56356Y875109D02*
G54D35*
D03*
X56555Y875109D02*
G54D35*
D03*
X56753Y875109D02*
G54D35*
D03*
X63302Y803672D02*
G54D35*
D03*
X63103Y803672D02*
G54D35*
D03*
X62905Y803672D02*
G54D35*
D03*
X62706Y803672D02*
G54D35*
D03*
X62508Y803672D02*
G54D35*
D03*
X62309Y803672D02*
G54D35*
D03*
X62111Y803672D02*
G54D35*
D03*
X61912Y803672D02*
G54D35*
D03*
X61714Y803672D02*
G54D35*
D03*
X61516Y803672D02*
G54D35*
D03*
X61317Y803672D02*
G54D35*
D03*
X61119Y803672D02*
G54D35*
D03*
X60920Y803672D02*
G54D35*
D03*
X60722Y803672D02*
G54D35*
D03*
X60523Y803672D02*
G54D35*
D03*
X60325Y803672D02*
G54D35*
D03*
X60127Y803672D02*
G54D35*
D03*
X59928Y803672D02*
G54D35*
D03*
X55761Y803672D02*
G54D35*
D03*
X55959Y803672D02*
G54D35*
D03*
X56158Y803672D02*
G54D35*
D03*
X56356Y803672D02*
G54D35*
D03*
X56555Y803672D02*
G54D35*
D03*
X56753Y803672D02*
G54D35*
D03*
X56952Y803672D02*
G54D35*
D03*
X57150Y803672D02*
G54D35*
D03*
X57348Y803672D02*
G54D35*
D03*
X57547Y803672D02*
G54D35*
D03*
X57745Y803672D02*
G54D35*
D03*
X57944Y803672D02*
G54D35*
D03*
X58142Y803672D02*
G54D35*
D03*
X58341Y803672D02*
G54D35*
D03*
X58539Y803672D02*
G54D35*
D03*
X58539Y803672D02*
G54D35*
D03*
X58738Y803672D02*
G54D35*
D03*
X58936Y803672D02*
G54D35*
D03*
X59134Y803672D02*
G54D35*
D03*
X28972Y875109D02*
G54D35*
D03*
X21034Y875109D02*
G54D35*
D03*
X25003Y875109D02*
G54D35*
D03*
X28773Y875109D02*
G54D35*
D03*
X28575Y875109D02*
G54D35*
D03*
X28377Y875109D02*
G54D35*
D03*
X28178Y875109D02*
G54D35*
D03*
X27980Y875109D02*
G54D35*
D03*
X27781Y875109D02*
G54D35*
D03*
X27583Y875109D02*
G54D35*
D03*
X27384Y875109D02*
G54D35*
D03*
X27186Y875109D02*
G54D35*
D03*
X26988Y875109D02*
G54D35*
D03*
X26789Y875109D02*
G54D35*
D03*
X26591Y875109D02*
G54D35*
D03*
X26392Y875109D02*
G54D35*
D03*
X26194Y875109D02*
G54D35*
D03*
X25995Y875109D02*
G54D35*
D03*
X25797Y875109D02*
G54D35*
D03*
X25598Y875109D02*
G54D35*
D03*
X25400Y875109D02*
G54D35*
D03*
X25202Y875109D02*
G54D35*
D03*
X24805Y875109D02*
G54D35*
D03*
X24606Y875109D02*
G54D35*
D03*
X24408Y875109D02*
G54D35*
D03*
X24209Y875109D02*
G54D35*
D03*
X24011Y875109D02*
G54D35*
D03*
X23812Y875109D02*
G54D35*
D03*
X23614Y875109D02*
G54D35*
D03*
X23416Y875109D02*
G54D35*
D03*
X23217Y875109D02*
G54D35*
D03*
X23019Y875109D02*
G54D35*
D03*
X22820Y875109D02*
G54D35*
D03*
X22622Y875109D02*
G54D35*
D03*
X21233Y875109D02*
G54D35*
D03*
X21431Y875109D02*
G54D35*
D03*
X21630Y875109D02*
G54D35*
D03*
X21828Y875109D02*
G54D35*
D03*
X22027Y875109D02*
G54D35*
D03*
X22225Y875109D02*
G54D35*
D03*
X28972Y803672D02*
G54D35*
D03*
X21034Y803672D02*
G54D35*
D03*
X25003Y803672D02*
G54D35*
D03*
X28773Y803672D02*
G54D35*
D03*
X28575Y803672D02*
G54D35*
D03*
X28377Y803672D02*
G54D35*
D03*
X28178Y803672D02*
G54D35*
D03*
X27980Y803672D02*
G54D35*
D03*
X27781Y803672D02*
G54D35*
D03*
X27583Y803672D02*
G54D35*
D03*
X27384Y803672D02*
G54D35*
D03*
X27186Y803672D02*
G54D35*
D03*
X26988Y803672D02*
G54D35*
D03*
X26789Y803672D02*
G54D35*
D03*
X26591Y803672D02*
G54D35*
D03*
X26392Y803672D02*
G54D35*
D03*
X26194Y803672D02*
G54D35*
D03*
X25995Y803672D02*
G54D35*
D03*
X25797Y803672D02*
G54D35*
D03*
X25598Y803672D02*
G54D35*
D03*
X25400Y803672D02*
G54D35*
D03*
X21233Y803672D02*
G54D35*
D03*
X21431Y803672D02*
G54D35*
D03*
X21630Y803672D02*
G54D35*
D03*
X21828Y803672D02*
G54D35*
D03*
X22027Y803672D02*
G54D35*
D03*
X22225Y803672D02*
G54D35*
D03*
X22423Y803672D02*
G54D35*
D03*
X22622Y803672D02*
G54D35*
D03*
X22820Y803672D02*
G54D35*
D03*
X23019Y803672D02*
G54D35*
D03*
X23217Y803672D02*
G54D35*
D03*
X23416Y803672D02*
G54D35*
D03*
X23614Y803672D02*
G54D35*
D03*
X23812Y803672D02*
G54D35*
D03*
X24011Y803672D02*
G54D35*
D03*
X24011Y803672D02*
G54D35*
D03*
X24209Y803672D02*
G54D35*
D03*
X24408Y803672D02*
G54D35*
D03*
X24606Y803672D02*
G54D35*
D03*
G54D22*
X25400Y885031D02*
X25400Y865981D01*
G54D22*
X25400Y794544D02*
X25400Y813594D01*
G54D22*
X60325Y794544D02*
X60325Y813594D01*
G54D22*
X60325Y885031D02*
X60325Y864394D01*
X21828Y875109D02*
G54D35*
D03*
X22622Y875109D02*
G54D35*
D03*
X23416Y875109D02*
G54D35*
D03*
X24209Y875109D02*
G54D35*
D03*
X25003Y875109D02*
G54D35*
D03*
X25797Y875109D02*
G54D35*
D03*
X26591Y875109D02*
G54D35*
D03*
X27384Y875109D02*
G54D35*
D03*
X28178Y875109D02*
G54D35*
D03*
X56356Y875109D02*
G54D35*
D03*
X57150Y875109D02*
G54D35*
D03*
X57944Y875109D02*
G54D35*
D03*
X58738Y875109D02*
G54D35*
D03*
X59531Y875109D02*
G54D35*
D03*
X60325Y875109D02*
G54D35*
D03*
X61119Y875109D02*
G54D35*
D03*
X61912Y875109D02*
G54D35*
D03*
X62706Y875109D02*
G54D35*
D03*
X63500Y875109D02*
G54D35*
D03*
X28972Y875109D02*
G54D35*
D03*
X21034Y803672D02*
G54D35*
D03*
X21828Y803672D02*
G54D35*
D03*
X22622Y803672D02*
G54D35*
D03*
X23416Y803672D02*
G54D35*
D03*
X24209Y803672D02*
G54D35*
D03*
X25003Y803672D02*
G54D35*
D03*
X25797Y803672D02*
G54D35*
D03*
X26591Y803672D02*
G54D35*
D03*
X27384Y803672D02*
G54D35*
D03*
X28178Y803672D02*
G54D35*
D03*
X28972Y803672D02*
G54D35*
D03*
X55562Y803672D02*
G54D35*
D03*
X56356Y803672D02*
G54D35*
D03*
X57150Y803672D02*
G54D35*
D03*
X57944Y803672D02*
G54D35*
D03*
X58738Y803672D02*
G54D35*
D03*
X59531Y803672D02*
G54D35*
D03*
X60325Y803672D02*
G54D35*
D03*
X61119Y803672D02*
G54D35*
D03*
X61912Y803672D02*
G54D35*
D03*
X62706Y803672D02*
G54D35*
D03*
X63500Y803672D02*
G54D35*
D03*
X21034Y875109D02*
G54D35*
D03*
X28972Y875109D02*
G54D35*
D03*
X55562Y875109D02*
G54D35*
D03*
X46236Y859433D02*
G54D38*
D03*
X46236Y819348D02*
G54D38*
D03*
%LPD*%
G54D39*
G36*
X582897Y941384D02*
X582897Y928884D01*
X577563Y928884D01*
X577563Y941384D01*
X582897Y941384D01*
G37*
G54D39*
G36*
X501363Y966784D02*
X501363Y979284D01*
X506697Y979284D01*
X506697Y966784D01*
X501363Y966784D01*
G37*
G54D39*
G36*
X450563Y966784D02*
X450563Y979284D01*
X455897Y979284D01*
X455897Y966784D01*
X450563Y966784D01*
G37*
G54D39*
G36*
X405097Y941384D02*
X405097Y928884D01*
X399763Y928884D01*
X399763Y941384D01*
X405097Y941384D01*
G37*
G54D39*
G36*
X323563Y966784D02*
X323563Y979284D01*
X328897Y979284D01*
X328897Y966784D01*
X323563Y966784D01*
G37*
G54D39*
G36*
X247363Y966784D02*
X247363Y979284D01*
X252697Y979284D01*
X252697Y966784D01*
X247363Y966784D01*
G37*
G54D39*
G36*
X201897Y941384D02*
X201897Y928884D01*
X196563Y928884D01*
X196563Y941384D01*
X201897Y941384D01*
G37*
G54D39*
G36*
X145763Y966784D02*
X145763Y979284D01*
X151097Y979284D01*
X151097Y966784D01*
X145763Y966784D01*
G37*
X48816Y954088D02*
G54D40*
D03*
X628253Y724694D02*
G54D40*
D03*
X48816Y724694D02*
G54D40*
D03*
X628253Y954088D02*
G54D40*
D03*
X580231Y966788D02*
G54D41*
D03*
X580230Y941384D02*
G54D41*
D03*
X554831Y966788D02*
G54D41*
D03*
X554831Y941388D02*
G54D41*
D03*
X529431Y966788D02*
G54D41*
D03*
X529431Y941388D02*
G54D41*
D03*
X504030Y966784D02*
G54D41*
D03*
X504031Y941388D02*
G54D41*
D03*
X478631Y966788D02*
G54D41*
D03*
X478631Y941388D02*
G54D41*
D03*
X453230Y966784D02*
G54D41*
D03*
X453231Y941388D02*
G54D41*
D03*
X427831Y966788D02*
G54D41*
D03*
X427831Y941388D02*
G54D41*
D03*
X402431Y966788D02*
G54D41*
D03*
X402430Y941384D02*
G54D41*
D03*
X377031Y966788D02*
G54D41*
D03*
X377031Y941388D02*
G54D41*
D03*
X351631Y966788D02*
G54D41*
D03*
X351631Y941388D02*
G54D41*
D03*
X326230Y966784D02*
G54D41*
D03*
X326231Y941388D02*
G54D41*
D03*
X300831Y966788D02*
G54D41*
D03*
X300831Y941388D02*
G54D41*
D03*
X275431Y966788D02*
G54D41*
D03*
X275431Y941388D02*
G54D41*
D03*
X250030Y966784D02*
G54D41*
D03*
X250031Y941388D02*
G54D41*
D03*
X224631Y966788D02*
G54D41*
D03*
X224631Y941388D02*
G54D41*
D03*
X199231Y966788D02*
G54D41*
D03*
X199230Y941384D02*
G54D41*
D03*
X173831Y966788D02*
G54D41*
D03*
X173831Y941388D02*
G54D41*
D03*
X148430Y966784D02*
G54D41*
D03*
X123031Y966788D02*
G54D41*
D03*
X97631Y966788D02*
G54D41*
D03*
X148431Y941388D02*
G54D41*
D03*
X123031Y941388D02*
G54D41*
D03*
X97631Y941388D02*
G54D41*
D03*
X291272Y835606D02*
G54D42*
D03*
X284772Y835606D02*
G54D42*
D03*
X278272Y835606D02*
G54D42*
D03*
X271772Y835606D02*
G54D42*
D03*
X265272Y835606D02*
G54D42*
D03*
X258772Y835606D02*
G54D42*
D03*
X252272Y835606D02*
G54D42*
D03*
X245772Y835606D02*
G54D42*
D03*
X239272Y835606D02*
G54D42*
D03*
X232772Y835606D02*
G54D42*
D03*
X226272Y835606D02*
G54D42*
D03*
X219772Y835606D02*
G54D42*
D03*
X213272Y835606D02*
G54D42*
D03*
X206772Y835606D02*
G54D42*
D03*
X291272Y904478D02*
G54D42*
D03*
X284772Y904478D02*
G54D42*
D03*
X278272Y904478D02*
G54D42*
D03*
X271772Y904478D02*
G54D42*
D03*
X265272Y904478D02*
G54D42*
D03*
X258772Y904478D02*
G54D42*
D03*
X252272Y904478D02*
G54D42*
D03*
X245772Y904478D02*
G54D42*
D03*
X239272Y904478D02*
G54D42*
D03*
X232772Y904478D02*
G54D42*
D03*
X226272Y904478D02*
G54D42*
D03*
X219772Y904478D02*
G54D42*
D03*
X213272Y904478D02*
G54D42*
D03*
X206772Y904478D02*
G54D42*
D03*
X291272Y903684D02*
G54D42*
D03*
X284772Y903684D02*
G54D42*
D03*
X278272Y903684D02*
G54D42*
D03*
X271772Y903684D02*
G54D42*
D03*
X265272Y903684D02*
G54D42*
D03*
X258772Y903684D02*
G54D42*
D03*
X252272Y903684D02*
G54D42*
D03*
X245772Y903684D02*
G54D42*
D03*
X239272Y903684D02*
G54D42*
D03*
X232772Y903684D02*
G54D42*
D03*
X226272Y903684D02*
G54D42*
D03*
X219772Y903684D02*
G54D42*
D03*
X213272Y903684D02*
G54D42*
D03*
X206772Y903684D02*
G54D42*
D03*
X291272Y836400D02*
G54D42*
D03*
X284772Y836400D02*
G54D42*
D03*
X278272Y836400D02*
G54D42*
D03*
X271772Y836400D02*
G54D42*
D03*
X265272Y836400D02*
G54D42*
D03*
X258772Y836400D02*
G54D42*
D03*
X252272Y836400D02*
G54D42*
D03*
X245772Y836400D02*
G54D42*
D03*
X239272Y836400D02*
G54D42*
D03*
X232772Y836400D02*
G54D42*
D03*
X226272Y836400D02*
G54D42*
D03*
X219772Y836400D02*
G54D42*
D03*
X213272Y836400D02*
G54D42*
D03*
X206772Y836400D02*
G54D42*
D03*
X291272Y836797D02*
G54D42*
D03*
X284772Y836797D02*
G54D42*
D03*
X278272Y836797D02*
G54D42*
D03*
X271772Y836797D02*
G54D42*
D03*
X265272Y836797D02*
G54D42*
D03*
X258772Y836797D02*
G54D42*
D03*
X252272Y836797D02*
G54D42*
D03*
X245772Y836797D02*
G54D42*
D03*
X239272Y836797D02*
G54D42*
D03*
X232772Y836797D02*
G54D42*
D03*
X226272Y836797D02*
G54D42*
D03*
X219772Y836797D02*
G54D42*
D03*
X213272Y836797D02*
G54D42*
D03*
X206772Y836797D02*
G54D42*
D03*
X291272Y903287D02*
G54D42*
D03*
X284772Y903288D02*
G54D42*
D03*
X278272Y903288D02*
G54D42*
D03*
X271772Y903288D02*
G54D42*
D03*
X265272Y903288D02*
G54D42*
D03*
X258772Y903288D02*
G54D42*
D03*
X252272Y903288D02*
G54D42*
D03*
X245772Y903287D02*
G54D42*
D03*
X239272Y903288D02*
G54D42*
D03*
X232772Y903288D02*
G54D42*
D03*
X226272Y903288D02*
G54D42*
D03*
X219772Y903288D02*
G54D42*
D03*
X213272Y903288D02*
G54D42*
D03*
X206772Y903288D02*
G54D42*
D03*
X164306Y886420D02*
G54D43*
D03*
X183356Y886420D02*
G54D43*
D03*
X164306Y864394D02*
G54D43*
D03*
X173831Y864394D02*
G54D43*
D03*
X183356Y864394D02*
G54D43*
D03*
G54D15*
X252214Y896739D02*
X252214Y892770D01*
G54D15*
X226219Y843359D02*
X226219Y847328D01*
G54D15*
X271859Y843359D02*
X271859Y847328D01*
G54D15*
X278408Y843359D02*
X278408Y847328D01*
G54D15*
X245864Y843359D02*
X245864Y847328D01*
G54D15*
X60523Y826492D02*
X55562Y826492D01*
X141288Y875506D02*
G54D44*
D03*
X99219Y875506D02*
G54D44*
D03*
X84733Y845939D02*
G54D45*
D03*
X84733Y839391D02*
G54D45*
D03*
X271859Y885627D02*
G54D45*
D03*
X219869Y853678D02*
G54D45*
D03*
X84733Y852488D02*
G54D45*
D03*
X84733Y833041D02*
G54D45*
D03*
X84733Y826492D02*
G54D45*
D03*
G54D15*
X84733Y852488D02*
X61912Y852488D01*
G54D15*
X84733Y845939D02*
X61714Y845939D01*
G54D15*
X84733Y839391D02*
X61714Y839391D01*
G54D15*
X84733Y833041D02*
X61714Y833041D01*
G54D15*
X84733Y826492D02*
X61714Y826492D01*
G54D28*
X271859Y885627D02*
X271859Y896541D01*
G54D28*
X219869Y853678D02*
X219869Y842962D01*
G54D22*
X99219Y888206D02*
X64691Y853678D01*
G54D22*
X164306Y864394D02*
X149225Y864394D01*
G54D22*
X173831Y869752D02*
X173831Y873919D01*
G54D15*
X164306Y859234D02*
X164306Y855266D01*
X183356Y855266D01*
X183356Y859234D01*
G54D15*
X123031Y966788D02*
X97631Y966788D01*
G54D22*
X97631Y966788D02*
X96044Y966788D01*
X81756Y952500D01*
X81756Y915988D01*
X92075Y905669D01*
X154781Y905669D01*
X165100Y895350D01*
X165100Y887214D01*
X164306Y886420D01*
X407988Y902494D02*
G54D46*
D03*
X414487Y902494D02*
G54D46*
D03*
X407591Y843147D02*
G54D46*
D03*
X414091Y843147D02*
G54D46*
D03*
X420591Y843147D02*
G54D46*
D03*
X427091Y843147D02*
G54D46*
D03*
X420988Y902494D02*
G54D46*
D03*
X427488Y902494D02*
G54D46*
D03*
G54D28*
X165100Y896144D02*
X192088Y896144D01*
X196056Y892175D01*
X196056Y885031D01*
X200025Y881062D01*
X231378Y881062D01*
X239316Y873125D01*
X239316Y842169D01*
G54D28*
X84733Y845939D02*
X189508Y845939D01*
X196056Y852488D01*
X210741Y852488D01*
X213122Y850106D01*
X213122Y841772D01*
G54D28*
X84733Y839391D02*
X207169Y839391D01*
G54D28*
X173831Y966788D02*
X175022Y966788D01*
X186531Y955278D01*
X186531Y924719D01*
X192088Y919162D01*
X263128Y919162D01*
X265509Y916781D01*
X265509Y908447D01*
G54D28*
X199231Y966788D02*
X202009Y966788D01*
X211931Y956866D01*
X211931Y927497D01*
X214312Y925116D01*
X286544Y925116D01*
X291306Y920353D01*
X291306Y909241D01*
X193675Y743744D02*
G54D47*
D03*
X174675Y743744D02*
G54D47*
D03*
X193675Y711994D02*
G54D47*
D03*
X174675Y711994D02*
G54D47*
D03*
X146050Y711994D02*
G54D47*
D03*
X127050Y711994D02*
G54D47*
D03*
X146050Y743744D02*
G54D47*
D03*
X127050Y743744D02*
G54D47*
D03*
G54D28*
X258762Y831453D02*
X258762Y818753D01*
X252412Y812403D01*
X215106Y812403D01*
X209550Y806847D01*
X209550Y715566D01*
X205978Y711994D01*
X193675Y711994D01*
G54D28*
X252412Y830262D02*
X252412Y819944D01*
X250031Y817562D01*
X213519Y817562D01*
X204788Y808831D01*
X204788Y755253D01*
X198834Y749300D01*
G54D28*
X146050Y743744D02*
X174675Y743744D01*
G54D28*
X146050Y711994D02*
X174675Y711994D01*
G54D28*
X127050Y711994D02*
X127050Y743744D01*
G54D28*
X219869Y829866D02*
X219869Y824706D01*
X217091Y821928D01*
X210741Y821928D01*
X199628Y810816D01*
G54D28*
X127050Y743744D02*
X127050Y755303D01*
X132953Y761206D01*
X193278Y761206D01*
X199628Y767556D01*
X199628Y810816D01*
X139700Y832644D02*
G54D45*
D03*
X158750Y832644D02*
G54D45*
D03*
G54D28*
X139700Y832644D02*
X158750Y832644D01*
X317475Y885006D02*
G54D48*
D03*
X317475Y866006D02*
G54D48*
D03*
X346050Y885006D02*
G54D48*
D03*
X346050Y866006D02*
G54D48*
D03*
G54D28*
X346050Y861244D02*
X239738Y861244D01*
X239712Y861219D01*
G54D28*
X317475Y885006D02*
X374625Y885006D01*
X374625Y885006D02*
G54D48*
D03*
X374625Y866006D02*
G54D48*
D03*
X449238Y882229D02*
G54D48*
D03*
X449238Y863229D02*
G54D48*
D03*
G54D28*
X427831Y941388D02*
X427831Y902838D01*
X427488Y902494D01*
G54D28*
X427831Y966788D02*
X425847Y966788D01*
X415131Y956072D01*
X415131Y925909D01*
X421084Y919956D01*
X421084Y909638D01*
G54D28*
X228600Y743744D02*
X361950Y743744D01*
X393700Y775494D01*
X393675Y902072D01*
G54D28*
X374625Y861244D02*
X393675Y861244D01*
X393700Y861219D01*
X228600Y794544D02*
G54D41*
D03*
X228600Y769144D02*
G54D41*
D03*
X228600Y743744D02*
G54D41*
D03*
X228600Y718344D02*
G54D41*
D03*
G54D28*
X228600Y718344D02*
X228600Y703659D01*
G54D29*
X300831Y941388D02*
X300831Y925512D01*
X323850Y902494D01*
X407988Y902494D01*
G54D29*
X407591Y835422D02*
X407591Y829469D01*
G54D29*
X413941Y835422D02*
X413941Y829469D01*
G54D29*
X420688Y835422D02*
X420688Y829469D01*
G54D29*
X427038Y835819D02*
X427038Y829469D01*
X184175Y794569D02*
G54D48*
D03*
X184175Y813569D02*
G54D48*
D03*
G54D28*
X184175Y813569D02*
X201588Y813569D01*
X201612Y813594D01*
G54D28*
X184175Y794569D02*
X184175Y781869D01*
X184150Y781844D01*
X130200Y794569D02*
G54D48*
D03*
X130200Y813569D02*
G54D48*
D03*
X104800Y794569D02*
G54D48*
D03*
X104800Y813569D02*
G54D48*
D03*
X130200Y813569D02*
G54D45*
D03*
G54D28*
X104800Y813569D02*
X104800Y838969D01*
X104775Y838994D01*
G54D28*
X130200Y794569D02*
X130200Y781869D01*
X130175Y781844D01*
G54D28*
X104800Y794569D02*
X104800Y781869D01*
X104775Y781844D01*
G54D49*
X588641Y829294D02*
X587441Y827294D01*
X585041Y826294D01*
X582641Y826294D01*
X580241Y827294D01*
X579041Y829294D01*
X579041Y839294D01*
X580241Y841294D01*
X582641Y842294D01*
X585041Y842294D01*
X587441Y841294D01*
X588641Y839294D01*
G54D49*
X600241Y828694D02*
X600241Y832694D01*
X599041Y834694D01*
X596641Y835294D01*
X594241Y834694D01*
X593041Y832694D01*
X593041Y828694D01*
X594241Y826694D01*
X596641Y826294D01*
X599041Y826694D01*
X600241Y828694D01*
G54D49*
X604641Y826294D02*
X604641Y835294D01*
G54D49*
X604641Y833294D02*
X605841Y834694D01*
X608241Y835294D01*
X610641Y834694D01*
X611841Y833294D01*
X611841Y826294D01*
G54D49*
X616241Y827294D02*
X618641Y826294D01*
X621041Y826294D01*
X623441Y827294D01*
X623441Y829294D01*
X622241Y830294D01*
X617441Y831294D01*
X616241Y832294D01*
X616241Y834294D01*
X618641Y835294D01*
X621041Y835294D01*
X623441Y834294D01*
G54D49*
X635041Y828694D02*
X635041Y832694D01*
X633841Y834694D01*
X631441Y835294D01*
X629041Y834694D01*
X627841Y832694D01*
X627841Y828694D01*
X629041Y826694D01*
X631441Y826294D01*
X633841Y826694D01*
X635041Y828694D01*
G54D49*
X639441Y826294D02*
X639441Y842294D01*
G54D49*
X651041Y827294D02*
X649121Y826294D01*
X646721Y826294D01*
X644321Y827294D01*
X643841Y829294D01*
X643841Y832694D01*
X645041Y834694D01*
X647441Y835294D01*
X649841Y834694D01*
X651041Y833294D01*
X651041Y831294D01*
X643841Y831294D01*
X488950Y845344D02*
G54D50*
D03*
X498475Y845344D02*
G54D50*
D03*
X503238Y845344D02*
G54D50*
D03*
X503238Y840581D02*
G54D50*
D03*
X498475Y835819D02*
G54D50*
D03*
X488950Y831056D02*
G54D50*
D03*
X488950Y826294D02*
G54D50*
D03*
X498475Y826294D02*
G54D50*
D03*
X503238Y826294D02*
G54D50*
D03*
X511175Y826294D02*
G54D50*
D03*
X511175Y831056D02*
G54D50*
D03*
X511175Y835819D02*
G54D50*
D03*
X511175Y840581D02*
G54D50*
D03*
X511175Y845344D02*
G54D50*
D03*
X515938Y845344D02*
G54D50*
D03*
X520700Y845344D02*
G54D50*
D03*
X515938Y835819D02*
G54D50*
D03*
X520700Y835819D02*
G54D50*
D03*
X515938Y826294D02*
G54D50*
D03*
X520700Y826294D02*
G54D50*
D03*
X533400Y845344D02*
G54D50*
D03*
X533400Y840581D02*
G54D50*
D03*
X533400Y835819D02*
G54D50*
D03*
X533400Y831056D02*
G54D50*
D03*
X533400Y826294D02*
G54D50*
D03*
X538162Y845344D02*
G54D50*
D03*
X538162Y835819D02*
G54D50*
D03*
X547688Y840581D02*
G54D50*
D03*
X547688Y831056D02*
G54D50*
D03*
X547688Y826294D02*
G54D50*
D03*
X555625Y840581D02*
G54D50*
D03*
X555625Y835819D02*
G54D50*
D03*
X555625Y831056D02*
G54D50*
D03*
X560388Y826294D02*
G54D50*
D03*
X565150Y826294D02*
G54D50*
D03*
X569912Y831056D02*
G54D50*
D03*
X569912Y835819D02*
G54D50*
D03*
X569912Y840581D02*
G54D50*
D03*
X560388Y845344D02*
G54D50*
D03*
X565150Y845344D02*
G54D50*
D03*
G54D51*
X627062Y808038D02*
X627062Y813038D01*
G54D51*
X627062Y811926D02*
X628396Y813038D01*
X629729Y813038D01*
G54D51*
X636174Y808593D02*
X635107Y808038D01*
X633774Y808038D01*
X632440Y808593D01*
X632174Y809704D01*
X632174Y811593D01*
X632840Y812704D01*
X634174Y813038D01*
X635507Y812704D01*
X636174Y811926D01*
X636174Y810815D01*
X632174Y810815D01*
G54D51*
X638618Y813038D02*
X641284Y808038D01*
X643951Y813038D01*
G54D51*
X651728Y808038D02*
X646394Y808038D01*
X646394Y808593D01*
X647061Y809704D01*
X651061Y813038D01*
X651728Y814149D01*
X651728Y815260D01*
X651061Y816371D01*
X649728Y816926D01*
X648394Y816926D01*
X647061Y816371D01*
X646394Y815260D01*
X149225Y909638D02*
G54D52*
D03*
X177225Y909638D02*
G54D52*
D03*
G54D29*
X177225Y909638D02*
X190500Y909638D01*
X555625Y845344D02*
G54D50*
D03*
X569912Y845344D02*
G54D50*
D03*
X569912Y826294D02*
G54D50*
D03*
X555625Y826294D02*
G54D50*
D03*
X493712Y845344D02*
G54D50*
D03*
X493712Y835819D02*
G54D50*
D03*
X493712Y826294D02*
G54D50*
D03*
X525462Y845344D02*
G54D50*
D03*
X525462Y835819D02*
G54D50*
D03*
X525462Y826294D02*
G54D50*
D03*
X542925Y845344D02*
G54D50*
D03*
X542925Y835819D02*
G54D50*
D03*
G54D28*
X374650Y835819D02*
X374650Y864394D01*
G54D28*
X355600Y835819D02*
X342900Y835819D01*
X355600Y835819D02*
G54D47*
D03*
X374600Y835819D02*
G54D47*
D03*
G54D29*
X449238Y863229D02*
X394123Y863229D01*
X393700Y862806D01*
G54D29*
X479401Y882229D02*
X420315Y882229D01*
X414338Y888206D01*
X414338Y896144D01*
X479401Y882229D02*
G54D48*
D03*
X479401Y863229D02*
G54D48*
D03*
G54D29*
X479401Y863229D02*
X479401Y848543D01*
X479425Y848519D01*
X479425Y880666D02*
G54D53*
D03*
X479425Y863997D02*
G54D53*
D03*
X21034Y875109D02*
G54D54*
D03*
X28972Y875109D02*
G54D54*
D03*
X28972Y803672D02*
G54D54*
D03*
X21034Y803672D02*
G54D54*
D03*
X63500Y875109D02*
G54D54*
D03*
X55562Y875109D02*
G54D54*
D03*
X63500Y803672D02*
G54D54*
D03*
X55562Y803672D02*
G54D54*
D03*
X59531Y875109D02*
G54D54*
D03*
X59531Y803672D02*
G54D54*
D03*
X25003Y803672D02*
G54D54*
D03*
X25003Y875109D02*
G54D54*
D03*
X54777Y839390D02*
G54D55*
D03*
X54777Y832890D02*
G54D55*
D03*
X54777Y826390D02*
G54D55*
D03*
X54777Y845890D02*
G54D55*
D03*
X54777Y852390D02*
G54D55*
D03*
X63302Y875109D02*
G54D54*
D03*
X63103Y875109D02*
G54D54*
D03*
X62905Y875109D02*
G54D54*
D03*
X62706Y875109D02*
G54D54*
D03*
X62508Y875109D02*
G54D54*
D03*
X62309Y875109D02*
G54D54*
D03*
X62111Y875109D02*
G54D54*
D03*
X61912Y875109D02*
G54D54*
D03*
X61714Y875109D02*
G54D54*
D03*
X61516Y875109D02*
G54D54*
D03*
X61317Y875109D02*
G54D54*
D03*
X61119Y875109D02*
G54D54*
D03*
X60920Y875109D02*
G54D54*
D03*
X60722Y875109D02*
G54D54*
D03*
X60523Y875109D02*
G54D54*
D03*
X60325Y875109D02*
G54D54*
D03*
X60127Y875109D02*
G54D54*
D03*
X59928Y875109D02*
G54D54*
D03*
X59730Y875109D02*
G54D54*
D03*
X59333Y875109D02*
G54D54*
D03*
X59134Y875109D02*
G54D54*
D03*
X58936Y875109D02*
G54D54*
D03*
X58738Y875109D02*
G54D54*
D03*
X58539Y875109D02*
G54D54*
D03*
X58341Y875109D02*
G54D54*
D03*
X58142Y875109D02*
G54D54*
D03*
X57944Y875109D02*
G54D54*
D03*
X57745Y875109D02*
G54D54*
D03*
X57547Y875109D02*
G54D54*
D03*
X57348Y875109D02*
G54D54*
D03*
X57150Y875109D02*
G54D54*
D03*
X55761Y875109D02*
G54D54*
D03*
X55959Y875109D02*
G54D54*
D03*
X56158Y875109D02*
G54D54*
D03*
X56356Y875109D02*
G54D54*
D03*
X56555Y875109D02*
G54D54*
D03*
X56753Y875109D02*
G54D54*
D03*
X63302Y803672D02*
G54D54*
D03*
X63103Y803672D02*
G54D54*
D03*
X62905Y803672D02*
G54D54*
D03*
X62706Y803672D02*
G54D54*
D03*
X62508Y803672D02*
G54D54*
D03*
X62309Y803672D02*
G54D54*
D03*
X62111Y803672D02*
G54D54*
D03*
X61912Y803672D02*
G54D54*
D03*
X61714Y803672D02*
G54D54*
D03*
X61516Y803672D02*
G54D54*
D03*
X61317Y803672D02*
G54D54*
D03*
X61119Y803672D02*
G54D54*
D03*
X60920Y803672D02*
G54D54*
D03*
X60722Y803672D02*
G54D54*
D03*
X60523Y803672D02*
G54D54*
D03*
X60325Y803672D02*
G54D54*
D03*
X60127Y803672D02*
G54D54*
D03*
X59928Y803672D02*
G54D54*
D03*
X55761Y803672D02*
G54D54*
D03*
X55959Y803672D02*
G54D54*
D03*
X56158Y803672D02*
G54D54*
D03*
X56356Y803672D02*
G54D54*
D03*
X56555Y803672D02*
G54D54*
D03*
X56753Y803672D02*
G54D54*
D03*
X56952Y803672D02*
G54D54*
D03*
X57150Y803672D02*
G54D54*
D03*
X57348Y803672D02*
G54D54*
D03*
X57547Y803672D02*
G54D54*
D03*
X57745Y803672D02*
G54D54*
D03*
X57944Y803672D02*
G54D54*
D03*
X58142Y803672D02*
G54D54*
D03*
X58341Y803672D02*
G54D54*
D03*
X58539Y803672D02*
G54D54*
D03*
X58539Y803672D02*
G54D54*
D03*
X58738Y803672D02*
G54D54*
D03*
X58936Y803672D02*
G54D54*
D03*
X59134Y803672D02*
G54D54*
D03*
X28972Y875109D02*
G54D54*
D03*
X21034Y875109D02*
G54D54*
D03*
X25003Y875109D02*
G54D54*
D03*
X28773Y875109D02*
G54D54*
D03*
X28575Y875109D02*
G54D54*
D03*
X28377Y875109D02*
G54D54*
D03*
X28178Y875109D02*
G54D54*
D03*
X27980Y875109D02*
G54D54*
D03*
X27781Y875109D02*
G54D54*
D03*
X27583Y875109D02*
G54D54*
D03*
X27384Y875109D02*
G54D54*
D03*
X27186Y875109D02*
G54D54*
D03*
X26988Y875109D02*
G54D54*
D03*
X26789Y875109D02*
G54D54*
D03*
X26591Y875109D02*
G54D54*
D03*
X26392Y875109D02*
G54D54*
D03*
X26194Y875109D02*
G54D54*
D03*
X25995Y875109D02*
G54D54*
D03*
X25797Y875109D02*
G54D54*
D03*
X25598Y875109D02*
G54D54*
D03*
X25400Y875109D02*
G54D54*
D03*
X25202Y875109D02*
G54D54*
D03*
X24805Y875109D02*
G54D54*
D03*
X24606Y875109D02*
G54D54*
D03*
X24408Y875109D02*
G54D54*
D03*
X24209Y875109D02*
G54D54*
D03*
X24011Y875109D02*
G54D54*
D03*
X23812Y875109D02*
G54D54*
D03*
X23614Y875109D02*
G54D54*
D03*
X23416Y875109D02*
G54D54*
D03*
X23217Y875109D02*
G54D54*
D03*
X23019Y875109D02*
G54D54*
D03*
X22820Y875109D02*
G54D54*
D03*
X22622Y875109D02*
G54D54*
D03*
X21233Y875109D02*
G54D54*
D03*
X21431Y875109D02*
G54D54*
D03*
X21630Y875109D02*
G54D54*
D03*
X21828Y875109D02*
G54D54*
D03*
X22027Y875109D02*
G54D54*
D03*
X22225Y875109D02*
G54D54*
D03*
X28972Y803672D02*
G54D54*
D03*
X21034Y803672D02*
G54D54*
D03*
X25003Y803672D02*
G54D54*
D03*
X28773Y803672D02*
G54D54*
D03*
X28575Y803672D02*
G54D54*
D03*
X28377Y803672D02*
G54D54*
D03*
X28178Y803672D02*
G54D54*
D03*
X27980Y803672D02*
G54D54*
D03*
X27781Y803672D02*
G54D54*
D03*
X27583Y803672D02*
G54D54*
D03*
X27384Y803672D02*
G54D54*
D03*
X27186Y803672D02*
G54D54*
D03*
X26988Y803672D02*
G54D54*
D03*
X26789Y803672D02*
G54D54*
D03*
X26591Y803672D02*
G54D54*
D03*
X26392Y803672D02*
G54D54*
D03*
X26194Y803672D02*
G54D54*
D03*
X25995Y803672D02*
G54D54*
D03*
X25797Y803672D02*
G54D54*
D03*
X25598Y803672D02*
G54D54*
D03*
X25400Y803672D02*
G54D54*
D03*
X21233Y803672D02*
G54D54*
D03*
X21431Y803672D02*
G54D54*
D03*
X21630Y803672D02*
G54D54*
D03*
X21828Y803672D02*
G54D54*
D03*
X22027Y803672D02*
G54D54*
D03*
X22225Y803672D02*
G54D54*
D03*
X22423Y803672D02*
G54D54*
D03*
X22622Y803672D02*
G54D54*
D03*
X22820Y803672D02*
G54D54*
D03*
X23019Y803672D02*
G54D54*
D03*
X23217Y803672D02*
G54D54*
D03*
X23416Y803672D02*
G54D54*
D03*
X23614Y803672D02*
G54D54*
D03*
X23812Y803672D02*
G54D54*
D03*
X24011Y803672D02*
G54D54*
D03*
X24011Y803672D02*
G54D54*
D03*
X24209Y803672D02*
G54D54*
D03*
X24408Y803672D02*
G54D54*
D03*
X24606Y803672D02*
G54D54*
D03*
G54D22*
X25400Y885031D02*
X25400Y865981D01*
G54D22*
X25400Y794544D02*
X25400Y813594D01*
G54D22*
X60325Y794544D02*
X60325Y813594D01*
G54D22*
X60325Y885031D02*
X60325Y864394D01*
X21828Y875109D02*
G54D54*
D03*
X22622Y875109D02*
G54D54*
D03*
X23416Y875109D02*
G54D54*
D03*
X24209Y875109D02*
G54D54*
D03*
X25003Y875109D02*
G54D54*
D03*
X25797Y875109D02*
G54D54*
D03*
X26591Y875109D02*
G54D54*
D03*
X27384Y875109D02*
G54D54*
D03*
X28178Y875109D02*
G54D54*
D03*
X56356Y875109D02*
G54D54*
D03*
X57150Y875109D02*
G54D54*
D03*
X57944Y875109D02*
G54D54*
D03*
X58738Y875109D02*
G54D54*
D03*
X59531Y875109D02*
G54D54*
D03*
X60325Y875109D02*
G54D54*
D03*
X61119Y875109D02*
G54D54*
D03*
X61912Y875109D02*
G54D54*
D03*
X62706Y875109D02*
G54D54*
D03*
X63500Y875109D02*
G54D54*
D03*
X28972Y875109D02*
G54D54*
D03*
X21034Y803672D02*
G54D54*
D03*
X21828Y803672D02*
G54D54*
D03*
X22622Y803672D02*
G54D54*
D03*
X23416Y803672D02*
G54D54*
D03*
X24209Y803672D02*
G54D54*
D03*
X25003Y803672D02*
G54D54*
D03*
X25797Y803672D02*
G54D54*
D03*
X26591Y803672D02*
G54D54*
D03*
X27384Y803672D02*
G54D54*
D03*
X28178Y803672D02*
G54D54*
D03*
X28972Y803672D02*
G54D54*
D03*
X55562Y803672D02*
G54D54*
D03*
X56356Y803672D02*
G54D54*
D03*
X57150Y803672D02*
G54D54*
D03*
X57944Y803672D02*
G54D54*
D03*
X58738Y803672D02*
G54D54*
D03*
X59531Y803672D02*
G54D54*
D03*
X60325Y803672D02*
G54D54*
D03*
X61119Y803672D02*
G54D54*
D03*
X61912Y803672D02*
G54D54*
D03*
X62706Y803672D02*
G54D54*
D03*
X63500Y803672D02*
G54D54*
D03*
X21034Y875109D02*
G54D54*
D03*
X28972Y875109D02*
G54D54*
D03*
X55562Y875109D02*
G54D54*
D03*
M02*
