%FSLAX34Y34*%
%MOMM*%
%LNSOLDERMASK_BOTTOM*%
G71*
G01*
%ADD10C, 0.00*%
%ADD11C, 2.20*%
%ADD12C, 1.65*%
%LPD*%
G54D10*
X0Y1000000D02*
X680000Y1000000D01*
X680000Y670000D01*
X0Y670000D01*
X0Y1000000D01*
X580231Y966788D02*
G54D11*
D03*
X580230Y941384D02*
G54D11*
D03*
X554831Y966788D02*
G54D11*
D03*
X554831Y941388D02*
G54D11*
D03*
X529431Y966788D02*
G54D11*
D03*
X529431Y941388D02*
G54D11*
D03*
X504030Y966784D02*
G54D11*
D03*
X504031Y941388D02*
G54D11*
D03*
X478631Y966788D02*
G54D11*
D03*
X478631Y941388D02*
G54D11*
D03*
X453230Y966784D02*
G54D11*
D03*
X453231Y941388D02*
G54D11*
D03*
X427831Y966788D02*
G54D11*
D03*
X427831Y941388D02*
G54D11*
D03*
X402431Y966788D02*
G54D11*
D03*
X402430Y941384D02*
G54D11*
D03*
X377031Y966788D02*
G54D11*
D03*
X377031Y941388D02*
G54D11*
D03*
X351631Y966788D02*
G54D11*
D03*
X351631Y941388D02*
G54D11*
D03*
X326230Y966784D02*
G54D11*
D03*
X326231Y941388D02*
G54D11*
D03*
X300831Y966788D02*
G54D11*
D03*
X300831Y941388D02*
G54D11*
D03*
X275431Y966788D02*
G54D11*
D03*
X275431Y941388D02*
G54D11*
D03*
X250030Y966784D02*
G54D11*
D03*
X250031Y941388D02*
G54D11*
D03*
X224631Y966788D02*
G54D11*
D03*
X224631Y941388D02*
G54D11*
D03*
X199231Y966788D02*
G54D11*
D03*
X199230Y941384D02*
G54D11*
D03*
X173831Y966788D02*
G54D11*
D03*
X173831Y941388D02*
G54D11*
D03*
X148430Y966784D02*
G54D11*
D03*
X123031Y966788D02*
G54D11*
D03*
X97631Y966788D02*
G54D11*
D03*
X148431Y941388D02*
G54D11*
D03*
X123031Y941388D02*
G54D11*
D03*
X97631Y941388D02*
G54D11*
D03*
X228600Y794544D02*
G54D11*
D03*
X228600Y769144D02*
G54D11*
D03*
X228600Y743744D02*
G54D11*
D03*
X228600Y718344D02*
G54D11*
D03*
X21034Y875109D02*
G54D12*
D03*
X28972Y875109D02*
G54D12*
D03*
X28972Y803672D02*
G54D12*
D03*
X21034Y803672D02*
G54D12*
D03*
X63500Y875109D02*
G54D12*
D03*
X55562Y875109D02*
G54D12*
D03*
X63500Y803672D02*
G54D12*
D03*
X55562Y803672D02*
G54D12*
D03*
X59531Y875109D02*
G54D12*
D03*
X59531Y803672D02*
G54D12*
D03*
X25003Y803672D02*
G54D12*
D03*
X25003Y875109D02*
G54D12*
D03*
X63302Y875109D02*
G54D12*
D03*
X63103Y875109D02*
G54D12*
D03*
X62905Y875109D02*
G54D12*
D03*
X62706Y875109D02*
G54D12*
D03*
X62508Y875109D02*
G54D12*
D03*
X62309Y875109D02*
G54D12*
D03*
X62111Y875109D02*
G54D12*
D03*
X61912Y875109D02*
G54D12*
D03*
X61714Y875109D02*
G54D12*
D03*
X61516Y875109D02*
G54D12*
D03*
X61317Y875109D02*
G54D12*
D03*
X61119Y875109D02*
G54D12*
D03*
X60920Y875109D02*
G54D12*
D03*
X60722Y875109D02*
G54D12*
D03*
X60523Y875109D02*
G54D12*
D03*
X60325Y875109D02*
G54D12*
D03*
X60127Y875109D02*
G54D12*
D03*
X59928Y875109D02*
G54D12*
D03*
X59730Y875109D02*
G54D12*
D03*
X59333Y875109D02*
G54D12*
D03*
X59134Y875109D02*
G54D12*
D03*
X58936Y875109D02*
G54D12*
D03*
X58738Y875109D02*
G54D12*
D03*
X58539Y875109D02*
G54D12*
D03*
X58341Y875109D02*
G54D12*
D03*
X58142Y875109D02*
G54D12*
D03*
X57944Y875109D02*
G54D12*
D03*
X57745Y875109D02*
G54D12*
D03*
X57547Y875109D02*
G54D12*
D03*
X57348Y875109D02*
G54D12*
D03*
X57150Y875109D02*
G54D12*
D03*
X55761Y875109D02*
G54D12*
D03*
X55959Y875109D02*
G54D12*
D03*
X56158Y875109D02*
G54D12*
D03*
X56356Y875109D02*
G54D12*
D03*
X56555Y875109D02*
G54D12*
D03*
X56753Y875109D02*
G54D12*
D03*
X63302Y803672D02*
G54D12*
D03*
X63103Y803672D02*
G54D12*
D03*
X62905Y803672D02*
G54D12*
D03*
X62706Y803672D02*
G54D12*
D03*
X62508Y803672D02*
G54D12*
D03*
X62309Y803672D02*
G54D12*
D03*
X62111Y803672D02*
G54D12*
D03*
X61912Y803672D02*
G54D12*
D03*
X61714Y803672D02*
G54D12*
D03*
X61516Y803672D02*
G54D12*
D03*
X61317Y803672D02*
G54D12*
D03*
X61119Y803672D02*
G54D12*
D03*
X60920Y803672D02*
G54D12*
D03*
X60722Y803672D02*
G54D12*
D03*
X60523Y803672D02*
G54D12*
D03*
X60325Y803672D02*
G54D12*
D03*
X60127Y803672D02*
G54D12*
D03*
X59928Y803672D02*
G54D12*
D03*
X55761Y803672D02*
G54D12*
D03*
X55959Y803672D02*
G54D12*
D03*
X56158Y803672D02*
G54D12*
D03*
X56356Y803672D02*
G54D12*
D03*
X56555Y803672D02*
G54D12*
D03*
X56753Y803672D02*
G54D12*
D03*
X56952Y803672D02*
G54D12*
D03*
X57150Y803672D02*
G54D12*
D03*
X57348Y803672D02*
G54D12*
D03*
X57547Y803672D02*
G54D12*
D03*
X57745Y803672D02*
G54D12*
D03*
X57944Y803672D02*
G54D12*
D03*
X58142Y803672D02*
G54D12*
D03*
X58341Y803672D02*
G54D12*
D03*
X58539Y803672D02*
G54D12*
D03*
X58539Y803672D02*
G54D12*
D03*
X58738Y803672D02*
G54D12*
D03*
X58936Y803672D02*
G54D12*
D03*
X59134Y803672D02*
G54D12*
D03*
X28972Y875109D02*
G54D12*
D03*
X21034Y875109D02*
G54D12*
D03*
X25003Y875109D02*
G54D12*
D03*
X28773Y875109D02*
G54D12*
D03*
X28575Y875109D02*
G54D12*
D03*
X28377Y875109D02*
G54D12*
D03*
X28178Y875109D02*
G54D12*
D03*
X27980Y875109D02*
G54D12*
D03*
X27781Y875109D02*
G54D12*
D03*
X27583Y875109D02*
G54D12*
D03*
X27384Y875109D02*
G54D12*
D03*
X27186Y875109D02*
G54D12*
D03*
X26988Y875109D02*
G54D12*
D03*
X26789Y875109D02*
G54D12*
D03*
X26591Y875109D02*
G54D12*
D03*
X26392Y875109D02*
G54D12*
D03*
X26194Y875109D02*
G54D12*
D03*
X25995Y875109D02*
G54D12*
D03*
X25797Y875109D02*
G54D12*
D03*
X25598Y875109D02*
G54D12*
D03*
X25400Y875109D02*
G54D12*
D03*
X25202Y875109D02*
G54D12*
D03*
X24805Y875109D02*
G54D12*
D03*
X24606Y875109D02*
G54D12*
D03*
X24408Y875109D02*
G54D12*
D03*
X24209Y875109D02*
G54D12*
D03*
X24011Y875109D02*
G54D12*
D03*
X23812Y875109D02*
G54D12*
D03*
X23614Y875109D02*
G54D12*
D03*
X23416Y875109D02*
G54D12*
D03*
X23217Y875109D02*
G54D12*
D03*
X23019Y875109D02*
G54D12*
D03*
X22820Y875109D02*
G54D12*
D03*
X22622Y875109D02*
G54D12*
D03*
X21233Y875109D02*
G54D12*
D03*
X21431Y875109D02*
G54D12*
D03*
X21630Y875109D02*
G54D12*
D03*
X21828Y875109D02*
G54D12*
D03*
X22027Y875109D02*
G54D12*
D03*
X22225Y875109D02*
G54D12*
D03*
X28972Y803672D02*
G54D12*
D03*
X21034Y803672D02*
G54D12*
D03*
X25003Y803672D02*
G54D12*
D03*
X28773Y803672D02*
G54D12*
D03*
X28575Y803672D02*
G54D12*
D03*
X28377Y803672D02*
G54D12*
D03*
X28178Y803672D02*
G54D12*
D03*
X27980Y803672D02*
G54D12*
D03*
X27781Y803672D02*
G54D12*
D03*
X27583Y803672D02*
G54D12*
D03*
X27384Y803672D02*
G54D12*
D03*
X27186Y803672D02*
G54D12*
D03*
X26988Y803672D02*
G54D12*
D03*
X26789Y803672D02*
G54D12*
D03*
X26591Y803672D02*
G54D12*
D03*
X26392Y803672D02*
G54D12*
D03*
X26194Y803672D02*
G54D12*
D03*
X25995Y803672D02*
G54D12*
D03*
X25797Y803672D02*
G54D12*
D03*
X25598Y803672D02*
G54D12*
D03*
X25400Y803672D02*
G54D12*
D03*
X21233Y803672D02*
G54D12*
D03*
X21431Y803672D02*
G54D12*
D03*
X21630Y803672D02*
G54D12*
D03*
X21828Y803672D02*
G54D12*
D03*
X22027Y803672D02*
G54D12*
D03*
X22225Y803672D02*
G54D12*
D03*
X22423Y803672D02*
G54D12*
D03*
X22622Y803672D02*
G54D12*
D03*
X22820Y803672D02*
G54D12*
D03*
X23019Y803672D02*
G54D12*
D03*
X23217Y803672D02*
G54D12*
D03*
X23416Y803672D02*
G54D12*
D03*
X23614Y803672D02*
G54D12*
D03*
X23812Y803672D02*
G54D12*
D03*
X24011Y803672D02*
G54D12*
D03*
X24011Y803672D02*
G54D12*
D03*
X24209Y803672D02*
G54D12*
D03*
X24408Y803672D02*
G54D12*
D03*
X24606Y803672D02*
G54D12*
D03*
X21828Y875109D02*
G54D12*
D03*
X22622Y875109D02*
G54D12*
D03*
X23416Y875109D02*
G54D12*
D03*
X24209Y875109D02*
G54D12*
D03*
X25003Y875109D02*
G54D12*
D03*
X25797Y875109D02*
G54D12*
D03*
X26591Y875109D02*
G54D12*
D03*
X27384Y875109D02*
G54D12*
D03*
X28178Y875109D02*
G54D12*
D03*
X56356Y875109D02*
G54D12*
D03*
X57150Y875109D02*
G54D12*
D03*
X57944Y875109D02*
G54D12*
D03*
X58738Y875109D02*
G54D12*
D03*
X59531Y875109D02*
G54D12*
D03*
X60325Y875109D02*
G54D12*
D03*
X61119Y875109D02*
G54D12*
D03*
X61912Y875109D02*
G54D12*
D03*
X62706Y875109D02*
G54D12*
D03*
X63500Y875109D02*
G54D12*
D03*
X28972Y875109D02*
G54D12*
D03*
X21034Y803672D02*
G54D12*
D03*
X21828Y803672D02*
G54D12*
D03*
X22622Y803672D02*
G54D12*
D03*
X23416Y803672D02*
G54D12*
D03*
X24209Y803672D02*
G54D12*
D03*
X25003Y803672D02*
G54D12*
D03*
X25797Y803672D02*
G54D12*
D03*
X26591Y803672D02*
G54D12*
D03*
X27384Y803672D02*
G54D12*
D03*
X28178Y803672D02*
G54D12*
D03*
X28972Y803672D02*
G54D12*
D03*
X55562Y803672D02*
G54D12*
D03*
X56356Y803672D02*
G54D12*
D03*
X57150Y803672D02*
G54D12*
D03*
X57944Y803672D02*
G54D12*
D03*
X58738Y803672D02*
G54D12*
D03*
X59531Y803672D02*
G54D12*
D03*
X60325Y803672D02*
G54D12*
D03*
X61119Y803672D02*
G54D12*
D03*
X61912Y803672D02*
G54D12*
D03*
X62706Y803672D02*
G54D12*
D03*
X63500Y803672D02*
G54D12*
D03*
X21034Y875109D02*
G54D12*
D03*
X28972Y875109D02*
G54D12*
D03*
X55562Y875109D02*
G54D12*
D03*
M02*
