%FSLAX34Y34*%
%MOMM*%
%LNCOPPER_BOTTOM*%
G71*
G01*
%ADD10C, 0.00*%
%ADD11C, 0.10*%
%ADD12C, 0.06*%
%ADD13C, 0.03*%
%ADD14C, 0.00*%
%ADD15C, 0.15*%
%ADD16C, 0.11*%
%ADD17R, 0.50X0.50*%
%ADD18C, 0.07*%
%LPD*%
G54D10*
X0Y1000000D02*
X680000Y1000000D01*
X680000Y670000D01*
X0Y670000D01*
X0Y1000000D01*
G54D11*
X338931Y955675D02*
X338931Y952500D01*
G54D11*
X337344Y954088D02*
X340519Y954088D01*
G54D11*
X84931Y979488D02*
X592931Y979488D01*
X592931Y928688D01*
X84931Y928688D01*
X84931Y979488D01*
G54D11*
X298813Y844337D02*
X199197Y844338D01*
G54D11*
X298813Y895733D02*
X199197Y895733D01*
G54D11*
X298813Y844337D02*
X298813Y895733D01*
G54D11*
X199197Y844338D02*
X199197Y895733D01*
G54D11*
X298813Y860212D02*
X294844Y860212D01*
G54D11*
X298813Y879858D02*
X294844Y879858D01*
G54D11*
X294844Y860212D02*
X294844Y879858D01*
G54D12*
X292480Y894153D02*
X294147Y892486D01*
X289702Y892486D01*
G54D12*
X283352Y891486D02*
X283352Y894153D01*
X283630Y894153D01*
X284186Y893819D01*
X285852Y891819D01*
X286408Y891486D01*
X286964Y891486D01*
X287519Y891819D01*
X287797Y892486D01*
X287797Y893153D01*
X287519Y893819D01*
X286964Y894153D01*
G54D12*
X280614Y894153D02*
X281169Y893819D01*
X281447Y893153D01*
X281447Y892486D01*
X281169Y891819D01*
X280614Y891486D01*
X280058Y891486D01*
X279502Y891819D01*
X279225Y892486D01*
X278947Y891819D01*
X278391Y891486D01*
X277836Y891486D01*
X277280Y891819D01*
X277002Y892486D01*
X277002Y893153D01*
X277280Y893819D01*
X277836Y894153D01*
G54D12*
X270256Y892153D02*
X274700Y892153D01*
X271922Y894153D01*
X271367Y894153D01*
X271367Y891486D01*
G54D12*
X267953Y891486D02*
X267953Y894153D01*
X266009Y894153D01*
X266009Y893819D01*
X266286Y893153D01*
X266286Y892486D01*
X266009Y891819D01*
X265453Y891486D01*
X264342Y891486D01*
X263786Y891819D01*
X263509Y892486D01*
X263509Y893153D01*
X263786Y893819D01*
X264342Y894153D01*
G54D12*
X260770Y891486D02*
X261325Y891819D01*
X261603Y892486D01*
X261603Y893153D01*
X261325Y893819D01*
X260770Y894153D01*
X259381Y894153D01*
X259103Y894153D01*
X259659Y893153D01*
X259659Y892486D01*
X259381Y891819D01*
X258825Y891486D01*
X257992Y891486D01*
X257436Y891819D01*
X257159Y892486D01*
X257159Y893153D01*
X257436Y893819D01*
X257992Y894153D01*
X259381Y894153D01*
G54D12*
X255253Y894153D02*
X255253Y891486D01*
X254698Y891819D01*
X253864Y892486D01*
X252753Y893153D01*
X251920Y893486D01*
X250809Y893486D01*
G54D12*
X246681Y892486D02*
X246681Y893153D01*
X246959Y893819D01*
X247514Y894153D01*
X248070Y894153D01*
X248625Y893819D01*
X248903Y893153D01*
X248903Y892486D01*
X248625Y891819D01*
X248070Y891486D01*
X247514Y891486D01*
X246959Y891819D01*
X246681Y892486D01*
X246403Y891819D01*
X245848Y891486D01*
X245292Y891486D01*
X244736Y891819D01*
X244459Y892486D01*
X244459Y893153D01*
X244736Y893819D01*
X245292Y894153D01*
X245848Y894153D01*
X246403Y893819D01*
X246681Y893153D01*
G54D12*
X237354Y894153D02*
X236799Y893819D01*
X236521Y893153D01*
X236521Y892486D01*
X236799Y891819D01*
X237354Y891486D01*
X238744Y891486D01*
X239021Y891486D01*
X238466Y892486D01*
X238466Y893153D01*
X238744Y893819D01*
X239299Y894153D01*
X240132Y894153D01*
X240688Y893819D01*
X240966Y893153D01*
X240966Y892486D01*
X240688Y891819D01*
X240132Y891486D01*
X238744Y891486D01*
G54D12*
X232949Y894153D02*
X234616Y892486D01*
X230171Y892486D01*
G54D12*
X233782Y888597D02*
X231004Y888597D01*
X230449Y888930D01*
X230171Y889597D01*
X230171Y890264D01*
X230449Y890930D01*
X231004Y891264D01*
X233782Y891264D01*
X234338Y890930D01*
X234616Y890264D01*
X234616Y889597D01*
X234338Y888930D01*
X233782Y888597D01*
G54D12*
X226599Y894153D02*
X228266Y892486D01*
X223821Y892486D01*
G54D12*
X226599Y891264D02*
X228266Y889597D01*
X223821Y889597D01*
G54D12*
X220249Y894153D02*
X221916Y892486D01*
X217471Y892486D01*
G54D12*
X217471Y888597D02*
X217471Y891264D01*
X217749Y891264D01*
X218304Y890930D01*
X219971Y888930D01*
X220527Y888597D01*
X221082Y888597D01*
X221638Y888930D01*
X221916Y889597D01*
X221916Y890264D01*
X221638Y890930D01*
X221082Y891264D01*
G54D12*
X213899Y894153D02*
X215566Y892486D01*
X211121Y892486D01*
G54D12*
X214732Y891264D02*
X215288Y890930D01*
X215566Y890264D01*
X215566Y889597D01*
X215288Y888930D01*
X214732Y888597D01*
X214177Y888597D01*
X213621Y888930D01*
X213344Y889597D01*
X213066Y888930D01*
X212510Y888597D01*
X211955Y888597D01*
X211399Y888930D01*
X211121Y889597D01*
X211121Y890264D01*
X211399Y890930D01*
X211954Y891264D01*
G54D12*
X205962Y894153D02*
X207628Y892486D01*
X203184Y892486D01*
G54D12*
X203184Y889264D02*
X207628Y889264D01*
X204850Y891264D01*
X204295Y891264D01*
X204295Y888597D01*
G54D12*
X207549Y851290D02*
X209216Y849623D01*
X204771Y849623D01*
G54D12*
X209216Y845734D02*
X209216Y848401D01*
X207271Y848401D01*
X207271Y848068D01*
X207549Y847401D01*
X207549Y846734D01*
X207271Y846068D01*
X206716Y845734D01*
X205604Y845734D01*
X205049Y846068D01*
X204771Y846734D01*
X204771Y847401D01*
X205049Y848068D01*
X205605Y848401D01*
G54D12*
X213899Y851290D02*
X215566Y849623D01*
X211121Y849623D01*
G54D12*
X214732Y845734D02*
X215288Y846068D01*
X215566Y846734D01*
X215566Y847401D01*
X215288Y848068D01*
X214732Y848401D01*
X213344Y848401D01*
X213066Y848401D01*
X213621Y847401D01*
X213621Y846734D01*
X213344Y846068D01*
X212788Y845734D01*
X211955Y845734D01*
X211399Y846068D01*
X211121Y846734D01*
X211121Y847401D01*
X211399Y848068D01*
X211955Y848401D01*
X213344Y848401D01*
G54D12*
X220249Y851290D02*
X221916Y849623D01*
X217471Y849623D01*
G54D12*
X221916Y848401D02*
X221916Y845734D01*
X221360Y846068D01*
X220527Y846734D01*
X219416Y847401D01*
X218582Y847734D01*
X217471Y847734D01*
G54D12*
X226599Y851290D02*
X228266Y849623D01*
X223821Y849623D01*
G54D12*
X226044Y846734D02*
X226044Y847401D01*
X226321Y848068D01*
X226877Y848401D01*
X227432Y848401D01*
X227988Y848068D01*
X228266Y847401D01*
X228266Y846734D01*
X227988Y846068D01*
X227432Y845734D01*
X226877Y845734D01*
X226321Y846068D01*
X226044Y846734D01*
X225766Y846068D01*
X225210Y845734D01*
X224654Y845734D01*
X224099Y846068D01*
X223821Y846734D01*
X223821Y847401D01*
X224099Y848068D01*
X224654Y848401D01*
X225210Y848401D01*
X225766Y848068D01*
X226044Y847401D01*
G54D12*
X232949Y851290D02*
X234616Y849623D01*
X230171Y849623D01*
G54D12*
X231004Y848401D02*
X230449Y848068D01*
X230171Y847401D01*
X230171Y846734D01*
X230449Y846068D01*
X231004Y845734D01*
X232394Y845734D01*
X232671Y845734D01*
X232116Y846734D01*
X232116Y847401D01*
X232394Y848068D01*
X232949Y848401D01*
X233782Y848401D01*
X234338Y848068D01*
X234616Y847401D01*
X234616Y846734D01*
X234338Y846068D01*
X233782Y845734D01*
X232394Y845734D01*
G54D12*
X236918Y849417D02*
X236918Y852084D01*
X237196Y852084D01*
X237752Y851751D01*
X239418Y849751D01*
X239974Y849417D01*
X240529Y849417D01*
X241085Y849751D01*
X241362Y850417D01*
X241362Y851084D01*
X241085Y851750D01*
X240529Y852084D01*
G54D12*
X240529Y845528D02*
X237751Y845528D01*
X237196Y845862D01*
X236918Y846528D01*
X236918Y847195D01*
X237196Y847862D01*
X237752Y848195D01*
X240529Y848195D01*
X241085Y847862D01*
X241362Y847195D01*
X241362Y846528D01*
X241085Y845862D01*
X240529Y845528D01*
G54D12*
X243268Y848623D02*
X243268Y851290D01*
X243546Y851290D01*
X244101Y850957D01*
X245768Y848957D01*
X246324Y848623D01*
X246879Y848623D01*
X247435Y848957D01*
X247712Y849623D01*
X247713Y850290D01*
X247435Y850957D01*
X246879Y851290D01*
G54D12*
X246046Y847401D02*
X247712Y845734D01*
X243268Y845734D01*
G54D12*
X250015Y849417D02*
X250015Y852084D01*
X250293Y852084D01*
X250848Y851751D01*
X252515Y849751D01*
X253071Y849417D01*
X253626Y849417D01*
X254182Y849751D01*
X254459Y850417D01*
X254459Y851084D01*
X254182Y851751D01*
X253626Y852084D01*
G54D12*
X250015Y845528D02*
X250015Y848195D01*
X250293Y848195D01*
X250848Y847862D01*
X252515Y845862D01*
X253071Y845528D01*
X253626Y845528D01*
X254182Y845862D01*
X254459Y846528D01*
X254459Y847195D01*
X254182Y847862D01*
X253626Y848195D01*
G54D12*
X256762Y849417D02*
X256762Y852084D01*
X257040Y852084D01*
X257595Y851751D01*
X259262Y849750D01*
X259817Y849417D01*
X260373Y849417D01*
X260928Y849751D01*
X261206Y850417D01*
X261206Y851084D01*
X260929Y851751D01*
X260373Y852084D01*
G54D12*
X260373Y848195D02*
X260929Y847862D01*
X261206Y847195D01*
X261206Y846528D01*
X260928Y845862D01*
X260373Y845528D01*
X259817Y845528D01*
X259262Y845862D01*
X258984Y846528D01*
X258706Y845862D01*
X258151Y845528D01*
X257595Y845528D01*
X257040Y845862D01*
X256762Y846528D01*
X256762Y847195D01*
X257040Y847862D01*
X257595Y848195D01*
G54D12*
X263112Y849417D02*
X263112Y852084D01*
X263390Y852084D01*
X263945Y851751D01*
X265612Y849751D01*
X266167Y849417D01*
X266723Y849417D01*
X267278Y849751D01*
X267556Y850417D01*
X267556Y851084D01*
X267278Y851751D01*
X266723Y852084D01*
G54D12*
X263112Y846195D02*
X267556Y846195D01*
X264778Y848195D01*
X264223Y848195D01*
X264223Y845528D01*
G54D12*
X269462Y849417D02*
X269462Y852084D01*
X269740Y852084D01*
X270295Y851751D01*
X271962Y849751D01*
X272517Y849417D01*
X273073Y849417D01*
X273628Y849751D01*
X273906Y850417D01*
X273906Y851084D01*
X273629Y851750D01*
X273073Y852084D01*
G54D12*
X273906Y845528D02*
X273906Y848195D01*
X271962Y848195D01*
X271962Y847862D01*
X272240Y847195D01*
X272240Y846528D01*
X271962Y845862D01*
X271406Y845528D01*
X270295Y845528D01*
X269740Y845862D01*
X269462Y846528D01*
X269462Y847195D01*
X269740Y847862D01*
X270295Y848195D01*
G54D12*
X276209Y849417D02*
X276209Y852084D01*
X276486Y852084D01*
X277042Y851750D01*
X278709Y849751D01*
X279264Y849417D01*
X279820Y849417D01*
X280375Y849751D01*
X280653Y850417D01*
X280653Y851084D01*
X280375Y851750D01*
X279820Y852084D01*
G54D12*
X279820Y845528D02*
X280375Y845862D01*
X280653Y846528D01*
X280653Y847195D01*
X280375Y847862D01*
X279820Y848195D01*
X278431Y848195D01*
X278153Y848195D01*
X278709Y847195D01*
X278709Y846528D01*
X278431Y845862D01*
X277875Y845528D01*
X277042Y845528D01*
X276486Y845862D01*
X276209Y846528D01*
X276209Y847195D01*
X276486Y847862D01*
X277042Y848195D01*
X278431Y848195D01*
G54D12*
X282559Y849417D02*
X282559Y852084D01*
X282836Y852084D01*
X283392Y851751D01*
X285059Y849751D01*
X285614Y849417D01*
X286170Y849417D01*
X286725Y849750D01*
X287003Y850417D01*
X287003Y851084D01*
X286725Y851751D01*
X286170Y852084D01*
G54D12*
X287003Y848195D02*
X287003Y845528D01*
X286448Y845862D01*
X285614Y846528D01*
X284503Y847195D01*
X283670Y847528D01*
X282559Y847528D01*
G54D12*
X288909Y849417D02*
X288909Y852084D01*
X289186Y852084D01*
X289742Y851751D01*
X291409Y849751D01*
X291964Y849417D01*
X292520Y849417D01*
X293075Y849751D01*
X293353Y850417D01*
X293353Y851084D01*
X293075Y851751D01*
X292520Y852084D01*
G54D12*
X291131Y846528D02*
X291131Y847195D01*
X291409Y847862D01*
X291964Y848195D01*
X292520Y848195D01*
X293075Y847862D01*
X293353Y847195D01*
X293353Y846528D01*
X293075Y845862D01*
X292520Y845528D01*
X291964Y845528D01*
X291409Y845862D01*
X291131Y846528D01*
X290853Y845862D01*
X290298Y845528D01*
X289742Y845528D01*
X289186Y845862D01*
X288909Y846528D01*
X288909Y847195D01*
X289186Y847862D01*
X289742Y848195D01*
X290298Y848195D01*
X290853Y847862D01*
X291131Y847195D01*
G54D12*
X256762Y870594D02*
X261206Y870594D01*
G54D12*
X261206Y871928D02*
X261206Y869261D01*
G54D12*
X261206Y868039D02*
X256762Y864705D01*
G54D12*
X256762Y868039D02*
X261206Y864705D01*
G54D12*
X261206Y863484D02*
X256762Y863484D01*
X256762Y861150D01*
G54D12*
X256762Y857595D02*
X256762Y859929D01*
X261206Y859929D01*
X261206Y857595D01*
G54D12*
X258984Y859929D02*
X258984Y857595D01*
G54D12*
X256762Y856374D02*
X261206Y856374D01*
X261206Y854707D01*
X260928Y854040D01*
X260373Y853707D01*
X257595Y853707D01*
X257040Y854040D01*
X256762Y854707D01*
X256762Y856374D01*
G54D12*
X252237Y870594D02*
X251682Y869594D01*
X251126Y869261D01*
X250015Y869261D01*
G54D12*
X250015Y871928D02*
X254459Y871928D01*
X254459Y870261D01*
X254182Y869594D01*
X253626Y869261D01*
X253071Y869261D01*
X252515Y869594D01*
X252237Y870261D01*
X252237Y871928D01*
G54D12*
X254459Y868039D02*
X250015Y864705D01*
G54D12*
X250015Y868039D02*
X254459Y864705D01*
G54D12*
X254459Y863484D02*
X250015Y863484D01*
X250015Y861150D01*
G54D12*
X250015Y857595D02*
X250015Y859929D01*
X254459Y859929D01*
X254459Y857595D01*
G54D12*
X252237Y859929D02*
X252237Y857595D01*
G54D12*
X250015Y856374D02*
X254459Y856374D01*
X254459Y854707D01*
X254182Y854040D01*
X253626Y853707D01*
X250848Y853707D01*
X250293Y854040D01*
X250015Y854707D01*
X250015Y856374D01*
G54D12*
X211121Y859228D02*
X215566Y859228D01*
X215566Y857561D01*
X215288Y856894D01*
X214732Y856561D01*
X211954Y856561D01*
X211399Y856894D01*
X211121Y857561D01*
X211121Y859228D01*
G54D12*
X213066Y855339D02*
X213066Y852672D01*
G54D12*
X204771Y859228D02*
X209216Y859228D01*
X209216Y857561D01*
X208938Y856894D01*
X208382Y856561D01*
X205605Y856561D01*
X205049Y856894D01*
X204771Y857561D01*
X204771Y859228D01*
G54D12*
X206716Y855339D02*
X206716Y852672D01*
G54D12*
X207827Y854005D02*
X205605Y854005D01*
G54D12*
X289702Y888057D02*
X294147Y888057D01*
G54D12*
X294147Y889390D02*
X294147Y886723D01*
G54D12*
X294147Y885501D02*
X289702Y882168D01*
G54D12*
X289702Y885501D02*
X294147Y882168D01*
G54D12*
X265731Y888057D02*
X265175Y887057D01*
X264620Y886724D01*
X263509Y886724D01*
G54D12*
X263509Y889390D02*
X267953Y889390D01*
X267953Y887723D01*
X267675Y887057D01*
X267120Y886723D01*
X266564Y886724D01*
X266009Y887057D01*
X265731Y887723D01*
X265731Y889390D01*
G54D12*
X267953Y885501D02*
X263509Y882168D01*
G54D12*
X263509Y885501D02*
X267953Y882168D01*
G54D12*
X253031Y888057D02*
X253031Y886723D01*
X251642Y886724D01*
X251086Y887057D01*
X250809Y887723D01*
X250809Y888390D01*
X251086Y889057D01*
X251642Y889390D01*
X254420Y889390D01*
X254975Y889057D01*
X255253Y888390D01*
X255253Y887723D01*
X254975Y887057D01*
X254420Y886724D01*
G54D12*
X250809Y885501D02*
X255253Y885501D01*
X250809Y882834D01*
X255253Y882834D01*
G54D12*
X250809Y881612D02*
X255253Y881612D01*
X255253Y879945D01*
X254975Y879279D01*
X254420Y878945D01*
X251642Y878946D01*
X251086Y879279D01*
X250809Y879946D01*
X250809Y881612D01*
G54D12*
X278431Y862657D02*
X278431Y861324D01*
X277042Y861324D01*
X276486Y861657D01*
X276209Y862323D01*
X276209Y862990D01*
X276486Y863657D01*
X277042Y863990D01*
X279820Y863990D01*
X280375Y863657D01*
X280653Y862990D01*
X280653Y862324D01*
X280375Y861657D01*
X279820Y861323D01*
G54D12*
X276209Y860101D02*
X280653Y860101D01*
X276209Y857434D01*
X280653Y857434D01*
G54D12*
X276209Y856212D02*
X280653Y856212D01*
X280653Y854545D01*
X280375Y853879D01*
X279820Y853545D01*
X277042Y853545D01*
X276486Y853879D01*
X276209Y854546D01*
X276209Y856212D01*
G54D12*
X271684Y862657D02*
X271684Y861323D01*
X270295Y861324D01*
X269740Y861657D01*
X269462Y862324D01*
X269462Y862990D01*
X269740Y863657D01*
X270295Y863990D01*
X273073Y863990D01*
X273628Y863657D01*
X273906Y862990D01*
X273906Y862324D01*
X273628Y861657D01*
X273073Y861323D01*
G54D12*
X269462Y860101D02*
X273906Y860101D01*
X269462Y857434D01*
X273906Y857434D01*
G54D12*
X269462Y856212D02*
X273906Y856212D01*
X273906Y854546D01*
X273628Y853879D01*
X273073Y853546D01*
X270295Y853546D01*
X269740Y853879D01*
X269462Y854546D01*
X269462Y856212D01*
G54D12*
X245490Y862657D02*
X245490Y861323D01*
X244102Y861323D01*
X243546Y861657D01*
X243268Y862324D01*
X243268Y862990D01*
X243546Y863657D01*
X244101Y863990D01*
X246879Y863990D01*
X247435Y863657D01*
X247712Y862990D01*
X247713Y862323D01*
X247435Y861657D01*
X246879Y861324D01*
G54D12*
X243268Y860101D02*
X247712Y860101D01*
X243268Y857434D01*
X247712Y857434D01*
G54D12*
X243268Y856212D02*
X247712Y856212D01*
X247713Y854546D01*
X247435Y853879D01*
X246879Y853545D01*
X244102Y853545D01*
X243546Y853879D01*
X243268Y854545D01*
X243268Y856212D01*
G54D12*
X226044Y861863D02*
X226044Y860530D01*
X224654Y860530D01*
X224099Y860863D01*
X223821Y861530D01*
X223821Y862196D01*
X224099Y862863D01*
X224654Y863196D01*
X227432Y863196D01*
X227988Y862863D01*
X228266Y862196D01*
X228266Y861530D01*
X227988Y860863D01*
X227432Y860530D01*
G54D12*
X223821Y859307D02*
X228266Y859307D01*
X223821Y856641D01*
X228266Y856641D01*
G54D12*
X223821Y855418D02*
X228266Y855418D01*
X228266Y853752D01*
X227988Y853085D01*
X227432Y852752D01*
X224654Y852752D01*
X224099Y853085D01*
X223821Y853752D01*
X223821Y855418D01*
G54D12*
X274700Y889390D02*
X270256Y887724D01*
X274700Y886057D01*
G54D12*
X270256Y884835D02*
X274700Y884835D01*
G54D12*
X273867Y880946D02*
X271089Y880946D01*
X270533Y881280D01*
X270256Y881946D01*
X270256Y882613D01*
X270533Y883280D01*
X271089Y883613D01*
X273867Y883613D01*
X274422Y883280D01*
X274700Y882613D01*
X274700Y881946D01*
X274422Y881280D01*
X273867Y880946D01*
G54D12*
X221082Y863990D02*
X221638Y863657D01*
X221916Y862990D01*
X221916Y862324D01*
X221638Y861657D01*
X221082Y861323D01*
X220527Y861323D01*
X219971Y861657D01*
X219694Y862323D01*
X219416Y861657D01*
X218860Y861324D01*
X218304Y861324D01*
X217749Y861657D01*
X217471Y862323D01*
X217471Y862990D01*
X217749Y863657D01*
X218304Y863990D01*
G54D12*
X221916Y860101D02*
X217471Y858434D01*
X221916Y856768D01*
G54D12*
X221082Y855546D02*
X221638Y855213D01*
X221916Y854546D01*
X221916Y853879D01*
X221638Y853213D01*
X221082Y852879D01*
X220527Y852879D01*
X219971Y853213D01*
X219694Y853879D01*
X219416Y853213D01*
X218860Y852879D01*
X218304Y852879D01*
X217749Y853213D01*
X217471Y853879D01*
X217471Y854546D01*
X217749Y855213D01*
X218304Y855546D01*
G54D12*
X241379Y864790D02*
X236935Y863124D01*
X241379Y861457D01*
G54D12*
X237768Y857569D02*
X237213Y857902D01*
X236935Y858569D01*
X236935Y859235D01*
X237213Y859902D01*
X237768Y860235D01*
X240546Y860235D01*
X241102Y859902D01*
X241379Y859235D01*
X241379Y858569D01*
X241102Y857902D01*
X240546Y857568D01*
G54D12*
X237768Y853680D02*
X237213Y854013D01*
X236935Y854680D01*
X236935Y855346D01*
X237213Y856013D01*
X237768Y856346D01*
X240546Y856346D01*
X241102Y856013D01*
X241379Y855346D01*
X241379Y854680D01*
X241102Y854013D01*
X240546Y853680D01*
G54D11*
X161528Y880070D02*
X186134Y880070D01*
X186134Y870545D01*
X161528Y870545D01*
X161528Y880070D01*
G54D13*
X163116Y874403D02*
X164116Y871736D01*
X165116Y874403D01*
G54D13*
X173838Y873069D02*
X174638Y873069D01*
X174638Y872236D01*
X174438Y871903D01*
X174038Y871736D01*
X173638Y871736D01*
X173238Y871903D01*
X173038Y872236D01*
X173038Y873903D01*
X173238Y874236D01*
X173638Y874403D01*
X174038Y874403D01*
X174438Y874236D01*
X174638Y873903D01*
G54D13*
X182375Y871736D02*
X180975Y871736D01*
X180975Y874403D01*
X182375Y874403D01*
G54D13*
X180975Y873069D02*
X182375Y873069D01*
G54D13*
X183108Y871736D02*
X183108Y874403D01*
X184708Y871736D01*
X184708Y874403D01*
G54D13*
X165112Y878665D02*
X165112Y876998D01*
X164912Y876665D01*
X164512Y876498D01*
X164112Y876498D01*
X163712Y876665D01*
X163512Y876998D01*
X163512Y878665D01*
X163712Y878998D01*
X164112Y879165D01*
X164512Y879165D01*
X164912Y878998D01*
X165112Y878665D01*
G54D13*
X180975Y876102D02*
X180975Y878768D01*
X182575Y876102D01*
X182575Y878768D01*
G54D13*
X184908Y876602D02*
X184708Y876268D01*
X184308Y876102D01*
X183908Y876102D01*
X183508Y876268D01*
X183308Y876602D01*
X183308Y878268D01*
X183508Y878602D01*
X183908Y878768D01*
X184308Y878768D01*
X184708Y878602D01*
X184908Y878268D01*
G54D14*
X133747Y859631D02*
X106759Y859631D01*
G54D11*
X149423Y858838D02*
X91083Y858838D01*
X91083Y892175D01*
X149423Y892175D01*
X149423Y858838D01*
G54D11*
X404416Y892175D02*
X430609Y892175D01*
X430609Y853678D01*
X404416Y853678D01*
X404416Y892175D01*
G54D11*
X405209Y881062D02*
X409972Y881062D01*
X409972Y865188D01*
X405209Y865188D01*
G54D12*
X410442Y890303D02*
X405997Y888637D01*
X410442Y886970D01*
G54D12*
X417049Y889709D02*
X412604Y889709D01*
X415382Y888042D01*
X412604Y886376D01*
X417049Y886376D01*
G54D12*
X412604Y885154D02*
X417049Y885154D01*
X417049Y883487D01*
X416771Y882821D01*
X416216Y882487D01*
X415660Y882487D01*
X415104Y882821D01*
X414827Y883487D01*
X414827Y885154D01*
G54D12*
X419536Y890588D02*
X418981Y890254D01*
X418703Y889588D01*
X418703Y888921D01*
X418981Y888254D01*
X419536Y887921D01*
X420092Y887921D01*
X420648Y888254D01*
X420925Y888921D01*
X420925Y889588D01*
X421203Y890254D01*
X421759Y890588D01*
X422314Y890588D01*
X422870Y890254D01*
X423148Y889588D01*
X423148Y888921D01*
X422870Y888254D01*
X422314Y887921D01*
G54D12*
X419536Y884032D02*
X418981Y884365D01*
X418703Y885032D01*
X418703Y885698D01*
X418981Y886365D01*
X419536Y886698D01*
X422314Y886698D01*
X422870Y886365D01*
X423148Y885698D01*
X423148Y885032D01*
X422870Y884365D01*
X422314Y884032D01*
G54D12*
X423148Y882810D02*
X418703Y882810D01*
X418703Y880476D01*
G54D12*
X425093Y890588D02*
X424537Y890254D01*
X424259Y889588D01*
X424259Y888921D01*
X424537Y888254D01*
X425093Y887921D01*
X425648Y887921D01*
X426204Y888254D01*
X426482Y888921D01*
X426482Y889588D01*
X426759Y890254D01*
X427315Y890588D01*
X427870Y890588D01*
X428426Y890254D01*
X428704Y889588D01*
X428704Y888921D01*
X428426Y888254D01*
X427870Y887921D01*
G54D12*
X424259Y886698D02*
X428704Y886698D01*
X428704Y885032D01*
X428426Y884365D01*
X427870Y884032D01*
X425093Y884032D01*
X424537Y884365D01*
X424259Y885032D01*
X424259Y886698D01*
G54D12*
X424259Y882810D02*
X428704Y881143D01*
X424259Y879476D01*
G54D12*
X425926Y882143D02*
X425926Y880143D01*
G54D12*
X406003Y862806D02*
X410448Y861140D01*
X406003Y859473D01*
G54D12*
X407670Y862140D02*
X407670Y860140D01*
G54D12*
X409614Y855585D02*
X406836Y855585D01*
X406281Y855918D01*
X406003Y856585D01*
X406003Y857251D01*
X406281Y857918D01*
X406836Y858251D01*
X409614Y858251D01*
X410170Y857918D01*
X410448Y857251D01*
X410448Y856585D01*
X410170Y855918D01*
X409614Y855585D01*
G54D12*
X412353Y862012D02*
X416798Y860346D01*
X412353Y858679D01*
G54D12*
X414020Y861346D02*
X414020Y859346D01*
G54D12*
X415131Y857458D02*
X416798Y855791D01*
X412353Y855791D01*
G54D12*
X418703Y862012D02*
X423148Y862012D01*
X418703Y859346D01*
X423148Y859346D01*
G54D12*
X419536Y855457D02*
X418981Y855790D01*
X418703Y856457D01*
X418703Y857124D01*
X418981Y857790D01*
X419536Y858124D01*
X422314Y858124D01*
X422870Y857790D01*
X423148Y857124D01*
X423148Y856457D01*
X422870Y855790D01*
X422314Y855457D01*
G54D12*
X426482Y863854D02*
X426482Y862521D01*
X425093Y862521D01*
X424537Y862854D01*
X424259Y863521D01*
X424259Y864188D01*
X424537Y864854D01*
X425093Y865188D01*
X427870Y865188D01*
X428426Y864854D01*
X428704Y864188D01*
X428704Y863521D01*
X428426Y862854D01*
X427870Y862521D01*
G54D12*
X424259Y861298D02*
X428704Y861298D01*
X424259Y858632D01*
X428704Y858632D01*
G54D12*
X424259Y857410D02*
X428704Y857410D01*
X428704Y855743D01*
X428426Y855076D01*
X427870Y854743D01*
X425093Y854743D01*
X424537Y855076D01*
X424259Y855743D01*
X424259Y857410D01*
G54D15*
X203175Y753744D02*
X203175Y733744D01*
X165175Y733744D01*
X165175Y753744D01*
X203175Y753744D01*
G54D15*
X203175Y721994D02*
X203175Y701994D01*
X165175Y701994D01*
X165175Y721994D01*
X203175Y721994D01*
G54D15*
X155550Y721994D02*
X155550Y701994D01*
X117550Y701994D01*
X117550Y721994D01*
X155550Y721994D01*
G54D15*
X155550Y753744D02*
X155550Y733744D01*
X117550Y733744D01*
X117550Y753744D01*
X155550Y753744D01*
G54D16*
X94742Y743426D02*
X96742Y742315D01*
X97408Y741203D01*
X97408Y738981D01*
G54D16*
X92075Y738981D02*
X92075Y747870D01*
X95408Y747870D01*
X96742Y747315D01*
X97408Y746203D01*
X97408Y745092D01*
X96742Y743981D01*
X95408Y743426D01*
X92075Y743426D01*
G54D16*
X99852Y747870D02*
X106519Y738981D01*
G54D16*
X99852Y738981D02*
X106519Y747870D01*
G54D16*
X94742Y707231D02*
X94742Y716120D01*
G54D16*
X92075Y716120D02*
X97408Y716120D01*
G54D16*
X99852Y716120D02*
X106519Y707231D01*
G54D16*
X99852Y707231D02*
X106519Y716120D01*
G54D12*
X139700Y925155D02*
X140033Y925710D01*
X140700Y925988D01*
X141367Y925988D01*
X142033Y925710D01*
X142367Y925155D01*
X142367Y924599D01*
X142033Y924044D01*
X141367Y923766D01*
X142033Y923488D01*
X142367Y922933D01*
X142367Y922377D01*
X142033Y921822D01*
X141367Y921544D01*
X140700Y921544D01*
X140033Y921822D01*
X139700Y922377D01*
G54D12*
X143589Y923488D02*
X146256Y923488D01*
G54D12*
X147478Y922377D02*
X147811Y921822D01*
X148478Y921544D01*
X149145Y921544D01*
X149811Y921822D01*
X150145Y922377D01*
X150145Y922933D01*
X149811Y923488D01*
X149145Y923766D01*
X148478Y923766D01*
X147811Y924044D01*
X147478Y924599D01*
X147478Y925155D01*
X147811Y925710D01*
X148478Y925988D01*
X149145Y925988D01*
X149811Y925710D01*
X150145Y925155D01*
G54D12*
X154034Y922377D02*
X153700Y921822D01*
X153034Y921544D01*
X152367Y921544D01*
X151700Y921822D01*
X151367Y922377D01*
X151367Y925155D01*
X151700Y925710D01*
X152367Y925988D01*
X153034Y925988D01*
X153700Y925710D01*
X154034Y925155D01*
G54D12*
X155256Y925988D02*
X155256Y921544D01*
X157589Y921544D01*
G54D12*
X116967Y921544D02*
X114300Y921544D01*
X114300Y921822D01*
X114633Y922377D01*
X116633Y924044D01*
X116967Y924599D01*
X116967Y925155D01*
X116633Y925710D01*
X115967Y925988D01*
X115300Y925988D01*
X114633Y925710D01*
X114300Y925155D01*
G54D12*
X118189Y923488D02*
X120856Y923488D01*
G54D12*
X122078Y922377D02*
X122411Y921822D01*
X123078Y921544D01*
X123745Y921544D01*
X124411Y921822D01*
X124745Y922377D01*
X124745Y922933D01*
X124411Y923488D01*
X123745Y923766D01*
X123078Y923766D01*
X122411Y924044D01*
X122078Y924599D01*
X122078Y925155D01*
X122411Y925710D01*
X123078Y925988D01*
X123745Y925988D01*
X124411Y925710D01*
X124745Y925155D01*
G54D12*
X125967Y921544D02*
X125967Y925988D01*
X127634Y925988D01*
X128300Y925710D01*
X128634Y925155D01*
X128634Y922377D01*
X128300Y921822D01*
X127634Y921544D01*
X125967Y921544D01*
G54D12*
X129856Y921544D02*
X131523Y925988D01*
X133189Y921544D01*
G54D12*
X130523Y923210D02*
X132523Y923210D01*
G54D15*
X307475Y894506D02*
X327475Y894506D01*
X327475Y856506D01*
X307475Y856506D01*
X307475Y894506D01*
G54D15*
X336050Y894506D02*
X356050Y894506D01*
X356050Y856506D01*
X336050Y856506D01*
X336050Y894506D01*
G54D15*
X364625Y894506D02*
X384625Y894506D01*
X384625Y856506D01*
X364625Y856506D01*
X364625Y894506D01*
G54D15*
X439238Y891729D02*
X459238Y891729D01*
X459238Y853729D01*
X439238Y853729D01*
X439238Y891729D01*
G54D11*
X611981Y919559D02*
X623094Y919559D01*
X625475Y909241D01*
X633016Y906066D01*
X642144Y912019D01*
X650081Y904875D01*
X643731Y896938D01*
X647303Y889000D01*
X658416Y887412D01*
X658416Y876697D01*
X648494Y875506D01*
X644922Y867172D01*
X650081Y859631D01*
X642541Y852091D01*
X633809Y857647D01*
X629444Y854869D01*
X621903Y871538D01*
G54D11*
X613172Y871538D02*
X605631Y855266D01*
X601266Y857250D01*
X592931Y851694D01*
X584597Y859234D01*
X590550Y867172D01*
X586978Y875506D01*
X576659Y876697D01*
X577056Y887412D01*
X587772Y889397D01*
X590550Y895747D01*
X584597Y904081D01*
X592534Y911622D01*
X601662Y906066D01*
X610394Y909241D01*
X611981Y919559D01*
G54D11*
G75*
G01X621634Y872222D02*
G03X613429Y872222I-4103J9666D01*
G01*
G36*
X577056Y887412D02*
X587772Y889397D01*
X590550Y895747D01*
X584597Y904081D01*
X592534Y911622D01*
X601662Y906066D01*
X610394Y909241D01*
X611981Y919559D01*
X623094Y919559D01*
X625475Y909241D01*
X633016Y906066D01*
X642144Y912019D01*
X650081Y904875D01*
X643731Y896938D01*
X647303Y889000D01*
X658416Y887412D01*
X658416Y876697D01*
X648494Y875506D01*
X644922Y867172D01*
X650081Y859631D01*
X642541Y852091D01*
X633809Y857647D01*
X629444Y854869D01*
X621506Y872331D01*
X622697Y872728D01*
X623888Y873522D01*
X626269Y875903D01*
X627856Y879078D01*
X628253Y881062D01*
X628253Y882650D01*
X627856Y885031D01*
X626666Y887809D01*
X624284Y890588D01*
X622300Y891778D01*
X620316Y892572D01*
X617934Y892969D01*
X615553Y892572D01*
X612378Y891778D01*
X609600Y889397D01*
X606822Y885428D01*
X606822Y879078D01*
X608012Y876697D01*
X609600Y874316D01*
X611981Y872331D01*
X613569Y872331D01*
X605631Y855266D01*
X601266Y857250D01*
X592931Y851694D01*
X584597Y859234D01*
X590550Y867172D01*
X577056Y887412D01*
G37*
G54D11*
X577056Y887412D02*
X587772Y889397D01*
X590550Y895747D01*
X584597Y904081D01*
X592534Y911622D01*
X601662Y906066D01*
X610394Y909241D01*
X611981Y919559D01*
X623094Y919559D01*
X625475Y909241D01*
X633016Y906066D01*
X642144Y912019D01*
X650081Y904875D01*
X643731Y896938D01*
X647303Y889000D01*
X658416Y887412D01*
X658416Y876697D01*
X648494Y875506D01*
X644922Y867172D01*
X650081Y859631D01*
X642541Y852091D01*
X633809Y857647D01*
X629444Y854869D01*
X621506Y872331D01*
X622697Y872728D01*
X623888Y873522D01*
X626269Y875903D01*
X627856Y879078D01*
X628253Y881062D01*
X628253Y882650D01*
X627856Y885031D01*
X626666Y887809D01*
X624284Y890588D01*
X622300Y891778D01*
X620316Y892572D01*
X617934Y892969D01*
X615553Y892572D01*
X612378Y891778D01*
X609600Y889397D01*
X606822Y885428D01*
X606822Y879078D01*
X608012Y876697D01*
X609600Y874316D01*
X611981Y872331D01*
X613569Y872331D01*
X605631Y855266D01*
X601266Y857250D01*
X592931Y851694D01*
X584597Y859234D01*
X590550Y867172D01*
X577056Y887412D01*
G36*
X577056Y887412D02*
X576659Y876697D01*
X586978Y875506D01*
X577056Y887412D01*
G37*
G54D11*
X577056Y887412D02*
X576659Y876697D01*
X586978Y875506D01*
X577056Y887412D01*
G54D12*
X161925Y984646D02*
X163592Y986313D01*
X163592Y981869D01*
G54D12*
X166814Y981869D02*
X166814Y986313D01*
X164814Y983535D01*
X164814Y982980D01*
X167481Y982980D01*
G54D12*
X168703Y983813D02*
X171370Y983813D01*
G54D12*
X173925Y981869D02*
X173925Y986313D01*
G54D12*
X172592Y986313D02*
X175259Y986313D01*
G54D12*
X176481Y986313D02*
X179814Y981869D01*
G54D12*
X176481Y981869D02*
X179814Y986313D01*
G54D12*
X181036Y981869D02*
X181036Y986313D01*
X182703Y986313D01*
X183369Y986035D01*
X183703Y985480D01*
X183703Y982702D01*
X183369Y982146D01*
X182703Y981869D01*
X181036Y981869D01*
G54D12*
X190500Y984646D02*
X192167Y986313D01*
X192167Y981869D01*
G54D12*
X196056Y986313D02*
X193389Y986313D01*
X193389Y984369D01*
X193722Y984369D01*
X194389Y984646D01*
X195056Y984646D01*
X195722Y984369D01*
X196056Y983813D01*
X196056Y982702D01*
X195722Y982146D01*
X195056Y981869D01*
X194389Y981869D01*
X193722Y982146D01*
X193389Y982702D01*
G54D12*
X197278Y983813D02*
X199945Y983813D01*
G54D12*
X202500Y984091D02*
X203500Y983535D01*
X203834Y982980D01*
X203834Y981869D01*
G54D12*
X201167Y981869D02*
X201167Y986313D01*
X202834Y986313D01*
X203500Y986035D01*
X203834Y985480D01*
X203834Y984924D01*
X203500Y984369D01*
X202834Y984091D01*
X201167Y984091D01*
G54D12*
X205056Y986313D02*
X208389Y981869D01*
G54D12*
X205056Y981869D02*
X208389Y986313D01*
G54D12*
X209611Y981869D02*
X209611Y986313D01*
X211278Y986313D01*
X211944Y986035D01*
X212278Y985480D01*
X212278Y982702D01*
X211944Y982146D01*
X211278Y981869D01*
X209611Y981869D01*
G54D12*
X415925Y984646D02*
X417592Y986313D01*
X417592Y981869D01*
G54D12*
X418814Y983813D02*
X421481Y983813D01*
G54D12*
X422703Y981869D02*
X422703Y986313D01*
G54D12*
X423925Y981869D02*
X423925Y986313D01*
X425592Y986313D01*
X426258Y986035D01*
X426592Y985480D01*
X426592Y982702D01*
X426258Y982146D01*
X425592Y981869D01*
X423925Y981869D01*
G54D12*
X427814Y981869D02*
X431147Y981869D01*
G54D12*
X432369Y982702D02*
X432702Y982146D01*
X433369Y981869D01*
X434036Y981869D01*
X434702Y982146D01*
X435036Y982702D01*
X435036Y983258D01*
X434702Y983813D01*
X434036Y984091D01*
X433369Y984091D01*
X432702Y984369D01*
X432369Y984924D01*
X432369Y985480D01*
X432702Y986035D01*
X433369Y986313D01*
X434036Y986313D01*
X434702Y986035D01*
X435036Y985480D01*
G54D12*
X438925Y982702D02*
X438591Y982146D01*
X437925Y981869D01*
X437258Y981869D01*
X436591Y982146D01*
X436258Y982702D01*
X436258Y985480D01*
X436591Y986035D01*
X437258Y986313D01*
X437925Y986313D01*
X438591Y986035D01*
X438925Y985480D01*
G54D12*
X418592Y925155D02*
X418592Y922377D01*
X418258Y921822D01*
X417592Y921544D01*
X416925Y921544D01*
X416258Y921822D01*
X415925Y922377D01*
X415925Y925155D01*
X416258Y925710D01*
X416925Y925988D01*
X417592Y925988D01*
X418258Y925710D01*
X418592Y925155D01*
G54D12*
X419814Y923488D02*
X422481Y923488D01*
G54D12*
X423703Y921544D02*
X423703Y925988D01*
G54D12*
X424925Y921544D02*
X424925Y925988D01*
X426592Y925988D01*
X427258Y925710D01*
X427592Y925155D01*
X427592Y922377D01*
X427258Y921822D01*
X426592Y921544D01*
X424925Y921544D01*
G54D12*
X428814Y921544D02*
X432147Y921544D01*
G54D12*
X433369Y922377D02*
X433702Y921822D01*
X434369Y921544D01*
X435036Y921544D01*
X435702Y921822D01*
X436036Y922377D01*
X436036Y922933D01*
X435702Y923488D01*
X435036Y923766D01*
X434369Y923766D01*
X433702Y924044D01*
X433369Y924599D01*
X433369Y925155D01*
X433702Y925710D01*
X434369Y925988D01*
X435036Y925988D01*
X435702Y925710D01*
X436036Y925155D01*
G54D12*
X437258Y921544D02*
X437258Y925988D01*
X438925Y925988D01*
X439591Y925710D01*
X439925Y925155D01*
X439925Y922377D01*
X439591Y921822D01*
X438925Y921544D01*
X437258Y921544D01*
G54D12*
X144208Y984091D02*
X145542Y984091D01*
X145542Y982702D01*
X145208Y982146D01*
X144542Y981869D01*
X143875Y981869D01*
X143208Y982146D01*
X142875Y982702D01*
X142875Y985480D01*
X143208Y986035D01*
X143875Y986313D01*
X144542Y986313D01*
X145208Y986035D01*
X145542Y985480D01*
G54D12*
X146764Y981869D02*
X146764Y986313D01*
X149431Y981869D01*
X149431Y986313D01*
G54D12*
X150653Y981869D02*
X150653Y986313D01*
X152320Y986313D01*
X152986Y986035D01*
X153320Y985480D01*
X153320Y982702D01*
X152986Y982146D01*
X152320Y981869D01*
X150653Y981869D01*
G54D12*
X195008Y923766D02*
X196342Y923766D01*
X196342Y922377D01*
X196008Y921822D01*
X195342Y921544D01*
X194675Y921544D01*
X194008Y921822D01*
X193675Y922377D01*
X193675Y925155D01*
X194008Y925710D01*
X194675Y925988D01*
X195342Y925988D01*
X196008Y925710D01*
X196342Y925155D01*
G54D12*
X197564Y921544D02*
X197564Y925988D01*
X200231Y921544D01*
X200231Y925988D01*
G54D12*
X201453Y921544D02*
X201453Y925988D01*
X203120Y925988D01*
X203786Y925710D01*
X204120Y925155D01*
X204120Y922377D01*
X203786Y921822D01*
X203120Y921544D01*
X201453Y921544D01*
G54D12*
X245808Y984091D02*
X247142Y984091D01*
X247142Y982702D01*
X246808Y982146D01*
X246142Y981869D01*
X245475Y981869D01*
X244808Y982146D01*
X244475Y982702D01*
X244475Y985480D01*
X244808Y986035D01*
X245475Y986313D01*
X246142Y986313D01*
X246808Y986035D01*
X247142Y985480D01*
G54D12*
X248364Y981869D02*
X248364Y986313D01*
X251031Y981869D01*
X251031Y986313D01*
G54D12*
X252253Y981869D02*
X252253Y986313D01*
X253920Y986313D01*
X254586Y986035D01*
X254920Y985480D01*
X254920Y982702D01*
X254586Y982146D01*
X253920Y981869D01*
X252253Y981869D01*
G54D12*
X322008Y984091D02*
X323342Y984091D01*
X323342Y982702D01*
X323008Y982146D01*
X322342Y981869D01*
X321675Y981869D01*
X321008Y982146D01*
X320675Y982702D01*
X320675Y985480D01*
X321008Y986035D01*
X321675Y986313D01*
X322342Y986313D01*
X323008Y986035D01*
X323342Y985480D01*
G54D12*
X324564Y981869D02*
X324564Y986313D01*
X327231Y981869D01*
X327231Y986313D01*
G54D12*
X328453Y981869D02*
X328453Y986313D01*
X330120Y986313D01*
X330786Y986035D01*
X331120Y985480D01*
X331120Y982702D01*
X330786Y982146D01*
X330120Y981869D01*
X328453Y981869D01*
G54D12*
X449008Y984091D02*
X450342Y984091D01*
X450342Y982702D01*
X450008Y982146D01*
X449342Y981869D01*
X448675Y981869D01*
X448008Y982146D01*
X447675Y982702D01*
X447675Y985480D01*
X448008Y986035D01*
X448675Y986313D01*
X449342Y986313D01*
X450008Y986035D01*
X450342Y985480D01*
G54D12*
X451564Y981869D02*
X451564Y986313D01*
X454231Y981869D01*
X454231Y986313D01*
G54D12*
X455453Y981869D02*
X455453Y986313D01*
X457120Y986313D01*
X457786Y986035D01*
X458120Y985480D01*
X458120Y982702D01*
X457786Y982146D01*
X457120Y981869D01*
X455453Y981869D01*
G54D12*
X499808Y984091D02*
X501142Y984091D01*
X501142Y982702D01*
X500808Y982146D01*
X500142Y981869D01*
X499475Y981869D01*
X498808Y982146D01*
X498475Y982702D01*
X498475Y985480D01*
X498808Y986035D01*
X499475Y986313D01*
X500142Y986313D01*
X500808Y986035D01*
X501142Y985480D01*
G54D12*
X502364Y981869D02*
X502364Y986313D01*
X505031Y981869D01*
X505031Y986313D01*
G54D12*
X506253Y981869D02*
X506253Y986313D01*
X507920Y986313D01*
X508586Y986035D01*
X508920Y985480D01*
X508920Y982702D01*
X508586Y982146D01*
X507920Y981869D01*
X506253Y981869D01*
G54D12*
X576008Y923766D02*
X577342Y923766D01*
X577342Y922377D01*
X577008Y921822D01*
X576342Y921544D01*
X575675Y921544D01*
X575008Y921822D01*
X574675Y922377D01*
X574675Y925155D01*
X575008Y925710D01*
X575675Y925988D01*
X576342Y925988D01*
X577008Y925710D01*
X577342Y925155D01*
G54D12*
X578564Y921544D02*
X578564Y925988D01*
X581231Y921544D01*
X581231Y925988D01*
G54D12*
X582453Y921544D02*
X582453Y925988D01*
X584120Y925988D01*
X584786Y925710D01*
X585120Y925155D01*
X585120Y922377D01*
X584786Y921822D01*
X584120Y921544D01*
X582453Y921544D01*
G54D12*
X398208Y923766D02*
X399542Y923766D01*
X399542Y922377D01*
X399208Y921822D01*
X398542Y921544D01*
X397875Y921544D01*
X397208Y921822D01*
X396875Y922377D01*
X396875Y925155D01*
X397208Y925710D01*
X397875Y925988D01*
X398542Y925988D01*
X399208Y925710D01*
X399542Y925155D01*
G54D12*
X400764Y921544D02*
X400764Y925988D01*
X403431Y921544D01*
X403431Y925988D01*
G54D12*
X404653Y921544D02*
X404653Y925988D01*
X406320Y925988D01*
X406986Y925710D01*
X407320Y925155D01*
X407320Y922377D01*
X406986Y921822D01*
X406320Y921544D01*
X404653Y921544D01*
G54D12*
X97917Y986313D02*
X95250Y986313D01*
X95250Y984369D01*
X95583Y984369D01*
X96250Y984646D01*
X96917Y984646D01*
X97583Y984369D01*
X97917Y983813D01*
X97917Y982702D01*
X97583Y982146D01*
X96917Y981869D01*
X96250Y981869D01*
X95583Y982146D01*
X95250Y982702D01*
G54D12*
X99139Y986313D02*
X100806Y981869D01*
X102472Y986313D01*
G54D12*
X123317Y986313D02*
X120650Y986313D01*
X120650Y984369D01*
X120983Y984369D01*
X121650Y984646D01*
X122317Y984646D01*
X122983Y984369D01*
X123317Y983813D01*
X123317Y982702D01*
X122983Y982146D01*
X122317Y981869D01*
X121650Y981869D01*
X120983Y982146D01*
X120650Y982702D01*
G54D12*
X124539Y986313D02*
X126206Y981869D01*
X127872Y986313D01*
G54D12*
X92075Y925155D02*
X92408Y925710D01*
X93075Y925988D01*
X93742Y925988D01*
X94408Y925710D01*
X94742Y925155D01*
X94742Y924599D01*
X94408Y924044D01*
X93742Y923766D01*
X94408Y923488D01*
X94742Y922933D01*
X94742Y922377D01*
X94408Y921822D01*
X93742Y921544D01*
X93075Y921544D01*
X92408Y921822D01*
X92075Y922377D01*
G54D12*
X95964Y925988D02*
X97631Y921544D01*
X99297Y925988D01*
G54D12*
X100519Y925155D02*
X100852Y925710D01*
X101519Y925988D01*
X102186Y925988D01*
X102852Y925710D01*
X103186Y925155D01*
X103186Y924599D01*
X102852Y924044D01*
X102186Y923766D01*
X102852Y923488D01*
X103186Y922933D01*
X103186Y922377D01*
X102852Y921822D01*
X102186Y921544D01*
X101519Y921544D01*
X100852Y921822D01*
X100519Y922377D01*
G54D12*
X173450Y921544D02*
X173450Y925988D01*
X171450Y923210D01*
X171450Y922655D01*
X174117Y922655D01*
G54D12*
X215900Y984646D02*
X217567Y986313D01*
X217567Y981869D01*
G54D12*
X220456Y984091D02*
X219789Y984091D01*
X219122Y984369D01*
X218789Y984924D01*
X218789Y985480D01*
X219122Y986035D01*
X219789Y986313D01*
X220456Y986313D01*
X221122Y986035D01*
X221456Y985480D01*
X221456Y984924D01*
X221122Y984369D01*
X220456Y984091D01*
X221122Y983813D01*
X221456Y983258D01*
X221456Y982702D01*
X221122Y982146D01*
X220456Y981869D01*
X219789Y981869D01*
X219122Y982146D01*
X218789Y982702D01*
X218789Y983258D01*
X219122Y983813D01*
X219789Y984091D01*
G54D12*
X222678Y983813D02*
X225345Y983813D01*
G54D12*
X229234Y982702D02*
X228900Y982146D01*
X228234Y981869D01*
X227567Y981869D01*
X226900Y982146D01*
X226567Y982702D01*
X226567Y985480D01*
X226900Y986035D01*
X227567Y986313D01*
X228234Y986313D01*
X228900Y986035D01*
X229234Y985480D01*
G54D12*
X230456Y986313D02*
X230456Y981869D01*
X232789Y981869D01*
G54D12*
X235344Y984091D02*
X236344Y983535D01*
X236678Y982980D01*
X236678Y981869D01*
G54D12*
X234011Y981869D02*
X234011Y986313D01*
X235678Y986313D01*
X236344Y986035D01*
X236678Y985480D01*
X236678Y984924D01*
X236344Y984369D01*
X235678Y984091D01*
X234011Y984091D01*
G54D12*
X272542Y981869D02*
X269875Y981869D01*
X269875Y982146D01*
X270208Y982702D01*
X272208Y984369D01*
X272542Y984924D01*
X272542Y985480D01*
X272208Y986035D01*
X271542Y986313D01*
X270875Y986313D01*
X270208Y986035D01*
X269875Y985480D01*
G54D12*
X273764Y985480D02*
X274097Y986035D01*
X274764Y986313D01*
X275431Y986313D01*
X276097Y986035D01*
X276431Y985480D01*
X276431Y984924D01*
X276097Y984369D01*
X275431Y984091D01*
X276097Y983813D01*
X276431Y983258D01*
X276431Y982702D01*
X276097Y982146D01*
X275431Y981869D01*
X274764Y981869D01*
X274097Y982146D01*
X273764Y982702D01*
G54D12*
X301117Y981869D02*
X298450Y981869D01*
X298450Y982146D01*
X298783Y982702D01*
X300783Y984369D01*
X301117Y984924D01*
X301117Y985480D01*
X300783Y986035D01*
X300117Y986313D01*
X299450Y986313D01*
X298783Y986035D01*
X298450Y985480D01*
G54D12*
X304339Y981869D02*
X304339Y986313D01*
X302339Y983535D01*
X302339Y982980D01*
X305006Y982980D01*
G54D12*
X351917Y981869D02*
X349250Y981869D01*
X349250Y982146D01*
X349583Y982702D01*
X351583Y984369D01*
X351917Y984924D01*
X351917Y985480D01*
X351583Y986035D01*
X350917Y986313D01*
X350250Y986313D01*
X349583Y986035D01*
X349250Y985480D01*
G54D12*
X355806Y986313D02*
X353139Y986313D01*
X353139Y984369D01*
X353472Y984369D01*
X354139Y984646D01*
X354806Y984646D01*
X355472Y984369D01*
X355806Y983813D01*
X355806Y982702D01*
X355472Y982146D01*
X354806Y981869D01*
X354139Y981869D01*
X353472Y982146D01*
X353139Y982702D01*
G54D12*
X369967Y984091D02*
X369300Y984091D01*
X368633Y984369D01*
X368300Y984924D01*
X368300Y985480D01*
X368633Y986035D01*
X369300Y986313D01*
X369967Y986313D01*
X370633Y986035D01*
X370967Y985480D01*
X370967Y984924D01*
X370633Y984369D01*
X369967Y984091D01*
X370633Y983813D01*
X370967Y983258D01*
X370967Y982702D01*
X370633Y982146D01*
X369967Y981869D01*
X369300Y981869D01*
X368633Y982146D01*
X368300Y982702D01*
X368300Y983258D01*
X368633Y983813D01*
X369300Y984091D01*
G54D12*
X372189Y983813D02*
X374856Y983813D01*
G54D12*
X378745Y982702D02*
X378411Y982146D01*
X377745Y981869D01*
X377078Y981869D01*
X376411Y982146D01*
X376078Y982702D01*
X376078Y985480D01*
X376411Y986035D01*
X377078Y986313D01*
X377745Y986313D01*
X378411Y986035D01*
X378745Y985480D01*
G54D12*
X382300Y981869D02*
X379967Y981869D01*
X379967Y986313D01*
X382300Y986313D01*
G54D12*
X379967Y984091D02*
X382300Y984091D01*
G54D12*
X386189Y985480D02*
X386189Y982702D01*
X385855Y982146D01*
X385189Y981869D01*
X384522Y981869D01*
X383855Y982146D01*
X383522Y982702D01*
X383522Y985480D01*
X383855Y986035D01*
X384522Y986313D01*
X385189Y986313D01*
X385855Y986035D01*
X386189Y985480D01*
G54D12*
X393700Y986313D02*
X396367Y986313D01*
X396033Y985758D01*
X395367Y984924D01*
X394700Y983813D01*
X394367Y982980D01*
X394367Y981869D01*
G54D12*
X397589Y983813D02*
X400256Y983813D01*
G54D12*
X404145Y982702D02*
X403811Y982146D01*
X403145Y981869D01*
X402478Y981869D01*
X401811Y982146D01*
X401478Y982702D01*
X401478Y985480D01*
X401811Y986035D01*
X402478Y986313D01*
X403145Y986313D01*
X403811Y986035D01*
X404145Y985480D01*
G54D12*
X407700Y981869D02*
X405367Y981869D01*
X405367Y986313D01*
X407700Y986313D01*
G54D12*
X405367Y984091D02*
X407700Y984091D01*
G54D12*
X408922Y984646D02*
X410589Y986313D01*
X410589Y981869D01*
G54D12*
X476250Y984646D02*
X477917Y986313D01*
X477917Y981869D01*
G54D12*
X481806Y981869D02*
X479139Y981869D01*
X479139Y982146D01*
X479472Y982702D01*
X481472Y984369D01*
X481806Y984924D01*
X481806Y985480D01*
X481472Y986035D01*
X480806Y986313D01*
X480139Y986313D01*
X479472Y986035D01*
X479139Y985480D01*
G54D12*
X527050Y984646D02*
X528717Y986313D01*
X528717Y981869D01*
G54D12*
X532606Y985480D02*
X532272Y986035D01*
X531606Y986313D01*
X530939Y986313D01*
X530272Y986035D01*
X529939Y985480D01*
X529939Y984091D01*
X529939Y983813D01*
X530939Y984369D01*
X531606Y984369D01*
X532272Y984091D01*
X532606Y983535D01*
X532606Y982702D01*
X532272Y982146D01*
X531606Y981869D01*
X530939Y981869D01*
X530272Y982146D01*
X529939Y982702D01*
X529939Y984091D01*
G54D12*
X555117Y981869D02*
X552450Y981869D01*
X552450Y982146D01*
X552783Y982702D01*
X554783Y984369D01*
X555117Y984924D01*
X555117Y985480D01*
X554783Y986035D01*
X554117Y986313D01*
X553450Y986313D01*
X552783Y986035D01*
X552450Y985480D01*
G54D12*
X559006Y985480D02*
X559006Y982702D01*
X558672Y982146D01*
X558006Y981869D01*
X557339Y981869D01*
X556672Y982146D01*
X556339Y982702D01*
X556339Y985480D01*
X556672Y986035D01*
X557339Y986313D01*
X558006Y986313D01*
X558672Y986035D01*
X559006Y985480D01*
G54D12*
X580517Y981869D02*
X577850Y981869D01*
X577850Y982146D01*
X578183Y982702D01*
X580183Y984369D01*
X580517Y984924D01*
X580517Y985480D01*
X580183Y986035D01*
X579517Y986313D01*
X578850Y986313D01*
X578183Y986035D01*
X577850Y985480D01*
G54D12*
X581739Y984646D02*
X583406Y986313D01*
X583406Y981869D01*
G54D12*
X555117Y921544D02*
X552450Y921544D01*
X552450Y921822D01*
X552783Y922377D01*
X554783Y924044D01*
X555117Y924599D01*
X555117Y925155D01*
X554783Y925710D01*
X554117Y925988D01*
X553450Y925988D01*
X552783Y925710D01*
X552450Y925155D01*
G54D12*
X559006Y925155D02*
X558672Y925710D01*
X558006Y925988D01*
X557339Y925988D01*
X556672Y925710D01*
X556339Y925155D01*
X556339Y923766D01*
X556339Y923488D01*
X557339Y924044D01*
X558006Y924044D01*
X558672Y923766D01*
X559006Y923210D01*
X559006Y922377D01*
X558672Y921822D01*
X558006Y921544D01*
X557339Y921544D01*
X556672Y921822D01*
X556339Y922377D01*
X556339Y923766D01*
G54D12*
X527050Y924322D02*
X528717Y925988D01*
X528717Y921544D01*
G54D12*
X529939Y922377D02*
X530272Y921822D01*
X530939Y921544D01*
X531606Y921544D01*
X532272Y921822D01*
X532606Y922377D01*
X532606Y923766D01*
X532606Y924044D01*
X531606Y923488D01*
X530939Y923488D01*
X530272Y923766D01*
X529939Y924322D01*
X529939Y925155D01*
X530272Y925710D01*
X530939Y925988D01*
X531606Y925988D01*
X532272Y925710D01*
X532606Y925155D01*
X532606Y923766D01*
G54D12*
X498475Y924322D02*
X500142Y925988D01*
X500142Y921544D01*
G54D12*
X501364Y925155D02*
X501697Y925710D01*
X502364Y925988D01*
X503031Y925988D01*
X503697Y925710D01*
X504031Y925155D01*
X504031Y924599D01*
X503697Y924044D01*
X503031Y923766D01*
X503697Y923488D01*
X504031Y922933D01*
X504031Y922377D01*
X503697Y921822D01*
X503031Y921544D01*
X502364Y921544D01*
X501697Y921822D01*
X501364Y922377D01*
G54D12*
X478917Y925155D02*
X478583Y925710D01*
X477917Y925988D01*
X477250Y925988D01*
X476583Y925710D01*
X476250Y925155D01*
X476250Y923766D01*
X476250Y923488D01*
X477250Y924044D01*
X477917Y924044D01*
X478583Y923766D01*
X478917Y923210D01*
X478917Y922377D01*
X478583Y921822D01*
X477917Y921544D01*
X477250Y921544D01*
X476583Y921822D01*
X476250Y922377D01*
X476250Y923766D01*
G54D12*
X453517Y925988D02*
X450850Y925988D01*
X450850Y924044D01*
X451183Y924044D01*
X451850Y924322D01*
X452517Y924322D01*
X453183Y924044D01*
X453517Y923488D01*
X453517Y922377D01*
X453183Y921822D01*
X452517Y921544D01*
X451850Y921544D01*
X451183Y921822D01*
X450850Y922377D01*
G54D12*
X222250Y924322D02*
X223917Y925988D01*
X223917Y921544D01*
G54D12*
X225139Y925988D02*
X227806Y925988D01*
X227472Y925433D01*
X226806Y924599D01*
X226139Y923488D01*
X225806Y922655D01*
X225806Y921544D01*
G54D12*
X250317Y921544D02*
X247650Y921544D01*
X247650Y921822D01*
X247983Y922377D01*
X249983Y924044D01*
X250317Y924599D01*
X250317Y925155D01*
X249983Y925710D01*
X249317Y925988D01*
X248650Y925988D01*
X247983Y925710D01*
X247650Y925155D01*
G54D12*
X251539Y925988D02*
X254206Y925988D01*
X253872Y925433D01*
X253206Y924599D01*
X252539Y923488D01*
X252206Y922655D01*
X252206Y921544D01*
G54D12*
X275717Y921544D02*
X273050Y921544D01*
X273050Y921822D01*
X273383Y922377D01*
X275383Y924044D01*
X275717Y924599D01*
X275717Y925155D01*
X275383Y925710D01*
X274717Y925988D01*
X274050Y925988D01*
X273383Y925710D01*
X273050Y925155D01*
G54D12*
X279606Y921544D02*
X276939Y921544D01*
X276939Y921822D01*
X277272Y922377D01*
X279272Y924044D01*
X279606Y924599D01*
X279606Y925155D01*
X279272Y925710D01*
X278606Y925988D01*
X277939Y925988D01*
X277272Y925710D01*
X276939Y925155D01*
G54D12*
X295275Y925155D02*
X295608Y925710D01*
X296275Y925988D01*
X296942Y925988D01*
X297608Y925710D01*
X297942Y925155D01*
X297942Y924599D01*
X297608Y924044D01*
X296942Y923766D01*
X297608Y923488D01*
X297942Y922933D01*
X297942Y922377D01*
X297608Y921822D01*
X296942Y921544D01*
X296275Y921544D01*
X295608Y921822D01*
X295275Y922377D01*
G54D12*
X299164Y925988D02*
X300831Y921544D01*
X302497Y925988D01*
G54D12*
X303719Y925155D02*
X304052Y925710D01*
X304719Y925988D01*
X305386Y925988D01*
X306052Y925710D01*
X306386Y925155D01*
X306386Y924599D01*
X306052Y924044D01*
X305386Y923766D01*
X306052Y923488D01*
X306386Y922933D01*
X306386Y922377D01*
X306052Y921822D01*
X305386Y921544D01*
X304719Y921544D01*
X304052Y921822D01*
X303719Y922377D01*
G54D12*
X314325Y924322D02*
X315992Y925988D01*
X315992Y921544D01*
G54D12*
X319881Y925155D02*
X319881Y922377D01*
X319547Y921822D01*
X318881Y921544D01*
X318214Y921544D01*
X317547Y921822D01*
X317214Y922377D01*
X317214Y925155D01*
X317547Y925710D01*
X318214Y925988D01*
X318881Y925988D01*
X319547Y925710D01*
X319881Y925155D01*
G54D12*
X321103Y923488D02*
X323770Y923488D01*
G54D12*
X324992Y921544D02*
X324992Y925988D01*
X326659Y923210D01*
X328325Y925988D01*
X328325Y921544D01*
G54D12*
X332214Y925155D02*
X332214Y922377D01*
X331880Y921822D01*
X331214Y921544D01*
X330547Y921544D01*
X329880Y921822D01*
X329547Y922377D01*
X329547Y925155D01*
X329880Y925710D01*
X330547Y925988D01*
X331214Y925988D01*
X331880Y925710D01*
X332214Y925155D01*
G54D12*
X333436Y922377D02*
X333769Y921822D01*
X334436Y921544D01*
X335103Y921544D01*
X335769Y921822D01*
X336103Y922377D01*
X336103Y922933D01*
X335769Y923488D01*
X335103Y923766D01*
X334436Y923766D01*
X333769Y924044D01*
X333436Y924599D01*
X333436Y925155D01*
X333769Y925710D01*
X334436Y925988D01*
X335103Y925988D01*
X335769Y925710D01*
X336103Y925155D01*
G54D12*
X337325Y921544D02*
X337325Y925988D01*
G54D12*
X342900Y922377D02*
X343233Y921822D01*
X343900Y921544D01*
X344567Y921544D01*
X345233Y921822D01*
X345567Y922377D01*
X345567Y923766D01*
X345567Y924044D01*
X344567Y923488D01*
X343900Y923488D01*
X343233Y923766D01*
X342900Y924322D01*
X342900Y925155D01*
X343233Y925710D01*
X343900Y925988D01*
X344567Y925988D01*
X345233Y925710D01*
X345567Y925155D01*
X345567Y923766D01*
G54D12*
X346789Y923488D02*
X349456Y923488D01*
G54D12*
X350678Y921544D02*
X350678Y925988D01*
X352345Y923210D01*
X354011Y925988D01*
X354011Y921544D01*
G54D12*
X355233Y921544D02*
X355233Y925988D01*
G54D12*
X356455Y922377D02*
X356788Y921822D01*
X357455Y921544D01*
X358122Y921544D01*
X358788Y921822D01*
X359122Y922377D01*
X359122Y922933D01*
X358788Y923488D01*
X358122Y923766D01*
X357455Y923766D01*
X356788Y924044D01*
X356455Y924599D01*
X356455Y925155D01*
X356788Y925710D01*
X357455Y925988D01*
X358122Y925988D01*
X358788Y925710D01*
X359122Y925155D01*
G54D12*
X363011Y925155D02*
X363011Y922377D01*
X362677Y921822D01*
X362011Y921544D01*
X361344Y921544D01*
X360677Y921822D01*
X360344Y922377D01*
X360344Y925155D01*
X360677Y925710D01*
X361344Y925988D01*
X362011Y925988D01*
X362677Y925710D01*
X363011Y925155D01*
G54D12*
X368300Y924322D02*
X369967Y925988D01*
X369967Y921544D01*
G54D12*
X371189Y924322D02*
X372856Y925988D01*
X372856Y921544D01*
G54D12*
X374078Y923488D02*
X376745Y923488D01*
G54D12*
X377967Y922377D02*
X378300Y921822D01*
X378967Y921544D01*
X379634Y921544D01*
X380300Y921822D01*
X380634Y922377D01*
X380634Y922933D01*
X380300Y923488D01*
X379634Y923766D01*
X378967Y923766D01*
X378300Y924044D01*
X377967Y924599D01*
X377967Y925155D01*
X378300Y925710D01*
X378967Y925988D01*
X379634Y925988D01*
X380300Y925710D01*
X380634Y925155D01*
G54D12*
X384523Y922377D02*
X384189Y921822D01*
X383523Y921544D01*
X382856Y921544D01*
X382189Y921822D01*
X381856Y922377D01*
X381856Y925155D01*
X382189Y925710D01*
X382856Y925988D01*
X383523Y925988D01*
X384189Y925710D01*
X384523Y925155D01*
G54D12*
X385745Y925988D02*
X385745Y921544D01*
X388078Y921544D01*
G54D12*
X389300Y921544D02*
X389300Y925988D01*
G54D12*
X389300Y922933D02*
X391967Y925988D01*
G54D12*
X390300Y923766D02*
X391967Y921544D01*
G36*
X134739Y756361D02*
X137518Y759139D01*
X134739Y761918D01*
X134739Y756361D01*
G37*
G54D11*
X134739Y756361D02*
X137518Y759139D01*
X134739Y761918D01*
X134739Y756361D01*
G54D11*
X140296Y759140D02*
X132358Y759140D01*
G54D11*
X137518Y756361D02*
X137518Y761918D01*
G36*
X135136Y725008D02*
X137914Y727786D01*
X135136Y730564D01*
X135136Y725008D01*
G37*
G54D11*
X135136Y725008D02*
X137914Y727786D01*
X135136Y730564D01*
X135136Y725008D01*
G54D11*
X140693Y727786D02*
X132755Y727786D01*
G54D11*
X137914Y725008D02*
X137914Y730564D01*
G54D15*
X194175Y785069D02*
X174175Y785069D01*
X174175Y823069D01*
X194175Y823069D01*
X194175Y785069D01*
G54D15*
X140200Y785069D02*
X120200Y785069D01*
X120200Y823069D01*
X140200Y823069D01*
X140200Y785069D01*
G54D15*
X114800Y785069D02*
X94800Y785069D01*
X94800Y823069D01*
X114800Y823069D01*
X114800Y785069D01*
G54D15*
X138225Y898638D02*
X138225Y920638D01*
X188225Y920638D01*
X188225Y898638D01*
X138225Y898638D01*
G54D15*
X346100Y825819D02*
X346100Y845819D01*
X384100Y845819D01*
X384100Y825819D01*
X346100Y825819D01*
G36*
X258762Y804069D02*
X360362Y804069D01*
X360362Y788194D01*
X312738Y788194D01*
X312738Y794544D01*
X350838Y794544D01*
X350838Y800894D01*
X268288Y800894D01*
X268288Y794544D01*
X306388Y794544D01*
X306388Y788194D01*
X261938Y788194D01*
X261938Y769144D01*
X306388Y769144D01*
X306388Y762794D01*
X293688Y762794D01*
X293688Y756444D01*
X280988Y756444D01*
X280988Y750094D01*
X261938Y750094D01*
X261938Y743744D01*
X360362Y743744D01*
X360362Y737394D01*
X274638Y737394D01*
X274638Y731044D01*
X300038Y731044D01*
X300038Y711994D01*
X360362Y711994D01*
X360362Y708819D01*
X258762Y708819D01*
X258762Y804069D01*
G37*
G54D11*
X258762Y804069D02*
X360362Y804069D01*
X360362Y788194D01*
X312738Y788194D01*
X312738Y794544D01*
X350838Y794544D01*
X350838Y800894D01*
X268288Y800894D01*
X268288Y794544D01*
X306388Y794544D01*
X306388Y788194D01*
X261938Y788194D01*
X261938Y769144D01*
X306388Y769144D01*
X306388Y762794D01*
X293688Y762794D01*
X293688Y756444D01*
X280988Y756444D01*
X280988Y750094D01*
X261938Y750094D01*
X261938Y743744D01*
X360362Y743744D01*
X360362Y737394D01*
X274638Y737394D01*
X274638Y731044D01*
X300038Y731044D01*
X300038Y711994D01*
X360362Y711994D01*
X360362Y708819D01*
X258762Y708819D01*
X258762Y804069D01*
G36*
X268288Y781844D02*
X306388Y781844D01*
X306388Y769144D01*
X300038Y769144D01*
X300038Y775494D01*
X274638Y775494D01*
X274638Y769144D01*
X268288Y769144D01*
X268288Y781844D01*
G37*
G54D11*
X268288Y781844D02*
X306388Y781844D01*
X306388Y769144D01*
X300038Y769144D01*
X300038Y775494D01*
X274638Y775494D01*
X274638Y769144D01*
X268288Y769144D01*
X268288Y781844D01*
G36*
X312738Y781844D02*
X350838Y781844D01*
X350838Y750094D01*
X344488Y750094D01*
X344488Y775494D01*
X319088Y775494D01*
X319088Y762794D01*
X312738Y762794D01*
X312738Y781844D01*
G37*
G54D11*
X312738Y781844D02*
X350838Y781844D01*
X350838Y750094D01*
X344488Y750094D01*
X344488Y775494D01*
X319088Y775494D01*
X319088Y762794D01*
X312738Y762794D01*
X312738Y781844D01*
G36*
X357188Y788194D02*
X360362Y788194D01*
X360362Y743744D01*
X357188Y743744D01*
X357188Y750094D01*
X350838Y750094D01*
X350838Y769144D01*
X357188Y769144D01*
X357188Y788194D01*
G37*
G54D11*
X357188Y788194D02*
X360362Y788194D01*
X360362Y743744D01*
X357188Y743744D01*
X357188Y750094D01*
X350838Y750094D01*
X350838Y769144D01*
X357188Y769144D01*
X357188Y788194D01*
G36*
X280988Y750094D02*
X293688Y750094D01*
X293688Y743744D01*
X280988Y743744D01*
X280988Y750094D01*
G37*
G54D11*
X280988Y750094D02*
X293688Y750094D01*
X293688Y743744D01*
X280988Y743744D01*
X280988Y750094D01*
G36*
X293688Y756444D02*
X306388Y756444D01*
X306388Y762794D01*
X312738Y762794D01*
X312738Y756444D01*
X325438Y756444D01*
X325438Y750094D01*
X293688Y750094D01*
X293688Y756444D01*
G37*
G54D11*
X293688Y756444D02*
X306388Y756444D01*
X306388Y762794D01*
X312738Y762794D01*
X312738Y756444D01*
X325438Y756444D01*
X325438Y750094D01*
X293688Y750094D01*
X293688Y756444D01*
G36*
X325438Y750094D02*
X338138Y750094D01*
X338138Y743744D01*
X325438Y743744D01*
X325438Y750094D01*
G37*
G54D11*
X325438Y750094D02*
X338138Y750094D01*
X338138Y743744D01*
X325438Y743744D01*
X325438Y750094D01*
G36*
X319088Y769144D02*
X344488Y769144D01*
X344488Y750094D01*
X338138Y750094D01*
X338138Y756444D01*
X325438Y756444D01*
X325438Y762794D01*
X319088Y762794D01*
X319088Y769144D01*
G37*
G54D11*
X319088Y769144D02*
X344488Y769144D01*
X344488Y750094D01*
X338138Y750094D01*
X338138Y756444D01*
X325438Y756444D01*
X325438Y762794D01*
X319088Y762794D01*
X319088Y769144D01*
G36*
X306388Y731044D02*
X338138Y731044D01*
X338138Y724694D01*
X325438Y724694D01*
X325438Y718344D01*
X344488Y718344D01*
X344488Y737394D01*
X360362Y737394D01*
X360362Y711994D01*
X306388Y711994D01*
X306388Y731044D01*
G37*
G54D11*
X306388Y731044D02*
X338138Y731044D01*
X338138Y724694D01*
X325438Y724694D01*
X325438Y718344D01*
X344488Y718344D01*
X344488Y737394D01*
X360362Y737394D01*
X360362Y711994D01*
X306388Y711994D01*
X306388Y731044D01*
X574675Y746919D02*
G54D17*
D03*
G36*
X360362Y804069D02*
X577850Y804069D01*
X577850Y794544D01*
X360362Y794544D01*
X360362Y804069D01*
G37*
G54D11*
X360362Y804069D02*
X577850Y804069D01*
X577850Y794544D01*
X360362Y794544D01*
X360362Y804069D01*
G36*
X577850Y794544D02*
X577850Y708819D01*
X360362Y708819D01*
X360362Y718344D01*
X571500Y718344D01*
X571500Y794544D01*
X577850Y794544D01*
G37*
G54D11*
X577850Y794544D02*
X577850Y708819D01*
X360362Y708819D01*
X360362Y718344D01*
X571500Y718344D01*
X571500Y794544D01*
X577850Y794544D01*
G36*
X360362Y794544D02*
X374650Y794544D01*
X374650Y762794D01*
X485775Y762794D01*
X485775Y796131D01*
X571500Y796131D01*
X571500Y750094D01*
X374650Y750094D01*
X374650Y718344D01*
X360362Y718344D01*
X360362Y794544D01*
G37*
G54D11*
X360362Y794544D02*
X374650Y794544D01*
X374650Y762794D01*
X485775Y762794D01*
X485775Y796131D01*
X571500Y796131D01*
X571500Y750094D01*
X374650Y750094D01*
X374650Y718344D01*
X360362Y718344D01*
X360362Y794544D01*
G36*
X381000Y743744D02*
X400050Y743744D01*
X400050Y750094D01*
X403225Y750094D01*
X403225Y718344D01*
X400050Y718344D01*
X400050Y724694D01*
X381000Y724694D01*
X381000Y743744D01*
G37*
G54D11*
X381000Y743744D02*
X400050Y743744D01*
X400050Y750094D01*
X403225Y750094D01*
X403225Y718344D01*
X400050Y718344D01*
X400050Y724694D01*
X381000Y724694D01*
X381000Y743744D01*
G36*
X409575Y743744D02*
X422275Y743744D01*
X422275Y724694D01*
X409575Y724694D01*
X409575Y743744D01*
G37*
G54D11*
X409575Y743744D02*
X422275Y743744D01*
X422275Y724694D01*
X409575Y724694D01*
X409575Y743744D01*
G36*
X428625Y750094D02*
X431800Y750094D01*
X431800Y718344D01*
X428625Y718344D01*
X428625Y750094D01*
G37*
G54D11*
X428625Y750094D02*
X431800Y750094D01*
X431800Y718344D01*
X428625Y718344D01*
X428625Y750094D01*
G36*
X438150Y743744D02*
X450850Y743744D01*
X450850Y718344D01*
X438150Y718344D01*
X438150Y743744D01*
G37*
G54D11*
X438150Y743744D02*
X450850Y743744D01*
X450850Y718344D01*
X438150Y718344D01*
X438150Y743744D01*
G36*
X457200Y750094D02*
X460375Y750094D01*
X460375Y718344D01*
X457200Y718344D01*
X457200Y750094D01*
G37*
G54D11*
X457200Y750094D02*
X460375Y750094D01*
X460375Y718344D01*
X457200Y718344D01*
X457200Y750094D01*
G36*
X466725Y743744D02*
X485775Y743744D01*
X485775Y750094D01*
X488950Y750094D01*
X488950Y718344D01*
X485775Y718344D01*
X485775Y737394D01*
X466725Y737394D01*
X466725Y743744D01*
G37*
G54D11*
X466725Y743744D02*
X485775Y743744D01*
X485775Y750094D01*
X488950Y750094D01*
X488950Y718344D01*
X485775Y718344D01*
X485775Y737394D01*
X466725Y737394D01*
X466725Y743744D01*
G36*
X460375Y731044D02*
X479425Y731044D01*
X479425Y724694D01*
X460375Y724694D01*
X460375Y731044D01*
G37*
G54D11*
X460375Y731044D02*
X479425Y731044D01*
X479425Y724694D01*
X460375Y724694D01*
X460375Y731044D01*
G36*
X495300Y743744D02*
X508000Y743744D01*
X508000Y724694D01*
X495300Y724694D01*
X495300Y743744D01*
G37*
G54D11*
X495300Y743744D02*
X508000Y743744D01*
X508000Y724694D01*
X495300Y724694D01*
X495300Y743744D01*
G36*
X514350Y750094D02*
X517525Y750094D01*
X517525Y718344D01*
X514350Y718344D01*
X514350Y750094D01*
G37*
G54D11*
X514350Y750094D02*
X517525Y750094D01*
X517525Y718344D01*
X514350Y718344D01*
X514350Y750094D01*
G36*
X523875Y750094D02*
X546100Y750094D01*
X546100Y718344D01*
X542925Y718344D01*
X542925Y724694D01*
X523875Y724694D01*
X523875Y750094D01*
G37*
G54D11*
X523875Y750094D02*
X546100Y750094D01*
X546100Y718344D01*
X542925Y718344D01*
X542925Y724694D01*
X523875Y724694D01*
X523875Y750094D01*
G36*
X552450Y743744D02*
X571500Y743744D01*
X571500Y737394D01*
X552450Y737394D01*
X552450Y743744D01*
G37*
G54D11*
X552450Y743744D02*
X571500Y743744D01*
X571500Y737394D01*
X552450Y737394D01*
X552450Y743744D01*
G36*
X552450Y731044D02*
X571500Y731044D01*
X571500Y724694D01*
X552450Y724694D01*
X552450Y731044D01*
G37*
G54D11*
X552450Y731044D02*
X571500Y731044D01*
X571500Y724694D01*
X552450Y724694D01*
X552450Y731044D01*
G36*
X374650Y788194D02*
X393700Y788194D01*
X393700Y781844D01*
X381000Y781844D01*
X381000Y775494D01*
X374650Y775494D01*
X374650Y788194D01*
G37*
G54D11*
X374650Y788194D02*
X393700Y788194D01*
X393700Y781844D01*
X381000Y781844D01*
X381000Y775494D01*
X374650Y775494D01*
X374650Y788194D01*
G36*
X400050Y794544D02*
X403225Y794544D01*
X403225Y762794D01*
X400050Y762794D01*
X400050Y769144D01*
X381000Y769144D01*
X381000Y775494D01*
X393700Y775494D01*
X393700Y781844D01*
X400050Y781844D01*
X400050Y794544D01*
G37*
G54D11*
X400050Y794544D02*
X403225Y794544D01*
X403225Y762794D01*
X400050Y762794D01*
X400050Y769144D01*
X381000Y769144D01*
X381000Y775494D01*
X393700Y775494D01*
X393700Y781844D01*
X400050Y781844D01*
X400050Y794544D01*
G36*
X428625Y794544D02*
X428625Y788194D01*
X409575Y788194D01*
X409575Y781844D01*
X428625Y781844D01*
X428625Y775494D01*
X409575Y775494D01*
X409575Y769144D01*
X428625Y769144D01*
X428625Y762794D01*
X431800Y762794D01*
X431800Y794544D01*
X428625Y794544D01*
G37*
G54D11*
X428625Y794544D02*
X428625Y788194D01*
X409575Y788194D01*
X409575Y781844D01*
X428625Y781844D01*
X428625Y775494D01*
X409575Y775494D01*
X409575Y769144D01*
X428625Y769144D01*
X428625Y762794D01*
X431800Y762794D01*
X431800Y794544D01*
X428625Y794544D01*
G36*
X438150Y775494D02*
X450850Y775494D01*
X450850Y762794D01*
X438150Y762794D01*
X438150Y775494D01*
G37*
G54D11*
X438150Y775494D02*
X450850Y775494D01*
X450850Y762794D01*
X438150Y762794D01*
X438150Y775494D01*
G36*
X438150Y788194D02*
X450850Y788194D01*
X450850Y781844D01*
X438150Y781844D01*
X438150Y788194D01*
G37*
G54D11*
X438150Y788194D02*
X450850Y788194D01*
X450850Y781844D01*
X438150Y781844D01*
X438150Y788194D01*
G36*
X457200Y762794D02*
X457200Y775494D01*
X450850Y775494D01*
X450850Y781844D01*
X457200Y781844D01*
X457200Y788194D01*
X450850Y788194D01*
X450850Y794544D01*
X460375Y794544D01*
X460375Y762794D01*
X457200Y762794D01*
G37*
G54D11*
X457200Y762794D02*
X457200Y775494D01*
X450850Y775494D01*
X450850Y781844D01*
X457200Y781844D01*
X457200Y788194D01*
X450850Y788194D01*
X450850Y794544D01*
X460375Y794544D01*
X460375Y762794D01*
X457200Y762794D01*
G36*
X466725Y788194D02*
X479425Y788194D01*
X479425Y769144D01*
X466725Y769144D01*
X466725Y788194D01*
G37*
G54D11*
X466725Y788194D02*
X479425Y788194D01*
X479425Y769144D01*
X466725Y769144D01*
X466725Y788194D01*
G54D15*
X469401Y891729D02*
X489401Y891729D01*
X489401Y853729D01*
X469401Y853729D01*
X469401Y891729D01*
G54D16*
X502769Y882932D02*
X495547Y882932D01*
X494436Y883598D01*
X493880Y884932D01*
X493880Y886265D01*
X494436Y887598D01*
X495547Y888265D01*
G54D16*
X499436Y880488D02*
X502769Y877155D01*
X493880Y877155D01*
G54D16*
X497769Y874711D02*
X497769Y869378D01*
G54D16*
X502769Y866934D02*
X493880Y866934D01*
X499436Y863601D01*
X493880Y860267D01*
X502769Y860267D01*
G54D18*
X245475Y799306D02*
X244808Y798906D01*
X244475Y798106D01*
X244475Y797306D01*
X244808Y796506D01*
X245475Y796106D01*
X246142Y796106D01*
X246808Y796506D01*
X247142Y797306D01*
X247142Y798106D01*
X247475Y798906D01*
X248142Y799306D01*
X248808Y799306D01*
X249475Y798906D01*
X249808Y798106D01*
X249808Y797306D01*
X249475Y796506D01*
X248808Y796106D01*
G54D18*
X244475Y794639D02*
X249808Y794639D01*
X249808Y792639D01*
X249475Y791839D01*
X248808Y791439D01*
X245475Y791439D01*
X244808Y791839D01*
X244475Y792639D01*
X244475Y794639D01*
G54D18*
X244475Y789972D02*
X249808Y787972D01*
X244475Y785972D01*
G54D18*
X246475Y789172D02*
X246475Y786772D01*
G54D18*
X245475Y773906D02*
X244808Y773506D01*
X244475Y772706D01*
X244475Y771906D01*
X244808Y771106D01*
X245475Y770706D01*
X246142Y770706D01*
X246808Y771106D01*
X247142Y771906D01*
X247142Y772706D01*
X247475Y773506D01*
X248142Y773906D01*
X248808Y773906D01*
X249475Y773506D01*
X249808Y772706D01*
X249808Y771906D01*
X249475Y771106D01*
X248808Y770706D01*
G54D18*
X245475Y766039D02*
X244808Y766439D01*
X244475Y767239D01*
X244475Y768039D01*
X244808Y768839D01*
X245475Y769239D01*
X248808Y769239D01*
X249475Y768839D01*
X249808Y768039D01*
X249808Y767239D01*
X249475Y766439D01*
X248808Y766039D01*
G54D18*
X249808Y764572D02*
X244475Y764572D01*
X244475Y761772D01*
G54D18*
X249808Y751681D02*
X244475Y749681D01*
X249808Y747681D01*
G54D18*
X245475Y743014D02*
X244808Y743414D01*
X244475Y744214D01*
X244475Y745014D01*
X244808Y745814D01*
X245475Y746214D01*
X248808Y746214D01*
X249475Y745814D01*
X249808Y745014D01*
X249808Y744214D01*
X249475Y743414D01*
X248808Y743014D01*
G54D18*
X245475Y738347D02*
X244808Y738747D01*
X244475Y739547D01*
X244475Y740347D01*
X244808Y741147D01*
X245475Y741547D01*
X248808Y741547D01*
X249475Y741147D01*
X249808Y740347D01*
X249808Y739547D01*
X249475Y738747D01*
X248808Y738347D01*
G54D18*
X247142Y721506D02*
X247142Y719906D01*
X245475Y719906D01*
X244808Y720306D01*
X244475Y721106D01*
X244475Y721906D01*
X244808Y722706D01*
X245475Y723106D01*
X248808Y723106D01*
X249475Y722706D01*
X249808Y721906D01*
X249808Y721106D01*
X249475Y720306D01*
X248808Y719906D01*
G54D18*
X244475Y718439D02*
X249808Y718439D01*
X244475Y715239D01*
X249808Y715239D01*
G54D18*
X244475Y713772D02*
X249808Y713772D01*
X249808Y711772D01*
X249475Y710972D01*
X248808Y710572D01*
X245475Y710572D01*
X244808Y710972D01*
X244475Y711772D01*
X244475Y713772D01*
G54D14*
X15478Y875109D02*
X13494Y875109D01*
X13494Y803672D01*
X15478Y803672D01*
G54D14*
X50006Y803672D02*
X34528Y803672D01*
G54D14*
X50006Y875109D02*
X34528Y875109D01*
G54D14*
X69056Y875109D02*
X73819Y875109D01*
X73819Y803672D01*
X69056Y803672D01*
G54D12*
X15875Y850900D02*
X20319Y850900D01*
X17542Y849233D01*
X20319Y847567D01*
X15875Y847567D01*
G54D12*
X15875Y846345D02*
X18375Y846345D01*
G54D12*
X19208Y846345D02*
X19208Y846345D01*
G54D12*
X18208Y843456D02*
X18375Y844123D01*
X18208Y844790D01*
X17653Y845123D01*
X16542Y845123D01*
X15986Y844790D01*
X15875Y844123D01*
X15986Y843456D01*
G54D12*
X15875Y842234D02*
X18375Y842234D01*
G54D12*
X17819Y842234D02*
X18375Y841567D01*
X18375Y840901D01*
G54D12*
X16542Y837679D02*
X17653Y837679D01*
X18208Y838012D01*
X18375Y838679D01*
X18208Y839346D01*
X17653Y839679D01*
X16542Y839679D01*
X15986Y839346D01*
X15875Y838679D01*
X15986Y838012D01*
X16542Y837679D01*
G54D12*
X20319Y836457D02*
X16708Y836457D01*
X16153Y836124D01*
X15875Y835457D01*
X15875Y834790D01*
X16153Y834124D01*
X16708Y833790D01*
X20319Y833790D01*
G54D12*
X16708Y832568D02*
X16153Y832235D01*
X15875Y831568D01*
X15875Y830901D01*
X16153Y830235D01*
X16708Y829901D01*
X17264Y829901D01*
X17819Y830235D01*
X18097Y830901D01*
X18097Y831568D01*
X18375Y832235D01*
X18931Y832568D01*
X19486Y832568D01*
X20042Y832235D01*
X20319Y831568D01*
X20319Y830901D01*
X20042Y830235D01*
X19486Y829901D01*
G54D12*
X15875Y828679D02*
X20319Y828679D01*
X20319Y827012D01*
X20042Y826346D01*
X19486Y826012D01*
X18931Y826012D01*
X18375Y826346D01*
X18097Y827012D01*
X17819Y826346D01*
X17264Y826012D01*
X16708Y826012D01*
X16153Y826346D01*
X15875Y827012D01*
X15875Y828679D01*
G54D12*
X18097Y828679D02*
X18097Y827012D01*
G54D12*
X33012Y853760D02*
X34678Y849315D01*
X36345Y853760D01*
G54D12*
X40233Y850149D02*
X39900Y849593D01*
X39233Y849315D01*
X38567Y849315D01*
X37900Y849593D01*
X37567Y850149D01*
X37567Y852927D01*
X37900Y853482D01*
X38567Y853760D01*
X39233Y853760D01*
X39900Y853482D01*
X40233Y852927D01*
G54D12*
X44122Y850149D02*
X43789Y849593D01*
X43122Y849315D01*
X42456Y849315D01*
X41789Y849593D01*
X41456Y850149D01*
X41456Y852927D01*
X41789Y853482D01*
X42456Y853760D01*
X43122Y853760D01*
X43789Y853482D01*
X44122Y852927D01*
G54D12*
X37377Y837409D02*
X37377Y841854D01*
X39044Y841854D01*
X39711Y841576D01*
X40044Y841020D01*
X40044Y838242D01*
X39711Y837687D01*
X39044Y837409D01*
X37377Y837409D01*
G54D12*
X41266Y839354D02*
X43933Y839354D01*
G54D12*
X42600Y840465D02*
X42600Y838242D01*
G54D12*
X37377Y843362D02*
X37377Y847807D01*
X39044Y847807D01*
X39711Y847529D01*
X40044Y846973D01*
X40044Y844196D01*
X39711Y843640D01*
X39044Y843362D01*
X37377Y843362D01*
G54D12*
X41266Y845307D02*
X43933Y845307D01*
G54D12*
X37377Y831456D02*
X37377Y835900D01*
G54D12*
X38599Y831456D02*
X38599Y835900D01*
X40266Y835900D01*
X40933Y835623D01*
X41266Y835067D01*
X41266Y832289D01*
X40933Y831734D01*
X40266Y831456D01*
X38599Y831456D01*
G54D12*
X34940Y827725D02*
X36274Y827725D01*
X36274Y826336D01*
X35940Y825781D01*
X35274Y825503D01*
X34607Y825503D01*
X33940Y825781D01*
X33607Y826336D01*
X33607Y829114D01*
X33940Y829670D01*
X34607Y829947D01*
X35274Y829947D01*
X35940Y829670D01*
X36274Y829114D01*
G54D12*
X37496Y825503D02*
X37496Y829947D01*
X40163Y825503D01*
X40163Y829947D01*
G54D12*
X41385Y825503D02*
X41385Y829947D01*
X43052Y829947D01*
X43718Y829670D01*
X44052Y829114D01*
X44052Y826336D01*
X43718Y825781D01*
X43052Y825503D01*
X41385Y825503D01*
M02*
